<?xml version="1.0" encoding="UTF-8" standalone="no"?>
<!-- Created with Inkscape (http://www.inkscape.org/) -->

<svg
   xmlns:dc="http://purl.org/dc/elements/1.1/"
   xmlns:cc="http://creativecommons.org/ns#"
   xmlns:rdf="http://www.w3.org/1999/02/22-rdf-syntax-ns#"
   xmlns:svg="http://www.w3.org/2000/svg"
   xmlns="http://www.w3.org/2000/svg"
   xmlns:sodipodi="http://sodipodi.sourceforge.net/DTD/sodipodi-0.dtd"
   xmlns:inkscape="http://www.inkscape.org/namespaces/inkscape"
   version="1.1"
   id="svg604"
   width="1000"
   height="1000"
   viewBox="0 0 1000 1000"
   sodipodi:docname="fatou_bdc_e3.svg"
   inkscape:version="0.92.2 5c3e80d, 2017-08-06">
  <metadata
     id="metadata610">
    <rdf:RDF>
      <cc:Work
         rdf:about="">
        <dc:format>image/svg+xml</dc:format>
        <dc:type
           rdf:resource="http://purl.org/dc/dcmitype/StillImage" />
        <dc:title></dc:title>
      </cc:Work>
    </rdf:RDF>
  </metadata>
  <defs
     id="defs608" />
  <sodipodi:namedview
     pagecolor="#ffffff"
     bordercolor="#666666"
     borderopacity="1"
     objecttolerance="10"
     gridtolerance="10"
     guidetolerance="10"
     inkscape:pageopacity="0"
     inkscape:pageshadow="2"
     inkscape:window-width="1280"
     inkscape:window-height="756"
     id="namedview606"
     showgrid="false"
     inkscape:zoom="0.21667889"
     inkscape:cx="146.75182"
     inkscape:cy="600"
     inkscape:window-x="0"
     inkscape:window-y="0"
     inkscape:window-maximized="0"
     inkscape:current-layer="svg604" />
  <path
     style="fill:#000000;stroke-width:0.5"
     d="m 280.57608,905.52411 c -6.1255,-1.1536 -8.4632,-1.4718 -10.83102,-1.4745 -1.41955,0 -4.34455,-0.341 -6.5,-0.7542 -2.15544,-0.4132 -6.71622,-1.1126 -10.13507,-1.5543 -9.58074,-1.2377 -12.18115,-2.5009 -14.709,-7.1454 -1.95778,-3.59705 -2.20243,-6.9339 -0.90796,-12.384 1.74503,-7.3471 3.5014,-18.01186 4.32646,-26.27036 0.79646,-7.97223 1.28291,-10.14725 3.30007,-14.75518 1.14281,-2.61059 1.14281,-2.61059 -0.2922,-6.92913 -1.32517,-3.98802 -1.39077,-4.52945 -0.85705,-7.07399 0.73423,-3.50046 2.62083,-5.97558 5.55154,-7.28333 2.06191,-0.92007 3.11926,-1.01255 10.05423,-0.8794 18.98865,0.36457 46.41062,0.15055 49.47742,-0.38617 1.77509,-0.31065 5.03759,-1.45778 7.25,-2.54917 2.21242,-1.09139 5.31461,-2.34944 6.89376,-2.79565 1.65009,-0.46627 4.09552,-1.72398 5.75,-2.9573 3.87652,-2.8897 4.379,-3.11947 9.36484,-4.28201 5.7551,-1.34192 6.82673,-1.97097 9.25502,-5.43274 2.18787,-3.11902 4.61044,-4.75238 9.30447,-6.2733 2.923,-0.9471 3.91118,-1.76606 6.722,-5.57093 1.11451,-1.50866 3.80476,-4.1455 5.97833,-5.85965 2.17357,-1.71415 5.18479,-4.70593 6.6916,-6.64838 2.61506,-3.37111 3.91333,-4.48086 8.66826,-7.4095 1.55871,-0.96003 3.08247,-2.79499 5.86581,-7.06378 2.06806,-3.17177 4.26406,-6.94318 4.88,-8.38091 0.61594,-1.43774 1.97008,-4.073 3.00919,-5.85613 1.03912,-1.78314 1.88918,-3.80814 1.88902,-4.5 -1.5e-4,-0.69187 -0.90594,-2.72044 -2.01286,-4.50794 -1.10691,-1.7875 -2.49337,-4.825 -3.081,-6.75 -0.58764,-1.925 -1.70784,-5.00874 -2.48934,-6.85275 -0.7815,-1.84402 -1.76202,-4.99402 -2.17892,-7 -0.41691,-2.00599 -1.42828,-5.67225 -2.24749,-8.14725 -1.25594,-3.79446 -2.07965,-5.24474 -5.25369,-9.25 -5.13825,-6.48384 -6.11451,-8.63138 -6.94703,-15.28171 -0.70691,-5.64695 -1.24875,-7.33684 -4.7943,-14.95256 -1.14822,-2.46635 -2.72032,-6.89562 -3.49356,-9.84283 -0.77323,-2.94721 -2.52463,-8.24179 -3.89199,-11.76573 -3.14563,-8.10685 -3.80702,-10.45411 -5.11273,-18.14502 -0.89729,-5.28522 -1.03518,-7.84326 -0.90292,-16.75 0.0897,-6.04248 -0.13168,-13.91368 -0.52074,-18.51215 -0.59355,-7.01544 -0.58359,-8.36921 0.0809,-11 2.23535,-8.84933 3.83631,-14.87255 4.78436,-18 0.58354,-1.925 1.38089,-5.35918 1.77187,-7.63151 0.49791,-2.89372 1.25979,-5.11305 2.54303,-7.4077 1.00769,-1.8019 2.46571,-5.11773 3.24005,-7.36849 2.3279,-6.76649 5.87333,-14.32432 8.95632,-19.0923 1.60034,-2.475 3.53717,-5.60944 4.30406,-6.96543 0.76689,-1.35599 2.99227,-4.19317 4.94528,-6.30485 2.48993,-2.69223 4.82081,-6.05852 7.80093,-11.26623 6.60038,-11.53405 11.99055,-18.36155 18.25,-23.11648 1.65,-1.25341 4.9125,-4.10128 7.25,-6.3286 2.3375,-2.22732 6.05,-5.13786 8.25,-6.46787 2.2,-1.33 5.92346,-3.82678 8.27435,-5.5484 7.02031,-5.14113 15.20803,-9.90024 25.24835,-14.67558 12.68384,-6.03264 13.891,-6.26993 30.15112,-5.92679 15.95099,0.33662 19.74369,1.19593 30.47068,6.90367 2.67052,1.42097 6.093,3.22801 7.6055,4.01564 1.5125,0.78764 4.84763,1.87668 7.4114,2.4201 2.56377,0.54341 5.77245,1.59274 7.13041,2.33184 3.39086,1.84553 7.02168,5.83715 9.14527,10.05403 1.58562,3.14863 2.53203,4.18619 8.72943,9.57005 3.82304,3.3212 7.92706,7.33133 9.12002,8.9114 1.19296,1.58006 4.33348,5.015 6.97892,7.63318 2.8742,2.84456 5.46765,5.94785 6.44429,7.71113 0.8989,1.62294 3.14181,4.54794 4.98424,6.5 2.31228,2.44986 4.20956,5.17534 6.12536,8.79919 1.52653,2.8875 4.33545,7.61442 6.24206,10.50427 1.90661,2.88984 3.99224,6.71484 4.63473,8.5 0.6425,1.78515 2.03518,4.38208 3.09484,5.77095 3.39554,4.45041 3.61514,5.4178 3.22698,14.21569 -0.18829,4.2675 -0.58231,8.65909 -0.87561,9.75909 -0.68827,2.58128 -0.55023,18.42108 0.20087,23.04812 0.49831,3.06978 0.4595,3.87865 -0.28788,6 -2.07487,5.88929 -2.03295,5.3554 -0.81684,10.40408 2.08224,8.64442 0.67177,15.91912 -5.00187,25.7978 -1.65839,2.8875 -3.3753,6.4875 -3.81537,8 -0.44007,1.5125 -1.47725,4.09899 -2.30485,5.74776 -0.8276,1.64877 -1.91018,4.17621 -2.40572,5.61654 -1.23232,3.58179 -2.91701,5.84804 -9.8166,13.20534 -4.92066,5.24708 -6.29027,7.06381 -8.0699,10.70433 -1.41831,2.90137 -3.12475,5.41501 -5.04427,7.43036 -1.59548,1.67512 -3.82037,4.57173 -4.94421,6.43691 -1.89477,3.14467 -4.69265,6.43219 -13.91517,16.35037 -2.33782,2.51417 -4.27907,5.24092 -5.5963,7.86077 -1.10926,2.20621 -2.99481,4.99821 -4.19011,6.20446 -1.19531,1.20624 -3.3811,3.65566 -4.85733,5.44316 -3.08914,3.74049 -4.86892,5.2006 -8.02679,6.58505 -3.07455,1.34793 -3.84904,2.14661 -5.76216,5.94209 -0.90852,1.80243 -3.0505,4.8205 -4.75996,6.70683 -3.32506,3.66906 -5.74243,8.14483 -5.24519,9.71148 0.55327,1.74321 3.23495,5.01897 5.13847,6.27682 1.03336,0.68284 3.50343,1.58269 5.48904,1.99965 1.98562,0.41696 5.62479,1.54532 8.08706,2.50747 5.42001,2.11792 6.77138,2.43105 18.55274,4.29891 9.98687,1.58336 13.45566,1.75807 18.5,0.93178 1.7875,-0.2928 5.60007,-0.84311 8.47238,-1.2229 4.3169,-0.57082 5.87735,-1.03177 9,-2.65862 5.35071,-2.78761 6.66075,-3.06291 17.03871,-3.58058 5.94746,-0.29667 10.06218,-0.73925 11.5,-1.23696 4.61572,-1.59771 10.86145,-4.54142 14.48891,-6.82883 2.0625,-1.30057 4.3834,-2.60487 5.15755,-2.89843 1.82897,-0.69357 5.13813,-0.67872 8.23858,0.0369 3.18057,0.73416 4.02951,0.48776 8.85387,-2.56989 2.2,-1.39434 9.625,-5.32146 16.5,-8.72693 6.875,-3.40547 15.3125,-8.02692 18.75,-10.26988 17.8043,-11.61727 26.79003,-12.40262 31.3006,-2.73564 1.32025,2.82949 1.5494,5.68118 1.0031,12.48164 -0.26775,3.33278 -0.0626,7.3532 0.7907,15.5 0.82605,7.88613 1.156,14.11386 1.1656,22 0.009,7.36809 0.23835,12.03683 0.69475,14.14028 1.4545,6.70358 -0.38505,12.54444 -4.5727,14.51896 -1.17262,0.55293 -3.14455,1.15515 -4.38205,1.33829 -5.12245,0.75808 -6.01086,1.22106 -10.49192,5.46776 -5.26872,4.99316 -6.99194,5.71185 -15.00808,6.25935 -3.243,0.2215 -6.731,0.76339 -8,1.24287 -1.2375,0.46758 -4.90749,1.61297 -8.15553,2.5453 -3.24804,0.93234 -7.18554,2.41204 -8.75,3.28824 -8.05843,4.51324 -8.95443,4.89588 -13.34447,5.69881 -7.28619,1.33265 -10.18407,2.19724 -16,4.77368 -6.89985,3.05661 -21.22559,6.38031 -34.5,8.00431 -7.31357,0.89475 -27.68848,1.11524 -47.5,0.51403 -34.87522,-1.05835 -36.03324,-1.2056 -55.25,-7.02528 -6.4625,-1.95712 -14.71115,-4.21003 -18.33034,-5.00646 -7.54464,-1.66024 -10.1238,-2.8483 -14.66966,-6.7574 -4.99248,-4.29316 -6.58167,-4.3035 -10.03821,-0.0653 -5.79947,7.11097 -10.47908,12.15078 -13.94437,15.01768 -2.88869,2.38987 -4.19685,3.90545 -5.47453,6.34256 -2.23762,4.26813 -3.67188,5.73216 -7.54289,7.69943 -3.59092,1.82494 -4.68796,2.86989 -6.67806,6.36093 -1.77528,3.11421 -3.80717,4.56758 -8.19869,5.86438 -3.95809,1.1688 -6.0506,2.83134 -8.96956,7.12649 -2.19875,3.23538 -4.75255,4.78358 -9.45397,5.73123 -4.55252,0.91764 -5.9419,1.54755 -9.34319,4.23615 -1.35545,1.0714 -4.18392,2.77374 -6.28549,3.783 -5.80728,2.78875 -9.27033,4.93775 -12.44082,7.7201 -1.58412,1.39014 -3.66772,2.9284 -4.63022,3.4183 -3.42929,1.74545 -14.65364,5.0616 -19.6605,5.8085 -2.79922,0.4175 -6.01676,0.9662 -7.15008,1.2192 -3.95445,0.8827 -15.4545,2.0201 -25.04563,2.4772 -5.31483,0.2532 -9.92025,0.6192 -10.23428,0.8133 -0.31403,0.1941 -4.64088,0.3981 -9.61523,0.4533 -4.97435,0.055 -9.60678,0.2223 -10.29428,0.3712 -0.6875,0.1489 -2.2625,0.08 -3.5,-0.153 z M 472.76704,667.38157 c 0.85747,-0.91584 3.11706,-4.4596 5.0213,-7.875 2.39811,-4.30116 4.48713,-7.28557 6.79663,-9.70981 1.8339,-1.925 4.07958,-4.625 4.99041,-6 0.91083,-1.375 3.2712,-4.1875 5.24526,-6.25 1.97407,-2.0625 4.53083,-5.325 5.68168,-7.25 1.15087,-1.925 2.8561,-4.56479 3.78942,-5.86619 0.93332,-1.3014 2.18672,-3.83794 2.78533,-5.63678 1.18058,-3.54764 2.7721,-5.4924 6.65789,-8.1356 1.86805,-1.2707 2.68644,-2.28101 3.64518,-4.5 0.67997,-1.57379 2.22201,-4.88643 3.42677,-7.36143 4.47096,-9.18499 6.26917,-13.61092 6.26917,-15.43032 0,-1.08487 -0.61491,-2.99088 -1.5,-4.64951 -1.85477,-3.47575 -1.88098,-5.31775 -0.13641,-9.58489 1.97469,-4.83002 1.81719,-7.13926 -0.83205,-12.19966 -1.17979,-2.25353 -2.91822,-6.13095 -3.86319,-8.61648 -1.75855,-4.62547 -5.00532,-10.59643 -6.38415,-11.74076 -1.22357,-1.01547 -3.00755,-0.2415 -6.38052,2.76814 -1.71556,1.53078 -4.64133,3.84198 -6.50171,5.13602 -2.26138,1.57298 -4.42149,3.71294 -6.51723,6.45648 -1.95803,2.56326 -4.37241,4.99657 -6.4319,6.48233 -1.81344,1.30826 -4.30166,3.61615 -5.52937,5.12865 -2.37641,2.92763 -4.49822,4.63301 -8.92347,7.17211 -2.46196,1.41262 -2.95948,1.99761 -4.75,5.58508 -1.98743,3.982 -3.49719,6.07651 -10.8253,15.01803 -3.99195,4.87085 -4.91683,6.83971 -5.92552,12.61416 -0.40626,2.32571 -0.39628,4.13997 0.0385,7 0.3228,2.12334 0.73882,8.02312 0.92449,13.11062 0.33284,9.12027 0.35994,9.29348 1.93248,12.35041 0.87719,1.70522 2.07601,4.85522 2.66403,7 0.58802,2.14477 2.03004,5.72219 3.20448,7.94981 1.29254,2.45166 2.46746,5.60915 2.97682,8 1.79883,8.44334 2.92798,10.69978 5.35431,10.69978 1.09693,0 1.98442,-0.47724 3.09665,-1.66519 z"
     id="path614"
     inkscape:connector-curvature="0" />
</svg>
