<?xml version="1.0" encoding="UTF-8" standalone="no"?>
<!-- Created with Inkscape (http://www.inkscape.org/) -->

<svg
   xmlns:dc="http://purl.org/dc/elements/1.1/"
   xmlns:cc="http://creativecommons.org/ns#"
   xmlns:rdf="http://www.w3.org/1999/02/22-rdf-syntax-ns#"
   xmlns:svg="http://www.w3.org/2000/svg"
   xmlns="http://www.w3.org/2000/svg"
   xmlns:sodipodi="http://sodipodi.sourceforge.net/DTD/sodipodi-0.dtd"
   xmlns:inkscape="http://www.inkscape.org/namespaces/inkscape"
   version="1.1"
   id="svg4150"
   width="1000"
   height="1000"
   viewBox="0 0 1000 1000"
   sodipodi:docname="fatou_bdc_i.svg"
   inkscape:version="0.92.2 5c3e80d, 2017-08-06">
  <metadata
     id="metadata4156">
    <rdf:RDF>
      <cc:Work
         rdf:about="">
        <dc:format>image/svg+xml</dc:format>
        <dc:type
           rdf:resource="http://purl.org/dc/dcmitype/StillImage" />
        <dc:title></dc:title>
      </cc:Work>
    </rdf:RDF>
  </metadata>
  <defs
     id="defs4154" />
  <sodipodi:namedview
     pagecolor="#ffffff"
     bordercolor="#666666"
     borderopacity="1"
     objecttolerance="10"
     gridtolerance="10"
     guidetolerance="10"
     inkscape:pageopacity="0"
     inkscape:pageshadow="2"
     inkscape:window-width="1027"
     inkscape:window-height="480"
     id="namedview4152"
     showgrid="false"
     inkscape:zoom="0.19666667"
     inkscape:cx="531.38983"
     inkscape:cy="600"
     inkscape:window-x="21"
     inkscape:window-y="79"
     inkscape:window-maximized="0"
     inkscape:current-layer="svg4150" />
  <path
     style="fill:#000000;stroke-width:0.5"
     d="m 356.50424,827.02241 c -1.375,-0.3565 -3.7375,-1.22595 -5.25,-1.9321 -2.16368,-1.0102 -3.53342,-1.28495 -6.42444,-1.2888 -5.48333,-0.008 -8.37203,-1.80845 -9.56354,-5.963 -0.22936,-0.7997 -0.19092,-9.85505 0.0854,-20.12295 0.27633,-10.26795 0.53621,-20.92735 0.57749,-23.6876 0.0866,-5.79125 0.75981,-7.33728 3.73646,-8.581 2.62133,-1.09527 7.97797,-0.61366 12.03904,1.0824 3.3823,1.4126 11.48389,2.74025 16.8264,2.7575 4.56158,0.0145 7.44297,-1.62453 11.25391,-6.40239 1.68365,-2.11082 4.56175,-5.07536 6.39578,-6.58786 6.09835,-5.02921 8.26339,-7.79677 13.12924,-16.78303 2.52156,-4.65683 4.90964,-9.23665 5.30685,-10.17738 0.3972,-0.94072 1.82823,-3.3495 3.18006,-5.35283 1.58247,-2.34511 2.99226,-5.29107 3.95823,-8.27126 0.8252,-2.54586 2.61938,-6.99958 3.98707,-9.89716 1.50165,-3.18137 2.77173,-6.76386 3.20621,-9.04363 0.39571,-2.07641 1.5015,-5.78891 2.45729,-8.25 0.99488,-2.56173 2.08099,-6.66718 2.54055,-9.6032 0.44151,-2.82067 1.37857,-6.53317 2.08235,-8.25 1.6853,-4.11112 3.12005,-11.1655 3.75266,-18.45099 0.28159,-3.24294 0.95215,-7.53296 1.49014,-9.53338 0.53799,-2.00043 1.33313,-5.32464 1.76698,-7.38714 0.43386,-2.0625 1.2074,-5.4375 1.71899,-7.5 0.51159,-2.0625 1.07915,-4.875 1.26123,-6.25 0.18208,-1.375 0.63578,-3.7375 1.00821,-5.25 0.79967,-3.2476 1.63128,-9.30902 2.22944,-16.25 0.29898,-3.46936 0.8254,-5.9455 1.7196,-8.08859 1.03864,-2.48924 1.37608,-4.40116 1.7389,-9.85249 0.52296,-7.85714 1.21955,-9.59684 4.99576,-12.47662 1.28488,-0.97986 3.17749,-2.69089 4.20579,-3.80229 3.41551,-3.6915 5.62373,-4.29757 12.89716,-3.53973 2.85493,0.29746 7.38898,0.75395 10.07569,1.01443 3.78308,0.36676 6.09507,0.94362 10.25,2.55743 2.9508,1.14612 6.04008,2.53443 6.86508,3.08513 2.35113,1.56944 10.16491,9.36301 11.88346,11.85273 0.85419,1.2375 2.55674,3.4875 3.78343,5 3.15873,3.89467 5.08223,8.15997 5.08271,11.27077 2.2e-4,1.38642 0.35974,5.21142 0.79894,8.5 0.54198,4.05815 0.68138,7.18408 0.43387,9.72923 -0.49812,5.12226 -0.43428,5.93231 0.74296,9.4269 0.85327,2.53287 1.02613,4.31945 1.03362,10.68233 0.008,6.65546 0.18322,8.31779 1.36001,12.89077 1.35101,5.25 1.35101,5.25 1.38837,25.25 0.0373,20 0.0373,20 1.60039,27.30841 1.01535,4.74759 2.38473,9.30269 3.90815,13 1.94513,4.72077 2.40582,6.45916 2.70089,10.19159 0.19565,2.475 0.64364,5.03439 0.99552,5.68752 0.35188,0.65313 1.16091,2.67813 1.79786,4.5 3.08499,8.82408 5.74053,13.80079 9.51656,17.83489 1.77691,1.89834 2.59478,2.03695 14.72326,2.49534 11.54609,0.43637 17.156,-0.43852 25.91334,-4.04131 3.76016,-1.54694 8.5021,-3.28814 10.53764,-3.86932 3.01568,-0.86103 4.12668,-1.47848 6,-3.33457 1.26446,-1.25283 3.53652,-3.0322 5.04902,-3.95415 1.5125,-0.92195 3.7236,-2.89779 4.91357,-4.39076 3.28292,-4.11888 5.56598,-5.42764 9.46821,-5.42764 2.88058,0 3.32515,0.13992 4.39438,1.38298 0.65427,0.76063 1.40624,2.22313 1.67102,3.25 0.26479,1.02686 0.68202,14.46702 0.92718,29.86702 0.35983,22.6032 0.31975,28.44105 -0.20794,30.28835 -0.92189,3.2272 -6.55645,10.94175 -8.97839,12.2927 -2.69199,1.5016 -6.66568,2.1366 -15.68803,2.50705 -6.28231,0.258 -8.41283,0.5443 -11.25,1.51205 -1.94461,0.6633 -5.722,1.39905 -8.5,1.65565 -2.75,0.254 -5.7875,0.7022 -6.75,0.9959 -0.9625,0.29375 -5.04856,0.7601 -9.08012,1.03635 -6.9286,0.47475 -7.49007,0.44385 -10.25,-0.5648 -1.60594,-0.5869 -3.88938,-1.3767 -5.07432,-1.7551 -2.07426,-0.66245 -17.42677,-3.29685 -23.09556,-3.9631 -3.80502,-0.4472 -7.08162,-1.5633 -9.3389,-3.18115 -1.05111,-0.75335 -3.4861,-2.22135 -5.4111,-3.26225 -1.925,-1.04085 -5.075,-3.4082 -7,-5.26075 -1.925,-1.8526 -4.3478,-3.98645 -5.384,-4.7419 -1.0362,-0.7555 -3.94447,-4.11535 -6.46284,-7.4663 -2.51836,-3.351 -5.77205,-7.39415 -7.23042,-8.9848 -1.51801,-1.65565 -3.43604,-4.54135 -4.48653,-6.75 -2.20963,-4.64568 -6.99089,-12.92913 -8.35074,-14.46749 -1.25093,-1.41515 -1.67918,-1.11825 -3.13491,2.17343 -0.65329,1.4772 -1.7275,3.54075 -2.38713,4.58568 -0.65963,1.04492 -1.71462,3.12625 -2.34441,4.62517 -0.6298,1.49892 -2.42147,4.75031 -3.9815,7.22531 -1.56002,2.475 -3.57348,5.85 -4.47434,7.5 -0.90087,1.65 -2.57695,4.125 -3.72463,5.5 -1.14767,1.375 -3.41028,4.4125 -5.02801,6.75 -7.42317,10.72595 -17.7828,20.63465 -28.01054,26.79135 -7.70841,4.64015 -8.66188,5.07715 -12.5512,5.75275 -1.89684,0.3295 -4.6863,1.0376 -6.1988,1.5736 -2.50143,0.88645 -4.39959,0.98725 -21,1.1154 -13.71791,0.10595 -18.87083,-0.02 -20.75,-0.5073 z m 131.25,-417.19421 c -5.84291,-0.39592 -6.06895,-0.46464 -10.12461,-3.07833 -1.58103,-1.0189 -4.03412,-2.26896 -5.4513,-2.77791 -1.61051,-0.57837 -3.83267,-2.05127 -5.92624,-3.92805 -2.6999,-2.42032 -4.06532,-3.23323 -7.03999,-4.19129 -2.55297,-0.82223 -4.15545,-1.6855 -5.19915,-2.8008 -0.82979,-0.88671 -3.42121,-3.63378 -5.75871,-6.10459 -2.3375,-2.47081 -5.13393,-5.77192 -6.21428,-7.3358 -3.44569,-4.98787 -5.05365,-6.51408 -9.81982,-9.32067 -5.64371,-3.32332 -8.4659,-5.85423 -8.4659,-7.59212 0,-1.92863 -0.98528,-4.42749 -2.7214,-6.90203 -0.86822,-1.2375 -2.30949,-3.48751 -3.20281,-5.00001 -0.89332,-1.5125 -2.62582,-4.17067 -3.85001,-5.90706 -2.52332,-3.57909 -2.80866,-5.62715 -1.47578,-10.59294 0.40597,-1.5125 0.7408,-3.89955 0.74406,-5.30454 0.006,-2.64784 0.29862,-3.34546 5.00783,-11.94546 2.83726,-5.18141 7.93784,-10.42595 10.92098,-11.22923 1.16445,-0.31356 6.10192,-0.61525 10.97216,-0.67043 8.85497,-0.10034 8.85497,-0.10034 12.35497,1.57781 1.925,0.92298 5.01129,2.20079 6.85842,2.83958 3.65925,1.26545 6.80014,3.23497 9.14158,5.73227 0.825,0.87992 2.45429,2.26185 3.62065,3.07095 1.16635,0.80911 3.03099,2.81164 4.14363,4.45007 1.11264,1.63844 2.20792,2.97898 2.43395,2.97898 0.22604,0 1.44009,0.90586 2.69789,2.01302 2.28944,2.01525 4.59637,5.97824 11.64235,19.99994 1.63816,3.25998 3.75155,6.51748 5.5531,8.5593 3.33158,3.77595 10.65635,17.45134 11.89563,22.20924 0.47872,1.83796 0.78285,5.72985 0.85276,10.91266 0.0995,7.37985 0.0156,8.2623 -1.00022,10.51602 -1.76537,3.91673 -4.25279,6.56129 -7.82597,8.32036 -3.66404,1.8038 -6.31633,2.07347 -14.76377,1.50106 z m -25.75,-106.0316 c -0.46165,-0.74697 0.18069,-1.5 1.27951,-1.5 0.63715,0 0.97049,0.34347 0.97049,1 0,1.06053 -1.67371,1.43246 -2.25,0.5 z"
     id="path4160"
     inkscape:connector-curvature="0" />
</svg>
