<?xml version="1.0" encoding="UTF-8" standalone="no"?>
<!-- Created with Inkscape (http://www.inkscape.org/) -->

<svg
   xmlns:dc="http://purl.org/dc/elements/1.1/"
   xmlns:cc="http://creativecommons.org/ns#"
   xmlns:rdf="http://www.w3.org/1999/02/22-rdf-syntax-ns#"
   xmlns:svg="http://www.w3.org/2000/svg"
   xmlns="http://www.w3.org/2000/svg"
   xmlns:sodipodi="http://sodipodi.sourceforge.net/DTD/sodipodi-0.dtd"
   xmlns:inkscape="http://www.inkscape.org/namespaces/inkscape"
   version="1.1"
   id="svg358"
   width="1000"
   height="1000"
   viewBox="0 0 1000 1000"
   sodipodi:docname="fatou_bdc_a4.svg"
   inkscape:version="0.92.2 5c3e80d, 2017-08-06">
  <metadata
     id="metadata364">
    <rdf:RDF>
      <cc:Work
         rdf:about="">
        <dc:format>image/svg+xml</dc:format>
        <dc:type
           rdf:resource="http://purl.org/dc/dcmitype/StillImage" />
        <dc:title></dc:title>
      </cc:Work>
    </rdf:RDF>
  </metadata>
  <defs
     id="defs362" />
  <sodipodi:namedview
     pagecolor="#ffffff"
     bordercolor="#666666"
     borderopacity="1"
     objecttolerance="10"
     gridtolerance="10"
     guidetolerance="10"
     inkscape:pageopacity="0"
     inkscape:pageshadow="2"
     inkscape:window-width="1280"
     inkscape:window-height="703"
     id="namedview360"
     showgrid="false"
     inkscape:zoom="0.13798001"
     inkscape:cx="185.53953"
     inkscape:cy="600"
     inkscape:window-x="0"
     inkscape:window-y="0"
     inkscape:window-maximized="0"
     inkscape:current-layer="svg358" />
  <path
     style="fill:#000000;stroke-width:0.5"
     d="m 300.2111,837.26931 c -3.00538,-0.9713 -3.99134,-1.6046 -7.62564,-4.8982 -2.26867,-2.0559 -5.08902,-3.89615 -8.85193,-5.77567 -3.03733,-1.51711 -7.65993,-4.27081 -10.27243,-6.11935 -2.6125,-1.84853 -6.54027,-4.56174 -8.72839,-6.02935 -5.53759,-3.71418 -8.00771,-6.12936 -10.41766,-10.18589 -1.14262,-1.92333 -3.22166,-4.74921 -4.62008,-6.27973 -3.84088,-4.20372 -4.60603,-5.51265 -6.95698,-11.90119 -1.19043,-3.23487 -3.17521,-8.13158 -4.41063,-10.88158 -3.20801,-7.14088 -3.65102,-8.67242 -4.81763,-16.65491 -0.57409,-3.92822 -1.62938,-9.40982 -2.3451,-12.18134 -1.51673,-5.8734 -1.7039,-10.23096 -0.73041,-17.00548 0.62301,-4.33557 0.60852,-5.23872 -0.13868,-8.63921 -1.11962,-5.09535 -1.05414,-7.46047 0.37243,-13.45106 0.67648,-2.84071 1.34696,-7.59501 1.52562,-10.818 0.55428,-9.99899 3.4442,-27.92012 5.22072,-32.375 0.57573,-1.44375 1.48694,-3.72648 2.0249,-5.07274 0.53796,-1.34626 1.3325,-4.66501 1.76565,-7.375 0.60252,-3.76965 1.35944,-6.16069 3.22178,-10.17726 1.33883,-2.8875 2.58678,-5.92134 2.77321,-6.74188 0.18644,-0.82053 1.12687,-3.18303 2.08986,-5.25 0.96298,-2.06696 3.08713,-7.32104 4.72033,-11.67572 3.60167,-9.60335 3.88428,-10.17301 7.23439,-14.5824 1.77196,-2.33225 3.40479,-5.35665 4.89394,-9.0648 1.22912,-3.06064 3.78722,-8.12314 5.68466,-11.25 1.89745,-3.12686 4.75391,-8.01194 6.3477,-10.85574 1.59378,-2.84379 5.23274,-8.29686 8.08657,-12.11793 2.85383,-3.82106 6.459,-8.91932 8.01148,-11.32946 1.55248,-2.41014 4.11448,-5.76568 5.69333,-7.45675 1.57885,-1.69108 3.18076,-3.81373 3.55981,-4.71702 2.22245,-5.29615 3.25337,-6.75588 6.43918,-9.11759 1.7875,-1.32511 5.3875,-4.50259 8,-7.06105 3.152,-3.08682 5.7885,-5.17386 7.83689,-6.20367 2.07183,-1.04159 3.79818,-2.415 5.25,-4.17666 4.08079,-4.95171 6.21553,-6.7051 11.41517,-9.37597 2.84507,-1.46141 7.75018,-4.22308 10.90025,-6.13705 6.7587,-4.10655 10.41227,-5.57334 15.84769,-6.36231 5.17347,-0.75096 8.03397,-1.68312 13.25,-4.31787 2.3375,-1.18072 5.66082,-2.50497 7.38515,-2.94277 1.72434,-0.4378 4.98684,-1.49898 7.25,-2.35819 3.79011,-1.4389 4.66728,-1.57317 11.11485,-1.70134 12.71642,-0.25278 31.46243,-1.18372 33.75,-1.67604 2.92499,-0.6295 10.13373,-0.62105 13,0.0152 1.2375,0.27471 8.55,0.70289 16.25,0.95149 17.3285,0.55948 17.68656,0.64763 23.20346,5.71274 3.426,3.14543 4.62422,3.90684 8.15626,5.18287 2.27716,0.82267 6.61528,1.85632 9.64028,2.297 7.04474,1.02626 10.22073,2.55271 12.61465,6.06286 2.66222,3.90356 3.5335,4.75 4.8894,4.75 0.8739,0 1.52683,-0.45952 2.1283,-1.49785 0.47721,-0.82382 1.60578,-2.79257 2.50795,-4.375 0.90217,-1.58243 3.42331,-4.90111 5.60255,-7.37483 2.57605,-2.92415 4.31504,-5.41955 4.97062,-7.1327 0.5546,-1.44925 2.36586,-4.68168 4.02502,-7.18316 1.946,-2.93395 3.39568,-5.81488 4.08461,-8.1173 1.57153,-5.25212 2.15965,-6.19871 6.41129,-10.31916 3.13825,-3.0414 4.07743,-4.31688 4.97026,-6.75 0.60547,-1.65 1.756,-4.27036 2.55671,-5.82302 0.80072,-1.55267 1.91869,-4.55017 2.48439,-6.66113 0.56569,-2.11096 1.35856,-4.34179 1.76192,-4.9574 1.13301,-1.72918 4.15673,-3.17848 7.99712,-3.83309 4.33978,-0.73974 6.19802,-1.48852 9.24521,-3.72536 3.11948,-2.28991 4.86282,-2.9861 10.54549,-4.21122 2.58747,-0.55784 7.29201,-1.71314 10.45451,-2.56734 9.79602,-2.64594 13.91956,-1.77463 21.02734,4.44308 3.29381,2.88135 4.1215,4.56965 4.48372,9.14573 0.24939,3.15079 0.58441,4.25099 1.93573,6.35682 2.42343,3.7766 3.1131,6.88696 3.2335,14.58293 0.10326,6.60072 0.14114,6.81171 1.71265,9.54043 1.93953,3.36772 2.03523,5.33741 0.53919,11.09782 -0.89858,3.45994 -1.0227,4.98362 -0.78299,9.61175 0.35642,6.88119 -0.17042,9.70286 -2.52058,13.5 -1.64993,2.66578 -2.74877,4.6923 -7.50701,13.84476 -0.92932,1.78756 -1.31774,3.5783 -1.63448,7.53564 -0.50592,6.32088 -1.70036,9.89014 -4.73096,14.13714 -2.81442,3.94406 -3.75611,6.10472 -3.75611,8.61823 0,2.72373 -2.08274,6.55368 -4.7983,8.8236 -2.9725,2.48471 -3.96202,4.78471 -5.21035,12.11072 -0.55574,3.26145 -1.14439,6.35701 -1.30811,6.87902 -0.16372,0.52202 -1.58799,2.33612 -3.16505,4.03134 -2.56565,2.75788 -2.95407,3.46609 -3.69119,6.73014 -0.62975,2.7886 -1.34393,4.33984 -3.03183,6.58525 -1.21443,1.61553 -2.69855,4.41134 -3.29807,6.21289 -0.71689,2.15424 -2.20404,4.76736 -4.34425,7.63341 -1.78981,2.39683 -3.82607,5.48286 -4.52501,6.85786 -0.69894,1.375 -2.616,4.50083 -4.26014,6.94628 -4.26351,6.34144 -5.70626,9.52797 -6.65037,14.68835 -1.00684,5.50334 -1.76199,6.82251 -5.53869,9.67547 -2.41397,1.82355 -3.28011,2.91567 -4.92864,6.21458 -1.1,2.20124 -2.59051,4.78369 -3.31226,5.73879 -2.13282,2.8224 -2.32223,3.4422 -3.65129,11.94798 -1.62072,10.37235 -2.02602,15.42711 -1.3713,17.10218 0.28239,0.7225 2.24723,3.24669 4.36632,5.60931 4.1926,4.67443 3.98351,4.55925 13.46853,7.41888 5.5,1.65818 5.5,1.65818 26,1.65818 24.15576,0 23.27896,0.15073 31.62158,-5.43597 6.88073,-4.60773 8.1385,-5.04693 13.07186,-4.56455 7.6992,0.75283 8.54241,0.65704 12.83326,-1.45788 3.2199,-1.58706 4.8291,-2.83925 8.48665,-6.60386 2.7267,-2.80655 5.29975,-4.97469 6.5,-5.47717 1.19155,-0.49884 4.38795,-0.99289 7.98665,-1.23444 3.3,-0.2215 7.1045,-0.75674 8.45445,-1.18943 3.0149,-0.96632 6.30155,-1.00852 8.4366,-0.10833 2.05775,0.86759 4.96275,4.09791 10.66985,11.8647 7.56255,10.29195 10.7275,17.88922 11.6535,27.97365 0.7639,8.31925 1.34605,10.95872 4.0215,18.23328 6.39225,17.38048 8.1926,23.33166 8.41605,27.81959 0.2125,4.26824 0.18765,4.37946 -2.09345,9.35579 -1.26965,2.76991 -2.3085,5.27733 -2.3085,5.57204 0,1.45825 -2.7315,5.664 -4.52005,6.95961 -2.4261,1.75746 -4.94015,2.36408 -12.5911,3.03811 -7.5564,0.6657 -15.2154,3.34166 -22.00235,7.68736 -3.6392,2.33021 -4.473,2.63916 -11.0813,4.10617 -6.71345,1.49034 -11.4188,3.72152 -16.3052,7.73159 -4.80035,3.93945 -5.34575,4.20506 -11.7342,5.71456 -3.81399,0.90119 -6.85373,2.04224 -10.67419,4.00684 -6.00958,3.09032 -17.36694,6.8683 -24.29676,8.08222 -3.43261,0.60131 -6.13557,0.71715 -11.04485,0.47336 -14.22583,-0.70642 -19.55672,-1.26254 -24.5,-2.55584 -3.54274,-0.92688 -7.11302,-1.42667 -12.25,-1.71484 -7.88559,-0.44236 -8.45723,-0.59607 -16.5,-4.43651 -2.8875,-1.37879 -7.43732,-3.08105 -10.11071,-3.78281 -6.24146,-1.63835 -8.57561,-2.86617 -14.38929,-7.56912 -2.6125,-2.11338 -6.6625,-5.10835 -9,-6.65551 -7.40604,-4.90194 -18.1013,-16.54911 -21.76355,-23.70056 -3.488,-6.8112 -6.33663,-10.89337 -9.97979,-14.30138 -4.77386,-4.4657 -5.30966,-4.48142 -13.42552,-0.39366 -5.35433,2.69683 -6.80663,3.66411 -7.79075,5.18887 -0.66528,1.03077 -1.73593,2.67646 -2.37922,3.65709 -1.23959,1.88964 -9.53019,10.07845 -15.59965,15.40813 -1.99872,1.7551 -5.44034,5.53096 -7.64806,8.3908 -2.71987,3.52328 -5.24716,6.14503 -7.83875,8.13173 -2.10359,1.61261 -7.08721,6.27541 -11.07471,10.36178 -7.52594,7.71256 -10.88494,10.32742 -21.25,16.54237 -12.62705,7.57124 -14.38622,8.26899 -32.5,12.89056 -2.475,0.63147 -6.32874,1.95327 -8.56386,2.93737 -2.23512,0.984 -6.84762,2.474 -10.25,3.311 -5.41535,1.3322 -7.55674,1.5781 -17.18614,1.9734 -23.16452,0.9511 -29.40304,1.0186 -31.5,0.3408 z m 45,-97.87455 c 2.81952,-0.77256 7.78155,-3.3304 12.75,-6.57241 2.72033,-1.77506 6.13149,-3.42798 9.47749,-4.59243 5.37475,-1.87048 6.46672,-2.52742 11.39738,-6.85675 3.11349,-2.73379 6.79177,-4.77475 11.12513,-6.17297 3.88987,-1.25513 5.16412,-1.9729 9.20976,-5.18783 1.96563,-1.56201 5.39487,-3.78741 7.62053,-4.94532 2.22566,-1.15792 5.1431,-3.07689 6.48319,-4.26439 1.34008,-1.18749 3.78652,-3.18842 5.43652,-4.44651 2.98078,-2.27277 5.37025,-4.69425 11.91758,-12.07717 3.45394,-3.89475 5.06432,-4.99606 10.01264,-6.84747 1.78386,-0.66742 3.42185,-1.7745 4.73784,-3.20218 1.10626,-1.20015 3.58987,-3.44155 5.51915,-4.98088 4.12212,-3.28897 13.04646,-14.55003 14.899,-18.8001 3.10677,-7.12751 3.74581,-8.05351 7.44642,-10.79024 3.24669,-2.40104 3.71953,-2.97827 4.9615,-6.05686 0.75505,-1.87159 1.48855,-4.79351 1.63,-6.49316 0.28591,-3.43515 0.82794,-2.5876 -4.98506,-7.79484 -1.29851,-1.16319 -3.10769,-3.4649 -4.02041,-5.1149 -1.51354,-2.73617 -2.02658,-3.19856 -5.83398,-5.25796 -4.87222,-2.63534 -6.27625,-4.48793 -5.79944,-7.65224 0.43238,-2.86944 1.55951,-4.20038 5.98603,-7.06839 5.11192,-3.31212 7.79564,-6.11148 10.88135,-11.35024 2.3414,-3.97511 2.44854,-4.3173 2.27946,-7.28002 -0.14,-2.45321 -0.43625,-3.38945 -1.40475,-4.43943 -2.05248,-2.22517 -4.11515,-2.77324 -11.44588,-3.04127 -3.7298,-0.13637 -9.09912,-0.67826 -11.93183,-1.2042 -5.70378,-1.059 -10.81109,-1.2313 -12.90461,-0.43534 -0.75355,0.2865 -2.22056,1.28925 -3.26002,2.22834 -4.30354,3.88799 -8.47858,4.72439 -23.68499,4.74488 -4.675,0.006 -9.32049,0.23935 -10.32331,0.51789 -1.00281,0.27854 -3.81209,1.98916 -6.24284,3.80137 -2.43075,1.81223 -6.35674,4.26787 -8.72443,5.45699 -2.3677,1.18913 -5.52092,3.25817 -7.00716,4.59789 -1.48624,1.3397 -4.72726,4.09034 -7.20226,6.11253 -6.69191,5.46759 -8.15546,6.94069 -10.52089,10.58952 -2.41647,3.72758 -4.22314,5.24473 -8.22911,6.91039 -1.5125,0.62889 -3.39055,1.59636 -4.17346,2.14992 -1.97093,1.39358 -6.88657,7.68382 -9.38799,12.01324 -1.14594,1.98337 -3.27276,5.09351 -4.72627,6.91143 -1.45351,1.81792 -3.65523,5.13573 -4.89271,7.37292 -1.23748,2.2372 -3.24648,5.36231 -4.46445,6.9447 -1.21798,1.5824 -2.81094,4.40395 -3.53993,6.27012 -0.72898,1.86618 -1.89872,4.3012 -2.59941,5.41118 -0.7007,1.10998 -2.01371,3.6331 -2.9178,5.60696 -0.90409,1.97385 -2.44299,4.62939 -3.41978,5.90119 -2.58972,3.37188 -2.77743,3.85308 -3.37314,8.64697 -0.76756,6.17677 -1.86642,11.4142 -3.35744,16.00228 -1.21487,3.73834 -1.2629,4.2738 -0.85213,9.5 0.23942,3.04611 0.43963,9.52359 0.44491,14.39439 0.008,7.19686 0.15011,8.9962 0.7596,9.60429 1.68229,1.67843 8.76031,5.26552 10.95525,5.55205 5.17261,0.67525 7.43916,1.3561 10.23843,3.07555 1.61903,0.99449 3.86903,2.09774 5,2.45168 2.56729,0.80343 7.4203,0.87912 10.05632,0.15683 z"
     id="path368"
     inkscape:connector-curvature="0" />
</svg>
