<?xml version="1.0" encoding="UTF-8" standalone="no"?>
<!-- Created with Inkscape (http://www.inkscape.org/) -->

<svg
   xmlns:dc="http://purl.org/dc/elements/1.1/"
   xmlns:cc="http://creativecommons.org/ns#"
   xmlns:rdf="http://www.w3.org/1999/02/22-rdf-syntax-ns#"
   xmlns:svg="http://www.w3.org/2000/svg"
   xmlns="http://www.w3.org/2000/svg"
   xmlns:sodipodi="http://sodipodi.sourceforge.net/DTD/sodipodi-0.dtd"
   xmlns:inkscape="http://www.inkscape.org/namespaces/inkscape"
   version="1.1"
   id="svg4314"
   width="1000"
   height="1000"
   viewBox="0 0 1000 1000"
   sodipodi:docname="fatou_bdc_o.svg"
   inkscape:version="0.92.2 5c3e80d, 2017-08-06">
  <metadata
     id="metadata4320">
    <rdf:RDF>
      <cc:Work
         rdf:about="">
        <dc:format>image/svg+xml</dc:format>
        <dc:type
           rdf:resource="http://purl.org/dc/dcmitype/StillImage" />
        <dc:title></dc:title>
      </cc:Work>
    </rdf:RDF>
  </metadata>
  <defs
     id="defs4318" />
  <sodipodi:namedview
     pagecolor="#ffffff"
     bordercolor="#666666"
     borderopacity="1"
     objecttolerance="10"
     gridtolerance="10"
     guidetolerance="10"
     inkscape:pageopacity="0"
     inkscape:pageshadow="2"
     inkscape:window-width="1027"
     inkscape:window-height="480"
     id="namedview4316"
     showgrid="false"
     inkscape:zoom="0.19666667"
     inkscape:cx="559"
     inkscape:cy="600"
     inkscape:window-x="0"
     inkscape:window-y="0"
     inkscape:window-maximized="0"
     inkscape:current-layer="svg4314" />
  <path
     style="fill:#000000;stroke-width:0.5"
     d="m 280.39406,888.04997 c -7.32627,-0.34955 -8.7992,-0.7007 -13.15715,-3.13695 -2.50421,-1.39995 -2.84956,-1.4622 -6,-1.08155 -1.83857,0.22215 -7.73035,0.3462 -13.09285,0.27565 -14.60419,-0.19205 -14.85611,-0.40785 -15.76924,-13.50785 -0.39585,-5.679 -0.44206,-12.06935 -0.14673,-20.28995 0.26923,-7.49375 0.24047,-15.9669 -0.0766,-22.56375 -0.33382,-6.946 -0.34121,-12.6014 -0.0216,-16.51358 1.01263,-12.39425 1.75049,-15.21101 4.5141,-17.23245 1.49691,-1.09491 2.04374,-1.12019 14.5,-0.67032 12.58773,0.45462 20.76297,-0.20977 25.11194,-2.04081 1.72593,-0.72667 4.82556,-1.82429 6.88806,-2.43917 2.0625,-0.61487 6,-2.10887 8.75,-3.32 4.38211,-1.92991 5.55611,-2.73584 9.5,-6.52153 2.475,-2.37572 6.075,-5.32454 8,-6.55293 4.15647,-2.65235 4.16383,-2.66055 6.47537,-7.21141 1.30669,-2.57256 2.65077,-4.29612 4.82483,-6.18706 1.7962,-1.56228 4.38337,-4.66635 6.40449,-7.68405 13.59831,-20.30342 16.53837,-24.46277 19.4865,-27.56782 2.78374,-2.93192 3.4858,-4.03538 4.29457,-6.75 0.53175,-1.78481 1.80674,-5.32794 2.83331,-7.8736 1.02656,-2.54567 2.24536,-6.25817 2.70844,-8.25 0.46308,-1.99184 1.27389,-5.38101 1.80181,-7.53149 3.18411,-12.97073 4.01125,-31.26962 1.74434,-38.59003 -1.06028,-3.42387 -1.82366,-10.01968 -1.82366,-15.75684 0,-2.63068 -0.31759,-6.01159 -0.70574,-7.51311 -0.38816,-1.50153 -0.8504,-3.85505 -1.02721,-5.23005 -0.1768,-1.375 -0.65432,-4.0964 -1.06114,-6.04756 -0.43972,-2.10897 -0.78351,-6.87377 -0.84778,-11.75 -0.10279,-7.79694 -0.17639,-8.34818 -1.4889,-11.15046 -2.02753,-4.32889 -2.16419,-6.08955 -0.8661,-11.1586 1.02513,-4.00318 1.09062,-5.01509 0.73739,-11.39338 -0.50134,-9.05257 -0.40133,-10.94994 0.79492,-15.08035 0.54471,-1.88081 1.21868,-5.78215 1.49771,-8.66965 0.27903,-2.8875 1.05075,-7.275 1.71493,-9.75 0.81133,-3.02331 1.3841,-7.09616 1.74541,-12.41141 0.29579,-4.35128 0.85857,-9.30128 1.25063,-11 1.75019,-7.58325 3.22298,-25.31609 2.79197,-33.61604 -0.14418,-2.77652 0.0896,-4.37315 1.098,-7.5 0.70466,-2.1849 1.42315,-5.77255 1.59667,-7.97255 0.17351,-2.2 0.96358,-6.3625 1.75572,-9.25 0.79213,-2.8875 1.57869,-7.1625 1.7479,-9.5 0.16921,-2.3375 0.74563,-6.1625 1.28092,-8.5 0.53529,-2.3375 1.20652,-7.7375 1.49162,-12 1.35669,-20.28415 2.03908,-24.73995 5.00141,-32.65748 1.43285,-3.82962 10.41325,-17.26949 13.04396,-19.52127 2.49975,-2.1397 5.65274,-3.39518 12.72083,-5.06526 6.51192,-1.53868 7.88345,-2.12334 10.94071,-4.66392 4.19945,-3.48974 7.50847,-4.94083 13.80969,-6.05591 3.37381,-0.59704 7.5087,-1.74173 10.06445,-2.78622 6.0831,-2.48604 13.6918,-3.12322 28.43824,-2.38153 9.99398,0.50266 11.00614,0.6428 14.87259,2.05924 5.93971,2.17595 13.80165,3.28907 23.1012,3.27076 7.53751,-0.0148 7.87338,-0.0611 12.25,-1.68561 4.5,-1.67034 4.5,-1.67034 17,-2.02629 16.71453,-0.47595 24.10574,-1.41613 31.29545,-3.98084 8.69283,-3.10091 11.51606,-3.51081 27.44036,-3.9841 13.30276,-0.39538 14.58435,-0.51519 19.01419,-1.77758 9.39897,-2.67847 16.91447,-3.75711 29.5,-4.23389 12.75748,-0.4833 19.85254,-1.0722 28,-2.32404 5.50166,-0.84532 16.35302,-0.66592 21.75,0.35958 1.375,0.26127 7.1125,0.67595 12.75,0.92153 13.10581,0.57089 16.1153,1.07686 20.9933,3.52947 5.1212,2.57489 6.7459,2.9179 16.31175,3.44382 7.0012,0.38491 8.3749,0.60229 10.5,1.66152 3.2023,1.59616 4.9821,4.20377 6.07325,8.89802 0.78875,3.39311 0.8656,7.10476 0.80775,39 -0.045,24.79937 -0.23415,35.87327 -0.63815,37.35226 -0.72405,2.65094 -2.58745,4.88385 -5.2358,6.27409 -2.02285,1.0619 -2.42385,1.0801 -21.0621,0.95599 -10.45,-0.0696 -21.3625,-0.3447 -24.25,-0.61135 -6.37617,-0.58883 -3.84159,-0.58505 -32,-0.0476 -19.77117,0.37734 -24.25998,0.60296 -30,1.50788 -3.7125,0.58529 -8.46832,1.0652 -10.56849,1.06646 -3.55815,0.002 -3.98427,0.12086 -6.25,1.74116 -5.1176,3.65978 -6.97536,4.26418 -14.52225,4.72465 -9.2417,0.56389 -17.15926,3.03136 -17.15926,5.34762 0,0.41493 1.24736,2.03342 2.77189,3.59665 3.15524,3.23532 5.30188,6.71013 6.38914,10.34224 2.69963,9.01847 4.41661,14.87872 5.08723,17.36324 0.59094,2.18936 1.53905,3.77799 4.02844,6.75 1.79058,2.13772 3.79584,5.01176 4.45612,6.38676 4.05675,8.44797 6.50481,14.51631 7.73878,19.18313 0.77321,2.92428 2.24598,7.33343 3.27282,9.79812 1.75439,4.211 1.89294,4.93466 2.29766,12 0.63426,11.07269 0.72591,11.52966 3.15444,15.72825 3.02576,5.23111 3.38687,6.65576 3.20782,12.65566 -0.15434,5.17231 -0.15434,5.17231 1.99469,8.47533 1.7324,2.66264 2.33445,4.22465 3.10531,8.0567 0.95815,4.763 3.51808,13.68166 5.41645,18.87052 0.55691,1.52224 1.2637,4.33474 1.57063,6.25 1.7241,10.75827 2.23343,13.39066 3.37733,17.45486 1.11732,3.9698 1.21636,4.9815 0.88101,9 -0.61875,7.41426 -0.50672,9.82369 0.6501,13.98241 0.63349,2.27738 1.10014,5.38439 1.10014,7.32482 0,2.65481 0.37133,4.33133 1.75,7.90118 1.75,4.53132 1.75,4.53132 1.74219,13.92517 -0.008,10.00864 -0.0394,10.21146 -3.17003,20.64385 -0.94901,3.1625 -1.98659,8 -2.30573,10.75 -0.31914,2.75 -0.78187,5.7875 -1.02829,6.75 -0.24641,0.9625 -0.68759,3.8875 -0.9804,6.5 -0.78621,7.01482 -1.32566,8.57841 -4.08328,11.83537 -1.89737,2.24094 -2.71741,3.7721 -3.5478,6.62435 -0.85924,2.95135 -1.61207,4.31977 -3.68266,6.69394 -1.66387,1.90782 -2.83284,3.81603 -3.24082,5.29029 -0.351,1.26832 -1.37854,3.88105 -2.28342,5.80605 -0.90489,1.925 -1.98805,5.1875 -2.40703,7.25 -1.06019,5.21893 -4.59369,12.173 -8.44498,16.62007 -1.729,1.99646 -3.98381,5.15314 -5.0107,7.01484 -1.02689,1.8617 -3.22075,4.8992 -4.87525,6.75 -1.65449,1.8508 -3.92035,4.65423 -5.03524,6.22985 -2.54293,3.59378 -5.30681,5.34598 -11.63708,7.37749 -6.06114,1.94515 -6.68429,2.25885 -13.08862,6.58915 -6.45562,4.36495 -8.15731,5.0988 -15.36252,6.6249 -4.55827,0.96545 -6.83476,1.75795 -10.06113,3.5024 -5.31768,2.87525 -8.87423,4.0452 -14.49721,4.76895 -2.475,0.31855 -6.22499,1.0164 -8.3333,1.55075 -4.12546,1.04565 -9.44818,1.24135 -12.6667,0.4658 -1.1,-0.26505 -4.86115,-0.9285 -8.35812,-1.4743 -7.06482,-1.10265 -8.65036,-1.64615 -13.21806,-4.53095 -3.56456,-2.2512 -6.02191,-3.0667 -17.67382,-5.8652 -9.86806,-2.37005 -12.01569,-3.3231 -16.35982,-7.25995 -1.82427,-1.6532 -5.85381,-4.653 -8.95455,-6.66616 -6.44694,-4.18573 -16.66867,-12.93071 -19.30769,-16.51828 -2.93155,-3.98524 -3.92399,-4.64635 -9.32485,-6.21174 -7.23924,-2.09823 -8.56659,-2.00657 -11.27339,0.77852 -1.22041,1.25571 -3.32678,4.47286 -4.77696,7.29605 -1.42668,2.77746 -4.36162,7.93392 -6.5221,11.4588 -3.81361,6.22201 -9.97564,18.58416 -9.98552,20.03276 -0.009,1.37795 -2.3811,5.804 -3.64118,6.79515 -0.69925,0.55005 -3.03369,1.75185 -5.18765,2.67065 -2.15396,0.91885 -4.64214,2.20215 -5.5293,2.85185 -0.88715,0.64965 -3.79325,4.12315 -6.458,7.7189 -4.85348,6.5491 -6.86872,8.47525 -12.66671,12.1065 -2.14863,1.3457 -3.82654,2.95805 -5.56338,5.34595 -2.70734,3.72225 -4.27763,4.8966 -9.04687,6.76565 -1.72152,0.67465 -4.40133,2.1184 -5.95515,3.20835 -3.55382,2.49285 -4.70781,2.93515 -9.87709,3.7854 -2.73874,0.45045 -4.98016,1.1669 -6.5,2.0777 -3.78698,2.2694 -5.03791,2.5622 -11.11532,2.6021 -3.64254,0.024 -6.70735,0.31815 -8.25,0.792 -6.66436,2.04715 -13.08607,2.4461 -27.95447,1.7367 z m 248.25,-154.94098 c 3.44201,-1.11338 14.58362,-7.98331 18.4446,-11.37297 4.95734,-4.35217 11.02749,-15.3444 14.10947,-25.55037 0.76794,-2.54302 2.87209,-8.35681 4.6759,-12.91953 3.20557,-8.10848 5.79135,-17.16798 7.7803,-27.25888 1.23498,-6.26569 1.23284,-7.36114 -0.0228,-11.69951 -0.6744,-2.33013 -1.09214,-5.58557 -1.25089,-9.74841 -0.13109,-3.4375 -0.48173,-7.15 -0.77921,-8.25 -0.29747,-1.1 -0.71438,-5.15 -0.92647,-9 -0.36306,-6.59075 -0.49531,-7.24847 -2.26197,-11.25 -1.64775,-3.73216 -1.92753,-4.9506 -2.29623,-10 -0.4203,-5.75624 -0.99903,-8.13133 -2.87941,-11.81719 -0.55275,-1.08347 -1.79164,-4.21159 -2.7531,-6.95138 -0.96145,-2.73978 -2.5584,-6.92597 -3.54874,-9.30262 -1.067,-2.56061 -2.03547,-5.98169 -2.377,-8.39672 -0.48657,-3.44066 -0.9103,-4.58395 -2.7201,-7.33943 -1.44241,-2.19611 -2.23968,-4.02923 -2.43702,-5.60328 -0.60725,-4.84387 -1.3508,-8.22458 -2.2916,-10.41939 -2.3371,-5.45223 -4.07368,-11.26429 -4.70075,-15.73269 -0.6226,-4.43651 -0.93578,-5.28134 -3.9855,-10.75108 -3.24938,-5.82783 -3.86275,-7.44012 -5.48101,-14.40733 -0.50466,-2.17277 -1.53997,-4.60404 -2.76791,-6.5 -1.07895,-1.66589 -2.73188,-4.71639 -3.67319,-6.77889 -3.28933,-7.20721 -8.5324,-12.05156 -15.40152,-14.23026 -5.28049,-1.67482 -11.39013,-2.25035 -26.10436,-2.45902 -11.33433,-0.16074 -13.01832,-0.0846 -13.88641,0.62818 -0.54334,0.4461 -1.74018,2.8361 -2.65962,5.3111 -0.91945,2.475 -2.37682,6.04987 -3.23859,7.94416 -1.99344,4.38185 -2.04168,6.93467 -0.19743,10.44746 1.22834,2.33966 1.35945,3.06983 1.27261,7.08741 -0.0759,3.51086 0.11446,4.95663 0.88058,6.68855 1.4777,3.3406 1.29123,6.39175 -0.57001,9.32661 -2.516,3.96733 -2.59281,4.44239 -1.40355,8.68066 0.84906,3.02588 1.00185,4.52917 0.74367,7.31674 -0.9934,10.72513 -0.9911,10.79977 0.44066,14.25841 1.71097,4.13315 1.78515,6.9796 0.27674,10.61892 -1.13885,2.74768 -1.15555,2.98213 -0.50859,7.14095 0.52905,3.40095 0.5479,5.10393 0.0901,8.14506 -0.98979,6.57548 -1.14662,8.90725 -1.63734,24.34507 -0.26224,8.25 -0.60114,16.125 -0.75311,17.5 -0.22718,2.05545 0.007,3.2058 1.31565,6.46918 1.93438,4.82291 1.84142,6.70774 -0.57222,11.60302 -1.69009,3.4278 -1.69009,3.4278 -1.53525,16.4278 0.15485,13 0.15485,13 -2.06067,21.75 -2.19714,8.67736 -2.21836,8.84384 -2.55658,20.05482 -0.34104,11.30481 -0.34104,11.30481 1.6899,15.16107 2.88491,5.47774 3.7289,6.6096 9.50291,12.74414 3.5305,3.75094 6.03519,5.94309 7.95848,6.96541 4.19157,2.22802 11.78835,5.51761 16.30657,7.06113 2.2,0.75157 5.6875,2.10958 7.75,3.01779 3.16257,1.39263 4.61157,1.71022 9.25,2.02736 8.16883,0.55853 13.98149,0.23693 17.75,-0.98205 z"
     id="path4324"
     inkscape:connector-curvature="0" />
</svg>
