<?xml version="1.0" encoding="UTF-8" standalone="no"?>
<!-- Created with Inkscape (http://www.inkscape.org/) -->

<svg
   xmlns:dc="http://purl.org/dc/elements/1.1/"
   xmlns:cc="http://creativecommons.org/ns#"
   xmlns:rdf="http://www.w3.org/1999/02/22-rdf-syntax-ns#"
   xmlns:svg="http://www.w3.org/2000/svg"
   xmlns="http://www.w3.org/2000/svg"
   xmlns:sodipodi="http://sodipodi.sourceforge.net/DTD/sodipodi-0.dtd"
   xmlns:inkscape="http://www.inkscape.org/namespaces/inkscape"
   version="1.1"
   id="svg948"
   width="1000"
   height="1000"
   viewBox="0 0 1000 1000"
   sodipodi:docname="fatou_bdc_s.svg"
   inkscape:version="0.92.2 5c3e80d, 2017-08-06">
  <metadata
     id="metadata954">
    <rdf:RDF>
      <cc:Work
         rdf:about="">
        <dc:format>image/svg+xml</dc:format>
        <dc:type
           rdf:resource="http://purl.org/dc/dcmitype/StillImage" />
        <dc:title></dc:title>
      </cc:Work>
    </rdf:RDF>
  </metadata>
  <defs
     id="defs952" />
  <sodipodi:namedview
     pagecolor="#ffffff"
     bordercolor="#666666"
     borderopacity="1"
     objecttolerance="10"
     gridtolerance="10"
     guidetolerance="10"
     inkscape:pageopacity="0"
     inkscape:pageshadow="2"
     inkscape:window-width="1282"
     inkscape:window-height="759"
     id="namedview950"
     showgrid="false"
     inkscape:zoom="0.19628255"
     inkscape:cx="954.5"
     inkscape:cy="600"
     inkscape:window-x="0"
     inkscape:window-y="0"
     inkscape:window-maximized="0"
     inkscape:current-layer="svg948" />
  <path
     style="fill:#000000;stroke-width:0.5"
     d="m 647.31052,833.77109 c -1.47285,-0.2246 -5.8223,-2.1535 -11.69595,-5.1869 -5.14315,-2.65615 -10.55145,-5.2784 -12.0185,-5.8273 -1.9247,-0.72015 -4.162,-2.3465 -8.0358,-5.84145 -2.95265,-2.6639 -6.2767,-5.84055 -7.3867,-7.0592 -1.11005,-1.21865 -3.83865,-4.14415 -6.0636,-6.5011 -4.2385,-4.49 -4.6916,-5.3766 -5.72805,-11.2082 -0.4216,-2.3723 -1.58635,-5.36905 -3.78955,-9.74998 -2.87295,-5.71277 -3.1811,-6.62224 -3.18395,-9.39618 -0.005,-3.89861 2.67435,-15.23338 4.28205,-18.12197 2.49185,-4.47717 9.81645,-13.92793 12.1193,-15.63735 1.29005,-0.9576 3.80805,-2.81938 5.59555,-4.1373 1.7875,-1.31792 4.9375,-3.25166 7,-4.2972 2.39555,-1.21437 4.74325,-2.92375 6.5,-4.73266 3.45325,-3.55582 5.3647,-4.54474 10.5871,-5.47748 2.2896,-0.40892 5.8504,-1.4178 7.9129,-2.24195 4.19965,-1.67814 5.78825,-1.8437 8.1644,-0.85086 2.32325,0.9707 4.077,3.28594 5.3212,7.02473 1.2386,3.72197 2.662,6.00463 4.67505,7.49728 1.30205,0.96542 2.19185,1.05894 11.5546,1.21442 7.73535,0.12845 11.14935,-0.0199 14.3783,-0.625 2.3289,-0.4364 6.76685,-0.79345 9.8621,-0.79345 6.09395,0 10.32565,-0.83838 17.4028,-3.4478 2.14085,-0.78937 5.4673,-1.67881 7.392,-1.97655 2.07745,-0.32135 4.92185,-1.24679 6.99955,-2.27731 6.2302,-3.09011 14.8636,-6.85723 20.75,-9.05409 3.1625,-1.18027 7.32795,-2.82563 9.25655,-3.65636 1.9286,-0.83072 5.8156,-2.09572 8.6378,-2.81111 6.1326,-1.55454 9.37745,-2.93381 14.12085,-6.0023 1.95105,-1.26212 5.277,-3.17386 7.39105,-4.24831 2.11405,-1.07445 5.60875,-3.07861 7.766,-4.45368 2.15725,-1.37507 5.41975,-3.10864 7.25,-3.85237 1.83025,-0.74373 5.8671,-2.56722 8.97075,-4.05219 5.9919,-2.86687 7.22635,-4.07645 6.17155,-6.04729 -0.57095,-1.06687 -6.83395,-4.43386 -13.06455,-7.02354 -2.0625,-0.85726 -6.5625,-2.72148 -10,-4.14272 -7.73445,-3.19782 -11.29015,-4.96328 -15.62445,-7.75782 -4.95875,-3.19716 -6.75715,-4.01737 -11.2724,-5.14116 -5.18165,-1.28963 -6.40525,-1.94099 -10.33325,-5.50072 -3.2339,-2.93066 -5.59255,-4.26625 -12.0199,-6.80629 -1.925,-0.76074 -5.792,-2.90379 -8.59335,-4.76234 -2.80135,-1.85855 -6.06385,-3.73517 -7.25,-4.17028 -1.18615,-0.4351 -5.30665,-1.94249 -9.15665,-3.34976 -3.85,-1.40727 -8.8,-3.52742 -11,-4.71144 -2.2,-1.18403 -5.6866,-2.6517 -7.748,-3.26148 -2.0614,-0.60978 -6.3364,-2.4038 -9.5,-3.9867 -3.1636,-1.5829 -8.1145,-3.715 -11.002,-4.738 -2.8875,-1.023 -7.3875,-3.06686 -10,-4.54192 -2.6125,-1.47505 -7.5625,-3.85674 -11,-5.29264 -3.4375,-1.43589 -8.26385,-3.82795 -10.72525,-5.31568 -6.7915,-4.10497 -9.7431,-5.46681 -15.02375,-6.93174 -3.73125,-1.03512 -6.3686,-2.23971 -11.59975,-5.29818 -3.7238,-2.17715 -8.71245,-4.64359 -11.0859,-5.48098 -2.8046,-0.98951 -6.44335,-2.90058 -10.39385,-5.45886 -3.40115,-2.20252 -7.69565,-4.51533 -9.75,-5.25085 -2.0193,-0.72299 -5.0215,-2.25653 -6.6715,-3.40786 -3.76565,-2.6276 -9.8044,-6.3226 -12.75,-7.80148 -1.2375,-0.62131 -3.9375,-2.75302 -6,-4.73714 -2.0625,-1.98412 -5.2075,-4.45028 -6.98895,-5.48036 -1.7814,-1.03007 -4.8259,-3.14363 -6.76555,-4.69678 -1.9396,-1.55316 -5.62735,-3.94892 -8.19495,-5.32392 -2.5676,-1.375 -6.6058,-4.15397 -8.97375,-6.17548 -2.3679,-2.02152 -5.6136,-4.3359 -7.2126,-5.14307 -1.599,-0.80717 -4.37265,-2.47082 -6.16365,-3.697 -1.79105,-1.22618 -3.808,-2.36786 -4.4821,-2.53705 -1.6546,-0.41528 -3.3246,0.76076 -4.83035,3.40159 -0.67455,1.18305 -2.36295,4.00344 -3.752,6.26751 -1.389,2.26408 -3.4352,6.42658 -4.5471,9.25 -4.81125,12.21752 -8.2442,19.75405 -11.72315,25.73631 -2.04612,3.51846 -4.29725,7.40969 -5.00252,8.64719 -0.70527,1.2375 -2.30398,3.43901 -3.55269,4.89224 -1.24871,1.45324 -2.97606,3.96624 -3.83856,5.58444 -0.86249,1.61821 -2.67268,4.2542 -4.02264,5.85776 -4.13805,4.9154 -5.59794,7.05558 -6.75815,9.90729 -1.34625,3.30903 -5.75654,9.96222 -9.74359,14.69884 -1.60824,1.91059 -4.26332,5.68681 -5.90018,8.39161 -3.51151,5.80254 -4.69382,7.01301 -11.24834,11.51633 -4.66239,3.20332 -5.07808,3.63453 -7.13501,7.40149 -1.56172,2.86003 -3.29966,5.06871 -6.09823,7.75 -2.15273,2.0625 -4.82793,5.00667 -5.9449,6.54261 -2.59432,3.56742 -3.9801,4.70594 -9.0178,7.4088 -3.96618,2.12796 -4.15463,2.31147 -5.64792,5.5 -1.89847,4.0537 -3.80912,6.11804 -7.70532,8.32516 -3.95353,2.23959 -5.23863,3.3635 -8.10397,7.08746 -1.31782,1.71271 -4.21518,4.52521 -6.43858,6.25 -2.22341,1.72478 -6.61091,5.35297 -9.75,8.06263 -6.13615,5.29672 -7.96445,6.44247 -11.76526,7.37302 -3.50083,0.8571 -5.94133,2.18331 -10.0915,5.48391 -3.6454,2.89916 -5.33865,3.72145 -10.69795,5.19523 -2.89669,0.79658 -8.83629,4.87006 -15.65274,10.73493 -1.65,1.41966 -4.0125,3.16737 -5.25,3.88381 -1.2375,0.71644 -3.9375,2.47213 -6,3.90153 -2.0625,1.4294 -5.40169,3.23918 -7.42042,4.02172 -2.53872,0.98412 -4.60894,2.26024 -6.71432,4.13883 -3.34902,2.98827 -4.94201,3.79827 -8.46904,4.30626 -1.7211,0.24788 -2.99787,0.88096 -4.75,2.35523 -1.31792,1.10892 -3.97122,2.79095 -5.89622,3.73785 -1.925,0.94689 -4.625,2.37878 -6,3.18197 -1.375,0.8032 -4.08474,1.81381 -6.02164,2.24581 -4.4344,0.98904 -9.31674,3.27399 -12.23349,5.72532 -3.24723,2.72908 -5.73923,3.84944 -9.99487,4.4935 -2.78349,0.42126 -5.16756,1.26793 -9.25,3.28501 -3.025,1.49461 -7.3,3.378 -9.5,4.18532 -2.2,0.80731 -6.87361,2.72376 -10.3858,4.25879 -6.38401,2.7901 -19.21889,7.96505 -21.12383,8.51695 -0.5553,0.1609 -3.52082,0.6237 -6.59004,1.0285 -4.3207,0.5699 -6.64677,1.19165 -10.30429,2.7543 -5.84376,2.49675 -8.49963,3.01555 -15.43679,3.01555 -4.72651,0 -6.53533,0.2725 -13.55675,2.04245 -13.28761,3.3495 -19.91455,3.17385 -25.99059,-0.689 -1.43655,-0.91325 -5.00783,-2.9414 -7.93618,-4.50695 -5.10278,-2.7281 -5.47864,-2.8465 -9.03534,-2.8465 -3.05702,0 -4.18952,-0.24235 -6.42574,-1.375 -2.44114,-1.23645 -3.02467,-1.87875 -5.79153,-6.375 -4.958359,-8.05748 -6.513339,-10.07165 -8.938359,-11.57791 -7.893063,-4.90262 -8.751548,-5.7995 -9.102708,-9.50985 -0.199845,-2.11155 0.0372,-2.91086 1.901565,-6.41224 1.468113,-2.75719 2.410663,-5.39817 3.033603,-8.5 0.73111,-3.64041 1.81551,-6.36245 5.67687,-14.25 2.62522,-5.3625 4.76925,-10.06435 4.76451,-10.44856 -0.004,-0.38421 1.19708,-3.53421 2.670689,-7 1.47362,-3.46579 3.40636,-8.44742 4.29499,-11.07028 2.70869,-7.99489 6.14464,-11.44323 11.42897,-11.47018 1.25702,-0.006 4.92809,0.92552 8.81997,2.23902 6.66672,2.25 6.66672,2.25 16.34675,2.23695 16.11701,-0.0217 23.63433,-0.66876 31.6817,-2.72694 4.2585,-1.08915 8.79766,-2.65098 11.59437,-3.9894 2.52782,-1.20973 7.19759,-2.8938 10.37727,-3.74237 7.05877,-1.8838 10.34894,-3.30795 13.22472,-5.72433 2.96018,-2.4873 3.41191,-2.69412 7.90708,-3.62033 4.53208,-0.9338 7.8491,-2.51767 13.37154,-6.38486 2.77644,-1.94425 6.12004,-3.62286 11.07829,-5.56172 5.14509,-2.01193 8.18208,-3.5524 11.02334,-5.59144 2.15695,-1.54794 5.04672,-3.30625 6.42172,-3.90735 1.375,-0.6011 3.9625,-1.71917 5.75,-2.48461 4.12952,-1.76832 6.53968,-3.14649 12.75,-7.29066 7.09808,-4.73657 10.72592,-6.89792 17,-10.12805 3.025,-1.55739 7.60501,-4.49564 10.17781,-6.52945 2.5728,-2.03382 7.6353,-5.43549 11.25,-7.55927 8.45782,-4.96932 12.20505,-7.40818 19.57219,-12.73845 3.3,-2.38762 7.9125,-5.59312 10.25,-7.12334 2.3375,-1.53021 5.4875,-3.82183 7,-5.09248 1.5125,-1.27065 4.70382,-3.32153 7.09183,-4.5575 3.1242,-1.61701 4.98195,-2.98158 6.62435,-4.86581 1.25538,-1.44023 4.04681,-4.08109 6.20317,-5.86859 8.75328,-7.25598 12.94251,-11.08777 15.08065,-13.79393 1.2375,-1.56625 3.9375,-4.1127 6,-5.65878 3.82762,-2.86923 5.05794,-4.44296 10.07386,-12.88576 1.27813,-2.15134 4.51004,-6.83653 7.18204,-10.41153 2.67199,-3.575 5.93549,-8.6375 7.25221,-11.25 2.05242,-4.07219 2.96345,-5.26453 6.38427,-8.35568 3.69533,-3.3392 4.25321,-4.11739 7.54862,-10.52953 1.95712,-3.80812 4.55005,-8.08561 5.76208,-9.50554 1.21202,-1.41992 2.58169,-3.65663 3.04371,-4.97046 0.46202,-1.31384 1.51354,-4.18879 2.3367,-6.38879 0.90612,-2.42173 1.67686,-5.72954 1.95337,-8.38336 0.55178,-5.29588 1.17609,-6.89646 3.93194,-10.08059 2.50801,-2.89779 2.89434,-3.80547 3.80231,-8.93358 1.02184,-5.77127 2.86785,-26.66998 2.6199,-29.65993 -0.15856,-1.912 -0.76459,-3.50072 -2.31287,-6.06321 -1.15663,-1.91429 -2.35966,-4.71974 -2.68114,-6.25241 -0.51185,-2.4403 -0.4487,-3.31096 0.51671,-7.12362 0.96753,-3.82098 1.03277,-4.72868 0.54235,-7.5449 -0.80868,-4.64377 -0.0346,-7.23133 4.00165,-13.37736 3.59566,-5.47508 4.14335,-6.63906 5.07196,-10.77924 0.76708,-3.41998 3.16491,-6.17963 6.37712,-7.33937 1.28876,-0.4653 4.48071,-1.81758 7.09321,-3.00506 3.32667,-1.5121 6.22028,-2.40731 9.65667,-2.98753 4.81063,-0.81226 5.00149,-0.80667 9.75,0.28559 5.39928,1.24193 7.35698,2.1122 12.09333,5.37581 6.37935,4.39575 8.0295,6.91773 9.9691,15.23624 0.98705,4.23327 1.7959,5.92094 8.0437,16.78317 1.1549,2.00786 2.55145,5.15786 3.10345,7 2.9938,9.99042 9.4557,18.65957 17.55555,23.55211 2.25455,1.36182 5.66945,3.86753 7.5887,5.56825 1.9192,1.70071 4.78835,3.97859 6.37585,5.06193 1.5875,1.08335 4.625,3.54833 6.75,5.47773 2.125,1.9294 5.6314,4.53858 7.79195,5.79818 2.1606,1.25959 5.92255,3.72214 8.35995,5.47231 4.9271,3.53789 5.62875,3.87334 9.2,4.39831 3.56345,0.52382 5.83205,1.84766 10.25605,5.98495 3.2077,2.9998 4.5516,3.88322 7.5971,4.99397 2.035,0.74221 5.0407,2.36412 6.6793,3.60423 4.12085,3.11871 7.16915,4.59668 11.91595,5.77752 2.23485,0.55594 5.30085,1.69488 6.81335,2.53097 6.39645,3.53586 15.476,8.05197 18.46285,9.18328 1.76705,0.66931 4.6828,2.1453 6.47945,3.27997 4.5015,2.84295 7.2669,3.98661 14.79335,6.11795 5.24095,1.48413 7.4,2.39603 11.25,4.75152 6.45945,3.95199 7.4153,4.40871 13.75685,6.57306 3.0291,1.03383 9.7825,3.48684 15.0075,5.45112 5.225,1.96428 10.4087,3.89825 11.51935,4.29771 1.11065,0.39947 5.04815,2.44746 8.75,4.55109 3.70185,2.10363 8.80475,4.67262 11.33975,5.70887 2.535,1.03626 6.5941,3.11194 9.02015,4.61264 6.67555,4.12934 11.8858,6.60086 29.87075,14.16947 7.1361,3.00309 10.2244,4.63277 15.5,8.17931 5.4452,3.66057 15.82695,9.38989 22.20475,12.25403 9.503,4.26763 10.6515,4.9639 20.9323,12.69012 6.98755,5.25129 10.87635,8.56325 13.3391,11.36047 1.91185,2.17155 7.5195,7.99828 12.46145,12.94828 7.3317,7.34362 9.65735,10.03268 12.6368,14.61113 5.26965,8.09789 6.3464,10.19394 8.67605,16.88887 1.1483,3.3 3.2266,8.12904 4.61845,10.73121 2.19995,4.11303 2.8843,6.17092 5.2375,15.75 2.88825,11.75688 3.6209,17.376 3.63545,27.88237 0.007,5.0231 0.18735,6.33961 1.25815,9.18453 1.80265,4.78914 1.6852,7.79427 -0.4658,11.92099 -0.94365,1.81048 -2.1813,5.13273 -2.7503,7.38279 -0.5922,2.34182 -1.86245,5.49281 -2.9709,7.36956 -1.065,1.8032 -2.4436,4.29105 -3.06355,5.52855 -1.1942,2.38371 -11.29925,13.13141 -18.46595,19.64034 -3.29655,2.994 -5.6083,4.55849 -10.0335,6.79024 -3.1625,1.59495 -6.9875,3.69584 -8.5,4.66864 -1.5125,0.9728 -5.05285,2.92379 -7.86745,4.33553 -2.8146,1.41174 -6.6349,3.49555 -8.4895,4.6307 -7.07055,4.3277 -13.31205,7.21525 -17.0331,7.88025 -5,0.89355 -17.42825,5.31255 -19.24815,6.84385 -2.55055,2.14615 -5.07185,3.1429 -9.287,3.67145 -6.8116,0.8541 -14.567,3.84205 -19.59635,7.54995 -2.27215,1.67515 -3.39825,2.13415 -6.25,2.54735 -7.09155,1.0276 -8.60225,1.3352 -14.14655,2.88065 -6.2771,1.7497 -7.8003,2.4252 -11.04345,4.89755 -3.3796,2.5763 -6.75745,3.3584 -12.9823,3.0059 -3.6198,-0.205 -6.37515,-0.0722 -9.01025,0.4344 -2.08775,0.40135 -5.87805,1.06625 -8.42295,1.47765 -2.54485,0.41135 -7.60735,1.5292 -11.25,2.4841 -9.86085,2.58495 -24.61095,5.1045 -33.37295,5.70065 -8.4176,0.5727 -17.87595,0.57705 -21.5948,0.01 z"
     id="path958"
     inkscape:connector-curvature="0" />
</svg>
