<?xml version="1.0" encoding="UTF-8" standalone="no"?>
<!-- Created with Inkscape (http://www.inkscape.org/) -->

<svg
   xmlns:dc="http://purl.org/dc/elements/1.1/"
   xmlns:cc="http://creativecommons.org/ns#"
   xmlns:rdf="http://www.w3.org/1999/02/22-rdf-syntax-ns#"
   xmlns:svg="http://www.w3.org/2000/svg"
   xmlns="http://www.w3.org/2000/svg"
   xmlns:sodipodi="http://sodipodi.sourceforge.net/DTD/sodipodi-0.dtd"
   xmlns:inkscape="http://www.inkscape.org/namespaces/inkscape"
   version="1.1"
   id="svg1128"
   width="1000"
   height="1000"
   viewBox="0 0 1000 1000"
   sodipodi:docname="fatou_maj_d.svg"
   inkscape:version="0.92.2 5c3e80d, 2017-08-06">
  <metadata
     id="metadata1134">
    <rdf:RDF>
      <cc:Work
         rdf:about="">
        <dc:format>image/svg+xml</dc:format>
        <dc:type
           rdf:resource="http://purl.org/dc/dcmitype/StillImage" />
        <dc:title></dc:title>
      </cc:Work>
    </rdf:RDF>
  </metadata>
  <defs
     id="defs1132" />
  <sodipodi:namedview
     pagecolor="#ffffff"
     bordercolor="#666666"
     borderopacity="1"
     objecttolerance="10"
     gridtolerance="10"
     guidetolerance="10"
     inkscape:pageopacity="0"
     inkscape:pageshadow="2"
     inkscape:window-width="1273"
     inkscape:window-height="713"
     id="namedview1130"
     showgrid="false"
     inkscape:zoom="0.19282552"
     inkscape:cx="592"
     inkscape:cy="600"
     inkscape:window-x="0"
     inkscape:window-y="0"
     inkscape:window-maximized="0"
     inkscape:current-layer="svg1128" />
  <path
     style="fill:#000000;stroke-width:0.5"
     d="m 483.80763,824.63422 c -3.575,-0.20395 -7.54818,-0.62785 -8.8293,-0.9419 -1.28112,-0.3141 -5.55612,-0.80895 -9.5,-1.09965 -3.94389,-0.2907 -8.5207,-0.74265 -10.1707,-1.00435 -1.65,-0.2617 -5.1375,-0.48485 -7.75,-0.49595 -4.78334,-0.0205 -7.08455,-0.26145 -16.25,-1.7032 -3.20291,-0.5038 -10.03186,-0.8842 -19,-1.0584 -7.7,-0.14955 -16.8125,-0.57985 -20.25,-0.9563 -5.71416,-0.6257 -41.58988,-1.177 -57,-0.87595 -23.04591,0.4503 -30.2772,0.33955 -33.01795,-0.50565 -5.95482,-1.83635 -11.50194,-4.8278 -14.48621,-7.81205 -3.49499,-3.495 -4.51907,-5.4582 -5.98637,-11.47605 -1.52524,-6.2555 -1.25835,-8.2621 1.66863,-12.5459 2.33513,-3.4176 4.22524,-4.8403 8.06525,-6.0708 1.09635,-0.35135 3.12134,-1.16405 4.5,-1.80605 2.16914,-1.0101 3.2857,-1.16795 8.29258,-1.17215 4.03293,-0.005 6.50613,0.2405 8.16303,0.80505 1.67231,0.5698 3.14412,0.712 4.96407,0.47945 6.99836,-0.89405 8.2509,-0.89835 10.84359,-0.037 1.831,0.60815 3.29418,0.7653 4.92422,0.52885 5.999,-0.8702 7.90239,-0.84285 12.43887,0.17865 5.3527,1.20535 13.80077,1.37505 24.65534,0.4952 4.81586,-0.39035 8.21533,-0.3927 11.97495,-0.009 2.8875,0.29525 15.37295,0.78785 27.74545,1.09475 21.85812,0.5421 22.5861,0.59205 25.69501,1.76225 3.78724,1.4255 11.12394,2.18585 21.15185,2.1921 4.20502,0.005 8.24298,0.29895 10.47627,0.76875 3.03275,0.63795 4.09285,0.6616 6.40768,0.14315 1.87817,-0.4207 6.38506,-0.5763 13.9587,-0.4819 9.36861,0.1167 11.68271,0.2954 14.25,1.1004 3.86632,1.21225 5.71052,1.21285 10.90056,0.005 3.43892,-0.80125 7.21344,-1.04675 21.66448,-1.409 17.5,-0.4387 17.5,-0.4387 21.25,-2.1079 3.73638,-1.6631 3.78814,-1.67055 14.25,-2.04455 12.47911,-0.4461 15.0596,-0.72095 21.03816,-2.2409 2.50801,-0.63765 7.76437,-1.40705 11.75,-1.71995 12.37894,-0.97185 13.16185,-1.19485 21.26905,-6.0586 2.85238,-1.7112 5.14119,-2.66205 7.70739,-3.20185 4.75648,-1.0006 8.25179,-2.8749 23.7354,-12.72795 13.81153,-8.78905 20.31865,-13.60907 29.75,-22.03677 2.3375,-2.08875 5.88058,-5.08578 7.87349,-6.66008 1.99293,-1.57429 4.78501,-4.25955 6.20462,-5.96725 4.19284,-5.04368 13.65544,-15.0429 21.35106,-22.56189 7.22152,-7.05575 11.61395,-12.56095 14.96147,-18.75174 0.97882,-1.8102 2.71608,-4.41627 3.86056,-5.79127 2.59285,-3.11507 7.61115,-10.99429 10.98665,-17.25 1.40965,-2.6125 3.5907,-6.325 4.8468,-8.25 1.25605,-1.925 2.77765,-4.47526 3.38125,-5.66725 1.5093,-2.98035 4.87725,-12.84398 6.3452,-18.58275 0.66825,-2.6125 1.8905,-7 2.71615,-9.75 1.13965,-3.79584 1.676,-7.04708 2.22705,-13.5 0.4143,-4.85136 1.1883,-10.21701 1.80305,-12.5 1.0069,-3.73921 1.0864,-5.33656 1.21945,-24.5 0.1423,-20.5 0.1423,-20.5 -1.2879,-25.03941 -0.86985,-2.76087 -1.7256,-7.16861 -2.1841,-11.25 -0.41465,-3.69083 -1.19115,-8.39809 -1.72555,-10.46059 -0.53445,-2.0625 -1.56135,-7.19559 -2.28205,-11.40687 -0.72075,-4.21127 -1.63815,-8.44128 -2.03875,-9.4 -0.40055,-0.95873 -1.0798,-3.47565 -1.50935,-5.59314 -1.04255,-5.13922 -2.43735,-9.28413 -5.24945,-15.59999 -1.28565,-2.8875 -2.73525,-6.4875 -3.22135,-8 -0.48605,-1.5125 -1.7672,-4.69869 -2.84695,-7.08042 -1.07975,-2.38173 -2.50235,-6.09423 -3.1614,-8.25 -0.659,-2.15577 -2.3534,-6.72993 -3.7653,-10.16481 -3.3009,-8.03048 -5.77498,-15.44729 -7.28749,-21.84673 -1.44149,-6.10034 -5.26388,-15.63334 -8.88458,-22.15944 -1.44942,-2.6125 -3.79104,-7.1125 -5.2036,-10 -1.85623,-3.79442 -3.82937,-6.77489 -7.11677,-10.75 -12.57124,-15.2011 -22.00864,-24.15109 -33.4398,-31.71274 -2.92733,-1.93641 -7.61521,-5.10927 -10.41752,-7.05081 -4.92452,-3.41188 -14.30735,-8.21331 -24.15489,-12.36068 -6.5009,-2.7379 -8.5953,-3.36372 -17.22681,-5.14748 -4.11225,-0.84981 -7.69181,-1.678 -7.95459,-1.8404 -0.26278,-0.1624 -3.53572,-0.47763 -7.27319,-0.70049 -3.73748,-0.22287 -7.58291,-0.63833 -8.54541,-0.92325 -1.00809,-0.29843 -6.83743,-0.5057 -13.75,-0.48892 -9.05637,0.022 -13.01999,-0.16778 -16.15809,-0.77359 -3.53539,-0.68251 -4.99552,-0.71646 -9.75,-0.22669 -3.07555,0.31681 -11.21691,0.84332 -18.09191,1.17001 -10.31639,0.49021 -12.79598,0.75193 -14.19434,1.4982 -0.93189,0.49733 -3.85066,1.33801 -6.48617,1.86818 -3.06634,0.61683 -6.68727,1.8302 -10.05566,3.36963 -10.9836,5.01976 -15.1549,6.07969 -30.71051,7.80355 -6.95608,0.77086 -8.39823,1.33789 -13.22401,5.19946 -3.35259,2.68273 -3.68856,2.86144 -16.50085,8.77695 -6.81831,3.14805 -9.26096,4.59374 -14.75,8.72983 -12.14619,9.15235 -17.19417,14.17868 -22.89035,22.79215 -4.55747,6.89158 -5.91467,12.61747 -4.98167,21.01709 0.51387,4.62625 3.46665,13.33701 6.1864,18.25 0.68506,1.2375 1.52435,3.12778 1.86509,4.20061 1.71882,5.41181 9.15379,15.45345 18.54689,25.04939 2.69187,2.75 5.13263,5.63832 5.42391,6.41849 1.05277,2.81983 -2.52309,7.8565 -6.86619,9.67117 -0.95806,0.4003 -4.32629,0.84609 -7.65863,1.01364 -5.94844,0.29909 -5.94844,0.29909 -9.21854,-1.36073 -3.60574,-1.83018 -5.3077,-3.56924 -8.87061,-9.06402 -1.31187,-2.02321 -3.26045,-4.91605 -4.33017,-6.42855 -4.45808,-6.30337 -11.05548,-20.38528 -14.99206,-32 -3.8745,-11.43156 -3.76723,-10.7913 -3.72795,-22.25 0.0374,-10.892 0.29302,-12.79926 2.61418,-19.5 0.57157,-1.65 1.46736,-4.35 1.99065,-6 3.18321,-10.03704 10.06137,-20.93606 17.82343,-28.24274 2.47894,-2.33351 5.96966,-5.74288 7.75716,-7.57639 1.7875,-1.8335 4.20646,-3.94806 5.37548,-4.69902 1.16901,-0.75096 2.61107,-2.17908 3.20458,-3.17361 1.99692,-3.34623 3.47811,-4.53322 6.94529,-5.56579 1.82619,-0.54386 5.32381,-2.23342 7.77249,-3.75458 2.44869,-1.52115 5.68966,-3.33581 7.20216,-4.03257 1.5125,-0.69676 4.51201,-2.15299 6.66559,-3.23607 2.15357,-1.08308 4.29742,-1.96923 4.7641,-1.96923 0.46669,0 2.46968,-0.77692 4.4511,-1.72649 1.98142,-0.94957 5.01257,-1.98052 6.73589,-2.29101 1.72333,-0.31048 4.59582,-1.1985 6.38332,-1.97336 1.7875,-0.77486 5.05,-1.79948 7.25,-2.27692 2.2,-0.47745 5.31733,-1.52766 6.9274,-2.33381 1.86033,-0.93144 4.52298,-1.70407 7.30466,-2.11961 2.40749,-0.35964 5.81645,-1.22966 7.57545,-1.93337 2.67915,-1.07183 5.06412,-1.44579 14.69534,-2.30423 8.38921,-0.74773 12.58299,-1.35196 15.51397,-2.23523 2.41542,-0.7279 6.00347,-1.33373 9,-1.51963 10.77447,-0.66841 50.09138,-1.21094 60.73318,-0.83806 11.16673,0.39128 11.28886,0.4076 16.5,2.20467 2.8875,0.99577 6.79065,2.05153 8.67366,2.34614 1.88302,0.2946 4.70942,1.18469 6.28089,1.97797 1.57146,0.79327 3.68499,1.59761 4.69671,1.78741 1.01173,0.1898 3.11161,1.11111 4.6664,2.04735 1.55478,0.93625 4.03362,2.05307 5.50852,2.48184 5.28126,1.5353 14.11863,6.23611 23.22,12.35127 8.78083,5.8998 17.89054,12.47613 22.20382,16.02902 1.1,0.90608 3.17239,2.51653 4.60531,3.57877 3.22086,2.38765 22.99422,23.24911 24.91186,26.28272 0.76994,1.21801 2.33913,3.67706 3.48709,5.46456 1.97549,3.07606 3.91483,7.06687 8.74709,18 1.15465,2.6125 2.2826,4.975 2.50645,5.25 0.2239,0.275 1.7385,3.0875 3.36585,6.25 1.62735,3.1625 3.64945,6.9875 4.4936,8.5 0.84415,1.5125 2.00115,4.47551 2.57115,6.58447 0.56995,2.10896 1.93215,5.59646 3.0271,7.75 1.4163,2.78561 2.3043,5.50269 3.07715,9.41553 1.202,6.08565 3.87445,13.77805 5.99155,17.24617 0.75675,1.2396 2.53305,5.06633 3.9474,8.50383 1.4143,3.4375 3.45495,8.1625 4.5348,10.5 1.0798,2.3375 2.295,5.99616 2.7004,8.13035 0.4054,2.1342 1.5201,5.8467 2.47715,8.25 1.62015,4.06835 3.3927,10.24175 7.5716,26.36965 0.9263,3.575 2.15735,10.1 2.7356,14.5 0.5783,4.4 1.27865,8.86364 1.5563,9.91921 0.2777,1.05557 0.69775,4.65557 0.93345,8 0.23565,3.34443 0.7944,8.42309 1.24155,11.28589 0.4472,2.8628 0.66635,5.56281 0.48705,6 -0.1793,0.43719 -0.2981,5.8574 -0.26405,12.0449 0.0593,10.75407 -0.3525,15.97247 -1.9796,25.08847 -0.27865,1.56117 -0.71235,6.17367 -0.96385,10.25 -0.2515,4.07635 -1.12545,11.46153 -1.9422,16.41153 -0.81675,4.95 -1.97805,12.375 -2.5807,16.5 -0.6026,4.125 -1.61615,9.1875 -2.25225,11.25 -0.6361,2.0625 -1.42005,5.1 -1.74205,6.75 -0.79075,4.05194 -13.74625,31.35501 -16.9579,35.73798 -1.31465,1.79411 -3.5866,5.06202 -5.0488,7.26202 -1.4622,2.2 -3.60265,5.125 -4.7566,6.5 -1.15395,1.375 -3.3485,4.45005 -4.87675,6.83344 -1.52825,2.3834 -4.32655,5.98339 -6.21835,8 -5.08715,5.42262 -8.6765,9.82529 -12.177,14.93616 -2.36431,3.45198 -4.0512,5.26657 -6.94078,7.46622 -2.09954,1.59824 -4.40859,3.66151 -5.13122,4.58504 -2.90364,3.71087 -28.93621,29.61364 -33.19207,33.02659 -2.50506,2.0089 -6.35122,5.22755 -8.54702,7.15255 -10.46967,9.1785 -17.71888,14.3617 -21.33226,15.2526 -5.38528,1.32775 -5.97146,1.63235 -9.57824,4.9766 -4.46339,4.1385 -8.14527,6.4316 -14.60006,9.093 -5.94591,2.4516 -17.14016,6.21085 -21.51809,7.22615 -1.76716,0.40985 -5.09519,1.52425 -7.39562,2.47655 -3.94589,1.6334 -4.7441,1.7723 -14.10457,2.4542 -7.0443,0.5132 -11.31933,1.0859 -14.7399,1.97465 -3.11333,0.8089 -6.90741,1.35745 -10.72374,1.5504 -3.24821,0.1642 -7.25583,0.5058 -8.90583,0.7591 -7.05158,1.0824 -12.82102,1.5032 -20.752,1.5137 -5.37027,0.007 -9.96095,0.28865 -12.59846,0.7727 -4.81111,0.883 -30.02819,1.3356 -40.64954,0.7296 z m 34.12398,-146.23684 c -5.59354,-2.01339 -9.90201,-8.62904 -11.913,-18.29241 -2.59736,-12.48105 -2.5219,-11.81369 -4.66434,-41.25 -0.4003,-5.5 -0.98628,-11.575 -1.30216,-13.5 -0.33997,-2.0718 -0.44307,-5.33625 -0.25264,-8 0.17693,-2.475 0.0628,-9.7875 -0.25353,-16.25 -0.31637,-6.4625 -0.57484,-21.18914 -0.57439,-32.72587 4.5e-4,-11.53671 -0.21128,-22.22421 -0.47051,-23.75 -0.25923,-1.52577 -0.69701,-6.48663 -0.97283,-11.02413 -1.05144,-17.29676 -1.54323,-25.47327 -1.92467,-32 -0.2601,-4.45044 -0.795,-8.21408 -1.57011,-11.04756 -1.16809,-4.27001 -1.17016,-4.3261 -0.3224,-8.75 1.02735,-5.36102 1.04201,-9.07438 0.0926,-23.45244 -0.84599,-12.81176 -1.06766,-13.93572 -3.99376,-20.25 -3.02668,-6.53133 -4.3022,-13.87064 -4.77932,-27.5 -0.19734,-5.6375 -0.51912,-12.1625 -0.71505,-14.5 -0.22984,-2.74213 -0.0827,-7.06446 0.41467,-12.18265 0.8859,-9.11605 0.86126,-9.06095 6.90652,-15.44254 3.54296,-3.74008 3.75116,-3.87519 5.97094,-3.875 3.75819,3.1e-4 7.53063,3.29191 10.06002,8.77771 1.03614,2.24723 1.12761,3.08743 1.00396,9.22248 -0.15493,7.68722 0.54391,15.69517 1.94172,22.25 0.57392,2.69132 1.25187,9.32437 1.68673,16.50303 0.39991,6.60166 0.97733,13.57666 1.28314,15.5 0.58381,3.67159 1.11194,13.5253 1.92937,35.99697 0.50918,13.99787 1.84533,33.02228 2.38002,33.88744 0.16856,0.27272 0.272,4.31345 0.22986,8.97939 -0.0843,9.3344 0.38941,13.24964 2.28342,18.87347 1.25968,3.74029 1.25968,3.74029 0.38445,7.91089 -0.6868,3.27277 -0.79544,5.21236 -0.50464,9.00971 0.5628,7.34904 0.94104,17.9803 0.75919,21.3391 -0.67426,12.45446 0.35928,38.57802 1.79663,45.41092 0.511,2.42919 0.65237,4.84358 0.44368,7.57715 -0.20949,2.74406 -0.069,5.11801 0.44454,7.51193 0.41296,1.925 1.00462,5.8625 1.31479,8.75 1.15496,10.75171 1.59226,12.91888 4.06006,20.12093 2.40875,7.02974 2.50121,7.49263 1.99734,10 -0.29059,1.44599 -0.51053,4.87907 -0.48875,7.62907 0.0426,5.37937 -1.01672,11.19063 -2.61639,14.35343 -0.9973,1.9718 -4.09255,4.09175 -6.68912,4.58139 -0.825,0.15558 -2.3442,-0.021 -3.37602,-0.39241 z"
     id="path1138"
     inkscape:connector-curvature="0" />
</svg>
