<?xml version="1.0" encoding="UTF-8" standalone="no"?>
<!-- Created with Inkscape (http://www.inkscape.org/) -->

<svg
   xmlns:dc="http://purl.org/dc/elements/1.1/"
   xmlns:cc="http://creativecommons.org/ns#"
   xmlns:rdf="http://www.w3.org/1999/02/22-rdf-syntax-ns#"
   xmlns:svg="http://www.w3.org/2000/svg"
   xmlns="http://www.w3.org/2000/svg"
   xmlns:sodipodi="http://sodipodi.sourceforge.net/DTD/sodipodi-0.dtd"
   xmlns:inkscape="http://www.inkscape.org/namespaces/inkscape"
   version="1.1"
   id="svg4415"
   width="1000"
   height="1000"
   viewBox="0 0 1000 1000"
   sodipodi:docname="fatou_bdc_j.svg"
   inkscape:version="0.92.2 5c3e80d, 2017-08-06">
  <metadata
     id="metadata4421">
    <rdf:RDF>
      <cc:Work
         rdf:about="">
        <dc:format>image/svg+xml</dc:format>
        <dc:type
           rdf:resource="http://purl.org/dc/dcmitype/StillImage" />
        <dc:title></dc:title>
      </cc:Work>
    </rdf:RDF>
  </metadata>
  <defs
     id="defs4419" />
  <sodipodi:namedview
     pagecolor="#ffffff"
     bordercolor="#666666"
     borderopacity="1"
     objecttolerance="10"
     gridtolerance="10"
     guidetolerance="10"
     inkscape:pageopacity="0"
     inkscape:pageshadow="2"
     inkscape:window-width="1027"
     inkscape:window-height="480"
     id="namedview4417"
     showgrid="false"
     inkscape:zoom="0.19666667"
     inkscape:cx="444"
     inkscape:cy="600"
     inkscape:window-x="48"
     inkscape:window-y="157"
     inkscape:window-maximized="0"
     inkscape:current-layer="svg4415" />
  <path
     style="fill:#000000;stroke-width:0.5"
     d="m 546.82627,860.72824 c -1.375,-0.23115 -4.21898,-0.44 -6.31996,-0.4641 -2.10098,-0.024 -6.00699,-0.4938 -8.68004,-1.0438 -2.67304,-0.55 -6.62106,-1 -8.77336,-1 -2.18495,0 -5.74914,-0.4401 -8.06997,-0.9965 -2.28617,-0.54805 -5.14418,-0.99805 -6.35113,-1 -1.20695,0 -4.80695,-0.4372 -8,-0.9673 -3.19305,-0.53005 -8.28054,-1.2267 -11.30554,-1.54805 -7.39042,-0.7851 -11.55522,-1.68895 -15.06816,-3.27005 -3.76145,-1.69295 -12.19877,-4.8865 -17.83649,-6.75115 -2.43796,-0.8064 -6.00998,-2.4987 -8,-3.79015 -1.97744,-1.28335 -6.63285,-4.1173 -10.34535,-6.2977 -3.73635,-2.1944 -7.97779,-5.14065 -9.5,-6.599 -1.5125,-1.44905 -4.4375,-3.7946 -6.5,-5.2123 -2.0625,-1.41775 -6,-4.60325 -8.75,-7.0789 -2.75,-2.47565 -6.63265,-5.8817 -8.6281,-7.569 -2.74502,-2.3211 -4.65282,-4.6015 -7.83815,-9.36885 -2.31553,-3.4656 -5.86227,-8.10597 -7.88163,-10.31198 -5.02702,-5.49166 -5.75134,-6.60864 -7.36505,-11.35781 -0.77206,-2.27219 -2.00062,-5.54113 -2.73013,-7.2643 -1.23021,-2.90586 -2.94116,-9.66382 -5.31694,-21.00106 -0.5341,-2.54875 -1.55609,-6.59875 -2.27109,-9 -1.15785,-3.88854 -1.34907,-5.67796 -1.74881,-16.3659 -0.24685,-6.6 -0.59173,-13.14999 -0.7664,-14.55553 -0.25607,-2.06055 0.0294,-3.80427 1.47419,-9.00265 0.98548,-3.54591 2.25102,-7.78193 2.81231,-9.41336 0.5613,-1.63143 1.46989,-6.46774 2.0191,-10.74735 0.54921,-4.27961 1.12041,-8.51725 1.26933,-9.41697 0.14891,-0.89973 1.29676,-2.89552 2.55076,-4.43509 2.3738,-2.9144 2.90374,-3.97457 5.7129,-11.42905 2.07615,-5.50935 6.5257,-12.41935 9.64095,-14.97206 1.27506,-1.04482 3.1466,-3.2632 4.15897,-4.92975 1.01238,-1.66654 3.17755,-4.50526 4.8115,-6.30826 1.63395,-1.80299 3.87559,-4.63082 4.98143,-6.28405 1.10584,-1.65324 3.83407,-4.9522 6.06274,-7.33104 2.22866,-2.37883 5.6146,-6.09133 7.5243,-8.25 6.5923,-7.45172 23.63625,-23.04481 29.21969,-26.73238 2.86678,-1.89335 5.41948,-3.44246 5.67267,-3.44246 1.45237,0 7.56257,-4.77217 10.01986,-7.82568 2.4291,-3.01848 11.8554,-12.49557 16.94425,-17.03555 0.99332,-0.88618 1.94677,-2.17201 2.11879,-2.85739 0.38777,-1.54499 -1.21215,-8.87955 -2.93396,-13.45023 -2.35172,-6.24285 -4.21059,-9.33115 -5.61649,-9.33115 -1.1135,0 -2.14699,3.1978 -2.14699,6.64319 0,4.99253 -1.15497,8.08238 -4.06356,10.87112 -1.86281,1.78604 -2.92505,3.42458 -4.23748,6.53647 -3.39028,8.03868 -5.23726,11.01368 -9.43618,15.19922 -2.20703,2.2 -5.02528,5.44074 -6.26278,7.20165 -1.2375,1.7609 -4.81985,5.5859 -7.96078,8.5 -3.14093,2.91409 -8.09093,7.50882 -11,10.21051 -3.19419,2.96648 -7.07164,5.97278 -9.78922,7.58985 -2.475,1.47273 -5.61353,3.61026 -6.9745,4.75007 -1.36098,1.13981 -3.49848,2.66073 -4.75,3.37981 -1.25153,0.71908 -3.58927,2.1868 -5.19498,3.26159 -1.60571,1.0748 -5.9932,3.43917 -9.75,5.25415 -3.75679,1.81498 -8.63052,4.48804 -10.83052,5.94012 -5.03937,3.32618 -13.66858,6.66225 -17.23285,6.66225 -1.60351,0 -3.66693,-0.47125 -5.56926,-1.27194 -3.38199,-1.42345 -4.04098,-1.34166 -6.77901,0.84144 -1.05539,0.84147 -2.81888,1.99141 -3.91888,2.55543 -2.78435,1.42764 -9.42607,1.6968 -16.64219,0.67444 -7.09802,-1.00563 -9.68289,-1.00405 -13.95178,0.009 -4.89777,1.16176 -10.85439,1.09348 -13.68089,-0.15682 -2.71972,-1.20306 -4.76111,-3.49941 -5.47817,-6.16235 -0.35078,-1.30271 -0.48171,-11.28774 -0.38815,-29.60226 0.13589,-26.6013 0.17864,-27.70008 1.14118,-29.33422 0.55,-0.93376 1.63469,-2.17125 2.41043,-2.75 1.60432,-1.19692 3.80728,-1.27053 17.33957,-0.57931 7.11086,0.36321 8.38914,0.28855 15.5,-0.90525 7.58943,-1.27414 7.89982,-1.37638 14.98093,-4.93441 8.85344,-4.44855 13.06898,-7.14964 18.55055,-11.88614 2.32019,-2.00481 6.24352,-5.17517 8.71852,-7.04524 10.47597,-7.91545 30.54005,-29.55946 31.6666,-34.16014 0.45214,-1.8465 1.55125,-7.33143 3.41496,-17.04178 0.48641,-2.53432 0.67545,-8.67326 0.68515,-22.25 0.0164,-22.95137 -0.60366,-29.79931 -3.27786,-36.19956 -0.42481,-1.01672 -1.11267,-4.144 -1.52859,-6.94951 -1.17144,-7.90187 -2.52707,-11.78343 -12.0108,-34.39058 -0.64364,-1.5343 -1.5126,-4.9093 -1.93101,-7.5 -0.41841,-2.59069 -1.63754,-7.74785 -2.70917,-11.46035 -2.05888,-7.13267 -2.96246,-14.57541 -3.15651,-26 -0.12766,-7.51609 1.27481,-9.68665 8.06918,-12.48843 2.04098,-0.84163 5.63849,-2.59358 7.99447,-3.89322 6.02364,-3.32287 6.82344,-3.61978 9.71599,-3.60697 2.86152,0.0127 12.43999,2.4459 15.2507,3.87414 1.19344,0.60644 2.52313,2.02837 3.87506,4.14386 2.70366,4.23071 4.26744,5.85423 6.01108,6.24075 7.60781,1.68646 9.02937,2.75585 11.90803,8.95811 1.15821,2.49544 2.90092,5.65869 3.87268,7.02946 1.96451,2.77112 4.31054,8.54743 5.9068,14.5435 0.57819,2.17184 1.9285,5.8613 3.0007,8.1988 3.07466,6.70305 3.49221,8.24817 3.49632,12.93787 0.006,7.10806 0.71767,10.23403 3.71252,16.31213 1.49051,3.025 3.94931,7.15104 5.46402,9.16898 1.5147,2.01794 3.69755,5.48258 4.85076,7.6992 2.78233,5.348 9.00209,14.57695 11.7143,17.38182 1.52374,1.5758 3.70377,5.24644 7.27539,12.25 5.55462,10.89203 7.5538,14.42299 10.75753,19 1.15494,1.65 2.59086,3.97388 3.19095,5.16419 0.60008,1.1903 2.06323,3.58419 3.25144,5.31975 1.22498,1.78926 2.75131,4.96555 3.52516,7.33582 2.25804,6.91629 5.93458,12.9303 7.9046,12.93018 1.95199,-1.2e-4 8.94409,-4.97993 15.00608,-10.68738 7.91264,-7.44987 21.73312,-21.50563 26.60957,-27.06256 2.17192,-2.475 7.4415,-8.16846 11.71018,-12.65213 9.06735,-9.52403 10.90152,-10.6956 18.22034,-11.63816 5.25849,-0.67722 8.85483,-0.34706 14.71373,1.35078 7.83859,2.27153 13.30558,6.09148 18.47309,12.9077 1.26417,1.6675 4.13886,4.96039 6.3882,7.31755 4.48494,4.69991 5.71839,7.12567 6.76335,13.30117 0.31765,1.8772 1.25939,4.9866 2.09276,6.90978 2.61784,6.04121 3.18983,17.42379 1.08057,21.50331 -1.1138,2.15421 -4.22267,4.69543 -17.92432,14.65151 -4.3813,3.1836 -10.1188,7.6052 -12.75,9.82577 -5.19356,4.38304 -13.87394,11.11777 -17.6526,13.6959 -1.30273,0.88883 -5.18511,4.44896 -8.62751,7.9114 -5.17789,5.20803 -6.4096,6.73751 -7.1314,8.85538 -0.61303,1.79872 -1.59948,3.22916 -3.31709,4.81004 -1.34452,1.2375 -4.66327,4.39985 -7.375,7.02745 -6.19844,6.00613 -6.22675,6.22027 -1.38934,10.50895 1.94758,1.72666 4.45673,4.50609 5.5759,6.17649 1.11917,1.67041 3.20007,4.49962 4.62422,6.28711 1.42416,1.7875 4.03375,5.57624 5.79909,8.41942 1.76535,2.84318 5.019,7.56818 7.23034,10.5 2.21133,2.93182 4.77032,6.56808 5.68664,8.08058 0.91631,1.5125 3.19789,4.775 5.07018,7.25 1.87228,2.475 4.75481,7.15198 6.40562,10.39329 1.6508,3.24131 4.67778,8.41631 6.72662,11.5 2.04884,3.08369 4.75257,7.47044 6.00828,9.74833 1.25572,2.27789 3.31379,5.34802 4.57349,6.82252 1.35506,1.58612 3.06558,4.49465 4.18869,7.12237 1.04407,2.44281 3.18587,6.32151 4.75955,8.61935 1.57369,2.29783 3.44445,5.32904 4.15726,6.73601 0.71282,1.40697 2.64964,4.57147 4.30406,7.03222 4.48853,6.67612 12.8706,24.79978 14.51223,31.37824 0.95395,3.82275 3.98033,10.94701 6.91599,16.28061 1.55674,2.82835 2.21234,4.81267 2.96019,8.95972 1.17243,6.50147 1.20679,10.48803 0.15096,17.51721 -0.62639,4.17014 -0.73354,7.16652 -0.47342,13.23855 0.36291,8.47104 0.25328,9.02198 -2.52183,12.67357 -0.84463,1.1114 -1.57109,3.60681 -2.69285,9.25001 -1.7811,8.96016 -2.01343,9.63945 -4.78057,13.978 -1.14007,1.7875 -3.02588,5.0956 -4.19068,7.3513 -2.61881,5.07155 -4.65446,6.9417 -17.68815,16.2501 -7.59374,5.42331 -19.24962,11.4051 -26.12735,13.40865 -8.79844,2.56305 -30.10704,6.27815 -38.46552,6.7064 -3.3,0.16905 -7.8,0.65625 -10,1.0826 -4.57807,0.88725 -18.77801,1.3346 -22.5,0.70885 z m -11.75,-71.0036 c 2.6125,-0.29721 7.1125,-0.75322 10,-1.01335 20.46097,-1.84333 22.06014,-2.03751 31.25,-3.79459 9.43181,-1.80335 10.5053,-2.13921 13.39035,-4.18944 1.43531,-1.01999 4.6755,-2.91614 7.20043,-4.21367 6.40283,-3.29034 8.26048,-6.00845 10.96451,-16.04325 2.30025,-8.53635 1.64181,-14.7019 -2.83002,-26.5 -1.14656,-3.025 -3.03542,-8.12075 -4.19747,-11.32388 -1.24242,-3.42472 -2.79476,-6.68493 -3.76823,-7.91403 -1.8364,-2.31865 -7.05259,-11.87909 -8.59447,-15.7523 -0.54523,-1.36961 -2.81105,-5.86961 -5.03515,-10 -2.2241,-4.13038 -5.42585,-10.09729 -7.115,-13.25979 -1.68915,-3.1625 -5.0455,-8.40076 -7.45856,-11.64057 -2.41306,-3.23981 -5.30206,-7.40231 -6.42,-9.25 -1.11793,-1.84769 -2.99302,-4.71112 -4.16687,-6.36319 -1.17385,-1.65206 -2.90641,-4.68956 -3.85014,-6.75 -0.94375,-2.06043 -2.71455,-4.87124 -3.93512,-6.24624 -1.22059,-1.375 -3.15803,-3.9625 -4.30544,-5.75 -2.90687,-4.5285 -18.50972,-20.00186 -20.16212,-19.9948 -1.55755,0.007 -8.08495,5.00005 -15.08855,11.54259 -2.95452,2.76002 -6.46027,5.87855 -7.79053,6.93007 -6.02545,4.76284 -17.87974,16.26638 -22.15678,21.50118 -2.57446,3.15097 -6.04437,7.20097 -7.71091,9 -1.66653,1.79903 -4.20384,4.77298 -5.63847,6.60878 -1.43461,1.8358 -2.79204,3.41081 -3.01649,3.5 -0.22446,0.0892 -1.49995,1.62468 -2.83445,3.41218 -1.3345,1.7875 -4.25426,5.5 -6.48836,8.25 -2.23411,2.75 -4.98279,6.3648 -6.10816,8.03288 -2.67859,3.97031 -10.0399,18.11345 -10.99112,21.11702 -0.40935,1.29255 -0.94037,5.6126 -1.18003,9.6001 -0.23967,3.9875 -0.61316,8.2625 -0.82998,9.5 -0.43244,2.4681 -0.31156,3.798 1.31788,14.5 0.93819,6.16185 1.403,7.86222 3.09694,11.32906 1.11019,2.27213 2.21513,5.45788 2.49436,7.19172 0.2757,1.71196 0.82017,3.72932 1.20991,4.48301 0.38975,0.75369 2.87735,3.28839 5.52801,5.63265 4.03841,3.57162 5.56078,4.56655 9.3947,6.13984 2.51643,1.03264 6.05746,2.61481 7.86895,3.51593 2.8987,1.44194 6.72733,2.52351 17.58101,4.96651 1.58104,0.35588 6.08104,0.90953 10,1.23035 3.91895,0.32082 8.81287,0.94469 10.87537,1.38639 3.29222,0.70505 19.77615,1.60137 23.5,1.27783 0.6875,-0.0597 3.3875,-0.35178 6,-0.64899 z"
     id="path4425"
     inkscape:connector-curvature="0" />
</svg>
