<?xml version="1.0" encoding="UTF-8" standalone="no"?>
<!-- Created with Inkscape (http://www.inkscape.org/) -->

<svg
   xmlns:dc="http://purl.org/dc/elements/1.1/"
   xmlns:cc="http://creativecommons.org/ns#"
   xmlns:rdf="http://www.w3.org/1999/02/22-rdf-syntax-ns#"
   xmlns:svg="http://www.w3.org/2000/svg"
   xmlns="http://www.w3.org/2000/svg"
   xmlns:sodipodi="http://sodipodi.sourceforge.net/DTD/sodipodi-0.dtd"
   xmlns:inkscape="http://www.inkscape.org/namespaces/inkscape"
   version="1.1"
   id="svg784"
   width="1000"
   height="1000"
   viewBox="0 0 1000 1000"
   sodipodi:docname="fatou_bdc_n.svg"
   inkscape:version="0.92.2 5c3e80d, 2017-08-06">
  <metadata
     id="metadata790">
    <rdf:RDF>
      <cc:Work
         rdf:about="">
        <dc:format>image/svg+xml</dc:format>
        <dc:type
           rdf:resource="http://purl.org/dc/dcmitype/StillImage" />
        <dc:title></dc:title>
      </cc:Work>
    </rdf:RDF>
  </metadata>
  <defs
     id="defs788" />
  <sodipodi:namedview
     pagecolor="#ffffff"
     bordercolor="#666666"
     borderopacity="1"
     objecttolerance="10"
     gridtolerance="10"
     guidetolerance="10"
     inkscape:pageopacity="0"
     inkscape:pageshadow="2"
     inkscape:window-width="1292"
     inkscape:window-height="691"
     id="namedview786"
     showgrid="false"
     inkscape:zoom="0.27052359"
     inkscape:cx="279.17715"
     inkscape:cy="600"
     inkscape:window-x="0"
     inkscape:window-y="0"
     inkscape:window-maximized="0"
     inkscape:current-layer="svg784" />
  <path
     style="fill:#000000;stroke-width:0.5"
     d="m 174.23378,858.82482 c -3.00575,-0.5141 -5.39044,-1.93662 -10.25076,-6.11472 -4.19111,-3.60282 -4.53687,-3.79433 -6.85039,-3.79433 -3.9782,0 -7.40529,-0.95994 -9.26896,-2.59626 -2.74405,-2.40931 -2.91158,-3.71515 -2.17418,-16.94774 0.35878,-6.4383 0.60771,-13.1685 0.55318,-14.956 -0.34914,-11.44496 -0.60251,-53.64096 -0.33307,-55.46986 0.4096,-2.78029 2.75674,-5.30087 5.3974,-5.79626 1.85622,-0.34823 10.95819,1.29848 16.83991,3.04665 2.30424,0.68487 5.42459,0.81663 19.25,0.81289 22.62452,-0.006 23.94774,-0.27355 30.86459,-6.23793 1.99948,-1.72415 4.31041,-3.56021 5.13541,-4.08015 0.825,-0.51993 5.02831,-4.30173 9.34069,-8.404 7.41863,-7.05716 8.17688,-7.96098 14.08593,-16.79 6.44439,-9.6289 8.96012,-14.6535 12.67986,-25.32507 0.95735,-2.74654 2.04303,-5.5785 2.41263,-6.29323 0.3696,-0.71472 1.23765,-3.53005 1.92899,-6.25627 0.69134,-2.72623 1.62437,-5.96927 2.07339,-7.20677 0.5086,-1.40169 0.98507,-5.13374 1.26375,-9.89856 0.31226,-5.33891 0.8891,-9.56652 1.91025,-14 0.80459,-3.49329 1.61097,-7.47644 1.79194,-8.85144 0.18098,-1.375 0.75666,-3.9625 1.2793,-5.75 2.26373,-7.74234 3.97938,-17.74353 4.95308,-28.87346 0.29464,-3.36791 0.97004,-8.20541 1.50089,-10.75 2.03664,-9.76254 3.97237,-28.81843 4.02531,-39.62654 0.0359,-7.34202 1.28456,-20.76613 2.47465,-26.60604 0.57113,-2.80254 1.49398,-8.53767 2.05079,-12.74474 1.15765,-8.74684 3.13376,-17.62805 4.64328,-20.86824 0.56858,-1.22046 2.67747,-4.66233 4.68641,-7.64861 2.00894,-2.98627 4.08852,-6.28401 4.62129,-7.32832 1.43814,-2.81898 4.01847,-4.8066 7.85582,-6.05129 3.82308,-1.24006 6.21737,-2.63937 9.96606,-5.82453 4.7298,-4.01878 4.03706,-3.90925 25.80354,-4.08011 21.58559,-0.16945 20.4007,-0.33326 24.90215,3.44258 1.2375,1.03802 3.46211,2.36239 4.94357,2.94304 1.48147,0.58065 3.59933,1.83101 4.70636,2.7786 1.14462,0.97974 2.78645,1.84263 3.80643,2.00052 4.28686,0.66358 5.5775,1.3236 9.25386,4.73237 2.0537,1.90422 5.0403,4.12553 6.63689,4.93625 3.25032,1.65044 4.90865,3.25227 6.82478,6.59225 0.71744,1.25055 3.63313,4.64513 6.47931,7.54351 4.20288,4.27997 5.669,5.44747 7.80563,6.21579 2.91687,1.04889 6.20574,3.60865 7.24922,5.64215 0.3739,0.72865 0.94361,2.60487 1.26602,4.16938 0.48216,2.33972 1.08056,3.39862 3.37171,5.96636 3.11022,3.48568 5.26992,6.69863 7.56749,11.25799 0.85058,1.6879 2.76114,4.46163 4.24569,6.16385 1.79645,2.05983 3.82043,5.36634 6.05167,9.88638 3.05955,6.19802 3.76047,7.21253 8.02172,11.61058 4.97374,5.1334 5.44595,6.04455 6.03862,11.65156 0.26317,2.48972 0.69203,3.40705 3.15574,6.75 3.56574,4.83829 10.15566,14.793 11.33243,17.11872 0.487,0.9625 1.83847,3.1 3.00325,4.75 1.16479,1.65 2.57348,3.9 3.13043,5 0.55694,1.1 3.31963,4.7 6.1393,8 6.39184,7.48067 8.85823,10.79733 11.23686,15.11064 3.75109,6.80208 4.99649,7.16225 8.69417,2.51436 1.36737,-1.71875 3.22924,-4.42971 4.13749,-6.02435 2.45862,-4.31669 5.89665,-9.0086 10.68689,-14.58452 2.84054,-3.30642 4.87359,-6.25144 6.04043,-8.75 3.84965,-8.24321 4.91333,-10.10139 8.49509,-14.8403 2.04767,-2.70921 5.06902,-7.56414 6.71411,-10.78873 2.41813,-4.73983 3.79261,-6.72144 7.17537,-10.34483 5.1204,-5.48461 13.14128,-16.39779 15.80898,-21.50963 1.08573,-2.08045 3.94425,-6.30116 6.35227,-9.37935 2.40802,-3.07819 6.15722,-8.59069 8.33152,-12.25 4.86805,-8.19281 5.45485,-8.927 16.30225,-20.396 4.81555,-5.09151 9.59005,-10.40329 10.61005,-11.80395 1.84795,-2.53757 3.6125,-3.94963 7.8844,-6.30929 1.2375,-0.68355 3.825,-2.21362 5.75,-3.40016 1.925,-1.18653 5.5645,-3.15555 8.0878,-4.37561 7.55725,-3.65403 11.06035,-3.10736 21.6622,3.38048 3.1625,1.9353 7.3897,4.30045 9.3937,5.25589 2.00405,0.95544 5.82905,3.4014 8.5,5.43546 4.69615,3.57634 14.07505,12.72567 16.71915,16.30989 2.27125,3.07883 7.2083,12.63398 8.39625,16.25 2.9589,9.0069 5.5346,14.98744 7.41535,17.21793 3.324,3.94208 5.44235,7.69261 7.24635,12.82959 0.9565,2.72386 2.51175,6.63998 3.4561,8.70248 2.23175,4.87444 2.3743,5.5341 2.8613,13.23999 0.4055,6.41689 0.47655,6.70461 4.9651,20.1145 4.31325,12.88613 4.56915,13.88939 4.84655,19 0.2792,5.14438 0.40115,5.61518 2.6202,10.11532 2.32445,4.71393 2.32735,4.72637 2.32865,10 0,5.26646 0.006,5.28831 1.9477,8.40571 1.81905,2.92103 1.97035,3.46083 2.31265,8.25 0.44865,6.27767 3.2772,17.70273 5.8075,23.45762 0.99645,2.26629 2.53655,6.26845 3.4225,8.89369 2.63365,7.80388 10.34645,24.2251 12.41605,26.43478 0.5984,0.63888 2.59775,1.95496 4.443,2.92461 2.54875,1.33933 3.9958,2.56216 6.0215,5.08839 1.46655,1.82896 3.55835,3.81165 4.64845,4.40598 1.09005,0.59432 5.46945,2.14483 9.73195,3.44558 4.2625,1.30075 9.2125,2.82014 11,3.37644 2.6997,0.84018 4.6469,1.01349 11.5,1.02358 8.2392,0.0121 8.2621,0.009 17.5,-2.37375 5.86265,-1.51218 11.2641,-3.27444 14.75,-4.81227 3.025,-1.33451 8.0875,-3.25547 11.25,-4.2688 6.90095,-2.21122 8.49185,-2.9895 16.81495,-8.226 3.53925,-2.22676 8.34755,-4.96151 10.68505,-6.07721 2.3375,-1.1157 7.85,-3.78255 12.25,-5.92634 14.01505,-6.82849 20.59665,-7.23759 23.97295,-1.49012 1.0001,1.7024 1.02905,2.4768 1.1031,29.4983 0.042,15.2625 0.0747,34.725 0.073,43.25 0,8.525 0.035,17.7846 0.0812,20.5769 0.0928,5.59518 -0.44775,8.36128 -2.0261,10.36781 -1.59085,2.02247 -3.61895,2.83033 -9.00175,3.58573 -3.3748,0.47359 -5.8336,1.14569 -7.81345,2.13572 -1.5889,0.79456 -4.12645,1.83715 -5.63895,2.31685 -1.5125,0.47971 -6.49165,2.65336 -11.0648,4.83033 -10.65515,5.07222 -24.14465,10.28725 -28.3805,10.97187 -8.05125,1.3013 -9.38595,1.63168 -12.98945,3.21536 -2.0984,0.92221 -5.27775,2.02843 -7.06525,2.45826 -2.89025,0.69501 -13.3769,2.15887 -21.75,3.03616 -1.65,0.17288 -4.9125,0.66532 -7.25,1.09432 -2.87605,0.52783 -5.6222,0.68502 -8.49455,0.48624 -3.7134,-0.25699 -4.80825,-0.57473 -8.75,-2.5394 -4.24895,-2.1178 -10.58425,-4.17258 -18.48485,-5.9953 -5.4865,-1.26577 -7.5494,-2.56197 -13.9451,-8.76215 -5.32755,-5.16469 -21.9365,-23.00425 -24.61805,-26.44209 -3.2125,-4.11848 -11.38525,-16.46443 -13.46245,-20.33661 -1.3277,-2.475 -3.5786,-6.4125 -5.00195,-8.75 -3.41075,-5.60115 -10.41615,-19.61987 -12.5606,-25.1354 -0.93775,-2.41197 -2.36875,-7.03535 -3.17995,-10.27417 -0.81125,-3.23882 -2.73235,-8.91539 -4.26915,-12.6146 -4.22125,-10.16097 -5.1437,-13.05577 -6.76355,-21.22583 -0.81785,-4.125 -2.3674,-10.0875 -3.44345,-13.25 -2.16335,-6.35812 -5.31765,-16.9166 -5.7509,-19.25 -0.15315,-0.825 -0.4909,-3.59841 -0.75055,-6.16314 -0.41575,-4.10681 -0.80535,-5.37263 -3.26545,-10.61021 -3.78465,-8.05751 -4.25945,-9.55974 -4.25945,-13.47665 0,-1.85585 -0.35085,-4.35881 -0.7797,-5.56214 -0.4288,-1.20332 -0.9923,-4.03142 -1.25215,-6.28465 -0.25985,-2.25323 -1.1575,-5.95465 -1.99475,-8.2254 -0.83725,-2.27074 -1.97395,-5.82718 -2.52595,-7.90321 -0.55205,-2.07603 -1.91475,-5.28983 -3.0282,-7.14177 -1.1135,-1.85194 -2.5516,-4.66399 -3.1958,-6.249 -2.3252,-5.72106 -4.7345,-7.34258 -9.14515,-6.15491 -2.4346,0.65556 -3.14725,1.59735 -4.7735,6.30811 -2.25305,6.52639 -4.7927,11.90287 -6.42335,13.59834 -0.8973,0.93294 -2.9449,2.46987 -4.5502,3.41538 -2.9921,1.76234 -6.62525,4.60163 -9.8519,7.69925 -1.61285,1.54832 -1.86105,2.12135 -2.15365,4.97231 -0.43945,4.282 -1.83635,6.99471 -5.79075,11.24537 -4.95935,5.3309 -4.9841,5.36885 -6.08295,9.33428 -0.56355,2.03354 -1.594,4.8225 -2.28995,6.19769 -0.69595,1.37519 -1.8933,4.12076 -2.6607,6.10127 -1.43125,3.69362 -4.3425,8.65304 -10.8684,18.51458 -3.4751,5.25141 -3.7644,5.8998 -4.46155,10 -0.9445,5.55473 -1.97975,7.09588 -6.37964,9.49714 -1.90203,1.03805 -3.86399,2.44986 -4.35991,3.13736 -0.49591,0.6875 -1.82326,4.492 -2.94966,8.45445 -2.34696,8.25613 -3.83551,11.46969 -8.26804,17.84952 -1.94035,2.79278 -3.39787,5.49995 -3.76876,7 -0.33262,1.34532 -1.35641,4.4063 -2.27508,6.80218 -1.67031,4.35615 -1.67031,4.35615 -1.67031,14.28784 0,9.35668 -0.0738,10.14283 -1.27419,13.57871 -1.25759,3.59948 -1.26411,3.69584 -0.5,7.39064 1.0624,5.13725 0.9882,8.37885 -0.25036,10.93738 -1.16792,2.41259 -2.48486,3.41233 -6.16117,4.67716 -1.4227,0.48948 -4.04417,1.98845 -5.8255,3.33104 -1.78133,1.34259 -5.15128,3.34108 -7.48878,4.44108 -3.86139,1.81712 -4.61574,1.99921 -8.25,1.99134 -4.58148,-0.01 -6.45764,-0.77823 -11.5,-4.70942 -3.44666,-2.68713 -4.73735,-3.44367 -9.29174,-5.44629 -3.4075,-1.49831 -4.41318,-2.52309 -6.46288,-6.58563 -0.62437,-1.2375 -2.24575,-3.46799 -3.60308,-4.95664 -2.79,-3.05993 -9.33724,-12.88502 -11.3543,-17.03878 -0.73569,-1.51502 -2.27313,-4.32958 -3.41654,-6.25458 -1.1434,-1.925 -2.62914,-4.9625 -3.30165,-6.75 -0.6725,-1.7875 -2.38532,-5.9172 -3.80625,-9.1771 -1.42093,-3.25991 -3.37686,-8.20631 -4.3465,-10.99202 -1.88904,-5.42709 -8.9099,-18.81726 -16.12677,-30.75697 -5.00947,-8.28775 -7.51205,-13.10792 -10.55193,-20.32391 -2.87394,-6.82206 -3.5994,-8.2017 -7.49309,-14.25 -1.85888,-2.8875 -5.42953,-9.13739 -7.93478,-13.88863 -2.50525,-4.75124 -5.95221,-10.82625 -7.6599,-13.5 -1.7077,-2.67375 -3.94342,-7.06177 -4.96826,-9.75115 -1.02484,-2.68938 -2.41109,-5.83938 -3.08054,-7 -0.66945,-1.16062 -2.52007,-4.36022 -4.11248,-7.11022 -1.59241,-2.75 -4.27983,-6.47753 -5.97205,-8.28341 -2.02831,-2.16453 -3.48406,-4.29431 -4.27201,-6.25 -0.65739,-1.63162 -2.14219,-4.35703 -3.29956,-6.05645 -1.15736,-1.69942 -2.45535,-4.29745 -2.88442,-5.77339 -0.84923,-2.92124 -4.00887,-8.18907 -6.44745,-10.74935 -1.03904,-1.09089 -2.76176,-2.02258 -5.32488,-2.87984 -2.0966,-0.70122 -4.77623,-2.05204 -5.99936,-3.02431 -2.76185,-2.19542 -3.64342,-2.41362 -8.59377,-2.12704 -5.28763,0.30609 -6.56219,1.20115 -7.04114,4.94466 -0.18994,1.48452 -0.58216,10.57413 -0.87161,20.19913 -0.55515,18.46036 -0.9018,22.361 -2.56678,28.88207 -0.56669,2.21951 -1.20521,6.07903 -1.41894,8.57671 -0.28586,3.34073 -0.79084,5.46646 -1.91021,8.04122 -1.10785,2.54825 -1.61298,4.6557 -1.85756,7.75 -0.9208,11.64919 -1.86045,18.23558 -3.50702,24.58202 -0.9749,3.7576 -1.77243,7.35761 -1.7723,8 1.4e-4,0.64239 0.47011,2.40419 1.04438,3.91512 1.2343,3.24753 1.01367,5.71197 -0.78639,8.78375 -2.38684,4.07314 -5.35505,16.79809 -6.52404,27.96911 -0.86384,8.2549 -1.20733,10.09568 -3.73197,20 -1.05148,4.125 -2.6189,10.82382 -3.48316,14.88626 -2.05427,9.65612 -2.4705,10.74639 -6.24706,16.36374 -1.7564,2.6125 -3.66223,5.94237 -4.23517,7.3997 -1.60085,4.07191 -2.97417,6.61707 -5.04523,9.3503 -1.04188,1.375 -2.12794,3.4 -2.41346,4.5 -0.28551,1.1 -0.78125,3.04951 -1.10164,4.33224 -0.6781,2.71488 -2.32083,4.46225 -5.47651,5.82535 -2.46249,1.06367 -3.69744,2.24749 -5.68068,5.44553 -0.71733,1.15672 -3.99142,5.00826 -7.27575,8.55897 -3.28434,3.55073 -6.76572,7.69741 -7.73642,9.21484 -2.33754,3.65417 -5.19447,6.02223 -8.9655,7.43134 -2.18937,0.81809 -3.67533,1.79874 -5.09165,3.36017 -5.3044,5.84793 -6.03242,6.45811 -9,7.54335 -3.58434,1.31078 -3.83798,1.49934 -6.85816,5.09825 -1.29699,1.54552 -3.16524,3.19302 -4.15166,3.66111 -0.98642,0.46808 -5.23522,1.48953 -9.44178,2.26987 -7.91399,1.46809 -9.94789,2.23598 -17.2984,6.53087 -1.7875,1.04443 -4.15,2.13886 -5.25,2.43201 -2.26474,0.6036 -38.97832,0.99995 -42.16313,0.45515 z"
     id="path794"
     inkscape:connector-curvature="0" />
</svg>
