<?xml version="1.0" encoding="UTF-8" standalone="no"?>
<!-- Created with Inkscape (http://www.inkscape.org/) -->

<svg
   xmlns:dc="http://purl.org/dc/elements/1.1/"
   xmlns:cc="http://creativecommons.org/ns#"
   xmlns:rdf="http://www.w3.org/1999/02/22-rdf-syntax-ns#"
   xmlns:svg="http://www.w3.org/2000/svg"
   xmlns="http://www.w3.org/2000/svg"
   xmlns:sodipodi="http://sodipodi.sourceforge.net/DTD/sodipodi-0.dtd"
   xmlns:inkscape="http://www.inkscape.org/namespaces/inkscape"
   version="1.1"
   id="svg276"
   width="1000"
   height="1000"
   viewBox="0 0 1000 1000"
   sodipodi:docname="fatou_bdc_a3.svg"
   inkscape:version="0.92.2 5c3e80d, 2017-08-06">
  <metadata
     id="metadata282">
    <rdf:RDF>
      <cc:Work
         rdf:about="">
        <dc:format>image/svg+xml</dc:format>
        <dc:type
           rdf:resource="http://purl.org/dc/dcmitype/StillImage" />
        <dc:title></dc:title>
      </cc:Work>
    </rdf:RDF>
  </metadata>
  <defs
     id="defs280" />
  <sodipodi:namedview
     pagecolor="#ffffff"
     bordercolor="#666666"
     borderopacity="1"
     objecttolerance="10"
     gridtolerance="10"
     guidetolerance="10"
     inkscape:pageopacity="0"
     inkscape:pageshadow="2"
     inkscape:window-width="1280"
     inkscape:window-height="712"
     id="namedview278"
     showgrid="false"
     inkscape:zoom="0.19857673"
     inkscape:cx="280.72671"
     inkscape:cy="600"
     inkscape:window-x="0"
     inkscape:window-y="0"
     inkscape:window-maximized="0"
     inkscape:current-layer="svg276" />
  <path
     style="fill:#000000;stroke-width:0.5"
     d="m 441.61926,787.2605 c -4.13752,-0.17905 -7.79651,-0.49475 -8.13108,-0.7015 -0.33458,-0.2068 -4.26184,-0.5753 -8.72725,-0.81895 -8.04251,-0.43875 -11.04929,-0.9582 -34.36891,-5.9376 -5.74667,-1.22705 -6.20412,-1.36875 -13.66393,-4.2329 -7.81368,-3.00001 -9.59192,-4.10659 -14.47117,-9.00531 -2.2632,-2.27221 -5.5774,-5.33791 -7.3649,-6.81266 -1.7875,-1.47474 -4.7125,-4.09153 -6.5,-5.81509 -2.14627,-2.06948 -4.35961,-3.62867 -6.51731,-4.5911 -4.19792,-1.87248 -6.25354,-3.96816 -8.30251,-8.46433 -1.17374,-2.5756 -2.50477,-4.45484 -4.6053,-6.50207 -1.62493,-1.58369 -3.86482,-4.24875 -4.97754,-5.92236 -1.11272,-1.6736 -3.19216,-3.9236 -4.62099,-5 -1.49475,-1.12605 -4.49082,-4.45361 -7.05579,-7.83642 -2.45186,-3.23364 -5.46027,-7.00794 -6.68536,-8.38733 -3.84195,-4.32583 -4.47313,-5.99576 -4.39449,-11.62659 0.0652,-4.66507 0.0117,-4.93038 -1.14586,-5.68885 -1.40024,-0.91748 -4.11526,-0.66267 -5.98367,0.56157 -0.65068,0.42634 -2.13209,2.06787 -3.29202,3.64785 -1.15993,1.57998 -3.39491,4.22269 -4.96662,5.87269 -1.57171,1.65 -4.51026,5.47871 -6.5301,8.50825 -5.01154,7.51677 -13.47957,18.30608 -17.45652,22.24175 -1.80625,1.7875 -5.63125,5.30534 -8.5,7.81743 -2.86876,2.51209 -7.33312,6.44959 -9.92082,8.75 -13.38098,11.89544 -24.9149,20.65373 -33.11202,25.14367 -5.10928,2.7986 -8.34157,3.27025 -22.47944,3.2802 -11.91729,0.009 -12.36429,-0.027 -14.5,-1.1551 -1.44804,-0.7648 -2.71796,-1.99466 -3.70364,-3.58687 -1.35702,-2.19208 -1.49602,-2.80794 -1.45824,-6.46118 0.0322,-3.11159 0.34767,-4.82622 1.375,-7.47268 1.54375,-3.9768 1.63284,-5.36633 0.53718,-8.37761 -1.67973,-4.61653 -2.29269,-34.88348 -0.87238,-43.07712 0.84752,-4.88926 0.84752,-4.88926 -0.55137,-12.75 -1.39889,-7.86074 -1.39889,-7.86074 -0.4428,-10.61074 1.10761,-3.18585 5.97708,-10.119 10.68343,-15.21109 1.79896,-1.9464 5.03755,-5.90141 7.19687,-8.78891 2.15932,-2.8875 7.10914,-8.4 10.99959,-12.25 4.46613,-4.41969 8.40596,-8.88267 10.6882,-12.10741 1.98807,-2.80908 4.76207,-6.40908 6.16445,-8 2.78272,-3.15684 8.78875,-10.82198 12.58296,-16.05891 3.27599,-4.52167 3.54134,-4.79168 8.09711,-8.23935 2.2,-1.66489 6.8125,-5.75296 10.25,-9.08458 8.56387,-8.30011 12.40121,-10.88539 20.91231,-14.08895 4.50579,-1.69598 6.91554,-3.001 7.27602,-3.9404 0.71874,-1.87299 0.172,-4.60484 -2.20848,-11.03482 -3.82191,-10.32353 -3.91138,-10.96116 -3.71052,-26.44558 0.10568,-8.14637 0.39861,-14.19399 0.7387,-15.25 0.30996,-0.9625 0.75489,-4.7875 0.98873,-8.5 0.50997,-8.09632 1.65238,-12.69485 5.09283,-20.5 1.39401,-3.1625 4.04502,-10.1375 5.89115,-15.5 4.7351,-13.75422 11.37434,-27.04144 17.25353,-34.52976 1.20033,-1.52886 3.2772,-4.67886 4.61527,-7 1.33807,-2.32113 4.22556,-6.49561 6.41665,-9.27662 2.1911,-2.781 5.05877,-6.53964 6.37262,-8.35252 1.77642,-2.45115 3.44278,-3.9916 6.5,-6.00891 2.26116,-1.49202 5.68619,-4.03415 7.61119,-5.64919 1.925,-1.61503 5.75,-4.49276 8.5,-6.39494 6.23226,-4.31087 18.27973,-13.87631 23.25,-18.46002 2.0625,-1.90208 5.8875,-4.85712 8.5,-6.56674 7.25824,-4.7498 19.54243,-10.90133 26,-13.01997 3.1625,-1.03758 7.55,-2.60608 9.75,-3.48557 2.2,-0.87949 7.825,-2.69448 12.5,-4.03331 8.5,-2.43423 8.5,-2.43423 35.75,-2.45334 30.06668,-0.0211 27.09046,-0.39466 54.16045,6.79821 18.06577,4.80033 23.48503,8.02363 39.93206,23.751 4.00937,3.83394 11.42014,9.1239 25.1215,17.93227 5.20509,3.34626 15.40132,13.29138 20.05692,19.56298 1.45495,1.95996 3.97226,4.58459 5.59402,5.83251 5.62336,4.32707 11.559,11.54119 16.14675,19.62458 1.46175,2.57546 3.91335,6.23662 5.448,8.13589 9.6486,11.94091 10.6408,13.44363 12.2769,18.59345 0.4805,1.5125 1.9756,4.81992 3.32245,7.34982 2.75565,5.17624 6.02305,13.25065 6.85655,16.94395 0.30485,1.35092 0.79535,5.04373 1.08995,8.20623 0.5957,6.39483 0.99185,8.2512 2.78045,13.02816 2.87275,7.67246 4.26865,20.59765 3.99295,36.97184 -0.3139,18.64205 -0.96515,27.38774 -2.6621,35.75 -0.8371,4.125 -1.7832,9.24015 -2.1024,11.36701 -0.31925,2.12686 -1.0156,5.38864 -1.54745,7.24841 -1.25495,4.38828 -1.2186,6.32876 0.23195,12.38458 0.6587,2.75 1.35205,5.94962 1.5408,7.11028 0.46165,2.83866 1.8249,4.44822 4.12645,4.87194 3.45125,0.63537 6.02675,2.14665 10.0158,5.87717 3.21465,3.00634 5.1134,4.26954 10.16075,6.75976 3.414,1.68439 7.10725,3.30164 8.20725,3.5939 3.25175,0.86395 7.22085,0.61333 11.39405,-0.71944 4.81945,-1.53915 9.3048,-1.61661 14.10595,-0.24361 6.2619,1.79073 10.56055,1.03971 16.6771,-2.91365 5.2971,-3.42373 11.9414,-5.47499 15.7579,-4.86483 3.3325,0.53278 6.0584,2.43427 7.3777,5.14641 1.1098,2.28151 1.1741,3.05752 1.5243,18.38207 0.2011,8.8 0.2385,22.6375 0.083,30.75 -0.353,18.43113 -0.3679,21.76295 -0.1194,26.75 0.1759,3.53047 0.061,4.22191 -0.9761,5.89054 -0.6561,1.05536 -2.0834,2.35379 -3.2309,2.93916 -1.8071,0.92193 -2.5108,1.00131 -5.8246,0.65704 -6.2568,-0.65003 -9.0778,-0.49322 -13.2691,0.73759 -3.4274,1.00647 -5.14525,1.18012 -12,1.21303 -4.4,0.0211 -13.2875,-0.21845 -19.75,-0.53238 -10.3202,-0.50133 -12.4497,-0.75325 -17.5,-2.07024 -3.1625,-0.8247 -8.8009,-1.85242 -12.5298,-2.28383 -11.76025,-1.36059 -16.06655,-2.43812 -22.0609,-5.52015 -3.3899,-1.74295 -6.95125,-3.13178 -9.75,-3.80224 -2.74915,-0.65859 -6.8566,-2.24942 -10.9093,-4.22525 -3.575,-1.74293 -8.00355,-3.844 -9.84125,-4.66905 -2.32295,-1.04293 -4.5972,-2.67465 -7.46246,-5.35422 -4.65403,-4.35239 -6.32451,-5.23 -9.95506,-5.23 -3.76464,0 -5.05611,0.90735 -7.25718,5.09865 -1.05463,2.00825 -2.97086,4.77635 -4.25829,6.15135 -1.28742,1.375 -3.69306,4.4125 -5.34586,6.75 -1.65279,2.3375 -4.77955,6.05 -6.94836,8.25 -2.1688,2.2 -6.09818,6.70167 -8.73196,10.0037 -7.2485,9.08764 -10.79845,12.13102 -18.64687,15.98602 -7.01338,3.44484 -12.95922,7.02737 -21.19997,12.77355 -8.95121,6.24158 -11.18675,7.28915 -28.46419,13.33823 -19.84034,6.94645 -22.66806,7.81965 -28.64888,8.847 -4.85057,0.8332 -5.83897,0.85015 -18.26243,0.31245 z m -6.47949,-84.29357 c 4.55777,-0.42124 8.08431,-1.76058 13.00225,-4.93816 2.2,-1.42146 5.8845,-3.58454 8.18778,-4.80684 5.29875,-2.81195 12.00726,-8.39551 18.91437,-15.74262 2.96882,-3.15794 7.2761,-7.34648 9.57174,-9.30787 2.29564,-1.96139 6.26237,-6.17745 8.81496,-9.36902 2.55259,-3.19158 8.66184,-9.97042 13.57611,-15.0641 9.77693,-10.13384 13.87152,-15.64891 14.62913,-19.7042 0.26383,-1.41221 0.27726,-6.63046 0.0322,-12.53402 -0.34783,-8.38143 -0.60348,-10.61878 -1.49199,-13.05753 -0.58973,-1.61866 -1.50246,-4.11865 -2.0283,-5.55553 -0.72886,-1.99166 -0.9572,-3.95222 -0.96087,-8.25 -0.003,-3.71369 -0.42979,-8.11156 -1.25017,-12.88749 -0.68495,-3.9875 -1.485,-10.625 -1.77789,-14.75 -0.83475,-11.75649 -5.06006,-34.27064 -6.897,-36.75 -1.35387,-1.82736 -2.37453,-1.79785 -5.24783,0.15172 -2.9975,2.03383 -5.79507,3.46144 -8.49564,4.33534 -1.05783,0.34232 -3.42033,1.66652 -5.25,2.94267 -1.82965,1.27615 -7.14515,4.23277 -11.8122,6.57027 -8.48555,4.25 -8.48555,4.25 -11.87187,8.75 -6.10395,8.11138 -8.45623,9.97897 -15.72576,12.48544 -0.32074,0.11059 -1.50495,1.95911 -2.63156,4.10781 -1.12662,2.14872 -3.95915,6.26925 -6.29451,9.15675 -3.17111,3.92082 -4.45138,5.94624 -5.05683,8 -1.31727,4.46832 -2.49098,6.28409 -5.54607,8.58 -2.04705,1.53836 -3.25839,2.92976 -4.16051,4.77895 -1.60705,3.29418 -3.08297,4.86399 -6.1346,6.5249 -2.15139,1.17093 -2.65251,1.79101 -4.50664,5.57646 -1.98305,4.04864 -2.27697,4.38541 -5.95,6.81737 -2.12514,1.4071 -5.90118,4.52229 -8.39119,6.92267 -3.42799,3.3046 -5.44506,4.80017 -8.30705,6.15932 -5.08217,2.41351 -5.33937,3.04948 -3.24943,8.03458 0.97621,2.32851 1.91929,5.83623 2.38094,8.85575 1.43514,9.38686 2.13929,12.36308 3.71009,15.6814 0.86401,1.82523 2.79513,6.9186 4.29137,11.3186 1.49625,4.4 4.15748,10.97315 5.91384,14.607 3.14379,6.50442 3.30336,6.72178 10.27765,14 3.89636,4.06615 7.45629,7.60977 7.91098,7.87471 1.07929,0.62889 4.92222,1.17507 6.8267,0.97025 0.825,-0.0887 3.07398,-0.30678 4.99775,-0.48458 z m 14.78967,-179.47666 c 2.04192,-0.6926 5.477,-2.28261 7.63351,-3.53336 2.15651,-1.25074 6.24998,-3.02897 9.09661,-3.95163 11.01202,-3.56924 14.18732,-5.91269 21.6952,-16.01166 2.042,-2.74674 5.44984,-6.79407 7.57297,-8.99407 2.12314,-2.2 4.90358,-5.6875 6.17876,-7.75 1.27518,-2.0625 3.1227,-4.875 4.1056,-6.25 1.95468,-2.73444 1.9529,-2.70725 0.7045,-10.75 -0.27746,-1.7875 -0.50898,-4.24496 -0.51452,-5.46102 -0.009,-1.97112 -0.23674,-2.40511 -2.09942,-4 -1.14915,-0.98394 -3.5679,-3.22736 -5.375,-4.98539 -2.72744,-2.65338 -4.55979,-3.82945 -10.78563,-6.92266 -7.29777,-3.62577 -7.58089,-3.7199 -10.5,-3.4909 -2.05426,0.16115 -4.41861,0.87377 -7.5,2.26048 -2.475,1.11383 -6.32859,2.47729 -8.56353,3.02991 -7.64515,1.89041 -9.04044,2.92849 -13.00112,9.67268 -2.43535,4.1469 -2.43535,4.1469 -2.4139,11.8969 0.0169,6.12016 0.2524,8.76817 1.11963,12.5915 0.89361,3.93959 1.12246,6.68731 1.22855,14.75 0.13037,9.9085 0.13037,9.9085 -1.96443,14.4085 -3.16413,6.7971 -4.03154,11.95292 -2.32771,13.83563 1.06062,1.17197 1.27631,1.15895 5.70993,-0.34491 z"
     id="path286"
     inkscape:connector-curvature="0" />
</svg>
