<?xml version="1.0" encoding="UTF-8" standalone="no"?>
<!-- Created with Inkscape (http://www.inkscape.org/) -->

<svg
   xmlns:dc="http://purl.org/dc/elements/1.1/"
   xmlns:cc="http://creativecommons.org/ns#"
   xmlns:rdf="http://www.w3.org/1999/02/22-rdf-syntax-ns#"
   xmlns:svg="http://www.w3.org/2000/svg"
   xmlns="http://www.w3.org/2000/svg"
   xmlns:sodipodi="http://sodipodi.sourceforge.net/DTD/sodipodi-0.dtd"
   xmlns:inkscape="http://www.inkscape.org/namespaces/inkscape"
   version="1.1"
   id="svg4052"
   width="1000"
   height="1000"
   viewBox="0 0 1000 1000"
   sodipodi:docname="fatou_bdc_r.svg"
   inkscape:version="0.92.2 5c3e80d, 2017-08-06">
  <metadata
     id="metadata4058">
    <rdf:RDF>
      <cc:Work
         rdf:about="">
        <dc:format>image/svg+xml</dc:format>
        <dc:type
           rdf:resource="http://purl.org/dc/dcmitype/StillImage" />
        <dc:title></dc:title>
      </cc:Work>
    </rdf:RDF>
  </metadata>
  <defs
     id="defs4056" />
  <sodipodi:namedview
     pagecolor="#ffffff"
     bordercolor="#666666"
     borderopacity="1"
     objecttolerance="10"
     gridtolerance="10"
     guidetolerance="10"
     inkscape:pageopacity="0"
     inkscape:pageshadow="2"
     inkscape:window-width="1027"
     inkscape:window-height="480"
     id="namedview4054"
     showgrid="false"
     inkscape:zoom="0.19666667"
     inkscape:cx="564"
     inkscape:cy="600"
     inkscape:window-x="0"
     inkscape:window-y="0"
     inkscape:window-maximized="0"
     inkscape:current-layer="svg4052" />
  <path
     style="fill:#000000;stroke-width:0.5"
     d="m 557.81355,881.15589 c -1.5125,-0.20105 -5,-1.0549 -7.75,-1.89745 -2.75,-0.84255 -6.07101,-1.80345 -7.38002,-2.1353 -2.63932,-0.6691 -6.42605,-3.6618 -7.66504,-6.05775 -0.41885,-0.80995 -2.38005,-3.0946 -4.35824,-5.07695 -1.97818,-1.9824 -5.3967,-5.93885 -7.5967,-8.79215 -2.2,-2.85325 -4.61896,-5.8544 -5.37547,-6.66915 -3.23767,-3.48692 -3.92891,-4.66171 -5.16609,-8.77982 -0.71791,-2.38963 -2.61856,-6.83083 -4.22367,-9.86933 -3.55794,-6.73525 -4.80375,-11.24185 -5.72938,-20.72545 -0.38919,-3.9875 -1.05586,-8.51687 -1.48149,-10.06525 -0.67093,-2.44077 -0.71158,-4.86839 -0.30558,-18.25 0.40343,-13.29713 0.64021,-16.26572 1.70969,-21.43475 1.7393,-8.40649 3.27605,-17.29496 3.80364,-22 0.2467,-2.2 1.10944,-5.8 1.91721,-8 0.80777,-2.2 1.73568,-5.575 2.06202,-7.5 0.74994,-4.42379 7.3978,-24.24137 10.56675,-31.5 1.32065,-3.025 3.21593,-7.86032 4.21175,-10.74516 0.99582,-2.88483 2.46217,-6.26056 3.25855,-7.50161 2.08763,-3.25329 3.7982,-7.33228 5.26978,-12.5662 0.70812,-2.51857 1.8258,-5.6415 2.48372,-6.93985 0.65792,-1.29835 1.91186,-4.47261 2.78653,-7.05391 0.87466,-2.5813 2.09802,-5.70577 2.71856,-6.94327 0.62055,-1.2375 2.64902,-6.8625 4.50771,-12.5 1.8587,-5.6375 3.81806,-11.2625 4.35416,-12.5 2.62235,-6.05334 4.40136,-23.49235 2.62984,-25.77944 -0.73601,-0.95019 -0.7732,-0.94433 -1.77249,0.27944 -1.72667,2.11453 -7.18634,10.07884 -9.16806,13.37392 -1.03332,1.71816 -3.35554,4.98066 -5.16048,7.25 -1.80494,2.26934 -4.64371,6.15108 -6.30835,8.62608 -1.66465,2.475 -4.07839,5.625 -5.36386,7 -1.28547,1.375 -5.62347,7.45495 -9.64,13.51101 -4.01652,6.05605 -8.3361,12.22159 -9.59906,13.70119 -1.26297,1.4796 -2.87431,3.83714 -3.58077,5.23899 -2.28364,4.53148 -5.68054,9.47745 -8.61852,12.54881 -1.57835,1.65 -3.6274,4.0125 -4.55343,5.25 -0.92604,1.2375 -2.41821,3.08567 -3.31594,4.10705 -0.89772,1.02137 -2.17819,2.93387 -2.84548,4.25 -0.66728,1.31612 -2.55198,3.99087 -4.18821,5.94388 -1.63623,1.95301 -4.38253,5.88093 -6.10288,8.72871 -4.59288,7.60283 -10.50973,15.09978 -16.07465,20.36742 -2.70013,2.55588 -6.32609,6.65345 -8.05769,9.1057 -5.68942,8.05723 -10.38725,13.86797 -12.78691,15.81609 -3.78503,3.07281 -11.14957,10.10255 -13.86145,13.23129 -2.91012,3.35746 -9.01635,8.72955 -15.75,13.85638 -10.10474,7.69351 -11.3932,8.72544 -16,12.81429 -5.87775,5.21693 -7.24932,6.25858 -17.37523,13.19592 -9.82497,6.73116 -11.37085,7.53773 -18.26173,9.52815 -2.96282,0.8558 -6.90032,2.25052 -8.75,3.09937 -1.84967,0.84885 -6.28804,2.65374 -9.86304,4.01087 -3.575,1.35714 -8.01791,3.3447 -9.87314,4.41681 -4.28856,2.4783 -5.61718,2.86924 -11.11596,3.27087 -2.46901,0.18033 -6.74401,0.88851 -9.5,1.57373 -4.47697,1.11309 -6.6077,1.29337 -19.99692,1.69189 -9.84176,0.29294 -15.76318,0.27389 -17.25,-0.0555 -3.23346,-0.71628 -5.72162,-2.5333 -6.95341,-5.07782 -1.05306,-2.17534 -1.06057,-2.46798 -1.06057,-41.31158 0,-26.53997 0.175,-39.81571 0.54416,-41.28179 0.71344,-2.83334 2.90326,-5.42505 5.74691,-6.80164 1.92543,-0.93208 2.79062,-1.05862 5.40619,-0.79064 4.5542,0.46659 12.77941,-0.52874 18.00408,-2.17865 2.50176,-0.79005 7.01546,-1.92702 10.03044,-2.52661 6.65644,-1.32377 7.22954,-1.53141 11.02086,-3.99283 3.99376,-2.59286 6.33212,-3.35783 12.8889,-4.21643 4.44162,-0.58162 5.91465,-0.99118 7.63496,-2.12281 3.59817,-2.36692 9.81259,-7.22709 13.08322,-10.23214 1.71034,-1.57146 4.70318,-3.80385 6.65075,-4.96089 1.94758,-1.15703 4.32444,-3.05973 5.28194,-4.22822 1.05171,-1.28347 3.10603,-2.8419 5.18926,-3.9366 2.19079,-1.15123 4.04959,-2.5838 5.09693,-3.92819 2.44852,-3.14294 15.37923,-16.01633 21.6714,-21.57532 5.92244,-5.23235 20.41338,-20.0712 32.5,-33.28026 11.27745,-12.32475 11.4685,-12.55201 13.03961,-15.51053 0.80322,-1.5125 2.61631,-3.875 4.02911,-5.25 1.41279,-1.375 3.42402,-3.85 4.46939,-5.5 1.04537,-1.65 3.21628,-4.6875 4.82424,-6.75 1.60796,-2.0625 4.32173,-5.54761 6.0306,-7.74468 1.70888,-2.19707 4.25649,-5.23457 5.66136,-6.75 3.07726,-3.31942 7.58252,-10.39115 11.10577,-17.43228 1.91101,-3.81912 4.16689,-7.12572 8.60086,-12.6069 6.67782,-8.25497 14.42681,-18.88821 15.89538,-21.8118 0.52613,-1.04739 1.34873,-3.1028 1.82802,-4.56758 0.61276,-1.87271 1.74233,-3.59424 3.80542,-5.79969 2.43129,-2.59906 3.67131,-4.67 7.23721,-12.08676 4.30322,-8.95031 4.30322,-8.95031 4.1342,-12.46059 -0.16458,-3.41817 -0.26478,-3.65433 -3.81858,-9 -5.66637,-8.52343 -8.59255,-14.75539 -9.11476,-19.412 -0.3497,-3.11824 -0.78181,-4.41949 -2.26622,-6.82442 -1.5121,-2.4498 -1.90386,-3.65468 -2.23126,-6.86241 -0.21843,-2.13999 -0.86586,-5.57387 -1.43874,-7.63084 -0.57289,-2.05697 -1.04161,-4.76149 -1.04161,-6.01005 0,-1.24856 -0.45952,-3.92832 -1.02114,-5.95502 -1.61663,-5.83381 -2.03331,-10.3562 -1.2729,-13.81552 1.55937,-7.09408 4.34098,-16.99211 5.46555,-19.44848 1.75282,-3.82868 8.27316,-12.75918 10.32849,-14.14631 5.29797,-3.57556 10.11574,-6.41553 16.45148,-9.69779 6.42341,-3.32769 7.35122,-3.66845 9.94156,-3.65131 3.74,0.0247 6.02476,1.24402 10.95942,5.84853 2.14365,2.00022 6.14754,5.42426 8.89754,7.60897 6.15564,4.89029 7.33271,6.14468 9.62475,10.25693 3.59991,6.45876 7.84894,12.32297 11.59315,16 3.11212,3.05628 4.3824,4.8137 6.86676,9.5 1.67654,3.1625 3.58085,7.42736 4.2318,9.47746 0.94114,2.96403 1.72162,4.30948 3.81074,6.56921 3.29428,3.56331 3.88414,4.9909 4.62222,11.18694 0.66259,5.56231 0.43881,7.94723 -1.01267,10.79236 -1.33087,2.60873 -1.2462,3.9295 0.47021,7.33408 2.46754,4.89447 2.68821,6.47696 2.32042,16.63995 -0.38423,10.61733 -0.0493,13.12977 2.43337,18.25 2.13398,4.4012 7.51318,20.44486 8.2829,24.70409 0.3234,1.7895 1.48498,4.98211 2.63103,7.23136 1.99377,3.91298 2.06212,4.21225 2.40898,10.54591 0.39427,7.19925 0.63325,8.08164 3.19892,11.81147 0.97208,1.41316 1.79885,3.05038 1.83727,3.63827 0.0384,0.5879 0.1228,9.3939 0.18753,19.5689 0.0647,10.175 0.22604,24.0125 0.35849,30.75 0.19842,10.09365 0.076,13.52621 -0.69554,19.5 -1.27762,9.89242 -1.88001,13.12529 -3.25223,17.45411 -0.6458,2.03727 -1.40135,5.18727 -1.67899,7 -0.32223,2.10388 -1.30776,4.92339 -2.72501,7.79589 -1.22358,2.47998 -3.10367,7.64226 -4.18828,11.5 -1.93369,6.87781 -4.5783,14.0528 -6.63456,18 -0.57303,1.1 -1.49847,2.85625 -2.05653,3.90278 -0.61602,1.15521 -1.18327,3.5663 -1.44383,6.13702 -0.23605,2.32885 -0.83966,5.07259 -1.34134,6.09723 -1.58149,3.23001 -5.67037,10.29616 -6.94175,11.9963 -0.67178,0.89833 -1.67965,2.69834 -2.23972,4 -0.56007,1.30167 -1.88609,4.27917 -2.94671,6.61667 -1.06062,2.3375 -2.29112,5.825 -2.73444,7.75 -0.44331,1.925 -1.57651,5.21255 -2.51821,7.30567 -0.94169,2.09312 -2.07799,5.58063 -2.5251,7.75 -0.44711,2.16938 -1.25925,5.06933 -1.80475,6.44433 -1.10827,2.79352 -3.85615,15.1175 -4.24652,19.04521 -0.22822,2.29633 -0.12579,2.64525 1.04751,3.56816 2.71297,2.13403 15.08864,2.67999 21.58319,0.95216 3.06073,-0.81428 4.04988,-1.31051 8.22694,-4.12727 2.45124,-1.65296 4.17165,-2.3797 7,-2.95693 4.42189,-0.90245 15.39615,-4.43847 18.25,-5.88033 2.81792,-1.42371 12.78832,-5.46345 20.75,-8.40735 8.37286,-3.09593 27.13608,-12.31268 31.5,-15.47321 5.35344,-3.87719 11.45004,-7.70099 16.75,-10.50564 2.75,-1.45524 8.15,-4.70793 12,-7.22818 3.85,-2.52025 8.125,-5.21802 9.5,-5.99505 7.21211,-4.07563 26.1299,-17.15613 30.00685,-20.7479 5.54685,-5.13886 8.10415,-5.72896 11.70325,-2.70054 3.09215,2.60191 3.0473,1.82863 2.91215,50.20687 -0.146,52.25544 0.89495,46.4058 -9.77075,54.90649 -7.89825,6.29497 -19.44768,13.85011 -25.6015,16.74736 -2.3375,1.10051 -6.1625,3.27569 -8.5,4.83373 -8.2181,5.47772 -24.33117,14.9306 -31.92831,18.73103 -4.86816,2.43529 -8.52802,4.62954 -10,5.99544 -3.16919,2.9408 -4.74605,3.64545 -9.09369,4.06385 -3.95417,0.38055 -8.43565,1.8518 -16.978,5.57385 -4.94617,2.1551 -7.90794,2.9809 -25.5,7.11 -3.7125,0.87135 -8.1,2.1626 -9.75,2.8694 -10.10654,4.3292 -11.08881,4.64625 -16.02334,5.17215 -2.73717,0.2917 -7.20174,0.97275 -9.92128,1.5135 -3.92818,0.7811 -6.8061,0.9697 -14,0.91765 -4.98046,-0.036 -10.29288,-0.23005 -11.80538,-0.4311 z"
     id="path4062"
     inkscape:connector-curvature="0" />
</svg>
