<?xml version="1.0" encoding="UTF-8" standalone="no"?>
<!-- Created with Inkscape (http://www.inkscape.org/) -->

<svg
   xmlns:dc="http://purl.org/dc/elements/1.1/"
   xmlns:cc="http://creativecommons.org/ns#"
   xmlns:rdf="http://www.w3.org/1999/02/22-rdf-syntax-ns#"
   xmlns:svg="http://www.w3.org/2000/svg"
   xmlns="http://www.w3.org/2000/svg"
   xmlns:sodipodi="http://sodipodi.sourceforge.net/DTD/sodipodi-0.dtd"
   xmlns:inkscape="http://www.inkscape.org/namespaces/inkscape"
   version="1.1"
   id="svg4232"
   width="1000"
   height="1000"
   viewBox="0 0 1000 1000"
   sodipodi:docname="fatou_bdc_n2.svg"
   inkscape:version="0.92.2 5c3e80d, 2017-08-06">
  <metadata
     id="metadata4238">
    <rdf:RDF>
      <cc:Work
         rdf:about="">
        <dc:format>image/svg+xml</dc:format>
        <dc:type
           rdf:resource="http://purl.org/dc/dcmitype/StillImage" />
        <dc:title></dc:title>
      </cc:Work>
    </rdf:RDF>
  </metadata>
  <defs
     id="defs4236" />
  <sodipodi:namedview
     pagecolor="#ffffff"
     bordercolor="#666666"
     borderopacity="1"
     objecttolerance="10"
     gridtolerance="10"
     guidetolerance="10"
     inkscape:pageopacity="0"
     inkscape:pageshadow="2"
     inkscape:window-width="1027"
     inkscape:window-height="480"
     id="namedview4234"
     showgrid="false"
     inkscape:zoom="0.13569421"
     inkscape:cx="669.61751"
     inkscape:cy="600"
     inkscape:window-x="232"
     inkscape:window-y="0"
     inkscape:window-maximized="0"
     inkscape:current-layer="svg4232" />
  <path
     style="fill:#000000;stroke-width:0.5"
     d="m 438.37528,862.80043 c -1.375,-0.2455 -3.48769,-0.79495 -4.69489,-1.2209 -2.9916,-1.05565 -12.28132,-6.2052 -18.05511,-10.0085 -2.6125,-1.7209 -6.50344,-4.0843 -8.64653,-5.252 -2.14308,-1.1677 -5.40558,-3.32275 -7.25,-4.78905 -1.8444,-1.46625 -6.05347,-4.7545 -9.35347,-7.30715 -3.3,-2.55265 -8.475,-6.98733 -11.5,-9.85483 -3.025,-2.8675 -7.54595,-6.72939 -10.04656,-8.58197 -4.27029,-3.16366 -4.68638,-3.63747 -6.8473,-7.79719 -2.63738,-5.07691 -10.35662,-14.22061 -18.93474,-22.42886 -5.1988,-4.97463 -5.23215,-5.0217 -6.57247,-9.27674 -1.00186,-3.18059 -2.19052,-5.48735 -4.63761,-9 -1.80976,-2.59779 -4.03622,-6.18576 -4.9477,-7.97326 -0.91147,-1.7875 -2.6926,-4.99843 -3.95806,-7.1354 -2.89312,-4.88559 -3.32103,-5.88754 -6.56198,-15.3646 -3.82072,-11.17237 -7.36829,-20.28044 -9.66217,-24.80665 -1.59449,-3.14621 -3.46009,-5.50999 -9.22893,-11.69335 -7.80761,-8.36864 -11.01891,-11.04318 -13.3386,-11.10913 -2.12477,-0.0604 -2.85719,0.75883 -5.45001,6.09609 -2.57073,5.29179 -2.27538,4.96654 -17.26564,19.01304 -5.87953,5.50937 -10.66659,10.49057 -12.92549,13.44969 -4.2824,5.60986 -5.79569,6.77499 -12.44199,9.57954 -4.52239,1.90831 -5.58078,2.61779 -9.74977,6.53564 -5.88895,5.5342 -9.07225,7.69278 -16.78022,11.37858 -4.73516,2.26427 -7.01382,3.71231 -9.90076,6.2917 -2.73273,2.44161 -5.28653,4.10356 -9.4142,6.12652 -3.11531,1.5268 -9.19031,5.13829 -13.5,8.02554 -9.27044,6.21065 -11.01949,7.06847 -18.5858,9.11537 -7.01999,1.89912 -9.04066,3.04021 -13.37133,7.55088 -3.78715,3.94456 -6.42832,5.40411 -14.37867,7.94582 -3.91806,1.2526 -6.35258,1.68342 -11.25072,1.99097 -3.67266,0.2306 -7.02311,0.71521 -8.12345,1.17495 -1.03,0.43037 -3.56398,2.38325 -5.63106,4.33976 -5.23283,4.95288 -6.799023,5.56181 -13.852543,5.38582 -5.64223,-0.14078 -5.64223,-0.14078 -8.64223,1.67783 -4.174045,2.53032 -6.804135,3.31046 -13.99904,4.15239 -5.861035,0.68584 -6.73868,0.94211 -14.387775,4.20106 -10.649785,4.53743 -13.88005,5.50049 -21.20067,6.32064 -4.66465,0.5226 -7.118835,1.08925 -10.5,2.4244 -5.7028,2.25185 -6.794675,2.4705 -9.158515,1.834 -2.50124,-0.67355 -4.7505099,-2.57105 -6.1509249,-5.189 -1.103075,-2.0621 -1.103075,-2.0621 -1.268015,-43.0621 -0.09071,-22.55 -0.190285,-42.8 -0.22127,-45 -0.0465,-3.30025 0.1652,-4.48108 1.21002,-6.75 0.696495,-1.5125 1.87697,-3.47192 2.623275,-4.35427 1.9995649,-2.36406 11.8810499,-6.99886 18.0529149,-8.46752 3.509935,-0.83523 6.937085,-2.15165 11.5,-4.41733 7.164745,-3.5576 9.98629,-4.25069 17.330455,-4.2571 5.45457,-0.005 9.56606,-1.23167 13.06274,-3.89806 3.646675,-2.78077 5.010765,-3.37887 9.856805,-4.32185 2.88846,-0.56207 5.855635,-1.62271 9.26195,-3.31076 3.73597,-1.85143 6.15454,-2.6824 9.5,-3.26399 2.468433,-0.42912 5.401683,-1.18272 6.518333,-1.67466 1.11666,-0.49193 6.09106,-3.60768 11.05422,-6.92388 4.96317,-3.3162 11.02455,-7.03934 13.46972,-8.27366 2.44518,-1.23431 6.13328,-3.60497 8.19578,-5.26811 2.0625,-1.66315 6.16875,-4.38401 9.125,-6.04636 2.95625,-1.66235 7.84906,-4.40932 10.87293,-6.10438 3.99899,-2.24169 6.8522,-4.33611 10.46526,-7.68214 2.73203,-2.5301 6.05172,-5.22622 7.37707,-5.99135 4.49239,-2.59348 6.98816,-4.69971 10.19323,-8.6023 1.75814,-2.14075 4.81008,-5.7502 6.7821,-8.02098 3.80886,-4.38592 14.41676,-19.63967 16.45448,-23.66092 3.1652,-6.24622 6.10548,-15.82064 7.20462,-23.46038 0.29674,-2.0625 0.86696,-7.8229 1.26716,-12.80089 0.54152,-6.73582 1.04997,-10.07127 1.98781,-13.04005 0.69309,-2.19403 1.4868,-6.22113 1.7638,-8.9491 0.277,-2.72798 0.98295,-7.08593 1.56878,-9.68435 0.8119,-3.60119 1.00597,-5.74089 0.81629,-9 -0.30042,-5.16211 -0.97665,-6.88998 -4.22338,-10.79132 -4.0543,-4.87173 -4.94606,-7.32861 -4.097,-11.28762 0.45276,-2.11115 1.30595,-3.56446 6.84678,-11.66253 1.30858,-1.91252 1.34507,-2.16346 1.34507,-9.25 0,-6.02332 0.15307,-7.56424 0.88435,-8.90239 1.42525,-2.60803 3.82698,-5.06972 7.07842,-7.25513 1.67047,-1.12278 5.17473,-4.09998 7.78723,-6.61601 2.6125,-2.51602 5.3125,-4.92136 6,-5.3452 1.67719,-1.03397 14.60278,-5.72889 17.79858,-6.46492 3.70652,-0.85364 6.69419,-0.20892 12.04711,2.59972 2.91046,1.52709 6.83731,3.0471 10.30354,3.98829 6.88658,1.86994 7.84752,2.40638 16.67592,9.30933 4.55473,3.56135 9.09672,6.59514 12.75,8.51627 15.26302,8.02629 16.99477,9.34208 18.86128,14.33077 0.59433,1.58848 1.53506,5.73822 2.09051,9.22164 0.55545,3.48342 1.78873,8.75224 2.74062,11.70848 0.95189,2.95625 2.07949,7.56875 2.50578,10.25 0.42629,2.68125 1.00469,5.77501 1.28533,6.87501 0.57303,2.24609 6.66186,14.80918 10.45193,21.56551 1.36818,2.43897 3.08088,6.23449 3.80601,8.43449 0.72513,2.2 2.38823,6.025 3.69578,8.5 1.30755,2.475 2.76928,5.7375 3.2483,7.25 0.47901,1.5125 1.85449,4.91271 3.05662,7.55603 1.29357,2.84439 2.68027,7.04215 3.39742,10.28451 2.27957,10.30634 14.33357,34.29807 22.06114,43.90946 0.8844,1.1 2.55587,3.575 3.71437,5.5 1.15851,1.925 3.2487,4.67163 4.64486,6.10361 1.39617,1.43199 3.23068,3.89316 4.0767,5.46927 0.84601,1.57612 1.80737,2.95047 2.13635,3.05411 0.78442,0.24713 2.02999,-2.26185 5.07139,-10.21541 2.73231,-7.14529 4.24269,-10.33113 6.78103,-14.30322 0.91677,-1.4346 2.73614,-4.74586 4.04306,-7.35836 1.30692,-2.6125 3.9193,-7.3375 5.8053,-10.5 1.886,-3.1625 4.88116,-9.17192 6.65591,-13.35426 1.77476,-4.18234 4.12293,-9.1386 5.21817,-11.01392 2.4218,-4.14668 4.04386,-7.75883 5.56193,-12.38578 1.34266,-4.09234 13.39341,-28.72636 16.88456,-34.51526 1.3204,-2.18943 4.67485,-7.01828 7.4544,-10.73078 5.3261,-7.11387 6.5004,-9.10372 7.90345,-13.39226 0.47545,-1.45324 2.16005,-4.60324 3.7435,-7 4.0231,-6.08939 7.33335,-11.95341 8.83785,-15.65612 1.8449,-4.54028 3.58475,-6.82433 8.983,-11.79279 2.63465,-2.42486 5.9095,-6.04869 7.2774,-8.05296 1.36795,-2.00428 3.9542,-5.04178 5.7472,-6.75 3.95785,-3.77072 13.62415,-14.42459 16.5963,-18.29192 1.18945,-1.54767 2.97525,-4.27645 3.96845,-6.06395 2.7496,-4.94862 3.8416,-6.1836 8.01875,-9.06845 2.1176,-1.4625 6.4377,-5.32505 9.6002,-8.58344 3.63145,-3.74157 7.28495,-6.93985 9.91605,-8.68054 2.29135,-1.5159 6.15415,-4.54074 8.58405,-6.72186 3.3731,-3.02781 5.52145,-4.47952 9.08395,-6.13841 2.56625,-1.19501 7.70345,-4.04346 11.41595,-6.32989 5.98135,-3.68377 15.32985,-8.35405 23.5,-11.74005 1.5125,-0.62683 5.1125,-1.50628 8,-1.95432 4.14945,-0.64386 6.29815,-1.30596 10.25,-3.15839 4.01925,-1.88403 5.6544,-2.38194 8.3364,-2.53844 3.0725,-0.1793 3.7008,-0.0268 7.94475,1.92814 3.9898,1.83788 5.8976,2.34336 14.21245,3.7657 5.2822,0.90357 10.48205,2.00721 11.5552,2.45253 1.07315,0.44532 3.5262,2.34531 5.4512,4.22219 1.925,1.87688 5.75,4.88053 8.5,6.67476 11.77025,7.67947 12.52695,9.14803 13.9751,27.12047 0.5582,6.92763 1.01465,9.84295 1.98245,12.66081 0.69145,2.01346 1.4001,5.38846 1.5747,7.5 0.5175,6.25788 1.5298,9.72958 4.65455,15.96311 4.7852,9.54587 5.2188,11.88611 3.7523,20.25086 -0.6732,3.83976 -0.73815,6.15359 -0.38245,13.62522 0.65455,13.74789 0.48405,24.85311 -0.45285,29.5 -2.1924,10.87374 -2.35255,31.22496 -0.3198,40.63224 1.5044,6.96211 2.29135,19.34214 1.5209,23.92708 -0.4965,2.95484 -0.5053,4.10337 -0.04,5.22655 0.83595,2.01817 14.1264,12.96767 18.44295,15.19445 3.9092,2.01663 10.24475,-0.40961 18.59395,-7.12068 2.64095,-2.12281 6.1732,-4.91922 7.84945,-6.21427 1.6762,-1.29505 4.73635,-4.47575 6.80025,-7.06824 2.0639,-2.59248 5.4997,-6.25791 7.63515,-8.14537 2.13545,-1.88747 6.58955,-6.13176 9.898,-9.43176 3.8354,-3.82558 7.012,-6.52598 8.7654,-7.45135 5.0091,-2.64361 7.3035,-4.67128 10.39775,-9.18901 2.52105,-3.68086 3.51285,-4.68024 6.2105,-6.25787 4.4535,-2.6045 5.72315,-3.80561 10.74685,-10.16665 6.3564,-8.04858 19.261,-21.74752 23.8076,-25.27317 2.2881,-1.77429 5.8458,-5.34429 8.5684,-8.59802 2.5606,-3.06016 5.48565,-6.35143 6.5001,-7.31393 1.0144,-0.9625 2.99165,-3.325 4.3938,-5.25 3.5472,-4.86992 5.6472,-7.02569 9.125,-9.36736 3.66795,-2.4697 4.2447,-3.14297 6.7524,-7.88264 1.09125,-2.0625 3.26195,-5.2125 4.8238,-7 1.56185,-1.7875 4.54235,-5.3875 6.62325,-8 2.08095,-2.6125 5.4419,-6.55 7.46875,-8.75 2.0269,-2.2 5.11685,-5.9125 6.86655,-8.25 1.7497,-2.3375 6.1534,-7.06033 9.78605,-10.49517 11.47215,-10.84761 15.2876,-15.95297 16.7192,-22.37156 0.99955,-4.48137 2.69,-6.90336 6.7361,-9.651 3.243,-2.20228 4.4739,-4.13731 4.4739,-7.0332 0,-3.89422 0.9944,-5.46974 7.7361,-12.25694 7.0178,-7.06518 8.08465,-7.68285 11.6236,-6.72991 4.6271,1.24595 8.4535,6.75441 9.9248,14.28778 1.75915,9.00714 2.74875,12.42768 5.1923,17.94761 1.41055,3.18632 3.10005,7.2016 3.75455,8.92285 0.65445,1.72125 2.6504,6.16704 4.4355,9.87954 1.78509,3.7125 4.30529,9.45 5.60049,12.75 3.148,8.02064 4.3403,10.30433 7.7469,14.83819 1.5862,2.111 3.15553,4.66103 3.48743,5.66672 0.708,2.14527 0.4566,7.01344 -0.697,13.49509 -0.44043,2.475 -0.80253,6.1875 -0.80463,8.25 0,2.94282 -0.2333,4.12668 -1.0701,5.5 -1.3245,2.17365 -1.9706,2.6441 -7.8963,5.75 -4.3566,2.28349 -5.08844,2.8897 -8.44979,7 -4.52305,5.53083 -5.2839,7.16406 -6.289,13.5 -1.22775,7.73963 -3.6037,16.66195 -4.998,18.76887 -0.6866,1.03757 -2.9642,3.53904 -5.0613,5.55881 -2.7792,2.67678 -4.36095,4.7253 -5.8347,7.55652 -1.55585,2.98891 -2.86515,4.63896 -5.6805,7.15868 -3.19325,2.85794 -3.83205,3.72816 -5.02145,6.84089 -1.5222,3.98352 -4.31335,7.39412 -7.29665,8.91611 -1.041,0.53107 -3.78295,1.64955 -6.0932,2.48549 -6.72175,2.43222 -8.37075,3.71943 -10.83665,8.45926 -1.5633,3.00483 -2.84755,4.69009 -4.88895,6.41538 -5.77935,4.88454 -7.2914,6.44634 -9.71135,10.03106 -1.37045,2.03008 -4.4663,5.65999 -6.87965,8.06645 -2.41335,2.40646 -4.5043,4.79548 -4.6465,5.30893 -0.14225,0.51345 -0.516,2.05855 -0.8305,3.43355 -0.9837,4.30029 -1.8427,4.92344 -11.039,8.0079 -7.83555,2.62806 -8.9087,3.46837 -10.7896,8.4486 -1.749,4.63105 -2.5901,5.76824 -6.75575,9.13394 -2.31395,1.86957 -4.4891,4.28447 -6.4884,7.20355 -2.5939,3.78719 -3.63925,4.82345 -7.60015,7.53423 -2.6169,1.79098 -6.5284,5.16004 -9.09255,7.83166 -2.475,2.57871 -6.4255,6.103 -8.77895,7.83175 -5.15375,3.78579 -7.1249,5.70424 -9.25475,9.00735 -2.80845,4.35543 -4.14475,5.32303 -10.61005,7.68258 -4.90575,1.79036 -7.80185,3.71892 -10.5955,7.05558 -2.57455,3.07506 -7.3839,5.52813 -13.26075,6.76387 -2.2,0.4626 -7.9719,2.17041 -12.82645,3.79515 -8.82645,2.95406 -8.82645,2.95406 -18.75,3.02742 -7.62685,0.0564 -10.90715,-0.12527 -14.17355,-0.78487 -2.7179,-0.54885 -8.5759,-1.01671 -16.25,-1.29785 -8.35435,-0.30606 -14.6122,-0.83101 -20.59825,-1.72797 -9.384,-1.40611 -10.71445,-1.7747 -15.98385,-4.42834 -1.9486,-0.9813 -5.55245,-2.34919 -8.0086,-3.03975 -2.4561,-0.69057 -6.4255,-2.07598 -8.82085,-3.0787 -3.84435,-1.60929 -4.75005,-2.25127 -7.7218,-5.47365 -1.85165,-2.0078 -5.5122,-5.44079 -8.1345,-7.62887 -6.2532,-5.21771 -8.53325,-7.81873 -14.0514,-16.02949 -5.6959,-8.47523 -10.05065,-13.68255 -15.9556,-19.07944 -5.46095,-4.99114 -6.6438,-6.74511 -8.0025,-11.86636 -1.50335,-5.66667 -1.82015,-6.36685 -5.49205,-12.13829 -5.4632,-8.58693 -5.60865,-8.99506 -6.77175,-19 -0.55455,-4.77066 -1.16,-7.62971 -2.06455,-9.75 -2.47185,-5.79376 -4.04515,-11.07352 -5.6578,-18.98676 -1.6207,-7.95267 -1.626,-8.02738 -1.2486,-17.5 0.4785,-12.00835 0.43435,-13.66717 -0.4857,-18.26324 -0.4129,-2.0625 -0.9198,-5.98183 -1.12645,-8.70963 -0.2362,-3.11735 -0.59865,-5.03344 -0.97575,-5.15834 -1.0133,-0.33557 -4.98115,3.75474 -8.0037,8.25075 -3.0912,4.59818 -5.6659,6.92365 -10.91685,9.86014 -1.83465,1.02601 -4.1556,2.71067 -5.1576,3.74371 -2.12335,2.18907 -6.3479,9.73737 -8.2626,14.76337 -2.2812,5.98812 -4.1231,9.39021 -6.743,12.45455 -1.3893,1.62501 -3.357,4.53596 -4.37265,6.46879 -1.15665,2.20103 -3.1501,4.81764 -5.3347,7.00223 -5.42125,5.42126 -6.1426,7.40121 -8.8194,24.2065 -0.7068,4.43738 -1.47945,7.27014 -2.79575,10.25 -1.0005,2.26486 -2.4775,6.01756 -3.2823,8.33934 -0.80475,2.32177 -2.38105,5.74049 -3.50285,7.59715 -1.12185,1.85665 -2.95465,6.02785 -4.073,9.26933 -1.74685,5.06337 -2.0897,6.76328 -2.4337,12.06732 -0.43045,6.63686 -0.8278,8.32228 -2.9736,12.61241 -2.1642,4.32696 -3.4014,9.2158 -3.9812,15.73238 -0.58885,6.61789 -1.32945,10.23638 -3.1725,15.5 -0.674,1.925 -1.47955,5.1875 -1.79,7.25 -0.71825,4.77138 -3.17405,14.05457 -4.8668,18.39698 -1.15955,2.97448 -1.35005,4.36908 -1.6875,12.35302 -0.41705,9.8668 -2.37635,26.60852 -4.2131,36 -1.0601,5.42029 -2.46015,10.13704 -10.7732,36.29555 -1.3626,4.28755 -3.0369,10.16339 -3.7207,13.05742 -1.6882,7.14473 -3.981,13.29658 -6.24725,16.76213 -5.28925,8.08835 -15.3957,15.41655 -26.77605,19.4153 -2.88258,1.0129 -14.34131,1.4527 -18.5,0.71005 z"
     id="path4242"
     inkscape:connector-curvature="0" />
</svg>
