<?xml version="1.0" encoding="UTF-8" standalone="no"?>
<!-- Created with Inkscape (http://www.inkscape.org/) -->

<svg
   xmlns:dc="http://purl.org/dc/elements/1.1/"
   xmlns:cc="http://creativecommons.org/ns#"
   xmlns:rdf="http://www.w3.org/1999/02/22-rdf-syntax-ns#"
   xmlns:svg="http://www.w3.org/2000/svg"
   xmlns="http://www.w3.org/2000/svg"
   xmlns:sodipodi="http://sodipodi.sourceforge.net/DTD/sodipodi-0.dtd"
   xmlns:inkscape="http://www.inkscape.org/namespaces/inkscape"
   version="1.1"
   id="svg440"
   width="1000"
   height="1000"
   viewBox="0 0 1000 1000"
   sodipodi:docname="fatou_bdc_e.svg"
   inkscape:version="0.92.2 5c3e80d, 2017-08-06">
  <metadata
     id="metadata446">
    <rdf:RDF>
      <cc:Work
         rdf:about="">
        <dc:format>image/svg+xml</dc:format>
        <dc:type
           rdf:resource="http://purl.org/dc/dcmitype/StillImage" />
        <dc:title></dc:title>
      </cc:Work>
    </rdf:RDF>
  </metadata>
  <defs
     id="defs444" />
  <sodipodi:namedview
     pagecolor="#ffffff"
     bordercolor="#666666"
     borderopacity="1"
     objecttolerance="10"
     gridtolerance="10"
     guidetolerance="10"
     inkscape:pageopacity="0"
     inkscape:pageshadow="2"
     inkscape:window-width="1268"
     inkscape:window-height="713"
     id="namedview442"
     showgrid="false"
     inkscape:zoom="0.27419881"
     inkscape:cx="374.8774"
     inkscape:cy="600"
     inkscape:window-x="0"
     inkscape:window-y="0"
     inkscape:window-maximized="0"
     inkscape:current-layer="svg440" />
  <path
     style="fill:#000000;stroke-width:0.5"
     d="m 631.93674,871.12252 c -0.18615,-0.1861 -10.4049,-0.35485 -22.70834,-0.375 -20.32315,-0.033 -22.57578,-0.1189 -24.61991,-0.93665 -2.82242,-1.12905 -8.22302,-1.6951 -22.5,-2.3582 -6.1875,-0.2874 -13.8375,-0.8659 -17,-1.2855 -3.1625,-0.41965 -6.65,-0.8833 -7.75,-1.0304 -2.40647,-0.32175 -15.51643,-3.77385 -20.75171,-5.46435 -2.38201,-0.76915 -4.9376,-1.21285 -7,-1.21525 -1.78656,0 -5.16079,-0.22055 -7.49829,-0.4855 -3.79389,-0.43005 -5.00124,-0.85795 -11.25,-3.9872 -3.85,-1.928 -8.4625,-3.8516 -10.25,-4.27467 -7.09262,-1.6787 -6.0154,-1.29043 -21,-7.56909 -3.1625,-1.32511 -8.3375,-3.74083 -11.5,-5.36827 -3.1625,-1.62744 -8.1875,-4.04804 -11.16667,-5.37911 -4.09061,-1.82766 -6.18676,-3.12545 -8.56233,-5.30124 -1.92826,-1.76611 -5.27255,-4.00747 -8.64145,-5.79155 -5.97375,-3.16355 -8.14188,-5.06335 -11.31714,-9.91657 -1.50473,-2.2999 -3.02695,-3.81965 -5.56673,-5.55771 -1.92263,-1.31572 -6.57147,-5.51082 -10.33078,-9.32246 -8.30736,-8.42298 -10.69751,-9.86479 -15.51809,-9.36094 -3.68023,0.38466 -7.24092,1.94276 -11.68198,5.11184 -1.81717,1.2967 -5.34798,3.23887 -7.84624,4.31593 -3.04093,1.31102 -5.54651,2.83687 -7.58045,4.61635 -1.67097,1.46193 -5.06314,3.8862 -7.53814,5.38727 -2.475,1.50106 -6.075,3.74865 -8,4.99464 -1.925,1.24599 -5.075,3.06775 -7,4.04835 -1.925,0.98061 -5.23241,3.09036 -7.34979,4.68833 -3.31428,2.50125 -18.77318,11.33179 -21.62004,12.34995 -2.03199,0.72672 -17.16565,4.74905 -20.03017,5.32375 -1.65,0.33104 -4.76996,1.25385 -6.93326,2.0507 -2.16328,0.79684 -6.77578,2.02009 -10.25,2.71833 -8.02226,1.61228 -10.83383,2.33654 -18.41214,4.74297 -6.69231,2.12508 -10.852,2.68068 -25.9046,3.46003 -5.77358,0.29893 -9.78139,0.77528 -12.49491,1.48509 -3.57016,0.9339 -4.84607,1.0109 -12,0.72419 -10.62502,-0.42581 -15.37567,-1.97747 -18.90839,-6.17587 -2.03989,-2.42427 -2.31326,-4.09323 -4.59016,-28.02374 -0.40556,-4.2625 -1.18827,-10.225 -1.73937,-13.25 -0.60071,-3.29736 -1.00596,-7.70264 -1.0119,-11 -0.005,-3.025 -0.24459,-9.19888 -0.5314,-13.71974 -0.83937,-13.23026 0.33202,-17.61515 5.36814,-20.09468 2.36266,-1.16326 2.75629,-1.19131 20.90799,-1.48985 10.175,-0.16736 21.2,-0.56701 24.5,-0.88814 3.3,-0.32112 8.27069,-0.79241 11.04597,-1.04732 3.10429,-0.28513 9.16485,-1.51216 15.75,-3.18877 5.88721,-1.49891 12.05403,-2.99353 13.70403,-3.32137 1.65,-0.32784 5.7,-1.45707 9,-2.5094 3.3,-1.05232 7.8,-2.3031 10,-2.77949 6.5093,-1.40955 19.10235,-6.04256 24.25,-8.92163 2.6125,-1.46117 6.16243,-3.16632 7.88873,-3.78923 1.7263,-0.62291 5.18521,-2.44478 7.68647,-4.0486 2.50126,-1.60381 5.58884,-3.29517 6.86128,-3.75857 4.79947,-1.7479 6.39269,-2.63037 9.1515,-5.06894 1.84501,-1.63085 4.05523,-2.97369 6.31701,-3.83796 1.91347,-0.73118 3.89812,-1.79249 4.41033,-2.35848 1.20484,-1.33134 1.1069,-4.32294 -0.25455,-7.77508 -0.94727,-2.40194 -2.51865,-10.36142 -3.58376,-18.15275 -0.24436,-1.7875 -0.45166,-7.10639 -0.46065,-11.81976 -0.0109,-5.69054 -0.28385,-9.97422 -0.81251,-12.75 -0.98987,-5.19727 -1.53278,-11.39454 -2.31547,-26.43024 -0.80381,-15.44166 -0.73933,-21.90817 0.26426,-26.5 1.29005,-5.90246 2.28325,-12.82341 2.61959,-18.25408 0.73163,-11.81306 3.43961,-27.19676 5.97619,-33.94999 0.62925,-1.67526 1.77293,-5.40843 2.54152,-8.29593 1.49574,-5.61932 6.8465,-16.85736 10.63513,-22.33661 2.10801,-3.0487 6.352,-7.65804 9.93103,-10.78598 1.15835,-1.01236 3.43666,-3.48017 5.06291,-5.48403 4.36525,-5.37886 10.67483,-11.22035 16.33099,-15.11946 2.75,-1.89572 7.25,-5.06515 10,-7.04318 5.99465,-4.31185 7.33658,-5.01398 16.16383,-8.45739 3.7599,-1.46668 8.66691,-3.55691 10.90449,-4.64495 2.23757,-1.08804 6.28757,-2.67695 9,-3.53092 12.98278,-4.08743 20.10609,-6.17368 21.93913,-6.42545 3.09725,-0.42541 20.23994,0.72142 27.46857,1.83763 3.56181,0.55 10.53681,2.00697 15.5,3.23772 4.96319,1.23075 10.82896,2.55139 13.03503,2.93475 3.14386,0.54633 5.54738,1.46666 11.11703,4.25679 3.90828,1.95787 8.85331,4.02845 10.98894,4.60128 2.74993,0.7376 5.06052,1.82381 7.91838,3.72245 2.21947,1.47451 5.70697,3.44939 7.75,4.38861 2.04303,0.93923 5.0646,2.70539 6.7146,3.9248 1.65,1.21942 4.9125,3.49554 7.25,5.05805 5.30781,3.54802 14.83918,11.26952 22.72626,18.41086 4.64318,4.20416 10.94207,11.55641 12.97169,15.14092 9.07319,16.02418 16.6912,34.91706 18.27163,45.31411 0.31352,2.0625 1.3257,6.3375 2.24932,9.5 2.09845,7.18542 2.13995,7.37508 2.73865,12.51649 0.2825,2.42564 1.59075,7.75658 3.0636,12.48351 2.5706,8.25 2.5706,8.25 3.04275,19.25 0.71545,16.6677 0.3715,18.74532 -5.09835,30.79467 -5.37491,11.84017 -8.89112,18.15962 -12.82157,23.04331 -2.06362,2.56411 -4.40991,5.61299 -5.21396,6.77529 -1.6368,2.36607 -4.34105,4.09797 -8.43002,5.3989 -4.67045,1.48592 -6.41359,2.63465 -11.69063,7.70414 -5.83751,5.60791 -6.60387,6.07695 -12.30937,7.53369 -5.38365,1.37457 -6.16258,1.8038 -10.50496,5.7888 -4.22998,3.88184 -6.21989,4.86226 -12.56902,6.19269 -6.43333,1.34807 -6.82395,1.48398 -14.17602,4.93214 -6.43609,3.01855 -7.48107,3.30639 -17.58278,4.84315 -1.14553,0.17427 -3.05803,0.97065 -4.25,1.76974 -1.19197,0.79909 -2.95472,1.98715 -3.91722,2.64014 -0.9625,0.65298 -2.3125,1.36337 -3,1.57864 -0.6875,0.21526 -3.58283,1.38537 -6.43407,2.60023 -2.85124,1.21487 -6.67624,2.54705 -8.5,2.9604 -3.88383,0.88025 -9.31593,3.6168 -9.31593,4.6931 0,0.41197 0.7875,1.12764 1.75,1.59038 0.9625,0.46274 4.3375,2.08104 7.5,3.59622 6.00626,2.87764 9.61004,3.81239 14.71683,3.81727 4.44632,0.004 8.47788,0.7835 11.69356,2.26023 1.56178,0.71722 4.86461,1.72266 7.33961,2.23431 2.475,0.51166 5.16858,1.18492 5.98573,1.49615 3.58717,1.36623 24.15569,3.48637 33.95233,3.4997 2.71594,0.004 6.99095,0.32626 9.5,0.71682 5.46074,0.85003 24.43348,1.80976 35.56194,1.79891 4.50176,-0.005 10.95165,0.35763 14.75,0.8279 8.4437,1.0454 31.49285,1.15986 53.75,0.26692 8.525,-0.34202 21.575,-0.82566 29,-1.07476 11.68465,-0.39201 14.30685,-0.631 19.5,-1.77725 5.34353,-1.17944 7.26453,-1.342 17.55703,-1.48577 18.3018,-0.25562 28.40817,-0.77026 35.94297,-1.83026 8.5957,-1.20926 9.457,-1.47589 13.3721,-4.13956 1.7203,-1.17047 4.4779,-2.84326 6.1279,-3.71732 3.8553,-2.0423 13.3795,-10.16021 18.6247,-15.87479 8.1079,-8.8333 12.2074,-14.99344 14.8403,-22.29987 0.4649,-1.29016 2.0663,-3.71407 3.5585,-5.38647 1.4923,-1.67239 3.6558,-4.75814 4.8078,-6.85721 2.7371,-4.98704 6.6653,-9.84945 12.4797,-15.44769 3.827,-3.68461 5.1483,-4.64687 7.0321,-5.12122 5.118,-1.28874 9.8587,1.3118 11.6508,6.39113 0.693,1.96408 0.7207,4.08218 0.242,18.46149 -0.4131,12.40845 -0.4005,16.82754 0.053,18.71953 0.8735,3.6412 0.2011,12.67415 -1.2719,17.08618 -0.645,1.93191 -1.301,5.40411 -1.4643,7.75 -0.2592,3.72508 -0.574,4.8058 -2.5487,8.75 -1.2391,2.475 -2.5995,5.5125 -3.0231,6.75 -0.4236,1.2375 -1.3464,3.12289 -2.0507,4.18976 -0.8507,1.28868 -1.443,3.13475 -1.7647,5.5 -0.7075,5.20295 -4.229,16.12831 -6.1514,19.08497 -0.9029,1.3886 -2.4251,4.2011 -3.3827,6.25 -0.9576,2.0489 -2.8609,4.98994 -4.2295,6.53564 -1.3686,1.54571 -3.911,5.37071 -5.6497,8.5 -3.6577,6.58274 -4.6657,7.80255 -8.7526,10.59275 -1.65,1.12645 -4.0125,2.97229 -5.25,4.10185 -1.2375,1.12955 -3.4822,2.94053 -4.9883,4.02438 -1.506,1.08386 -3.7033,2.80562 -4.8828,3.82614 -2.6375,2.28186 -18.0998,9.94336 -22.8789,11.33641 -7.6086,2.21775 -10.5519,2.6428 -21,3.03295 -9.87377,0.3687 -10.69387,0.47405 -13.74997,1.76695 -4.1312,1.74765 -13.8083,2.80965 -27.25,2.99055 -9.09103,0.1223 -9.65073,0.18815 -13.00003,1.5294 -3.48245,1.3945 -3.57645,1.40325 -18.75,1.7406 -15.032,0.33425 -15.2963,0.35825 -18.4876,1.6791 -4.8322,2 -7.1836,2.16915 -18.9051,1.36005 -10.4706,-0.7228 -10.73335,-0.71685 -16.25,0.3674 -5.465,1.07415 -16.2317,1.55 -17.02905,0.75265 z M 416.19673,681.80853 c 4.9976,-2.04899 5.49749,-2.1761 11.0294,-2.80468 4.79223,-0.54453 6.32888,-1.18199 10.38236,-4.307 3.87053,-2.98397 4.34289,-3.16808 10.25928,-3.99859 6.19025,-0.86896 10.24501,-2.13496 14.74072,-4.60243 7.1862,-3.94416 7.66966,-4.12132 13.25,-4.85556 5.92159,-0.77913 6.50718,-0.97406 15.35421,-5.11096 4.35192,-2.03497 6.95344,-2.9154 10.13768,-3.43086 4.64215,-0.75147 11.83777,-3.54781 17.25811,-6.70681 3.45873,-2.01575 6.50174,-3.12111 11.07827,-4.02411 7.04908,-1.39088 14.85973,-5.50995 25.17173,-13.27473 6.29585,-4.74069 7.27521,-5.71394 10.41729,-10.35226 2.5773,-3.80461 3.32589,-5.98493 3.32992,-9.69863 0.004,-3.10317 -2.10037,-10.6473 -3.76344,-13.49591 -2.04635,-3.50511 -11.73961,-13.65169 -14.28258,-14.95053 -1.26434,-0.64577 -3.51434,-2.2201 -5,-3.49852 -1.48566,-1.27842 -4.69277,-3.33073 -7.12693,-4.56069 -2.43415,-1.22996 -6.25915,-3.45356 -8.5,-4.94134 -3.47408,-2.30658 -4.85319,-2.88843 -9.36195,-3.94985 -2.90822,-0.68463 -6.34899,-1.69971 -7.64613,-2.25573 -1.29716,-0.55602 -5.10519,-1.92811 -8.46232,-3.04907 -6.10386,-2.03813 -6.10386,-2.03813 -24.10386,-2.32797 -12.0111,-0.19341 -19.36588,-0.10488 -22.10523,0.26606 -4.87695,0.66039 -15.53843,4.0262 -20.25928,6.39581 -1.85048,0.92885 -5.00048,2.34077 -7,3.13761 -1.99952,0.79684 -5.66049,2.69686 -8.13549,4.22224 -2.475,1.5254 -5.3653,3.29173 -6.42291,3.9252 -1.05759,0.63346 -3.82331,3.27169 -6.14605,5.86274 -3.3467,3.7333 -4.83154,5.92638 -7.15468,10.56738 -1.61235,3.22102 -3.19594,7.17607 -3.51909,8.78901 -0.32316,1.61294 -1.15676,4.73262 -1.85245,6.93262 -0.98295,3.10845 -1.34755,5.62773 -1.63575,11.30284 -0.20397,4.01657 -0.53792,7.57315 -0.7421,7.90352 -0.20418,0.33038 -0.5628,2.7816 -0.79693,5.44717 -0.23412,2.66556 -0.80723,5.85897 -1.27356,7.09647 -1.58437,4.20436 -0.79498,21.51806 1.28343,28.14961 0.58601,1.86979 1.38952,5.24479 1.78558,7.5 0.98768,5.62404 2.42215,8.29848 5.23803,9.76577 3.25856,1.69797 8.82321,1.29027 14.57472,-1.06782 z"
     id="path450"
     inkscape:connector-curvature="0" />
</svg>
