<?xml version="1.0" encoding="UTF-8" standalone="no"?>
<!-- Created with Inkscape (http://www.inkscape.org/) -->

<svg
   xmlns:dc="http://purl.org/dc/elements/1.1/"
   xmlns:cc="http://creativecommons.org/ns#"
   xmlns:rdf="http://www.w3.org/1999/02/22-rdf-syntax-ns#"
   xmlns:svg="http://www.w3.org/2000/svg"
   xmlns="http://www.w3.org/2000/svg"
   xmlns:sodipodi="http://sodipodi.sourceforge.net/DTD/sodipodi-0.dtd"
   xmlns:inkscape="http://www.inkscape.org/namespaces/inkscape"
   version="1.1"
   id="svg1046"
   width="1000"
   height="1000"
   viewBox="0 0 1000 1000"
   sodipodi:docname="fatou_bdc_v.svg"
   inkscape:version="0.92.2 5c3e80d, 2017-08-06">
  <metadata
     id="metadata1052">
    <rdf:RDF>
      <cc:Work
         rdf:about="">
        <dc:format>image/svg+xml</dc:format>
        <dc:type
           rdf:resource="http://purl.org/dc/dcmitype/StillImage" />
        <dc:title></dc:title>
      </cc:Work>
    </rdf:RDF>
  </metadata>
  <defs
     id="defs1050" />
  <sodipodi:namedview
     pagecolor="#ffffff"
     bordercolor="#666666"
     borderopacity="1"
     objecttolerance="10"
     gridtolerance="10"
     guidetolerance="10"
     inkscape:pageopacity="0"
     inkscape:pageshadow="2"
     inkscape:window-width="1280"
     inkscape:window-height="754"
     id="namedview1048"
     showgrid="false"
     inkscape:zoom="0.27649901"
     inkscape:cx="900"
     inkscape:cy="600"
     inkscape:window-x="0"
     inkscape:window-y="0"
     inkscape:window-maximized="0"
     inkscape:current-layer="svg1046" />
  <path
     style="fill:#000000;stroke-width:0.5"
     d="m 351.5,828.79626 c -13.2688,-0.4373 -14.90441,-0.64825 -19.0147,-2.45225 -1.80629,-0.7928 -5.07317,-1.9283 -7.25973,-2.52335 -2.18656,-0.59505 -5.27859,-1.62605 -6.87118,-2.2911 -1.59258,-0.665 -4.81905,-1.54455 -7.16993,-1.9545 -5.03004,-0.8772 -6.57513,-1.59605 -9.93446,-4.62215 -1.375,-1.23865 -4.075,-3.26475 -6,-4.5025 -1.925,-1.2378 -4.9625,-3.53255 -6.75,-5.09945 -1.7875,-1.56695 -4.6,-3.82684 -6.25,-5.02199 -1.65,-1.19516 -4.2375,-3.32473 -5.75,-4.73239 -1.5125,-1.40765 -4.325,-3.65492 -6.25,-4.99393 -4.05688,-2.82191 -13.41149,-12.20221 -19.66241,-19.71638 -2.38567,-2.8678 -5.62763,-6.65515 -7.20436,-8.41633 -1.57672,-1.76119 -4.42731,-5.7148 -6.33463,-8.78582 -1.90733,-3.07101 -4.67431,-6.93366 -6.14885,-8.58366 -3.36579,-3.76629 -4.03046,-4.83376 -5.13694,-8.25 -0.48988,-1.5125 -2.09941,-5.38079 -3.57675,-8.5962 -1.47733,-3.2154 -2.68606,-6.00823 -2.68606,-6.20628 0,-0.19805 -1.3314,-2.74226 -2.95867,-5.65381 -2.21271,-3.95901 -3.52724,-7.18469 -5.21372,-12.79371 -1.24027,-4.125 -2.95268,-9.3 -3.80536,-11.5 -0.85267,-2.2 -2.11324,-6.20485 -2.80125,-8.89968 -0.68802,-2.69482 -1.94065,-6.63232 -2.78364,-8.75 -0.84298,-2.11767 -2.07762,-6.47898 -2.74363,-9.69178 -0.66602,-3.21281 -1.89373,-8.0503 -2.72825,-10.75 -0.83452,-2.6997 -1.85149,-7.12564 -2.25993,-9.83544 -0.40845,-2.7098 -1.41725,-7.03294 -2.24179,-9.60697 -1.08329,-3.38181 -1.63102,-6.38416 -1.97449,-10.8231 -0.55889,-7.22288 -1.42014,-11.79408 -3.29565,-17.49199 -1.27868,-3.88471 -1.37132,-4.76056 -1.44388,-13.65104 -0.0795,-9.74294 -0.38715,-11.62191 -2.61264,-15.95756 -0.79248,-1.5439 -1.90997,-9.42037 -2.63074,-18.54244 -0.83869,-10.61454 -1.51032,-14.26141 -4.21761,-22.90096 -1.48202,-4.72947 -3.51508,-11.97404 -4.51791,-16.09904 -1.00283,-4.125 -2.09277,-7.857 -2.42208,-8.29333 -2.03171,-2.69193 -5.18146,-2.36829 -10.96446,1.12661 -2.27386,1.37418 -4.96487,2.92796 -5.98002,3.45284 -1.01514,0.52488 -3.37764,2.31463 -5.25,3.97721 -2.33789,2.07597 -4.34402,3.35922 -6.40428,4.09657 -2.35344,0.84229 -3.72281,1.80437 -6.35386,4.46403 -2.09456,2.11734 -4.53516,3.98096 -6.5,4.96333 -4.73305,2.36641 -6.17071,3.65229 -8.45357,7.56107 -1.14585,1.96198 -3.86311,5.55221 -6.03836,7.97829 -4.2385,4.72727 -5.62742,7.24244 -6.44667,11.6742 -0.66118,3.57662 -0.0436,6.67417 2.79835,14.03548 2.66861,6.91233 4.15591,9.87788 7.54848,15.05097 1.47426,2.24799 3.15164,5.28549 3.72751,6.75 0.57586,1.4645 1.60572,3.39725 2.28856,4.295 1.95605,2.57164 3.58901,6.56903 4.23635,10.37028 0.8876,5.21218 -0.13665,8.29656 -4.21035,12.67886 -1.70304,1.83205 -3.85798,4.46962 -4.78875,5.86125 -2.57735,3.85351 -5.85484,5.70734 -10.09032,5.70734 -3.25269,0 -6.28019,-1.44377 -9.975279,-4.75709 -1.94677,-1.74564 -4.14765,-3.29793 -4.89084,-3.44953 -0.743189,-0.1516 -2.895369,-0.513 -4.782629,-0.80311 -1.88726,-0.29011 -4.256285,-0.94831 -5.264495,-1.46266 -2.063895,-1.05292 -13.299175,-12.94482 -15.85122,-16.77761 -0.91554,-1.375 -2.252485,-4.06841 -2.970995,-5.98534 -0.71851,-1.91694 -2.060205,-4.84194 -2.981545,-6.5 -0.92134,-1.65807 -2.622745,-5.60216 -3.7809,-8.76466 -1.158155,-3.1625 -3.21522,-8.16811 -4.57126,-11.12358 -2.46552,-5.37357 -2.46552,-5.37357 -2.728165,-18.5 -0.229094,-11.44979 -0.121835,-14.33985 0.839725,-22.62642 1.27078,-10.95134 2.144745,-14.75817 5.02137,-21.87218 3.6116,-8.93163 5.08822,-13.52737 5.4831,-17.0652 0.45301,-4.05869 1.244565,-5.29081 5.179695,-8.06262 1.850075,-1.30315 3.906585,-3.48081 5.902285,-6.25 1.684595,-2.3375 5.220845,-6.50899 7.85834,-9.26997 4.403625,-4.6098 10.07213,-10.91719 15.417224,-17.15485 1.16697,-1.36184 3.35446,-3.17177 4.861079,-4.02206 1.50663,-0.85028 4.19472,-2.86491 5.97355,-4.47696 1.77882,-1.61204 4.42883,-3.4971 5.88891,-4.18902 2.47941,-1.17497 8.1864,-4.52247 14.26527,-8.36746 2.63203,-1.6648 8.60727,-3.49378 18.13941,-5.55233 2.6125,-0.56419 5.94518,-1.37017 7.40596,-1.79106 3.12583,-0.90063 6.50864,-0.7193 11.19527,0.60012 3.19002,0.89808 3.57684,0.90445 8.04122,0.13243 6.88303,-1.19029 9.37131,-0.57752 15.60755,3.84354 5.85695,4.15215 11.81381,11.51923 14.03978,17.36352 0.76128,1.99875 2.01949,4.67063 2.79602,5.9375 0.77653,1.26688 2.08207,3.92865 2.90119,5.91505 0.81913,1.9864 2.60445,5.56236 3.96738,7.94659 1.36293,2.38423 2.73785,5.33176 3.05538,6.55007 0.39734,1.52452 1.35127,3.00541 3.05976,4.75 3.21171,3.27957 8.099,12.97172 9.17765,18.20051 0.47846,2.31937 1.47137,4.89022 2.70351,7 1.86851,3.1994 2.68773,5.38914 4.05334,10.83438 2.06149,8.21999 3.09026,11.42442 4.81572,15 1.93027,4 1.93027,4 1.94677,14 0.0164,9.8998 0.0305,10.02869 1.40666,12.86408 0.97052,1.99952 1.54865,4.26351 1.91522,7.5 0.28878,2.54976 1.49672,9.02342 2.68431,14.38592 4.24325,19.16023 4.31306,19.64427 3.93956,27.31873 -0.35088,7.20968 0.0636,10.67186 2.77543,23.18127 0.50672,2.3375 1.07488,5.375 1.26256,6.75 0.18768,1.375 1.0048,4.06379 1.81581,5.97509 1.82242,4.29484 2.34272,6.56973 2.94264,12.86611 0.33621,3.52855 0.91278,6.04402 2.01702,8.79986 0.85043,2.12242 1.88773,5.50818 2.30511,7.52392 0.41738,2.01574 1.4152,5.2566 2.21739,7.20192 0.89411,2.16824 1.64631,5.18966 1.94381,7.80786 0.4777,4.20408 0.54509,4.3592 4.30606,9.9121 5.32677,7.86472 10.97812,14.45262 15.01954,17.50858 1.88781,1.42749 4.81225,4.13832 6.49875,6.02408 3.28087,3.66851 6.98564,5.98129 11.43363,7.1377 3.81702,0.99238 6.18253,2.33101 9.87016,5.5855 1.85358,1.63587 4.1021,3.18422 4.9967,3.44079 0.8946,0.25657 3.99053,0.47385 6.87984,0.48285 2.88932,0.009 6.8283,0.2409 8.7533,0.51535 7.22483,1.03004 11.37344,1.10375 15.35392,0.27281 2.11966,-0.44249 5.22574,-0.80452 6.90241,-0.80452 2.28801,0 3.94594,-0.3829 6.64608,-1.53492 1.97868,-0.84421 4.72259,-1.64614 6.09759,-1.78208 3.95785,-0.39127 4.30994,-0.51976 7.90448,-2.88457 2.17316,-1.4297 4.34322,-2.41311 6,-2.71904 8.11814,-1.49901 13.14333,-2.09448 17.61547,-2.08737 2.76098,0.005 6.24848,-0.31206 7.75,-0.70323 4.04717,-1.05432 16.82933,-7.71687 20.49454,-10.68253 2.02529,-1.63874 4.9979,-3.34558 8.12389,-4.66465 2.71143,-1.14414 6.88326,-3.32182 9.27075,-4.8393 2.38748,-1.51747 7.15337,-4.21313 10.59087,-5.99035 3.4375,-1.77723 7.7125,-4.07349 9.5,-5.10281 1.7875,-1.02932 4.7125,-2.5632 6.5,-3.40862 1.7875,-0.84542 4.92843,-2.81011 6.97985,-4.36597 2.05141,-1.55585 5.42641,-3.68689 7.5,-4.73563 7.43911,-3.76241 11.55318,-7.20004 16.1552,-13.49893 1.29135,-1.76753 2.58695,-2.71172 6.042,-4.40323 3.851,-1.88535 5.15825,-2.91172 10.50765,-8.25 3.3602,-3.35322 8.01205,-7.44675 10.3374,-9.09674 2.32535,-1.64998 5.91605,-4.68748 7.97935,-6.75 7.24015,-7.23746 17.84905,-18.77729 19.7656,-21.50003 1.06465,-1.5125 3.31675,-4.23498 5.0047,-6.04996 1.68795,-1.81498 3.8154,-4.62748 4.7276,-6.25 1.85295,-3.29561 3.43145,-5.34368 9.25065,-12.00252 2.8094,-3.21472 4.27935,-5.3764 4.93845,-7.26233 0.51615,-1.47686 2.4511,-4.93519 4.2998,-7.68519 6.7188,-9.99415 8.0855,-12.64982 8.5414,-16.59675 0.5124,-4.43614 1.30835,-6.02236 4.5361,-9.03986 3.33505,-3.11782 6.1554,-7.10931 9.9724,-14.11339 5.69415,-10.44862 6.7757,-12.83736 8.18115,-18.06868 0.7656,-2.84973 2.3804,-7.09382 3.58845,-9.43132 1.2507,-2.42009 2.7465,-6.40283 3.47405,-9.25 0.7027,-2.75 2.0907,-6.8 3.0845,-9 1.74685,-3.86711 1.82225,-4.27946 2.26905,-12.41166 0.2542,-4.62641 0.32225,-9.15747 0.15125,-10.06901 -0.76895,-4.09891 -4.773,-7.29903 -13.4221,-10.72724 -2.137,-0.84705 -5.47245,-2.33926 -7.41205,-3.31604 -2.10425,-1.05968 -5.70925,-2.25871 -8.93845,-2.97295 -2.9765,-0.65836 -6.2786,-1.57489 -7.33795,-2.03674 -1.3847,-0.60371 -4.2448,-0.94804 -10.17605,-1.22508 -6.7356,-0.31462 -9.02335,-0.62453 -12.4631,-1.68832 -2.3172,-0.71663 -4.5937,-1.30296 -5.0588,-1.30296 -0.4651,0 -2.89395,0.675 -5.3974,1.5 -5.383,1.77394 -5.79375,1.79374 -10.6145,0.51177 -4.43955,-1.1806 -8.23375,-1.26359 -11.9662,-0.26177 -3.87325,1.03962 -8.7829,0.93894 -12.6636,-0.25967 -4.83655,-1.49386 -13.7822,-3.00034 -20.5864,-3.46682 -6.68345,-0.4582 -6.26247,-0.33483 -14.3233,-4.19765 -5.82329,-2.79057 -5.82329,-2.79057 -9.87134,-8.03435 -4.72187,-6.11664 -7.07648,-10.2084 -8.81377,-15.31625 -0.68811,-2.02311 -2.53141,-5.93893 -4.09623,-8.70182 -4.26118,-7.52364 -4.31818,-7.67509 -4.71325,-12.52344 -0.20167,-2.475 -0.71017,-5.69661 -1.12998,-7.15912 -0.99492,-3.46601 -0.44671,-6.47276 2.183,-11.97296 3.14426,-6.57644 6.13619,-10.85398 8.60167,-12.29774 4.07353,-2.38542 12.66202,-5.76771 15.98482,-6.29511 2.99189,-0.47487 96.66528,-1.03556 204.17838,-1.22214 30.5,-0.0529 30.5,-0.0529 33.426,-1.44449 4.38995,-2.08776 6.40925,-2.20249 10.98255,-0.62399 3.5188,1.21453 4.1252,1.28721 6.48655,0.7774 8.11095,-1.75112 20.1672,-2.26427 44.1049,-1.87725 2.2,0.0356 6.8125,-0.0124 10.25,-0.10659 4.6255,-0.12674 7.1267,0.045 9.623,0.66083 3.1481,0.7766 3.58155,0.77639 6.5,-0.003 2.67945,-0.71568 6.8482,-0.8634 29.127,-1.03216 26,-0.19694 26,-0.19694 28.25,0.94975 1.65895,0.84548 2.54325,1.73773 3.36635,3.39669 1.1119,2.24095 1.1172,2.37466 1.31735,33.25 0.1105,17.05 0.018,32.83348 -0.2054,35.07439 -0.66015,6.61952 -2.99895,9.83395 -9.30075,12.78291 -3.07815,1.44043 -9.2779,2.69872 -10.27145,2.08467 -0.28095,-0.17364 -29.231,-0.31193 -64.33345,-0.3073 -56.7473,0.007 -64.22815,0.0975 -67.48035,0.81187 -4.17735,0.91761 -9.30825,1.02073 -12.5923,0.25307 -3.06875,-0.71733 -17.33695,-1.38107 -19.44895,-0.90474 -0.9397,0.21193 -2.28825,0.96504 -2.99675,1.67357 -1.1126,1.11259 -1.27905,1.68747 -1.22095,4.21645 0.0919,3.99442 0.91965,7.88369 2.9513,13.866 1.5012,4.42027 1.7146,5.66879 1.70955,10 -0.005,2.72201 0.3769,7.51281 0.84465,10.64623 0.75935,5.08698 0.77995,6.50602 0.1922,13.25 -0.36205,4.15408 -0.8307,12.27788 -1.0415,18.05288 -0.4369,11.96808 -1.17735,20.35442 -1.98805,22.5164 -0.30595,0.81598 -1.4436,2.95897 -2.528,4.76219 -1.08445,1.80323 -2.61895,5.17823 -3.41,7.5 -1.703,4.99835 -7.2465,18.0607 -8.605,20.27627 -1.49305,2.43505 -2.3924,5.41674 -2.93215,9.72109 -0.5911,4.71425 -1.34425,6.31906 -4.6807,9.97405 -4.814,5.27348 -6.93265,9.33443 -7.8057,14.96163 -0.6219,4.00822 -1.1805,5.53462 -5.46125,14.92367 -3.2443,7.11564 -3.9399,8.25513 -7.5762,12.41056 -1.5144,1.7306 -3.00255,4.2542 -4.17105,7.07327 -1.37355,3.31378 -2.6214,5.29716 -5.1161,8.13181 -2.0302,2.30679 -4.2634,5.62542 -5.80505,8.62652 -2.14385,4.17331 -3.08335,5.39918 -6.50785,8.49129 -2.2012,1.98761 -5.31915,5.41776 -6.92865,7.62254 -1.60955,2.20479 -6.099,7.01868 -9.97665,10.69754 -6.2956,5.97294 -7.26805,7.1235 -9.086,10.75 -2.7879,5.56152 -3.41475,6.35502 -7.84935,9.93576 -4.02655,3.25129 -7.5717,6.99831 -10.5618,11.16322 -0.9625,1.34068 -3.19755,3.56813 -4.9668,4.94989 -1.76925,1.38176 -5.76535,5.0998 -8.88025,8.2623 -15.61995,15.85872 -17.50525,17.62951 -21.0947,19.81339 -2.03045,1.23537 -4.73045,3.13806 -6,4.22819 -1.26955,1.09013 -4.6,3.60799 -7.40105,5.59524 -7.90675,5.60962 -14.6279,10.78085 -17.83265,13.72043 -1.70765,1.56636 -4.82655,3.63817 -7.49235,4.97703 -2.51185,1.26151 -6.1454,3.35631 -8.0746,4.65512 -1.92917,1.2988 -5.0826,3.25281 -7.0076,4.34223 -1.925,1.08943 -4.88362,3.0006 -6.5747,4.24706 -3.70489,2.73077 -15.75355,7.93354 -22.58076,9.75067 -2.65305,0.70614 -7.23361,2.27091 -10.17902,3.47726 -2.9454,1.20636 -5.64613,2.19338 -6.00161,2.19338 -0.35548,0 -3.57528,1.464 -7.15512,3.25335 -4.69962,2.34905 -8.17654,3.68385 -12.50879,4.8021 -6.19007,1.5978 -10.08399,3.25025 -13.98701,5.9356 -3.05969,2.10515 -5.13306,2.7646 -11.73632,3.733 -6.28576,0.9218 -9.6179,2.03715 -16.40577,5.49135 -3.1193,1.5874 -5.63396,2.49205 -7.74496,2.7863 -4.78372,0.6669 -14.99551,0.8356 -26.87594,0.4441 z"
     id="path1056"
     inkscape:connector-curvature="0" />
</svg>
