<?xml version="1.0" encoding="UTF-8" standalone="no"?>
<!-- Created with Inkscape (http://www.inkscape.org/) -->

<svg
   xmlns:dc="http://purl.org/dc/elements/1.1/"
   xmlns:cc="http://creativecommons.org/ns#"
   xmlns:rdf="http://www.w3.org/1999/02/22-rdf-syntax-ns#"
   xmlns:svg="http://www.w3.org/2000/svg"
   xmlns="http://www.w3.org/2000/svg"
   xmlns:sodipodi="http://sodipodi.sourceforge.net/DTD/sodipodi-0.dtd"
   xmlns:inkscape="http://www.inkscape.org/namespaces/inkscape"
   version="1.1"
   id="svg265"
   width="1000"
   height="1000"
   viewBox="0 0 1000 1000"
   sodipodi:docname="fatou_bdc_u.svg"
   inkscape:version="0.92.2 5c3e80d, 2017-08-06">
  <metadata
     id="metadata271">
    <rdf:RDF>
      <cc:Work
         rdf:about="">
        <dc:format>image/svg+xml</dc:format>
        <dc:type
           rdf:resource="http://purl.org/dc/dcmitype/StillImage" />
        <dc:title></dc:title>
      </cc:Work>
    </rdf:RDF>
  </metadata>
  <defs
     id="defs269" />
  <sodipodi:namedview
     pagecolor="#ffffff"
     bordercolor="#666666"
     borderopacity="1"
     objecttolerance="10"
     gridtolerance="10"
     guidetolerance="10"
     inkscape:pageopacity="0"
     inkscape:pageshadow="2"
     inkscape:window-width="1095"
     inkscape:window-height="534"
     id="namedview267"
     showgrid="false"
     inkscape:zoom="0.12445313"
     inkscape:cx="672"
     inkscape:cy="600"
     inkscape:window-x="0"
     inkscape:window-y="0"
     inkscape:window-maximized="0"
     inkscape:current-layer="svg265" />
  <path
     style="fill:#000000;stroke-width:0.5"
     d="m 729.70309,789.90914 c -8.96785,-0.4032 -14.54265,-1.4261 -17.0757,-3.1331 -0.89065,-0.60025 -2.5379,-2.29345 -3.6605,-3.76275 -2.37555,-3.1091 -3.51285,-3.82685 -7.2638,-4.5843 -8.2934,-1.67475 -15.42475,-4.9184 -18.54835,-8.43667 -1.1254,-1.26763 -2.66885,-2.99728 -3.42985,-3.84368 -0.761,-0.84639 -2.7085,-2.06105 -4.32775,-2.69923 -5.35915,-2.11218 -8.10315,-3.98649 -11.7982,-8.05884 -2.96285,-3.2654 -4.27978,-4.29342 -7.37632,-5.75811 -5.32185,-2.51726 -6.60731,-3.64619 -8.71167,-7.65079 -1.93516,-3.68263 -3.27199,-4.94962 -7.73563,-7.33156 -3.48031,-1.8572 -5.27113,-4.09461 -6.31442,-7.8891 -0.73935,-2.68904 -3.03861,-8.19817 -6.33972,-15.19032 -0.54967,-1.16426 -2.61235,-4.32344 -4.58375,-7.02041 -1.97139,-2.69696 -4.46222,-6.40626 -5.53518,-8.24288 -1.07296,-1.83663 -2.57449,-4.07744 -3.33673,-4.97959 -1.14918,-1.36013 -1.54186,-1.54793 -2.29915,-1.09961 -3.27295,1.93758 -11.48047,17.66536 -13.48693,25.84453 -1.60099,6.52629 -3.46739,10.30537 -7.64266,15.47484 -1.83907,2.27698 -4.49236,5.8452 -5.8962,7.92937 -1.45538,2.16069 -4.41629,5.48153 -6.88893,7.72637 -3.07192,2.7889 -4.75656,4.76909 -5.77694,6.79045 -0.79223,1.56941 -2.0913,3.31694 -2.88682,3.88339 -0.7955,0.56646 -4.34628,1.96564 -7.89059,3.1093 -8.43434,2.72153 -10.24472,3.68253 -14.8957,7.90702 -6.43932,5.84887 -13.20771,8.54407 -21.45638,8.54407 -6.96757,0 -11.02533,1.2041 -18.07217,5.36285 -8.52926,5.03355 -13.26266,6.13565 -26.37388,6.1406 -6.30853,0 -10.71029,-0.26005 -14.18789,-0.84595 -4.74572,-0.79955 -5.5532,-0.7994 -13.75,0.005 -11.49223,1.12435 -15.40834,1.0847 -19.71901,-0.1996 -2.52898,-0.7535 -5.75953,-1.14705 -11.73918,-1.4301 -8.25,-0.3905 -8.25,-0.3905 -14,-2.7658 -3.1625,-1.3064 -9.9125,-4.3495 -15,-6.7624 -5.0875,-2.41295 -10.825,-4.8601 -12.75,-5.43815 -2.19466,-0.65902 -4.36923,-1.75271 -5.83065,-2.9325 -8.80369,-7.10955 -16.66896,-14.04953 -19.48818,-17.19798 -1.8153,-2.02728 -4.57515,-4.69847 -6.13301,-5.93597 -3.71766,-2.95316 -10.38365,-10.54016 -16.33585,-18.59289 -3.93316,-5.32117 -5.10524,-7.3411 -6.56691,-11.31719 -0.97858,-2.66196 -2.56925,-6.63992 -3.53481,-8.83992 -8.0094,-18.24909 -9.56733,-23.21226 -11.3269,-36.08465 -1.54213,-11.28173 -2.07986,-17.07033 -2.50027,-26.91536 -0.27108,-6.34803 -0.62729,-9.64468 -1.20888,-11.18787 -1.15009,-3.05167 -1.03157,-5.49252 0.45767,-9.42572 1.09486,-2.89159 1.36286,-4.75516 1.83411,-12.75376 0.49009,-8.31853 0.4585,-9.70324 -0.28222,-12.36745 -1.48764,-5.35075 -1.17787,-7.86378 1.65186,-13.40083 2.36263,-4.62305 2.51097,-5.14963 2.99008,-10.61437 0.71566,-8.16282 4.97646,-26.91152 7.2705,-31.99234 1.54309,-3.4176 1.88075,-4.8544 2.35631,-10.02662 0.75841,-8.24848 1.49329,-7.7321 -10.99663,-7.72708 -6.39797,0.003 -12.40002,0.31723 -17.10622,0.89677 -12.24565,1.50797 -12.8804,1.65633 -16.19599,3.78556 -3.75033,2.40842 -13.88749,6.28777 -18.55427,7.10045 -2.42461,0.42224 -5.69374,0.48234 -10.97639,0.20181 -4.13784,-0.21973 -9.1033,-0.37615 -11.03433,-0.3476 -4.17008,0.0616 -19.72921,3.047 -23.98902,4.60281 -6.08087,2.22091 -7.64673,2.22569 -13.92555,0.0426 -7.42034,-2.58007 -8.1481,-3.94411 -8.84785,-16.58354 -0.28076,-5.0711 -0.46916,-26.82444 -0.41966,-48.45277 0.10709,-46.78345 0.11145,-44.83585 -0.12142,-54.24999 -0.19395,-7.84073 0.0629,-9.29209 2.1912,-12.38255 2.05023,-2.97708 2.66317,-3.07702 19.37328,-3.15913 16.50516,-0.0811 30.75342,-1.28134 37.75,-3.18 1.925,-0.52238 6.0875,-1.43257 9.25,-2.02263 3.1625,-0.59006 7.64617,-1.61831 9.96371,-2.28501 2.31753,-0.66669 6.70503,-1.57318 9.75,-2.01441 3.04495,-0.44124 7.78629,-1.34362 10.53629,-2.00531 2.75,-0.66168 8.01108,-1.43263 11.6913,-1.71321 13.2455,-1.00988 14.59337,-1.37547 19.34747,-5.24773 1.46505,-1.1933 5.01878,-3.32267 7.89716,-4.73193 5.40659,-2.64707 7.61175,-4.424 11.99837,-9.6684 1.5082,-1.80313 4.07613,-3.96567 6.75,-5.68443 2.37363,-1.52578 6.4532,-4.82864 9.0657,-7.3397 3.10906,-2.98833 6.02336,-5.25396 8.43594,-6.55825 2.47505,-1.33805 5.25384,-3.51785 8.45859,-6.63526 3.20747,-3.12005 6.18,-5.45139 9.06406,-7.10888 2.36027,-1.35647 6.20391,-4.05849 8.54141,-6.00448 5.30727,-4.41835 7.48992,-5.18151 13.50707,-4.72273 3.34898,0.25533 5.52193,0.0854 10.18656,-0.79654 7.78949,-1.47279 13.51836,-1.23694 17.52088,0.72131 2.2687,1.10998 3.4907,2.28969 7.18705,6.93832 6.10556,7.67855 7.5977,9.85592 10.51993,15.35095 2.13778,4.01994 2.67823,5.61475 3.51632,10.37635 1.03409,5.87513 1.2623,6.48494 4.2528,11.36366 2.52344,4.11676 2.9546,6.06795 2.54577,11.52094 -0.21609,2.88217 -0.15242,4.96167 0.17037,5.5648 0.28345,0.52965 2.12391,1.84473 4.0899,2.92241 6.98995,3.83163 8.76391,7.41317 8.38755,16.93416 -0.19377,4.90194 -0.41182,6.00386 -1.82354,9.21555 -0.8819,2.00633 -2.13423,6.28134 -2.78297,9.5 -1.37395,6.8168 -1.75782,7.91634 -3.79994,10.88447 -1.97158,2.86558 -2.57743,4.65275 -5.25226,15.49334 -2.27722,9.22913 -4.84532,17.36606 -7.72437,24.47431 -0.89107,2.2 -2.26874,5.89963 -3.0615,8.2214 -0.79277,2.32178 -2.32416,5.69678 -3.40312,7.5 -1.07895,1.80323 -2.43302,4.73564 -3.00905,6.51645 -1.43983,4.45129 -3.80741,13.17464 -4.50194,16.5874 -0.33465,1.64441 -1.40726,4.15219 -2.5663,6 -2.84918,4.54236 -3.36906,5.8657 -4.74073,12.06726 -0.80179,3.62504 -2.07366,7.36695 -3.67904,10.82395 -3.63904,7.83623 -5.32119,12.32039 -6.29601,16.78354 -0.53945,2.46987 -1.80782,5.81704 -3.31569,8.75 -2.39295,4.65454 -2.45746,4.89959 -3.21047,12.19423 -0.62415,6.04618 -1.17793,8.72237 -2.94878,14.25 -2.80641,8.76011 -3.43625,12.32264 -3.05958,17.30577 0.31184,4.12545 0.0877,5.54757 -1.61553,10.25 -0.55949,1.5447 -1.45298,6.58506 -2.03857,11.5 -0.57339,4.8125 -1.30453,10.92699 -1.62477,13.58773 -0.87453,7.26622 -0.2237,8.28528 7.8732,12.32768 2.22928,1.11298 5.91167,2.48614 8.18308,3.05146 2.27141,0.56532 6.18495,1.90351 8.69675,2.97377 5.49814,2.34269 8.20626,2.9039 16.06807,3.32985 6.52559,0.35355 5.86885,0.48878 15.73436,-3.23984 3.25093,-1.22868 5.52801,-1.70614 9.79566,-2.05398 7.95323,-0.64824 9.96189,-1.17349 19.46884,-5.09096 11.65589,-4.80297 11.98635,-5.0098 14.28039,-8.93774 2.98484,-5.11075 5.65475,-6.97096 11.7398,-8.17947 2.76886,-0.54991 4.59805,-2.11843 6.73248,-5.77308 1.14642,-1.96293 3.52362,-5.09463 5.28268,-6.95933 2.7118,-2.87465 3.69389,-4.46882 6.45647,-10.48049 1.792,-3.89957 3.25818,-7.19543 3.25818,-7.32412 0,-0.1287 1.1189,-2.53968 2.48644,-5.35774 1.43372,-2.95442 2.80179,-6.67508 3.23126,-8.78787 0.82579,-4.06249 2.25998,-7.47132 5.50559,-13.08587 1.19227,-2.0625 2.89822,-5.775 3.791,-8.25 2.15527,-5.97497 5.35835,-12.2982 8.14294,-16.07506 3.38511,-4.59137 4.46507,-6.47625 6.54604,-11.42493 2.57359,-6.1202 8.84127,-18.09006 12.13437,-23.17391 4.17694,-6.44831 8.57724,-15.63783 9.86844,-20.60911 1.20018,-4.62082 1.47202,-5.10494 10.63638,-18.94231 1.97586,-2.98336 4.30951,-6.84475 5.1859,-8.58086 0.87638,-1.73611 2.68953,-4.765 4.02922,-6.73086 2.4433,-3.58532 13.7889,-26.35184 16.45638,-33.02201 1.62603,-4.06599 7.73504,-15.67139 9.9095,-18.82528 0.80225,-1.16362 2.72212,-3.52981 4.26638,-5.2582 1.54425,-1.7284 3.23767,-3.9784 3.76315,-5 1.73193,-3.36709 3.67669,-4.7686 6.9215,-4.98806 1.58153,-0.10696 4.33235,0.15176 6.11294,0.57495 3.09223,0.73491 3.57197,0.71211 10.69687,-0.50846 10.46695,-1.7931 12.93995,-1.22718 16.692,3.81981 3.628,4.88019 5.00215,6.39146 9.2255,10.14628 7.2185,6.41762 12.8773,15.8234 14.2246,23.64342 1.0722,6.22337 1.597,7.20195 5.5566,10.36122 4.37085,3.48743 6.7345,6.23411 8.6313,10.02992 1.42425,2.85017 1.4866,3.25429 1.5075,9.76831 0.012,3.73733 0.214,7.7912 0.449,9.00861 0.5564,2.88234 -0.24485,44.44069 -0.9696,50.28972 -0.3064,2.47325 -1.09145,5.95932 -1.7445,7.74682 -2.93895,8.04468 -3.76655,10.77294 -5.6875,18.74999 -5.58015,23.17245 -6.47465,28.87263 -7.61095,48.5 -1.29405,22.35293 -1.353,22.98775 -2.46025,26.5 -0.6069,1.925 -1.6422,4.78697 -2.3007,6.35993 -0.6585,1.57296 -1.1973,3.41145 -1.1973,4.08553 0,1.74058 4.2243,12.09866 5.7498,14.09872 1.4928,1.9572 6.36595,5.51668 10.1642,7.42426 5.3633,2.6936 9.48055,2.09978 16.7181,-2.41118 4.33415,-2.70137 6.4942,-3.5171 11.2791,-4.2595 3.75395,-0.58245 7.8181,-2.14824 10.75385,-4.14313 2.44855,-1.66383 12.27015,-10.45707 20.30055,-18.17501 3.73145,-3.58621 7.6059,-6.90496 8.60995,-7.375 4.8474,-2.26926 10.01135,-0.0261 12.931,5.61696 0.8869,1.71422 1.17345,30.67129 1.0938,110.52843 -0.008,7.8375 0.02,16.05 0.0616,18.25 0.0625,3.29967 -0.1327,4.42575 -1.1151,6.4317 -1.43585,2.9319 -4.5961,5.1374 -7.98675,5.5739 -6.45935,0.83155 -6.15235,0.69875 -9.3735,4.0535 -3.9519,4.11575 -5.37965,4.6909 -11.6447,4.6909 -3.9985,0 -5.81515,0.2608 -9.14105,1.31235 -8.4588,2.6744 -11.39285,2.90145 -27.9008,2.15925 z"
     id="path3964"
     inkscape:connector-curvature="0" />
</svg>
