<?xml version="1.0" encoding="UTF-8" standalone="no"?>
<!-- Created with Inkscape (http://www.inkscape.org/) -->

<svg
   xmlns:dc="http://purl.org/dc/elements/1.1/"
   xmlns:cc="http://creativecommons.org/ns#"
   xmlns:rdf="http://www.w3.org/1999/02/22-rdf-syntax-ns#"
   xmlns:svg="http://www.w3.org/2000/svg"
   xmlns="http://www.w3.org/2000/svg"
   xmlns:sodipodi="http://sodipodi.sourceforge.net/DTD/sodipodi-0.dtd"
   xmlns:inkscape="http://www.inkscape.org/namespaces/inkscape"
   version="1.1"
   id="svg85"
   width="1000"
   height="1000"
   viewBox="0 0 1000 1000"
   sodipodi:docname="fatou_bdc_t.svg"
   inkscape:version="0.92.2 5c3e80d, 2017-08-06">
  <metadata
     id="metadata91">
    <rdf:RDF>
      <cc:Work
         rdf:about="">
        <dc:format>image/svg+xml</dc:format>
        <dc:type
           rdf:resource="http://purl.org/dc/dcmitype/StillImage" />
        <dc:title></dc:title>
      </cc:Work>
    </rdf:RDF>
  </metadata>
  <defs
     id="defs89" />
  <sodipodi:namedview
     pagecolor="#ffffff"
     bordercolor="#666666"
     borderopacity="1"
     objecttolerance="10"
     gridtolerance="10"
     guidetolerance="10"
     inkscape:pageopacity="0"
     inkscape:pageshadow="2"
     inkscape:window-width="1034"
     inkscape:window-height="480"
     id="namedview87"
     showgrid="false"
     inkscape:zoom="0.10656925"
     inkscape:cx="452.48485"
     inkscape:cy="600"
     inkscape:window-x="0"
     inkscape:window-y="0"
     inkscape:window-maximized="0"
     inkscape:current-layer="svg85" />
  <path
     style="fill:#000000;stroke-width:0.5"
     d="m 281.98996,817.91181 c -2.21173,-0.82165 -4.12272,-2.8158 -5.06642,-5.2868 -1.15163,-3.01555 -0.67003,-10.63545 1.29274,-20.454 0.83102,-4.15705 1.7158,-9.91745 1.96617,-12.8009 0.66822,-7.6956 2.14289,-9.84745 7.46289,-10.88995 5.48953,-1.07575 6.93003,-2.0796 17.92614,-12.4921 7.93217,-7.5112 14.65697,-15.1591 16.70022,-18.99261 1.66475,-3.12339 2.55946,-4.0535 6.57696,-6.83715 1.70566,-1.18183 2.48822,-2.17276 3.1589,-4 2.01378,-5.48653 4.80016,-11.66226 6.96128,-15.42899 1.26224,-2.2 2.738,-5.48139 3.27949,-7.29199 0.54149,-1.8106 1.88509,-4.68533 2.98577,-6.38829 1.10068,-1.70297 2.48208,-4.60907 3.06978,-6.45801 0.58771,-1.84894 1.80396,-4.71171 2.70279,-6.36171 0.89883,-1.65 2.24341,-5.025 2.98795,-7.5 1.55574,-5.17162 4.04445,-11.35232 6.74452,-16.75 1.03172,-2.0625 2.14605,-5.2125 2.4763,-7 0.62977,-3.4087 3.172,-10.2861 5.57263,-15.07544 0.77893,-1.55398 1.98539,-5.12573 2.68103,-7.93721 0.79756,-3.22345 2.27932,-7.17464 4.01118,-10.696 2.50204,-5.08739 2.83529,-6.17267 3.74562,-12.19827 0.95626,-6.32966 1.58996,-8.32631 3.52076,-11.09308 0.47977,-0.6875 1.32953,-2.825 1.88836,-4.75 0.55882,-1.925 1.85933,-5.525 2.89002,-8 1.73337,-4.16235 1.90407,-5.02028 2.2749,-11.43393 0.33029,-5.71253 0.25923,-7.47402 -0.40344,-10 -0.63568,-2.42314 -0.82028,-5.98902 -0.88034,-17.0054 -0.0759,-13.91884 -0.0777,-13.94071 -1.23149,-14.875 -0.73226,-0.59296 -2.00512,-0.95112 -3.4751,-0.97785 -1.27579,-0.0232 -6.59461,-0.20013 -11.81961,-0.39316 -9.5,-0.35099 -9.5,-0.35099 -14,-2.43162 -5.49899,-2.54252 -7.83674,-3.10423 -13,-3.12361 -5.23953,-0.0196 -6.59173,-0.44967 -12.24869,-3.89513 -3.70611,-2.25727 -5.29785,-3.59921 -7.25,-6.11222 -1.37572,-1.77098 -3.99671,-4.73352 -5.82442,-6.58344 -4.28784,-4.33992 -5.20488,-6.58965 -4.70947,-11.5535 0.19843,-1.98832 0.52922,-5.52764 0.73507,-7.86514 0.4444,-5.04613 1.47525,-7.28466 4.88212,-10.6017 4.8585,-4.73039 9.84922,-5.73387 19.50884,-3.92264 3.2486,0.60913 7.59405,1.63091 9.65655,2.27061 5.64229,1.75002 5.69542,1.7565 18.40955,2.24582 8.46918,0.32595 12.65057,0.69411 14.68573,1.29302 3.52107,1.0362 5.88505,0.66511 8.04238,-1.26246 1.57963,-1.4114 1.59605,-1.47505 1.89576,-7.34819 0.16629,-3.25846 0.56007,-6.54676 0.87508,-7.30735 0.31501,-0.76059 0.79753,-3.68558 1.07227,-6.5 0.27473,-2.81441 0.72339,-5.90461 0.99702,-6.86711 0.27363,-0.9625 0.82562,-4.25162 1.22664,-7.30916 0.46729,-3.56277 1.45183,-7.69262 2.74155,-11.5 1.10683,-3.26746 2.51053,-8.52834 3.11934,-11.69084 1.07826,-5.6011 1.19023,-7.50872 0.86571,-14.75 -0.14069,-3.1393 0.0308,-3.91224 1.66379,-7.5 1.00135,-2.2 2.2955,-6.25 2.87589,-9 0.58039,-2.75 2.3875,-8.9375 4.01579,-13.75 1.62829,-4.8125 3.43933,-10.6625 4.02454,-13 0.5852,-2.3375 2.03509,-6.725 3.22198,-9.75 1.18688,-3.025 2.32326,-6.5125 2.52528,-7.75 0.20203,-1.2375 1.15737,-4.5 2.12298,-7.25 0.96562,-2.75 2.3814,-7.025 3.14619,-9.5 2.679,-8.66975 6.4171,-19.03872 8.41,-23.32818 1.10598,-2.38049 2.37076,-5.75549 2.81061,-7.5 2.31946,-9.19922 3.6116,-11.99299 8.52027,-18.42182 1.99475,-2.6125 4.2894,-5.9875 5.09925,-7.5 0.89352,-1.66878 2.2945,-3.33086 3.56328,-4.22737 1.87707,-1.3263 2.56634,-1.49816 6.74116,-1.68075 4.1944,-0.18345 4.96538,-0.0702 7.86413,1.15469 4.76106,2.0119 11.33123,4.16706 14.55799,4.77536 1.56429,0.29489 3.58929,1.03766 4.5,1.6506 1.97938,1.3322 5.61416,7.1753 6.42258,10.32464 0.31807,1.23906 1.22038,4.19314 2.00514,6.56463 2.33923,7.06899 2.57589,9.52668 2.01625,20.9382 -0.27648,5.6375 -0.72379,12.1625 -0.99401,14.5 -0.27022,2.3375 -0.77355,6.725 -1.11852,9.75 -0.34496,3.025 -0.65711,8.0875 -0.69367,11.25 -0.0646,5.59106 -0.12557,5.8882 -2.20474,10.75 -2.068,4.83564 -2.12736,5.12133 -1.80588,8.69122 0.31624,3.51185 0.24869,3.86418 -1.38998,7.25 -1.53707,3.17589 -1.75535,4.15052 -2.02892,9.05878 -0.16859,3.025 -0.7556,7.17228 -1.30447,9.21618 -0.54887,2.04391 -0.99794,4.70748 -0.99794,5.91907 0,1.21158 -0.7875,5.66629 -1.75,9.89935 -0.9625,4.23306 -1.75,8.45247 -1.75,9.37647 0,0.924 -0.35365,2.78451 -0.78589,4.13447 -0.43223,1.34995 -0.95158,4.74393 -1.15409,7.54218 -0.33118,4.57591 -0.56274,5.45611 -2.30196,8.75 -1.80981,3.42754 -1.95789,4.03622 -2.31032,9.49637 -0.20711,3.20874 -0.92431,8.15874 -1.59377,11 -1.64957,7.00094 -2.46249,12.38356 -2.5925,17.16591 -0.0825,3.03626 -0.44482,4.83375 -1.50362,7.46049 -1.60395,3.97914 -1.41678,4.70237 1.46689,5.6683 2.60545,0.87274 9.35577,0.92626 13.44192,0.10657 3.06902,-0.61564 3.77033,-0.59427 6.8924,0.20999 2.73483,0.70451 4.4579,0.82488 8.08333,0.5647 3.88779,-0.27902 5.09975,-0.17093 7.75788,0.6919 3.03595,0.98547 3.27521,0.9926 6.59235,0.19649 3.43629,-0.82471 3.44957,-0.82379 7.91621,0.54637 4.47414,1.37247 4.47414,1.37247 58.90766,1.52653 39.70076,0.11237 55.71912,0.32224 59.18351,0.77542 2.99867,0.39226 6.82781,0.49965 10.38551,0.29128 3.14792,-0.18437 8.00347,-0.0909 11,0.2117 2.95047,0.29797 7.27699,0.74065 9.61449,0.98373 5.58133,0.5804 11.12891,2.64544 13.51392,5.03046 3.3423,3.34229 3.00663,6.78861 -1.04675,10.74699 -1.40185,1.369 -3.3158,3.61408 -4.25322,4.98908 -0.93743,1.375 -2.46807,3.06034 -3.40142,3.7452 -0.93336,0.68486 -2.50418,2.40024 -3.49071,3.81197 -1.43573,2.05451 -2.59106,2.98161 -5.78905,4.64538 -6.90274,3.5912 -6.98268,3.60757 -24.3585,4.98965 -3.79418,0.30179 -4.8617,0.58135 -6.25,1.63677 -4.1262,3.13683 -4.18015,3.14718 -16.92427,3.2478 -6.4625,0.051 -14.9,0.35583 -18.75,0.67735 -4.30892,0.35984 -14.49658,0.52387 -26.5,0.42666 -26.05946,-0.21103 -24.60398,-0.26208 -27.89375,0.97823 -3.37594,1.27278 -5.39978,1.3567 -9.28408,0.38497 -1.55219,-0.38831 -5.40967,-0.85158 -8.57217,-1.02948 -5.13486,-0.28886 -6.07094,-0.20757 -8.75,0.75983 -2.01716,0.72838 -4.68626,1.16935 -8.14712,1.346 -4.69092,0.23943 -5.51859,0.13928 -9.33834,-1.12998 -4.16558,-1.38418 -4.20923,-1.38765 -7.13568,-0.56652 -3.61648,1.01473 -6.63146,1.04212 -9.77337,0.0888 -3.04976,-0.92536 -28.15513,-1.17264 -29.79782,-0.2935 -0.6544,0.35023 -1.31714,1.56452 -1.79718,3.29285 -0.41827,1.50591 -1.11721,4.02001 -1.55319,5.58688 -0.436,1.56687 -1.47955,4.20946 -2.319,5.87242 -0.83946,1.66295 -2.25292,5.16221 -3.14102,7.77613 -1.51319,4.45372 -1.62408,5.25567 -1.76326,12.75259 -0.26525,14.2873 -0.12857,16.0261 1.76598,22.46454 0.95108,3.23215 2.18522,8.29278 2.74252,11.24585 0.55731,2.95306 1.67737,7.33381 2.48901,9.73498 0.81165,2.40119 1.62361,5.75827 1.80435,7.4602 0.18074,1.70194 0.771,4.10693 1.31168,5.34443 0.54068,1.2375 1.50381,4.6125 2.14028,7.5 1.36371,6.18678 4.7123,15.7296 8.19333,23.34933 2.32381,5.08666 3.52257,8.79196 4.28814,13.25438 0.17521,1.0213 1.17233,2.93449 2.22051,4.26054 2.56327,3.24279 2.82427,3.79517 4.03644,8.54275 0.57699,2.25984 2.25986,6.52399 3.73972,9.4759 6.3297,12.62596 9.69162,19.15433 10.16579,19.74047 0.2788,0.34464 1.21898,2.3097 2.0893,4.36679 3.02621,7.15282 3.64896,7.17085 10.54861,0.30557 5.81597,-5.78701 7.63291,-6.71585 11.45652,-5.85675 3.4695,0.77955 8.82612,4.94245 10.8889,8.46232 1.15644,1.97331 1.23812,2.48173 0.93541,5.82234 -0.27894,3.07819 -0.16218,4.0869 0.7343,6.3433 1.42161,3.57816 1.35951,6.54298 -0.20719,9.89121 -1.1348,2.4252 -1.23763,3.13045 -0.98416,6.75 0.46169,6.59265 -1.47729,12.1979 -6.98253,20.1852 -2.0448,2.96665 -3.33419,4.1938 -6.94267,6.6075 -5.03879,3.3704 -7.39671,4.17245 -11.37577,3.86955 -1.53587,-0.1169 -4.54315,-5e-5 -6.68284,0.2596 -3.86838,0.4695 -6.46143,0.1116 -15.95152,-2.20175 -1.71988,-0.4192 -7.11079,-4.3079 -7.4885,-5.4017 -0.19448,-0.56325 -6.41783,-7.83705 -10.26651,-11.99945 -1.4297,-1.54625 -3.25279,-4.26225 -4.0562,-6.04285 -0.98748,-2.1885 -2.12378,-3.7637 -3.51438,-4.87175 -1.13028,-0.90065 -2.6667,-2.70065 -3.41427,-4 -0.74757,-1.2994 -2.3177,-3.6 -3.48918,-5.1125 -1.17148,-1.5125 -2.70143,-4.26835 -3.39989,-6.12411 -0.69846,-1.85576 -2.76936,-5.87115 -4.602,-8.9231 -1.83264,-3.05194 -4.26903,-8.0586 -5.41421,-11.12589 -2.34129,-6.27104 -2.53364,-6.66484 -5.50424,-11.26909 -4.03635,-6.2561 -12.06282,-23.3983 -14.99928,-32.03411 -1.71547,-5.045 -2.61863,-6.17799 -4.00656,-5.02612 -1.29319,1.07326 -3.13582,5.06449 -4.3041,9.32289 -0.58542,2.13389 -2.35493,6.92849 -3.93224,10.65466 -1.5773,3.72618 -3.14762,7.67487 -3.48959,8.77487 -0.34197,1.1 -1.71551,4.25 -3.05231,7 -1.50816,3.1025 -2.80248,6.70774 -3.4106,9.5 -0.76587,3.51657 -1.98762,6.52148 -5.59054,13.75 -2.53578,5.0875 -5.26389,10.20392 -6.06247,11.36982 -0.79859,1.1659 -2.00505,3.58923 -2.68104,5.38518 -1.78525,4.74295 -4.87678,10.70565 -6.97771,13.458 -1.0053,1.317 -2.85742,4.00165 -4.11582,5.9658 -1.25839,1.96415 -3.34881,4.8087 -4.64538,6.3212 -1.29657,1.5125 -3.66915,4.55 -5.27239,6.75 -3.16364,4.3412 -10.51026,12.6228 -14.40506,16.23835 -1.33999,1.2439 -4.03999,3.7528 -6,5.5753 -1.96001,1.8225 -4.35116,3.70475 -5.31366,4.1828 -0.9625,0.4781 -3.6625,1.95445 -6,3.28085 -2.48303,1.40895 -6.95242,3.2811 -10.75,4.50295 -7.18998,2.3133 -9.60696,3.40015 -12.33525,5.5468 -3.23988,2.5492 -5.76974,3.3556 -11.43602,3.64535 -3.28126,0.16775 -5.78741,0.0598 -6.72873,-0.2899 z"
     id="path95"
     inkscape:connector-curvature="0" />
</svg>
