<?xml version="1.0" encoding="UTF-8" standalone="no"?>
<!-- Created with Inkscape (http://www.inkscape.org/) -->

<svg
   xmlns:dc="http://purl.org/dc/elements/1.1/"
   xmlns:cc="http://creativecommons.org/ns#"
   xmlns:rdf="http://www.w3.org/1999/02/22-rdf-syntax-ns#"
   xmlns:svg="http://www.w3.org/2000/svg"
   xmlns="http://www.w3.org/2000/svg"
   xmlns:sodipodi="http://sodipodi.sourceforge.net/DTD/sodipodi-0.dtd"
   xmlns:inkscape="http://www.inkscape.org/namespaces/inkscape"
   version="1.1"
   id="svg866"
   width="1000"
   height="1000"
   viewBox="0 0 1000 1000"
   sodipodi:docname="fatou_bdc_p.svg"
   inkscape:version="0.92.2 5c3e80d, 2017-08-06">
  <metadata
     id="metadata872">
    <rdf:RDF>
      <cc:Work
         rdf:about="">
        <dc:format>image/svg+xml</dc:format>
        <dc:type
           rdf:resource="http://purl.org/dc/dcmitype/StillImage" />
        <dc:title></dc:title>
      </cc:Work>
    </rdf:RDF>
  </metadata>
  <defs
     id="defs870" />
  <sodipodi:namedview
     pagecolor="#ffffff"
     bordercolor="#666666"
     borderopacity="1"
     objecttolerance="10"
     gridtolerance="10"
     guidetolerance="10"
     inkscape:pageopacity="0"
     inkscape:pageshadow="2"
     inkscape:window-width="1288"
     inkscape:window-height="722"
     id="namedview868"
     showgrid="false"
     inkscape:zoom="0.39717448"
     inkscape:cx="489"
     inkscape:cy="600"
     inkscape:window-x="0"
     inkscape:window-y="0"
     inkscape:window-maximized="0"
     inkscape:current-layer="svg866" />
  <path
     style="fill:#000000;stroke-width:0.5"
     d="m 479.08289,912.46667 c -7.53555,-1.64165 -12.61373,-4.83255 -19.43368,-12.2112 -5.75191,-6.2231 -6.77442,-8.3882 -13.94252,-29.52225 -7.49819,-22.10727 -8.3656,-25.66195 -11.40796,-46.75 -0.47608,-3.3 -1.2941,-7.2375 -1.81781,-8.75 -3.57673,-10.32975 -5.07551,-18.33756 -5.89569,-31.5 -0.24847,-3.9875 -0.78834,-10.2875 -1.19972,-14 -1.70826,-15.4163 -1.95679,-23.14696 -1.5512,-48.25 0.21772,-13.475 0.35285,-30.4625 0.3003,-37.75 -0.0525,-7.2875 -0.0926,-15.6125 -0.0889,-18.5 0.004,-2.8875 -0.32109,-8.4 -0.72163,-12.25 -0.40055,-3.85 -0.67491,-9.925 -0.60971,-13.5 0.1215,-6.66107 -0.67338,-12.19633 -3.12333,-21.75 -1.22588,-4.78032 -1.85828,-10.0737 -2.49689,-20.89938 -0.32568,-5.52095 -0.8721,-10.03096 -1.51072,-12.46916 -0.55027,-2.10089 -1.00394,-4.73367 -1.00815,-5.85063 -0.009,-2.41696 -0.60431,-3.53672 -1.6638,-3.13016 -1.18613,0.45516 -5.0453,5.61245 -5.7774,7.72075 -1.2743,3.66978 -2.8731,5.45391 -7.26414,8.10622 -4.78249,2.88877 -6.85691,5.14889 -9.42833,10.27236 -1.73241,3.45178 -6.72014,8.88471 -10.71417,11.6705 -0.88302,0.6159 -2.9457,2.96699 -4.58373,5.22466 -3.32518,4.58302 -6.13291,7.42189 -9.73173,9.83966 -1.33152,0.89455 -4.65195,3.73501 -7.37873,6.31214 -6.04764,5.71573 -13.58343,10.85449 -22.14348,15.09994 -10.16244,5.04018 -8.84337,4.76265 -23.71306,4.98917 -15.83746,0.24126 -18.1924,-0.13369 -25.83666,-4.11371 -2.75391,-1.43384 -6.04218,-2.99939 -7.30727,-3.47901 -1.26508,-0.47962 -3.62758,-1.94359 -5.25,-3.25327 -1.62242,-1.30968 -3.95184,-2.92322 -5.1765,-3.58566 -1.22466,-0.66243 -2.95863,-2.21692 -3.85327,-3.45442 -4.59815,-6.36032 -6.1437,-8.178 -8.57603,-10.08598 -3.19584,-2.50689 -4.0899,-4.08828 -4.10689,-7.26419 -0.007,-1.31991 -0.45128,-4.31233 -0.98716,-6.64983 -1.25626,-5.4798 -1.35793,-15.1017 -0.20113,-19.03425 1.00982,-3.43289 4.44211,-6.94276 7.96221,-8.14217 6.50154,-2.21531 17.55705,0.38257 21.03546,4.943 0.64697,0.84821 1.76407,3.10398 2.48247,5.01281 0.71839,1.90884 2.28811,5.04561 3.48826,6.97061 4.89477,7.85106 9.5002,10.16418 15.61268,7.84161 2.79243,-1.06104 10.09301,-6.06646 10.9822,-7.52962 0.33669,-0.554 1.91494,-1.89199 3.50725,-2.9733 3.20757,-2.17822 10.93869,-10.03189 14.24652,-14.47235 1.17374,-1.57565 3.90149,-4.8817 6.06166,-7.34678 2.16016,-2.46509 4.71973,-5.72794 5.68792,-7.25077 0.96818,-1.52283 2.69616,-3.78129 3.83994,-5.01879 5.46081,-5.90824 12.01908,-14.84686 16.1517,-22.01399 2.45335,-4.25481 6.24539,-10.39625 8.42675,-13.64765 5.41524,-8.07162 6.07667,-9.21094 7.01788,-12.08836 0.44976,-1.375 1.68045,-4.08384 2.73486,-6.01966 1.05442,-1.9358 2.72511,-6.1853 3.71266,-9.44332 0.98755,-3.25802 2.37641,-7.29917 3.08636,-8.98034 1.95963,-4.64045 2.70496,-11.07715 2.90138,-25.05668 0.14336,-10.20251 -0.009,-14.05071 -0.82816,-20.93702 -0.5521,-4.64037 -0.86444,-9.36641 -0.6941,-10.50232 0.83324,-5.55645 6.31671,-11.59913 14.53523,-16.01756 7.10388,-3.81918 8.66489,-3.93239 13.27227,-0.96256 1.77525,1.14429 4.67615,2.47952 6.44645,2.96718 2.22526,0.61299 4.0485,1.56251 5.90711,3.07637 1.47861,1.20434 3.85518,2.8689 5.28128,3.69902 1.42609,0.83012 4.05539,2.91322 5.84289,4.62911 1.7875,1.7159 4.4153,4.13613 5.83955,5.3783 4.15586,3.62457 5.21512,5.20169 7.28222,10.84247 5.07823,13.85763 5.96549,16.46112 6.95656,20.41262 0.72528,2.89179 1.67517,5.1386 2.99145,7.07583 2.30586,3.39362 2.74602,5.31077 1.9451,8.47201 -1.28148,5.058 -0.009,19.91123 2.34351,27.36305 1.3163,4.16885 1.35501,6.14477 0.33811,17.26045 -0.25186,2.75306 -0.14896,3.44097 0.6651,4.4463 0.96306,1.18932 0.96306,1.18932 2.53353,-0.25696 0.86377,-0.79546 2.51032,-3.13379 3.659,-5.19629 1.14869,-2.0625 2.61262,-4.37851 3.25317,-5.14669 0.64056,-0.76819 2.1201,-3.23319 3.28787,-5.4778 1.19627,-2.29937 3.2927,-5.29138 4.80195,-6.8533 1.4733,-1.52471 3.47682,-4.00971 4.45225,-5.52221 0.97545,-1.5125 3.61752,-5.1125 5.87129,-8 2.25376,-2.8875 4.78926,-6.26765 5.63444,-7.51144 0.84518,-1.2438 2.57029,-3.21419 3.83357,-4.37864 3.20615,-2.95533 12.45153,-8.96041 14.96756,-9.72177 1.39577,-0.42237 5.51082,-0.63435 12.34377,-0.63587 11.59793,-0.002 11.41611,-0.0503 17.82765,4.68077 1.72695,1.27432 4.27568,3.12378 5.66384,4.1099 1.38816,0.98611 4.18906,3.63492 6.22423,5.88622 2.82195,3.12165 4.08034,5.01044 5.30131,7.95706 0.88054,2.12507 2.37437,4.92336 3.31962,6.21841 1.41405,1.93734 2.05774,3.75385 3.63217,10.25 1.05246,4.34245 2.05982,9.24536 2.2386,10.89536 0.2379,2.19575 0.76799,3.67021 1.97734,5.5 3.02824,4.58186 5.46458,10.67941 5.79364,14.5 0.21471,2.493 0.68265,4.14735 1.6264,5.75 0.72872,1.2375 1.78546,4.05 2.3483,6.25 0.56284,2.2 1.81387,6.25 2.78008,9 1.12244,3.19468 1.75856,5.92509 1.76178,7.56214 0.003,1.40917 0.36036,3.54667 0.79465,4.75 0.4343,1.20332 1.08655,4.11582 1.44946,6.47222 0.49637,3.22292 1.21988,5.39944 2.92033,8.78524 1.24327,2.47549 2.63193,5.77863 3.08592,7.34031 1.99529,6.86357 3.3468,6.24029 15.03294,-6.93273 3.32473,-3.74775 8.76708,-10.94344 13.75843,-18.19092 1.21732,-1.76755 3.83348,-4.58005 5.81368,-6.25 12.04688,-10.15936 15.45854,-13.1905 20.39963,-18.12435 4.30208,-4.29577 6.04451,-5.69065 8,-6.4043 1.375,-0.5018 4.1875,-1.57442 6.25,-2.38359 2.0625,-0.80918 5.72085,-2.23686 8.12966,-3.17263 8.30544,-3.22646 12.14417,-1.96949 15.41826,5.04861 1.939,4.1563 4.75821,13.75038 5.92015,20.14691 0.53482,2.9442 2.10446,9.7692 3.4881,15.16667 3.43602,13.4037 3.83466,16.18009 2.82284,19.66061 -0.5741,1.97485 -1.25406,3.08725 -2.43998,3.9918 -2.61097,1.99148 -5.84807,3.20586 -9.55923,3.58608 -3.15741,0.32349 -3.65431,0.54106 -6.05266,2.65017 -9.46479,8.32338 -9.54041,8.3793 -13.54647,10.01816 -6.58252,2.69288 -17.71349,13.28904 -25.32072,24.10411 -1.28613,1.82849 -3.52452,4.17951 -4.97419,5.22451 -1.44967,1.045 -4.32622,3.29267 -6.39233,4.99485 -2.06611,1.70217 -5.32861,3.94546 -7.25,4.9851 -1.92139,1.03963 -4.53789,2.641 -5.81445,3.5586 -4.89565,3.51899 -4.22049,3.4276 -24.17898,3.27301 -20.13739,-0.15597 -22.00891,-0.40177 -24.8712,-3.26649 -0.89584,-0.8966 -2.36579,-3.01433 -3.26656,-4.70605 -1.07045,-2.01042 -2.75438,-4.05622 -4.8614,-5.90608 -5.33803,-4.68652 -9.33121,-11.33035 -15.93106,-26.50596 -2.02741,-4.66181 -4.85418,-11.0635 -6.28174,-14.226 -2.72578,-6.03853 -6.46789,-16.91567 -7.78039,-22.61519 -0.42621,-1.85085 -1.0048,-3.96977 -1.28574,-4.7087 -0.28095,-0.73893 -1.29032,-4.00063 -2.24306,-7.24821 -0.95275,-3.24759 -2.39348,-7.2059 -3.20164,-8.79626 -0.95644,-1.88214 -1.63386,-4.21635 -1.94054,-6.68654 -0.56316,-4.53613 -1.21895,-5.9451 -2.76711,-5.9451 -1.66401,0 -2.99124,1.6786 -5.29929,6.70226 -1.12505,2.44874 -3.03435,6.04874 -4.2429,8 -1.20855,1.95126 -2.58047,4.78524 -3.04871,6.29774 -0.46824,1.5125 -2.71509,6.575 -4.993,11.25 -2.2779,4.675 -4.52359,9.85 -4.99041,11.5 -0.46682,1.65 -1.48518,5.1375 -2.26303,7.75 -0.77785,2.6125 -1.78681,6.2125 -2.24216,8 -0.45535,1.7875 -1.46438,4.74824 -2.24231,6.57943 -0.77792,1.83118 -1.57398,4.64368 -1.769,6.25 -0.19504,1.60631 -0.87769,4.32413 -1.51702,6.0396 -0.63933,1.71546 -1.40972,4.92516 -1.71197,7.13268 -0.59569,4.35069 -1.28313,6.63389 -3.025,10.04691 -2.9351,5.75103 -4.02767,40.49451 -2.01017,63.92313 0.55405,6.43413 0.52823,7.70395 -0.23686,11.64291 -0.99682,5.13202 -0.76643,7.8522 0.95347,11.25725 0.66064,1.30795 1.54711,3.40159 1.96991,4.65253 1.14535,3.38869 3.3657,19.60422 3.89653,28.45686 0.97096,16.19267 1.42871,18.86698 5.00983,29.2687 0.70446,2.04619 1.15257,5.06659 1.40944,9.5 0.33084,5.71008 0.56515,6.92812 1.92809,10.02285 1.00899,2.29104 1.74193,5.0554 2.09613,7.90583 0.29956,2.41064 1.08968,6.11286 1.75582,8.22716 0.66614,2.11429 1.45882,5.53166 1.76152,7.59416 0.30269,2.0625 1.18751,5.55 1.96625,7.75 0.77874,2.2 2.12267,7.51327 2.98651,11.80725 0.86384,4.294 2.01345,9.3558 2.55469,11.24845 0.54125,1.8926 0.98408,4.2927 0.98408,5.3335 0,1.0408 0.47231,3.2915 1.04959,5.00155 1.4705,4.3561 1.15479,7.46495 -1.07309,10.5672 -1.53563,2.13835 -1.7166,2.74725 -1.82173,6.12935 -0.18367,5.90935 -2.09864,8.177 -7.70699,9.12645 -5.1124,0.86555 -23.86694,1.0498 -27.44778,0.2697 z"
     id="path876"
     inkscape:connector-curvature="0" />
</svg>
