<?xml version="1.0" encoding="UTF-8" standalone="no"?>
<!-- Created with Inkscape (http://www.inkscape.org/) -->

<svg
   xmlns:dc="http://purl.org/dc/elements/1.1/"
   xmlns:cc="http://creativecommons.org/ns#"
   xmlns:rdf="http://www.w3.org/1999/02/22-rdf-syntax-ns#"
   xmlns:svg="http://www.w3.org/2000/svg"
   xmlns="http://www.w3.org/2000/svg"
   xmlns:sodipodi="http://sodipodi.sourceforge.net/DTD/sodipodi-0.dtd"
   xmlns:inkscape="http://www.inkscape.org/namespaces/inkscape"
   version="1.1"
   id="svg112"
   width="1000"
   height="1000"
   viewBox="0 0 1000 1000"
   sodipodi:docname="fatou_bdc_a.svg"
   inkscape:version="0.92.2 5c3e80d, 2017-08-06">
  <metadata
     id="metadata118">
    <rdf:RDF>
      <cc:Work
         rdf:about="">
        <dc:format>image/svg+xml</dc:format>
        <dc:type
           rdf:resource="http://purl.org/dc/dcmitype/StillImage" />
        <dc:title></dc:title>
      </cc:Work>
    </rdf:RDF>
  </metadata>
  <defs
     id="defs116" />
  <sodipodi:namedview
     pagecolor="#ffffff"
     bordercolor="#666666"
     borderopacity="1"
     objecttolerance="10"
     gridtolerance="10"
     guidetolerance="10"
     inkscape:pageopacity="0"
     inkscape:pageshadow="2"
     inkscape:window-width="1279"
     inkscape:window-height="665"
     id="namedview114"
     showgrid="false"
     inkscape:zoom="0.17631538"
     inkscape:cx="112.78976"
     inkscape:cy="600"
     inkscape:window-x="0"
     inkscape:window-y="0"
     inkscape:window-maximized="0"
     inkscape:current-layer="svg112" />
  <path
     style="fill:#000000;stroke-width:0.5"
     d="m 402.48131,836.18977 c -3.7125,-0.67465 -8.325,-1.35905 -10.25,-1.5209 -5.85899,-0.49265 -8.2829,-1.1746 -12.66441,-3.56295 -4.03964,-2.202 -11.62823,-4.6777 -16.58559,-5.4108 -3.48157,-0.51485 -6.81315,-1.71125 -10.43581,-3.7476 -1.8228,-1.0246 -5.67669,-3.1618 -8.56419,-4.74925 -8.48937,-4.66729 -16.32278,-10.1813 -21.71261,-15.28373 -2.77056,-2.62283 -6.27489,-5.73668 -7.78739,-6.91965 -3.30952,-2.58849 -9.91707,-10.2585 -12.11556,-14.06367 -0.87387,-1.5125 -3.06561,-4.325 -4.87055,-6.25 -4.02334,-4.29097 -6.32648,-7.43192 -8.79917,-12 -1.042,-1.925 -2.4897,-4.4 -3.21711,-5.5 -0.72742,-1.1 -2.83224,-4.88785 -4.67738,-8.41744 -1.84515,-3.52959 -4.87188,-8.70458 -6.72609,-11.5 -4.02348,-6.06583 -5.23385,-8.6898 -6.61122,-14.33256 -1.35,-5.53066 -2.56348,-8.78524 -5.24428,-14.06536 -1.24984,-2.46171 -2.75441,-6.53811 -3.50267,-9.48996 -0.72143,-2.84603 -2.06669,-6.97912 -2.98947,-9.18464 -0.92278,-2.20552 -2.60597,-7.04754 -3.74043,-10.76004 -1.13445,-3.7125 -2.98286,-9.52238 -4.10758,-12.91085 -1.28659,-3.87616 -2.18703,-7.67726 -2.42811,-10.25 -0.21074,-2.24903 -0.65131,-7.01415 -0.97905,-10.58915 -0.3518,-3.83761 -1.12954,-8.34319 -1.89876,-11 -1.10139,-3.80404 -1.30946,-5.54393 -1.34533,-11.25 -0.0385,-6.11311 -0.16666,-7.04465 -1.35895,-9.87288 -2.03826,-4.83492 -2.48215,-7.75436 -1.8819,-12.37712 0.28566,-2.2 0.62357,-10.8625 0.75091,-19.25 0.12735,-8.3875 0.45549,-17.00927 0.72922,-19.15949 0.27372,-2.15022 0.36151,-5.86272 0.19508,-8.25 -0.22845,-3.27686 -0.0898,-5.18326 0.5657,-7.7796 0.61765,-2.44631 0.75645,-4.10618 0.48084,-5.75 -0.21311,-1.271 -0.40787,-3.90646 -0.4328,-5.85658 -0.041,-3.20492 0.11753,-3.80555 1.64941,-6.25 1.45982,-2.32944 1.75931,-3.3628 2.16044,-7.45433 0.43409,-4.42775 0.95587,-6.30174 4.33018,-15.55206 0.56217,-1.54113 1.26532,-4.35363 1.56254,-6.25 0.46845,-2.98878 2.86789,-11.12081 5.33528,-18.08196 0.41602,-1.17371 1.54415,-3.27919 2.50694,-4.67886 1.29578,-1.88372 1.86918,-3.38261 2.20725,-5.76975 0.5006,-3.5349 0.95668,-4.58488 4.15412,-9.56359 2.29497,-3.57347 7.93742,-14.60105 9.07758,-17.74117 0.99979,-2.75353 6.4613,-10.11318 10.28727,-13.86261 1.82399,-1.7875 3.89683,-4.40717 4.60631,-5.82149 1.2723,-2.53629 2.09541,-3.3634 6.12386,-6.15361 1.12626,-0.78008 2.54825,-2.39717 3.16231,-3.59618 1.32907,-2.59518 6.23996,-7.78893 18.1342,-19.17872 3.51127,-3.36235 4.73349,-4.19927 7.66706,-5.25 2.78166,-0.99632 4.08178,-1.84465 6.40638,-4.18012 1.60406,-1.61157 3.71137,-4.19907 4.68292,-5.75 3.68635,-5.88474 4.27543,-6.55741 6.83993,-7.81049 1.51014,-0.73789 3.89401,-1.37403 5.81068,-1.55058 4.86331,-0.44797 6.36393,-1.07573 9.53072,-3.98706 5.47332,-5.03177 6.40864,-5.27399 22.21928,-5.75411 7.15,-0.21712 16.0375,-0.74149 19.75,-1.16526 11.82714,-1.35004 25.37568,-0.8716 34.30989,1.21158 2.32585,0.54232 5.93777,0.98604 8.02646,0.98604 5.41737,0 7.2733,0.71407 11.18428,4.30318 2.90552,2.6664 3.79308,3.18792 6.30544,3.70507 7.93036,1.6324 8.99348,2.22877 12.9725,7.27705 1.62212,2.05802 2.00692,2.30242 7.09515,4.50637 2.10533,0.91192 3.65182,2.00322 4.68199,3.30392 2.63503,3.327 4.62186,3.99706 13.17391,4.44291 9.41389,0.49079 11.91783,1.21713 15.557,4.51278 1.51731,1.37408 3.27481,2.69453 3.90556,2.93434 0.63075,0.23981 4.37023,0.90711 8.30995,1.48288 9.7789,1.42915 10.76886,1.77758 13.72787,4.83172 2.99756,3.09393 4.20856,3.74323 9.75,5.22763 3.9247,1.05133 4.46049,1.35559 7,3.97528 3.32681,3.43186 3.89698,3.75285 7.9816,4.49354 5.57687,1.01128 8.43462,2.90021 11.2489,7.43537 0.74473,1.20012 2.19922,3.11262 3.23219,4.25 1.03298,1.13738 2.49667,3.22066 3.25266,4.62952 0.9506,1.77154 2.34232,3.27217 4.51249,4.86562 3.8263,2.80947 8.3226,9.20046 10.03615,14.26529 0.63691,1.88252 2.16661,5.30934 3.39935,7.61515 2.39487,4.47955 3.33666,7.89934 3.33666,12.11603 0,2.02495 0.44047,3.5326 1.92835,6.60039 2.8525,5.88142 7.44173,24.22526 8.81277,35.22596 0.18851,1.5125 0.68701,4.1 1.10777,5.75 0.55189,2.16418 0.68359,4.28322 0.47272,7.60584 -0.27675,4.36089 -0.20107,4.85788 1.42317,9.34489 0.9435,2.60648 1.97625,6.27135 2.295,8.14416 0.31875,1.87281 1.39299,5.43011 2.3872,7.90511 1.69163,4.21116 1.80816,4.85303 1.81534,10 0.005,3.43831 -0.34555,7.24387 -0.93462,10.15214 -0.83807,4.13755 -0.87401,5.15184 -0.32494,9.16975 0.64839,4.74467 0.42746,7.82418 -0.76626,10.68118 -0.91432,2.18825 -0.90255,5.25956 0.0335,8.74693 0.89166,3.32198 0.95551,7.53337 0.16608,10.95337 -0.48451,2.09901 -0.44195,3.11785 0.25,5.98469 0.45866,1.90026 0.8351,4.54783 0.83654,5.88348 0.003,2.49545 0.32304,3.17354 3.41811,7.23569 2.36067,3.09829 3.41159,5.31408 4.26479,8.992 1.37637,5.93323 3.75898,11.64606 6.32518,15.16604 2.36693,3.24667 2.76628,4.16161 4.0102,9.18807 0.65489,2.64627 2.98678,5.29634 8.05603,9.15523 2.30991,1.75838 6.35619,5.8006 10.17748,10.16726 3.74642,4.2811 7.2961,7.83478 8.67096,8.68075 1.2803,0.78777 3.7896,2.67172 5.57621,4.18655 3.90181,3.30824 5.30566,4.07042 9.49842,5.15687 4.32193,1.11993 5.767,1.92046 9.01454,4.99381 4.1135,3.89288 5.1731,4.30072 11.68341,4.49676 3.08494,0.0929 6.49614,0.39276 7.5805,0.66636 1.08434,0.27359 3.84299,0.78697 6.1303,1.14083 3.73855,0.57838 4.49634,0.55067 7.5,-0.27426 2.17304,-0.5968 5.9772,-1.02356 10.88034,-1.22057 7.42561,-0.29837 7.56741,-0.32551 9.42066,-1.80293 3.0135,-2.40232 4.40239,-3.13071 6.66525,-3.49541 2.125,-0.34249 2.125,-0.34249 2.125,48.8513 0,56.95427 3.2672,50.39411 -25.0983,50.39411 -20.28805,0 -20.90835,-0.11905 -27.72665,-5.32141 -4.62075,-3.52561 -5.5068,-3.93219 -9.6226,-4.41551 -3.54279,-0.41602 -5.85847,-1.65224 -9.81997,-5.2423 -2.74904,-2.4913 -3.71144,-3.04715 -6.12214,-3.53602 -4.24979,-0.86183 -6.82652,-2.15376 -10.26786,-5.14809 -1.70087,-1.47993 -4.89248,-3.62738 -7.09248,-4.77209 -2.2,-1.14472 -5.45025,-3.41831 -7.22277,-5.05243 -1.77252,-1.63412 -4.69752,-3.69569 -6.5,-4.58127 -2.01224,-0.98863 -4.83843,-3.07127 -7.32184,-5.39551 -2.22453,-2.08195 -5.38246,-5.02287 -7.01762,-6.53537 -1.63516,-1.5125 -5.92591,-5.7875 -9.535,-9.5 -3.60908,-3.7125 -7.65115,-7.67524 -8.98237,-8.80609 -1.37376,-1.16699 -3.18095,-3.4351 -4.17922,-5.24512 -1.32334,-2.39942 -2.28796,-3.4809 -3.89587,-4.36787 -3.7519,-2.06967 -3.1023,-2.75109 -12.59531,13.21201 -1.75233,2.94665 -4.67602,6.70032 -8.0589,10.34668 -3.05207,3.28977 -6.00191,7.02259 -6.93909,8.78092 -1.65307,3.10148 -3.09061,4.4824 -6.82152,6.55279 -1.20292,0.66755 -2.90547,2.33384 -4.0659,3.97933 -1.50214,2.13004 -3.42319,3.81704 -7.75948,6.81412 -3.16969,2.19077 -6.43304,4.35174 -7.25189,4.80214 -0.81885,0.4504 -2.41654,2.07475 -3.55045,3.60966 -2.75017,3.72276 -3.45633,4.33065 -7.68704,6.61722 -2.47236,1.33625 -5.03872,3.37721 -8.11573,6.45421 -3.90317,3.90317 -4.9971,4.697 -8.24801,5.98534 -4.97333,1.97092 -11.3082,6.27012 -13.61186,9.23776 -2.08827,2.69015 -10.40895,8.54865 -13.88159,9.7739 -1.20946,0.4267 -4.01241,1.76025 -6.22878,2.9634 -5.38396,2.92265 -10.01447,4.2744 -15.77674,4.6056 -2.61416,0.15025 -9.72419,1.2656 -15.80005,2.4786 -12.62023,2.51945 -16.72348,2.7329 -23.10965,1.2019 -5.4736,-1.3122 -8.15222,-1.257 -12.61213,0.2599 -5.40426,1.8381 -9.03826,1.94555 -16.98119,0.50215 z m 22.5,-76.78241 c 11.87684,-0.0423 20.95488,-0.76573 24.20069,-1.92855 1.40212,-0.50231 5.13681,-2.09107 8.29931,-3.53057 3.1625,-1.43951 7.2125,-3.0703 9,-3.62397 4.34435,-1.34565 5.71696,-2.09035 9.20604,-4.99475 3.47045,-2.88887 5.74918,-4.12747 9.10176,-4.9472 3.37831,-0.82604 4.42963,-1.44485 8.4422,-4.96906 1.925,-1.69072 5.07471,-3.87185 6.99936,-4.84695 4.48486,-2.27221 10.1021,-7.64199 11.95706,-11.43029 2.19985,-4.49269 4.37365,-6.53157 8.18188,-7.67407 2.74514,-0.82356 3.78809,-1.48291 6.32447,-3.99829 1.67048,-1.65665 4.07468,-3.97292 5.34267,-5.14727 2.23189,-2.06706 2.33226,-2.2867 3.14634,-6.88517 1.07794,-6.08891 1.46348,-7.06236 4.37999,-11.05875 3.13885,-4.30108 4.73326,-7.98169 5.33329,-12.3116 0.30222,-2.18088 1.15861,-4.9005 2.27218,-7.2157 2.90382,-6.03729 3.42049,-7.87599 3.83952,-13.66395 0.31029,-4.28587 0.74959,-6.43819 1.99001,-9.75 1.55467,-4.15081 1.59239,-4.44838 1.61634,-12.75 0.0351,-12.178 -0.64511,-18.88072 -2.23272,-22 -1.79181,-3.52051 -2.80696,-7.35521 -3.66071,-13.82825 -0.40619,-3.07963 -1.18688,-7.30313 -1.73488,-9.38554 -1.52728,-5.80367 -3.36654,-14.81757 -3.98633,-19.53621 -0.30702,-2.3375 -0.98037,-5.6 -1.49633,-7.25 -0.94754,-3.03014 -1.09385,-3.77859 -3.02987,-15.5 -0.59048,-3.575 -1.8805,-10.6625 -2.8667,-15.75 -2.98135,-15.37976 -2.57682,-18.5831 3.09166,-24.48177 6.5456,-6.81141 6.75349,-7.87268 2.45225,-12.51853 -3.50367,-3.78438 -4.38908,-4.24679 -9.99365,-5.2192 -6.24987,-1.08437 -9.41235,-2.08208 -13.12992,-4.14227 -2.52264,-1.39799 -3.45007,-1.68127 -4.36058,-1.33194 -0.94769,0.3636 -7.68533,6.44658 -7.68533,6.93859 0,0.0796 -0.35002,1.98979 -0.77782,4.24497 -1.07655,5.67513 -2.80174,9.0873 -5.89253,11.65462 -1.39416,1.15805 -4.24422,3.85111 -6.33347,5.98459 -3.37575,3.44723 -4.56901,4.26825 -10.71875,7.375 -6.17516,3.1196 -7.22946,3.49594 -9.79354,3.49594 -1.58039,0 -4.72925,0.35205 -6.99748,0.78232 -6.1222,1.16136 -10.02669,0.22648 -14.39771,-3.44736 -1.18872,-0.99911 -3.10122,-2.07249 -4.25,-2.38527 -7.56015,-2.05843 -8.36106,-2.67459 -10.9959,-8.45938 -0.94185,-2.06783 -2.11771,-4.09283 -2.61303,-4.5 -0.49531,-0.40717 -1.53714,-1.74061 -2.31517,-2.9632 -2.05571,-3.23033 -1.91489,-5.52968 0.63522,-10.3717 1.34106,-2.54635 2.30955,-5.26919 2.80099,-7.8748 0.41314,-2.19048 1.29072,-5.20272 1.95018,-6.69386 1.64346,-3.71617 1.56597,-4.87131 -0.39483,-5.88527 -1.2807,-0.66228 -2.61082,-0.77898 -6.77011,-0.594 -4.99349,0.22208 -5.33346,0.31236 -9.62773,2.5566 -3.69641,1.93179 -5.30231,2.45419 -9.46775,3.07982 -2.75896,0.4144 -6.9905,1.34997 -9.40343,2.07907 -3.94102,1.19082 -5.27744,1.33589 -13.14237,1.42655 -9.35383,0.10783 -10.18562,0.29274 -13.37006,2.97227 -0.82234,0.69195 -4.2197,2.62759 -7.5497,4.30142 -5.1534,2.59037 -6.40955,3.46509 -8.43978,5.877 -3.24821,3.85888 -3.87612,4.32369 -7.62612,5.64524 -2.54449,0.89671 -4.0267,1.87434 -6.75977,4.45855 -1.92536,1.8205 -4.10729,3.70748 -4.84873,4.19329 -0.74145,0.48582 -2.08696,2.04642 -2.99003,3.46801 -0.90307,1.42158 -2.58456,3.75281 -3.73664,5.1805 -1.7357,2.15093 -2.15088,3.09354 -2.42255,5.5 -0.58701,5.19983 -1.67793,7.98849 -5.19017,13.26738 -1.87974,2.82526 -4.38201,6.86639 -5.56059,8.98029 -1.17859,2.11391 -3.10257,4.75811 -4.27552,5.876 -1.4682,1.39929 -2.63445,3.23947 -3.74337,5.90653 -0.88591,2.13069 -2.27973,4.84799 -3.09738,6.03841 -0.91397,1.33066 -1.95198,3.99824 -2.69466,6.92499 -0.66442,2.61833 -1.42793,5.17148 -1.69671,5.67369 -0.26877,0.5022 -0.72072,3.23596 -1.00433,6.07501 -0.28361,2.83905 -0.70525,6.9619 -0.93697,9.1619 -0.59539,5.65267 -0.31759,39.33704 0.35463,43 0.3028,1.65 0.52154,5.7 0.48608,9 -0.0597,5.55967 0.0606,6.38529 1.63978,11.25 1.58371,4.87869 1.69611,5.65528 1.58928,10.98031 -0.1063,5.29829 -0.0254,5.86561 1.07264,7.52491 3.40103,5.1393 4.02242,6.98608 4.08838,12.15065 0.0627,4.90587 0.0627,4.90587 2.58034,7.5 1.5085,1.55429 3.45164,4.42443 4.84765,7.16027 1.28149,2.51138 4.01479,7.08777 6.07401,10.16976 4.09532,6.12939 5.28282,8.30952 7.70074,14.13786 2.04438,4.9279 7.03084,10.46546 12.07859,13.41351 3.77483,2.20461 5.53873,3.86525 6.69598,6.30398 0.99279,2.09215 2.78392,3.46186 5.09358,3.89516 2.84139,0.53304 4.49665,1.57224 8.42165,5.28727 2.75177,2.60456 4.05676,3.48425 5.53759,3.73284 4.7093,0.7906 7.24982,1.82725 9.80991,4.00287 5.93243,5.04154 5.61615,4.93012 15.12748,5.32925 4.675,0.19619 9.4,0.58221 10.5,0.85783 1.1,0.27563 3.9125,0.40247 6.25,0.28187 2.3375,-0.12059 8.4125,-0.23408 13.5,-0.2522 z"
     id="path122"
     inkscape:connector-curvature="0" />
</svg>
