<?xml version="1.0" encoding="UTF-8" standalone="no"?>
<!-- Created with Inkscape (http://www.inkscape.org/) -->

<svg
   xmlns:dc="http://purl.org/dc/elements/1.1/"
   xmlns:cc="http://creativecommons.org/ns#"
   xmlns:rdf="http://www.w3.org/1999/02/22-rdf-syntax-ns#"
   xmlns:svg="http://www.w3.org/2000/svg"
   xmlns="http://www.w3.org/2000/svg"
   xmlns:sodipodi="http://sodipodi.sourceforge.net/DTD/sodipodi-0.dtd"
   xmlns:inkscape="http://www.inkscape.org/namespaces/inkscape"
   version="1.1"
   id="svg194"
   width="1000"
   height="1000"
   viewBox="0 0 1000 1000"
   sodipodi:docname="fatou_bdc_a2.svg"
   inkscape:version="0.92.2 5c3e80d, 2017-08-06">
  <metadata
     id="metadata200">
    <rdf:RDF>
      <cc:Work
         rdf:about="">
        <dc:format>image/svg+xml</dc:format>
        <dc:type
           rdf:resource="http://purl.org/dc/dcmitype/StillImage" />
        <dc:title></dc:title>
      </cc:Work>
    </rdf:RDF>
  </metadata>
  <defs
     id="defs198" />
  <sodipodi:namedview
     pagecolor="#ffffff"
     bordercolor="#666666"
     borderopacity="1"
     objecttolerance="10"
     gridtolerance="10"
     guidetolerance="10"
     inkscape:pageopacity="0"
     inkscape:pageshadow="2"
     inkscape:window-width="1280"
     inkscape:window-height="694"
     id="namedview196"
     showgrid="false"
     inkscape:zoom="0.2663062"
     inkscape:cx="216.01499"
     inkscape:cy="600"
     inkscape:window-x="8"
     inkscape:window-y="0"
     inkscape:window-maximized="0"
     inkscape:current-layer="svg194" />
  <path
     style="fill:#000000;stroke-width:0.5"
     d="m 371.44755,837.61633 c -15.5,-0.3031 -15.5,-0.3031 -18.75,-1.9091 -1.7875,-0.8833 -4.85423,-2.9261 -6.81495,-4.5395 -1.96072,-1.6134 -4.21072,-3.1687 -5,-3.4564 -0.78928,-0.2876 -6.72255,-2.24883 -13.18505,-4.35813 -20.15739,-6.5794 -25.16586,-8.9784 -34.74054,-16.6408 -7.44521,-5.9581 -21.39402,-20.6855 -24.40923,-25.7716 -1.31988,-2.2264 -3.25937,-5.0784 -4.30999,-6.3378 -2.66626,-3.1961 -6.32229,-8.9618 -8.12384,-12.8116 -1.21866,-2.6042 -1.60176,-4.26594 -1.93057,-8.37413 -0.23858,-2.98078 -0.8195,-6.16682 -1.38838,-7.61464 -0.53799,-1.36918 -1.32853,-4.17692 -1.75675,-6.23942 -0.42823,-2.0625 -1.39195,-5.325 -2.14161,-7.25 -1.36302,-3.5 -1.36302,-3.5 -2.00068,-25.5 -0.37409,-12.90654 -0.55897,-34.60685 -0.44728,-52.5 0.18725,-29.99744 0.211,-30.61123 1.44133,-37.25 0.68803,-3.7125 1.61382,-9.45 2.05733,-12.75 0.95289,-7.09019 2.0441,-11.61494 5.00418,-20.75 1.20298,-3.7125 2.64336,-8.325 3.20085,-10.25 0.79736,-2.75328 1.57945,-4.14571 3.66572,-6.52653 1.45866,-1.6646 3.52105,-4.7021 4.5831,-6.75 1.70239,-3.28268 9.16674,-15.63142 14.18883,-23.47347 0.96861,-1.5125 4.93023,-7.1375 8.80361,-12.5 8.01779,-11.10023 16.35639,-20.09225 25.78839,-27.80917 5.56645,-4.55427 7.31784,-5.53528 12.00146,-6.7224 1.82894,-0.46356 3.0121,-1.36706 6.5,-4.96364 4.10576,-4.23368 4.42003,-4.44652 8.46513,-5.73287 4.22731,-1.34431 10.14248,-4.08062 12.65054,-5.85206 0.74338,-0.52505 4.34646,-2.59563 8.00683,-4.60129 3.66038,-2.00567 8.11466,-4.72109 9.8984,-6.03429 4.32548,-3.18444 5.12804,-3.5624 10.57458,-4.98001 4.26436,-1.10992 13.38222,-5.30826 16.9113,-7.78685 2.52164,-1.77103 4.66161,-2.59355 9.3141,-3.57997 2.61177,-0.55374 6.59245,-1.56575 8.84594,-2.24889 2.25348,-0.68314 6.74756,-1.77728 9.98682,-2.4314 4.11079,-0.83012 6.60249,-1.62615 8.25,-2.63567 3.707,-2.27145 5.38257,-2.65792 12.8857,-2.97209 5.68209,-0.23792 7.78235,-0.12572 10.98507,0.58681 2.9606,0.65867 4.65747,0.7755 6.72473,0.463 1.52071,-0.22989 9.66887,-0.425 18.10703,-0.43359 15.34209,-0.0156 15.34209,-0.0156 26.5,5.5733 6.13685,3.07389 14.1954,7.04702 17.9079,8.82916 3.7125,1.78213 9.45,4.94364 12.75,7.02557 6.40501,4.04083 8.29356,4.59348 9.29603,2.72034 1.32216,-2.47047 5.57079,-15.91949 7.67077,-24.28182 1.23783,-4.92908 3.01774,-14.04704 3.95538,-20.26213 1.16004,-7.68931 2.04626,-12.00555 2.77344,-13.5077 0.58776,-1.21415 2.86504,-4.27776 5.06061,-6.80802 2.19558,-2.53027 4.33408,-5.26206 4.75222,-6.07065 1.48476,-2.87122 3.95661,-5.08064 7.90523,-7.06597 2.19767,-1.10497 4.80365,-2.52187 5.79105,-3.14866 7.78052,-4.93906 11.45507,-6.76898 13.58874,-6.76717 2.96819,0.002 4.956,1.31593 7.36869,4.86878 1.09596,1.61386 3.29062,3.93443 4.87704,5.15682 1.58642,1.22239 4.12764,3.91003 5.64715,5.97253 1.51952,2.0625 3.84654,5.05974 5.17117,6.66052 3.49819,4.22752 4.33508,6.20029 5.09956,12.02112 0.37311,2.84087 1.14821,6.22733 1.72243,7.52547 1.19824,2.70881 5.40912,9.7934 8.15265,13.71643 2.22799,3.18584 3.18783,5.96092 3.89926,11.27358 0.29072,2.17091 0.85065,5.20841 1.24428,6.75 0.39364,1.54158 1.40796,6.58943 2.25404,11.21744 0.85625,4.68361 2.19511,10.11765 3.0196,12.2556 1.74008,4.5122 2.49733,8.14043 2.50934,12.02308 0.0103,3.32809 0.93346,7.89459 2.63956,13.05676 0.68166,2.0625 1.38925,5.55 1.57244,7.75 0.18319,2.2 0.75302,5.6875 1.26627,7.75 0.5132,2.0625 1.178,5.38006 1.47725,7.37237 0.2992,1.9923 1.25315,5.3673 2.1198,7.5 1.3941,3.4306 1.6149,4.65578 1.9153,10.62763 0.24115,4.79396 0.71005,8.12647 1.6181,11.5 0.7032,2.6125 2.20555,9.17151 3.33855,14.57558 1.133,5.40406 2.73155,11.45404 3.5523,13.44438 1.60525,3.89277 2.48195,8.21317 2.48795,12.26087 0.006,3.93757 1.7701,9.74324 4.67385,15.38076 1.5725,3.05302 2.91415,6.46355 3.29275,8.37039 0.35145,1.76991 1.2037,5.35552 1.8939,7.96802 0.69025,2.6125 1.7977,7 2.4611,9.75 1.9064,7.90313 3.08085,10.96685 5.79675,15.12152 3.30085,5.04962 3.60595,5.8401 4.8791,12.64133 1.32625,7.08472 4.58175,17.58016 6.89155,22.21756 2.5824,5.18465 3.0547,6.84692 3.60615,12.6913 0.5518,5.84807 2.76055,14.13853 6.2817,23.57829 2.80625,7.52313 3.94955,12.16597 5.19555,21.09839 1.1268,8.07822 1.6311,9.62162 6.25715,19.15161 4.3034,8.86529 7.34615,16.14459 7.6359,18.26789 0.3072,2.2507 -0.72495,4.7209 -3.49625,8.3677 -5.0347,6.6251 -5.4262,8.3456 -3.0411,13.3644 1.24155,2.6125 1.4251,3.5813 1.4211,7.5 -0.005,3.9845 -0.16965,4.815 -1.44555,7.25 -2.0907,3.9901 -7.8112,9.4974 -11.79985,11.3599 -4.2937,2.005 -6.5576,2.2809 -11.57315,1.4104 -2.29725,-0.3987 -7.66435,-1.1821 -11.92685,-1.741 -6.333,-0.8302 -8.3142,-1.2937 -10.83585,-2.5347 -4.5283,-2.2286 -7.73325,-5.9474 -9.3755,-10.8785 -0.71405,-2.1442 -2.17115,-5.3922 -3.238,-7.2178 -6.5267,-11.1688 -10.70275,-21.5794 -14.75568,-36.7848 -1.27524,-4.7843 -2.52823,-8.08422 -4.4896,-11.82397 -2.02418,-3.85954 -2.80222,-5.93659 -3.03923,-8.11353 -0.5153,-4.7331 -1.75216,-10.03436 -3.78177,-16.20888 -1.04548,-3.18058 -2.36194,-8.35558 -2.92546,-11.5 -0.56351,-3.1444 -1.49184,-7.06711 -2.06295,-8.71711 -0.5711,-1.65 -1.9162,-6.2625 -2.98911,-10.25 -1.07291,-3.9875 -2.95541,-10.2875 -4.18333,-14 -1.22792,-3.7125 -3.0291,-9.675 -4.00262,-13.25 -2.0626,-7.57435 -2.98869,-10.26297 -7.83618,-22.75 -1.97498,-5.0875 -4.33643,-11.275 -5.24766,-13.75 -2.21763,-6.02329 -5.71209,-14.35058 -6.34706,-15.125 -1.08308,-1.32096 -2.25072,-0.62492 -3.77452,2.25 -1.95191,3.68262 -2.39609,5.44849 -3.36294,13.36959 -0.88892,7.28269 -4.34677,20.62391 -7.01784,27.07651 -0.92782,2.24138 -2.16088,5.95481 -2.74013,8.25207 -0.57925,2.29726 -1.82458,6.98933 -2.7674,10.42683 -0.94281,3.4375 -2.05096,8.03122 -2.46253,10.20828 -0.88275,4.66928 -2.90107,9.20454 -6.07694,13.65512 -2.61763,3.66829 -13.61946,25.4823 -14.94712,29.6366 -1.17869,3.68819 -2.88097,7.0076 -5.85569,11.41847 -1.36072,2.01766 -2.99421,5.19784 -3.62997,7.06706 -1.5355,4.51456 -2.36386,5.67629 -5.73216,8.03896 -2.33996,1.6414 -3.37788,2.897 -5.8769,7.1095 -1.66927,2.8138 -3.55008,6.2174 -4.17957,7.5635 -1.49153,3.1894 -3.67989,5.3268 -7.5599,7.3837 -2.13822,1.1336 -4.92269,3.4328 -8.68177,7.1688 -5.49707,5.4633 -9.43157,8.6052 -22.27659,17.7888 -8.37038,5.9844 -9.38377,6.574 -13.69803,7.9694 -1.925,0.6226 -5.075,1.9843 -7,3.026 -1.925,1.0418 -4.9625,2.262 -6.75,2.7116 -1.7875,0.4497 -4.45594,1.6095 -5.92987,2.5774 -3.83767,2.5202 -6.07723,3.17333 -12.57013,3.66573 -3.1625,0.2398 -7.4375,0.916 -9.5,1.5027 -9.52259,2.7089 -15.43255,4.7225 -17.5,5.9625 -4.04646,2.4269 -5.46262,2.781 -11.5,2.8754 -3.1625,0.05 -11.15,0.1881 -17.75,0.3082 -6.6,0.1201 -18.975,0.082 -27.5,-0.085 z m 12.84231,-105.33598 c 2.1583,-0.46194 6.83464,-0.84275 11.40769,-0.92897 6.01067,-0.11332 9.09657,-0.43421 13.75,-1.4298 6.61885,-1.41608 28.07651,-6.73778 34.75,-8.61832 2.3375,-0.65869 6.13815,-1.44726 8.44591,-1.75238 6.13755,-0.81148 8.92507,-2.03526 13.03954,-5.72463 2.59321,-2.32528 4.50569,-3.55436 7.03404,-4.52049 2.4649,-0.94189 3.79736,-1.78618 4.59213,-2.90973 0.61581,-0.87055 2.73564,-3.31526 4.71075,-5.43267 1.97512,-2.11742 5.17992,-5.94242 7.12179,-8.5 1.94187,-2.55759 4.66529,-6.00015 6.05205,-7.65015 1.38675,-1.65 3.44757,-4.8 4.57959,-7 1.13202,-2.2 3.14355,-5.81551 4.47008,-8.03447 1.32653,-2.21896 3.12463,-5.81896 3.99578,-8 0.87115,-2.18104 2.79921,-6.39259 4.28457,-9.359 1.95912,-3.91256 2.95679,-6.66679 3.63353,-10.03089 0.56214,-2.79442 1.64249,-6.04653 2.71844,-8.18307 0.98206,-1.95012 2.46184,-6.21122 3.28839,-9.46912 0.82656,-3.2579 2.10844,-8.06095 2.84863,-10.67345 1.23755,-4.36798 1.34351,-5.45768 1.31738,-13.54909 -0.0342,-10.58906 0.0652,-10.32665 -6.41791,-16.95091 -4.66066,-4.76216 -5.7163,-6.40814 -5.71282,-8.90755 0.002,-1.96971 1.73836,-4.48476 3.76029,-5.44895 2.33253,-1.11231 2.55962,-2.37145 1.08307,-6.00527 -2.11895,-5.21476 -4.25474,-7.97666 -8.09523,-10.46835 -1.925,-1.24892 -5.205,-4.02983 -7.28888,-6.17978 -3.47977,-3.59008 -4.08381,-3.99858 -7.40375,-5.00698 -1.98817,-0.60389 -4.67067,-1.86402 -5.96111,-2.80028 -3.52302,-2.55608 -5.24524,-3.18284 -8.74577,-3.18284 -4.76468,0 -14.67714,2.14407 -19.19059,4.15093 -5.56972,2.47653 -6.4251,2.69318 -16.1599,4.09301 -12.36338,1.7778 -13.56464,2.06407 -20,4.76611 -3.1625,1.32785 -7.62984,2.89211 -9.92743,3.47614 -8.43669,2.14454 -13.20206,4.34954 -18.38346,8.50625 -1.95848,1.57117 -5.51127,3.91983 -7.89508,5.21925 -2.38381,1.29942 -6.05709,3.8007 -8.16284,5.5584 -2.10576,1.7577 -5.09918,3.87301 -6.65205,4.70068 -4.91688,2.62068 -15.73149,10.86423 -20.05808,15.28951 -2.29408,2.34641 -5.74606,5.26254 -7.67106,6.4803 -2.20756,1.3965 -5.11554,3.98053 -7.87498,6.9977 -4.5927,5.02166 -5.43128,6.48741 -9.63471,16.8404 -1.18992,2.93078 -2.91202,6.98078 -3.8269,9 -1.66341,3.67132 -1.66341,3.67132 -1.66341,15.17132 0,11.07712 0.0531,11.70193 1.44376,16.99112 1.35491,5.15321 1.41752,5.81471 1.01742,10.75 -0.23449,2.89238 -0.42253,7.62138 -0.41787,10.50888 0.008,5.08442 0.0682,5.36684 1.90396,8.95462 2.17851,4.25777 2.40427,6.47627 1.06832,10.49843 -1.45837,4.39074 -0.0692,10.66173 3.51605,15.87258 2.31552,3.36539 4.20791,4.61299 11.60361,7.64994 5.46463,2.24398 6.85827,2.60134 12.75,3.26935 3.63811,0.4125 7.96475,1.18904 9.61475,1.72565 3.82142,1.24279 12.13543,1.361 17.34231,0.24657 z"
     id="path204"
     inkscape:connector-curvature="0" />
</svg>
