<?xml version="1.0" encoding="UTF-8" standalone="no"?>
<!-- Created with Inkscape (http://www.inkscape.org/) -->

<svg
   xmlns:dc="http://purl.org/dc/elements/1.1/"
   xmlns:cc="http://creativecommons.org/ns#"
   xmlns:rdf="http://www.w3.org/1999/02/22-rdf-syntax-ns#"
   xmlns:svg="http://www.w3.org/2000/svg"
   xmlns="http://www.w3.org/2000/svg"
   xmlns:sodipodi="http://sodipodi.sourceforge.net/DTD/sodipodi-0.dtd"
   xmlns:inkscape="http://www.inkscape.org/namespaces/inkscape"
   version="1.1"
   id="svg702"
   width="1000"
   height="1000"
   viewBox="0 0 1000 1000"
   sodipodi:docname="fatou_bdc_l.svg"
   inkscape:version="0.92.2 5c3e80d, 2017-08-06">
  <metadata
     id="metadata708">
    <rdf:RDF>
      <cc:Work
         rdf:about="">
        <dc:format>image/svg+xml</dc:format>
        <dc:type
           rdf:resource="http://purl.org/dc/dcmitype/StillImage" />
        <dc:title></dc:title>
      </cc:Work>
    </rdf:RDF>
  </metadata>
  <defs
     id="defs706" />
  <sodipodi:namedview
     pagecolor="#ffffff"
     bordercolor="#666666"
     borderopacity="1"
     objecttolerance="10"
     gridtolerance="10"
     guidetolerance="10"
     inkscape:pageopacity="0"
     inkscape:pageshadow="2"
     inkscape:window-width="1282"
     inkscape:window-height="710"
     id="namedview704"
     showgrid="false"
     inkscape:zoom="0.32233637"
     inkscape:cx="301.86076"
     inkscape:cy="653.39481"
     inkscape:window-x="0"
     inkscape:window-y="0"
     inkscape:window-maximized="0"
     inkscape:current-layer="svg702" />
  <path
     style="fill:#000000;stroke-width:0.5"
     d="m 468.9787,887.6429 c -5.99498,-0.83915 -13.9793,-2.50535 -19.5,-4.0694 -5.83972,-1.6544 -18.71471,-7.59605 -22.3172,-10.2991 -4.72719,-3.547 -16.00962,-14.83585 -19.85248,-19.86385 -1.99671,-2.6125 -4.50411,-5.85898 -5.57198,-7.21441 -1.73546,-2.20277 -4.74381,-8.53116 -9.76207,-20.53559 -3.22854,-7.72314 -5.15918,-21.59795 -6.74864,-48.5 -0.45756,-7.74431 -0.009,-23.23162 0.73406,-25.32233 0.40015,-1.12651 1.27059,-10.20529 1.76677,-18.42767 0.25722,-4.2625 0.81908,-9.6625 1.24858,-12 0.4295,-2.3375 1.11907,-6.92648 1.53238,-10.19774 0.41331,-3.27125 0.89274,-6.17632 1.0654,-6.45569 0.17267,-0.27937 0.4822,-3.45289 0.68787,-7.05226 0.23576,-4.12594 0.96096,-9.31585 1.96245,-14.04431 1.17813,-5.56248 1.6872,-9.56668 1.97057,-15.5 0.26069,-5.45859 0.95294,-11.25618 2.17912,-18.25 1.35413,-7.72373 1.94544,-12.96111 2.39913,-21.25 0.80683,-14.74048 0.58136,-17.78303 -1.75996,-23.75 -1.36809,-3.48664 -1.98289,-5.98144 -2.31151,-9.38001 -0.24624,-2.54652 -0.79226,-5.9597 -1.21339,-7.58486 -0.53018,-2.04604 -0.73384,-4.92788 -0.66215,-9.36998 0.14146,-8.76664 -0.92028,-33.93354 -1.58661,-37.60813 -0.4011,-2.21193 -0.38221,-4.66152 0.0725,-9.3993 0.33823,-3.52425 0.64613,-8.88272 0.68421,-11.90772 0.0463,-3.67205 0.36833,-6.49706 0.96912,-8.5 0.79687,-2.65662 0.91451,-5.48956 1.02772,-24.75 0.11354,-19.31698 0.24889,-22.55979 1.20998,-28.98907 2.01737,-13.49532 2.9942,-18.4344 5.75697,-29.10835 3.09039,-11.93969 6.38206,-19.61791 10.33588,-24.10969 3.00999,-3.41953 5.15147,-4.27344 10.6833,-4.25996 5.09235,0.0124 7.13522,0.59676 10.88071,3.11237 1.44061,0.96756 3.77354,2.02166 5.18429,2.34243 1.90742,0.4337 3.24511,1.20196 5.21787,2.9967 1.8985,1.72719 3.50981,2.67294 5.66652,3.32594 4.462,1.35098 9.73551,5.06527 17.22658,12.13316 12.1103,11.42619 17.63799,19.88784 22.03875,33.73635 1.80374,5.67608 2.71293,14.5762 2.22045,21.736 -0.27348,3.97595 -0.16655,4.72666 1.29396,9.08412 1.34862,4.02361 1.544,5.19506 1.27765,7.66033 -0.23254,2.15233 0.0207,4.56154 0.9724,9.25 0.70775,3.48682 1.73546,8.58967 2.28377,11.33967 0.54832,2.75 0.99472,6.93299 0.992,9.29554 -0.003,2.45793 0.32129,5.34553 0.75766,6.75 0.41944,1.34995 0.99947,5.15446 1.28897,8.45446 0.28951,3.3 1.19484,9.0375 2.01186,12.75 6.39933,29.07824 6.1289,27.11297 6.32132,45.93882 0.13439,13.14857 -0.004,18.73103 -0.58762,23.75 -0.41982,3.60865 -1.01305,9.71118 -1.3183,13.56118 -0.53218,6.71221 -1.39674,12.34667 -3.50551,22.84615 -0.53533,2.66538 -0.97333,6.06834 -0.97333,7.56213 0,3.22359 -0.92443,6.07186 -2.91197,8.97221 -0.79886,1.16573 -3.0954,5.15701 -5.10343,8.86951 -2.00802,3.7125 -4.28853,7.82213 -5.06778,9.13251 -2.33257,3.92243 -2.23061,4.03166 4.33318,4.64155 4.34842,0.40404 6.16861,1.14064 7.89835,3.19631 1.05265,1.25101 1.34922,2.12325 1.34067,3.94299 -0.0232,4.93482 -2.90876,8.63281 -9.35191,11.9849 -2.35082,1.22303 -5.61348,3.53659 -7.84211,5.56086 -2.97603,2.70314 -4.50222,3.69246 -6.93072,4.49272 -5.19211,1.71093 -15.85694,3.96442 -20.36428,4.30298 -6.09255,0.45764 -14.15136,1.64534 -18.5,2.72651 -5.84509,1.45323 -8.62253,1.65814 -13.47903,0.99447 -5.472,-0.74778 -5.72203,-0.60296 -6.48072,3.75375 -0.30515,1.7523 -0.88904,4.13329 -1.29753,5.29109 -0.42346,1.20021 -0.74272,3.85262 -0.74272,6.17052 0,2.23599 -0.24227,4.85145 -0.53838,5.81214 -0.75685,2.45549 -0.93951,13.97191 -0.46784,29.4967 0.38095,12.53885 0.48635,13.57203 1.96385,19.25 1.20229,4.62038 2.00404,6.63425 3.48682,8.75838 1.05903,1.5171 2.73967,4.37505 3.73473,6.35099 2.15219,4.27366 3.70741,6.12541 8.20288,9.76679 4.26072,3.45124 9.06709,6.11508 13.72569,7.6072 2.00324,0.64162 4.93038,1.6391 6.50476,2.21661 1.85826,0.68165 4.05094,1.05006 6.25,1.05011 1.86312,5e-5 5.07499,0.30966 7.13749,0.68802 4.24109,0.77801 12.48158,0.74691 26.40323,-0.0997 8.2663,-0.50267 9.68255,-0.72772 14.61576,-2.32252 3.00439,-0.97125 5.94562,-1.76591 6.53606,-1.76591 1.46036,0 17.09719,-5.32688 20.15933,-6.86753 1.3554,-0.68195 3.2679,-1.5285 4.25,-1.88124 0.98209,-0.35274 5.27312,-2.33585 9.53562,-4.40691 4.2625,-2.07106 8.7465,-4.0278 9.96445,-4.3483 2.76191,-0.7268 5.61898,-0.32002 10.65107,1.51647 9.04353,3.30048 10.0606,5.97715 6.05857,15.94461 -3.14727,7.83859 -4.70693,10.8687 -7.06021,13.71649 -1.09472,1.32476 -2.86193,4.01418 -3.92714,5.9765 -2.66003,4.90026 -4.64511,6.72261 -10.7164,9.83776 -2.87119,1.4732 -6.78952,3.6536 -8.70741,4.84535 -1.91788,1.19175 -3.67028,2.1668 -3.8942,2.1668 -0.22393,0 -2.604,1.007 -5.28904,2.2378 -3.22961,1.4804 -6.1034,2.411 -8.49098,2.7496 -1.98499,0.28155 -5.08763,1.1823 -6.89474,2.00165 -1.80713,0.8194 -5.00879,1.82145 -7.11482,2.2268 -2.10603,0.4053 -7.20415,1.5324 -11.32915,2.5046 -7.48819,1.7649 -7.51772,1.7676 -18.75,1.70475 -6.1875,-0.0345 -13.275,-0.3464 -15.75,-0.69285 z M 434.94285,691.61206 c 9.39519,-3.274 17.60486,-8.73679 21.17629,-14.09091 3.82278,-5.73092 6.1255,-9.98114 7.38522,-13.63117 2.19022,-6.34615 7.49611,-28.17976 9.65484,-39.72943 2.80319,-14.99768 3.27315,-19.64305 2.88793,-28.54626 -0.56612,-13.08418 -1.15984,-17.60643 -4.49059,-34.20374 -1.79357,-8.9375 -3.6285,-19.4 -4.0776,-23.25 -0.4491,-3.85 -1.35181,-9.7 -2.00602,-13 -0.65421,-3.3 -1.33408,-7.8 -1.51083,-10 -0.17674,-2.2 -0.95806,-7.4875 -1.73625,-11.75 -0.77819,-4.2625 -1.54717,-8.5375 -1.70884,-9.5 -0.16168,-0.9625 -0.49389,-7.375 -0.73826,-14.25 -0.39797,-11.1962 -0.57478,-12.91722 -1.69518,-16.5 -0.68798,-2.2 -1.38971,-5.64598 -1.55939,-7.65773 -0.35745,-4.23764 -1.26832,-6.2349 -4.63182,-10.15619 -2.71058,-3.1601 -4.10833,-4.39051 -8.37154,-7.36933 -3.63976,-2.54319 -4.90761,-2.63734 -5.94872,-0.44175 -1.00983,2.1296 -3.83976,13.68318 -3.8418,15.6847 -0.001,0.85783 -0.5553,4.23283 -1.23205,7.5 -1.13405,5.47479 -1.55914,10.13741 -2.60278,28.54802 -0.37103,6.54538 -0.27774,6.74835 3.6229,7.88229 3.3325,0.96879 5.5717,2.87586 7.45653,6.35056 0.79343,1.46269 2.38736,4.043 3.54206,5.73402 3.82464,5.60107 5.15681,8.92495 5.69729,14.21524 0.26914,2.6344 0.8496,6.34322 1.28992,8.2418 0.72466,3.1247 0.72859,3.8794 0.0414,7.96017 -0.41754,2.47951 -0.86535,6.3082 -0.99515,8.5082 -0.1981,3.35789 -0.61266,4.87111 -2.58255,9.42663 -1.41106,3.26319 -2.53266,6.75156 -2.81333,8.75 -0.25672,1.82785 -1.0134,6.36087 -1.68151,10.07337 -0.66812,3.7125 -1.4533,9 -1.74484,11.75 -0.29154,2.75 -0.74045,5.7875 -0.99759,6.75 -0.67136,2.51306 -2.50178,17.937 -2.50255,21.08768 -3.6e-4,1.46427 -0.57025,5.01342 -1.26643,7.887 -1.34102,5.53526 -2.44106,13.30465 -2.95118,20.84355 -0.17001,2.51254 -1.03075,7.57504 -1.91277,11.25 -1.32448,5.5185 -1.60932,7.72635 -1.63608,12.68177 -0.0282,5.23501 -0.1972,6.41437 -1.32481,9.25 -0.71082,1.7875 -1.43861,4.7125 -1.61731,6.5 -0.17869,1.7875 -0.44634,4.28606 -0.59476,5.55236 -0.29971,2.55693 0.74235,4.27188 2.24346,3.69209 0.44578,-0.17218 3.04439,-1.0915 5.77467,-2.04294 z"
     id="path712"
     inkscape:connector-curvature="0" />
</svg>
