<?xml version="1.0" encoding="UTF-8" standalone="no"?>
<!-- Created with Inkscape (http://www.inkscape.org/) -->

<svg
   xmlns:dc="http://purl.org/dc/elements/1.1/"
   xmlns:cc="http://creativecommons.org/ns#"
   xmlns:rdf="http://www.w3.org/1999/02/22-rdf-syntax-ns#"
   xmlns:svg="http://www.w3.org/2000/svg"
   xmlns="http://www.w3.org/2000/svg"
   xmlns:sodipodi="http://sodipodi.sourceforge.net/DTD/sodipodi-0.dtd"
   xmlns:inkscape="http://www.inkscape.org/namespaces/inkscape"
   version="1.1"
   id="svg522"
   width="1000"
   height="1000"
   viewBox="0 0 1000 1000"
   sodipodi:docname="fatou_bdc_e2.svg"
   inkscape:version="0.92.2 5c3e80d, 2017-08-06">
  <metadata
     id="metadata528">
    <rdf:RDF>
      <cc:Work
         rdf:about="">
        <dc:format>image/svg+xml</dc:format>
        <dc:type
           rdf:resource="http://purl.org/dc/dcmitype/StillImage" />
        <dc:title></dc:title>
      </cc:Work>
    </rdf:RDF>
  </metadata>
  <defs
     id="defs526" />
  <sodipodi:namedview
     pagecolor="#ffffff"
     bordercolor="#666666"
     borderopacity="1"
     objecttolerance="10"
     gridtolerance="10"
     guidetolerance="10"
     inkscape:pageopacity="0"
     inkscape:pageshadow="2"
     inkscape:window-width="1280"
     inkscape:window-height="756"
     id="namedview524"
     showgrid="false"
     inkscape:zoom="0.21794602"
     inkscape:cx="184.34375"
     inkscape:cy="600"
     inkscape:window-x="0"
     inkscape:window-y="0"
     inkscape:window-maximized="0"
     inkscape:current-layer="svg522" />
  <path
     style="fill:#000000;stroke-width:0.5"
     d="m 136.16379,923.28203 c -6.77497,-0.1868 -11.24389,-0.5321 -12.59687,-0.9734 -3.05874,-0.9976 -5.33505,-3.1077 -8.61574,-7.9868 -1.90191,-2.8286 -4.66075,-5.9424 -7.96045,-8.9847 -2.77738,-2.5607 -6.11597,-6.1555 -7.419075,-7.9885 -1.30311,-1.83276 -3.3281,-4.51496 -4.49999,-5.96016 -1.17188,-1.4453 -2.93341,-3.8827 -3.91451,-5.41635 -0.9811,-1.5337 -3.25369,-4.3536 -5.0502,-6.2664 -3.87109,-4.12175 -5.00868,-6.46608 -5.70356,-11.75394 -0.77249,-5.87856 -1.70942,-7.89326 -5.64423,-12.13696 -6.19285,-6.679 -7.65303,-11.47971 -8.37915,-27.5486 -0.25474,-5.6375 -0.67545,-11.375 -0.93489,-12.75 -1.24096,-6.57672 0.0684,-11.72775 3.58513,-14.10361 3.16674,-2.13943 5.69981,-2.31498 28.38353,-1.96707 20.863565,0.32001 21.400035,0.30356 29.500005,-0.9043 6.96907,-1.03922 9.33685,-1.18449 15.25,-0.93561 10.2678,0.43215 24.8765,-1.16363 39.75,-4.34211 3.7125,-0.79336 8.51892,-1.78294 10.68093,-2.19906 2.16201,-0.41612 5.84684,-1.57948 8.1885,-2.58524 3.25431,-1.39776 5.98045,-2.09728 11.56907,-2.96861 14.40456,-2.24582 16.76958,-2.75395 19.5615,-4.20289 15.99289,-8.29988 24.006,-11.74807 30.763,-13.23786 4.08662,-0.90103 5.83218,-1.57396 8.36734,-3.22569 1.76191,-1.14792 4.53461,-2.62243 6.16156,-3.27669 5.44845,-2.19103 17.43202,-8.21285 19.89221,-9.99595 1.33875,-0.97032 3.52965,-2.12809 4.86865,-2.57284 2.63005,-0.87356 4.44724,-2.70394 4.44724,-4.47952 0,-0.6117 -0.64226,-2.32511 -1.42724,-3.80757 -0.78498,-1.48246 -1.93871,-4.27038 -2.56385,-6.19538 -0.62514,-1.925 -1.87043,-5.4125 -2.76733,-7.75 -2.20999,-5.75972 -2.45754,-7.66298 -1.52161,-11.69864 1.13889,-4.91081 0.99161,-6.35316 -1.16942,-11.45186 -3.26085,-7.69358 -3.77988,-11.15663 -2.30055,-15.3495 1.12497,-3.18852 0.9417,-4.16213 -1.2839,-6.82056 -4.69898,-5.61282 -5.34762,-9.68548 -2.55036,-16.01325 1.85909,-4.20551 1.87531,-4.44655 0.57781,-8.58573 -1.37811,-4.39636 -1.2461,-7.46601 0.58406,-13.58046 1.5351,-5.1287 1.56897,-5.45794 1.46581,-14.25 -0.0581,-4.95 -0.30286,-10.575 -0.54397,-12.5 -0.4583,-3.65926 -0.29238,-5.54024 1.47756,-16.75 1.57012,-9.94424 2.24346,-12.42229 5.20386,-19.1514 1.47565,-3.35423 3.30912,-8.0111 4.07437,-10.3486 0.76524,-2.3375 2.45505,-6.725 3.75512,-9.75 1.30007,-3.025 2.85079,-6.98978 3.44604,-8.81062 0.59526,-1.82084 1.99245,-4.52084 3.10489,-6 2.49435,-3.31664 3.97428,-6.19982 5.38659,-10.49408 0.59777,-1.81758 3.09721,-6.73223 5.55432,-10.92145 2.45711,-4.18923 5.52179,-9.56461 6.81039,-11.94531 2.75877,-5.09678 3.77543,-6.46788 10.4214,-14.0545 6.21783,-7.09788 25.21225,-26.25622 30.26601,-30.52719 2.0625,-1.74303 5.10732,-4.53664 6.76628,-6.208 1.65895,-1.67137 3.57146,-3.30696 4.25,-3.63464 0.67855,-0.32769 3.18188,-1.50551 5.56297,-2.61738 3.45774,-1.61464 5.13307,-2.81043 8.32221,-5.94012 3.53509,-3.46921 4.93065,-4.40444 12.17074,-8.15616 11.57828,-5.99971 19.78319,-9.78174 23.2189,-10.7027 1.6274,-0.43623 6.6714,-1.11286 11.2089,-1.50363 4.5375,-0.39077 9.4875,-1.07343 11,-1.51703 3.5296,-1.03518 20.6987,-1.93098 36.75,-1.91742 10.30744,0.009 12.70523,0.15999 17,1.07261 2.75,0.58437 7.8125,1.65798 11.25,2.38581 3.55264,0.7522 8.2658,2.17817 10.92079,3.30409 2.56891,1.08943 6.16346,2.54262 7.98781,3.22931 3.36765,1.26758 7.89395,3.61148 12.242,6.33938 2.34475,1.4711 10.3218,10.57129 17.12595,19.53725 1.6354,2.15501 4.0434,5.30501 5.3511,7 3.4385,4.45677 4.3723,7.30086 4.3723,13.31642 0,4.25074 0.2095,5.51532 1.4882,8.98342 0.9533,2.58523 1.8476,6.59695 2.4879,11.15911 1.1388,8.11527 3.0239,31.86715 3.0239,38.10134 0,3.009 0.416,5.76548 1.5,9.94063 1.1052,4.2563 1.5,6.91427 1.5,10.09687 0,2.37586 0.243,8.68643 0.5399,14.02347 0.4185,7.52216 0.4022,10.12106 -0.073,11.56007 -0.3425,1.0377 -2.0777,3.40959 -3.9347,5.3784 -4.554,4.82825 -7.3094,8.88757 -11.2149,16.52205 -1.8288,3.575 -4.2255,7.68861 -5.32605,9.14136 -1.1005,1.45275 -3.11925,4.44449 -4.4861,6.64832 -1.36685,2.20382 -3.3588,5.06521 -4.4265,6.35864 -1.0677,1.29342 -3.04095,4.48918 -4.3851,7.10168 -2.0017,3.89072 -3.27715,5.58267 -7.05045,9.35292 -3.182,3.17942 -5.095,5.57618 -6.1858,7.75 -3.81935,7.6117 -12.18376,19.01458 -18.44626,25.14708 -2.99739,2.93517 -4.46524,4.83028 -5.51393,7.11894 -1.01554,2.21628 -2.61087,4.31453 -5.51228,7.25 -4.96254,5.02079 -9.96368,12.04136 -12.08991,16.97176 -1.57588,3.65422 -2.17712,4.58204 -7.44481,11.48863 -4.85518,6.36572 -5.42025,8.30436 -3.07535,10.55092 2.21494,2.12204 6.20459,2.86902 15.35504,2.87491 15.97603,0.0103 24.54798,1.25962 31.27895,4.55887 2.3092,1.13184 5.46995,2.23545 7.1825,2.50781 8.22245,1.30765 11.379,2.04137 15.0585,3.50026 3.56715,1.41431 4.8387,1.63655 11.75,2.05357 4.26245,0.2572 14.04995,0.52697 21.74995,0.59949 15.1355,0.14254 14.479,0.0376 20.9364,3.34874 3.0885,1.58372 4.9732,2.16898 8.75,2.71716 3.7725,0.54755 5.6649,1.13461 8.7492,2.71421 5.554,2.84437 8.1601,3.12765 27.9108,3.03395 12.6358,-0.0599 17.947,0.10047 21.25,0.64184 3.3386,0.54721 8.3337,0.68978 20.6536,0.58952 8.9375,-0.0727 20.975,0.0813 26.75,0.34238 8.7029,0.39338 21.8995,0.80501 29.6727,0.92555 0.9199,0.0143 4.0699,-0.54665 7,-1.24648 4.0607,-0.9699 7.6454,-1.38758 15.0773,-1.75676 8.6604,-0.43021 22.0864,-2.01456 36.6057,-4.31966 2.6707,-0.424 7.5082,-1.66509 10.75,-2.75797 3.2419,-1.09289 7.6943,-2.44532 9.8943,-3.00541 4.5659,-1.16239 16.3521,-7.07787 24.8548,-12.47457 5.264,-3.34108 13.5807,-9.57441 19.7623,-14.81181 5.3817,-4.55969 11.1451,-6.86925 17.1329,-6.86561 2.8728,0.002 4.2361,0.25605 5.8278,1.08707 4.0495,2.11426 5.7024,5.80938 4.5999,10.2835 -0.621,2.5202 -1.0163,13.57801 -0.9495,26.55778 0.039,7.6557 -0.635,10.25744 -3.3719,13.00721 -1.021,1.02576 -3.1194,2.50514 -4.6633,3.28749 -2.9079,1.47358 -3.8952,2.37894 -7.5364,6.91072 -4.6211,5.75129 -4.6779,5.87625 -4.4488,9.77804 0.49,8.34285 0.3601,9.90071 -1.067,12.78795 -2.3031,4.65971 -11.1393,14.86047 -18.8908,21.808 -2.5693,2.30287 -9.7867,10.20102 -11.3696,12.442 -0.5828,0.825 -1.4195,2.94978 -1.8594,4.72173 -0.8789,3.54033 -2.5697,6.13993 -4.7147,7.24916 -0.7656,0.39592 -3.5102,1.08219 -6.0991,1.52505 -3.3343,0.57036 -5.8079,1.36364 -8.481,2.71989 -2.0757,1.05307 -5.3664,2.48912 -7.3128,3.19122 -6.4532,2.32778 -10.1693,4.26827 -15.8203,8.26097 -3.0762,2.17348 -7.3931,4.9622 -9.5931,6.19716 -2.2,1.23497 -7.109,3.99688 -10.9088,6.13758 -3.7999,2.14069 -9.7624,5.00284 -13.25,6.36024 -14.1767,5.5178 -14.1887,5.52015 -20.4454,4.0569 -3.4001,-0.7952 -3.825,-0.7934 -7.5,0.032 -3.5464,0.7967 -5.4746,0.83255 -21.5029,0.39995 -11.223,-0.3029 -20.8316,-0.30075 -26.5,0.006 -5.0068,0.2708 -15.557,0.3255 -24.1429,0.1251 -8.3875,-0.19575 -22.1125,-0.3845 -30.5,-0.41945 -17.0135,-0.0709 -14.5374,0.3324 -24.9535,-4.06445 -2.9107,-1.2287 -3.7474,-1.3477 -9.1549,-1.3025 -6.4905,0.0543 -11.0137,-0.6787 -16.945,-2.74575 -2.859,-0.99636 -4.9994,-1.34193 -9.4466,-1.52514 -3.1625,-0.13029 -10.0002,-0.81638 -15.195,-1.52465 -9.36365,-1.27666 -9.50145,-1.2808 -16,-0.48053 -5.80185,0.71449 -7.18685,0.72654 -12.05495,0.10495 -3.025,-0.38625 -6.9625,-0.8491 -8.75,-1.02857 -4.50957,-0.45275 -6.59607,-1.03874 -11.5,-3.22974 -4.41712,-1.97351 -7.48685,-2.74614 -13,-3.27203 -5.53158,-0.52764 -9.00368,-1.24057 -15.89922,-3.26459 -3.65707,-1.07345 -9.16957,-2.41347 -12.25,-2.97781 -8.64787,-1.58433 -10.21579,-1.95958 -15.85164,-3.79378 -2.88798,-0.93991 -7.56179,-2.14926 -10.38624,-2.68745 -3.19607,-0.609 -6.79093,-1.72399 -9.51937,-2.95254 -6.02723,-2.71392 -7.3475,-3.00306 -16.4117,-3.59421 -12.08674,-0.78827 -15.97967,-1.56614 -20.88148,-4.17247 -2.05453,-1.0924 -2.56802,-1.13377 -12.89737,-1.03924 -10.75766,0.0984 -10.75766,0.0984 -15.84986,2.63794 -3.02715,1.50965 -6.6557,2.87664 -8.94766,3.37086 -2.1205,0.45725 -5.76796,1.6856 -8.10546,2.72965 -2.3375,1.04405 -5.2625,2.34356 -6.5,2.8878 -1.2375,0.54423 -3.82841,2.15414 -5.75758,3.57757 -1.92917,1.42343 -9.80417,5.90728 -17.5,9.96411 -19.07271,10.05412 -21.49346,11.42067 -25.19786,14.22452 -4.37528,3.31165 -11.36293,7.9798 -13.79456,9.2157 -1.1,0.559 -3.6875,1.5127 -5.75,2.1192 -2.0625,0.6066 -6.7129,2.6621 -10.33424,4.5679 -7.40586,3.89736 -18.60021,8.27086 -25.98395,10.15166 -2.7125,0.6909 -6.95681,1.9465 -9.43181,2.7902 -2.475,0.8437 -7.2,2.1855 -10.5,2.9817 -6.46739,1.5605 -19.84159,5.6778 -29.5,9.0817 -6,2.1145 -6,2.1145 -18.5,2.4885 -13.90254,0.4159 -32.09867,0.4021 -48,-0.036 z M 388.07018,684.15637 c 0.82393,-0.31487 2.23952,-1.76431 3.41801,-3.49971 1.10639,-1.62923 3.27895,-3.90233 4.82792,-5.05134 3.11364,-2.30966 6.34247,-5.45239 9.26832,-9.02114 1.05635,-1.28848 3.23229,-3.23341 4.83543,-4.32208 1.60314,-1.08867 4.22635,-3.47791 5.82936,-5.30941 2.18947,-2.50155 3.68289,-3.68243 6.00284,-4.74656 1.69856,-0.77911 3.20602,-1.60707 3.34991,-1.83989 0.1439,-0.23283 0.59251,-2.01021 0.99692,-3.94972 0.8673,-4.15963 2.49114,-7.49976 5.24327,-10.78502 1.09874,-1.3116 2.37723,-3.5616 2.84105,-5 1.3472,-4.1778 3.03621,-6.65727 6.18592,-9.08091 2.51326,-1.93391 3.31446,-2.99016 5.50924,-7.26296 1.41257,-2.74997 4.21293,-7.10387 6.22304,-9.67533 2.01011,-2.57146 4.62585,-6.00755 5.81277,-7.63573 1.18691,-1.62819 4.47905,-5.35731 7.31587,-8.28691 6.21864,-6.42206 10.63944,-13.01944 12.49406,-18.64548 1.73447,-5.26157 2.91177,-7.54936 5.26095,-10.22335 2.23454,-2.54349 2.45401,-4.18737 0.7115,-5.32911 -1.07731,-0.70589 -2.61884,-0.74831 -13.4115,-0.36911 -12.19428,0.42846 -12.19428,0.42846 -16.90778,2.76009 -3.35109,1.65769 -5.77514,2.48711 -8.38649,2.86955 -3.80594,0.55741 -5.73366,1.31438 -8.37231,3.28766 -0.84992,0.6356 -4.12312,2.40923 -7.27377,3.94141 -3.86874,1.88139 -7.26282,4.02134 -10.45469,6.59167 -2.59943,2.09324 -5.99847,4.67432 -7.55343,5.73573 -3.55293,2.42521 -5.57024,4.85735 -6.98238,8.41814 -1.99969,5.04236 -3.3263,7.31216 -6.47284,11.07478 -3.49464,4.1789 -4.51988,6.25602 -5.98757,12.13068 -1.4962,5.9888 -2.26684,7.70304 -5.20759,11.5839 -4.47998,5.91219 -4.7787,6.78408 -4.65795,13.59548 0.10467,5.90452 0.10467,5.90452 -1.9411,9.90452 -2.62135,5.1254 -2.79422,6.0388 -2.20929,11.67304 0.31948,3.07723 0.31192,6.66288 -0.0221,10.5 -0.37018,4.25211 -0.34696,6.97561 0.0859,10.07696 0.67591,4.84276 1.09342,5.87508 2.62985,6.50239 1.24278,0.50743 4.90789,0.18681 6.99871,-0.61224 z"
     id="path532"
     inkscape:connector-curvature="0" />
</svg>
