<?xml version="1.0" encoding="UTF-8" standalone="no"?>
<!-- Created with Inkscape (http://www.inkscape.org/) -->

<svg
   xmlns:dc="http://purl.org/dc/elements/1.1/"
   xmlns:cc="http://creativecommons.org/ns#"
   xmlns:rdf="http://www.w3.org/1999/02/22-rdf-syntax-ns#"
   xmlns:svg="http://www.w3.org/2000/svg"
   xmlns="http://www.w3.org/2000/svg"
   xmlns:sodipodi="http://sodipodi.sourceforge.net/DTD/sodipodi-0.dtd"
   xmlns:inkscape="http://www.inkscape.org/namespaces/inkscape"
   version="1.1"
   id="svg183"
   width="1000"
   height="1000"
   viewBox="0 0 1000 1000"
   sodipodi:docname="fatou_bdc_f.svg"
   inkscape:version="0.92.2 5c3e80d, 2017-08-06">
  <metadata
     id="metadata189">
    <rdf:RDF>
      <cc:Work
         rdf:about="">
        <dc:format>image/svg+xml</dc:format>
        <dc:type
           rdf:resource="http://purl.org/dc/dcmitype/StillImage" />
        <dc:title></dc:title>
      </cc:Work>
    </rdf:RDF>
  </metadata>
  <defs
     id="defs187" />
  <sodipodi:namedview
     pagecolor="#ffffff"
     bordercolor="#666666"
     borderopacity="1"
     objecttolerance="10"
     gridtolerance="10"
     guidetolerance="10"
     inkscape:pageopacity="0"
     inkscape:pageshadow="2"
     inkscape:window-width="1027"
     inkscape:window-height="480"
     id="namedview185"
     showgrid="false"
     inkscape:zoom="0.19666667"
     inkscape:cx="354.5"
     inkscape:cy="600"
     inkscape:window-x="0"
     inkscape:window-y="30"
     inkscape:window-maximized="0"
     inkscape:current-layer="svg183" />
  <path
     style="fill:#000000;stroke-width:0.5"
     d="m 462.10592,848.2752 c -1.65,-0.6885 -4.65889,-1.7042 -6.68643,-2.25705 -6.71922,-1.8321 -7.83906,-2.90775 -11.27993,-10.83475 -1.17303,-2.7024 -2.72078,-5.8449 -3.43945,-6.98335 -0.71866,-1.13845 -1.86645,-4.05645 -2.55064,-6.48455 -0.68419,-2.42805 -1.59543,-5.4071 -2.02497,-6.6201 -0.42955,-1.213 -1.21752,-4.813 -1.75104,-8 -0.82888,-4.95135 -0.94585,-7.7227 -0.80377,-19.04455 0.12135,-9.66949 0.38513,-14.33091 0.97617,-17.25 0.44544,-2.2 0.80992,-5.25776 0.80997,-6.79502 5e-5,-1.53726 0.42723,-4.46511 0.94928,-6.50634 0.52206,-2.04123 1.1006,-5.05847 1.28565,-6.70498 1.0652,-9.47794 1.94996,-14.4132 3.27654,-18.27682 0.81874,-2.38454 1.48862,-4.79137 1.48862,-5.34851 0,-0.55715 0.42988,-2.44295 0.95529,-4.19066 2.21497,-7.36783 4.54513,-16.25985 4.54493,-17.34368 -1.2e-4,-0.64131 0.54693,-2.77881 1.21568,-4.75 0.66875,-1.97119 1.36437,-5.15899 1.54581,-7.08399 0.18145,-1.925 0.84896,-5.1875 1.48335,-7.25 0.63439,-2.0625 1.52872,-5.775 1.9874,-8.25 0.45868,-2.475 1.48374,-6.975 2.27791,-10 1.77107,-6.74595 2.82734,-12.65223 3.2638,-18.25 0.23746,-3.04554 0.81986,-5.5235 2.05503,-8.74361 0.94801,-2.47148 2.14992,-6.63398 2.67091,-9.25 2.6423,-13.26755 5.05523,-22.4978 7.12527,-27.25639 1.00601,-2.31261 1.66063,-4.85964 1.92961,-7.50777 0.22635,-2.2284 1.41446,-7.31528 2.67605,-11.45744 1.24793,-4.09731 2.26896,-7.94019 2.26896,-8.53974 0,-1.65493 -1.21658,-2.4458 -7.75,-5.03813 -5.74271,-2.27858 -6.17362,-2.55382 -10.04861,-6.41879 -3.25849,-3.25007 -4.44258,-4.86755 -6.06739,-8.28813 -2.74458,-5.77794 -4.4689,-10.52639 -5.44701,-15 -1.49712,-6.8475 -1.46685,-7.35956 0.7737,-13.09018 3.2637,-8.34748 6.29688,-10.90982 12.9145,-10.90982 3.05419,0 12.49137,-2.03121 16.62481,-3.57824 1.87924,-0.70334 4.48158,-1.11521 8.21861,-1.30075 5.02541,-0.2495 5.56318,-0.37354 6.63558,-1.53068 0.64182,-0.69255 1.51432,-2.51493 1.93888,-4.04975 0.42456,-1.53482 1.2073,-4.23472 1.73943,-5.99979 0.55098,-1.82763 0.9675,-4.68663 0.9675,-6.64106 0,-3.70132 0.65926,-5.75199 3.04377,-9.46795 0.95954,-1.49531 1.6707,-3.46857 1.9844,-5.50614 0.26891,-1.7466 1.14381,-5.08814 1.94423,-7.42564 0.80042,-2.3375 2.17297,-6.5 3.05012,-9.25 0.87715,-2.75 2.15428,-6.10737 2.83806,-7.46083 0.68379,-1.35347 1.75043,-4.50347 2.37031,-7 1.20202,-4.84105 3.73522,-11.91044 6.23319,-17.39492 0.84063,-1.84566 2.00577,-5.09572 2.5892,-7.22235 0.58344,-2.12663 2.35481,-6.80404 3.93637,-10.39425 1.58158,-3.59021 3.36477,-8.01792 3.96267,-9.83936 1.99152,-6.06699 15.96831,-32.95568 21.02909,-40.45599 1.58378,-2.34723 3.78597,-5.86719 4.89376,-7.82211 4.19264,-7.39882 16.77961,-22.71131 24.87483,-30.26109 6.06462,-5.65601 6.74993,-6.1336 12.72019,-8.86479 5.71329,-2.61363 8.58526,-2.78142 14.84267,-0.86716 5.90112,1.80525 6.89532,2.43793 12.61091,8.02521 5.96531,5.8314 7.39059,7.72821 10.82623,14.40778 1.375,2.67327 3.70649,7.16557 5.1811,9.98288 1.67714,3.20427 3.10419,6.81578 3.81099,9.64468 0.62144,2.48726 1.95402,6.61873 2.96129,9.18103 1.00727,2.56231 2.27358,6.49981 2.81402,8.75 0.54044,2.2502 1.3051,5.14588 1.69924,6.43485 0.39414,1.28897 0.87356,3.98896 1.06538,6 0.19182,2.01103 0.87849,5.00642 1.52593,6.65642 0.64744,1.65 1.51149,5.4114 1.9201,8.35867 0.57966,4.18103 1.1307,6.12869 2.50744,8.86251 1.98157,3.93489 2.14574,5.57123 0.90844,9.05493 -0.8352,2.35158 -0.82607,2.52997 0.375,7.31712 1.2671,5.05036 1.2335,4.46822 1.58165,27.40677 0.0666,4.38638 -0.84399,19.0388 -1.37244,22.0847 -0.18276,1.05342 -0.75,3.3778 -1.26053,5.1653 -0.51053,1.7875 -1.29042,5.79781 -1.73308,8.91179 -0.44266,3.11398 -1.12774,6.57696 -1.52239,7.69551 -1.19596,3.38973 -1.18054,3.39409 11.97408,3.38265 6.36008,-0.006 12.98301,-0.21528 14.71762,-0.4661 1.73461,-0.25083 10.62211,-0.60378 19.75,-0.78433 16.59616,-0.32828 16.59616,-0.32828 18.81719,0.8411 1.49399,0.7866 2.55785,1.82407 3.25,3.16938 0.95386,1.85401 1.03973,3.01493 1.17639,15.90382 0.13535,12.76532 0.063,14.21153 -0.88351,17.6616 -1.83135,6.67533 -4.6611,10.96098 -9.20315,13.93818 -2.86309,1.87669 -5.94253,2.85661 -12.53875,3.99003 -3.71108,0.63767 -5.38089,0.67305 -9.75,0.20654 -2.8996,-0.3096 -11.68451,-0.66443 -19.52201,-0.78852 -7.8375,-0.12409 -15.9375,-0.25317 -18,-0.28687 -2.61879,-0.0428 -4.78397,0.26853 -7.17767,1.03198 -2.69103,0.85829 -4.64507,1.09324 -9.09245,1.09324 -3.11563,0 -6.26938,0.22987 -7.00834,0.51082 -2.15683,0.82002 -12.0822,1.98076 -16.97484,1.98514 -2.47681,0.002 -5.17681,0.21004 -6,0.46181 -4.08709,1.25007 -13.10046,5.73059 -16.10816,8.00732 -1.86369,1.41076 -4.9785,3.32919 -6.92178,4.26317 -1.94328,0.93399 -3.81596,2.03881 -4.16151,2.45517 -1.18595,1.42898 -1.75629,7.65908 -1.13106,12.35509 0.48017,3.60648 0.44409,5.06854 -0.21643,8.76975 -0.50268,2.81672 -0.68557,5.66398 -0.4999,7.78255 0.32625,3.72282 -0.41938,7.9964 -2.40517,13.78531 -1.00118,2.91862 -1.23302,4.52832 -1.18822,8.25 0.0513,4.25825 -0.0889,4.96907 -1.77312,8.98956 -1.00584,2.40113 -2.18951,6.11204 -2.63039,8.24647 -0.44088,2.13442 -1.35319,5.23236 -2.02736,6.8843 -1.75512,4.30063 -4.08219,14.39086 -4.28689,18.58813 -0.15485,3.17492 -0.38745,3.8933 -2.03521,6.28578 -1.02321,1.48565 -2.39222,4.26009 -3.04225,6.16541 -0.65004,1.90532 -1.90428,5.15172 -2.78722,7.21422 -0.88293,2.0625 -2.72947,6.675 -4.10341,10.25 -1.37394,3.575 -3.08242,7.625 -3.79661,9 -0.71419,1.375 -1.59083,4.15346 -1.94808,6.17437 -0.35725,2.0209 -1.10476,4.3834 -1.66115,5.25 -2.66821,4.15588 -7.94108,16.02115 -12.25448,27.57563 -0.71862,1.925 -2.04928,4.625 -2.95703,6 -0.90774,1.375 -2.16639,4.075 -2.79701,6 -0.63061,1.925 -2.12871,5.65997 -3.32912,8.29995 -1.20041,2.63997 -2.41155,6.01497 -2.69142,7.5 -0.27988,1.48502 -1.38336,4.61255 -2.45217,6.95005 -1.06882,2.3375 -2.41004,5.44835 -2.98051,6.913 -0.57046,1.46465 -1.68633,3.48965 -2.4797,4.5 -1.74176,2.2181 -5.17372,8.228 -7.04507,12.337 -2.08478,4.57765 -8.71129,14.0311 -12.97201,18.506 -4.75983,4.99915 -10.29165,12.0631 -12.18685,15.5622 -1.67863,3.0993 -3.95829,5.12985 -8.08227,7.19915 -3.59847,1.8056 -5.60982,1.8492 -9.54514,0.207 z m 22.77523,-104.88126 c 0.53445,-0.8762 1.44722,-3.05559 2.02838,-4.84309 0.58116,-1.7875 1.70724,-4.42853 2.50239,-5.86896 1.78975,-3.24217 5.0193,-10.49846 7.17942,-16.13104 3.42481,-8.93031 7.92472,-17.20697 10.71993,-19.71711 2.004,-1.79961 3.03195,-4.11918 3.5822,-8.08325 0.37062,-2.66992 1.53273,-6.46072 3.58664,-11.69964 4.89318,-12.48104 6.42265,-17.00261 7.1756,-21.21334 0.69654,-3.89518 1.57547,-5.76826 4.70968,-10.03666 1.75301,-2.38739 3.75689,-9.35627 4.74453,-16.5 0.44354,-3.20818 1.68657,-7.99532 3.46863,-13.35833 2.43601,-7.33104 2.77737,-8.84688 2.77737,-12.33333 0,-4.35198 -0.24765,-4.70774 -2.75,-3.95051 -0.825,0.24965 -5.27955,0.74332 -9.89901,1.09705 -4.61945,0.35372 -8.63704,0.88117 -8.92798,1.1721 -0.93819,0.9382 -2.94115,7.74469 -3.65607,12.42412 -0.38241,2.5031 -1.47909,6.5806 -2.43707,9.0611 -2.29998,5.95542 -3.72284,11.12283 -4.3155,15.67274 -0.26616,2.04328 -1.28563,6.19006 -2.26548,9.21506 -0.97985,3.025 -1.96972,7.3 -2.19969,9.5 -0.24187,2.31376 -0.98025,5.37006 -1.75156,7.25 -1.71151,4.17154 -4.17385,13.98713 -4.74524,18.91593 -0.24446,2.10874 -0.89295,4.86126 -1.44109,6.11672 -1.60033,3.66544 -3.11131,10.1967 -3.11131,13.44874 0,1.83953 -0.39726,4.02959 -1.02273,5.63824 -0.56251,1.4467 -1.23193,4.563 -1.48762,6.92509 -0.25568,2.36209 -1.27506,6.86209 -2.26528,10 -3.06781,9.72151 -4.58211,18.43087 -3.40863,19.60435 0.54316,0.54316 2.19597,-0.64437 3.20949,-2.30598 z m 63.32347,-231.07001 c 4.60541,-0.98935 8.37383,-0.97955 12.40176,0.0322 3.05819,0.7682 3.36257,0.75862 6.60276,-0.20763 5.82117,-1.73593 14.05577,-3.0977 18.73166,-3.0977 5.0512,0 5.29675,-0.0923 10.25031,-3.85464 3.29201,-2.50033 4.21534,-3.6705 11.29069,-14.30918 8.19336,-12.31977 8.20321,-12.34098 10.71674,-23.08618 0.38598,-1.65 1.23913,-5.025 1.89589,-7.5 0.75689,-2.85227 1.42492,-7.48511 1.82442,-12.65243 0.56732,-7.33788 0.54223,-8.66954 -0.2511,-13.32806 -0.48475,-2.8466 -1.07846,-7.95652 -1.31932,-11.35538 -0.24087,-3.39887 -0.90022,-8.2551 -1.46523,-10.79165 -0.61809,-2.77486 -1.02728,-6.40192 -1.02728,-9.10577 0,-3.60827 -0.25249,-5.16125 -1.2812,-7.8803 -0.70466,-1.86253 -1.92734,-6.0946 -2.71705,-9.4046 -2.06689,-8.66306 -3.29362,-11.73181 -4.68979,-11.73181 -1.83209,0 -5.26322,2.52363 -10.58465,7.7851 -3.82414,3.78105 -5.61232,6.01618 -7.49939,9.37383 -1.36286,2.42491 -3.0958,5.23741 -3.85098,6.25 -5.30454,7.11263 -11.24218,16.92587 -12.41218,20.51381 -0.59674,1.82999 -1.95585,4.92618 -3.02024,6.88042 -1.06439,1.95424 -2.51642,5.10424 -3.22673,7 -1.33501,3.56302 -2.77671,6.36099 -5.84472,11.34306 -0.98093,1.59293 -2.04877,4.06792 -2.37296,5.5 -1.04902,4.63381 -6.9947,21.86801 -8.73989,25.33348 -0.9329,1.8525 -2.28533,5.25865 -3.00539,7.56924 -0.72006,2.31058 -2.32175,6.98669 -3.55932,10.39135 -1.86307,5.12551 -4.40137,15.23552 -4.8403,19.27891 -0.12359,1.13848 1.88268,2.34293 3.38775,2.0338 0.55387,-0.11376 2.62645,-0.55473 4.60574,-0.97992 z"
     id="path193"
     inkscape:connector-curvature="0" />
</svg>
