<?xml version="1.0" encoding="UTF-8" standalone="no"?>
<!-- Created with Inkscape (http://www.inkscape.org/) -->

<svg
   xmlns:dc="http://purl.org/dc/elements/1.1/"
   xmlns:cc="http://creativecommons.org/ns#"
   xmlns:rdf="http://www.w3.org/1999/02/22-rdf-syntax-ns#"
   xmlns:svg="http://www.w3.org/2000/svg"
   xmlns="http://www.w3.org/2000/svg"
   xmlns:sodipodi="http://sodipodi.sourceforge.net/DTD/sodipodi-0.dtd"
   xmlns:inkscape="http://www.inkscape.org/namespaces/inkscape"
   version="1.1"
   id="svg620"
   width="1000"
   height="1000"
   viewBox="0 0 1000 1000"
   sodipodi:docname="Saida_lettre_m3_bdc.svg"
   inkscape:version="0.92.2 5c3e80d, 2017-08-06">
  <metadata
     id="metadata626">
    <rdf:RDF>
      <cc:Work
         rdf:about="">
        <dc:format>image/svg+xml</dc:format>
        <dc:type
           rdf:resource="http://purl.org/dc/dcmitype/StillImage" />
        <dc:title></dc:title>
      </cc:Work>
    </rdf:RDF>
  </metadata>
  <defs
     id="defs624" />
  <sodipodi:namedview
     pagecolor="#ffffff"
     bordercolor="#666666"
     borderopacity="1"
     objecttolerance="10"
     gridtolerance="10"
     guidetolerance="10"
     inkscape:pageopacity="0"
     inkscape:pageshadow="2"
     inkscape:window-width="1126"
     inkscape:window-height="553"
     id="namedview622"
     showgrid="false"
     inkscape:zoom="0.27425781"
     inkscape:cx="516.45549"
     inkscape:cy="600"
     inkscape:window-x="0"
     inkscape:window-y="0"
     inkscape:window-maximized="0"
     inkscape:current-layer="svg620" />
  <path
     style="fill:#000000;stroke-width:0.5"
     d="m 61.296672,687.37556 c -2.296888,-1.1761 -3.926272,-3.67835 -4.438274,-6.81585 -0.183169,-1.12245 -0.359713,-15.18495 -0.392319,-31.25002 -0.05331,-26.26361 0.02734,-29.50119 0.799703,-32.10485 1.120377,-3.77682 3.459333,-6.31735 7.666135,-8.32683 4.32335,-2.06514 7.736595,-2.87405 13.9029,-3.29487 6.03433,-0.41182 11.320825,-1.88033 18.000004,-5.00013 3.423509,-1.59911 6.774309,-2.70608 10.627429,-3.51088 3.97172,-0.82957 6.55722,-1.69537 8.78757,-2.94265 1.73806,-0.97198 6.48989,-3.01705 10.55962,-4.5446 9.74735,-3.65862 10.67136,-4.16954 13.47447,-7.45063 2.80371,-3.28177 5.10498,-4.69558 10.55091,-6.48208 3.32944,-1.0922 4.8801,-2.0118 9.25,-5.48555 6.13068,-4.87346 6.30466,-5.05579 8.88891,-9.31611 1.21683,-2.00603 3.0592,-4.1112 4.81339,-5.5 3.35666,-2.65747 5.57859,-5.84214 7.80152,-11.18185 1.69627,-4.07464 2.76438,-5.41927 11.81847,-14.8782 3.65278,-3.8161 4.71534,-5.26258 5.14211,-7 1.80896,-7.36456 2.38804,-8.27347 8.62832,-13.54299 1.53259,-1.29418 3.41529,-3.43168 4.18378,-4.75 0.7685,-1.31833 2.23373,-3.52196 3.25607,-4.89696 1.02235,-1.375 2.57083,-3.92475 3.44107,-5.66611 0.90561,-1.81213 3.14885,-4.84127 5.24554,-7.08327 3.69989,-3.9563 7.10972,-9.13147 10.54251,-16.00062 1.03071,-2.0625 2.7127,-4.9875 3.73774,-6.5 1.02504,-1.5125 2.59602,-4.20237 3.49108,-5.9775 0.89505,-1.77512 3.07555,-5.53443 4.84555,-8.35403 1.77,-2.81959 4.08158,-7.28057 5.13683,-9.91326 1.38853,-3.46415 2.73744,-5.78396 4.88206,-8.39597 1.62987,-1.98508 3.71738,-4.95924 4.63891,-6.60924 0.92154,-1.65 2.96242,-4.72443 4.5353,-6.83207 2.17103,-2.90917 3.245,-4.98839 4.45928,-8.63324 1.85427,-5.56586 3.20776,-8.26297 6.00752,-11.97123 1.10767,-1.4671 2.5531,-4.25261 3.21205,-6.19001 0.65895,-1.9374 2.07835,-4.98202 3.15421,-6.76582 1.1556,-1.91601 2.43053,-5.03916 3.1154,-7.63167 0.89978,-3.40604 1.77377,-5.29082 3.90435,-8.41977 5.84198,-8.5795 9.08671,-14.62336 12.37803,-23.05619 1.82465,-4.675 4.11533,-9.9625 5.09042,-11.75 0.97508,-1.7875 2.50869,-5.3875 3.40802,-8 0.89934,-2.6125 2.24279,-6.18657 2.98545,-7.94238 0.74266,-1.75581 1.67328,-5.35581 2.06805,-8 0.84005,-5.62672 8.23441,-28.11872 11.19661,-34.05762 2.47539,-4.96288 6.11832,-13.9129 7.39418,-18.16615 1.64812,-5.4942 2.60862,-6.54722 8.59727,-9.42539 2.8875,-1.38775 7.25747,-3.76031 9.71106,-5.27236 6.5249,-4.02104 8.68424,-4.6361 16.27646,-4.6361 7.17476,0 9.79956,0.58474 15.26248,3.40011 4.10755,2.11686 9.34966,7.14428 11.32298,10.85925 0.72764,1.36985 1.79873,4.24546 2.38021,6.39023 0.58148,2.14478 1.71067,5.19404 2.50932,6.77614 2.557,5.06541 3.0816,7.74998 2.95717,15.13304 -0.0932,5.52727 0.17268,8.47426 1.5282,16.94123 0.90254,5.6375 2.28043,12.8375 3.06197,16 0.78155,3.1625 1.68119,7.20991 1.9992,8.99424 0.31801,1.78433 1.47571,5.91941 2.57268,9.18908 1.33312,3.97352 2.15929,7.54014 2.49147,10.75576 0.27334,2.64601 0.94427,8.62927 1.49095,13.29614 0.54668,4.66687 1.19485,10.77175 1.44038,13.56639 0.27673,3.14973 1.2189,7.90776 2.47863,12.51731 2.08371,7.62461 2.38605,10.34395 2.04923,18.43108 -0.19753,4.7426 0.71322,7.57339 4.18324,13.00244 4.28028,6.69673 4.64013,7.61365 4.90478,12.49756 0.17365,3.20463 0.56765,5.20556 1.36874,6.95103 0.70171,1.52894 1.27127,4.06833 1.51397,6.75 0.24778,2.73779 0.85505,5.41168 1.67223,7.363 2.57669,6.15277 2.64725,10.33296 0.27483,16.28052 -0.88609,2.22139 -1.01307,3.30929 -0.77683,6.65545 0.15532,2.2 0.63857,5.18125 1.0739,6.625 0.65283,2.16513 0.99069,2.625 1.92857,2.625 1.59857,0 3.0511,-1.71652 8.49298,-10.03651 2.62125,-4.00759 6.3449,-9.18259 8.27478,-11.5 2.00654,-2.40948 5.49925,-7.69918 8.15764,-12.35475 4.68276,-8.20078 5.47301,-9.24958 10.48682,-13.91782 2.21932,-2.06636 3.30321,-3.70295 5.62944,-8.5 2.82008,-5.81545 3.03702,-6.09932 10.27143,-13.44092 6.02406,-6.11331 7.67506,-8.10589 8.92956,-10.77698 1.70953,-3.63998 10.08243,-13.19572 15.34836,-17.51664 1.78647,-1.46588 4.08632,-4.10425 5.73317,-6.57709 3.19725,-4.80084 5.4814,-6.5378 11.2884,-8.58421 5.05085,-1.77994 6.46185,-2.87322 10.7912,-8.36163 4.32315,-5.48048 9.565,-9.96831 15.7303,-13.46746 6.62205,-3.75837 9.0409,-5.73351 12.24735,-10.00081 3.257,-4.3346 7.7174,-8.5748 10.5288,-10.00907 1.07465,-0.54826 4.7012,-2.0088 8.05895,-3.24564 3.35775,-1.23685 7.74035,-2.91906 9.73915,-3.73826 4.4619,-1.82874 8.2105,-2.26325 13.11585,-1.52033 5.70555,0.86411 8.9464,2.72324 14.75,8.46145 2.75,2.719 5.85535,6.15707 6.90075,7.64015 2.9423,4.17417 8.94725,14.47306 9.71785,16.66676 0.524,1.49167 0.69455,5.31724 0.7021,15.75 0.009,12.06228 -0.11965,14.3973 -1.03035,18.73441 -1.4723,7.0118 -1.36715,10.562 0.4769,16.09715 1.8542,5.5656 2.56655,6.66393 3.82845,5.90272 2.6225,-1.58194 6.93795,-8.73535 10.70755,-17.74915 1.6893,-4.03935 3.9785,-8.52424 5.287,-10.35793 1.26925,-1.77868 2.7403,-4.3845 3.26905,-5.7907 0.52875,-1.40621 1.82605,-3.90674 2.8829,-5.55674 1.05685,-1.65 2.61405,-5.08839 3.46045,-7.64088 1.7074,-5.14901 4.4226,-10.42152 8.3208,-16.15788 1.86205,-2.74015 2.8255,-4.79464 3.4572,-7.37238 1.35615,-5.53377 8.1592,-16.00631 12.16745,-18.73043 3.40025,-2.31091 6.6305,-5.74215 8.3519,-8.87152 1.15665,-2.10268 2.24395,-3.21142 4.75,-4.84349 5.33205,-3.47253 5.46145,-3.59056 6.77305,-6.17887 2.09865,-4.14147 4.3978,-6.24465 9.47085,-8.66344 3.6339,-1.73264 5.0805,-2.74642 6.7585,-4.73645 3.1426,-3.72693 5.21325,-4.55466 11.39405,-4.55466 4.1304,0 5.6713,-0.2223 8.2383,-1.1885 3.4696,-1.30597 4.94015,-1.59685 11.61525,-2.29762 2.9645,-0.31122 5.8641,-1.01086 8.49775,-2.05043 5.36155,-2.11633 7.2958,-1.89551 15.1223,1.72641 6.2644,2.89904 9.10255,3.77744 12.271,3.79792 3.88045,0.0251 6.79875,1.94386 9.61645,6.3228 1.16725,1.81401 3.3015,3.79764 7.3201,6.80348 6.9179,5.17454 9.0383,7.44755 11.83285,12.68478 1.18825,2.22686 3.72505,6.02522 5.63735,8.44081 1.91225,2.41558 4.3095,5.88111 5.3272,7.70116 1.01765,1.82005 2.9981,5.13768 4.401,7.37249 1.4029,2.23481 3.197,5.94731 3.9869,8.25 1.27885,3.72811 1.4446,4.92607 1.5134,10.9367 0.0425,3.7125 0.3227,7.9875 0.62275,9.5 0.3,1.5125 0.69365,3.9875 0.87475,5.5 0.18105,1.5125 1.0054,4.30574 1.83185,6.20719 1.3274,3.05399 1.46495,3.81205 1.1796,6.5 -0.82275,7.74943 -0.84055,10.32509 -0.10715,15.54281 0.4336,3.08475 1.33275,6.86794 2.0475,8.61506 1.413,3.45382 1.61405,6.58725 0.6818,10.62595 -0.4614,1.99896 -0.45555,3.38286 0.0265,6.25144 0.553,3.29121 0.5058,4.28802 -0.44245,9.34585 -2.5992,13.8636 -2.9427,16.40656 -2.9597,21.9117 -0.01,3.1625 -0.253,7.4375 -0.54045,9.5 -0.28745,2.0625 -0.70545,6.47085 -0.92885,9.79634 -0.22335,3.32548 -0.5914,6.34605 -0.81775,6.71236 -0.80565,1.3035 -0.7394,15.50904 0.0894,19.18308 0.52675,2.33497 0.66825,4.42524 0.44005,6.5 -0.18505,1.68202 -0.5141,8.00822 -0.73125,14.05822 -0.2645,7.36779 -0.6808,12.23826 -1.2607,14.75 -0.4762,2.0625 -0.90325,5.325 -0.949,7.25 -0.0764,3.21339 0.0656,3.74567 1.7341,6.5 0.99955,1.65 2.34955,4.0125 3,5.25 1.0137,1.92851 1.7369,2.52392 5.0613,4.1671 4.71325,2.32967 6.1062,4.29687 6.80115,9.60501 0.2504,1.91284 0.42365,16.64039 0.38495,32.72789 -0.0703,29.25 -0.0703,29.25 -1.39815,32.08856 -0.91665,1.95954 -1.9368,3.24154 -3.2943,4.13988 -2.7592,1.82596 -16.46115,6.65986 -20.77655,7.32977 -5.52605,0.85784 -30.7296,0.30084 -34.5496,-0.76354 -4.0732,-1.13494 -9.50645,-4.08229 -11.50825,-6.24282 -0.9182,-0.99101 -3.1288,-3.37685 -4.9125,-5.30185 -4.03885,-4.35889 -4.3254,-4.9186 -4.6444,-9.07114 -0.2512,-3.27074 -0.3379,-3.45057 -3.0166,-6.25892 -4.52115,-4.73995 -4.85885,-5.91088 -5.24005,-18.16994 -0.3054,-9.82181 -0.41415,-10.72446 -1.6838,-13.97521 -2.22575,-5.69866 -2.4932,-12.33943 -0.8329,-20.68241 0.2981,-1.49783 0.40295,-4.87995 0.2403,-7.75 -0.26025,-4.59306 -0.16155,-5.47384 1.00675,-8.98283 0.71245,-2.13974 1.29535,-4.68945 1.29535,-5.66601 0,-0.97656 0.55435,-3.38836 1.2319,-5.35955 1.30375,-3.79287 1.5019,-7.34004 1.9923,-35.65944 0.1481,-8.55461 0.23225,-9.2396 1.46645,-11.93543 1.5214,-3.32317 1.6239,-5.25525 0.486,-9.16216 -0.6949,-2.38576 -0.7745,-4.34863 -0.51005,-12.57696 0.30975,-9.63911 0.29855,-9.7898 -0.98615,-13.25 -2.9667,-7.99059 -3.28595,-9.91061 -2.91005,-17.5 0.502,-10.13362 0.446,-11.05713 -0.9711,-16.01049 -0.7064,-2.46923 -1.7287,-6.6641 -2.27175,-9.32193 -1.11785,-5.47095 -3.8655,-12.70521 -5.77795,-15.21252 -1.6108,-2.11192 -5.1714,-4.22614 -8.0105,-4.75655 -1.2009,-0.22435 -3.4541,-0.19833 -5.02955,0.0581 -3.581,0.58283 -11.7595,4.51673 -13.21785,6.35788 -0.98895,1.24854 -1.0649,1.75044 -0.76785,5.07577 0.4739,5.30461 -0.67145,7.41639 -7.49915,13.82672 -11.83945,11.11579 -11.2247,10.44679 -11.2247,12.21533 0,1.3172 0.5012,2.12792 2.53205,4.09566 6.14155,5.9507 5.04075,10.41044 -3.6264,14.692 -7.7946,3.85051 -14.93485,10.30028 -20.32005,18.35507 -0.9652,1.44375 -3.1231,4.26316 -4.7953,6.26536 -6.78845,8.12819 -6.29035,7.18433 -6.29035,11.91992 0,4.23255 0,4.23255 -2.30835,6.70035 -2.058,2.20019 -2.27255,2.64517 -1.9787,4.10358 0.9046,4.48942 0.85125,7.64719 -0.17885,10.58906 -0.56875,1.6243 -1.03535,3.6493 -1.0369,4.5 -0.006,3.19401 -1.06555,5.45432 -3.99335,8.51682 -1.78435,1.86643 -3.4625,4.2779 -4.3703,6.2799 -1.83965,4.05715 -2.8552,5.1111 -10.75785,11.16439 -3.5059,2.68545 -6.6933,5.4994 -7.0831,6.25325 -0.38985,0.75384 -1.4926,4.54303 -2.45065,8.42042 -0.958,3.8774 -2.12925,7.86622 -2.60275,8.86405 -0.4735,0.99783 -2.75865,3.66681 -5.07815,5.93107 -5.9643,5.82225 -6.24245,6.36725 -6.6593,13.0478 -0.4228,6.7757 -1.1576,8.43418 -5.5246,12.46988 -3.1221,2.88523 -3.1221,2.88523 -2.6904,8.24219 0.58235,7.22672 0.4262,10.57476 -0.7279,15.60695 -3.37855,14.73141 -3.23735,13.40677 -1.82855,17.1495 1.84975,4.91437 1.69405,6.83197 -0.9803,12.0731 -2.49715,4.89383 -2.70445,6.49776 -1.49,11.5274 0.89095,3.68978 0.93935,7.71642 0.1255,10.44199 -0.69325,2.32176 -3.0298,4.81581 -10.59375,11.30801 -2.7234,2.3375 -6.39335,5.56315 -8.1554,7.1681 -1.7621,1.60495 -4.48235,3.5085 -6.04505,4.23005 -2.49925,1.15405 -3.62665,1.33605 -9.36455,1.51185 -9.30485,0.2851 -12.33105,-0.29905 -19.2019,-3.70655 -4.4056,-2.1849 -6.2495,-3.417 -8,-5.3456 -1.25115,-1.3785 -3.766,-4.10415 -5.5885,-6.0571 -4.5088,-4.83145 -4.93635,-5.8047 -4.93635,-11.23644 0,-2.79229 -0.38885,-6.12263 -1.03015,-8.82291 -0.8165,-3.43776 -0.9594,-5.14894 -0.689,-8.24891 0.2855,-3.27273 0.1595,-4.50949 -0.77155,-7.57482 -0.8298,-2.73201 -1.03605,-4.33144 -0.811,-6.29057 0.1659,-1.4449 0.4395,-3.8336 0.6079,-5.30822 0.42265,-3.70092 -0.50075,-7.52322 -2.67105,-11.05625 -2.3472,-3.82093 -2.40225,-5.67356 -0.23515,-7.90945 1.9002,-1.9605 2.00535,-3.31179 0.5188,-6.66462 -1.388,-3.13048 -1.36245,-5.65476 0.0976,-9.6394 1.1729,-3.20084 1.1729,-3.20084 0.017,-7.63169 -0.84285,-3.23054 -1.0745,-5.14016 -0.85505,-7.04916 0.9589,-8.34129 0.9802,-7.90647 -0.63225,-12.9174 -2.0745,-6.44665 -2.29535,-8.52248 -1.34145,-12.60693 0.4375,-1.87332 0.79545,-5.07468 0.79545,-7.11414 0,-2.03946 0.4739,-6.58175 1.0531,-10.09397 0.84135,-5.10168 0.99085,-7.54218 0.74345,-12.13587 -0.373,-6.92528 0.15765,-10.19602 2.5917,-15.97503 1.64375,-3.90266 1.78705,-4.62333 1.64545,-8.27497 -0.3453,-8.90295 -0.21065,-10.36185 1.4045,-15.22007 1.16685,-3.50965 1.6418,-6.00994 1.8522,-9.75 0.15565,-2.76646 0.70435,-6.94243 1.21935,-9.27993 1.53705,-6.97645 3.5426,-28.33937 2.8339,-30.18621 -0.5279,-1.37571 -2.0457,-0.91076 -4.09845,1.2555 -1.07845,1.13811 -3.3186,2.68233 -4.978,3.43161 -3.8946,1.75847 -4.82075,2.85981 -5.35815,6.3717 -0.657,4.29298 -2.55115,7.78049 -5.42595,9.99016 -2.4061,1.84941 -3.50495,3.57907 -5.16945,8.13724 -0.45795,1.25408 -2.49895,4.22354 -4.611,6.70863 -2.0841,2.45224 -5.1058,6.41652 -6.71485,8.8095 -1.6816,2.50088 -4.402,5.66312 -6.398,7.43705 -2.3439,2.08311 -4.00515,4.09515 -5.11129,6.1905 -0.90132,1.70738 -2.24519,4.00432 -2.98636,5.10432 -1.61433,2.39586 -2.30101,4.5247 -2.70183,8.37613 -0.38797,3.7279 -1.27617,5.92536 -5.12074,12.66894 -2.12306,3.72399 -3.47534,6.80185 -4.11758,9.37188 -1.24808,4.9944 -2.24949,6.61336 -5.72446,9.25459 -3.43052,2.60747 -3.99047,3.40412 -5.79789,8.24896 -1.51397,4.05826 -7.08359,13.97 -10.12321,18.01535 -1.92683,2.56438 -2.43347,3.72236 -4.37961,10.01018 -0.58662,1.89533 -1.95878,4.94784 -3.04924,6.78336 -1.64,2.76051 -2.07263,4.0661 -2.50318,7.55396 -0.28629,2.31916 -0.75598,5.11665 -1.04377,6.21665 -0.81627,3.12 -3.69116,8.21339 -6.46218,11.44894 -1.38905,1.62191 -3.15527,4.33773 -3.92492,6.03516 -1.01136,2.23051 -2.13688,3.70033 -4.05934,5.30106 -5.69518,4.7421 -5.4829,4.39244 -5.49518,9.05138 -0.008,3.06194 -0.27265,4.74011 -1,6.34306 -0.80452,1.77299 -0.98902,3.26916 -0.98902,8.01995 0,9.70775 -1.63454,13.78128 -6.60088,16.45045 -3.92011,2.10686 -5.32521,3.46866 -5.94185,5.75869 -0.83532,3.10212 -2.0828,5.27512 -4.81657,8.39001 -1.35095,1.5393 -3.04142,3.7972 -3.7566,5.0176 -1.46314,2.49665 -11.2002,11.7779 -13.8841,13.23415 -1.55701,0.84485 -2.71499,0.93655 -10.5,0.8317 -9.59124,-0.12915 -12.75955,-0.7567 -18.75,-3.7138 -3.98319,-1.96625 -6.0417,-4.01095 -7.88715,-7.8341 -0.84047,-1.7412 -2.86952,-4.64595 -4.50902,-6.4551 -4.47979,-4.94326 -5.4115,-7.74432 -6.11345,-18.37915 -0.18151,-2.75 -0.64395,-6.51729 -1.02764,-8.37174 -0.57611,-2.78444 -0.61229,-6.35518 -0.20775,-20.5 0.2696,-9.42643 0.78422,-18.81447 1.14449,-20.87826 0.45819,-2.62477 0.60905,-7.65079 0.50276,-16.75 -0.26837,-22.97449 -0.13507,-29.77921 0.65119,-33.24129 0.69229,-3.04834 0.671,-3.50176 -0.35767,-7.61699 -1.09379,-4.3757 -1.09379,-4.3757 -0.0412,-9.00871 1.55607,-6.84909 1.77038,-14.88593 0.55246,-20.71818 -0.8475,-4.05841 -0.90202,-5.14881 -0.40125,-8.02446 1.08842,-6.25016 0.26109,-11.57172 -3.79192,-24.39037 -1.649,-5.2154 -1.90141,-6.65384 -1.93016,-11 -0.0299,-4.51782 0.12118,-5.37734 1.56661,-8.91278 1.98424,-4.85337 1.99325,-6.02086 0.0699,-9.05368 -1.99586,-3.14715 -2.61997,-4.82274 -4.48211,-12.03354 -0.85221,-3.3 -2.09043,-7.9125 -2.75161,-10.25 -0.66118,-2.3375 -1.54069,-6.3875 -1.95447,-9 -0.41378,-2.6125 -1.09345,-5.89162 -1.51038,-7.28693 -0.83819,-2.80478 -5.42388,-9.71307 -6.44759,-9.71307 -0.91487,0 -2.2374,1.57459 -5.66943,6.75 -2.65507,4.00377 -8.86966,12.26193 -15.80332,21 -1.30928,1.65 -4.16406,6.6 -6.34396,11 -5.81474,11.73669 -12.88995,24.83016 -16.3569,30.27027 -2.9296,4.59694 -6.29614,12.05753 -8.61522,19.09218 -0.66171,2.00724 -2.17539,4.82853 -3.75563,7 -3.191,4.38489 -4.37853,6.67746 -5.51014,10.63755 -1.17325,4.1058 -3.47137,9.24778 -5.89876,13.19828 -1.11581,1.81595 -2.86541,5.32672 -3.88801,7.80172 -3.16718,7.66559 -7.3704,16.361 -9.44125,19.53156 -1.08903,1.66735 -2.90179,4.96219 -4.02836,7.32186 -1.27559,2.67182 -3.13171,5.48925 -4.9202,7.46845 -5.32598,5.89391 -8.16055,9.59048 -9.69385,12.64182 -2.26485,4.50713 -3.18924,5.62253 -6.89104,8.315 -2.59219,1.8854 -4.18576,3.63113 -6.92404,7.58518 -1.9563,2.82487 -5.12873,6.87763 -7.04985,9.00614 -2.46663,2.73292 -3.65279,4.49586 -4.03695,6 -1.27539,4.99369 -3.05096,7.10831 -7.19466,8.56856 -1.26641,0.44629 -3.31257,1.16659 -4.54703,1.60067 -1.26378,0.44439 -2.73844,1.43904 -3.375,2.27641 -3.01369,3.96439 -4.81256,5.63804 -7.5393,7.0145 -1.75336,0.88509 -4.4267,2.95104 -6.52999,5.04637 -4.20371,4.18778 -8.47577,7.43266 -12.39131,9.41194 -1.73972,0.87941 -3.76242,2.49882 -5.25,4.20325 -3.37887,3.8714 -6.76408,6.08178 -10.85381,7.08701 -2.86988,0.70541 -4.13211,1.39678 -7.68502,4.20942 -2.33813,1.85096 -6.14208,4.45584 -8.45322,5.78862 -2.31114,1.33278 -6.55883,3.91904 -9.43929,5.74724 -2.88047,1.82825 -6.98128,3.94685 -9.11291,4.70805 -4.59951,1.6425 -5.16481,2.07585 -7.06118,5.41305 -2.85139,5.01785 -5.41646,6.16315 -11.81128,5.2737 -5.472749,-0.7612 -7.430899,-0.32005 -9.670229,2.1784 -5.793529,6.464 -7.252629,7.06175 -17.332994,7.10075 -3.85,0.015 -8.6875,0.20565 -10.75,0.4239 -3.296622,0.3488 -3.996413,0.2706 -5.788145,-0.6468 z"
     id="path630"
     inkscape:connector-curvature="0" />
</svg>
