<?xml version="1.0" encoding="UTF-8" standalone="no"?>
<!-- Created with Inkscape (http://www.inkscape.org/) -->

<svg
   xmlns:dc="http://purl.org/dc/elements/1.1/"
   xmlns:cc="http://creativecommons.org/ns#"
   xmlns:rdf="http://www.w3.org/1999/02/22-rdf-syntax-ns#"
   xmlns:svg="http://www.w3.org/2000/svg"
   xmlns="http://www.w3.org/2000/svg"
   xmlns:sodipodi="http://sodipodi.sourceforge.net/DTD/sodipodi-0.dtd"
   xmlns:inkscape="http://www.inkscape.org/namespaces/inkscape"
   version="1.1"
   id="svg109"
   width="1000"
   height="1000"
   viewBox="0 0 1000 1000"
   sodipodi:docname="Saida_lettre_i_bdc.svg"
   inkscape:version="0.92.2 5c3e80d, 2017-08-06">
  <metadata
     id="metadata115">
    <rdf:RDF>
      <cc:Work
         rdf:about="">
        <dc:format>image/svg+xml</dc:format>
        <dc:type
           rdf:resource="http://purl.org/dc/dcmitype/StillImage" />
        <dc:title></dc:title>
      </cc:Work>
    </rdf:RDF>
  </metadata>
  <defs
     id="defs113" />
  <sodipodi:namedview
     pagecolor="#ffffff"
     bordercolor="#666666"
     borderopacity="1"
     objecttolerance="10"
     gridtolerance="10"
     guidetolerance="10"
     inkscape:pageopacity="0"
     inkscape:pageshadow="2"
     inkscape:window-width="1172"
     inkscape:window-height="590"
     id="namedview111"
     showgrid="false"
     inkscape:zoom="0.30498698"
     inkscape:cx="218.5"
     inkscape:cy="600"
     inkscape:window-x="33"
     inkscape:window-y="113"
     inkscape:window-maximized="0"
     inkscape:current-layer="svg109" />
  <path
     style="fill:#000000;stroke-width:0.5"
     d="m 484.45953,690.48962 c -0.98896,-0.3704 -2.67646,-1.3732 -3.75,-2.2285 -1.21957,-0.97165 -3.11601,-1.8208 -5.05466,-2.2633 -3.86611,-0.8824 -5.29784,-1.80655 -6.95579,-4.48995 -0.71781,-1.1618 -2.28092,-3.12485 -3.47356,-4.36235 -1.19264,-1.2375 -2.79831,-3.42515 -3.56816,-4.8615 -0.88979,-1.6601 -2.49264,-3.48165 -4.39972,-5 -2.0939,-1.6671 -3.41996,-3.22765 -4.39044,-5.1669 -1.31081,-2.61924 -1.35724,-2.93321 -0.81066,-5.4818 0.71065,-3.31367 0.31321,-8.65803 -0.9678,-13.01386 -2.32656,-7.91105 -3.07407,-10.9981 -3.3329,-13.76417 -0.16688,-1.78344 -0.66922,-3.50075 -1.26267,-4.31652 -1.21746,-1.67357 -1.217,-1.74486 0.0292,-4.56208 0.84693,-1.91463 1.02454,-3.43396 1.07411,-9.18855 0.0513,-5.95325 -0.0907,-7.30424 -1.03985,-9.89462 -1.02051,-2.78512 -1.07613,-3.55512 -0.77642,-10.75 0.32283,-7.75 0.32283,-7.75 -1.03046,-10.25 -1.59277,-2.94239 -2.73744,-9.20462 -2.7402,-14.991 -10e-4,-3.01884 0.32478,-4.95233 1.33922,-7.93754 1.28674,-3.78654 1.31707,-4.11287 0.74794,-8.04919 -0.32625,-2.25646 -0.45456,-5.114 -0.28514,-6.35008 0.24781,-1.808 0.0527,-2.78721 -0.99794,-5.00806 -0.71831,-1.51834 -1.306,-3.43353 -1.306,-4.25597 0,-1.76101 2.47546,-10.21754 3.65386,-12.48211 1.21691,-2.33859 1.78814,-5.41006 2.61884,-14.08137 0.85954,-8.97226 1.30249,-10.9743 3.11845,-14.09468 0.72019,-1.2375 1.73962,-3.15 2.2654,-4.25 3.1125,-6.51172 6.92131,-8.22363 15.59986,-7.01149 5.90798,0.82517 7.79159,1.76217 10.79336,5.36916 4.3406,5.21576 4.20581,4.66192 5.20616,21.39233 0.55187,9.22981 0.98666,13.11291 1.76354,15.75 0.93892,3.18712 1.00466,4.34927 0.73532,13 -0.16268,5.225 -0.5488,10.88591 -0.85803,12.5798 -0.50137,2.74628 -0.445,3.42693 0.52049,6.28525 1.35896,4.02316 1.38663,7.32913 0.0828,9.88495 -1.39875,2.74178 -1.28447,3.60065 1.125,8.45522 2.125,4.28143 2.125,4.28143 1.98508,14.5381 -0.077,5.64117 -0.3798,11.32191 -0.67299,12.62385 -0.62207,2.76235 0.0696,9.19154 1.54726,14.38283 0.50882,1.7875 1.19355,5.6125 1.52163,8.5 0.32808,2.8875 1.01635,6.6 1.52949,8.25 0.51314,1.65 1.17731,4.56821 1.47591,6.48491 0.99289,6.37316 3.41711,14.52805 5.75839,19.37082 2.62477,5.42917 3.45643,9.87532 3.1133,16.64427 -0.28437,5.6098 -1.14874,7.1383 -6.00701,10.62245 -2.20684,1.58265 -4.42911,3.1845 -4.9384,3.55965 -1.32386,0.9752 -6.81012,1.22675 -8.98577,0.412 z M 539.65602,342.9507 c -1.35511,-0.93215 -3.57411,-2.26117 -4.9311,-2.95338 -3.14878,-1.60619 -4.76788,-3.35527 -6.57403,-7.1018 -0.79545,-1.65 -2.27809,-4.08598 -3.29476,-5.4133 -1.01667,-1.32731 -1.84849,-2.70832 -1.84849,-3.06889 0,-0.36058 -0.77085,-1.77622 -1.713,-3.14586 -0.94215,-1.36964 -1.96552,-3.42808 -2.27417,-4.5743 -0.43896,-1.63018 -1.10431,-2.47426 -3.05517,-3.8758 -1.37169,-0.98546 -2.84738,-2.47514 -3.27931,-3.31041 -0.43193,-0.83525 -1.73247,-2.55202 -2.8901,-3.81504 -4.20485,-4.58766 -8.299,-10.43492 -9.72121,-13.88383 -0.79978,-1.93947 -2.69631,-5.63823 -4.21454,-8.21945 -4.40022,-7.4811 -5.06058,-9.88158 -5.00739,-18.20241 0.0408,-6.37354 0.16318,-7.29055 1.34985,-10.10994 0.71777,-1.70535 1.31041,-3.83866 1.31697,-4.7407 0.02,-2.7456 0.8427,-5.42058 2.07131,-6.73449 1.61917,-1.73158 9.2284,-6.63348 11.59131,-7.46717 3.17637,-1.12068 7.24009,-0.88226 10.21302,0.59921 3.16531,1.57734 9.03428,7.70709 10.59969,11.07065 0.61221,1.31545 1.95733,3.51673 2.98917,4.89173 2.59107,3.45276 2.57519,3.41542 3.04599,7.16495 0.34282,2.73018 1.07377,4.58391 3.97859,10.08986 1.95724,3.70985 4.3327,7.71893 5.27881,8.90906 1.45847,1.83466 1.72051,2.55732 1.72232,4.75 10e-4,2.05541 0.31505,3.04787 1.52687,4.83613 2.61791,3.86315 3.95811,6.86248 5.27175,11.79801 0.69819,2.62318 1.78979,6.1605 2.42578,7.8607 0.63598,1.70021 1.3189,4.10379 1.5176,5.34129 0.80816,5.03328 2.81096,12.56618 3.75091,14.10785 2.17466,3.56678 0.58776,8.29925 -3.86324,11.521 -7.88888,5.71018 -11.73927,6.5958 -15.98343,3.67633 z"
     id="path119"
     inkscape:connector-curvature="0" />
</svg>
