<?xml version="1.0" encoding="UTF-8" standalone="no"?>
<svg
   xmlns:dc="http://purl.org/dc/elements/1.1/"
   xmlns:cc="http://creativecommons.org/ns#"
   xmlns:rdf="http://www.w3.org/1999/02/22-rdf-syntax-ns#"
   xmlns:svg="http://www.w3.org/2000/svg"
   xmlns="http://www.w3.org/2000/svg"
   viewBox="0 0 1000 1000"
   height="1000"
   width="1000"
   id="svg61"
   version="1.1">
  <metadata
     id="metadata67">
    <rdf:RDF>
      <cc:Work
         rdf:about="">
        <dc:format>image/svg+xml</dc:format>
        <dc:type
           rdf:resource="http://purl.org/dc/dcmitype/StillImage" />
        <dc:title></dc:title>
      </cc:Work>
    </rdf:RDF>
  </metadata>
  <defs
     id="defs65" />
  <path
     id="path71"
     d="m 449.39398,717.72971 c -3.01715,-0.59815 -5.13503,-1.58725 -10.63246,-4.96555 -7.22447,-4.4396 -12.79958,-10.883 -14.86114,-17.17565 -0.46729,-1.4264 -1.58997,-4.07545 -2.49483,-5.88675 -0.90486,-1.8113 -2.01446,-4.7183 -2.46578,-6.46 -0.45132,-1.74171 -1.45002,-4.42223 -2.21933,-5.95672 -0.76931,-1.53449 -2.31976,-6.39391 -3.44544,-10.79872 -1.12568,-4.4048 -2.40952,-9.0173 -2.85299,-10.25 -0.44346,-1.23269 -1.33979,-4.05897 -1.99183,-6.28061 -0.65204,-2.22165 -1.98938,-5.86763 -2.97185,-8.10218 -1.78632,-4.06282 -1.78632,-4.06282 -1.81774,-26.71064 -0.0222,-16.04088 0.14338,-23.33966 0.56778,-25.01932 0.68602,-2.71509 0.50125,-6.11203 -0.7978,-14.66708 -0.91629,-6.03433 -0.91618,-6.04116 0.15662,-9.75 0.95736,-3.30978 1.02655,-4.2796 0.63933,-8.96143 -0.23882,-2.8875 -0.59575,-7.275 -0.79318,-9.75 -0.19742,-2.475 -0.57532,-4.77459 -0.83977,-5.1102 -0.7198,-0.91349 -4.04798,0.95148 -5.29957,2.96965 -1.58408,2.5543 -3.88168,4.49632 -9.83337,8.31154 -3.025,1.93912 -6.79365,4.43539 -8.37477,5.54726 -1.58112,1.11187 -4.33253,2.68256 -6.11424,3.49043 -1.78171,0.80786 -4.48321,2.48199 -6.00334,3.72028 -2.08366,1.69733 -3.47067,2.39358 -5.63576,2.82902 -1.57954,0.31768 -6.24689,1.44945 -10.37189,2.51507 -4.125,1.06561 -9.23552,2.29737 -11.3567,2.73725 -4.8099,0.99743 -6.00366,1.88844 -6.05472,4.51917 -0.0691,3.56071 0.46505,4.52811 3.53694,6.40554 3.22452,1.97072 9.39293,8.50155 10.19038,10.7891 0.37619,1.07914 0.35366,2.00461 -0.0809,3.3212 -0.82167,2.48971 -6.8332,8.70144 -11.18356,11.55602 -1.95331,1.2817 -4.49443,3.18186 -5.64693,4.22258 -1.1525,1.04071 -2.7275,2.03416 -3.5,2.20767 -2.63351,0.5915 -4.40276,1.13315 -8.65455,2.64959 -4.00979,1.43013 -4.47693,1.75635 -8.26515,5.77184 -4.46964,4.73778 -6.81606,6.07918 -11.52437,6.58825 -2.16395,0.23396 -3.843,0.84321 -6.24054,2.26441 -3.63547,2.15501 -4.35596,2.28751 -6.4764,1.19099 -1.00715,-0.52082 -1.61711,-1.34872 -1.97621,-2.6823 -0.66268,-2.461 -0.23647,-4.58877 1.64163,-8.19551 1.50027,-2.88115 1.50027,-2.88115 0.86444,-7 -0.54001,-3.49813 -0.51433,-5.16544 0.17039,-11.06357 0.44341,-3.81959 0.80746,-8.09459 0.809,-9.5 0.002,-1.4054 0.23731,-3.39976 0.52395,-4.4319 0.28663,-1.03214 1.05855,-4.46812 1.71537,-7.63551 0.65681,-3.16739 1.75308,-6.97962 2.43614,-8.47163 1.72393,-3.76555 5.04808,-6.9037 9.74339,-9.19818 2.16851,-1.05969 4.92951,-2.60504 6.13555,-3.4341 3.58999,-2.46784 12.06174,-7.40605 13.94281,-8.12732 0.9625,-0.36905 2.9875,-1.40692 4.5,-2.30637 1.5125,-0.89945 3.67226,-1.87449 4.79948,-2.16676 2.11816,-0.54919 2.52311,-0.80014 9.22948,-5.7195 2.20139,-1.61479 5.57595,-3.5763 7.49904,-4.35891 1.92309,-0.7826 4.22225,-1.96749 5.10926,-2.63308 0.88701,-0.66559 2.73774,-1.77512 4.11274,-2.46562 1.375,-0.6905 3.38365,-1.96029 4.46366,-2.82175 1.08001,-0.86146 2.98013,-2.01593 4.22247,-2.56548 1.24235,-0.54954 2.96755,-1.53975 3.83378,-2.20046 0.86624,-0.66071 2.97286,-1.87844 4.6814,-2.70607 1.70854,-0.82762 4.56795,-2.81155 6.35424,-4.40871 1.78629,-1.59716 4.99286,-4.47893 7.12572,-6.40393 2.13285,-1.925 5.5265,-4.85 7.54143,-6.5 6.52775,-5.34548 11.06567,-9.38743 11.54515,-10.28335 0.25784,-0.48179 0.60427,-5.45263 0.76983,-11.04632 0.1862,-6.29059 0.56087,-11.02866 0.98216,-12.42033 0.37461,-1.2375 0.83394,-5.09811 1.02073,-8.57914 0.2789,-5.19749 0.1815,-6.97436 -0.54473,-9.93785 -0.70843,-2.8908 -0.80144,-4.41684 -0.46754,-7.67086 0.22926,-2.23419 0.35287,-6.99345 0.27468,-10.57614 -0.10341,-4.73896 0.0737,-7.32766 0.65003,-9.5 0.43569,-1.64231 1.02842,-6.92351 1.31717,-11.73601 0.28874,-4.8125 0.96452,-12.575 1.50172,-17.25 0.76147,-6.6268 1.02912,-13.12792 1.21449,-29.5 0.13078,-11.55 0.46859,-22.21196 0.75069,-23.69325 0.72073,-3.78442 0.63918,-10.79649 -0.2721,-23.39667 -0.43177,-5.96994 -0.66448,-12.66695 -0.51715,-14.88225 0.14734,-2.21531 0.47478,-10.66533 0.72764,-18.77783 0.47154,-15.12791 0.69678,-16.79171 2.849,-21.04501 2.68607,-5.30831 6.95587,-7.27306 16.83302,-7.74573 5.62727,-0.26929 7.42678,-0.15819 11.77385,0.72687 2.82224,0.57461 5.76479,1.37231 6.539,1.77267 3.69574,1.91115 12.8264,8.69713 14.67834,10.90906 1.1419,1.36388 3.33059,3.38944 4.86375,4.50126 3.14061,2.2775 3.87903,3.06612 6.25003,6.67483 0.91928,1.39917 2.72802,3.40975 4.01941,4.46795 3.20943,2.62989 4.75535,5.05668 7.26837,11.40989 1.23564,3.12385 3.05958,6.639 4.30341,8.29366 3.11678,4.14623 7.69635,17.98934 7.69635,23.2645 0,0.90804 0.59386,3.19653 1.31969,5.08552 1.23065,3.20278 1.33435,4.10931 1.53691,13.43453 0.37676,17.34587 0.44003,16.21398 -1.09771,19.64051 -1.25549,2.79761 -1.35334,3.40136 -0.97,5.98547 0.66807,4.50355 0.334,8.75088 -1.00057,12.72095 -0.6754,2.00919 -1.49288,5.00307 -1.81662,6.65307 -0.32374,1.65 -1.12948,4.07048 -1.79053,5.37884 -2.42405,4.79772 -4.52319,11.54579 -4.85933,15.62116 -0.32962,3.99638 -2.25011,9.11551 -4.75126,12.66464 -0.51758,0.73445 -1.29885,2.57706 -1.73616,4.0947 -0.43731,1.51765 -1.57175,3.8517 -2.52097,5.1868 -0.94922,1.33511 -1.97298,3.40886 -2.27502,4.60835 -0.30203,1.19949 -1.57046,3.75968 -2.81874,5.68931 -2.79031,4.31339 -4.19427,7.34035 -4.20871,9.0741 -0.0143,1.72018 -2.15619,5.68144 -5.17526,9.5714 -1.32785,1.71088 -4.02969,5.5857 -6.0041,8.6107 -2.4275,3.71918 -5.35022,7.28082 -9.02674,11 -3.96588,4.01191 -5.76757,6.24404 -6.65909,8.25 -0.6722,1.5125 -2.02086,3.57603 -2.99702,4.58563 -2.44253,2.52619 -3.21845,5.68265 -3.66629,14.91437 -0.88906,18.32744 -1.55845,28.72535 -2.30148,35.75 -1.69671,16.0407 -1.78105,17.78386 -1.1415,23.59441 0.49528,4.49983 0.48913,6.62072 -0.0314,10.83988 -0.35593,2.885 -0.48949,6.21752 -0.2968,7.40559 0.19269,1.18806 0.54531,6.32262 0.7836,11.41012 0.30693,6.553 0.67878,9.90602 1.27535,11.5 0.53522,1.43005 1.06313,5.38198 1.44863,10.84437 0.60239,8.53593 0.62046,8.62263 2.65659,12.75 2.36984,4.80385 2.95927,6.8201 3.40738,11.65563 0.399,4.30554 2.40568,12.41375 3.93583,15.90315 0.62631,1.42827 1.42683,3.83435 1.77893,5.34685 0.8718,3.74493 3.12258,8.09152 5.01425,9.68326 1.4726,1.23909 1.87394,1.31674 6.80779,1.31674 3.88575,0 6.04376,-0.25955 8.33663,-1.00267 1.70154,-0.55147 4.33875,-1.33109 5.86045,-1.73249 1.52171,-0.40141 4.66188,-1.91896 6.97817,-3.37234 3.50259,-2.19773 4.55172,-3.1759 6.23326,-5.81156 1.11201,-1.74297 2.98308,-4.33047 4.15793,-5.75 1.17485,-1.41952 2.97485,-3.88828 4,-5.48614 1.02515,-1.59787 3.1409,-4.90349 4.70167,-7.34585 3.36726,-5.26922 4.10886,-5.73334 13.29518,-8.32066 3.67423,-1.03483 7.056,-2.30967 7.99604,-3.01427 1.93847,-1.45297 5.77536,-7.00947 8.29441,-12.01181 0.99647,-1.97878 2.99635,-4.93041 4.44418,-6.55918 1.62047,-1.82299 2.9915,-3.98945 3.5665,-5.63568 0.51375,-1.47084 2.22979,-4.59421 3.81343,-6.94081 3.87491,-5.74175 4.24007,-6.53982 5.74679,-12.55977 0.71676,-2.86373 1.94356,-6.78177 2.72624,-8.70677 0.78267,-1.925 1.5797,-4.2875 1.77117,-5.25 0.19147,-0.9625 1.22792,-4.53492 2.30321,-7.9387 1.0753,-3.40378 1.95509,-6.73879 1.95509,-7.41112 0,-0.67232 0.58388,-3.73742 1.29753,-6.8113 1.19067,-5.12864 1.24815,-5.86983 0.69803,-9.00058 -0.94402,-5.37238 -3.27062,-9.33541 -9.20816,-15.68473 -4.09393,-4.37787 -5.35346,-6.06536 -5.78452,-7.75 -0.30307,-1.18446 -1.0238,-3.27857 -1.60162,-4.65357 -0.57781,-1.375 -1.22732,-3.27131 -1.44334,-4.21403 -1.0325,-4.50579 2.23334,-18.51061 5.06995,-21.74133 0.81302,-0.92597 3.08207,-2.65265 5.04235,-3.83707 4.76198,-2.87723 8.11936,-3.21605 12.18032,-1.22921 4.00721,1.96055 13.21912,11.22509 14.46962,14.5523 1.35338,3.60093 5.06397,10.94244 7.5659,14.96934 2.68894,4.3279 10.35759,11.56513 13.38165,12.62883 1.14526,0.40284 4.33229,0.92101 7.08229,1.1515 2.75,0.23049 6.575,0.55944 8.5,0.73102 2.35069,0.2095 4.89558,0.0466 7.75,-0.49612 2.3375,-0.44443 6.6125,-1.02387 9.5,-1.28765 10.08019,-0.92083 14.63235,-1.77225 17.51315,-3.27561 2.39845,-1.25163 3.29324,-1.43202 7.23685,-1.45893 4.15764,-0.0284 4.87809,-0.19352 9.4697,-2.1707 3.74552,-1.61285 5.71369,-2.82878 7.99001,-4.93625 2.91,-2.69416 4.0372,-3.32425 13.2253,-7.39306 3.4681,-1.53577 4.4496,-1.77738 5.7295,-1.41032 2.1809,0.62548 3.285,2.84677 3.8477,7.74095 0.6619,5.75644 0.6109,22.30319 -0.079,25.51812 -0.7725,3.60215 -2.8741,5.69181 -6.2137,6.17829 -2.8842,0.42014 -4.5824,1.19683 -5.9704,2.73056 -1.9709,2.17775 -5.0066,3.5149 -9.0702,3.99521 -2.1611,0.25543 -7.16992,1.48008 -11.13072,2.72144 -5.00291,1.56796 -8.81905,2.42525 -12.5,2.80812 -2.9142,0.3031 -6.7417,0.87671 -8.50556,1.27467 -6.03402,1.36142 -13.29246,2.27618 -19.29299,2.43146 -6.52819,0.16892 -12.33257,1.1977 -16.05991,2.84648 -1.97165,0.87216 -2.97675,1.00107 -5.89642,0.7563 -3.26057,-0.27335 -3.75754,-0.17691 -6.75206,1.31031 -5.95199,2.95604 -7.32057,5.16711 -12.28985,19.85538 -0.88385,2.6125 -2.41924,6.36008 -3.41198,8.32796 -0.99273,1.96788 -2.1773,5.06017 -2.63235,6.87176 -0.53795,2.14158 -1.78744,4.80704 -3.57188,7.61963 -1.50948,2.37921 -3.25952,5.84003 -3.88898,7.69073 -1.60392,4.71572 -1.91633,5.21326 -6.29846,10.031 -4.49458,4.94137 -8.92186,10.95104 -10.79062,14.64739 -0.71226,1.40884 -3.15461,5.30482 -5.42744,8.65772 -2.77941,4.10022 -4.24601,6.76855 -4.47937,8.14976 -0.38675,2.28918 -2.44828,5.2777 -6.68324,9.68843 -2.02012,2.10397 -3.86605,3.41961 -6.52284,4.64902 -2.73739,1.2667 -4.56646,2.59005 -7.00148,5.0656 -4.70205,4.78035 -8.31286,7.7421 -15.49321,12.70805 -7.44338,5.1479 -12.36224,7.98615 -15.79991,9.11665 -1.375,0.45215 -3.7375,1.5693 -5.25,2.4825 -1.5125,0.9132 -5.31391,2.50735 -8.44758,3.5426 -5.00891,1.65475 -6.08203,1.84635 -8.87818,1.58525 -3.49067,-0.32595 -10.38641,0.3621 -14.65429,1.46225 -2.9847,0.76935 -4.22514,0.8013 -7.3166,0.18835 z m 1.08086,-272.2386 c 1.13536,-1.64783 3.35438,-5.80855 4.93115,-9.24605 2.07763,-4.52942 3.49202,-6.89148 5.13777,-8.58015 2.16963,-2.22622 2.28741,-2.4986 2.64073,-6.10712 0.31315,-3.19831 0.6932,-4.31222 2.4806,-7.27047 2.45248,-4.05898 3.8597,-8.86608 4.54984,-15.54226 0.29414,-2.84543 0.98915,-6.00512 1.73336,-7.88026 0.69128,-1.74179 1.24234,-4.15349 1.24234,-5.43707 0,-1.56476 0.56293,-3.55359 1.75,-6.18267 1.89222,-4.19085 2.04661,-5.51195 1.19112,-10.19235 -0.45245,-2.47537 -0.40248,-4.03609 0.26244,-8.19561 0.94839,-5.93281 0.52805,-11.33963 -1.34906,-17.35296 -0.59935,-1.92 -1.12557,-4.845 -1.1694,-6.5 -0.0635,-2.39899 -0.50793,-3.91148 -2.19196,-7.45988 -1.16175,-2.44794 -2.95629,-5.37294 -3.98785,-6.5 -1.03156,-1.12706 -2.34956,-2.98628 -2.92886,-4.13161 -0.78352,-1.54905 -1.51546,-2.23494 -2.85778,-2.67793 -0.99247,-0.32755 -2.91769,-1.58422 -4.27826,-2.7926 -2.94091,-2.61194 -4.94462,-2.91852 -6.23213,-0.95353 -0.73217,1.11744 -0.74884,1.8146 -0.16433,6.875 0.35775,3.09731 0.6046,7.31897 0.54854,9.38147 -0.0561,2.0625 -0.16287,7.6875 -0.23739,12.5 -0.12809,8.27265 -0.20966,8.91966 -1.49528,11.85993 -1.12166,2.56528 -1.3598,3.83864 -1.3598,7.27077 0,4.52133 -1.15165,14.28052 -2.25381,19.09905 -0.61281,2.6791 -0.73007,5.55246 -0.87819,21.52025 -0.0153,1.65 0.0524,5.3625 0.15054,8.25 0.10668,3.13964 -0.0724,6.26433 -0.44557,7.77339 -0.44214,1.78807 -0.57355,6.23194 -0.45095,15.25 0.14385,10.58143 0.31511,13.04914 1.01606,14.64009 1.13563,2.57756 2.09528,2.28479 4.64613,-1.41743 z"
     style="fill:#000000;stroke-width:0.5" />
</svg>
