<?xml version="1.0" encoding="UTF-8" standalone="no"?>
<!-- Created with Inkscape (http://www.inkscape.org/) -->

<svg
   xmlns:dc="http://purl.org/dc/elements/1.1/"
   xmlns:cc="http://creativecommons.org/ns#"
   xmlns:rdf="http://www.w3.org/1999/02/22-rdf-syntax-ns#"
   xmlns:svg="http://www.w3.org/2000/svg"
   xmlns="http://www.w3.org/2000/svg"
   xmlns:sodipodi="http://sodipodi.sourceforge.net/DTD/sodipodi-0.dtd"
   xmlns:inkscape="http://www.inkscape.org/namespaces/inkscape"
   version="1.1"
   id="svg855"
   width="1000"
   height="1000"
   viewBox="0 0 1000 1000"
   sodipodi:docname="Saida_lettre_è_bdc.svg"
   inkscape:version="0.92.2 5c3e80d, 2017-08-06">
  <metadata
     id="metadata861">
    <rdf:RDF>
      <cc:Work
         rdf:about="">
        <dc:format>image/svg+xml</dc:format>
        <dc:type
           rdf:resource="http://purl.org/dc/dcmitype/StillImage" />
        <dc:title></dc:title>
      </cc:Work>
    </rdf:RDF>
  </metadata>
  <defs
     id="defs859" />
  <sodipodi:namedview
     pagecolor="#ffffff"
     bordercolor="#666666"
     borderopacity="1"
     objecttolerance="10"
     gridtolerance="10"
     guidetolerance="10"
     inkscape:pageopacity="0"
     inkscape:pageshadow="2"
     inkscape:window-width="1287"
     inkscape:window-height="688"
     id="namedview857"
     showgrid="false"
     inkscape:zoom="0.38027344"
     inkscape:cx="546.5"
     inkscape:cy="600"
     inkscape:window-x="0"
     inkscape:window-y="0"
     inkscape:window-maximized="0"
     inkscape:current-layer="svg855" />
  <path
     style="fill:#000000;stroke-width:0.5"
     d="m 340.41254,853.63943 c -3.73416,-1.2433 -4.84146,-5.32265 -4.40422,-16.22555 0.27664,-6.89835 1.10033,-9.35015 3.96498,-11.8022 1.07819,-0.92285 3.02045,-2.0727 4.31614,-2.5552 1.29568,-0.48245 4.83079,-2.50585 7.85579,-4.4964 3.025,-1.9906 6.2875,-4.01725 7.25,-4.5037 0.9625,-0.48645 2.7441,-1.5647 3.95911,-2.39605 1.21501,-0.83135 3.85848,-2.1269 5.87437,-2.87895 2.53779,-0.94675 4.48213,-2.11355 6.3208,-3.7931 1.46054,-1.33415 5.00458,-3.66325 7.87563,-5.17575 4.08471,-2.15185 5.95452,-3.51125 8.59678,-6.25 5.35085,-5.54625 5.64332,-6.67972 3.61243,-14 -1.63133,-5.88012 -2.03722,-10.36325 -1.19959,-13.25 0.40112,-1.38239 0.66398,-5.15195 0.68167,-9.77573 0.0288,-7.52573 0.0288,-7.52573 1.7788,-10.97661 1.75,-3.45088 1.75,-3.45088 1.78324,-10.97427 0.0379,-8.58695 -0.2416,-7.61964 5.87618,-20.33421 3.11998,-6.48423 4.53793,-8.77706 8.34878,-13.5 2.52477,-3.12905 5.23328,-7.10449 6.01891,-8.83431 0.88349,-1.94527 2.58143,-4.34586 4.45077,-6.29257 1.84141,-1.91764 3.69232,-4.52413 4.73703,-6.67077 2.41517,-4.96264 3.65535,-5.73042 9.98955,-6.18446 2.77505,-0.19893 5.90198,-0.52306 6.94873,-0.72031 1.07665,-0.20288 4.76811,-0.0129 8.5,0.43752 3.62824,0.43788 9.07181,1.0327 12.09681,1.32181 6.0558,0.57879 6.11661,0.6028 17,6.71093 3.3,1.85208 6.8404,4.18056 7.86756,5.1744 2.26752,2.19398 4.69391,7.75864 5.32444,12.21099 0.24792,1.75062 1.03739,4.57672 1.75438,6.28021 0.71699,1.70349 1.30362,3.81389 1.30362,4.68978 0,2.10916 -3.24774,12.13185 -4.79162,14.78719 -2.86591,4.92912 -12.83592,16.46193 -25.61603,29.63134 -2.24429,2.31266 -4.36445,5.12151 -5.48679,7.26907 -2.2496,4.30451 -11.02051,13.56866 -15.10556,15.95505 -2.87731,1.68086 -7.07842,6.32164 -8.31836,9.18893 -0.39101,0.9042 -0.84742,3.72196 -1.01425,6.2617 -0.26761,4.07397 -0.17922,4.86097 0.75069,6.68377 1.22405,2.3993 2.58805,3.5808 5.6387,4.8842 1.20627,0.5154 3.92857,1.69725 6.04954,2.6263 3.20453,1.4037 4.83864,1.77455 9.66825,2.194 3.46907,0.30125 6.80976,0.89805 8.2872,1.4804 3.13688,1.23645 6.49782,1.23635 11.35492,-4e-4 4.60864,-1.17345 14.06846,-2.833 18.66375,-3.2742 1.83175,-0.1759 5.31766,-0.86655 7.74649,-1.5348 8.00707,-2.20295 11.76193,-1.38415 13.40704,2.9235 0.71108,1.86195 0.82197,3.6789 0.68253,11.1832 -0.15719,8.45895 -0.23794,9.09875 -1.44388,11.43975 -1.86692,3.6241 -4.20776,4.8458 -13.47262,7.03145 -5.28313,1.2463 -9.73941,1.95655 -14,2.23135 -19.39266,1.25065 -24.60894,1.45635 -26.44879,1.043 -1.09058,-0.24505 -3.967,-0.3385 -6.39204,-0.2076 -3.99151,0.2154 -4.78826,0.0967 -8.41111,-1.2529 -2.20107,-0.81995 -6.47607,-1.9794 -9.5,-2.57665 -4.31203,-0.8516 -6.19915,-1.5048 -8.74806,-3.028 -1.7875,-1.0682 -4.56219,-2.42875 -6.16598,-3.0234 -1.60379,-0.59465 -3.65395,-1.7291 -4.55591,-2.52105 -0.90195,-0.7919 -2.94632,-2.1751 -4.54302,-3.07375 -1.99283,-1.12155 -3.86841,-2.80965 -5.98172,-5.38385 -2.63741,-3.2126 -3.32958,-3.7715 -4.82982,-3.90005 -1.58872,-0.1361 -2.07166,0.179 -5.20511,3.39625 -2.4961,2.56285 -4.12269,3.78305 -5.86556,4.40005 -1.32642,0.46955 -3.46719,1.68425 -4.75727,2.69925 -4.3013,3.3842 -11.81567,8.6969 -14.34561,10.14235 -1.375,0.7856 -3.21149,1.9651 -4.08109,2.6211 -0.8696,0.656 -3.43961,1.9649 -5.71113,2.9086 -2.27153,0.9437 -4.93504,2.2714 -5.91891,2.95045 -0.98388,0.67905 -3.13857,1.8297 -4.78819,2.557 -1.64963,0.7273 -4.01213,2.05885 -5.25,2.959 -4.38828,3.191 -7.13387,4.0416 -9.98337,3.0929 z m 95.73269,-103.88827 c 2.75,-3.05148 7.8125,-8.39553 11.25,-11.87565 11.03007,-11.16687 18.38395,-19.47612 19.80207,-22.37466 1.20388,-2.46064 1.28191,-2.93634 0.76473,-4.66253 -0.31677,-1.05727 -0.94009,-2.06205 -1.38517,-2.23284 -0.44508,-0.17079 -2.18677,0.2357 -3.87043,0.90331 -1.84436,0.73133 -4.65122,1.33602 -7.0612,1.52121 -15.91235,1.22276 -16.86252,1.5093 -17.4991,5.27716 -0.19008,1.12508 -1.13578,3.21779 -2.10156,4.65048 -2.90066,4.30299 -4.5854,8.07472 -5.13026,11.48543 -0.28361,1.77533 -1.20757,5.55697 -2.05326,8.40363 -1.5376,5.17577 -1.5376,5.17577 -0.55786,8.1958 0.53886,1.66101 1.13539,3.75128 1.32562,4.64503 0.19023,0.89375 0.60925,1.62203 0.93115,1.6184 0.32189,-0.004 2.83527,-2.50328 5.58527,-5.55477 z m 65,-236.94201 c -7.63412,-0.32773 -9.61116,-0.58304 -13.02699,-1.68228 -2.21484,-0.71276 -5.81484,-1.65423 -8,-2.09217 -9.06393,-1.81652 -21.43479,-5.93243 -29.97301,-9.97233 -2.475,-1.17106 -5.5125,-2.49356 -6.75,-2.93889 -2.89704,-1.04254 -4.31952,-1.99263 -12.879,-8.60208 -0.89594,-0.69183 -2.21482,-2.4281 -2.93084,-3.85837 -0.71602,-1.43027 -2.16111,-3.72606 -3.21132,-5.10174 -2.35358,-3.08296 -2.97884,-4.67056 -2.97884,-7.56362 0,-1.23737 -0.47566,-3.35546 -1.05702,-4.70687 -1.79425,-4.17085 -0.79458,-10.21372 3.92721,-23.73935 1.5339,-4.39388 2.80665,-6.83825 6.27841,-12.05802 2.39497,-3.60082 5.44793,-7.53335 6.78434,-8.73893 1.33642,-1.20559 5.06306,-4.55447 8.28143,-7.44197 3.21837,-2.8875 7.73894,-7.41756 10.04573,-10.06679 4.7213,-5.42222 8.03,-8.37201 12.65688,-11.28399 1.79942,-1.13248 3.95852,-3.05244 5,-4.4462 1.27308,-1.70369 2.69853,-2.87271 4.66638,-3.82695 1.55836,-0.75566 3.58336,-2.21656 4.5,-3.24645 4.67443,-5.25186 6.75561,-6.95882 10.13288,-8.31083 2.7787,-1.11239 4.51332,-2.35609 9.02791,-6.47288 6.9498,-6.33742 12.76075,-11.21045 14.88399,-12.48162 0.89202,-0.53406 2.92563,-2.09617 4.51914,-3.47137 1.5935,-1.37519 4.2935,-3.16979 6,-3.988 3.3444,-1.60354 7.21249,-5.00071 9.18069,-8.06302 0.90741,-1.41183 2.06796,-2.2857 4.46218,-3.35992 1.77971,-0.79849 4.18623,-2.10394 5.34783,-2.90099 6.51476,-4.47018 13.12813,-6.74449 19.61202,-6.74449 10.91686,0 15.25924,3.67456 18.5102,15.6635 0.97526,3.59659 1.28577,5.92865 1.27873,9.60392 -0.0146,7.61667 -0.85448,9.73015 -5.85326,14.72893 -5.47931,5.4793 -10.11685,6.94022 -16.41823,5.17204 -3.81186,-1.06961 -3.81186,-1.06961 -7.41909,0.71275 -1.98396,0.9803 -3.88401,1.78236 -4.22233,1.78236 -0.33831,0 -3.93632,1.59499 -7.99556,3.54443 -14.29672,6.86594 -15.39791,7.35445 -17.33857,7.69174 -1.44608,0.25134 -2.75353,1.09387 -5,3.2221 -1.67304,1.58498 -4.16689,3.63007 -5.54189,4.54465 -1.375,0.91457 -4.3,3.15576 -6.5,4.98039 -2.2,1.82464 -5.73637,4.51034 -7.85861,5.96823 -2.12224,1.45789 -5.49724,4.04136 -7.5,5.74105 -2.00276,1.69969 -4.39244,3.61861 -5.3104,4.26426 -0.91794,0.64565 -2.60544,2.36042 -3.75,3.81059 -1.14454,1.45018 -3.47596,3.68135 -5.18093,4.95817 -2.50687,1.87734 -3.3916,2.93877 -4.62437,5.54794 -0.83844,1.77455 -1.58096,3.23278 -1.65006,3.24053 -0.0691,0.008 -1.36313,0.41773 -2.87563,0.91108 -2.32157,0.75725 -2.98369,1.26251 -4.25,3.24317 -0.825,1.2904 -2.92004,4.08667 -4.65563,6.21393 -7.82928,9.59608 -9.27244,12.87157 -8.77694,19.9207 0.3253,4.62786 0.36879,4.75695 2.12035,6.29484 5.0632,4.44556 12.11414,7.7107 19.69966,9.12252 2.4131,0.44912 6.3506,1.51085 8.75,2.35939 2.39941,0.84853 5.97773,1.74454 7.95183,1.99111 1.9741,0.24658 4.53364,0.78152 5.68786,1.18875 1.15423,0.40724 3.55985,0.74043 5.34583,0.74043 1.78597,0 6.31393,0.43325 10.06213,0.96278 4.52325,0.63901 11.25649,1.06714 20.02324,1.27315 7.26458,0.1707 14.30866,0.54634 15.65351,0.83477 1.78323,0.38243 3.57376,0.35649 6.61405,-0.0958 2.74058,-0.40772 5.34321,-0.47867 7.59649,-0.20707 7.33596,0.88423 30.93895,-0.58737 37.08602,-2.31224 3.13538,-0.87979 4.41437,-1.00125 7.0839,-0.67275 5.59431,0.68841 11.46978,0.43631 15.5077,-0.66539 8.13259,-2.21888 10.55751,-2.43465 24.07534,-2.1422 3.28947,0.0712 5.78229,-0.16411 7.83184,-0.73919 1.84099,-0.51655 3.84704,-0.73703 5.17467,-0.56875 7.39342,0.93718 7.69371,0.93997 9.68291,0.0899 1.36294,-0.58242 5.57469,-1.14323 13.43628,-1.7891 6.29807,-0.51742 12.14808,-1.15249 13,-1.41126 0.85193,-0.25877 4.98449,-0.61392 9.18348,-0.78921 5.16228,-0.21552 8.31955,-0.5814 9.75,-1.1299 1.69633,-0.65045 4.34453,-0.8281 13.36548,-0.89658 11.25,-0.0854 11.25,-0.0854 14.5,-1.64921 2.58474,-1.24369 4.9899,-1.8306 11.75,-2.86724 9.40606,-1.44239 12.17173,-1.37515 15.20331,0.3696 1.83366,1.05532 2.12173,1.09006 3.64387,0.43947 3.04253,-1.30044 7.677,-1.21297 13.15282,0.24825 9.57795,2.55588 9.48545,2.54575 12.01465,1.31696 3.65775,-1.77707 7.41015,-1.3232 8.9896,1.08733 1.6621,2.5367 -0.4985,6.84859 -3.79445,7.5725 -0.807,0.17725 -2.87185,1.26027 -4.58855,2.40672 -3.12125,2.08445 -3.12125,2.08445 -14.12125,2.10107 -11,0.0166 -11,0.0166 -13.54617,1.78217 -4.56382,3.16465 -8.86752,4.29619 -17.79073,4.67759 -6.11149,0.26123 -9.11255,0.15037 -13.63103,-0.50354 -6.77193,-0.98002 -8.11183,-0.77149 -14.82794,2.30763 -3.11755,1.4293 -4.95936,1.96953 -6.71476,1.96953 -1.33038,0 -3.86047,0.48694 -5.62242,1.0821 -2.82619,0.95464 -3.59599,1.02165 -6.53525,0.56893 -3.31203,-0.51015 -9.79479,0.0347 -15.5817,1.30971 -1.2375,0.27264 -3.41661,0.50551 -4.84245,0.51748 -1.42585,0.012 -3.21574,0.25875 -3.97754,0.54839 -1.97976,0.7527 -11.30524,1.99745 -14.35175,1.91565 -4.46564,-0.11991 -17.33902,1.03315 -20.40518,1.82767 -1.88931,0.48957 -3.81174,0.64663 -5.37559,0.43917 -1.96559,-0.26074 -3.06385,-0.0711 -5.70219,0.98435 -2.78762,1.11522 -3.91619,1.2899 -7.6815,1.18896 -4.81648,-0.12913 -10.07283,0.56085 -16.66078,2.187 -3.43258,0.84729 -5.04315,0.98371 -8.39899,0.71142 -3.04482,-0.24705 -5.24561,-0.11325 -8.25302,0.50178 -3.08828,0.63157 -5.02706,0.74115 -7.85101,0.44372 -5.51372,-0.58072 -6.63734,-0.48434 -13.5,1.15797 -10.21813,2.44532 -11.94796,2.73932 -18.75,3.18679 -9.3331,0.61398 -42.42183,0.87964 -53,0.42553 z"
     id="path865"
     inkscape:connector-curvature="0" />
</svg>
