<?xml version="1.0" encoding="UTF-8" standalone="no"?>
<!-- Created with Inkscape (http://www.inkscape.org/) -->

<svg
   xmlns:dc="http://purl.org/dc/elements/1.1/"
   xmlns:cc="http://creativecommons.org/ns#"
   xmlns:rdf="http://www.w3.org/1999/02/22-rdf-syntax-ns#"
   xmlns:svg="http://www.w3.org/2000/svg"
   xmlns="http://www.w3.org/2000/svg"
   xmlns:sodipodi="http://sodipodi.sourceforge.net/DTD/sodipodi-0.dtd"
   xmlns:inkscape="http://www.inkscape.org/namespaces/inkscape"
   version="1.1"
   id="svg119"
   width="1000"
   height="1000"
   viewBox="0 0 1000 1000"
   sodipodi:docname="Saida_lettre_c_bdc.svg"
   inkscape:version="0.92.2 5c3e80d, 2017-08-06">
  <metadata
     id="metadata125">
    <rdf:RDF>
      <cc:Work
         rdf:about="">
        <dc:format>image/svg+xml</dc:format>
        <dc:type
           rdf:resource="http://purl.org/dc/dcmitype/StillImage" />
        <dc:title></dc:title>
      </cc:Work>
    </rdf:RDF>
  </metadata>
  <defs
     id="defs123" />
  <sodipodi:namedview
     pagecolor="#ffffff"
     bordercolor="#666666"
     borderopacity="1"
     objecttolerance="10"
     gridtolerance="10"
     guidetolerance="10"
     inkscape:pageopacity="0"
     inkscape:pageshadow="2"
     inkscape:window-width="1280"
     inkscape:window-height="763"
     id="namedview121"
     showgrid="false"
     inkscape:zoom="0.1382495"
     inkscape:cx="823"
     inkscape:cy="600"
     inkscape:window-x="0"
     inkscape:window-y="0"
     inkscape:window-maximized="0"
     inkscape:current-layer="svg119" />
  <path
     style="fill:#000000;stroke-width:0.5"
     d="m 373.85923,870.14707 c -3.32932,-1.5466 -5.02093,-2.04345 -7,-2.056 -2.94192,-0.0185 -29.14515,0.96965 -37.71562,1.42245 -3.4645,0.18305 -6.90239,0.0695 -9,-0.2973 -1.86677,-0.3264 -5.90124,-0.68315 -8.9655,-0.79275 -3.06426,-0.10955 -7.53749,-0.5421 -9.9405,-0.96115 -2.40301,-0.41905 -5.52987,-0.7619 -6.94857,-0.7619 -3.14604,0 -7.1211,-0.9977 -10.78955,-2.7081 -3.39719,-1.58385 -6.53348,-1.65995 -10.10649,-0.24515 -5.54625,2.19615 -9.61175,0.1652 -10.33477,-5.16275 -0.20773,-1.53075 -0.76403,-3.37285 -1.23624,-4.0935 -1.30782,-1.996 -4.5421,-4.11565 -8.0725,-5.2905 -4.37874,-1.45715 -6.69768,-3.2876 -9.73973,-7.6881 -3.13194,-4.5305 -4.14002,-5.32895 -11.41734,-9.04305 -6.47854,-3.30645 -7.57787,-4.53 -8.77701,-9.76885 -0.40915,-1.7875 -1.21678,-4.353 -1.79475,-5.70105 -1.68123,-3.92143 -8.3819,-14.99993 -10.58913,-17.50749 -1.1127,-1.26409 -2.74965,-4.04055 -3.63765,-6.1699 -0.88801,-2.12936 -2.63252,-5.35339 -3.87668,-7.16453 -1.83038,-2.66449 -2.51032,-4.30718 -3.56257,-8.60704 -0.90717,-3.707 -1.89492,-6.29973 -3.26618,-8.57331 -1.08115,-1.79258 -2.43137,-4.44441 -3.00047,-5.89296 -7.24635,-18.44423 -7.1864,-18.24943 -6.82017,-22.15764 0.33468,-3.57147 0.30455,-3.70738 -1.45452,-6.56154 -1.94671,-3.15861 -2.8138,-6.62447 -2.8138,-11.24705 0,-2.27968 -0.33927,-3.6181 -1.5,-5.91749 -1.57156,-3.11323 -1.89821,-5.80256 -0.93016,-7.65787 0.31342,-0.60067 1.58194,-2.18441 2.81895,-3.51942 2.2491,-2.42729 2.2491,-2.42729 1.93716,-6.11761 -0.20538,-2.42962 -0.0582,-5.01664 0.43096,-7.57271 1.21238,-6.33576 1.01878,-8.55568 -1.09987,-12.61163 -1.73343,-3.31849 -1.86369,-3.89194 -2.192,-9.64946 -0.19197,-3.36672 -0.60976,-6.96156 -0.92841,-7.98854 -0.73839,-2.37981 -0.0714,-5.04385 2.25979,-9.02619 0.93158,-1.59138 1.83011,-3.43661 1.99673,-4.10051 0.16663,-0.6639 -0.11183,-3.97435 -0.6188,-7.35658 -1.21529,-8.10775 -1.15849,-11.56986 0.23389,-14.25456 1.35792,-2.61827 1.36602,-3.64716 0.049,-6.22864 -0.57349,-1.12414 -1.16135,-3.19642 -1.30635,-4.60508 -0.26909,-2.61425 0.38751,-4.71294 4.55563,-14.5612 0.91705,-2.16676 1.27299,-3.90935 1.28157,-6.27402 0.008,-2.33077 0.44118,-4.49155 1.502,-7.5 0.81957,-2.32429 1.49458,-5.15853 1.5,-6.29831 0.005,-1.13978 0.51008,-3.61478 1.12144,-5.5 0.8818,-2.71911 1.11436,-4.62194 1.125,-9.20497 0.0134,-5.77731 0.0134,-5.77731 2.85868,-9.5 1.56488,-2.04749 4.28855,-6.5352 6.05259,-9.9727 1.76404,-3.4375 4.08368,-7.9375 5.15475,-10 1.38135,-2.65998 3.06364,-4.84001 5.78762,-7.5 2.54624,-2.48641 4.8005,-5.35054 6.69009,-8.5 5.43313,-9.0556 8.27715,-12.992 11.10576,-15.37138 1.55523,-1.30824 5.39734,-4.96607 8.53802,-8.1285 4.49454,-4.52567 6.07178,-6.49257 7.40796,-9.23812 2.20453,-4.52985 3.57107,-5.89599 8.41795,-8.41557 2.64925,-1.37717 5.46488,-3.44763 8.33794,-6.13127 3.09812,-2.89384 5.45605,-4.59281 8.25,-5.9444 2.15164,-1.04086 5.93706,-3.0749 8.41206,-4.52009 2.47501,-1.44519 8.14154,-4.44926 12.59232,-6.67572 4.45078,-2.22646 8.83827,-4.68724 9.75,-5.4684 2.91457,-2.49719 4.52377,-3.42567 10.93646,-6.31017 4.68592,-2.10777 7.28622,-3.65226 10.25,-6.08814 4.75969,-3.91191 6.26836,-4.73622 12.88117,-7.03798 5.68484,-1.97877 7.13176,-2.65524 10.26561,-4.79938 1.19656,-0.81867 5.35906,-2.9322 9.25,-4.69675 15.11324,-6.85386 15.77723,-7.22443 20.11289,-11.22506 3.81272,-3.5181 4.44824,-3.90217 8.5404,-5.16124 8.05335,-2.47787 11.37257,-3.66455 16.17115,-5.78149 6.13835,-2.70799 6.53808,-3.07572 6.18798,-5.69258 -0.3634,-2.71625 1.17136,-4.98883 4.56202,-6.75517 2.67087,-1.39137 4.6536,-1.55946 10,-0.84775 2.78317,0.37049 3.49233,0.23295 9.81151,-1.90288 4.86735,-1.64513 8.21095,-2.44736 11.71462,-2.81067 7.1718,-0.74368 15.55743,-2.76145 23.22388,-5.58821 9.10821,-3.35835 9.7521,-3.56787 17.5,-5.69411 3.7125,-1.01881 8.77499,-2.58003 11.25,-3.46937 3.44344,-1.23733 5.73265,-1.70097 9.75,-1.97474 3.87566,-0.2641 6.63678,-0.80449 10.54753,-2.06431 2.91365,-0.9386 6.19275,-1.70655 7.28689,-1.70655 1.09416,0 4.10771,-0.36388 6.69679,-0.80862 9.81232,-1.68553 14.48187,0.15506 18.22946,7.18545 1.20495,2.26045 1.82491,2.82639 4.44479,4.05755 1.6745,0.78688 4.71061,1.95337 6.74691,2.59219 4.58876,1.43958 6.25453,3.0129 9.00219,8.50255 2.54526,5.08529 2.61048,6.99384 0.48988,14.33546 -2.01008,6.95893 -3.40824,9.64703 -6.73356,12.94588 -1.49098,1.47912 -2.71308,2.9706 -2.71576,3.31442 -0.003,0.34381 -0.55291,1.80221 -1.22272,3.24087 -1.37509,2.95354 -3.05399,4.20642 -7.2724,5.42699 -3.82293,1.10615 -5.75816,2.41587 -7.57621,5.12738 -0.8592,1.28144 -2.79025,3.59585 -4.29123,5.14313 -2.68208,2.76484 -2.73656,2.88017 -3.16491,6.69972 -0.69174,6.16831 -2.78944,11.82145 -6.25717,16.86264 -0.91478,1.32986 -2.22825,4.26439 -2.91881,6.52117 -0.73668,2.40745 -2.27813,5.71921 -3.72984,8.01342 -1.36084,2.15062 -2.98362,5.18812 -3.60618,6.75 -1.24363,3.12007 -3.25035,6.30969 -4.90907,7.8028 -0.58839,0.52966 -1.41897,2.21716 -1.84573,3.75 -1.50906,5.42036 -1.7672,5.95724 -4.20243,8.74011 -2.45951,2.81062 -2.45951,2.81062 -2.16015,6.01639 0.27355,2.92939 0.16957,3.43575 -1.20604,5.8732 -0.86776,1.53759 -1.65337,3.83008 -1.85474,5.41236 -0.67712,5.3204 -1.89096,11.26005 -2.5698,12.57477 -0.37766,0.7314 -2.30164,2.6439 -4.27551,4.25 -4.86537,3.95883 -5.34279,4.71671 -5.93422,9.42017 -0.27663,2.2 -0.8552,5.06206 -1.2857,6.36012 -1.05878,3.19245 -4.69245,7.11309 -8.26285,8.91542 -2.8848,1.45624 -2.91215,1.49101 -4.00905,5.09535 -0.96866,3.18294 -1.10972,4.8278 -1.1474,13.37911 -0.0472,10.71979 -0.13132,11.10851 -3.44511,15.92591 -0.96605,1.4044 -1.91649,3.51435 -2.11207,4.68877 -0.49074,2.94673 -1.78269,5.28043 -4.22695,7.63532 -2.0759,2 -2.0759,2 -1.74873,5.30422 0.4449,4.4931 -1.05031,9.88123 -4.82601,17.39102 -1.60515,3.19262 -2.92198,5.99738 -2.92627,6.23281 -0.004,0.23543 0.69862,1.32 1.56204,2.41015 1.31305,1.65786 1.63581,2.61026 1.97304,5.82195 0.22175,2.11192 0.41532,3.8716 0.43014,3.91041 0.0148,0.0388 0.92655,1.15918 2.02605,2.48973 3.44138,4.16455 3.82027,7.72081 1.11377,10.45386 -2.31237,2.33505 -8.90195,5.23585 -11.89398,5.23585 -4.05692,0 -6.71888,-2.82641 -6.71888,-7.13394 0,-0.91633 -0.27,-1.93606 -0.6,-2.26606 -1.06836,-1.06836 -4.79548,-0.6613 -8.93969,0.97635 -3.81713,1.50838 -4.10833,1.54966 -6.75498,0.95736 -5.84015,-1.30696 -11.42657,-5.18406 -14.19445,-9.85122 -0.95652,-1.61288 -2.58892,-4.0229 -3.62756,-5.35562 -1.03863,-1.33272 -1.99055,-2.90772 -2.11536,-3.5 -0.35792,-1.69842 -0.8667,-11.43899 -0.98339,-18.82687 -0.0586,-3.7125 -0.3283,-9.225 -0.59924,-12.25 -0.44798,-5.00144 -0.63734,-5.69943 -2.08898,-7.70002 -2.83737,-3.91036 -1.7433,-7.22849 3.2044,-9.71845 1.8952,-0.95376 2.81928,-2.33366 3.69345,-5.51533 0.36778,-1.3386 1.63601,-3.72062 2.81829,-5.2934 1.43238,-1.90549 2.26254,-3.59584 2.48809,-5.0662 0.43554,-2.8392 1.37358,-4.66881 3.823,-7.4566 3.22869,-3.6747 3.57807,-4.66849 3.60357,-10.25 0.0212,-4.627 0.15094,-5.27334 1.73983,-8.66398 1.67138,-3.56666 1.70127,-3.74011 1.125,-6.5301 -0.85868,-4.15732 -0.74206,-5.93954 0.65802,-10.05592 0.6875,-2.02134 1.2522,-4.0295 1.25488,-4.46257 0.0153,-2.46391 4.76096,-9.69027 11.51712,-17.53743 5.10685,-5.93152 6.95195,-9.11108 7.76801,-13.38619 0.40564,-2.1251 1.38121,-5.55131 2.16793,-7.61381 0.78672,-2.0625 1.79458,-5.37628 2.2397,-7.36397 0.55455,-2.47639 2.13393,-6.17497 5.01752,-11.75 4.07251,-7.87365 6.71021,-14.79325 6.04771,-15.86521 -0.54432,-0.88073 -2.8246,-0.5733 -7.26287,0.97918 -2.3375,0.81764 -4.64571,1.48963 -5.12935,1.49331 -0.48363,0.004 -2.2016,1.22228 -3.8177,2.70801 -2.45459,2.25658 -3.42112,2.80095 -5.87066,3.30644 -6.56878,1.35556 -7.66061,2.16179 -7.54737,5.57312 0.1155,3.47972 -2.50762,4.68575 -6.42381,2.95343 -2.91647,-1.29009 -3.99675,-1.29407 -6.86498,-0.0253 -1.25455,0.55495 -4.14245,1.47228 -6.41757,2.03852 -5.62035,1.39883 -6.21327,1.78329 -8.86821,5.75034 -3.67905,5.49728 -7.94353,8.09558 -17.12991,10.43707 -2.59854,0.66233 -3.95607,1.38838 -6.25,3.3427 -1.61174,1.37312 -4.50321,3.43613 -6.42549,4.58448 -1.92228,1.14834 -4.95978,3.45189 -6.75,5.119 -3.77342,3.5139 -5.39749,4.65663 -8.50495,5.98426 -1.2375,0.52871 -3.7125,1.89626 -5.5,3.039 -1.7875,1.14274 -5.00444,2.69971 -7.14876,3.45994 -2.95837,1.04884 -4.28497,1.83332 -5.5,3.25239 -2.0828,2.43258 -4.34886,3.7185 -8.35124,4.73904 -4.00448,1.02108 -4.7647,1.67895 -5.71409,4.94475 -1.40517,4.83359 -5.01472,6.96086 -11.50638,6.7812 -5.75992,-0.15942 -5.51057,-0.23693 -8.71548,2.70943 -2.85375,2.62354 -8.75861,6.78219 -14.81405,10.43318 -1.65,0.99482 -3.82,2.66759 -4.82222,3.71725 -2.38445,2.4973 -6.20498,8.72963 -7.21435,11.76856 -0.59263,1.78426 -1.49913,3.0106 -3.50635,4.7435 -1.74547,1.50694 -2.70708,2.72734 -2.70708,3.43563 0,0.60417 0.6965,2.58689 1.54779,4.40603 1.24062,2.65116 1.552,3.98136 1.56904,6.70296 0.0358,5.70913 -1.24351,7.71312 -8.11683,12.71531 -1.49242,1.08614 -2.70491,2.56323 -3.6011,4.38697 -1.70408,3.46782 -3.71569,11.8191 -4.33563,17.9995 -0.26205,2.6125 -1.17168,7.08783 -2.0214,9.94518 -1.14136,3.8381 -1.69353,7.06693 -2.11375,12.36057 -0.63179,7.95858 -0.99719,6.63629 3.32188,12.02135 0.68424,0.85312 0.98496,1.94133 0.95237,3.44633 -0.0465,2.14898 -0.60679,3.22575 -3.82553,7.3522 -0.92223,1.1823 -1.12581,2.32741 -1.4485,8.14788 -0.20651,3.72474 -0.50001,7.16461 -0.65221,7.64416 -0.1522,0.47954 -0.31317,3.13486 -0.35771,5.9007 -0.0802,4.97856 -0.0598,5.0713 2.03531,9.28079 1.91318,3.84389 2.15487,4.75099 2.51837,9.45141 0.22115,2.85969 0.74727,5.98693 1.16918,6.94943 0.4219,0.9625 1.14145,3.2125 1.59899,5 0.76326,2.98179 1.13488,3.53883 4.5032,6.75 3.32885,3.17352 3.7289,3.76617 4.28867,6.35348 0.56117,2.59379 0.51554,3.1549 -0.50142,6.16557 -0.61531,1.82165 -0.9953,3.80401 -0.8444,4.40525 0.1509,0.60124 1.42104,2.19209 2.82253,3.53522 1.40149,1.34314 2.97458,3.27792 3.49576,4.29951 0.52118,1.02159 1.48919,2.50624 2.15114,3.2992 3.12244,3.74045 3.55975,6.61197 1.59635,10.48203 -0.68636,1.35285 -1.24886,2.83295 -1.25,3.2891 -0.001,0.45614 1.45306,1.97293 3.23159,3.37062 2.79505,2.19654 3.50742,3.11477 5.25166,6.76933 1.58962,3.33057 2.57383,4.68474 4.63651,6.37939 1.44019,1.18321 4.14084,3.67005 6.00144,5.5263 3.68022,3.67161 4.13129,3.81782 8.08117,2.61959 3.48599,-1.05752 7.55036,-0.95248 10.05466,0.25983 2.60681,1.26194 3.73993,2.47455 5.83612,6.24558 2.01442,3.62393 4.67898,5.25 8.60289,5.25 1.36744,0 3.82648,0.37604 5.46452,0.83566 2.56693,0.72024 3.57279,0.75535 7.2828,0.25417 2.3675,-0.31982 6.66704,-0.72448 9.55454,-0.89924 4.27706,-0.25886 6.05879,-0.63027 9.61423,-2.00417 4.65626,-1.79926 8.23573,-2.14107 12.13577,-1.15887 1.80262,0.45397 4.09118,0.76062 13.3718,1.7917 2.17036,0.24113 3.45266,0.0969 5.25,-0.59042 1.70251,-0.65107 3.54655,-0.88465 6.49043,-0.82211 4.06013,0.0862 4.12663,0.0677 5.25,-1.4606 2.44265,-3.32324 9.52861,-5.56629 17.09037,-5.40992 2.50107,0.0517 6.27384,-0.0763 8.38394,-0.28437 2.96112,-0.29205 4.64488,-0.1803 7.37912,0.48976 4.82643,1.18277 6.3445,0.81204 9.25282,-2.2597 4.09791,-4.32817 5.03452,-4.53657 15.78152,-3.51138 8.53791,0.81444 9.96902,0.48528 13.99937,-3.21993 3.0564,-2.80984 3.40168,-2.93725 9.50063,-3.50581 1.7875,-0.16664 4.4875,-0.61372 6,-0.99351 1.5125,-0.3798 5.5625,-1.05709 9,-1.50508 10.55458,-1.37554 16.51141,-2.66241 18.97843,-4.09996 7.82052,-4.55706 10.28916,-5.22081 14.6752,-3.94574 3.81667,1.10952 4.39561,1.03523 7.33214,-0.94091 2.65413,-1.78609 4.49818,-2.42564 8.63063,-2.99324 1.84197,-0.25299 3.01811,-0.86958 5.30714,-2.78226 3.35676,-2.80484 3.86309,-3.03232 10.48586,-4.71111 5.94344,-1.50658 14.47704,-5.48427 17.8406,-8.31588 3.5414,-2.98133 6.94422,-4.39328 13.91844,-5.77524 7.87456,-1.56038 7.27932,-1.32806 11.39861,-4.44885 1.9584,-1.48369 4.37575,-2.95783 5.37185,-3.27588 0.9961,-0.31805 3.67,-1.3385 5.94195,-2.26769 3.7115,-1.51791 4.62165,-1.68942 8.96515,-1.68942 4.8124,0 4.8485,-0.009 7.9715,-2.04397 2.54835,-1.66034 3.8062,-2.12798 6.70165,-2.49154 1.98195,-0.24886 4.6003,-0.98069 5.89765,-1.6484 8.4605,-4.35437 16.69805,-8.0578 22.13115,-9.94967 4.73315,-1.64814 8.12695,-3.28781 13.6593,-6.59935 5.076,-3.03833 8.5538,-4.75471 11.2021,-5.52849 8.13245,-2.37616 12.00655,-3.421 16.59065,-4.47448 2.6125,-0.60038 6.8875,-1.89675 9.5,-2.88081 2.6125,-0.98407 6.775,-2.39842 9.25,-3.14302 2.475,-0.7446 6.9146,-2.11577 9.86575,-3.04704 2.95115,-0.93128 5.74075,-1.69323 6.1991,-1.69323 0.45835,0 3.10625,-0.77687 5.88425,-1.72638 2.778,-0.94951 7.3748,-2.30791 10.2151,-3.01866 2.84035,-0.71076 7.00285,-2.05273 9.25,-2.98217 2.2472,-0.92944 6.19685,-2.28285 8.77705,-3.00758 2.58015,-0.72472 5.95515,-1.94987 7.5,-2.72255 1.5448,-0.77267 4.04625,-1.67956 5.55875,-2.01531 5.2116,-1.15688 7.4791,-2.10457 10.32705,-4.31602 1.66475,-1.29271 4.01755,-2.55726 5.6397,-3.03112 1.5308,-0.44718 5.48325,-1.6743 8.78325,-2.72691 13.8545,-4.41925 17.72235,-5.50902 25.65325,-7.22794 9.72455,-2.10769 14.7739,-2.18332 19.59675,-0.29354 2.96585,1.16215 10.60415,6.39249 13.59035,9.30603 3.4403,3.35657 4.354,9.32934 1.9448,12.71276 -0.60385,0.84808 -2.65025,2.44854 -4.5475,3.55659 -1.89725,1.10805 -4.18935,2.95045 -5.0936,4.09421 -3.56605,4.51068 -5.612,6.28512 -7.90265,6.85397 -1.23275,0.30613 -3.06515,0.78195 -4.072,1.05738 -2.75515,0.75369 -10.71585,6.16552 -14.6694,9.97255 -4.2755,4.11704 -6.9586,5.55099 -10.9638,5.85946 -3.855,0.29691 -5.3762,0.88058 -6.9768,2.677 -1.8255,2.04882 -3.8269,2.9439 -7.6866,3.43772 -1.85505,0.23734 -4.6103,0.91185 -6.1228,1.49892 -1.5125,0.58706 -4.94255,1.6155 -7.6224,2.28541 -3.65145,0.91281 -5.5934,1.72043 -7.75,3.22302 -1.58265,1.10275 -4.0026,2.26056 -5.3776,2.57292 -7.59255,1.7248 -6.61785,1.22068 -24.3863,12.61286 -5.43745,3.48622 -10.83745,6.81706 -12,7.40187 -1.16255,0.58482 -4.2704,2.48221 -6.9063,4.21642 -2.8213,1.85614 -6.3176,3.66124 -8.5,4.38845 -3.505,1.16789 -12.7848,5.37878 -19.9574,9.056 -1.7875,0.91641 -4.7125,2.14251 -6.5,2.72466 -1.7875,0.58215 -5.1625,2.18803 -7.5,3.56863 -2.3375,1.38059 -6.275,3.16393 -8.75,3.96296 -6.06705,1.95871 -11.5416,4.00448 -17.2635,6.45115 -2.61995,1.12028 -6.81125,2.58489 -9.3141,3.25469 -6.38795,1.70952 -8.00295,2.60298 -10.48685,5.80155 -2.6612,3.42686 -4.1246,4.3283 -8.05395,4.9611 -1.702,0.2741 -4.59775,1.29186 -6.5497,2.30201 -3.6736,1.90108 -9.72665,3.37787 -16.5819,4.04555 -3.74545,0.36479 -3.75305,0.36855 -6.2446,3.08779 -2.87885,3.14193 -3.61155,3.56713 -10.63925,6.17419 -2.8605,1.06118 -7.2631,3.15337 -9.78356,4.64931 -2.52042,1.49595 -6.21384,3.18816 -8.20759,3.76048 -1.99375,0.57232 -5.24832,1.51172 -7.23238,2.08757 -1.98406,0.57585 -4.91384,1.7065 -6.51063,2.51255 -1.59678,0.80605 -6.46149,2.674 -10.81045,4.15095 -4.34897,1.47695 -8.84552,3.16405 -9.99234,3.7491 -1.14682,0.58505 -3.8214,1.4228 -5.94351,1.8617 -2.12211,0.43885 -5.62208,1.57335 -7.77771,2.52115 -2.15564,0.94775 -5.19928,1.9653 -6.76366,2.2612 -10.67869,2.01975 -14.34095,3.10495 -25.07477,7.4301 -9.99118,4.02595 -11.80837,4.59985 -16.01955,5.0595 -2.6125,0.2852 -7.13737,1.26525 -10.05527,2.17795 -2.9179,0.91275 -6.7429,1.91435 -8.5,2.2258 -1.7571,0.31145 -4.88223,1.08905 -6.94473,1.728 -2.0625,0.63895 -4.7625,1.3232 -6,1.5206 -1.2375,0.1974 -4.07599,0.7866 -6.30775,1.3094 -2.23177,0.5228 -6.50677,1.2908 -9.5,1.7067 -6.56669,0.91235 -13.22088,3.0158 -19.94225,6.3039 -5,2.446 -5,2.446 -15.08644,2.68045 -13.94415,0.3241 -17.77245,0.82345 -22.60637,2.9488 -2.17905,0.9581 -4.8271,1.9022 -5.88455,2.09805 -1.05745,0.1959 -3.33403,0.8851 -5.05906,1.5316 -4.59891,1.7236 -7.02855,1.54955 -12.25384,-0.87785 z"
     id="path129"
     inkscape:connector-curvature="0" />
</svg>
