<?xml version="1.0" encoding="UTF-8" standalone="no"?>
<!-- Created with Inkscape (http://www.inkscape.org/) -->

<svg
   xmlns:dc="http://purl.org/dc/elements/1.1/"
   xmlns:cc="http://creativecommons.org/ns#"
   xmlns:rdf="http://www.w3.org/1999/02/22-rdf-syntax-ns#"
   xmlns:svg="http://www.w3.org/2000/svg"
   xmlns="http://www.w3.org/2000/svg"
   xmlns:sodipodi="http://sodipodi.sourceforge.net/DTD/sodipodi-0.dtd"
   xmlns:inkscape="http://www.inkscape.org/namespaces/inkscape"
   version="1.1"
   id="svg141"
   width="1000"
   height="1000"
   viewBox="0 0 1000 1000"
   sodipodi:docname="Saida_lettre_o2_bdc.svg"
   inkscape:version="0.92.2 5c3e80d, 2017-08-06">
  <metadata
     id="metadata147">
    <rdf:RDF>
      <cc:Work
         rdf:about="">
        <dc:format>image/svg+xml</dc:format>
        <dc:type
           rdf:resource="http://purl.org/dc/dcmitype/StillImage" />
        <dc:title></dc:title>
      </cc:Work>
    </rdf:RDF>
  </metadata>
  <defs
     id="defs145" />
  <sodipodi:namedview
     pagecolor="#ffffff"
     bordercolor="#666666"
     borderopacity="1"
     objecttolerance="10"
     gridtolerance="10"
     guidetolerance="10"
     inkscape:pageopacity="0"
     inkscape:pageshadow="2"
     inkscape:window-width="1034"
     inkscape:window-height="480"
     id="namedview143"
     showgrid="false"
     inkscape:zoom="0.12984834"
     inkscape:cx="972.92739"
     inkscape:cy="600"
     inkscape:window-x="0"
     inkscape:window-y="0"
     inkscape:window-maximized="0"
     inkscape:current-layer="svg141" />
  <path
     style="fill:#000000;stroke-width:0.5"
     d="m 314.59741,860.17226 c -2.6125,-0.2208 -5.7625,-0.77575 -7,-1.2332 -1.2375,-0.45745 -4.725,-1.008 -7.75,-1.22345 -4.76173,-0.33915 -5.92944,-0.6086 -8.69926,-2.0074 -3.19926,-1.61565 -3.19926,-1.61565 -8.83022,-1.26385 -5.42385,0.3389 -5.73836,0.3024 -8.55074,-0.992 -2.15352,-0.99115 -4.16636,-1.4449 -7.66978,-1.729 -3.67094,-0.29765 -5.60189,-0.753 -8.5,-2.0044 -4.61279,-1.9918 -17.27005,-6.65155 -21.06147,-7.75375 -3.25224,-0.94545 -4.2227,-0.70475 -7.62285,1.89065 -4.70908,3.5945 -8.76454,2.91785 -14.02679,-2.34045 -2.65956,-2.65755 -4.40136,-3.8908 -7.52109,-5.3253 -3.73387,-1.7169 -6.7678,-4.2255 -6.7678,-5.596 0,-0.2811 -0.36846,-1.28755 -0.8188,-2.2366 -1.02536,-2.16075 -3.00509,-3.1856 -9.4312,-4.88225 -2.8542,-0.75355 -6.07289,-1.99315 -7.5,-2.88845 -6.25641,-3.92485 -6.57335,-4.04385 -9.90248,-3.7172 -1.70363,0.1672 -4.58443,0.4463 -6.40178,0.62025 -4.32017,0.41355 -6.50738,-0.32805 -8.57672,-2.90795 -0.89046,-1.11015 -3.13034,-3.68465 -4.97751,-5.7211 -2.2854,-2.5196 -3.54146,-4.37785 -3.93113,-5.8158 -1.17693,-4.34305 -1.57529,-4.87905 -6.31991,-8.50335 -6.51447,-4.97623 -6.95908,-5.24174 -10.64047,-6.35413 -6.74025,-2.03667 -9.33081,-5.21289 -9.96982,-12.22378 -0.46371,-5.08764 -0.85505,-5.77698 -6.26276,-11.03184 -4.07537,-3.96018 -4.12734,-4.04231 -5.22011,-8.25 -1.40141,-5.39613 -2.23266,-7.55418 -3.80741,-9.88462 -3.72768,-5.5165 -4.29579,-6.48576 -4.74926,-8.10275 -0.33376,-1.19013 -0.31627,-2.9964 0.0539,-5.56121 0.45834,-3.17604 0.40712,-4.48713 -0.31254,-8 -1.12213,-5.47746 -1.62191,-25.91457 -0.73787,-30.17301 0.40467,-1.94928 3.89674,-9.43122 10.82946,-23.2027 5.6277,-11.17914 10.76634,-21.56321 11.41918,-23.07571 0.65285,-1.5125 2.19097,-4.50185 3.41806,-6.64301 1.3241,-2.31045 2.3656,-4.85116 2.56201,-6.25 0.5695,-4.05585 1.21633,-5.35515 4.00129,-8.03743 1.65059,-1.58973 3.58457,-4.23298 4.96462,-6.78538 2.14669,-3.97027 7.8014,-12.29527 13.65111,-20.09748 1.46937,-1.95982 3.12006,-4.86684 3.66821,-6.46005 1.64669,-4.7862 3.25578,-7.01262 7.1491,-9.89186 4.68857,-3.46737 6.0171,-5.10087 7.31115,-8.98951 1.21646,-3.65544 2.12937,-4.78048 5.7677,-7.10789 3.02664,-1.93612 6.11106,-5.23359 9.95971,-10.64767 2.72259,-3.82999 11.07955,-12.5087 27.00229,-28.04191 4.84184,-4.72338 9.85246,-10.15813 11.81384,-12.81383 2.71192,-3.67191 4.05113,-4.9993 6.57207,-6.51406 1.74136,-1.04633 4.4036,-2.83686 5.9161,-3.97896 1.5125,-1.1421 4.4375,-3.05135 6.5,-4.24281 2.0625,-1.19145 6.7493,-4.43469 10.41511,-7.20721 10.41304,-7.87557 14.25643,-10.50909 18.7061,-12.81756 2.27084,-1.17811 6.49129,-3.53042 9.37879,-5.22737 2.8875,-1.69695 7.05,-4.06556 9.25,-5.26357 2.35618,-1.28306 5.54108,-3.63763 7.75,-5.72951 2.0625,-1.95321 4.7625,-4.24747 6,-5.09836 1.2375,-0.8509 3.56285,-3.03894 5.16744,-4.86231 3.46719,-3.93995 5.56961,-5.11054 11.01148,-6.13102 5.24156,-0.98291 8.24169,-2.47865 12.57108,-6.26743 7.55043,-6.6076 15.46704,-8.11011 30.93509,-5.87121 3.8857,0.56242 8.18991,1.3729 9.56491,1.80106 1.50464,0.46853 5.58564,0.9142 10.25,1.11936 7.21916,0.31753 7.92547,0.43698 10.31176,1.74398 1.40897,0.7717 4.82452,3.52404 7.59011,6.11632 5.0662,4.7487 8.09813,9.22349 8.09813,11.95193 0,1.66595 1.00811,4.27236 2.51204,6.49475 2.52888,3.73698 4.05086,7.33491 5.04346,11.92266 0.54469,2.51754 1.549,5.58984 2.2318,6.82734 4.40712,7.98745 4.45721,8.16165 4.52808,15.75 0.0637,6.8206 0.10534,7.07498 1.625,9.92577 2.13823,4.01121 2.06682,6.08387 -0.38237,11.09827 -1.35331,2.77071 -2.04373,4.96115 -2.27758,7.22596 -0.18457,1.7875 -0.55191,4.375 -0.81632,5.75 -0.2644,1.375 -0.79512,4.60806 -1.17937,7.18457 -0.95424,6.3984 -3.92327,12.26153 -9.52797,18.81543 -1.41103,1.65 -3.22729,3.89814 -4.03614,4.99587 -2.66962,3.62309 -13.35316,17.46169 -15.25039,19.75413 -2.48476,3.00236 -4.80127,7.23915 -5.76684,10.54729 -1.05088,3.6004 -2.64742,6.23923 -5.38993,8.90869 -1.62304,1.57981 -2.71261,3.31305 -3.8385,6.10611 -1.89776,4.70793 -4.44398,7.29282 -9.35345,9.49556 -3.48278,1.56262 -7.14669,4.25285 -8.40262,6.16965 -0.67392,1.02853 -0.60179,1.41067 0.853,4.5195 1.58805,3.39357 1.58878,3.399 1.03612,7.69958 -0.30417,2.36699 -0.42973,5.31847 -0.27901,6.55884 0.42151,3.46883 -0.5998,6.4303 -3.02049,8.75846 -2.57695,2.47844 -4.58928,3.10622 -11.86566,3.70167 -6.55703,0.53658 -7.44286,0.78612 -7.44286,2.09672 0,0.52528 0.9,3.64736 2,6.93793 2.9075,8.69758 2.55249,13.26221 -1.20998,15.55758 -4.11938,2.5131 -8.28901,1.43958 -12.63638,-3.25339 -3.88168,-4.19025 -5.96853,-7.83162 -8.30772,-14.49622 -1.07293,-3.05688 -2.40359,-6.79547 -2.95703,-8.30797 -0.73815,-2.01732 -1.07518,-4.49054 -1.26496,-9.28278 -0.28282,-7.14163 0.19136,-10.97497 2.07833,-16.80152 0.65294,-2.01614 1.56681,-6.67917 2.03083,-10.3623 1.05454,-8.37032 2.1421,-11.92503 4.99647,-16.33103 2.84688,-4.39445 3.17683,-5.96562 1.81386,-8.63727 -1.21793,-2.38734 -1.35718,-6.22424 -0.29342,-8.0851 1.08504,-1.89807 0.90595,-2.88869 -0.9339,-5.16585 -2.34532,-2.90278 -2.8161,-3.96167 -2.8161,-6.33415 0,-2.841 0.46659,-3.57233 5.74199,-9 5.70698,-5.87172 6.15721,-6.9697 5.24979,-12.80286 -0.36353,-2.3369 -0.51013,-5.54915 -0.33757,-7.39703 0.16775,-1.79646 0.12593,-3.37698 -0.0929,-3.51224 -0.21888,-0.13528 -1.43126,0.30411 -2.69418,0.97641 -1.26292,0.67231 -3.49341,1.69109 -4.95665,2.26396 -3.35364,1.31299 -5.6066,3.44632 -7.43375,7.039 -1.90923,3.75409 -4.56909,5.91613 -9.65515,7.84809 -2.8311,1.0754 -5.66857,2.68447 -8.63868,4.8988 -2.43256,1.81357 -6.7876,4.44138 -9.67785,5.83957 -4.79424,2.31926 -5.74144,3.02678 -10.8027,8.06923 -6.77756,6.75236 -8.55057,9.30962 -9.98915,14.40764 -0.61307,2.17258 -1.60534,4.47243 -2.20504,5.11078 -1.27405,1.35617 -4.43546,2.25865 -7.9121,2.25865 -3.3946,0 -4.6302,1.12327 -6.59367,5.99419 -2.1652,5.37135 -3.77312,7.45562 -7.63159,9.89247 -1.78056,1.12452 -3.37989,2.41596 -3.55407,2.86986 -0.17418,0.4539 -0.31669,1.94304 -0.31669,3.30921 0,4.13019 -1.55929,6.16902 -7.41319,9.69297 -2.7074,1.62982 -3.80838,2.71004 -5.83681,5.72677 -2.1274,3.16395 -3.24518,4.22428 -7.5,7.11456 -6.50191,4.41673 -9.67794,7.78862 -11.49764,12.20664 -0.78003,1.89383 -2.76574,6.36833 -4.41268,9.94333 -4.70085,10.20405 -14.88062,41.47615 -15.66939,48.13612 -0.26876,2.26921 -0.0613,3.04885 2.04741,7.69447 1.29055,2.84317 2.78111,6.12979 3.31234,7.30358 0.53123,1.17379 2.64877,4.24807 4.70565,6.83173 3.7255,4.67965 3.76414,4.70995 10.12704,7.94341 9.89372,5.02772 14.0868,6.56869 25.28167,9.2911 5.76863,1.40284 12.87885,3.5128 16.00773,4.75031 5.77758,2.28509 12.77547,4.24416 20.00047,5.59913 2.25357,0.42264 7.1349,1.52521 10.8474,2.45015 12.95112,3.22669 16.10764,3.55073 46,4.72227 11.07516,0.43406 12.1444,0.56295 18.61708,2.24412 7.73546,2.00916 9.21122,2.11621 13.56075,0.98367 4.33673,-1.12921 7.71893,-1.02342 14.32217,0.44798 12.98729,2.89395 18.19948,3.26072 27.53214,1.93735 1.95968,-0.27789 5.58602,-0.29018 9,-0.0305 14.78618,1.12457 14.32161,1.1296 22.46786,-0.24307 4.2625,-0.71825 10.1125,-1.54007 13,-1.82628 2.8875,-0.2862 8.06492,-1.28266 11.50537,-2.21435 3.44045,-0.93171 9.16765,-2.29398 12.72713,-3.02728 3.55947,-0.73331 8.28205,-2.07757 10.49463,-2.98725 2.21258,-0.90969 5.31232,-1.91713 6.88832,-2.23877 2.03765,-0.41586 3.7636,-1.24595 5.9742,-2.87333 5.00815,-3.68679 6.8695,-4.3141 12.60635,-4.24861 13.51915,0.15434 34.07715,-6.67715 47.78795,-15.8801 4.8186,-3.23433 6.2142,-3.7817 11.51605,-4.51679 5.0709,-0.70305 9.42775,-2.87898 16.8084,-8.39456 8.57515,-6.4082 8.43165,-6.17455 10.1923,-16.59468 1.07855,-6.38311 1.84405,-8.5028 4.5465,-12.58932 1.36625,-2.06605 1.65085,-3.16885 2.51615,-9.75 1.7181,-13.06695 1.74005,-14.48233 0.2943,-18.96704 -0.701,-2.17439 -1.76695,-6.04168 -2.3688,-8.59399 -1.45515,-6.17065 -1.16155,-7.64695 2.1209,-10.66465 2.4459,-2.24863 2.51475,-2.38783 2.3521,-4.75561 -0.0921,-1.34155 -0.17525,-4.35168 -0.1847,-6.68918 -0.0165,-4.06362 0.0903,-4.47828 2.43395,-9.45516 2.85925,-6.07196 3.2275,-8.46883 2.0777,-13.52409 -0.59785,-2.62865 -0.83345,-6.18678 -0.85735,-12.94775 -0.0245,-6.89047 -0.23255,-9.96288 -0.7981,-11.77542 -0.5737,-1.83886 -0.6829,-3.54165 -0.43645,-6.80624 0.3051,-4.04181 0.22025,-4.64786 -1.18415,-8.4567 -1.72395,-4.67564 -1.8458,-6.48504 -0.70185,-10.4202 0.96325,-3.31343 0.7449,-6.39295 -0.827,-11.6626 -1.2565,-4.21223 -1.2975,-5.42812 -0.6478,-19.20184 0.4385,-9.29617 0.5704,-10.22875 1.8737,-13.25 1.26425,-2.93067 1.44685,-4.09693 1.8581,-11.86965 0.41435,-7.82975 0.36635,-8.97524 -0.52365,-12.5 -0.5389,-2.13419 -1.1372,-5.56785 -1.3296,-7.63035 -0.19235,-2.0625 -0.97295,-5.78934 -1.7346,-8.28187 -0.9208,-3.01329 -1.58485,-6.78303 -1.98175,-11.25 -0.3283,-3.69497 -0.68285,-6.85832 -0.7879,-7.02966 -0.4269,-0.6964 1.36095,-16.86698 2.12155,-19.18847 1.3088,-3.99473 6.9327,-9.18656 14.3526,-13.25 3.26405,-1.7875 7.83305,-4.28818 10.1534,-5.55706 2.85685,-1.56225 5.01255,-3.19758 6.6774,-5.06549 2.7301,-3.06312 4.7589,-4.07446 9.23465,-4.60347 3.41905,-0.40411 3.98755,-0.71677 7.67795,-4.22264 3.2017,-3.04164 6.05165,-4.04554 11.5378,-4.06425 3.8581,-0.0131 6.43815,-0.7208 13.28425,-3.64346 1.8887,-0.80631 4.4817,-1.40878 7,-1.62641 4.86585,-0.42051 6.54855,-1.06479 9.3448,-3.57799 3.05235,-2.74337 3.8492,-3.16507 11.4052,-6.03585 10.0771,-3.82864 10.4087,-3.87636 20.09161,-2.89182 4.5506,0.4627 8.9228,0.68203 9.7161,0.48741 0.7932,-0.19462 2.7448,-1.23333 4.3367,-2.30824 1.5919,-1.07491 4.7419,-2.8368 7,-3.91531 2.2581,-1.07851 5.3367,-2.62494 6.8415,-3.43651 1.5047,-0.81157 3.8672,-1.61818 5.25,-1.79247 1.3827,-0.17429 4.8766,-0.89163 7.7641,-1.59408 3.454,-0.84028 7.1314,-1.34204 10.75,-1.46677 5.5,-0.18957 5.5,-0.18957 8.5233,-3.36526 3.9198,-4.11728 6.2501,-4.93069 11.8781,-4.1462 2.9015,0.40444 2.9015,0.40444 5.1552,-1.67298 3.7587,-3.46465 4.4462,-3.61538 18.4434,-4.0439 20.0477,-0.61374 20.493,-0.66798 28.9477,-3.52618 7.9798,-2.69761 9.4985,-2.84598 14.4395,-1.41062 2.3329,0.6777 2.4601,0.65643 5.5934,-0.93522 2.4753,-1.25739 4.2679,-1.74556 7.8628,-2.14125 2.5611,-0.2819 6.6229,-0.94712 9.0263,-1.47826 2.4033,-0.53115 5.1668,-0.96572 6.141,-0.96572 3.5983,0 6.3901,1.98653 8.0904,5.75682 0.8349,1.85123 0.8997,4.28992 0.9105,34.24318 0.013,35.17764 -0.1702,38.17549 -2.6213,42.96818 -3.5924,7.02446 -11.2504,9.08072 -37.2372,9.99868 -12.263,0.43318 -11.5644,0.28173 -17.6531,3.82733 -2.3802,1.38604 -2.7516,1.45005 -7.75,1.3356 -3.9841,-0.0912 -6.7323,0.17952 -11.3973,1.12281 -3.381,0.68366 -9.0085,1.57738 -12.5057,1.98606 -6.2119,0.72592 -13.225,2.43359 -20.4285,4.97429 -1.9698,0.69476 -5.2323,1.50641 -7.25,1.80367 -10.3931,1.53119 -13.3291,2.12882 -20.9185,4.25803 -5.6341,1.58061 -9.5184,2.9998 -12.25,4.47571 -2.6327,1.42241 -5.3674,2.43719 -8,2.96858 -4.8091,0.9707 -8.8884,2.87953 -14.0165,6.55874 -4.946,3.54862 -6.0066,4.0732 -10.08871,4.9898 -1.86715,0.41924 -4.8061,1.10484 -6.531,1.52354 -2.373,0.57602 -4.4469,0.67834 -8.522,0.42048 -5.379,-0.34036 -5.39075,-0.33861 -9.36375,1.39825 -2.18795,0.95646 -5.58795,2.12955 -7.55555,2.60686 -4.05875,0.98457 -5.05145,1.82144 -6.66305,5.61704 -0.72325,1.70338 -1.9271,3.28357 -3.5333,4.63796 -1.62865,1.3733 -2.60395,2.66149 -2.94205,3.88589 -0.58025,2.1016 -0.39495,3.19432 1.26805,7.47778 1.57525,4.05736 1.56,7.64699 -0.0521,12.26127 -1.62925,4.66335 -1.5782,6.34372 0.37215,12.24512 1.8596,5.62672 2.0673,9.44989 0.9196,16.92734 -0.6159,4.01262 -0.6005,5.07001 0.13715,9.43613 0.85595,5.06644 1.4842,6.82608 5.639,15.79486 2.4321,5.25 2.4321,5.25 2.45915,15 0.026,9.33084 0.0846,9.90047 1.36445,13.25 1.72465,4.51348 1.69775,6.55945 -0.1415,10.75 -1.8298,4.16901 -1.86095,5.23664 -0.22335,7.64665 3.9989,5.88488 3.2128,10.63236 -2.4281,14.66445 -3.4115,2.43851 -3.84855,3.03111 -3.84855,5.21854 0,1.44299 0.542,2.54061 2.51945,5.10208 2.9085,3.76756 4.48055,7.76054 4.48055,11.38062 0,3.04772 -0.90065,4.95011 -3.84575,8.12324 -2.79635,3.01288 -3.6832,5.14391 -3.9879,9.58248 -0.2351,3.42496 -0.1883,3.60654 1.5456,5.99494 2.63385,3.6281 2.48535,5.30187 -0.733,8.26063 -2.4545,2.25657 -2.5394,2.4293 -3.2174,6.54704 -1.4117,8.57367 -3.35255,15.22021 -6.63715,22.72933 -1.8043,4.125 -3.80795,8.28348 -4.4525,9.24106 -0.98455,1.46273 -1.1732,2.38197 -1.18015,5.75 -0.01,4.83527 -1.0757,7.11068 -4.4946,9.59583 -4.62985,3.36533 -4.92445,3.68634 -5.7769,6.29466 -1.36515,4.17722 -2.16075,5.43314 -5.4596,8.61845 -3.08025,2.97427 -3.1099,3.0295 -3.4544,6.44043 -0.4572,4.52644 -1.23235,6.24041 -3.8265,8.46092 -2.5772,2.20599 -6.3204,3.68602 -11.72975,4.63789 -4.388,0.77214 -4.9986,1.24294 -5.5058,4.24523 -0.49505,2.92994 -2.1569,4.94997 -5.6413,6.85708 -1.7309,0.9474 -4.3184,2.7873 -5.75,4.0887 -1.4316,1.3014 -3.7279,2.9856 -5.1029,3.7427 -3.4961,1.92495 -4.0986,2.5632 -5.01015,5.30755 -1.1225,3.37965 -2.37965,4.7695 -5.14465,5.6879 -1.6315,0.5419 -3.25905,1.6726 -5.11865,3.55615 -2.98545,3.02385 -4.90015,3.8322 -12.97655,5.4783 -3.38405,0.6897 -5.4889,0.79585 -10.33055,0.52085 -8.1477,-0.46275 -9.2661,0.12205 -10.4732,5.4763 -0.72185,3.202 -2.1935,5.305 -4.39335,6.2781 -3.0369,1.3434 -11.90275,1.8205 -17.36295,0.9344 -2.3045,-0.374 -7.11495,-0.6873 -10.68995,-0.69625 -6.5,-0.0165 -6.5,-0.0165 -11.25,2.17725 -4.75,2.1935 -4.75,2.1935 -13,2.58785 -5.95615,0.2847 -9.15365,0.67465 -11.5,1.4024 -6.88622,2.13585 -15.21131,4.06625 -17.53625,4.06625 -1.33556,0 -4.74252,-0.4493 -7.57102,-0.9985 -6.69695,-1.30025 -7.29344,-1.27485 -11.72221,0.4985 -2.94657,1.17985 -4.51167,1.4998 -7.3333,1.499 -1.97297,0 -5.59831,0.3681 -8.05632,0.8192 -4.25278,0.78055 -4.6521,0.7747 -8.25,-0.12145 -5.37211,-1.3381 -11.60231,-1.15785 -16.7809,0.48545 -4.84223,1.53655 -12.22853,3.30715 -23.25,5.5733 -4.5375,0.933 -9.74295,2.0358 -11.56767,2.4507 -1.82472,0.4149 -6.54972,1.25945 -10.5,1.8767 -7.03747,1.0997 -9.90635,1.20585 -22.68233,0.83925 -4.97469,-0.14275 -6.68354,0.0135 -10,0.9158 -4.92213,1.33875 -9.54453,1.67695 -15.75,1.1524 z"
     id="path151"
     inkscape:connector-curvature="0" />
</svg>
