<?xml version="1.0" encoding="UTF-8" standalone="no"?>
<!-- Created with Inkscape (http://www.inkscape.org/) -->

<svg
   xmlns:dc="http://purl.org/dc/elements/1.1/"
   xmlns:cc="http://creativecommons.org/ns#"
   xmlns:rdf="http://www.w3.org/1999/02/22-rdf-syntax-ns#"
   xmlns:svg="http://www.w3.org/2000/svg"
   xmlns="http://www.w3.org/2000/svg"
   xmlns:sodipodi="http://sodipodi.sourceforge.net/DTD/sodipodi-0.dtd"
   xmlns:inkscape="http://www.inkscape.org/namespaces/inkscape"
   version="1.1"
   id="svg4409"
   width="1000"
   height="1000"
   viewBox="0 0 1000 1000"
   sodipodi:docname="Saida_lettre_d_bdc.svg"
   inkscape:version="0.92.2 5c3e80d, 2017-08-06">
  <metadata
     id="metadata4415">
    <rdf:RDF>
      <cc:Work
         rdf:about="">
        <dc:format>image/svg+xml</dc:format>
        <dc:type
           rdf:resource="http://purl.org/dc/dcmitype/StillImage" />
        <dc:title></dc:title>
      </cc:Work>
    </rdf:RDF>
  </metadata>
  <defs
     id="defs4413" />
  <sodipodi:namedview
     pagecolor="#ffffff"
     bordercolor="#666666"
     borderopacity="1"
     objecttolerance="10"
     gridtolerance="10"
     guidetolerance="10"
     inkscape:pageopacity="0"
     inkscape:pageshadow="2"
     inkscape:window-width="1025"
     inkscape:window-height="480"
     id="namedview4411"
     showgrid="false"
     inkscape:zoom="0.19666667"
     inkscape:cx="414"
     inkscape:cy="600"
     inkscape:window-x="60"
     inkscape:window-y="121"
     inkscape:window-maximized="0"
     inkscape:current-layer="svg4409" />
  <path
     style="fill:#000000;stroke-width:0.5"
     d="m 387.74577,710.16227 c -1.5125,-0.38135 -4.6625,-0.66605 -7,-0.6327 -4.38184,0.0626 -6.39516,-0.38995 -16,-3.59645 -9.2035,-3.07255 -12.64228,-4.48055 -16.61477,-6.80295 -3.71535,-2.17205 -5.89015,-3.9072 -12.67805,-10.11525 -1.12354,-1.0276 -3.01698,-3.54592 -4.20762,-5.59629 -1.19064,-2.05038 -3.22124,-5.30296 -4.51244,-7.22796 -4.31713,-6.43625 -5.61391,-9.53702 -5.7504,-13.75 -0.0668,-2.0625 -0.3875,-6.99097 -0.7126,-10.95217 -0.5911,-7.20217 -0.5911,-7.20217 0.92528,-11.5 0.83402,-2.36381 2.32238,-7.32521 3.30748,-11.02535 0.98509,-3.70013 2.47558,-8.31263 3.31219,-10.25 0.83662,-1.93736 2.05851,-4.79992 2.71533,-6.36124 0.65681,-1.56131 1.66861,-5.49881 2.24843,-8.75 0.96234,-5.396 4.38365,-15.16782 7.26608,-20.7531 1.3949,-2.70293 6.5507,-7.61415 13.16845,-12.54379 3.73046,-2.77886 8.02014,-6.22662 9.53264,-7.66169 1.53229,-1.45385 4.06331,-3.18903 5.7159,-3.91863 2.14182,-0.94558 4.29521,-2.59568 7.75,-5.93866 5.26642,-5.09595 6.9367,-6.08575 11.92203,-7.06489 11.09055,-2.17823 15.21805,-2.37302 29.11207,-1.37393 9.07741,0.65275 12.83565,1.20396 14.59175,2.14014 2.37318,1.26515 7.61331,6.84003 10.2956,10.95331 1.52429,2.3375 3.78426,5.79697 5.02213,7.68771 2.75963,4.21507 3.21898,5.51551 4.56576,12.92602 0.62507,3.43941 1.6629,7.15617 2.51253,8.99809 2.16907,4.70233 3.39957,16.7959 1.97903,19.45021 -0.31978,0.59752 -1.90564,2.50983 -3.52411,4.24957 -2.94269,3.16317 -2.94269,3.16317 -2.94269,7.15839 0,3.7407 -0.0971,4.10586 -1.52499,5.73208 -2.97289,3.38594 -8.4274,3.75476 -12.64227,0.85485 -3.08979,-2.12583 -4.72907,-4.68469 -5.38436,-8.4048 -0.39578,-2.24692 -1.19213,-4.02631 -3.11505,-6.96037 -2.1882,-3.33886 -3.04219,-4.18956 -5.58333,-5.56195 -4.23225,-2.28569 -8.84147,-3.63846 -13.54978,-3.97674 -3.5846,-0.25756 -4.64711,-0.11205 -9.25,1.26672 -2.86012,0.85674 -6.66272,1.78314 -8.45022,2.05868 -7.43893,1.14671 -13.21259,3.70528 -16.56941,7.34266 -1.19932,1.29957 -4.01576,4.17771 -6.25873,6.39587 -4.2955,4.24796 -5.4368,6.11545 -9.0537,14.81445 -2.45549,5.9057 -2.92709,8.04457 -3.64301,16.52228 -0.4951,5.8629 -0.47036,7.00372 0.17895,8.25 0.41441,0.79546 3.13073,4.05261 6.03626,7.23813 4.98412,5.46442 5.58739,5.94966 10.6712,8.58328 2.96365,1.53529 7.41344,3.63558 9.88844,4.66731 4.5,1.87586 4.5,1.87586 14.75,1.77946 15.85563,-0.14913 25.71896,-0.3918 32,-0.78729 5.75,-0.36206 5.75,-0.36206 14.5,-4.30501 7.47064,-3.36644 9.44451,-4.04518 13.5,-4.64218 4.77329,-0.70267 6.45041,-1.29144 21.47759,-7.53998 3.70017,-1.53859 6.92206,-2.79744 7.15976,-2.79744 0.23769,0 2.04777,-0.67329 4.02241,-1.49622 2.50937,-1.04577 4.73433,-2.51343 7.39045,-4.875 2.09011,-1.85833 6.18899,-5.11027 9.10863,-7.22653 7.20834,-5.22488 7.45365,-6.39746 2.48666,-11.88615 -4.04066,-4.46509 -8.88342,-12.04098 -10.69608,-16.73271 -1.37998,-3.57179 -1.49833,-4.30702 -1.18904,-7.38677 0.19929,-1.98449 0.10798,-4.727 -0.21753,-6.53339 -0.30856,-1.71227 -0.90277,-5.24292 -1.32047,-7.84587 -0.4177,-2.60296 -2.00965,-8.42516 -3.53767,-12.93823 -2.39474,-7.07298 -2.83631,-8.97328 -3.19911,-13.76736 -0.59318,-7.83858 -1.26075,-11.17756 -3.00297,-15.01993 -1.16533,-2.57009 -1.64189,-4.59028 -2.05108,-8.69491 -0.31229,-3.13249 -1.0591,-6.87118 -1.80324,-9.02734 -1.16596,-3.37841 -1.23659,-4.05539 -0.86079,-8.25 0.44452,-4.96155 0.44361,-5.55913 -0.025,-16.31959 -0.28152,-6.46529 -0.20554,-7.58889 0.70196,-10.38095 0.95581,-2.94073 0.98658,-3.65287 0.50639,-11.72173 -0.44735,-7.51713 -0.40606,-9.02 0.33042,-12.02526 0.48837,-1.99284 0.73455,-4.38476 0.58649,-5.69837 -0.14035,-1.24513 0.0199,-3.59841 0.35596,-5.2295 0.36337,-1.76326 0.51784,-5.06342 0.38102,-8.13988 -0.13051,-2.93454 0.0307,-6.66333 0.37248,-8.61429 1.82473,-10.41651 2.05824,-13.03599 1.73293,-19.44002 -0.32413,-6.38078 -0.30424,-6.55961 1.08466,-9.75 1.33737,-3.07205 1.41886,-3.67434 1.48828,-11 0.0991,-10.45356 0.61247,-17.67548 1.49708,-21.05891 0.5625,-2.15144 0.6245,-3.58487 0.26491,-6.12405 -0.56888,-4.01706 -0.0281,-8.34522 1.45467,-11.6436 0.77928,-1.73342 1.13211,-3.63353 1.2392,-6.67344 0.097,-2.75261 0.46899,-4.95465 1.05589,-6.25 0.6913,-1.52577 0.92014,-3.3634 0.9651,-7.75 0.0711,-6.94049 0.99695,-15.1893 2.03263,-18.11043 1.80257,-5.08417 2.68479,-11.92761 2.56406,-19.88957 -0.11201,-7.38673 -0.17812,-7.84374 -1.41036,-9.75 -2.68416,-4.15235 -2.72591,-4.51982 -2.50482,-22.04823 0.0889,-7.04823 0.0889,-7.04823 2.31534,-10.75 2.08597,-3.4682 2.22698,-3.93048 2.23479,-7.32655 0.01,-4.19218 1.30058,-12.27451 2.25446,-14.11472 1.44132,-2.78057 4.87272,-6.00634 8.05649,-7.57371 2.75925,-1.35837 3.83109,-1.60651 7.09868,-1.64337 3.26038,-0.0368 4.28642,0.17153 6.71216,1.36271 4.77692,2.34575 9.85778,9.21351 10.61179,14.34387 0.18187,1.2375 0.67129,3.67695 1.08759,5.42099 0.50741,2.12578 0.64991,4.1859 0.4323,6.25 -0.21896,2.07685 -0.068,4.21821 0.46368,6.57901 0.79363,3.52371 2.79118,21.54552 2.79118,25.18194 0,1.07512 0.56539,3.83651 1.25641,6.13641 1.56508,5.20899 2.46758,8.96735 3.47754,14.48186 0.63056,3.44286 0.67584,4.82121 0.22714,6.91344 -0.41595,1.93951 -0.41385,3.19542 0.008,4.87137 1.04936,4.1674 1.89687,13.37247 1.67244,18.16498 -0.19512,4.16673 -0.0709,5.14908 1.01185,8 0.97754,2.57395 1.23549,4.18608 1.24005,7.75 0.005,3.69606 0.27149,5.25928 1.49318,8.75 0.81808,2.3375 1.64286,5.48312 1.83284,6.99027 0.18998,1.50715 1.06203,4.31965 1.9379,6.25 1.58656,3.49667 1.59281,3.54323 1.67826,12.50973 0.11891,12.47694 0.49048,25.09516 1.1116,37.75 0.67108,13.67244 0.86794,15.91689 2.30234,26.25 1.70309,12.26861 1.69491,12.17905 2.51157,27.5 0.41044,7.7 1.08046,16.1375 1.48895,18.75 0.40848,2.6125 0.74429,6.18463 0.74623,7.93807 0.002,1.75344 0.32308,5.24094 0.71363,7.75 1.23797,7.9532 1.78991,13.54131 1.78991,18.1219 0,2.44565 0.232,5.23265 0.51556,6.19333 1.41592,4.7971 2.13169,29.91626 1.12091,39.33706 -0.50438,4.70103 -0.4834,6.03722 0.13187,8.39939 0.97911,3.75907 0.92169,6.1907 -0.20833,8.82169 -1.2919,3.00791 -1.81139,11.35716 -0.79677,12.80573 0.82409,1.17656 9.41184,6.60886 12.76517,8.07479 1.22187,0.53415 3.79659,1.1207 5.72159,1.30345 1.925,0.18274 5.075,0.74841 7,1.25703 6.1349,1.62095 14.53975,2.5784 17.70105,2.01643 1.53942,-0.27365 5.83645,-0.50228 9.54895,-0.50807 3.7125,-0.006 8.25266,-0.0668 10.08925,-0.13566 3.92953,-0.14726 5.55867,0.74288 7.1509,3.90713 0.85563,1.70041 1.01562,3.23234 1.17766,11.27657 0.17062,8.47038 0.0973,9.51289 -0.81461,11.57431 -0.75456,1.70582 -1.60131,2.61414 -3.42766,3.67692 -1.33405,0.77631 -3.18819,1.92412 -4.12032,2.5507 -2.3355,1.56994 -5.36918,1.50484 -8.69684,-0.18661 -2.60835,-1.32584 -2.60835,-1.32584 -10.10835,-0.48835 -8.71535,0.97318 -12.97891,1.03597 -16.89838,0.24883 -2.31977,-0.46588 -3.38637,-0.42189 -6.06115,0.25 -1.78529,0.44844 -4.35573,0.81536 -5.71209,0.81536 -1.70762,0 -3.47623,0.47269 -5.75039,1.5369 -4.29175,2.00835 -9.33816,2.46716 -13.57833,1.23451 -2.56157,-0.74467 -3.44833,-0.77882 -6.72515,-0.25898 -2.93468,0.46556 -4.83138,0.46502 -8.52451,-0.002 -10.19664,-1.29064 -9.96669,-1.302 -14.56378,0.71947 -6.29514,2.76815 -6.49137,2.88644 -7.88892,4.75599 -2.93839,3.9308 -5.79406,6.36911 -8.73607,7.45927 -1.74013,0.64481 -4.02559,2.05763 -5.60342,3.46392 -2.3881,2.12849 -9.30945,6.63571 -11.94694,7.77991 -0.55598,0.2412 -2.85631,0.48675 -5.11185,0.54565 -3.97401,0.1038 -4.18399,0.17115 -6.78274,2.1761 -1.47497,1.1379 -3.67954,2.4224 -4.89903,2.8544 -2.13841,0.75745 -15.56295,3.2229 -17.6813,3.24715 -0.56977,0.007 -2.38595,0.5924 -4.03595,1.30185 -9.16992,3.943 -8.69802,3.81605 -15.81879,4.25565 -5.58681,0.3449 -7.80008,0.72855 -12.25,2.1232 -7.25953,2.2753 -12.23352,2.98035 -18.14456,2.572 -4.31382,-0.29805 -5.17096,-0.20395 -8.6771,0.95235 -3.21147,1.05915 -4.78219,1.2757 -9,1.2406 -2.81025,-0.0235 -6.34705,-0.35455 -7.85955,-0.7359 z M 537.6975,588.73 c 0.59881,-2.52065 0.60085,-3.54678 0.0139,-6.9966 -0.41236,-2.42385 -0.60558,-6.14506 -0.48253,-9.29273 0.45112,-11.53892 -0.1352,-21.80897 -1.43626,-25.15755 -0.30079,-0.77415 -0.54689,-3.17825 -0.54689,-5.34245 0,-2.1642 -0.20319,-4.46933 -0.45153,-5.12252 -0.24835,-0.65319 -0.70011,-3.19909 -1.00392,-5.65755 -0.30381,-2.45846 -0.99604,-5.88151 -1.53829,-7.60679 -0.85355,-2.71573 -1.0535,-5.53504 -1.48936,-21 -0.61097,-21.67844 -0.86312,-25.84975 -1.83541,-30.36314 -0.4435,-2.05873 -0.62345,-4.37533 -0.437,-5.62567 0.17434,-1.16911 -0.0256,-4.43162 -0.44434,-7.25 -1.03857,-6.99051 -1.95747,-22.66106 -1.81618,-30.97236 0.0687,-4.04096 -0.2344,-9.88216 -0.73943,-14.25 -1.34703,-11.65017 -2.14955,-12.37568 -3.72202,-3.3649 -0.52434,3.00461 -1.32974,7.15043 -1.78979,9.21293 -0.66905,2.99953 -0.86506,7.05206 -0.97941,20.25 -0.13992,16.14871 -0.17104,16.5958 -1.46153,21 -0.72521,2.475 -1.68465,5.46684 -2.13209,6.64852 -0.71784,1.89581 -0.73701,2.64039 -0.16299,6.33034 0.44721,2.87483 0.5152,5.25061 0.21753,7.60148 -0.52272,4.12813 -0.522,8.71194 0.002,13.41966 0.34249,3.07636 0.2409,3.89337 -0.83927,6.75 -1.09386,2.89282 -1.24773,4.18416 -1.40011,11.75 -0.24484,12.15753 -0.21221,13.15734 0.70986,21.75 1.0966,10.21914 2.52372,16.49451 4.62249,20.32612 1.70217,3.10755 5.14845,12.89928 7.6473,21.72787 1.3817,4.88161 3.59093,8.69687 7.40719,12.79193 2.27454,2.44069 3.22422,2.07907 4.08792,-1.55659 z"
     id="path4546"
     inkscape:connector-curvature="0" />
</svg>
