<?xml version="1.0" encoding="UTF-8" standalone="no"?>
<!-- Created with Inkscape (http://www.inkscape.org/) -->

<svg
   xmlns:dc="http://purl.org/dc/elements/1.1/"
   xmlns:cc="http://creativecommons.org/ns#"
   xmlns:rdf="http://www.w3.org/1999/02/22-rdf-syntax-ns#"
   xmlns:svg="http://www.w3.org/2000/svg"
   xmlns="http://www.w3.org/2000/svg"
   xmlns:sodipodi="http://sodipodi.sourceforge.net/DTD/sodipodi-0.dtd"
   xmlns:inkscape="http://www.inkscape.org/namespaces/inkscape"
   version="1.1"
   id="svg560"
   width="1000"
   height="1000"
   viewBox="0 0 1000 1000"
   sodipodi:docname="Saida_lettre_ç_bdc.svg"
   inkscape:version="0.92.2 5c3e80d, 2017-08-06">
  <metadata
     id="metadata566">
    <rdf:RDF>
      <cc:Work
         rdf:about="">
        <dc:format>image/svg+xml</dc:format>
        <dc:type
           rdf:resource="http://purl.org/dc/dcmitype/StillImage" />
        <dc:title></dc:title>
      </cc:Work>
    </rdf:RDF>
  </metadata>
  <defs
     id="defs564" />
  <sodipodi:namedview
     pagecolor="#ffffff"
     bordercolor="#666666"
     borderopacity="1"
     objecttolerance="10"
     gridtolerance="10"
     guidetolerance="10"
     inkscape:pageopacity="0"
     inkscape:pageshadow="2"
     inkscape:window-width="1283"
     inkscape:window-height="704"
     id="namedview562"
     showgrid="false"
     inkscape:zoom="0.3925651"
     inkscape:cx="305"
     inkscape:cy="600"
     inkscape:window-x="0"
     inkscape:window-y="0"
     inkscape:window-maximized="0"
     inkscape:current-layer="svg560" />
  <path
     style="fill:#000000;stroke-width:0.5"
     d="m 585.45071,915.58465 c 0.61875,-0.1192 1.63125,-0.1192 2.25,0 0.61875,0.11915 0.1125,0.21665 -1.125,0.21665 -1.2375,0 -1.74375,-0.0975 -1.125,-0.21665 z m -46.68063,-42.3704 c -1.68059,-0.3771 -3.94457,-1.13915 -5.03107,-1.69345 -2.73788,-1.39675 -7.81937,-5.78325 -9.48669,-8.1892 -1.29994,-1.8758 -1.4178,-2.48615 -1.84875,-9.5738 -0.79109,-13.01055 -0.69438,-13.35255 5.54819,-19.62345 6.93246,-6.9639 14.82261,-12.35365 21.12395,-14.4298 6.94225,-2.2873 7.95726,-2.37895 16.56026,-1.49555 7.23922,0.74335 8.28854,0.74485 12.52208,0.0175 3.50721,-0.60245 6.26128,-0.7154 11.42845,-0.46875 3.74423,0.17875 7.61435,0.17365 8.60024,-0.0115 2.37025,-0.44465 6.57673,-3.84819 8.21856,-6.64976 1.30398,-2.22506 1.31223,-2.30328 0.97116,-9.19411 -0.19006,-3.83986 -0.68362,-8.01618 -1.10292,-9.33257 -0.41741,-1.31013 -0.93908,-4.63231 -1.15928,-7.38231 -0.45742,-5.71269 -3.19509,-14.30169 -5.46884,-17.15761 -3.45084,-4.33439 -4.13236,-5.43034 -4.84926,-7.79804 -0.42371,-1.3994 -0.95765,-4.80705 -1.18652,-7.57257 -0.35336,-4.26959 -0.65347,-5.44874 -1.98915,-7.81545 -0.86517,-1.53297 -2.4383,-5.34527 -3.49586,-8.47177 -1.05757,-3.12651 -2.52942,-7.03456 -3.2708,-8.68456 -0.88984,-1.98046 -1.59465,-4.86917 -2.0739,-8.5 -1.70387,-12.90864 -3.3172,-16.47039 -10.89921,-24.06217 -3.05526,-3.05919 -6.45501,-6.0144 -7.55501,-6.56713 -2.63494,-1.324 -6.78057,-2.1488 -11.31887,-2.25197 -3.04094,-0.0691 -4.07243,0.12649 -5.93113,1.12478 -1.94876,1.04665 -3.18721,1.25353 -9.25,1.54513 -6.33841,0.30486 -7.6077,0.53251 -13.42988,2.40876 -4.96095,1.59871 -7.70241,2.17593 -12,2.52661 -8.41367,0.68655 -11.11544,2.11194 -12.59349,6.64402 -1.48183,4.54365 -3.64802,8.41281 -6.35897,11.35815 -1.68725,1.83314 -2.9489,3.80094 -3.54959,5.53631 -3.22929,9.32931 -16.57286,21.36697 -25.51794,23.02056 -8.06244,1.49042 -15.62024,-3.36421 -20.57151,-13.21377 -2.47862,-4.93073 -2.47862,-4.93073 -2.42856,-9.75 0.0631,-6.07537 1.65724,-11.23861 5.11574,-16.56928 2.51206,-3.87192 3.28187,-5.7464 3.83837,-9.34643 0.17824,-1.15304 1.24302,-3.62007 2.36617,-5.48228 1.12316,-1.86222 2.31669,-4.29382 2.6523,-5.40357 0.33561,-1.10975 1.51823,-4.15522 2.62805,-6.76772 1.1098,-2.6125 2.38176,-6.72323 2.82656,-9.13495 1.00168,-5.43117 3.17165,-12.15209 5.56724,-17.24306 2.03996,-4.3352 5.29509,-12.94751 8.2018,-21.70006 2.23339,-6.72506 3.39187,-9.15445 6.03447,-12.65459 1.04533,-1.38454 2.50907,-4.20484 3.25275,-6.26734 1.44228,-3.99991 4.09003,-9.68656 5.34318,-11.47569 0.41865,-0.59769 1.68641,-1.76715 2.81725,-2.59877 1.13083,-0.83163 2.05606,-1.90417 2.05606,-2.38343 0,-0.48991 -1.64034,-2.1562 -3.74687,-3.80617 -4.76318,-3.73083 -9.36103,-9.04483 -11.54109,-13.33874 -0.93624,-1.84404 -2.67187,-4.44454 -3.85697,-5.7789 -3.15592,-3.55339 -4.23574,-5.53651 -5.12179,-9.40632 -0.53434,-2.33374 -1.43478,-4.38409 -2.76298,-6.29146 -1.08366,-1.5562 -1.9703,-2.9711 -1.9703,-3.1442 0,-0.17311 -1.05831,-2.61234 -2.35181,-5.42053 -2.13585,-4.63691 -2.38288,-5.56495 -2.69007,-10.10579 -0.18603,-2.75 -0.74485,-7.33298 -1.24181,-10.1844 -0.79536,-4.56351 -0.83138,-5.83365 -0.30076,-10.60559 0.33155,-2.98166 1.14471,-7.51118 1.80703,-10.06561 0.66232,-2.55442 1.36191,-6.1069 1.55464,-7.8944 0.19273,-1.7875 0.86713,-4.9375 1.49866,-7 0.63153,-2.0625 1.87045,-6.3375 2.75317,-9.5 1.8546,-6.64446 2.41245,-7.87893 4.70927,-10.42123 0.92496,-1.02382 2.78282,-3.76663 4.1286,-6.09513 1.34576,-2.32851 3.52527,-5.69614 4.84336,-7.48364 1.31808,-1.7875 2.91146,-4.26486 3.54085,-5.50524 0.62939,-1.24037 2.08215,-3.49037 3.22836,-5 1.14622,-1.50962 3.51434,-5.70354 5.26248,-9.31983 3.69154,-7.63647 3.82572,-7.79177 24.9923,-28.92493 23.33614,-23.2993 28.08497,-27.55871 36.5656,-32.79714 6.74009,-4.1633 8.07046,-5.23589 13.95892,-11.25408 7.12563,-7.28263 8.39697,-8.08845 14.84513,-9.40932 4.7688,-0.97687 9.7794,-1.00105 15.64608,-0.0755 2.475,0.39046 10.4625,0.85338 17.75,1.02872 14.08277,0.33882 20.53079,1.11014 23.4233,2.80192 2.48685,1.45451 8.89123,7.40325 9.58296,8.90117 0.33126,0.71733 0.89136,2.25389 1.24467,3.41458 0.35331,1.16068 1.47657,3.24673 2.49613,4.63565 1.01956,1.38892 2.86724,4.93927 4.10595,7.88966 1.79376,4.2724 2.29944,6.12768 2.48424,9.11435 0.15408,2.4902 0.65775,4.73369 1.49927,6.67812 1.53158,3.53892 1.34441,5.05016 -1.06168,8.57188 -0.93941,1.375 -2.18268,3.77626 -2.76282,5.33614 -1.02143,2.74645 -2.15798,4.03112 -6.47236,7.31591 -0.97324,0.74099 -2.60316,3.32792 -4.56793,7.25 -3.55486,7.09622 -4.25755,7.95948 -8.03897,9.87611 -2.7064,1.37174 -5.97746,4.53087 -7.04617,6.80508 -0.37306,0.79386 -0.29234,1.71925 0.30218,3.46407 1.81844,5.33683 0.83092,8.06647 -4.43877,12.26939 -6.98577,5.57161 -8.70073,6.26013 -11.71285,4.70251 -2.55513,-1.32131 -3.1013,-3.76923 -2.50372,-11.22154 0.51872,-6.46885 0.51872,-6.46885 -1.05292,-9.38326 -1.40991,-2.61452 -1.54351,-3.22311 -1.29833,-5.91441 0.75384,-8.27502 1.73471,-12.12365 3.64722,-14.31049 0.38985,-0.44576 1.45793,-2.58326 2.37351,-4.75 0.91558,-2.16673 2.89779,-5.77913 4.40492,-8.02754 4.01036,-5.9829 4.2262,-6.66085 2.95104,-9.2691 -2.36675,-4.84101 -7.14014,-8.89287 -10.47648,-8.89287 -1.65939,0 -8.71794,3.16408 -15.34205,6.87727 -2.46969,1.3844 -5.69684,2.93461 -7.17146,3.44491 -1.55912,0.53955 -3.83431,1.93369 -5.43683,3.33146 -1.51564,1.32201 -3.84834,2.93075 -5.18377,3.57499 -1.33544,0.64423 -3.32997,1.88565 -4.4323,2.75871 -1.10232,0.87306 -3.52562,2.33703 -5.3851,3.25327 -1.85948,0.91624 -4.72897,2.81855 -6.37664,4.22735 -1.64767,1.40881 -4.80444,3.42497 -7.01506,4.48038 -3.45408,1.64907 -4.41558,2.40941 -6.83747,5.40692 -1.55001,1.91841 -5.31424,5.81336 -8.36498,8.65544 -6.08221,5.66622 -7.72979,7.92038 -9.76662,13.36234 -1.13545,3.0337 -1.8028,4.00472 -4.10249,5.96942 -2.8997,2.47728 -4.53949,5.16636 -5.85577,9.60279 -0.56239,1.8955 -1.52037,3.45728 -3.22851,5.26338 -1.62702,1.72034 -2.7257,3.47154 -3.3281,5.30475 -1.57864,4.80404 -3.20954,8.06483 -5.05572,10.10833 -2.13261,2.36054 -2.9568,4.22777 -3.39358,7.68822 -0.17772,1.40797 -0.88176,3.93475 -1.56453,5.61507 -1.67059,4.11135 -1.77462,12.49997 -0.22108,17.82659 0.92676,3.17755 0.96412,3.85523 0.40738,7.38904 -0.58225,3.6957 -0.55462,4.02139 0.55153,6.5 0.64047,1.43515 2.06858,5.16944 3.17357,8.29841 2.58843,7.32955 3.98454,8.88558 9.65148,10.75707 4.59766,1.51836 5.60022,2.38929 7.36148,6.39495 2.15134,4.89287 7.35006,7.87127 16.42396,9.40949 3.11315,0.52774 7.34777,1.5406 9.41027,2.25079 2.0625,0.71019 6.45,1.62785 9.75,2.03923 3.3,0.41139 7.9125,1.21091 10.25,1.77673 8.12102,1.96577 29.20263,2.52838 64.5,1.7213 25.08171,-0.57349 23.7199,-0.61435 29.06752,0.8722 5.77279,1.60475 7.99597,1.66531 11.97128,0.32613 4.44864,-1.49864 7.45081,-0.42691 9.39872,3.3552 0.84506,1.64079 0.6816,5.55192 -0.3016,7.21635 -1.11233,1.88302 -4.34719,3.43943 -7.16878,3.44917 -2.64062,0.009 -3.07771,0.2545 -4.13695,2.32235 -1.29854,2.53504 -4.13598,4.47736 -9.02092,6.1751 -2.71648,0.94411 -5.63002,2.38873 -7.20842,3.57416 -3.70075,2.77939 -4.9572,3.11359 -10.29519,2.73836 -4.52041,-0.31776 -4.62056,-0.2999 -8.31559,1.48214 -2.9385,1.41718 -4.65093,1.88779 -7.99007,2.19581 -2.3375,0.21563 -5.22273,0.75068 -6.41162,1.18899 -1.18889,0.43831 -4.11389,1.1482 -6.5,1.57755 -2.38611,0.42934 -5.6275,1.24671 -7.20308,1.81637 -2.61758,0.94639 -3.50333,1.00481 -10.26798,0.6772 -6.45843,-0.31278 -7.65622,-0.24741 -9.3853,0.51224 -1.269,0.55752 -4.05055,0.99777 -7.73202,1.22379 -3.1625,0.19416 -7.04246,0.64376 -8.62213,0.9991 -2.63194,0.59206 -3.1443,0.55415 -6.12688,-0.45331 -1.79011,-0.60467 -5.11015,-1.30501 -7.37787,-1.5563 -2.26772,-0.2513 -5.92312,-0.79352 -8.12312,-1.20495 -2.2,-0.41142 -5.8,-0.89467 -8,-1.07389 -4.64307,-0.37825 -5.65514,-0.058 -11.94271,3.77939 -2.23151,1.3619 -5.17866,2.7234 -6.54921,3.02554 -3.22783,0.71159 -4.04766,1.51298 -5.04007,4.92672 -1.00267,3.4491 -6.54447,15.15339 -8.58586,18.13338 -2.55411,3.72846 -2.55318,4.91708 0.005,5.88956 2.12521,0.808 27.93725,0.23539 33.5565,-0.74442 4.90519,-0.8553 8.63361,-0.69732 14.30673,0.60619 2.3203,0.53314 4.48247,0.65219 7.55846,0.4162 4.25104,-0.32615 4.35476,-0.30659 7.7825,1.46726 2.88317,1.49205 3.99681,1.79782 6.54778,1.79782 6.12572,0 12.45035,3.72979 21.03147,12.40278 2.65638,2.68481 6.46332,6.17894 8.45987,7.76471 1.99655,1.58577 3.94668,3.37806 4.33362,3.98286 0.38695,0.60481 1.06109,3.03736 1.49811,5.40565 0.98628,5.34492 2.13312,8.72064 4.49335,13.2262 1.62022,3.09289 1.88392,4.11497 2.25381,8.73527 0.36068,4.5052 0.9126,6.7268 3.97061,15.98253 1.95344,5.9125 3.79644,12.04172 4.09557,13.62048 0.35263,1.86116 1.15065,3.70718 2.26955,5.25 3.17491,4.37784 4.19473,7.01754 4.2032,10.87952 0.009,4.17921 0.69857,6.96521 2.22709,9 1.88935,2.51512 2.63133,4.36475 3.00867,7.5 0.25869,2.1494 1.00314,4.18074 2.62566,7.16439 2.2646,4.16439 2.2646,4.16439 1.99505,8.25 -0.2896,4.38936 0.43718,9.66313 2.44048,17.70918 1.09939,4.41563 1.11594,4.75294 0.36794,7.5 -1.28696,4.72639 -1.30346,4.98948 -0.46702,7.44428 1.23695,3.63027 1.0405,6.63145 -0.64367,9.8331 -0.79634,1.51385 -1.61061,3.7156 -1.80948,4.89275 -0.52116,3.08465 -3.46182,10.74735 -4.9468,12.8902 -2.03067,2.93025 -11.20996,12.4614 -13.47475,13.9913 -2.64365,1.78575 -14.08346,6.6969 -20.57107,8.8312 -2.75,0.90465 -6.9125,2.5485 -9.25,3.65295 -6.34342,2.99725 -10.35776,4.225 -12.73422,3.89465 -6.80022,-0.9452 -8.56602,-0.90035 -15.26578,0.38785 -3.71251,0.71385 -7.5375,1.5378 -8.5,1.83095 -0.96251,0.2932 -5.57501,0.7383 -10.25,0.9891 -4.67501,0.25085 -9.625,0.5673 -11,0.70325 -1.375,0.136 -3.87504,-0.0613 -5.55563,-0.4384 z"
     id="path570"
     inkscape:connector-curvature="0" />
</svg>
