<?xml version="1.0" encoding="UTF-8" standalone="no"?>
<!-- Created with Inkscape (http://www.inkscape.org/) -->

<svg
   xmlns:dc="http://purl.org/dc/elements/1.1/"
   xmlns:cc="http://creativecommons.org/ns#"
   xmlns:rdf="http://www.w3.org/1999/02/22-rdf-syntax-ns#"
   xmlns:svg="http://www.w3.org/2000/svg"
   xmlns="http://www.w3.org/2000/svg"
   xmlns:sodipodi="http://sodipodi.sourceforge.net/DTD/sodipodi-0.dtd"
   xmlns:inkscape="http://www.inkscape.org/namespaces/inkscape"
   version="1.1"
   id="svg398"
   width="1000"
   height="1000"
   viewBox="0 0 1000 1000"
   sodipodi:docname="Saida_lettre_j2_bdc.svg"
   inkscape:version="0.92.2 5c3e80d, 2017-08-06">
  <metadata
     id="metadata404">
    <rdf:RDF>
      <cc:Work
         rdf:about="">
        <dc:format>image/svg+xml</dc:format>
        <dc:type
           rdf:resource="http://purl.org/dc/dcmitype/StillImage" />
        <dc:title></dc:title>
      </cc:Work>
    </rdf:RDF>
  </metadata>
  <defs
     id="defs402" />
  <sodipodi:namedview
     pagecolor="#ffffff"
     bordercolor="#666666"
     borderopacity="1"
     objecttolerance="10"
     gridtolerance="10"
     guidetolerance="10"
     inkscape:pageopacity="0"
     inkscape:pageshadow="2"
     inkscape:window-width="1196"
     inkscape:window-height="643"
     id="namedview400"
     showgrid="false"
     inkscape:zoom="0.3264974"
     inkscape:cx="269"
     inkscape:cy="600"
     inkscape:window-x="0"
     inkscape:window-y="0"
     inkscape:window-maximized="0"
     inkscape:current-layer="svg398" />
  <path
     style="fill:#000000;stroke-width:0.5"
     d="m 435.97331,903.16857 c -1.925,-0.3833 -6.425,-0.93315 -10,-1.2219 -3.575,-0.28875 -7.85,-0.835 -9.5,-1.2139 -5.84594,-1.34245 -17.02687,-4.34525 -18.9075,-5.07785 -2.83126,-1.103 -10.40117,-6.34055 -12.31587,-8.52125 -4.59473,-5.23315 -5.90882,-15.33645 -2.85488,-21.9496 0.77083,-1.66915 1.58658,-4.5982 1.84226,-6.61485 0.75162,-5.9282 3.62809,-10.6659 7.73599,-12.7417 2.99898,-1.51545 4.05313,-2.6974 5.24271,-5.8783 0.61794,-1.65235 2.48136,-4.66035 4.35458,-7.0293 1.80093,-2.27755 3.78526,-5.2883 4.40963,-6.6906 1.35841,-3.05089 2.7268,-4.4045 5.76715,-5.7049 1.25075,-0.53495 3.32576,-1.88286 4.61113,-2.99534 1.76489,-1.5275 3.04431,-2.16254 5.22593,-2.59387 5.96775,-1.17991 6.03878,-1.2282 11.29483,-7.68034 1.06396,-1.30607 3.01715,-2.90277 4.42125,-3.61428 5.69918,-2.88799 11.70796,-7.60596 15.69538,-12.3237 2.15563,-2.55044 7.8699,-8.69326 12.69837,-13.6507 4.82847,-4.95744 9.68535,-10.01994 10.79305,-11.25 1.10771,-1.23006 3.83602,-3.85708 6.06293,-5.83783 2.2269,-1.98074 5.35151,-5.35574 6.94358,-7.5 1.59208,-2.14425 4.62531,-5.69864 6.74054,-7.89864 2.11523,-2.2 4.21556,-4.72008 4.66741,-5.60017 1.02604,-1.99851 1.03933,-5.08212 0.0373,-8.64983 -0.4248,-1.5125 -0.96849,-5.16806 -1.20819,-8.12347 -0.40074,-4.94107 -0.59818,-5.6676 -2.45361,-9.02883 -1.77525,-3.21595 -2.07826,-4.25294 -2.52068,-8.62653 -0.76147,-7.52764 -1.33825,-10.79518 -2.29177,-12.98308 -0.52789,-1.21125 -0.91596,-3.55109 -0.99316,-5.98809 -0.14789,-4.66844 -3.26346,-18.18813 -4.75757,-20.645 -0.87629,-1.44093 -1.21653,-1.605 -3.32846,-1.605 -2.20689,0 -2.50888,0.16881 -4.88235,2.72922 -3.50356,3.77951 -4.82555,4.22259 -12.92791,4.33288 -6.43939,0.0876 -6.85318,0.0322 -8.95381,-1.1988 -3.90888,-2.29074 -7.89825,-8.8564 -7.89825,-12.99882 0,-4.40497 1.85298,-7.37595 7.5,-12.02518 8.75641,-7.20921 10.00344,-8.39886 12.05603,-11.50132 1.12366,-1.69839 3.46224,-4.44613 5.19683,-6.10609 2.82806,-2.70637 3.18715,-3.27446 3.47663,-5.5 0.17755,-1.36504 0.75983,-4.39439 1.29396,-6.73189 1.33537,-5.84402 2.47655,-14.04861 2.47655,-17.80538 0,-3.96638 1.23449,-9.89699 2.47941,-11.91131 0.52701,-0.85271 1.53772,-2.09481 2.24603,-2.76024 1.51126,-1.41975 3.00349,-6.04672 4.06321,-12.59875 0.82462,-5.09852 1.18889,-5.99557 3.3706,-8.30054 3.11588,-3.29188 12.46868,-5.16554 17.05046,-3.41575 4.70258,1.79594 7.70891,7.2516 8.1511,14.79197 0.21653,3.69256 0.0781,4.7369 -1.0558,7.96216 -0.98116,2.79096 -1.30957,4.71419 -1.32339,7.75 -0.0101,2.22081 -0.35141,5.61284 -0.75844,7.53784 -1.08487,5.13062 -1.8227,16.77524 -1.98007,31.25 -0.12182,11.20356 -0.0219,13.22165 0.82327,16.63867 0.52904,2.13878 1.31011,6.30128 1.7357,9.25 0.42559,2.94873 1.06389,7.38633 1.41844,9.86133 1.4866,10.37762 2.90384,18.74976 3.81157,22.51619 0.53235,2.20891 0.96791,5.52253 0.96791,7.36359 0,2.31328 0.37026,4.33107 1.19851,6.53154 0.65918,1.75128 1.47095,4.51267 1.80393,6.13641 0.88347,4.30813 1.77459,6.20227 2.91794,6.20227 0.58526,0 2.59642,-1.77998 5.05923,-4.47767 2.2483,-2.46271 5.7039,-5.6541 7.6791,-7.09196 1.97521,-1.43787 5.16629,-3.79126 7.09129,-5.22976 4.69442,-3.50802 13.49671,-8.58157 18.92467,-10.90799 9.96093,-4.26924 22.43077,-3.40012 28.74353,2.00336 2.60094,2.22631 4.08316,4.73103 6.55862,11.08305 1.88488,4.8366 1.94009,5.15615 1.93076,11.17497 -0.005,3.4078 0.23837,6.82939 0.54142,7.60355 0.85705,2.18936 0.68316,5.06786 -0.36337,6.01495 -1.91715,1.735 -3.27842,1.09506 -8.18989,-3.85008 -2.55516,-2.57266 -5.39497,-5.61645 -6.31071,-6.76397 -1.9964,-2.50174 -6.29714,-5.83581 -8.5334,-6.61538 -1.45143,-0.50597 -1.99361,-0.37671 -5.32419,1.26935 -2.74737,1.35783 -4.39083,2.60932 -6.34282,4.83006 -1.44904,1.64855 -4.06513,3.89546 -5.81353,4.99314 -5.02779,3.15653 -7.84547,5.80397 -9.88027,9.28331 -1.72472,2.94915 -2.19457,3.37588 -5.41472,4.91779 -4.64734,2.22531 -9.9915,7.26122 -10.66001,10.04515 -0.25994,1.08247 -0.86001,3.56075 -1.33349,5.50729 -0.83749,3.44306 -0.83219,3.66028 0.19524,8 1.44274,6.09389 7.32344,28.82298 8.33391,32.21084 0.45111,1.5125 1.12803,4.83125 1.50423,7.375 0.37621,2.54375 0.99667,6.70625 1.37879,9.25 0.38212,2.54375 1.20618,5.8625 1.83124,7.375 0.99616,2.41044 1.12608,3.52172 1.05214,9 -0.0548,4.06013 0.21188,7.8718 0.76113,10.87865 0.74827,4.09645 0.77064,5.275 0.19455,10.25 -0.35802,3.09175 -0.82571,7.42135 -1.03933,9.62135 -0.29015,2.98825 -1.02376,5.61885 -2.90039,10.4002 -2.78407,7.0934 -4.65971,9.91625 -10.30095,15.5032 -13.19981,13.0727 -14.77489,14.2271 -21.95035,16.08765 -2.69895,0.69985 -5.73645,1.62985 -6.75,2.06665 -7.12597,3.07115 -18.44073,5.8818 -26.96867,6.69915 -2.54422,0.24385 -7.26922,1.0372 -10.5,1.76305 -4.94738,1.1115 -6.89964,1.30245 -12.37414,1.2103 -3.575,-0.0602 -9.3125,0.0175 -12.75,0.1731 -4.37091,0.19755 -7.30229,0.0729 -9.75,-0.41445 z m 22.59245,-25.2772 c 2.15649,-0.8248 11.40509,-1.94115 16.15755,-1.9503 4.42496,-0.009 9.26417,-1.09925 21.25,-4.7896 5.0308,-1.54895 5.95795,-2.0397 10.86806,-5.7523 8.64336,-6.53535 12.36685,-12.0837 14.24038,-21.21945 1.02173,-4.9822 1.07654,-5.97075 0.58214,-10.5 -0.30018,-2.75 -0.85961,-6.6553 -1.24318,-8.6785 -0.38357,-2.02315 -0.7013,-5.84814 -0.70608,-8.49998 -0.005,-2.65183 -0.34677,-6.39652 -0.75998,-8.32152 -0.41322,-1.925 -1.22019,-5.75 -1.79327,-8.5 -0.57308,-2.75 -1.56994,-6.6875 -2.21525,-8.75 -0.64531,-2.0625 -1.39787,-5.56441 -1.67236,-7.78202 -0.64761,-5.232 -1.99561,-8.9198 -3.33129,-9.11363 -1.33587,-0.19387 -8.66528,3.17345 -9.04152,4.1539 -0.16283,0.42433 -1.55335,1.67183 -3.09004,2.77224 -2.98549,2.13786 -7.52694,7.37921 -10.51008,12.12983 -1.00514,1.60067 -2.28468,3.62567 -2.84343,4.5 -0.55874,0.87432 -2.04898,2.15218 -3.31165,2.83968 -1.26266,0.6875 -3.30513,2.18173 -4.53882,3.32052 -1.23368,1.13878 -3.26133,2.52094 -4.50588,3.07146 -2.45909,1.08777 -8.17108,6.74476 -15.50736,15.35802 -2.34229,2.75 -6.78554,7.25 -9.87389,10 -7.14719,6.36415 -8.50738,8.2943 -8.99859,12.769 -0.37324,3.4002 -1.49176,5.7062 -3.44237,7.097 -0.48904,0.3487 -1.90601,2.0965 -3.14883,3.884 -1.24281,1.7875 -3.249,3.975 -4.45818,4.86115 -1.2092,0.8861 -3.59049,2.64375 -5.29178,3.9059 -1.7013,1.2621 -4.4013,2.9902 -6,3.84015 -3.63234,1.9312 -4.65675,2.8021 -4.65675,3.95875 0,1.6917 2.25059,2.5585 7.64843,2.9457 2.80586,0.2013 6.67657,0.6133 8.60157,0.9156 12.37254,1.94285 28.47921,2.72515 31.59245,1.5344 z M 491.47331,445.7239 c -0.825,-0.36668 -1.97199,-1.20162 -2.54886,-1.85543 -1.41442,-1.60306 -5.38998,-9.24392 -6.41444,-12.32825 -0.45508,-1.37014 -1.70846,-3.95194 -2.78528,-5.73733 -1.71302,-2.84022 -2.79048,-5.9031 -4.55075,-12.93642 -0.24959,-0.9973 -1.57692,-3.5337 -2.94961,-5.63645 -1.3727,-2.10276 -3.04884,-4.91454 -3.72477,-6.24842 -1.93772,-3.82391 -4.91809,-6.07021 -11.29878,-8.51588 -6.55287,-2.51167 -8.4848,-4.14603 -11.0408,-9.34027 -1.50229,-3.05293 -1.68594,-3.87519 -1.67963,-7.52066 0.007,-3.90227 0.1222,-4.32204 2.47788,-9.00902 1.86294,-3.70661 3.29564,-5.74817 5.82354,-8.29839 6.01769,-6.07083 10.60152,-7.14316 19.82926,-4.63881 7.93006,2.15218 8.74567,2.89372 13.553,12.32213 2.8496,5.58881 3.22898,6.68243 3.54838,10.22846 0.26989,2.99643 0.94271,5.44259 2.74242,9.97056 1.31163,3.3 2.80305,8.025 3.31429,10.5 0.51123,2.475 1.27255,5.60451 1.69183,6.95447 0.41927,1.34995 0.76232,3.60447 0.76232,5.01004 0,1.40558 0.45434,4.19513 1.00964,6.19902 1.71666,6.19476 2.70419,15.32973 2.03631,18.83647 -0.31425,1.65 -0.52723,4.35 -0.47329,6 0.0539,1.65 -0.17201,3.50392 -0.50211,4.11982 -1.28703,2.40131 -5.62036,3.3467 -8.82055,1.92436 z"
     id="path408"
     inkscape:connector-curvature="0" />
</svg>
