<?xml version="1.0" encoding="UTF-8" standalone="no"?>
<!-- Created with Inkscape (http://www.inkscape.org/) -->

<svg
   xmlns:dc="http://purl.org/dc/elements/1.1/"
   xmlns:cc="http://creativecommons.org/ns#"
   xmlns:rdf="http://www.w3.org/1999/02/22-rdf-syntax-ns#"
   xmlns:svg="http://www.w3.org/2000/svg"
   xmlns="http://www.w3.org/2000/svg"
   xmlns:sodipodi="http://sodipodi.sourceforge.net/DTD/sodipodi-0.dtd"
   xmlns:inkscape="http://www.inkscape.org/namespaces/inkscape"
   version="1.1"
   id="svg328"
   width="1000"
   height="1000"
   viewBox="0 0 1000 1000"
   sodipodi:docname="Saida_lettre_q_bdc.svg"
   inkscape:version="0.92.2 5c3e80d, 2017-08-06">
  <metadata
     id="metadata334">
    <rdf:RDF>
      <cc:Work
         rdf:about="">
        <dc:format>image/svg+xml</dc:format>
        <dc:type
           rdf:resource="http://purl.org/dc/dcmitype/StillImage" />
        <dc:title></dc:title>
      </cc:Work>
    </rdf:RDF>
  </metadata>
  <defs
     id="defs332" />
  <sodipodi:namedview
     pagecolor="#ffffff"
     bordercolor="#666666"
     borderopacity="1"
     objecttolerance="10"
     gridtolerance="10"
     guidetolerance="10"
     inkscape:pageopacity="0"
     inkscape:pageshadow="2"
     inkscape:window-width="1252"
     inkscape:window-height="691"
     id="namedview330"
     showgrid="false"
     inkscape:zoom="0.36951823"
     inkscape:cx="268"
     inkscape:cy="600"
     inkscape:window-x="0"
     inkscape:window-y="0"
     inkscape:window-maximized="0"
     inkscape:current-layer="svg328" />
  <path
     style="fill:#000000;stroke-width:0.5"
     d="m 472.76411,906.32286 c -0.90332,-0.7887 -2.7674,-2.00765 -4.1424,-2.7088 -3.05251,-1.55655 -6.50106,-5.09345 -8.89942,-9.1274 -2.92786,-4.92455 -2.99044,-5.26745 -1.80544,-9.89105 0.78813,-3.0751 0.97329,-4.89455 0.74685,-7.3388 -0.16559,-1.7875 -0.43735,-5.84015 -0.60391,-9.00585 -0.28419,-5.4014 -0.20714,-6.10065 1.25116,-11.3546 0.8547,-3.0793 2.09877,-7.0461 2.76461,-8.81505 0.66584,-1.76895 1.56124,-4.58495 1.98979,-6.25775 0.42855,-1.6728 1.51046,-4.45337 2.40425,-6.17908 1.46831,-2.83501 1.65442,-3.69232 1.92938,-8.88767 0.25203,-4.76223 0.5449,-6.3083 1.70487,-9 1.61238,-3.7415 2.685,-9.59016 3.0719,-16.75 0.1486,-2.75 0.61725,-5.9 1.04144,-7 0.42419,-1.1 0.95764,-3.61853 1.18544,-5.59675 0.2278,-1.97821 0.80295,-4.34071 1.27812,-5.25 0.52255,-0.99995 0.83852,-2.64115 0.79959,-4.15325 -0.0677,-2.62925 3.18212,-14.3376 4.9559,-17.85508 0.66597,-1.32065 0.93547,-2.93567 0.93547,-5.60595 0,-2.68663 0.36495,-4.85575 1.28624,-7.64492 0.98233,-2.97397 1.36902,-5.4447 1.6366,-10.45686 0.33401,-6.25647 0.42663,-6.6855 1.98445,-9.1915 1.59749,-2.56983 1.62676,-2.71957 1.30722,-6.68719 -0.23108,-2.86907 -0.0878,-5.33042 0.48886,-8.39844 0.51686,-2.74986 0.90224,-8.2195 1.05185,-14.92877 0.13424,-6.01928 0.54578,-12.23786 0.95366,-14.41006 1.88753,-10.05211 4.21579,-33.038 4.21316,-41.59461 -0.002,-4.55976 0.2561,-7.76977 0.78794,-9.82218 0.43451,-1.67683 0.79002,-4.93029 0.79002,-7.22992 0,-2.29962 0.24302,-4.96713 0.54005,-5.92782 0.29703,-0.96069 0.73449,-4.4467 0.97213,-7.7467 0.36161,-5.02145 0.29825,-6.43181 -0.38851,-8.64768 -0.70823,-2.28515 -0.73331,-3.03822 -0.18312,-5.5 0.35061,-1.56877 0.81409,-6.11482 1.02996,-10.10232 0.34244,-6.32569 0.57131,-7.66434 1.79513,-10.5 1.29339,-2.99687 1.45064,-4.07533 2.01888,-13.84668 0.55298,-9.50882 0.74535,-10.8787 1.87395,-13.34387 1.49004,-3.25469 2.1615,-6.46877 2.61102,-12.49835 0.33093,-4.4389 0.33093,-4.4389 -2.66895,-7.2935 -1.64994,-1.57002 -3.67973,-3.13618 -4.51064,-3.48036 -1.36142,-0.56392 -1.74514,-0.48841 -3.88191,0.76381 -2.16351,1.26791 -2.95191,1.41687 -9.00321,1.70108 -6.1208,0.28747 -6.78149,0.41503 -8.5703,1.65468 -1.2845,0.89016 -2.58839,1.34319 -3.86588,1.34319 -1.6326,0 -2.24071,-0.33546 -3.97312,-2.19175 -2.48626,-2.66405 -8.36963,-5.22908 -20.75045,-9.04678 -4.92843,-1.51971 -11.59785,-7.09439 -14.09681,-11.78293 -1.20935,-2.26898 -2.34305,-3.5293 -4.66544,-5.18652 -3.6229,-2.58525 -5.1456,-5.07813 -6.99048,-11.44443 -0.69817,-2.40925 -1.83836,-5.35131 -2.53376,-6.53791 -0.69539,-1.1866 -1.49951,-3.48545 -1.78694,-5.10856 -0.28742,-1.62312 -0.95236,-4.30112 -1.47764,-5.95112 -1.81909,-5.71407 -3.58017,-14.44684 -3.27703,-16.25 0.16181,-0.9625 0.49106,-5.35 0.73167,-9.75 0.3781,-6.91422 0.61325,-8.40717 1.73257,-11 0.97425,-2.25678 1.29934,-3.8671 1.31221,-6.5 0.0253,-5.16843 2.05408,-14.4211 3.93482,-17.94539 1.31046,-2.45567 1.5718,-3.49933 1.5718,-6.27711 0,-2.81241 0.22454,-3.68578 1.44055,-5.60323 0.7923,-1.24933 2.16544,-2.78768 3.05141,-3.41854 0.88597,-0.63087 2.35287,-2.29649 3.25979,-3.70138 0.90691,-1.4049 2.48696,-3.34185 3.51121,-4.30435 1.02425,-0.9625 2.37041,-2.87846 2.99147,-4.25769 1.2037,-2.67314 4.24955,-5.79777 7.81353,-8.01563 1.20012,-0.74683 3.08204,-2.08175 4.18204,-2.96647 1.1,-0.88472 3.575,-2.55982 5.5,-3.72244 1.925,-1.16261 4.44536,-3.18934 5.60081,-4.50383 2.39851,-2.72866 5.2997,-4.16016 10.74224,-5.3004 2.01133,-0.42139 5.34445,-1.34849 7.40695,-2.06022 4.5552,-1.57193 10.72426,-2.07126 14.55683,-1.17824 1.48124,0.34514 4.71817,1.2525 7.19317,2.01637 2.475,0.76386 6.3,1.53506 8.5,1.71376 6.03714,0.4904 7.63438,1.12303 10.75,4.25785 1.5125,1.52182 4.5965,4.36217 6.85333,6.31189 2.25683,1.94973 5.18183,4.87409 6.5,6.49859 5.41967,6.67914 7.77798,8.20298 12.70468,8.20925 3.42772,0.004 6.02942,0.95003 7.81115,2.83921 0.89696,0.95106 1.63084,2.01146 1.63084,2.35644 0,0.34498 0.58108,1.17271 1.29129,1.8394 1.20743,1.13343 1.65397,1.21216 6.875,1.21216 4.89663,0 5.86057,0.14506 7.83371,1.1789 5.18367,2.71601 6.49811,5.14616 7.5109,13.88628 0.5317,4.58841 0.49357,5.43556 -0.40503,9 -0.54558,2.16415 -1.13685,5.28482 -1.31392,6.93482 -0.17707,1.65 -0.86965,5.1375 -1.53907,7.75 -1.99546,7.78759 -2.84496,13.75086 -2.16992,15.2324 0.31735,0.69652 2.33365,2.62533 4.48067,4.28624 3.26008,2.52197 4.14559,3.53186 5.37114,6.1256 2.94065,6.22351 3.06523,6.99256 3.06523,18.92267 0,12.93273 0.11841,13.37418 4.339,16.1765 4.2705,2.83545 6.17421,3.34219 14.06852,3.74484 5.95793,0.30388 7.37735,0.52918 8.46911,1.3443 3.68835,2.75376 4.24432,5.55801 4.03229,20.33886 -0.14357,10.00898 -0.25546,11.24284 -1.15892,12.77982 -2.10316,3.57796 -7.40242,4.66572 -17.34603,3.56055 -12.91896,-1.43588 -19.52921,-3.70084 -25.3826,-8.6972 -1.45503,-1.24199 -3.87969,-2.8826 -5.38815,-3.64582 -5.04208,-2.55105 -7.84521,-7.34111 -9.35045,-15.9783 -0.42563,-2.44225 -1.47295,-6.24046 -2.32739,-8.44046 -0.85445,-2.2 -1.78726,-4.62723 -2.07293,-5.39384 -0.28566,-0.76662 -0.76982,-1.31226 -1.07592,-1.21254 -0.30609,0.0997 -1.69652,3.42695 -3.08983,7.39385 -1.39331,3.96689 -2.88107,7.88753 -3.30612,8.71253 -0.47395,0.91995 -0.88602,3.5302 -1.06556,6.75 -0.16101,2.8875 -0.88852,8.175 -1.61667,11.75 -1.11249,5.46198 -1.28257,7.34593 -1.06499,11.79717 0.23191,4.74479 0.13077,5.65722 -0.97001,8.75 -1.86324,5.23504 -2.1747,7.19622 -2.67754,16.85987 -0.25491,4.89887 -0.79323,10.07386 -1.19625,11.5 -0.40302,1.42613 -0.89281,4.95546 -1.0884,7.84296 -0.19559,2.8875 -0.66069,6.2625 -1.03353,7.5 -0.37284,1.2375 -0.81208,4.275 -0.97608,6.75 -0.164,2.475 -0.71651,6.75 -1.22781,9.5 -1.72067,9.25443 -2.12201,13.62066 -1.75157,19.05539 0.36228,5.31519 -0.11961,10.75404 -1.52347,17.19461 -2.23822,10.26842 -2.87514,15.02565 -2.94545,22 -0.053,5.25552 -0.31423,8.0753 -0.94964,10.25 -0.70358,2.40799 -0.81505,4.03602 -0.56488,8.25 0.23279,3.92124 0.11481,6.07257 -0.46614,8.5 -0.4278,1.7875 -0.78114,4.08531 -0.7852,5.10625 -0.004,1.02093 -0.44042,3.04593 -0.96966,4.5 -0.63303,1.73917 -1.03664,4.44009 -1.17961,7.89375 -0.14671,3.54433 -0.56507,6.28644 -1.28772,8.44014 -0.85963,2.56199 -1.0704,4.38397 -1.0704,9.25329 0,6.80499 -0.36783,8.59026 -2.36347,11.47109 -1.31262,1.89486 -1.38869,2.31029 -1.42716,7.79351 -0.056,7.98216 -0.91782,16.39828 -1.92433,18.79197 -0.46254,1.1 -1.36522,4.83451 -2.00595,8.29892 -0.64074,3.4644 -1.61648,7.31958 -2.1683,8.56708 -0.55183,1.2475 -1.16068,3.19955 -1.353,4.33792 -0.19233,1.13836 -1.19926,3.35817 -2.23763,4.93291 -1.82522,2.76803 -1.89886,3.05193 -2.21632,8.54396 -0.36717,6.35208 -0.64157,7.14943 -3.23397,9.39705 -1.81987,1.57783 -1.81987,1.57783 -1.67447,7.55023 0.14539,5.97242 0.14539,5.97242 -4.11828,11.92217 -4.10887,5.73374 -4.26392,6.04972 -4.27039,8.70306 -0.003,1.5143 -0.22539,3.51575 -0.49264,4.4476 -0.26726,0.93185 -0.82964,3.68605 -1.24975,6.12045 -0.71416,4.1383 -1.67342,6.70145 -6.30203,16.83915 -0.91912,2.0131 -1.63712,4.72265 -1.97769,7.46325 -0.29407,2.3665 -0.61804,4.4376 -0.71993,4.6025 -0.1019,0.16485 -0.56491,3.08055 -1.02892,6.47935 -0.79132,5.79625 -0.78798,8.16305 0.0208,14.7944 0.36695,3.0086 -0.72455,5.3968 -3.25636,7.125 -2.19348,1.49725 -3.62973,1.4181 -5.60785,-0.30895 z m 8.48267,-413.54225 c 5.75354,-1.09632 8.48204,-2.16983 11.30997,-4.44983 2.38642,-1.92404 4.60005,-2.56757 8.8444,-2.57118 3.51295,-0.003 5.34361,-0.80944 4.83661,-2.13065 -0.17011,-0.4433 -1.21678,-0.91811 -2.45624,-1.11422 -7.23014,-1.14401 -9.36265,-3.48618 -9.39788,-10.32186 -0.007,-1.27267 -0.34943,-3.12168 -0.76193,-4.10894 -1.45471,-3.48161 -1.02945,-5.72857 2.01148,-10.62796 3.38376,-5.45175 6.34636,-11.5696 8.32877,-17.19916 0.82315,-2.3375 2.03569,-5.18343 2.69455,-6.3243 1.53163,-2.65213 6.21373,-14.15755 6.21457,-15.27119 9.9e-4,-1.10196 -0.39952,-1.31663 -3.58031,-1.91986 -1.46205,-0.27727 -5.24821,-1.82128 -8.41367,-3.43113 -3.16547,-1.60985 -7.10539,-3.30816 -8.75539,-3.77403 -1.65,-0.46586 -4.32613,-1.52847 -5.94696,-2.36137 -2.09396,-1.07601 -3.35945,-1.43184 -4.37206,-1.22931 -2.24815,0.44963 -13.4875,6.73818 -15.52,8.68362 -3.97956,3.80911 -7.90289,15.64286 -8.85519,26.70947 -0.35329,4.10555 -1.00098,7.77574 -1.84208,10.43829 -1.52179,4.81732 -1.37112,8.25671 0.57954,13.22981 0.6472,1.65 1.39232,4.38354 1.65583,6.07453 0.84829,5.44377 4.85628,11.84963 11.45015,18.30047 3.08964,3.02263 4.83996,4.375 5.66237,4.375 0.65471,0 3.49577,-0.43928 6.31347,-0.9762 z"
     id="path338"
     inkscape:connector-curvature="0" />
</svg>
