<?xml version="1.0" encoding="UTF-8" standalone="no"?>
<!-- Created with Inkscape (http://www.inkscape.org/) -->

<svg
   xmlns:dc="http://purl.org/dc/elements/1.1/"
   xmlns:cc="http://creativecommons.org/ns#"
   xmlns:rdf="http://www.w3.org/1999/02/22-rdf-syntax-ns#"
   xmlns:svg="http://www.w3.org/2000/svg"
   xmlns="http://www.w3.org/2000/svg"
   xmlns:sodipodi="http://sodipodi.sourceforge.net/DTD/sodipodi-0.dtd"
   xmlns:inkscape="http://www.inkscape.org/namespaces/inkscape"
   version="1.1"
   id="svg191"
   width="1000"
   height="1000"
   viewBox="0 0 1000 1000"
   sodipodi:docname="Saida_lettre_j_bdc.svg"
   inkscape:version="0.92.2 5c3e80d, 2017-08-06">
  <metadata
     id="metadata197">
    <rdf:RDF>
      <cc:Work
         rdf:about="">
        <dc:format>image/svg+xml</dc:format>
        <dc:type
           rdf:resource="http://purl.org/dc/dcmitype/StillImage" />
        <dc:title></dc:title>
      </cc:Work>
    </rdf:RDF>
  </metadata>
  <defs
     id="defs195" />
  <sodipodi:namedview
     pagecolor="#ffffff"
     bordercolor="#666666"
     borderopacity="1"
     objecttolerance="10"
     gridtolerance="10"
     guidetolerance="10"
     inkscape:pageopacity="0"
     inkscape:pageshadow="2"
     inkscape:window-width="1288"
     inkscape:window-height="699"
     id="namedview193"
     showgrid="false"
     inkscape:zoom="0.38872396"
     inkscape:cx="426.5"
     inkscape:cy="600"
     inkscape:window-x="0"
     inkscape:window-y="0"
     inkscape:window-maximized="0"
     inkscape:current-layer="svg191" />
  <path
     style="fill:#000000;stroke-width:0.5"
     d="m 404.29817,705.45651 c -4.152,-0.7546 -9.86169,-3.5167 -12.09818,-5.8526 -2.35089,-2.45535 -3.03483,-4.54745 -4.68557,-14.33265 -1.24076,-7.3549 -1.43892,-9.63525 -1.18081,-13.5881 0.42906,-6.5711 0.92505,-8.139 3.48733,-11.02395 1.22588,-1.3803 2.76986,-3.57081 3.43106,-4.86783 0.66121,-1.29702 2.43921,-3.42098 3.95112,-4.7199 2.29456,-1.97132 2.97545,-2.96307 4.11939,-6 1.15433,-3.06453 1.93386,-4.19029 4.94292,-7.13832 1.96485,-1.925 4.91385,-5.00764 6.55334,-6.85032 2.33076,-2.61961 4.01685,-3.9109 7.73088,-5.92063 2.6125,-1.41368 5.875,-3.41389 7.25,-4.44491 1.375,-1.03101 3.35564,-2.38617 4.40141,-3.01146 1.04578,-0.62529 2.80325,-2.35766 3.9055,-3.84972 1.1262,-1.52447 4.62857,-4.80328 7.99539,-7.48504 3.84398,-3.06181 6.83472,-5.91393 8.3445,-7.95776 2.33766,-3.1645 8.64244,-8.22286 18.12921,-14.54512 2.0482,-1.36498 5.72274,-3.89252 8.16566,-5.61676 2.44291,-1.72424 5.70541,-3.82933 7.25,-4.67799 1.54458,-0.84865 4.15833,-2.81721 5.80833,-4.37457 1.65,-1.55736 4.2375,-3.73798 5.75,-4.84582 4.84029,-3.54529 8.35145,-7.07001 9.22994,-9.26557 1.37394,-3.43381 0.34528,-9.02769 -2.55561,-13.89742 -1.55896,-2.61705 -1.84241,-3.60404 -2.19153,-7.63136 -0.22053,-2.54405 -0.74701,-5.52555 -1.16994,-6.62555 -0.42294,-1.1 -0.77885,-2.7166 -0.79092,-3.59245 -0.0314,-2.27751 -0.82163,-4.06463 -2.73271,-6.17997 -0.91793,-1.01604 -3.03697,-4.63289 -4.70899,-8.03746 -1.67201,-3.40456 -4.06925,-7.42762 -5.3272,-8.94012 -2.33811,-2.81125 -5.38106,-7.77956 -8.21318,-13.40985 -0.99825,-1.98455 -2.85899,-4.40941 -5.0027,-6.51936 -3.67064,-3.61285 -5.72445,-7.06345 -6.58078,-11.05639 -0.40707,-1.89811 -1.0236,-2.96345 -2.5381,-4.38576 -2.55379,-2.39832 -3.16279,-3.59453 -4.07579,-8.00577 -0.86124,-4.1611 -0.5518,-6.25182 1.35078,-9.12684 1.94746,-2.9428 5.17913,-4.60594 9.48708,-4.8824 4.47273,-0.28705 6.56128,0.51383 8.86817,3.40062 0.93582,1.17105 5.15344,5.52027 9.3725,9.66491 7.95651,7.81618 9.41801,9.84529 10.54814,14.64481 0.41841,1.77693 1.29766,3.38415 2.83945,5.19041 1.22835,1.43905 2.59306,3.31826 3.03269,4.17604 0.43963,0.85776 1.43672,2.49145 2.21576,3.63041 0.77904,1.13895 1.88195,3.31502 2.45091,4.8357 0.60961,1.62931 2.10387,3.96461 3.63825,5.686 5.64496,6.33299 7.75977,10.83587 13.45137,28.64082 2.46404,7.70824 4.44561,11.18516 6.51033,11.42321 2.32453,0.26801 4.82185,-1.30294 6.12237,-3.85131 1.50583,-2.95064 2.95696,-4.26882 8.66643,-7.87242 2.55569,-1.61305 5.76461,-3.63801 7.13092,-4.49989 1.36632,-0.86189 4.16572,-3.16434 6.22091,-5.11657 2.05518,-1.95222 5.03377,-4.27672 6.61907,-5.16556 2.69347,-1.51015 5.86356,-4.44058 11.88238,-10.98408 1.93335,-2.10188 4.06261,-3.5621 9.39404,-6.44233 7.5625,-4.08553 17.73587,-10.21118 21.62204,-13.01919 1.36616,-0.98714 4.62142,-2.9886 7.23392,-4.44769 2.6125,-1.4591 6.55,-3.72616 8.75,-5.03793 2.2,-1.31177 4.9,-2.73691 6,-3.16699 3.53939,-1.38384 11.43688,-3.30004 13.60625,-3.30134 5.78393,-0.003 13.25409,5.51241 14.8492,10.96449 0.92699,3.16841 0.98598,4.63779 0.28255,7.03755 -0.2816,0.96068 -0.75084,3.4342 -1.04274,5.4967 -0.29191,2.0625 -1.38417,7.125 -2.42725,11.25 -1.6464,6.51092 -2.37976,8.41472 -5.5609,14.43619 -3.69437,6.99296 -6.90104,11.24201 -9.4973,12.58459 -2.3523,1.21642 -4.82859,0.93736 -6.49827,-0.73232 -1.26182,-1.26181 -1.46154,-1.83812 -1.46154,-4.21731 0,-1.51568 -0.32446,-4.29823 -0.72103,-6.18344 -0.76271,-3.62582 -0.58148,-5.28683 0.96796,-8.87163 1.0377,-2.40082 0.84624,-7.3872 -0.32876,-8.5622 -0.68777,-0.68777 -1.09211,-0.65748 -3.967,0.29722 -1.76065,0.58467 -4.34763,1.81531 -5.74886,2.73475 -1.40123,0.91944 -3.91028,2.35954 -5.57567,3.20022 -1.6654,0.84069 -4.25887,2.60524 -5.76328,3.92123 -1.96912,1.72249 -4.39883,3.09296 -8.67432,4.8927 -5.20578,2.19134 -6.30943,2.87559 -8.93904,5.5421 -1.65,1.67316 -5.1375,4.64022 -7.75,6.59348 -2.6125,1.95325 -6.6625,5.13171 -9,7.06324 -2.3375,1.93153 -6.83157,5.48947 -9.98682,7.90653 -3.15526,2.41705 -6.85695,5.49691 -8.22599,6.84412 -1.53924,1.51469 -3.86984,3.07866 -6.10707,4.0982 -4.5421,2.0699 -7.24188,4.49013 -9.28518,8.32375 -0.87919,1.64954 -2.24972,3.47828 -3.0456,4.06387 -0.79589,0.58559 -2.04219,2.07721 -2.76956,3.31471 -1.31903,2.24412 -1.32243,2.27745 -1.29879,12.75 0.0203,8.97279 0.17513,11.08179 1.06478,14.5 1.33612,5.13368 2.34074,12.53007 2.04299,15.04127 -0.43719,3.68726 -1.9711,10.95756 -2.73406,12.95873 -0.41937,1.1 -2.06273,5.74737 -3.6519,10.32749 -1.58916,4.58012 -3.5655,9.31019 -4.39186,10.51126 -0.82637,1.20108 -1.86849,3.05976 -2.31584,4.13042 -0.44734,1.07065 -1.76904,2.97808 -2.93712,4.23873 -1.16807,1.26066 -2.83969,3.4171 -3.7147,4.7921 -0.87502,1.375 -2.67146,3.39106 -3.99211,4.48013 -1.32064,1.08907 -5.10545,4.51142 -8.41067,7.60522 -6.80402,6.36875 -14.29086,11.77285 -17.9905,12.98575 -3.25291,1.06645 -4.92914,2.24665 -8.10825,5.70875 -2.98631,3.25215 -4.52084,3.96715 -14.39175,6.7057 -3.575,0.9918 -8.6375,2.778 -11.25,3.9693 -6.28187,2.8645 -7.15289,3.1847 -12.60238,4.63245 -9.19646,2.44325 -13.24614,3.20745 -19.26776,3.63585 -5.56116,0.3956 -6.45209,0.5994 -9.75443,2.2311 -4.09755,2.02465 -7.08139,2.25875 -13.62691,1.0691 z m 18.17829,-30.06015 c 2.37776,-0.70775 5.67319,-1.71195 7.32319,-2.23155 1.65,-0.5196 4.9125,-1.38915 7.25,-1.9323 2.3375,-0.54315 5.52066,-1.5509 7.07369,-2.23945 1.55302,-0.68855 4.64076,-1.5966 6.86164,-2.0179 2.24901,-0.4266 5.53912,-1.51645 7.42632,-2.45995 1.86359,-0.93165 4.28835,-1.9789 5.38835,-2.3272 2.41303,-0.764 7.66486,-3.5806 10.75,-5.76533 1.2375,-0.87632 3.85753,-2.42911 5.8223,-3.45065 4.48784,-2.33337 11.14565,-8.3055 14.46189,-12.97247 1.39381,-1.96152 4.55358,-5.5914 7.02173,-8.0664 3.62014,-3.63018 4.95206,-5.40383 6.89068,-9.17598 3.17478,-6.17743 4.30252,-10.25498 4.30691,-15.57243 0.002,-2.58981 0.40862,-5.91275 1.03998,-8.50159 0.88432,-3.62609 0.98848,-5.13081 0.70949,-10.25 -0.17985,-3.3 -0.44724,-6.50625 -0.5942,-7.125 -0.53616,-2.25748 -2.3122,-1.36791 -7.57756,3.79535 -2.75971,2.7062 -7.2257,6.39814 -9.92443,8.20431 -3.36622,2.2529 -6.94758,5.35075 -11.40679,9.86681 -4.45738,4.5142 -7.36419,7.02874 -9.25,8.00174 -1.91393,0.98752 -4.68815,3.40656 -9.125,7.95672 -3.50625,3.59581 -6.375,6.74024 -6.375,6.98764 0,0.24738 -1.63125,1.75816 -3.625,3.35728 -6.34875,5.09212 -9.90352,8.37279 -12.41221,11.45515 -1.34292,1.65 -3.62766,4.38334 -5.07723,6.07409 -1.44955,1.69074 -4.09082,4.84074 -5.86946,7 -3.99763,4.85306 -9.54254,11.07411 -14.6411,16.42636 -3.60369,3.783 -4.37928,5.0786 -3.54166,5.9162 0.62331,0.62335 2.76169,0.3359 7.09347,-0.95345 z M 411.54965,295.38122 c -1.5125,-0.40488 -3.67929,-1.18459 -4.81509,-1.7327 -2.90093,-1.39992 -19.04628,-15.34575 -21.31331,-18.40976 -1.03313,-1.39632 -2.72643,-2.97138 -3.7629,-3.50014 -2.77872,-1.4176 -7.87943,-5.29205 -11.87788,-9.02232 -1.93554,-1.80573 -4.63554,-4.07064 -6,-5.03314 -1.76125,-1.24241 -3.56851,-3.36411 -6.23082,-7.31494 -2.0625,-3.06072 -5.16034,-7.11073 -6.88407,-9 -7.25011,-7.94637 -6.87113,-16.12214 1.09265,-23.57188 5.61512,-5.25266 9.59018,-6.22384 16.60551,-4.05703 3.13267,0.96758 3.76936,1.41834 7.59233,5.375 2.47329,2.55978 5.91322,6.96629 8.44571,10.81885 5.13053,7.80481 8.52904,12.20731 15.01605,19.45206 6.2592,6.99032 8.71492,9.48424 12.26691,12.45767 1.58324,1.32535 3.66364,3.57535 4.6231,5 0.95946,1.42465 2.49655,3.51835 3.41575,4.65267 1.78351,2.2009 5.59723,11.30104 6.28988,15.00865 0.78154,4.18337 -0.81126,7.49716 -4.32276,8.99339 -2.05996,0.87773 -6.62293,0.82536 -10.14106,-0.11638 z"
     id="path201"
     inkscape:connector-curvature="0" />
</svg>
