<?xml version="1.0" encoding="UTF-8" standalone="no"?>
<!-- Created with Inkscape (http://www.inkscape.org/) -->

<svg
   xmlns:dc="http://purl.org/dc/elements/1.1/"
   xmlns:cc="http://creativecommons.org/ns#"
   xmlns:rdf="http://www.w3.org/1999/02/22-rdf-syntax-ns#"
   xmlns:svg="http://www.w3.org/2000/svg"
   xmlns="http://www.w3.org/2000/svg"
   xmlns:sodipodi="http://sodipodi.sourceforge.net/DTD/sodipodi-0.dtd"
   xmlns:inkscape="http://www.inkscape.org/namespaces/inkscape"
   version="1.1"
   id="svg1124"
   width="1000"
   height="1000"
   viewBox="0 0 1000 1000"
   sodipodi:docname="Saida_lettre_r_bdc.svg"
   inkscape:version="0.92.2 5c3e80d, 2017-08-06">
  <metadata
     id="metadata1130">
    <rdf:RDF>
      <cc:Work
         rdf:about="">
        <dc:format>image/svg+xml</dc:format>
        <dc:type
           rdf:resource="http://purl.org/dc/dcmitype/StillImage" />
        <dc:title></dc:title>
      </cc:Work>
    </rdf:RDF>
  </metadata>
  <defs
     id="defs1128" />
  <sodipodi:namedview
     pagecolor="#ffffff"
     bordercolor="#666666"
     borderopacity="1"
     objecttolerance="10"
     gridtolerance="10"
     guidetolerance="10"
     inkscape:pageopacity="0"
     inkscape:pageshadow="2"
     inkscape:window-width="1025"
     inkscape:window-height="480"
     id="namedview1126"
     showgrid="false"
     inkscape:zoom="0.069532167"
     inkscape:cx="751.5"
     inkscape:cy="600"
     inkscape:window-x="20"
     inkscape:window-y="109"
     inkscape:window-maximized="0"
     inkscape:current-layer="svg1124" />
  <path
     style="fill:#000000;stroke-width:0.5"
     d="m 186.96427,702.01848 c -4.37026,-1.5788 -6.32176,-2.60855 -8.89605,-4.69405 -2.57231,-2.0839 -12.42421,-7.1858 -17.34026,-8.97975 -4.49135,-1.639 -6.33026,-2.96685 -12.80829,-9.2486 -5.64946,-5.4783 -7.0472,-7.61586 -8.89208,-13.59878 -2.51393,-8.1526 -2.41054,-13.00958 0.41805,-19.64011 1.9317,-4.52811 3.59945,-6.50346 6.04729,-7.16259 2.37366,-0.63916 4.29345,-0.33174 9.98503,1.59895 5.35739,1.81732 10.07307,2.19217 18,1.43082 10.81717,-1.03894 20.23717,-3.1099 28.88641,-6.35059 2.29688,-0.86059 4.17059,-1.17559 7,-1.17681 10.62591,-0.005 27.92595,-5.65123 40.93976,-13.36255 3.25811,-1.93059 6.99927,-4.12622 8.31368,-4.87919 1.52179,-0.87176 3.18934,-2.48369 4.59092,-4.43781 2.64762,-3.69138 3.05461,-3.95615 9.31603,-6.06066 5.103,-1.71515 5.42539,-1.87742 15.02316,-7.56142 5.24024,-3.10338 6.21144,-3.9143 9.75,-8.14096 2.16153,-2.58184 5.05504,-6.28388 6.43004,-8.22675 2.12837,-3.0074 3.05743,-3.83438 6.25,-5.56329 4.10015,-2.22041 9.1882,-7.07595 22.25,-21.23325 3.85,-4.1729 8.34078,-8.75605 9.97951,-10.18478 1.63874,-1.42872 6.29788,-5.86018 10.35366,-9.84768 4.05578,-3.9875 8.79,-8.63703 10.52049,-10.33229 5.63894,-5.52415 10.97915,-11.38564 11.76892,-12.91771 1.20239,-2.33253 2.49858,-3.84352 5.01005,-5.84027 1.27306,-1.01215 3.01578,-3.03442 3.87272,-4.49393 0.9542,-1.62517 3.15543,-4.01252 5.67952,-6.15973 4.1196,-3.50449 7.52436,-7.79726 9.91905,-12.50607 0.69927,-1.375 2.26157,-3.98288 3.47179,-5.79529 1.21021,-1.81241 2.8647,-5.02048 3.67664,-7.12905 0.81193,-2.10857 2.36943,-5.46319 3.46109,-7.45471 2.87251,-5.24031 5.54712,-13.65501 6.19458,-19.48901 0.49212,-4.43439 0.43954,-5.35956 -0.55328,-9.73358 -1.27924,-5.63592 -2.79388,-8.92326 -7.45843,-16.18759 -4.81568,-7.49969 -8.42493,-11.9193 -10.4118,-12.74946 -0.92437,-0.38623 -3.99903,-1.04563 -6.83259,-1.46534 -6.18133,-0.9156 -10.69131,-2.28714 -14.40192,-4.37982 -5.32001,-3.00035 -13.6797,-12.77546 -14.2066,-16.612 -0.11362,-0.82728 -0.50736,-3.30415 -0.87499,-5.50415 -0.36762,-2.2 -0.60717,-5.74527 -0.53232,-7.87838 0.14983,-4.26985 -0.49218,-6.1709 -2.53635,-7.51029 -0.70155,-0.45967 -2.48037,-3.35631 -4.27555,-6.96232 -2.63136,-5.28564 -3.07512,-6.56939 -3.08064,-8.91208 -0.004,-1.50531 -0.46145,-4.18861 -1.01755,-5.96288 -1.18417,-3.7781 -0.98932,-5.30208 1.10066,-8.60854 1.0822,-1.71212 1.57427,-3.25792 1.8457,-5.79819 0.29737,-2.78313 0.77638,-4.14194 2.43786,-6.91551 1.32388,-2.21001 2.18782,-4.35119 2.40149,-5.95181 0.18355,-1.375 0.67163,-3.85 1.08462,-5.5 0.41299,-1.65 0.92485,-5.475 1.13747,-8.5 0.59558,-8.47373 0.93368,-9.23397 6.5597,-14.75 6.26335,-6.1409 12.43928,-11.71757 13.7065,-12.37654 3.23605,-1.68279 24.68587,-6.12176 31.28452,-6.47422 4.66062,-0.24895 5.89452,-0.12513 10.45131,1.04874 5.78636,1.49063 4.47467,1.70529 11.13917,-1.82298 1.97727,-1.04679 2.67315,-1.11692 10.0096,-1.00885 5.67918,0.0837 8.6805,-0.0912 10.73005,-0.625 1.63285,-0.42531 5.06485,-0.74115 8.05346,-0.74115 2.86442,0 7.37339,-0.37002 10.01995,-0.82227 4.22835,-0.72254 5.32737,-0.74019 9.06194,-0.14551 2.3375,0.37221 5.9375,0.61198 8,0.53282 6.96936,-0.26749 10.23644,-0.22916 14,0.16427 2.22276,0.23235 5.09465,0.18181 7.05167,-0.12411 2.56933,-0.40163 4.23293,-0.34971 7.5,0.23412 3.03661,0.54264 5.44352,0.64604 8.69833,0.37367 6.27673,-0.52524 9.51766,-0.48816 17,0.19453 3.575,0.32618 9.0875,0.80849 12.25,1.07179 3.1625,0.26331 6.48997,0.61251 7.39439,0.77601 4.329,0.78258 17.26853,1.141 23.45397,0.64967 5.89422,-0.46819 7.25483,-0.41384 12.75,0.50941 3.38341,0.56844 7.78517,1.15953 9.7817,1.31353 4.78434,0.36902 8.05724,1.6735 11.12974,4.43593 1.384,1.24434 3.24175,2.41667 4.1283,2.60519 0.88655,0.18852 3.4119,1.30495 5.6119,2.48097 2.2,1.17602 4.7892,2.38781 5.7538,2.69286 2.30105,0.72775 4.19045,2.53096 5.98945,5.71625 0.80475,1.42498 2.9555,4.04694 4.7794,5.82658 4.9242,4.80472 4.85775,4.59192 5.3114,17.01429 0.4967,13.60081 0.4773,13.71652 -3.45105,20.55405 -1.7968,3.12742 -2.30635,4.60818 -2.8648,8.32479 -0.7258,4.83034 -0.8657,5.19108 -3.73555,9.63127 -1.16385,1.80068 -2.38995,4.74593 -3.2533,7.81483 -0.7621,2.70878 -2.14425,6.77201 -3.0715,9.02939 -0.92725,2.25738 -2.0245,5.72839 -2.4384,7.71335 -0.42225,2.02517 -1.71365,5.49027 -2.94265,7.89567 -1.20455,2.35766 -2.57905,5.62988 -3.0544,7.2716 -1.01015,3.48885 -1.97835,5.49656 -5.4027,11.20327 -1.38225,2.30352 -3.60755,6.68365 -4.94505,9.73363 -1.33755,3.04997 -3.06875,6.34027 -3.8471,7.31178 -2.14197,2.67343 -2.43327,3.45015 -2.81889,7.51637 -0.19559,2.0625 -0.67131,5.28346 -1.05714,7.15769 -0.38584,1.87422 -0.70152,4.46894 -0.70152,5.76603 0,3.94852 -1.20092,7.31846 -4.34169,12.18333 -4.3317,6.70956 -7.48079,12.41107 -8.10422,14.67292 -0.29864,1.08351 -1.12154,4.47587 -1.82865,7.53856 -1.28566,5.56852 -1.28566,5.56852 -0.006,8.60993 1.98172,4.70836 1.64272,6.73145 -1.74353,10.4051 -1.97636,2.1441 -1.97636,2.1441 -1.97636,6.44646 0,3.66159 0.21767,4.79888 1.46155,7.63617 0.80386,1.83359 1.81721,4.8702 2.2519,6.74801 0.43469,1.87781 1.35199,4.37257 2.03844,5.54393 1.8979,3.23852 1.69796,5.59276 -0.75189,8.85321 -1.1,1.46396 -2,3.18047 -2,3.81446 0,0.63399 0.646,2.44005 1.43556,4.01346 0.78956,1.5734 1.79383,4.10456 2.23172,5.6248 0.4712,1.6359 1.71584,3.94842 3.04945,5.66585 1.32841,1.71074 2.37589,3.65463 2.55197,4.73594 0.16428,1.00878 0.41049,2.50915 0.54714,3.33415 0.33946,2.04953 2.55222,9.41322 3.80632,12.66681 1.33562,3.46508 5.07664,7.51856 8.72654,9.45544 1.5957,0.84679 5.1513,2.14458 7.9013,2.88397 2.75,0.73938 6.5719,2.02818 8.49315,2.864 3.49315,1.51965 3.49315,1.51965 8.5,0.95531 2.75375,-0.31038 6.43315,-1.01685 8.1764,-1.56993 2.2306,-0.7077 4.5449,-1.0056 7.81215,-1.0056 2.7884,0 5.46745,-0.29104 6.708,-0.72873 3.6276,-1.27989 19.6669,-5.16024 23.8103,-5.76038 2.2,-0.31865 4.85135,-0.79968 5.8919,-1.06895 1.04055,-0.26927 3.63885,-0.68883 5.77395,-0.93235 4.50845,-0.5142 10.35395,-2.95215 14.3116,-5.96889 3.7342,-2.84639 5.01635,-3.36102 11.30065,-4.53586 6.0157,-1.12462 8.63585,-2.15743 13.9719,-5.50745 1.7875,-1.1222 5.1517,-2.62068 7.476,-3.32995 6.54785,-1.99809 7.8636,-2.72356 14.05465,-7.74942 7.4788,-6.07122 9.9314,-7.59745 14.34025,-8.92371 1.9915,-0.59907 5.0031,-1.98257 6.6924,-3.07444 1.8486,-1.19479 4.488,-2.33933 6.6291,-2.87461 4.50025,-1.12507 5.79725,-1.81899 9.8076,-5.24726 1.7875,-1.52806 4.67075,-3.45982 6.40725,-4.29281 1.73645,-0.833 5.3115,-2.97527 7.9445,-4.76062 2.633,-1.78535 5.6343,-3.49986 6.66955,-3.81002 4.5045,-1.34958 7.97115,1.01731 11.4341,7.80669 2.20545,4.32391 2.20545,4.32391 1.59095,7.65887 -0.9149,4.96543 -2.089,6.59509 -8.36715,11.61365 -5.1334,4.10348 -5.8692,4.90821 -8.36445,9.148 -2.8682,4.87343 -5.57755,8.56701 -9.0544,12.34344 -1.14195,1.24036 -3.01385,3.8605 -4.15975,5.82253 -1.48755,2.54704 -3.50935,4.88309 -7.06895,8.16772 -5.1944,4.79313 -5.54025,5.3454 -7.25675,11.58896 -0.95715,3.48161 -3.66555,6.08126 -8.1805,7.85209 -3.3303,1.30618 -4.774,2.61562 -6.82875,6.19384 -1.783,3.10484 -4.16705,5.01995 -7.9492,6.38553 -2.1274,0.76811 -3.91765,1.91345 -5.846,3.74001 -2.01545,1.90908 -3.5667,2.88097 -5.64305,3.53547 -2.0613,0.64979 -3.56775,1.58866 -5.37765,3.35162 -1.38285,1.34694 -3.90595,3.08634 -5.607,3.86533 -2.37825,1.08914 -3.88725,2.29952 -6.53185,5.23935 -4.8831,5.4282 -6.5461,6.4129 -11.5134,6.81749 -3.22305,0.26253 -4.9132,0.73126 -8.2975,2.3012 -5.6948,2.64177 -8.5407,3.54131 -12.9568,4.09544 -2.45825,0.30846 -4.1424,0.81355 -5,1.49953 -4.65005,3.71948 -13.75145,5.3427 -34.0432,6.07151 -7.8375,0.2815 -15.0942,0.36943 -16.12595,0.19539 -1.0318,-0.17404 -3.6193,-0.98808 -5.75,-1.80898 -9.3539,-3.60377 -14.13825,-4.82205 -19.87405,-5.06065 -6.54145,-0.27212 -12.11655,-1.9548 -17.74577,-5.35603 -2.40311,-1.45198 -4.70365,-2.3786 -7.14882,-2.87942 -1.98298,-0.40616 -4.50541,-1.19066 -5.60541,-1.74332 -3.50213,-1.75956 -14.39667,-9.42501 -17.32927,-12.19296 -1.76446,-1.6654 -4.22338,-3.30574 -6.53355,-4.35851 -4.25854,-1.94068 -5.5817,-3.37363 -6.71505,-7.27219 -0.62025,-2.13359 -1.48299,-3.49135 -3.68302,-5.79621 -4.91904,-5.15343 -8.47319,-11.42535 -9.21417,-16.25994 -0.62804,-4.09778 -1.29827,-5.45228 -3.6481,-7.37267 -2.69414,-2.20176 -9.52834,-10.30315 -10.21489,-12.10892 -0.49159,-1.29298 -0.17845,-2.94832 1.28039,-6.76841 0.42007,-1.1 0.7659,-3.575 0.76851,-5.5 0.006,-4.08771 -1.59044,-8.67178 -4.96169,-14.2514 -2.75459,-4.559 -2.95406,-6.34914 -1.28991,-11.57641 1.31928,-4.14401 1.32278,-4.19583 0.51837,-7.67219 -0.58814,-2.54172 -0.87917,-7.05932 -1.06297,-16.5 -0.27487,-14.11889 -0.20664,-14.6501 3.36916,-26.22717 0.9413,-3.0476 1.23084,-8.89049 0.84779,-17.1091 -0.0628,-1.34755 0.63139,-3.23662 2.6083,-7.09787 2.49275,-4.86873 2.7213,-5.60897 3.06107,-9.91373 0.45864,-5.8108 1.81377,-13.19024 2.75725,-15.01471 0.39351,-0.76098 1.94765,-3.19315 3.45363,-5.40483 1.50599,-2.21167 2.73815,-4.24634 2.73815,-4.52149 0,-0.871 4.39222,-12.28164 5.7869,-15.03392 1.1565,-2.28224 1.29998,-3.0492 1.05861,-5.65863 -0.16605,-1.79501 0.004,-4.3359 0.42007,-6.26855 0.38461,-1.7875 0.71214,-4.15 0.72784,-5.25 0.0335,-2.3485 1.16315,-4.7996 4.23558,-9.19045 1.29761,-1.85442 2.79257,-4.89041 3.57,-7.25 1.75962,-5.34067 2.39069,-6.54204 5.14019,-9.7855 1.27095,-1.49927 3.26253,-3.95151 4.42574,-5.44942 4.73952,-6.10328 3.74926,-6.72633 -12.13625,-7.63592 -8.98024,-0.51421 -10.44025,-0.48463 -14.00215,0.28365 -2.18709,0.47174 -5.91465,1.26754 -8.28347,1.76844 -2.36882,0.5009 -5.18132,1.46252 -6.25,2.13692 -2.76014,1.74181 -3.802,1.98634 -9.17063,2.15234 -2.62483,0.0812 -7.02243,0.35277 -9.77243,0.60358 -4.36826,0.39841 -5.33016,0.66418 -7.61311,2.10354 -3.09557,1.95169 -4.89646,1.88006 -8.46968,-0.3369 -1.24131,-0.77016 -3.07738,-1.89622 -4.08017,-2.50237 -3.28092,-1.98322 -9.27257,-3.27734 -16.36584,-3.53484 -7.93202,-0.28793 -13.48453,0.39939 -19.56851,2.42233 -2.52852,0.84074 -6.32679,1.79546 -8.4406,2.12161 -5.37132,0.82875 -5.63049,1.31636 -3.63763,6.84404 0.84251,2.33692 2.85371,8.02072 4.46933,12.63067 1.61561,4.60994 3.31011,9.10994 3.76554,10 0.45544,0.89005 2.45976,3.2144 4.45405,5.16521 2.96461,2.89999 3.83851,4.12983 4.79121,6.74269 0.84823,2.32635 2.00768,4.11377 4.26193,6.57017 3.2083,3.49603 4.39016,6.06485 5.64239,12.26395 0.2915,1.44306 1.23773,4.14306 2.10273,6 1.25668,2.69777 1.62065,4.23218 1.81117,7.63547 0.21551,3.8497 0.0819,4.71504 -1.38934,9 -0.89528,2.60743 -2.37005,6.31579 -3.27726,8.24079 -0.90721,1.925 -1.90253,4.9625 -2.21182,6.75 -1.30659,7.55125 -6.2801,23.67183 -8.85367,28.69729 -0.40764,0.79602 -1.92105,4.62102 -3.36314,8.5 -4.72406,12.70702 -7.24919,18.1338 -11.08447,23.82173 -4.43785,6.58158 -8.37239,13.4302 -11.66963,20.31266 -3.81221,7.95734 -6.665,11.7324 -14.876,19.68518 -4.23522,4.10203 -8.29237,8.52564 -9.37238,10.21892 -2.38815,3.74421 -10.13648,12.16191 -13.60605,14.78146 -1.44175,1.08853 -3.96006,3.72371 -5.59625,5.85596 -1.63618,2.13224 -5.8106,6.6732 -9.27647,10.09103 -3.87783,3.82407 -6.90345,7.28571 -7.86639,9 -1.06281,1.89208 -4.72778,5.9136 -11.42434,12.53577 -6.25434,6.18486 -11.20253,11.57828 -13.53239,14.75 -2.02007,2.75 -4.71769,6.125 -5.9947,7.5 -1.27701,1.375 -3.23445,3.85 -4.34986,5.5 -2.52555,3.73595 -4.49274,5.57146 -8.58511,8.0104 -1.76355,1.05103 -4.68855,3.28482 -6.5,4.96397 -1.81144,1.67914 -4.94711,4.49605 -6.96814,6.25978 -2.17067,1.89432 -4.28828,4.29416 -5.17401,5.86357 -1.87247,3.31784 -3.30894,4.46036 -6.85518,5.45233 -1.53791,0.43019 -5.72121,2.20886 -9.29621,3.9526 -5.2456,2.5586 -7.0307,3.716 -9.25,5.9974 -3.32194,3.41495 -4.17641,3.8907 -9.3681,5.21625 -2.76888,0.707 -7.4833,2.77045 -14.92352,6.53195 -5.9818,3.02415 -11.23204,5.80955 -11.66719,6.1898 -1.33708,1.16835 -4.02326,2.36685 -8.7576,3.90735 -4.77929,1.55515 -4.13972,1.49175 -28.78359,2.85405 -21.12608,1.16785 -21.9337,1.16375 -25.51369,-0.1296 z"
     id="path1134"
     inkscape:connector-curvature="0" />
</svg>
