<?xml version="1.0" encoding="UTF-8" standalone="no"?>
<!-- Created with Inkscape (http://www.inkscape.org/) -->

<svg
   xmlns:dc="http://purl.org/dc/elements/1.1/"
   xmlns:cc="http://creativecommons.org/ns#"
   xmlns:rdf="http://www.w3.org/1999/02/22-rdf-syntax-ns#"
   xmlns:svg="http://www.w3.org/2000/svg"
   xmlns="http://www.w3.org/2000/svg"
   xmlns:sodipodi="http://sodipodi.sourceforge.net/DTD/sodipodi-0.dtd"
   xmlns:inkscape="http://www.inkscape.org/namespaces/inkscape"
   version="1.1"
   id="svg4631"
   width="1000"
   height="1000"
   viewBox="0 0 1000 1000"
   sodipodi:docname="Saida_lettre_g_bdc.svg"
   inkscape:version="0.92.2 5c3e80d, 2017-08-06">
  <metadata
     id="metadata4637">
    <rdf:RDF>
      <cc:Work
         rdf:about="">
        <dc:format>image/svg+xml</dc:format>
        <dc:type
           rdf:resource="http://purl.org/dc/dcmitype/StillImage" />
        <dc:title></dc:title>
      </cc:Work>
    </rdf:RDF>
  </metadata>
  <defs
     id="defs4635" />
  <sodipodi:namedview
     pagecolor="#ffffff"
     bordercolor="#666666"
     borderopacity="1"
     objecttolerance="10"
     gridtolerance="10"
     guidetolerance="10"
     inkscape:pageopacity="0"
     inkscape:pageshadow="2"
     inkscape:window-width="1025"
     inkscape:window-height="480"
     id="namedview4633"
     showgrid="false"
     inkscape:zoom="0.19666667"
     inkscape:cx="501.5"
     inkscape:cy="600"
     inkscape:window-x="0"
     inkscape:window-y="0"
     inkscape:window-maximized="0"
     inkscape:current-layer="svg4631" />
  <path
     style="fill:#000000;stroke-width:0.5"
     d="m 442.22882,738.81909 c -1.5125,-0.27325 -6.6875,-0.5294 -11.5,-0.56925 -8.57575,-0.0711 -8.82468,-0.10345 -12.5,-1.627 -2.07888,-0.8618 -5.21781,-1.70825 -7.04377,-1.89945 -1.81819,-0.1904 -4.50615,-0.9137 -6,-1.61455 -1.48843,-0.6983 -4.1323,-1.45245 -5.87527,-1.6759 -2.37013,-0.3038 -4.87211,-1.2428 -9.92465,-3.7246 -6.75562,-3.3184 -6.75562,-3.3184 -10.08272,-2.99055 -5.53076,0.54495 -7.69076,-0.42045 -11.69674,-5.22785 -1.33747,-1.60505 -1.44791,-1.6396 -4.25,-1.3303 -3.63559,0.40135 -5.70004,-0.57225 -7.88589,-3.71895 -1.35897,-1.95635 -2.73288,-2.8785 -10.52696,-7.06555 -4.9302,-2.64855 -10.18464,-5.7762 -11.67654,-6.9503 -1.49189,-1.1741 -3.66258,-2.42065 -4.82376,-2.7701 -3.17277,-0.95485 -4.8501,-1.94595 -8.05344,-4.7585 -1.60065,-1.40535 -4.14776,-3.18655 -5.66026,-3.95815 -3.24641,-1.65615 -4.46304,-2.92971 -7.77543,-8.13929 -1.36101,-2.14054 -3.45042,-5.26154 -4.64312,-6.93555 -1.1927,-1.67402 -2.46805,-3.89257 -2.83411,-4.93011 -0.36608,-1.03755 -1.52374,-3.64634 -2.5726,-5.79731 -1.86643,-3.82762 -1.9075,-4.0336 -1.92936,-9.678 -0.0123,-3.17192 -0.32753,-7.5288 -0.70056,-9.68194 -0.53582,-3.09281 -0.55796,-4.64302 -0.10548,-7.38292 0.88614,-5.36577 2.48178,-9.62516 4.53787,-12.11331 1.02848,-1.2446 2.10976,-2.89878 2.40284,-3.67594 1.09021,-2.89092 4.12005,-12.63922 4.12274,-13.26465 0.0125,-2.92424 1.28244,-4.77928 7.3972,-10.80594 3.46366,-3.41376 7.54687,-7.11868 9.07379,-8.23316 1.52692,-1.11447 4.46372,-3.62307 6.52622,-5.57467 2.44983,-2.31809 5.2009,-4.30228 7.93474,-5.72287 2.30161,-1.19599 5.62539,-3.39666 7.38617,-4.89038 1.76078,-1.49371 4.49014,-3.47452 6.06525,-4.4018 1.57511,-0.92727 5.08529,-3.56101 7.80038,-5.85275 2.7151,-2.29175 6.60681,-5.30466 8.64825,-6.69537 2.04411,-1.39254 4.68101,-3.76358 5.86919,-5.27745 2.18236,-2.78054 2.48373,-2.97207 11.29602,-7.17891 2.0625,-0.9846 5.325,-2.75789 7.25,-3.94066 5.41591,-3.32765 10.63381,-6.28879 14.82734,-8.41443 2.10504,-1.06702 4.15909,-2.43953 4.56457,-3.05001 1.84024,-2.77068 4.80844,-5.13265 8.7223,-6.94086 2.2897,-1.05784 6.91319,-3.79997 10.27443,-6.09363 8.67276,-5.91813 18.62541,-11.63373 22.65963,-13.01293 1.89845,-0.64903 6.93923,-3.04557 11.20173,-5.32564 4.2625,-2.28007 9.50633,-5.04538 11.65295,-6.14513 2.59901,-1.33152 4.14419,-2.46604 4.625,-3.39584 0.93123,-1.8008 0.935,-7.47817 0.008,-12.74283 -0.39172,-2.22578 -0.5955,-4.92578 -0.45283,-6 0.27745,-2.08924 -1.48529,-7.87434 -4.32032,-14.17868 -0.80987,-1.80094 -1.72725,-4.28694 -2.03862,-5.52444 -0.31137,-1.2375 -0.97954,-2.92566 -1.48482,-3.75147 -0.50528,-0.8258 -1.39485,-3.27833 -1.97684,-5.45005 -0.58198,-2.17172 -1.29829,-4.39731 -1.59181,-4.94576 -0.29351,-0.54844 -0.5722,-2.7167 -0.61929,-4.81835 -0.0695,-3.10386 -0.35,-4.33398 -1.49397,-6.55278 -2.45462,-4.7609 -4.38333,-7.48146 -5.50313,-7.76251 -1.41826,-0.35597 -4.78906,0.4159 -11.55479,2.64589 -5.2043,1.71535 -5.87634,1.81589 -12.5,1.87014 -6.28363,0.0515 -7.28143,0.18309 -9.75,1.28612 -3.07561,1.37427 -2.63412,1.35551 -21.25,0.90305 -10.26552,-0.2495 -12.02727,-0.41938 -16.41195,-1.58247 -2.70159,-0.71663 -6.86409,-2.19266 -9.25,-3.28007 -2.38593,-1.08741 -5.77729,-2.33745 -7.53638,-2.77787 -3.29103,-0.82396 -7.6807,-3.53638 -11.89129,-7.34775 -1.14929,-1.04032 -4.33815,-3.01986 -7.08636,-4.39897 -5.94018,-2.98092 -9.61557,-6.35781 -11.43591,-10.50708 -0.67081,-1.52904 -3.6138,-7.56543 -6.53998,-13.4142 -5.32035,-10.63413 -5.32035,-10.63413 -5.17551,-14.375 0.29666,-7.66179 0.21869,-9.04538 -0.63836,-11.32749 -0.82795,-2.20461 -0.83003,-2.50003 -0.0368,-5.22865 0.46241,-1.59061 1.3834,-3.9629 2.04665,-5.27175 0.84893,-1.6753 1.20589,-3.21103 1.20589,-5.18805 0,-1.54457 0.47075,-4.6458 1.04609,-6.89162 0.57534,-2.24582 1.56573,-6.58175 2.20086,-9.63539 1.51644,-7.29093 2.81184,-9.86663 8.23731,-16.37841 2.4885,-2.98677 4.65504,-6.02427 4.81454,-6.75 2.08016,-9.46493 3.21494,-11.59091 9.79485,-18.35033 5.74019,-5.89678 6.76867,-7.61156 10.92736,-18.21918 1.56383,-3.98886 1.9828,-4.55721 6.81889,-9.25 4.11802,-3.99598 5.4924,-5.70281 6.84442,-8.5 0.93044,-1.925 2.11442,-3.87867 2.63105,-4.34149 0.51663,-0.46282 2.95046,-1.76625 5.40852,-2.8965 3.89678,-1.7918 5.14525,-2.71727 9.74765,-7.22579 5.47653,-5.36481 7.01025,-6.42308 10.12591,-6.98688 2.58069,-0.467 9.55758,0.48496 14.76458,2.01456 2.41339,0.70895 6.41298,1.46546 8.88797,1.68113 5.18428,0.45177 11.16877,1.68224 13.45263,2.766 0.86741,0.41161 2.69541,1.67442 4.06223,2.80624 1.36683,1.13182 3.78317,2.94099 5.36966,4.02038 5.48555,3.7322 6.66188,6.87276 7.45833,19.91235 0.69628,11.39936 0.64236,12.1735 -1.10964,15.93114 -1.60551,3.44345 -1.9101,6.63744 -0.91734,9.61925 0.52741,1.58407 4.76889,7.71039 8.16299,11.79045 0.81336,0.97775 2.32642,2.31278 3.36235,2.96673 2.38679,1.50672 3.30035,2.91361 4.24774,6.54156 0.55431,2.12271 1.33318,3.51573 2.9057,5.19687 3.39423,3.62871 3.87799,4.95065 4.28303,11.704 0.19793,3.3 0.72237,7.49626 1.16542,9.32501 1.08975,4.49802 1.13745,13.33634 0.0914,16.92499 -0.4409,1.5125 -1.04718,5.99509 -1.34732,9.96131 -0.44965,5.94212 -0.40294,8.75813 0.2654,16 0.4461,4.83378 0.90667,9.82999 1.02349,11.10269 0.11854,1.29143 0.98492,3.83238 1.96055,5.75 0.96146,1.8898 2.35725,5.911 3.10172,8.936 0.74448,3.025 2.19943,7.3 3.23321,9.5 1.03379,2.2 2.14207,5.0125 2.46284,6.25 0.32078,1.2375 1.6678,4.1625 2.99337,6.5 3.82019,6.73647 4.38774,8.04413 6.21712,14.32456 0.94929,3.25899 2.64709,8.14883 3.77288,10.8663 1.12578,2.71748 2.59037,7.08122 3.25465,9.69721 1.62325,6.39261 1.6536,6.41676 7.12511,5.67158 3.29388,-0.4486 5.4098,-1.09408 8.40253,-2.56325 2.19999,-1.08001 5.10843,-2.20586 6.46317,-2.5019 1.35474,-0.29604 4.31144,-1.54574 6.57043,-2.77712 2.25898,-1.23137 5.21308,-2.56726 6.56465,-2.96863 1.97574,-0.58674 3.01193,-1.35748 5.28651,-3.93226 2.00146,-2.26561 3.52438,-3.47514 5.20575,-4.13449 1.30716,-0.5126 5.95263,-2.68325 10.32327,-4.82367 4.37064,-2.14042 9.66553,-4.36189 11.76642,-4.93659 2.25004,-0.6155 4.58535,-1.64934 5.68265,-2.51572 1.02457,-0.80894 3.16207,-1.99176 4.75,-2.62849 1.58793,-0.63672 4.34965,-1.83033 6.13715,-2.65247 1.7875,-0.82214 4.29317,-1.87045 5.56816,-2.32958 1.27499,-0.45912 3.29999,-1.58432 4.5,-2.50042 1.20001,-0.91611 3.27689,-2.07288 4.6153,-2.57061 1.33839,-0.49773 3.64146,-2.009 5.1179,-3.35839 1.92223,-1.75681 3.52509,-2.70796 5.64508,-3.34984 1.62834,-0.49302 5.40028,-2.36566 8.38209,-4.16141 3.18085,-1.91562 6.66133,-3.5874 8.42147,-4.04508 4.80742,-1.25008 11.22289,-3.73253 15,-5.80423 1.925,-1.05584 4.85,-2.30467 6.5,-2.77519 4.48284,-1.27833 5.5216,-1.96114 8.23379,-5.41234 2.32135,-2.95387 2.84814,-3.32103 8.32259,-5.80077 5.84438,-2.64731 5.84438,-2.64731 10.23922,-2.39672 8.26284,0.47112 9.85124,2.21337 10.51582,11.5343 0.76445,10.72162 -0.59738,15.72405 -5.94471,21.83685 -1.78092,2.03586 -3.30828,3.13167 -6.35551,4.55979 -2.26728,1.06258 -5.00882,2.8359 -6.30582,4.0788 -1.26204,1.20941 -3.88496,3.46783 -5.82871,5.01872 -1.94376,1.55088 -4.38805,3.86193 -5.43176,5.13564 -2.29733,2.80359 -6.51042,5.73509 -11.63397,8.09502 -2.09602,0.96543 -5.38594,2.847 -7.31094,4.18126 -3.04091,2.10772 -4.15585,2.55932 -8.5,3.44287 -4.13567,0.84115 -5.56182,1.39151 -8.25,3.18378 -5.13583,3.42417 -12.89107,7.52254 -18.02813,9.52722 -9.59781,3.74544 -10.69001,4.32242 -15.31826,8.09218 -1.49331,1.21632 -4.27653,2.99781 -6.18492,3.95886 -1.90839,0.96105 -4.71909,2.54652 -6.24599,3.52327 -1.52691,0.97675 -4.28291,2.33953 -6.12445,3.02839 -1.84154,0.68886 -5.03575,2.21869 -7.09825,3.39963 -2.0625,1.18093 -6.42802,3.55508 -9.70115,5.27589 -3.27313,1.72081 -10.46082,5.71181 -15.97265,8.86889 -5.51183,3.15708 -11.90386,6.63445 -14.20452,7.72749 -4.80755,2.28407 -5.8212,3.52553 -6.316,7.73544 -0.18405,1.56598 -0.97571,4.00917 -1.81498,5.60134 -2.2205,4.21245 -2.06254,5.74839 1.49882,14.57389 0.83952,2.08044 1.22522,4.49398 1.58413,9.91279 0.29556,4.46227 0.92011,8.89226 1.65655,11.75 0.65017,2.52297 1.44748,6.36549 1.77181,8.53893 0.32433,2.17345 1.27363,5.6598 2.10956,7.74744 1.45574,3.63554 1.50611,4.00865 1.19364,8.84185 -0.25248,3.9052 -0.13944,5.77112 0.49994,8.25256 0.65076,2.52564 0.75979,4.45874 0.51349,9.10461 -0.25905,4.88625 -0.17083,6.21589 0.51416,7.75 0.98814,2.21306 1.21795,6.09792 1.36659,23.10182 0.0625,7.14738 0.41304,15.10309 0.79778,18.10497 0.5473,4.27024 0.5691,6.2959 0.10761,10 -0.31829,2.55477 -0.71658,6.22003 -0.88508,8.14503 -0.16851,1.925 -0.62437,5.03346 -1.01304,6.90769 -0.38864,1.87423 -0.70664,4.38543 -0.70664,5.58045 0,1.19502 -0.46443,3.59906 -1.03208,5.34231 -0.73374,2.25335 -1.15245,5.3779 -1.44852,10.80925 -0.49598,9.09865 -1.40885,11.59575 -5.50038,15.04575 -2.16361,1.8244 -2.62354,2.5577 -3.54521,5.65245 -1.01235,3.3993 -1.30687,3.80465 -6.67841,9.19115 -5.78134,5.79745 -6.20905,6.05825 -11.37908,6.93855 -1.00852,0.1717 -3.59602,1.46495 -5.75,2.8739 -6.08164,3.978 -8.38395,4.89795 -12.27227,4.9036 -2.21325,0.005 -4.68188,0.43425 -7.25,1.26585 -4.78789,1.55035 -11.02309,2.0897 -15.03468,1.30045 -2.65571,-0.52245 -3.49343,-0.4529 -8.15947,0.67755 -5.59431,1.3553 -11.71044,1.58605 -16.9499,0.63945 z m 26.54674,-37.3818 c 1.53822,-0.2287 5.02572,-1.4632 7.75,-2.7433 2.74798,-1.29125 6.57906,-2.6434 8.60495,-3.0371 4.48532,-0.87155 4.88621,-1.08185 7.5289,-3.9488 2.71514,-2.9456 3.99967,-5.98745 4.62104,-10.94295 0.54353,-4.33479 1.70765,-9.51646 3.43894,-15.30729 0.73629,-2.46278 1.09788,-4.92385 1.06272,-7.23335 -0.0449,-2.95416 0.18817,-4.00114 1.49372,-6.70811 1.19614,-2.48012 1.48095,-3.6179 1.25578,-5.01665 -0.16017,-0.99498 -0.61309,-5.97155 -1.00648,-11.05905 -0.3934,-5.0875 -1.07562,-10.91787 -1.51603,-12.95638 -0.65399,-3.02701 -0.73938,-5.41601 -0.46589,-13.03362 0.33487,-9.32725 0.33487,-9.32725 -0.98977,-11.58755 -0.94968,-1.62052 -1.32325,-2.95551 -1.3198,-4.71638 0.008,-4.23258 -1.05574,-12.32374 -2.05042,-15.59157 -0.52492,-1.72453 -0.9544,-4.11428 -0.9544,-5.31058 0,-1.19629 -0.67359,-5.60091 -1.49688,-9.78804 -1.12571,-5.72522 -1.46665,-8.74776 -1.375,-12.18942 0.12188,-4.57646 0.12188,-4.57646 -2.27467,-8.32361 -1.31809,-2.06094 -2.74462,-4.94453 -3.17006,-6.40799 -0.42544,-1.46346 -1.07974,-2.77834 -1.454,-2.92196 -0.37425,-0.14361 -1.43511,0.31448 -2.35745,1.01799 -2.70062,2.05986 -6.15787,3.35079 -10.86998,4.05882 -4.23487,0.63631 -4.73632,0.85891 -12.95121,5.74908 -4.70017,2.79793 -8.99689,5.66065 -9.54826,6.36161 -0.55137,0.70095 -1.00743,1.97536 -1.01347,2.83203 -0.0168,2.38824 -1.73583,5.66378 -3.58495,6.83112 -1.4467,0.91329 -2.09287,0.99947 -5.15407,0.6874 -1.925,-0.19624 -4.33765,-0.34684 -5.36144,-0.33466 -2.56131,0.0305 -14.43465,5.64097 -20.30631,9.59531 -4.77527,3.21596 -5.03324,3.54225 -6.81869,8.62453 -0.45332,1.29036 -1.28184,2.92789 -1.84115,3.63895 -1.04219,1.32493 -4.34694,3.26492 -5.56174,3.26492 -2.07772,0 -6.17443,1.76677 -8.03316,3.46442 -1.14263,1.04362 -3.36782,2.78642 -4.94487,3.87289 -3.037,2.09226 -7.46741,6.72651 -9.26789,9.69429 -0.70332,1.15929 -1.9553,2.19116 -3.58434,2.95416 -2.34164,1.09676 -2.58821,1.39427 -3.81391,4.6019 -2.2663,5.93084 -5.11105,7.65057 -10.73423,6.48912 -4.81562,-0.99465 -5.73875,-0.82117 -7.53692,1.41641 -0.88097,1.09625 -3.01539,2.87952 -4.74315,3.96283 -2.86314,1.79518 -3.21073,2.20314 -3.92424,4.60581 -0.43057,1.44989 -1.6727,4.11037 -2.76028,5.91217 -2.84407,4.71181 -3.73497,8.51628 -3.75282,16.026 -0.0149,6.25 -0.0149,6.25 1.90074,9.65385 2.53317,4.5012 4.22877,6.3576 7.36702,8.06565 2.41706,1.31552 2.86808,1.39337 6.36227,1.098 3.7608,-0.3179 3.7608,-0.3179 7.05795,3.10579 2.80964,2.91746 3.85163,3.63067 7.04716,4.82358 2.0625,0.76995 4.65,1.91202 5.75,2.53795 2.44896,1.39351 6.73997,2.21518 11.5683,2.21518 4.54909,0 5.8004,0.56825 7.67124,3.4837 2.34428,3.65325 3.36969,4.3112 9.76046,6.26265 4.65859,1.4225 7.02188,1.86435 10.57079,1.9762 3.80124,0.1198 5.56907,0.48565 10.5,2.17305 8.95472,3.0644 13.88031,4.4551 20.71767,5.8496 3.41634,0.69675 7.56154,1.70695 9.21154,2.2448 3.12146,1.01755 8.48163,1.01985 15.29674,0.006 z m -65.82268,-321.2466 c 1.89437,-1.94917 2.46233,-2.25 4.24797,-2.25 1.19736,0 3.07631,0.51439 4.48331,1.22737 4.59086,2.32636 6.0904,2.45873 14.33033,1.26493 7.6304,-1.10547 9.1774,-1.66443 10.96009,-3.96004 0.54766,-0.70525 1.86487,-2.23287 2.92711,-3.39471 1.06224,-1.16185 1.93902,-2.62435 1.94839,-3.25 0.0457,-3.04626 -0.81151,-8.90207 -1.63022,-11.13755 -0.50358,-1.375 -1.36296,-3.9625 -1.90973,-5.75 -0.54677,-1.7875 -2.00877,-5.84407 -3.24889,-9.0146 -1.24011,-3.17052 -2.73563,-7.67052 -3.32337,-10 -0.58775,-2.32947 -1.70939,-6.2604 -2.49253,-8.7354 -0.78315,-2.475 -2.12585,-7.79731 -2.98379,-11.82734 -0.85793,-4.03004 -2.12599,-8.98004 -2.8179,-11 -0.69192,-2.01997 -1.5657,-5.98755 -1.94174,-8.81687 -0.79705,-5.99693 -1.85414,-7.82968 -5.5471,-9.61742 -2.64085,-1.27841 -5.67091,-1.12805 -8.70431,0.43196 -2.72551,1.40166 -11.16527,11.14107 -13.24821,15.28833 -2.2096,4.39943 -3.25098,10.22586 -2.35953,13.20127 1.27386,4.25175 0.17726,6.96568 -3.69833,9.15293 -3.9014,2.20182 -4.02331,2.44377 -2.97534,5.90502 1.20688,3.98604 0.77836,5.87818 -1.99661,8.81592 -1.46189,1.54765 -2.32891,2.97379 -2.52937,4.16052 -0.16776,0.99313 -0.75362,3.71818 -1.30192,6.05568 -2.04998,8.7395 -1.68918,16.706 1.02801,22.69864 1.30115,2.86963 3.58211,5.30136 4.97268,5.30136 0.27977,0 2.04504,1.04513 3.92281,2.32251 3.54576,2.41204 9.25616,5.14047 10.80778,5.16397 0.49151,0.007 1.87769,-0.99898 3.08041,-2.23648 z"
     id="path4641"
     inkscape:connector-curvature="0" />
</svg>
