<?xml version="1.0" encoding="UTF-8" standalone="no"?>
<!-- Created with Inkscape (http://www.inkscape.org/) -->

<svg
   xmlns:dc="http://purl.org/dc/elements/1.1/"
   xmlns:cc="http://creativecommons.org/ns#"
   xmlns:rdf="http://www.w3.org/1999/02/22-rdf-syntax-ns#"
   xmlns:svg="http://www.w3.org/2000/svg"
   xmlns="http://www.w3.org/2000/svg"
   xmlns:sodipodi="http://sodipodi.sourceforge.net/DTD/sodipodi-0.dtd"
   xmlns:inkscape="http://www.inkscape.org/namespaces/inkscape"
   version="1.1"
   id="svg1206"
   width="1000"
   height="1000"
   viewBox="0 0 1000 1000"
   sodipodi:docname="Saida_lettre_s_bdc.svg"
   inkscape:version="0.92.2 5c3e80d, 2017-08-06">
  <metadata
     id="metadata1212">
    <rdf:RDF>
      <cc:Work
         rdf:about="">
        <dc:format>image/svg+xml</dc:format>
        <dc:type
           rdf:resource="http://purl.org/dc/dcmitype/StillImage" />
        <dc:title></dc:title>
      </cc:Work>
    </rdf:RDF>
  </metadata>
  <defs
     id="defs1210" />
  <sodipodi:namedview
     pagecolor="#ffffff"
     bordercolor="#666666"
     borderopacity="1"
     objecttolerance="10"
     gridtolerance="10"
     guidetolerance="10"
     inkscape:pageopacity="0"
     inkscape:pageshadow="2"
     inkscape:window-width="1025"
     inkscape:window-height="480"
     id="namedview1208"
     showgrid="false"
     inkscape:zoom="0.069532167"
     inkscape:cx="689"
     inkscape:cy="600"
     inkscape:window-x="0"
     inkscape:window-y="0"
     inkscape:window-maximized="0"
     inkscape:current-layer="svg1206" />
  <path
     style="fill:#000000;stroke-width:0.5"
     d="m 539.1865,696.29706 c -2.77263,-0.38344 -7.42536,-1.71182 -9.22001,-2.63237 -2.40877,-1.23556 -3.68887,-2.72175 -5.30695,-6.16132 -1.08564,-2.30778 -1.78475,-3.1114 -3.41888,-3.93002 -3.23231,-1.61923 -4.7612,-3.36034 -5.62436,-6.40512 -0.57067,-2.01303 -1.43304,-3.44305 -3.17438,-5.26389 -1.31496,-1.375 -2.64162,-2.99146 -2.94813,-3.59213 -1.00711,-1.97364 -0.62195,-4.46231 1.23757,-7.99654 1.18671,-2.25546 1.96271,-4.58966 2.29023,-6.88894 0.27244,-1.91268 0.81006,-4.08618 1.1947,-4.82999 1.10288,-2.13275 4.01662,-4.22243 7.25445,-5.20277 3.49502,-1.0582 3.81918,-1.37811 5.46576,-5.39398 1.6684,-4.0691 4.14652,-5.97632 9.23667,-7.10877 2.58645,-0.57543 4.65287,-1.43914 6.64737,-2.77841 3.35192,-2.25075 6.07846,-2.96592 16.86596,-4.42389 6.27764,-0.84845 8.08915,-0.92427 11.11479,-0.46523 4.94007,0.7495 8.33535,0.22316 12.71176,-1.97056 3.67345,-1.84135 3.67345,-1.84135 11.46687,-1.69744 9.46843,0.17483 13.57362,-0.4175 17.63773,-2.54492 3.36148,-1.75962 4.89339,-1.8881 13.33318,-1.11826 7.08452,0.64622 14.78097,-1.76777 21.48762,-6.73961 4.72105,-3.49986 6.47355,-4.13192 11.28245,-4.06911 2.21895,0.029 4.71465,-0.14239 5.5461,-0.38084 2.18665,-0.62713 10.6909,-7.08592 13.0318,-9.89739 3.31405,-3.98029 3.7665,-5.26957 4.1763,-11.90122 0.20395,-3.3 0.65345,-7.24997 0.9989,-8.7777 0.5824,-2.5755 0.52685,-3.13966 -0.76295,-7.75 -0.98655,-3.52649 -1.8029,-5.40846 -2.80745,-6.4723 -0.77905,-0.825 -1.7811,-2.37431 -2.22685,-3.44291 -0.74595,-1.78833 -0.74645,-2.23046 -0.006,-5.5574 0.7651,-3.43912 0.75505,-3.83926 -0.20695,-8.2471 -0.75685,-3.46766 -1.58305,-5.59069 -3.28565,-8.4426 -2.58075,-4.32277 -3.5277,-7.15569 -4.2187,-12.6205 -0.265,-2.09577 -1.1735,-5.55181 -2.01895,-7.68008 -0.84545,-2.12827 -2.2145,-6.89892 -3.0423,-10.60144 -0.82785,-3.70253 -1.9724,-7.89649 -2.5434,-9.31992 -0.57105,-1.42343 -1.55105,-4.22513 -2.17785,-6.22601 -0.6962,-2.22237 -1.95185,-4.71374 -3.22695,-6.40263 -2.95695,-3.9164 -3.51275,-5.54731 -3.51655,-10.31835 -0.005,-4.71538 -0.2699,-5.28 -4.32215,-9.16922 -1.7392,-1.66921 -2.7823,-3.17089 -3.2125,-4.62466 -0.5777,-1.95245 -0.53105,-2.39457 0.5013,-4.75 0.62605,-1.42845 1.37755,-3.18351 1.6699,-3.90014 0.85655,-2.0994 -1.77075,-13.46996 -3.85805,-16.69704 -2.1012,-3.24863 -2.53085,-4.73828 -3.53315,-12.25 -0.85945,-6.44107 -5.10205,-22.66811 -6.8342,-26.13936 -0.51855,-1.03915 -3.3537,-4.48697 -6.30034,-7.66183 -5.29244,-5.70235 -5.43163,-5.8082 -11.45939,-8.71392 -5.37416,-2.59065 -6.65622,-3.46949 -10.75,-7.36907 -7.44077,-7.0878 -14.08289,-10.17725 -26.57707,-12.36179 -8.3748,-1.46429 -17.75121,-1.67783 -22.57105,-0.51403 -3.70936,0.89566 -6.22414,0.93273 -10.74009,0.15833 -2.67328,-0.45842 -4.30233,-0.46571 -6.84227,-0.0306 -4.53402,0.77665 -5.60957,1.90196 -6.41272,6.70941 -0.33749,2.02009 -0.91708,4.74165 -1.28797,6.0479 -0.57309,2.01836 -0.56672,2.73163 0.0424,4.75 0.39424,1.30625 0.72914,4.2875 0.74421,6.625 0.0243,3.76615 0.19242,4.52864 1.4769,6.69753 2.02797,3.42427 2.03418,6.38519 0.0195,9.27501 -3.67135,5.26605 -3.51672,4.62045 -2.05269,8.5702 0.89863,2.42437 1.46105,5.31011 1.80942,9.28405 0.34625,3.94963 0.85661,6.57859 1.61997,8.34473 1.59278,3.68512 1.46591,6.11563 -0.48286,9.25055 -0.88339,1.42108 -1.93179,3.53871 -2.32977,4.70585 -0.39799,1.16714 -1.20728,3.34544 -1.79843,4.84067 -0.59115,1.49522 -1.51477,4.91316 -2.05248,7.59543 -0.65981,3.29132 -1.71815,6.40849 -3.2553,9.58798 -2.27764,4.71114 -2.27764,4.71114 -1.5421,8.26493 1.06577,5.14938 0.58718,6.70546 -3.10122,10.08307 -2.37439,2.17432 -3.41486,3.63968 -4.97035,7 -1.08203,2.3375 -3.03455,5.48029 -4.33894,6.98399 -1.54841,1.785 -3.73172,5.52553 -6.29001,10.77631 -2.15512,4.42328 -4.39544,8.48048 -4.9785,9.01601 -0.58305,0.53553 -2.55859,1.98619 -4.39008,3.22369 -5.06178,3.42012 -8.37145,8.15428 -9.56087,13.67584 -0.73347,3.40498 -2.69376,5.86945 -7.01778,8.82276 -3.05218,2.08464 -7.31589,6.96841 -10.01801,11.47492 -1.72133,2.87078 -5.22828,6.89259 -14.37477,16.48517 -4.68157,4.90989 -7.77778,7.1006 -16.04868,11.35519 -2.97347,1.52956 -4.78841,3.07008 -10.2627,8.71097 -3.65772,3.76904 -7.64342,7.47927 -8.85712,8.24495 -12.54732,7.91576 -14.39696,9.31874 -16.45998,12.4852 -3.23723,4.96868 -6.48583,6.68028 -18.42358,9.70689 -7.55661,1.91585 -8.23038,2.25727 -11.14487,5.64733 -2.793,3.24876 -4.5416,3.89078 -10.59691,3.89078 -5.57629,0 -10.26499,1.6636 -18.83139,6.68158 -8.90403,5.21576 -8.22284,5.01808 -26.20175,7.60335 -5.71428,0.82169 -9.38734,2.32827 -12.6255,5.17861 -3.33493,2.93552 -4.86537,3.29475 -9.64094,2.26293 -3.50515,-0.75733 -4.92396,-0.7905 -12.43331,-0.29068 -4.66238,0.31032 -10.57763,0.56422 -13.14523,0.56422 -4.46895,0 -4.85062,0.0894 -8.93591,2.09443 -5.60965,2.75308 -8.54959,3.02463 -13.08823,1.20889 -4.22782,-1.69139 -7.30466,-1.69064 -11.46814,0.003 -2.05979,0.83779 -4.82473,1.45498 -7.7112,1.7213 -2.475,0.22834 -6.0914,0.76028 -8.03643,1.18208 -2.71119,0.58795 -4.22799,0.65366 -6.5,0.28161 -1.62997,-0.26692 -4.76357,-0.48745 -6.96357,-0.49008 -4.89699,-0.006 -6.85992,-0.99206 -8.25595,-4.14801 -0.87985,-1.98906 -0.93191,-3.62101 -0.84098,-26.36167 0.0938,-23.4615 0.12997,-24.29759 1.12396,-25.98964 0.56487,-0.96157 1.79417,-2.26527 2.73178,-2.89713 1.59998,-1.07823 2.13599,-1.14226 8.72296,-1.04191 5.37743,0.0819 7.65315,-0.0883 9.73398,-0.72788 3.35708,-1.03192 7.47841,-1.06526 11.66488,-0.0943 3.59217,0.83308 4.37642,0.69118 9.43473,-1.70702 3.28506,-1.55749 5.0967,-1.84589 10.18464,-1.62135 1.375,0.0607 5.27713,-0.0157 8.6714,-0.16971 6.17141,-0.28003 6.17141,-0.28003 8.75,-2.2264 3.85808,-2.91214 4.86857,-3.18464 11.49709,-3.10041 7.03845,0.0894 12.25226,-0.85634 16.47671,-2.98884 1.6287,-0.82216 4.56856,-1.90639 6.53303,-2.4094 1.96447,-0.503 4.90091,-1.30142 6.52541,-1.77427 2.32611,-0.67706 3.89109,-0.78638 7.36598,-0.51454 4.41236,0.34517 4.41236,0.34517 7.04637,-2.12286 3.39544,-3.18149 3.99613,-3.46739 8.44602,-4.01984 2.60356,-0.32323 4.78223,-0.99837 7.27868,-2.25557 2.64358,-1.33128 4.83323,-1.98425 8.48611,-2.53062 5.82604,-0.87142 11.41621,-2.91446 21.85926,-7.98892 4.16017,-2.02149 8.68894,-3.9656 10.06394,-4.32024 4.59159,-1.18428 8.83896,-3.42308 11.73532,-6.18573 1.54355,-1.4723 4.06053,-3.27019 5.59329,-3.9953 2.42675,-1.14803 2.99488,-1.70869 4.39684,-4.33903 1.16072,-2.17774 2.5079,-3.7263 4.82778,-5.54942 1.84204,-1.4476 3.78478,-3.52114 4.54393,-4.84986 0.72938,-1.27661 2.48314,-3.7836 3.89727,-5.5711 6.10908,-7.7221 7.96159,-11.06851 8.67363,-15.66819 0.64928,-4.1943 1.87867,-5.93176 6.75905,-9.55234 4.52675,-3.35823 5.00345,-3.92988 6.07027,-7.27947 0.71445,-2.24321 1.5134,-3.35031 4.3353,-6.00743 3.4368,-3.23611 3.46263,-3.28028 3.94773,-6.75 0.86575,-6.19245 2.54078,-9.98483 6.83599,-15.47715 3.7072,-4.74042 4.69953,-6.86935 5.17401,-11.10026 0.45112,-4.02267 1.17903,-5.7071 4.01872,-9.29957 1.35305,-1.71174 1.94087,-2.94774 1.94087,-4.08103 0,-2.60083 1.18425,-5.79254 3.43627,-9.26117 3.5238,-5.4275 3.75474,-6.88337 3.37383,-21.26918 -0.33392,-12.61072 -0.65837,-15.64802 -3.39202,-31.75421 -0.81681,-4.8125 -1.78334,-10.775 -2.14786,-13.25 -0.42841,-2.90883 -1.212,-5.64918 -2.21609,-7.75 -1.83609,-3.8416 -1.97728,-6.38944 -0.55413,-10 1.25663,-3.18808 1.24504,-4.6705 -0.0586,-7.5 -1.15395,-2.50458 -2.14997,-10.33839 -2.12967,-16.75 0.025,-7.889 3.94575,-14.24146 14.4808,-23.46193 3.16222,-2.76764 5.72085,-4.38253 11.75,-7.41608 4.23912,-2.1329 9.95749,-4.63761 12.70749,-5.56601 2.75,-0.9284 6.27804,-2.161 7.84009,-2.73911 1.56205,-0.57811 4.94729,-1.31007 7.52274,-1.62658 4.9989,-0.61432 5.61231,-0.51629 12.43383,1.98709 2.56249,0.94039 3.17234,0.97891 7.28362,0.45997 4.13208,-0.52157 4.86858,-0.47315 9.31185,0.61222 4.82489,1.17858 4.82489,1.17858 11.21638,0.0503 3.51532,-0.62058 8.84486,-1.70107 11.84343,-2.40109 7.34931,-1.71573 9.93171,-1.45657 13.98757,1.40369 3.4343,2.42194 5.46839,2.65539 9.91973,1.13849 3.57257,-1.21743 8.21151,-1.20182 10.06048,0.0338 0.78083,0.52184 2.08968,2.13592 2.90853,3.58684 1.11002,1.96686 2.00372,2.86707 3.51261,3.5382 9.32066,4.1457 15.34485,7.44459 17.91343,9.80951 2.11694,1.9491 3.79589,2.94874 6.77971,4.03663 5.4258,1.97822 7.7875,3.71782 10.0065,7.37066 1.7475,2.87673 2.1315,3.19294 6.1091,5.03059 4.49565,2.07701 10.88375,6.68685 15.8504,11.4382 1.65,1.57846 5.4868,4.33564 8.5262,6.12705 7.6931,4.53427 10.2956,6.9999 12.6953,12.02781 1.0691,2.24001 2.8281,5.08231 3.9088,6.31623 2.72865,3.11539 3.1197,4.02339 3.1197,7.24348 0,1.54866 0.22985,3.24525 0.5108,3.7702 0.28095,0.52495 2.0597,2.1903 3.9528,3.70077 4.35585,3.47546 6.5364,7.40017 6.5364,11.76473 0,3.74785 1.70825,10.12228 3.6005,13.43535 2.0875,3.65492 2.40685,5.44969 1.6311,9.16712 -0.7596,3.64 -0.4642,4.69384 2.4546,8.75657 2.4285,3.3803 3.3138,6.10375 3.3138,10.19423 0,3.41323 0,3.41323 3.0374,6.81213 1.6706,1.8694 3.35705,4.00442 3.74765,4.7445 1.04495,1.97977 1.64425,7.10434 1.9311,16.51226 0.1712,5.61563 0.4905,8.91885 0.974,10.07604 0.39565,0.94687 0.991,3.0366 1.32305,4.64384 0.33205,1.60725 1.1171,3.93853 1.7446,5.18064 0.62745,1.2421 1.4119,3.2671 1.74325,4.5 0.3313,1.23289 1.9291,4.77802 3.55065,7.87806 2.8192,5.38966 2.9483,5.79736 2.9483,9.31213 0,2.06624 0.34215,4.63369 0.7814,5.86357 0.42975,1.20332 1.0086,3.42536 1.28635,4.93786 0.2777,1.5125 0.9657,4.2859 1.52885,6.1631 0.7785,2.595 0.94565,4.10498 0.6974,6.29959 -0.4035,3.56625 -0.0155,4.62135 2.96615,8.06255 3.6383,4.19934 4.56365,6.68397 5.4166,14.54408 0.47265,4.35591 1.06355,7.42645 1.63565,8.5 0.65605,1.23105 0.85725,2.55016 0.752,4.93068 -0.39565,8.94739 -0.0335,11.06748 3.45675,20.25 1.74645,4.59436 1.67045,10.08592 -0.19295,13.94293 -1.6131,3.33896 -1.57545,4.05828 0.46075,8.80707 2.0333,4.742 2.1753,8.47881 0.4767,12.54294 -0.7372,1.76388 -2.2062,5.53796 -3.2644,8.38685 -1.79825,4.84111 -3.1095,7.09595 -9.4253,16.2079 -1.4013,2.02169 -2.24355,3.971 -2.8085,6.5 -1.6878,7.55546 -3.8858,10.24622 -10.51745,12.87544 -2.15315,0.85365 -4.06185,2.19743 -6.7616,4.7603 -2.8874,2.74095 -4.3981,3.77628 -6.5,4.45459 -2.9775,0.96087 -8.22575,4.11354 -9.82505,5.90199 -0.5508,0.616 -1.27925,1.82481 -1.61875,2.68625 -1.04595,2.654 -2.97895,4.03451 -7.24465,5.17385 -4.5586,1.21758 -5.32865,1.57334 -8.04995,3.71906 -3.11045,2.45254 -4.1353,2.98244 -9.6763,5.00309 -7.21855,2.63243 -11.27505,3.73377 -15.06515,4.09018 -1.7922,0.16854 -5.8141,0.95694 -8.93755,1.752 -3.1234,0.79506 -6.8359,1.44947 -8.25,1.45424 -1.41405,0.005 -4.146,0.35931 -6.071,0.78784 -1.925,0.42854 -5.75,1.08109 -8.5,1.45011 -3.05299,0.40969 -6.26555,1.21104 -8.25,2.0579 -2.97244,1.2685 -3.89051,1.40258 -10.75,1.56996 -10.46364,0.25534 -17.69964,0.28267 -23.25,0.0878 -3.7932,-0.13316 -5.45501,0.0507 -8.25,0.91278 -3.0621,0.94447 -4.66562,1.07817 -12.81657,1.06861 -9.7275,-0.0114 -10.82739,0.0942 -16.88841,1.62225 -3.47313,0.8756 -6.79038,1.06145 -10.29502,0.57678 z"
     id="path1216"
     inkscape:connector-curvature="0" />
</svg>
