<?xml version="1.0" encoding="UTF-8" standalone="no"?>
<!-- Created with Inkscape (http://www.inkscape.org/) -->

<svg
   xmlns:dc="http://purl.org/dc/elements/1.1/"
   xmlns:cc="http://creativecommons.org/ns#"
   xmlns:rdf="http://www.w3.org/1999/02/22-rdf-syntax-ns#"
   xmlns:svg="http://www.w3.org/2000/svg"
   xmlns="http://www.w3.org/2000/svg"
   xmlns:sodipodi="http://sodipodi.sourceforge.net/DTD/sodipodi-0.dtd"
   xmlns:inkscape="http://www.inkscape.org/namespaces/inkscape"
   version="1.1"
   id="svg300"
   width="1000"
   height="1000"
   viewBox="0 0 1000 1000"
   sodipodi:docname="Saida_lettre_e3_bdc.svg"
   inkscape:version="0.92.2 5c3e80d, 2017-08-06">
  <metadata
     id="metadata306">
    <rdf:RDF>
      <cc:Work
         rdf:about="">
        <dc:format>image/svg+xml</dc:format>
        <dc:type
           rdf:resource="http://purl.org/dc/dcmitype/StillImage" />
        <dc:title></dc:title>
      </cc:Work>
    </rdf:RDF>
  </metadata>
  <defs
     id="defs304" />
  <sodipodi:namedview
     pagecolor="#ffffff"
     bordercolor="#666666"
     borderopacity="1"
     objecttolerance="10"
     gridtolerance="10"
     guidetolerance="10"
     inkscape:pageopacity="0"
     inkscape:pageshadow="2"
     inkscape:window-width="1118"
     inkscape:window-height="572"
     id="namedview302"
     showgrid="false"
     inkscape:zoom="0.26657552"
     inkscape:cx="549"
     inkscape:cy="600"
     inkscape:window-x="0"
     inkscape:window-y="0"
     inkscape:window-maximized="0"
     inkscape:current-layer="svg300" />
  <path
     style="fill:#000000;stroke-width:0.5"
     d="m 632.10493,890.70272 c -2.50617,-0.8344 -3.39599,-0.9091 -5.71683,-0.48005 -4.68061,0.86525 -6.1436,0.65025 -10.3674,-1.52355 -3.94761,-2.03165 -3.94761,-2.03165 -10.69761,-1.7149 -3.7125,0.1742 -7.95964,0.66265 -9.43808,1.08545 -3.45224,0.98725 -5.82922,0.61275 -10.42782,-1.6429 -3.86613,-1.8964 -3.50749,-1.8443 -21.6341,-3.14465 -3.59395,-0.2578 -6.49993,-0.7439 -7.75,-1.29635 -1.1,-0.48615 -3.63005,-1.06885 -5.62232,-1.29485 -1.99228,-0.22605 -4.66463,-0.87205 -5.93857,-1.43555 -2.75272,-1.2177 -4.80809,-1.2911 -7.68911,-0.2746 -3.97648,1.403 -6.24359,0.9531 -18.72169,-3.715 -2.72078,-1.0179 -3.24003,-1.0611 -6.15008,-0.512 -4.18724,0.79005 -6.07536,0.4217 -10.0619,-1.96285 -4.49351,-2.68785 -12.08879,-5.43425 -16.86608,-6.0987 -2.16402,-0.301 -4.06715,-0.6292 -4.22918,-0.72935 -0.16202,-0.1001 -2.30304,-0.421 -4.75783,-0.713 -14.13188,-1.6812 -30.72749,-5.23385 -33.72975,-7.2207 -0.98082,-0.64905 -2.8971,-1.7382 -4.2584,-2.4203 -3.64629,-1.827 -16.88808,-5.77405 -21.32247,-6.3557 -5.25021,-0.68865 -12.24786,-3.0185 -16.29352,-5.4249 -2.40673,-1.43155 -4.17809,-2.09369 -6.24776,-2.33545 -3.17897,-0.37133 -11.46862,-3.02744 -14.61646,-4.68329 -1.11194,-0.58492 -4.67555,-1.50284 -8,-2.06067 -7.63092,-1.28043 -12.60999,-3.59664 -15.08655,-7.01809 -3.55319,-4.90885 -3.58634,-4.93626 -7.31054,-6.04388 -3.65677,-1.08757 -5.10575,-1.89705 -8.49562,-4.74608 -1.0438,-0.87728 -3.1813,-2.2799 -4.75,-3.11694 -3.55952,-1.89933 -5.12278,-3.55263 -6.84149,-7.23555 -1.73595,-3.71988 -4.49434,-5.82714 -14.16908,-10.82439 -7.32427,-3.78316 -7.32427,-3.78316 -9.33294,-7.12264 -1.10476,-1.83671 -3.36656,-4.56808 -5.02621,-6.06971 -1.65965,-1.50163 -3.67171,-3.76514 -4.47123,-5.03002 -0.79952,-1.26488 -2.77685,-3.32732 -4.39406,-4.5832 -1.61722,-1.25588 -3.54267,-3.30776 -4.27878,-4.55974 -0.73611,-1.25198 -2.39089,-3.47387 -3.6773,-4.93754 -3.16139,-3.59701 -3.36283,-4.05486 -4.42451,-10.05619 -0.92515,-5.22965 -1.45258,-6.4731 -4.2142,-9.93519 -1.32918,-1.66633 -1.51053,-2.33647 -1.80513,-6.67068 -0.1944,-2.8601 -0.68806,-5.63105 -1.2147,-6.81825 -1.60652,-3.62158 -3.71893,-20.27299 -3.7289,-29.39369 -0.005,-4.61016 -0.34533,-10.47839 -0.78902,-13.60631 -1.4525,-10.23975 -1.47404,-11.85455 -0.22723,-17.03069 1.14401,-4.74933 1.14401,-4.74933 -0.43169,-7.80455 -2.40825,-4.66949 -2.0996,-7.09713 1.49463,-11.75591 3.1159,-4.0388 3.96213,-6.85881 4.24076,-14.13218 0.33548,-8.75714 0.42966,-9.1413 2.97111,-12.11869 1.23407,-1.44574 2.48994,-3.53523 2.79081,-4.6433 1.27833,-4.70783 1.64503,-5.49346 3.79766,-8.1363 1.24403,-1.52734 2.78838,-4.12047 3.4319,-5.76252 0.64351,-1.64204 1.75823,-3.75671 2.47715,-4.69927 0.71892,-0.94256 2.10785,-3.44688 3.0865,-5.56516 0.97866,-2.11829 3.27768,-6.10143 5.10893,-8.85143 1.83126,-2.75 3.95631,-6.125 4.72233,-7.5 0.76602,-1.375 2.72698,-3.7375 4.35768,-5.25 2.62876,-2.43821 3.06961,-3.13289 3.88832,-6.12706 1.15802,-4.2352 2.74649,-6.54111 6.73535,-9.77746 2.79624,-2.26872 3.53497,-3.28761 6.66913,-9.1984 1.93852,-3.65589 3.80745,-7.54708 4.15319,-8.64708 0.40259,-1.28089 1.72889,-3.0963 3.68873,-5.04907 1.68306,-1.67698 3.66967,-4.09485 4.41466,-5.37303 0.85078,-1.45968 2.24541,-2.87273 3.75,-3.79951 4.02569,-2.4797 4.56641,-2.96686 6.57355,-5.92244 2.84882,-4.19496 10.3221,-13.06455 12.86846,-15.2728 1.21569,-1.05427 2.76091,-2.85632 3.43382,-4.00455 1.75278,-2.99089 3.96817,-4.94917 8.44892,-7.46839 3.28997,-1.84972 5.10789,-3.45771 11.17291,-9.88267 3.98398,-4.22043 8.12613,-8.97307 9.20478,-10.56144 1.07864,-1.58837 2.79345,-3.51303 3.81069,-4.27702 1.01724,-0.764 3.88191,-3.31317 6.36593,-5.66484 2.48402,-2.35167 5.4164,-4.92692 6.5164,-5.72277 1.1,-0.79585 3.575,-2.93204 5.5,-4.74708 1.925,-1.81503 5.4125,-4.87922 7.75,-6.8093 13.07013,-10.79205 12.67632,-10.52881 24.95279,-16.67944 8.70593,-4.36175 12.5598,-6.58079 14.70747,-8.46847 3.6907,-3.24394 4.8384,-3.82273 9.93794,-5.01178 3.80572,-0.88738 8.10032,-2.27694 15.4018,-4.9834 1.5125,-0.56065 3.65,-1.03164 4.75,-1.04666 2.1324,-0.0291 4.36752,-0.99238 8.68282,-3.74203 3.87246,-2.46748 8.04274,-3.26197 17.16588,-3.27031 8.26191,-0.008 22.23185,-1.40346 27.36983,-2.73484 1.74431,-0.452 5.10873,-1.69184 7.47647,-2.7552 3.19876,-1.43657 5.69878,-2.13924 9.72893,-2.73447 6.47472,-0.95628 9.23054,-0.5995 13.92051,1.8022 3.01408,1.5435 3.49183,1.63042 10.65556,1.9387 6.70643,0.28861 7.80195,0.46442 10.35372,1.6616 1.90242,0.89254 4.25428,1.48081 7.05515,1.7647 5.4615,0.55358 8.61997,2.2213 11.95861,6.31431 3.48001,4.26632 7.50485,7.56956 11.32906,9.29791 2.27485,1.02812 4.36728,2.53753 6.71998,4.84755 4.43417,4.35374 6.02404,6.68762 7.34856,10.78745 0.66509,2.05866 1.88313,4.33309 3.15872,5.89822 3.67823,4.51313 4.28437,5.54683 4.61983,7.87859 0.46849,3.2565 1.34884,5.17967 4.71046,10.29028 4.11248,6.2521 6.76736,12.84242 7.44665,18.48506 0.29696,2.46678 1.30438,6.85428 2.2387,9.75 2.03046,6.29293 3.17784,15.95982 2.28659,19.26494 -0.29663,1.1 -0.72661,4.8125 -0.95553,8.25 -0.33591,5.04414 -0.85298,7.81108 -2.68,14.34117 -2.57363,9.19865 -3.45333,11.3945 -6.20705,15.49376 -3.14235,4.67778 -6.96916,11.71078 -7.84356,14.41507 -0.62686,1.93868 -1.81466,3.54605 -5.29026,7.15897 -2.46506,2.56244 -5.83591,5.65572 -7.49077,6.87397 -1.65487,1.21824 -3.00886,2.43528 -3.00886,2.70452 0,0.43409 -5.22809,5.91329 -17.90267,18.76254 -2.69415,2.73128 -4.44373,5.03083 -5.51606,7.25 -2.15082,4.4511 -2.49446,4.66385 -10.6112,6.56946 -1.0042,0.23576 -3.10637,1.56469 -4.82341,3.04921 -3.34062,2.88824 -15.50389,9.43296 -21.47261,11.55381 -1.96677,0.69885 -6.35427,2.6648 -9.75,4.36876 -3.39572,1.70397 -8.51463,3.96772 -11.37535,5.03055 -2.86072,1.06283 -5.44822,2.13187 -5.75,2.37564 -0.30178,0.24378 -3.50403,1.95099 -7.11611,3.79382 -6.56609,3.34992 -6.56855,3.35068 -12.25,3.80637 -7.45246,0.59774 -8.91485,0.88577 -23.90479,4.70821 -13.43203,3.42517 -14.49986,3.56788 -20.14418,2.69214 -2.57843,-0.40006 -6.39017,-0.40411 -13.84577,-0.0147 -9.68176,0.50569 -10.44986,0.48025 -13.03785,-0.43165 -1.68581,-0.59401 -4.1057,-0.9753 -6.2533,-0.9853 -1.92681,-0.009 -4.26629,-0.23514 -5.19882,-0.5026 -0.93254,-0.26745 -3.51856,-0.72644 -5.7467,-1.01999 -5.3133,-0.70001 -18.81173,-3.31653 -22.30118,-4.32284 -3.09129,-0.89148 -8.73659,-3.61284 -11.75,-5.66417 -1.1,-0.7488 -4.95947,-2.86224 -8.57661,-4.69652 -4.85064,-2.45979 -7.54066,-4.2009 -10.25,-6.63426 -2.02037,-1.81456 -5.81089,-4.82995 -8.42339,-6.70087 -2.6125,-1.87092 -6.51817,-5.00789 -8.67926,-6.97104 -2.45401,-2.22925 -4.20584,-3.46324 -4.6659,-3.2867 -0.40515,0.15546 -0.80774,0.28267 -0.89465,0.28267 -0.0869,0 -2.06474,2.41875 -4.39517,5.375 -2.33044,2.95625 -5.33468,6.30341 -6.67609,7.43813 -1.34141,1.13471 -3.20596,3.38471 -4.14346,5 -0.93749,1.61528 -2.99648,5.03261 -4.57553,7.59406 -1.88479,3.05741 -3.42322,6.38821 -4.47855,9.69637 -0.88414,2.77155 -2.35771,6.28448 -3.27457,7.80653 -1.12928,1.87464 -1.76309,3.66616 -1.96479,5.55363 -1.05225,9.84651 -1.98634,15.19546 -3.34343,19.14589 -1.57407,4.58206 -1.61745,5.68173 -0.39312,9.96375 0.59294,2.07379 0.5572,2.68266 -0.33276,5.66846 -0.83426,2.79896 -0.91826,3.83437 -0.51447,6.34168 0.42772,2.65591 0.35071,3.31471 -0.67743,5.7953 -1.08393,2.61517 -1.11663,2.9815 -0.49857,5.58497 0.36379,1.53243 0.79561,5.27142 0.9596,8.30886 0.3503,6.48856 0.74529,7.30289 4.92192,10.14711 3.81348,2.59693 4.16423,3.03974 6.80589,8.59228 1.89308,3.97908 2.78386,5.22101 5.41795,7.55372 2.31648,2.05143 3.72112,3.8637 5.29716,6.83442 2.68204,5.05544 5.36105,7.51723 12.08974,11.10951 5.31348,2.83673 7.29011,4.47776 12.09216,10.03913 2.50735,2.90381 3.32727,3.48355 7.25782,5.1318 2.43712,1.02199 5.99497,2.18536 7.90632,2.58526 3.1506,0.65919 3.75697,0.99866 6.49218,3.63456 2.42188,2.33394 4.54575,3.66191 10.76701,6.73219 4.2625,2.1036 10.19398,4.61981 13.18108,5.59158 2.98709,0.97176 7.3746,2.76906 9.75,3.994 9.90609,5.10833 15.35149,7.29523 20.06238,8.05716 5.55807,0.89895 6.6037,1.40623 9.59742,4.65619 2.41487,2.62156 2.87852,2.82844 7.32271,3.2674 3.44823,0.34059 6.9823,1.99191 11.33641,5.29705 5.04778,3.83168 5.91562,4.10726 11.68318,3.71003 5.93311,-0.40864 7.25844,0.1196 9.51941,3.79415 1.7634,2.86588 2.98869,3.49983 6.76446,3.49983 1.45858,0 4.53768,0.31661 6.84245,0.70357 2.30477,0.38697 5.5405,0.85834 7.1905,1.0475 1.65,0.18917 4.89226,0.99756 7.20502,1.79643 3.45991,1.19513 5.02362,1.4525 8.82482,1.4525 4.10287,0 5.13835,0.20027 9.254,1.78973 2.5488,0.98435 6.49552,2.11462 8.77048,2.5117 2.27496,0.39709 5.07794,1.05421 6.22885,1.46028 1.31758,0.46487 3.96947,0.73829 7.16052,0.73829 4.43119,0 5.91534,0.24826 11.81213,1.97585 3.7093,1.0867 8.32497,2.51865 10.25705,3.18205 3.94793,1.35565 7.67836,2.079 23.48713,4.55445 24.53154,3.8413 57.35523,10.10685 60.65937,11.57895 4.23157,1.8853 8.40271,6.48095 11.30798,12.4587 2.93839,6.0459 3.39568,8.89005 1.83531,11.4148 -0.58763,0.9508 -1.88657,2.117 -2.88653,2.5915 -3.09857,1.47035 -18.72795,2.5375 -27.91613,1.90605 -3.3,-0.2268 -7.4625,-0.25125 -9.25,-0.0543 -8.14476,0.8972 -10.17733,0.8763 -13.21816,-0.13605 z M 494.82309,586.785 c 4.2625,-0.3118 10.1125,-0.88907 13,-1.28282 2.8875,-0.39376 7.14453,-0.97089 9.46006,-1.28251 4.89656,-0.65897 9.0069,-2.07054 10.34693,-3.55334 1.89032,-2.09173 3.6875,-2.95693 7.53865,-3.62925 7.60797,-1.32818 28.59835,-11.88231 42.65436,-21.44696 8.22775,-5.59873 20.38373,-14.60605 22.664,-16.79355 4.10061,-3.9338 4.85941,-5.67108 4.74846,-10.87164 -0.0914,-4.28468 -0.0246,-4.58117 1.74624,-7.74772 2.07903,-3.71764 2.32778,-5.99402 1.03905,-9.50857 -0.44125,-1.20333 -0.9659,-4.43787 -1.16591,-7.18787 -0.36032,-4.95422 -0.98081,-7.00539 -5.38885,-17.81391 -1.04573,-2.56413 -7.70618,-9.31415 -12.14299,-12.3063 -2.0625,-1.39093 -4.65,-3.47072 -5.75,-4.62175 -3.76232,-3.93685 -4.6133,-4.15737 -16.25,-4.21089 -9.97983,-0.0459 -10.3159,-0.0142 -12.75,1.20285 -2.5,1.25 -2.5,1.25 -2.54328,4.25 -0.082,5.68704 -0.11111,5.78664 -2.33172,7.99162 -2.84737,2.82734 -7.02433,4.43437 -11.625,4.47256 -2.96231,0.0246 -3.90519,-0.19491 -6.13756,-1.42886 -3.22121,-1.78053 -4.6564,-3.96782 -5.05866,-7.70957 -0.37645,-3.50172 -0.97705,-3.6803 -6.25309,-1.85926 -4.09829,1.41454 -6.24151,1.56315 -10.42547,0.72288 -2.69142,-0.54051 -2.88942,-0.50464 -5.51925,1 -2.37176,1.35699 -3.20533,1.56063 -6.38806,1.56063 -2.01321,0 -5.74388,-0.37215 -8.29039,-0.827 -4.4045,-0.78672 -4.74685,-0.78258 -7.02877,0.0851 -1.40982,0.53609 -3.63556,2.08614 -5.39875,3.7598 -3.34274,3.173 -7.90092,5.92707 -19,11.47987 -7.03464,3.51939 -7.64157,3.93835 -9.78157,6.75221 -2.35707,3.09928 -3.7705,4.06091 -8.46843,5.76152 -3.89271,1.40913 -12.16886,7.74218 -15.13937,11.5849 -3.75149,4.85301 -5.36871,6.37109 -8.46398,7.94512 -4.01194,2.04017 -6.19081,4.11837 -7.18887,6.85676 -1.7659,4.8451 -2.70846,6.67392 -4.62862,8.98081 -2.26541,2.72167 -4.57916,7.09294 -4.57916,8.65118 0,0.99415 0.17127,1.04069 2.625,0.71325 4.59384,-0.61302 5.13458,-0.48576 7.60288,1.78945 1.90445,1.75546 2.65628,2.09683 5.50731,2.50059 3.72461,0.52747 5.48414,1.47332 6.54036,3.51584 1.01315,1.9592 0.90289,4.26623 -0.32512,6.80296 -0.57725,1.19246 -0.93818,2.45837 -0.80204,2.81313 0.13614,0.35476 1.22719,0.93342 2.42456,1.28593 7.17587,2.11254 7.66611,9.39332 1.02638,15.24297 -1.11536,0.98265 -1.48629,1.61863 -1.1438,1.96112 0.68694,0.68694 11.06616,2.32081 14.82626,2.33391 1.66748,0.006 5.60498,0.36586 8.75,0.80011 3.14501,0.43425 9.43071,0.88893 13.96821,1.01038 4.5375,0.12147 9.15,0.40677 10.25,0.63401 2.54542,0.52584 13.26315,0.3508 23.25,-0.37971 z"
     id="path310"
     inkscape:connector-curvature="0" />
</svg>
