<?xml version="1.0" encoding="UTF-8" standalone="no"?>
<!-- Created with Inkscape (http://www.inkscape.org/) -->

<svg
   xmlns:dc="http://purl.org/dc/elements/1.1/"
   xmlns:cc="http://creativecommons.org/ns#"
   xmlns:rdf="http://www.w3.org/1999/02/22-rdf-syntax-ns#"
   xmlns:svg="http://www.w3.org/2000/svg"
   xmlns="http://www.w3.org/2000/svg"
   xmlns:sodipodi="http://sodipodi.sourceforge.net/DTD/sodipodi-0.dtd"
   xmlns:inkscape="http://www.inkscape.org/namespaces/inkscape"
   version="1.1"
   id="svg1288"
   width="1000"
   height="1000"
   viewBox="0 0 1000 1000"
   sodipodi:docname="Saida_lettre_t_bdc.svg"
   inkscape:version="0.92.2 5c3e80d, 2017-08-06">
  <metadata
     id="metadata1294">
    <rdf:RDF>
      <cc:Work
         rdf:about="">
        <dc:format>image/svg+xml</dc:format>
        <dc:type
           rdf:resource="http://purl.org/dc/dcmitype/StillImage" />
        <dc:title></dc:title>
      </cc:Work>
    </rdf:RDF>
  </metadata>
  <defs
     id="defs1292" />
  <sodipodi:namedview
     pagecolor="#ffffff"
     bordercolor="#666666"
     borderopacity="1"
     objecttolerance="10"
     gridtolerance="10"
     guidetolerance="10"
     inkscape:pageopacity="0"
     inkscape:pageshadow="2"
     inkscape:window-width="1025"
     inkscape:window-height="480"
     id="namedview1290"
     showgrid="false"
     inkscape:zoom="0.13906433"
     inkscape:cx="411.72669"
     inkscape:cy="600"
     inkscape:window-x="0"
     inkscape:window-y="92"
     inkscape:window-maximized="0"
     inkscape:current-layer="svg1288" />
  <path
     style="fill:#000000;stroke-width:0.5"
     d="m 452.75,736.91203 c -6.20452,-1.15585 -7.90444,-2.25905 -11.08437,-7.1933 -0.95192,-1.4771 -2.78584,-4.0646 -4.07539,-5.75 -2.76997,-3.6203 -12.07736,-19.90065 -13.57563,-23.7463 -0.57469,-1.47505 -1.68143,-3.61257 -2.45943,-4.75002 -2.83859,-4.15005 -4.25186,-8.43597 -5.5457,-16.81808 -0.31836,-2.0625 -1.10908,-5.4375 -1.75714,-7.5 -2.61068,-8.30862 -4.7527,-16.99917 -4.75879,-19.30722 -0.003,-1.34353 -0.45355,-3.86907 -1,-5.61232 -0.54646,-1.74326 -0.99355,-4.05673 -0.99355,-5.14107 0,-1.08433 -0.35789,-2.80803 -0.7953,-3.83045 -0.99739,-2.33134 -2.65788,-10.73692 -3.03409,-15.35894 -0.20006,-2.45792 -0.05,-4.29013 0.50385,-6.15378 0.6239,-2.0992 0.68235,-3.19635 0.27963,-5.25 -0.31662,-1.61466 -0.37997,-6.40159 -0.16753,-12.66134 0.34157,-10.06512 0.34157,-10.06512 -0.97249,-12.93542 -1.52064,-3.32151 -1.69024,-6.55375 -0.56407,-10.74946 0.40597,-1.5125 0.74084,-3.7625 0.74415,-5 0.003,-1.2375 0.35363,-4.05 0.77848,-6.25 0.60504,-3.13298 0.66003,-4.65439 0.25374,-7.01904 -0.40265,-2.3434 -0.35175,-3.8918 0.22744,-6.91897 0.95094,-4.97006 0.93966,-7.17685 -0.0562,-10.98981 -1.22789,-4.70156 -0.7598,-8.7467 1.53942,-13.30365 1.73523,-3.43914 1.86285,-3.97921 1.6289,-6.89366 -0.16354,-2.03744 0.0813,-4.88949 0.68843,-8.01852 1.03916,-5.35576 1.19433,-10.67107 0.41076,-14.07075 -0.3969,-1.72201 -0.32105,-3.09069 0.3411,-6.15532 0.70338,-3.25543 0.75079,-4.37711 0.2726,-6.44873 -0.77622,-3.36281 -0.72901,-6.22213 0.16653,-10.08358 0.5852,-2.52335 0.63207,-3.82713 0.21808,-6.0666 -0.56425,-3.05232 -0.39916,-4.40019 1.08897,-8.89058 1.06878,-3.22505 1.31361,-11.4107 0.43052,-14.39408 -0.96802,-3.27028 -0.64336,-9.4007 0.7393,-13.95981 1.70259,-5.61402 1.84763,-13.46699 0.27773,-15.03689 -1.10222,-1.10222 -2.71615,-1.23542 -5.75,-0.47456 -4.7013,1.17903 -14.27498,2.12315 -25,2.46537 -10.7177,0.342 -11.7551,0.45842 -15.25,1.71155 -2.47915,0.88892 -5.1903,1.43087 -8,1.59916 -2.3375,0.14002 -7.48714,0.9575 -11.44366,1.81664 -6.96777,1.51301 -7.34504,1.54317 -12.01414,0.96046 -4.34987,-0.54286 -5.30255,-0.5024 -9.75842,0.41443 -2.71587,0.55881 -6.422,1.54939 -8.23586,2.20129 -1.81386,0.65191 -4.53542,1.34348 -6.04792,1.53684 -1.5125,0.19336 -3.82746,0.90217 -5.14436,1.57513 -3.04426,1.55567 -9.69218,2.50692 -22.1314,3.16677 -12.69022,0.67317 -16.93486,1.27044 -23.1931,3.26355 -2.90463,0.92506 -6.51864,1.84033 -8.03114,2.03394 -1.5125,0.19361 -4.55,0.98303 -6.75,1.75428 -2.2,0.77123 -5.85581,1.87334 -8.12401,2.44909 -6.24151,1.58435 -10.95536,3.41631 -15.33541,5.95985 -3.95943,2.29928 -3.95943,2.29928 -12,2.60411 -7.06456,0.26782 -8.48067,0.46895 -11.6661,1.65692 -1.99403,0.74365 -5.45352,1.67349 -7.68774,2.0663 -2.40084,0.42211 -5.51912,1.42604 -7.62448,2.45468 -4.65738,2.27554 -7.6912,2.9794 -11.3945,2.6436 -1.9979,-0.18116 -3.89578,-0.0149 -5.59555,0.49036 -2.47839,0.73662 -7.17214,1.66688 -18.32221,3.6313 -6.5856,1.16026 -10.77632,2.24127 -13.85093,3.57288 -1.31949,0.57146 -4.32324,1.3323 -6.67502,1.69074 -3.18282,0.4851 -4.90401,1.05002 -6.73274,2.20976 -3.14739,1.99602 -5.16779,2.53932 -9.45584,2.54277 -2.19557,0.002 -4.71699,0.40617 -6.88403,1.10412 -3.12045,1.00501 -3.67014,1.04536 -6.285466,0.46138 -5.061575,-1.13019 -11.731625,-1.66407 -16.877185,-1.35088 -6.3942,0.38919 -8.6753,-0.32075 -12.466805,-3.88005 -1.512615,-1.41998 -3.749325,-3.48178 -4.97046,-4.58178 -2.698615,-2.43091 -3.15885,-4.01398 -2.318565,-7.97517 0.352905,-1.66366 0.80702,-4.63865 1.009135,-6.6111 0.47976,-4.6819 2.163055,-7.61258 5.662505,-9.85862 6.75629,-4.33636 10.216455,-6.39332 12.0733,-7.17718 1.112155,-0.4695 4.1596,-1.94108 6.7721,-3.27017 2.6125,-1.3291 7.01707,-3.16861 9.78793,-4.08779 6.129331,-2.03331 12.477731,-5.16626 15.816781,-7.80562 1.3668,-1.08039 2.85863,-1.98053 3.31519,-2.0003 0.45655,-0.0198 3.1926,-0.0816 6.0801,-0.13739 4.21122,-0.0814 5.99199,-0.36219 9,-1.41928 2.0625,-0.7248 7.16725,-2.23798 11.34389,-3.3626 7.0452,-1.89704 8.0619,-2.04478 14.07151,-2.04478 7.52212,0 12.60318,-0.89453 18.0846,-3.18383 3.75,-1.56617 3.75,-1.56617 14.75,-1.59625 9.67627,-0.0265 11.49059,-0.16165 15.07671,-1.12332 2.24219,-0.60128 5.81873,-1.33553 7.94788,-1.63166 2.12914,-0.29614 6.36962,-1.19546 9.42329,-1.9985 4.53901,-1.19364 6.57259,-1.46065 11.14457,-1.46325 3.07585,-0.002 6.22585,-0.24999 7,-0.55164 0.77415,-0.30164 4.5767,-0.74062 8.4501,-0.9755 5.54806,-0.33644 8.04154,-0.73889 11.75,-1.89649 7.23177,-2.2574 11.25449,-3.11748 16.70745,-3.57214 2.75,-0.2293 5.7875,-0.74969 6.75,-1.15643 0.9625,-0.40675 3.96578,-1.24745 6.67397,-1.86822 4.57051,-1.04766 5.22191,-1.08233 9.07466,-0.48299 3.61897,0.56298 4.73985,0.53791 8.74983,-0.19573 2.52953,-0.46278 6.65333,-1.52389 9.16399,-2.35802 3.90189,-1.29635 5.18373,-1.49614 8.8262,-1.37572 4.28731,0.14175 14.54295,-0.75334 18.26135,-1.59381 1.1,-0.24863 3.2375,-0.45943 4.75,-0.46843 5.24766,-0.0312 13.17456,-1.39287 17.5,-3.00601 3.6266,-1.35251 4.80007,-1.56387 8,-1.44095 2.0625,0.0792 7.35,0.15228 11.75,0.16232 7.61314,0.0174 8.15402,-0.0475 11.18504,-1.34195 1.77787,-0.75927 5.09142,-1.61187 7.5,-1.92981 5.86388,-0.77406 9.30304,-2.09601 9.99608,-3.84233 1.07523,-2.70937 2.56881,-8.87981 2.56559,-10.59929 -0.002,-0.96803 -0.45033,-2.43505 -0.99671,-3.26005 -1.38022,-2.08406 -1.28873,-5.21346 0.24063,-8.23152 0.80766,-1.59383 1.41143,-3.95142 1.73003,-6.75533 0.26917,-2.36888 0.93237,-5.92843 1.47376,-7.91011 0.54139,-1.98168 1.25168,-4.95305 1.57842,-6.60305 0.32674,-1.65 1.16151,-4.12293 1.85505,-5.4954 2.23617,-4.42524 2.23433,-4.53707 -0.22325,-13.61871 -2.26931,-8.38589 -2.26931,-8.38589 -1.64403,-12.38589 0.34389,-2.2 1.52677,-6.79425 2.62861,-10.20944 1.74361,-5.4044 2.28048,-6.48657 4.14096,-8.34705 3.15861,-3.15862 11.72891,-7.19351 15.27934,-7.19351 2.04705,0 6.40573,1.75458 9.78593,3.9393 2.46475,1.59305 3.24431,2.47392 4.74233,5.35857 2.05173,3.95095 4.23661,11.55147 4.58566,15.95213 0.13087,1.65 0.73538,4.10709 1.34334,5.4602 1.17926,2.62459 1.17808,2.228 0.0403,13.5398 -0.24895,2.475 -0.90188,5.62806 -1.45095,7.0068 -0.55225,1.38675 -1.39334,5.70846 -1.88244,9.67238 -0.84125,6.81805 -0.84198,7.34437 -0.0151,10.85202 0.50671,2.14934 0.71372,4.16228 0.49649,4.82763 -0.20493,0.62764 -0.40929,3.72867 -0.45413,6.89117 -0.0448,3.16251 -0.26458,7.48699 -0.48833,9.60997 -0.4068,3.85997 -0.4068,3.85997 1.03916,4.40972 1.87532,0.713 6.30222,0.19577 11.41033,-1.33317 3.18837,-0.95431 5.10551,-1.18651 9.79655,-1.18651 3.82345,0 6.67787,-0.26286 8.28689,-0.76311 1.34996,-0.41971 5.71697,-1.0849 9.70447,-1.47819 15.0695,-1.48632 18.29845,-2.0758 25.5,-4.65523 2.06025,-0.73793 4.6939,-1.06657 10.5,-1.31025 8.64495,-0.36282 11.7962,-0.80173 18,-2.50704 8.8302,-2.42727 26.30065,-3.10907 32.8884,-1.28351 3.6183,1.00269 3.6183,1.00269 6.73995,-0.2805 3.55135,-1.45981 7.09605,-1.8889 22.62165,-2.73839 6.512,-0.3563 11.35455,-0.85922 12.75,-1.32413 1.2375,-0.4123 4.95,-0.94233 8.25,-1.17785 3.71985,-0.26549 7.11005,-0.81421 8.92095,-1.44389 3.5087,-1.22005 5.0692,-1.41558 16.1548,-2.02415 8.59,-0.47158 11.3182,-0.81318 20.17425,-2.52605 2.6125,-0.50528 7.9,-1.05928 11.75,-1.2311 22.70605,-1.01329 25.74465,-1.22852 29.5,-2.08952 3.2854,-0.75326 5.65255,-0.88866 13.25,-0.75788 8.38715,0.14436 9.52985,0.0604 12.25,-0.89992 4.35185,-1.5364 9.36415,-2.5093 12.92765,-2.5093 1.71175,0 4.45325,-0.35308 6.0923,-0.78463 1.63905,-0.43155 4.44255,-0.73365 6.23005,-0.67136 6.92065,0.24122 7.2278,0.20311 9.9855,-1.23884 2.55655,-1.33679 2.9764,-1.40535 6.74535,-1.1016 3.2836,0.26462 5.163,0.0854 10.26915,-0.9791 8.5392,-1.78027 15.6828,-2.11791 20.78645,-0.98244 4.119,0.91638 4.45125,0.90678 15.34355,-0.44322 3.75435,-0.46532 7.84065,-0.62534 11.3037,-0.44264 5.0556,0.2667 5.6915,0.19129 9.37,-1.11131 3.91505,-1.38635 4.05325,-1.39816 17.4463,-1.49066 8.93155,-0.0617 14.4199,-0.31048 16.2184,-0.73519 1.8515,-0.43722 3.6852,-0.51154 5.75,-0.23303 1.6674,0.22489 5.9566,0.42351 9.5316,0.44137 6.62675,0.0331 15.06625,1.18489 19.12745,2.61044 3.12675,1.09756 7.70475,4.6737 9.55075,7.46069 0.88815,1.34085 2.09215,4.00946 2.6756,5.93024 1.0277,3.38346 1.03465,3.59409 0.22425,6.7568 -0.46005,1.79546 -0.8358,3.82698 -0.83505,4.51448 0.005,2.98148 -1.02615,5.02533 -3.3976,6.7449 -1.28995,0.93538 -2.78775,2.37381 -3.3284,3.19652 -1.37245,2.08853 -3.8563,3.3389 -8.517,4.28748 -2.2,0.44776 -5.4306,1.47901 -7.1791,2.29166 -1.7485,0.81265 -4.64985,1.7125 -6.4474,1.99966 -1.7976,0.28716 -3.72545,0.76676 -4.28415,1.06577 -0.55875,0.29902 -3.0793,0.69973 -5.6013,0.89048 -3.70255,0.28003 -4.91305,0.58045 -6.28675,1.56017 -1.5312,1.09206 -2.20605,1.21337 -6.7502,1.21337 -5.0489,0 -5.0489,0 -7.15115,1.89731 -1.1562,1.04352 -2.6676,2.11228 -3.35865,2.375 -4.4611,1.69612 -9.2442,-1.65202 -9.37295,-6.56102 -0.039,-1.49409 0.42035,-2.57891 2.1032,-4.9652 1.65335,-2.34445 2.0244,-3.20875 1.59805,-3.72245 -0.8599,-1.03611 -3.55975,-1.3384 -6.55025,-0.73339 -1.49565,0.30258 -6.4511,0.70759 -11.0121,0.90004 -8.2228,0.34692 -8.3138,0.3634 -10.79375,1.95479 -2.91025,1.86751 -3.9851,1.95727 -7.4892,0.62543 -2.08865,-0.79386 -2.8923,-0.87912 -4.25,-0.45086 -0.92085,0.29047 -4.4868,0.72934 -7.9243,0.97529 -14.2189,1.01733 -16.76845,1.34389 -20.25,2.59379 -4.32895,1.55409 -12.9311,2.57018 -17.8538,2.10889 -3.0057,-0.28166 -4.19535,-0.15748 -6.75635,0.70526 -1.70955,0.57592 -4.40915,1.05102 -5.9991,1.0558 -1.5899,0.005 -4.46565,0.34227 -6.39055,0.75 -1.9249,0.40772 -4.5124,0.74464 -5.75,0.74871 -1.2376,0.004 -3.7127,0.37659 -5.5002,0.82785 -2.44985,0.61846 -6.08125,0.85131 -14.75,0.94579 -9.03295,0.0985 -11.96935,0.29628 -13.68785,0.92215 -1.3139,0.47851 -3.8106,0.80156 -6.25,0.80869 -3.2178,0.009 -4.68575,0.27681 -7.06215,1.28648 -5.4666,2.32261 -5.8127,2.35765 -9.51695,0.96339 -4.1026,-1.54422 -5.4516,-1.56982 -8.83955,-0.16772 -2.07255,0.85772 -4.15545,1.16994 -9.6435,1.44552 -3.85,0.19333 -7.95315,0.64668 -9.1181,1.00744 -1.6967,0.52543 -2.69755,0.53627 -5.0301,0.0545 -4.04135,-0.83473 -14.5876,-0.75212 -19.9113,0.15597 -3.28535,0.5604 -5.6758,1.37332 -9.1891,3.125 -4.7486,2.36757 -4.7486,2.36757 -17,2.41376 -11.237,0.0423 -12.4959,0.13551 -15.2047,1.125 -3.4346,1.25465 -9.1775,1.43903 -14.79865,0.47511 -3.13035,-0.5368 -3.7824,-0.50224 -5.88425,0.31186 -5.55545,2.15178 -9.58775,2.78351 -17.3638,2.72036 -6.3483,-0.0516 -8.03745,0.10302 -11,1.00665 -2.1328,0.65055 -6.23435,1.27932 -10.5,1.60965 -5.87945,0.45531 -7.6003,0.78662 -10.75,2.06972 -3.75,1.52763 -3.75,1.52763 -17.6075,1.9532 -13.56755,0.41666 -13.95365,0.45751 -18.45245,1.95217 -3.50848,1.16564 -6.08404,1.63381 -10.89251,1.97999 -4.29369,0.30912 -7.64987,0.86887 -10.54754,1.75916 -2.3375,0.71818 -5.0905,1.5618 -6.11778,1.87473 -1.53334,0.46707 -2.29434,0.41606 -4.25,-0.2849 -3.36425,-1.20582 -5.42859,-1.09798 -6.88629,0.35972 -1.06338,1.06338 -1.17269,1.51198 -0.90963,3.73313 0.41016,3.46314 -0.42112,5.18759 -3.4321,7.11973 -2.58923,1.6615 -3.4042,2.9749 -3.4042,5.48614 0,0.81539 -0.5625,2.81896 -1.25,4.45239 -0.6875,1.63342 -1.25,3.88561 -1.25,5.00485 0,1.11924 -0.45455,2.92597 -1.0101,4.01495 -0.88316,1.73113 -0.97024,2.56121 -0.69292,6.60508 0.29439,4.29261 0.21722,4.8732 -1.07336,8.07579 -1.26266,3.13332 -1.33689,3.6513 -0.80709,5.63217 0.77176,2.88552 0.7369,4.59774 -0.2053,10.08278 -0.72218,4.2042 -0.72012,5.05997 0.0245,10.13713 0.78639,5.36236 0.78046,5.64675 -0.17991,8.62127 -2.7557,8.53516 -2.83434,9.25535 -1.74623,15.99238 0.17024,1.05402 0.0344,3.21253 -0.30172,4.79669 -0.47746,2.24992 -0.48021,3.51146 -0.0125,5.76418 0.5137,2.47444 0.47137,3.37479 -0.29815,6.34169 -0.8136,3.13689 -0.83259,3.83941 -0.20464,7.56942 0.92738,5.50856 0.89031,8.57496 -0.18269,15.11162 -0.7796,4.74932 -0.82169,6.10112 -0.30837,9.90422 0.54573,4.04322 0.50105,4.81616 -0.54512,9.43025 -1.03849,4.58028 -1.08034,5.27612 -0.47178,7.84578 1.09598,4.62779 1.19421,8.32325 0.29111,10.95136 -1.16005,3.37585 -1.52719,9.38529 -0.80668,13.20385 0.50156,2.6582 0.47699,3.90746 -0.14146,7.19082 -0.61413,3.26039 -0.67905,6.30733 -0.36166,16.97371 0.21276,7.15 0.6236,13.57714 0.91297,14.28253 0.28937,0.70539 0.68494,2.61789 0.87904,4.25 0.1941,1.63211 1.08699,5.44247 1.9842,8.46747 0.89722,3.025 1.78015,6.33127 1.96208,7.34728 0.18193,1.016 1.427,4.166 2.76682,7 1.33982,2.83399 3.6131,8.97772 5.05172,13.65272 2.91447,9.47092 7.2191,19.06296 10.43392,23.25 1.1613,1.5125 3.70758,5.45 5.65839,8.75 1.95082,3.3 4.52886,7.28425 5.72898,8.8539 3.77968,4.9435 4.90604,7.61315 4.90604,11.6282 0,2.93855 -0.22677,3.90365 -1.37693,5.86025 -2.53773,4.31695 -5.56531,5.65665 -15.12307,6.6919 -7.78544,0.84325 -10.85948,0.83795 -15.5,-0.0265 z M 781.5,466.90434 c 0,-0.4125 0.3375,-0.75 0.75,-0.75 0.4125,0 0.75,0.3375 0.75,0.75 0,0.4125 -0.3375,0.75 -0.75,0.75 -0.4125,0 -0.75,-0.3375 -0.75,-0.75 z"
     id="path1298"
     inkscape:connector-curvature="0" />
</svg>
