<?xml version="1.0" encoding="UTF-8" standalone="no"?>
<!-- Created with Inkscape (http://www.inkscape.org/) -->

<svg
   xmlns:dc="http://purl.org/dc/elements/1.1/"
   xmlns:cc="http://creativecommons.org/ns#"
   xmlns:rdf="http://www.w3.org/1999/02/22-rdf-syntax-ns#"
   xmlns:svg="http://www.w3.org/2000/svg"
   xmlns="http://www.w3.org/2000/svg"
   xmlns:sodipodi="http://sodipodi.sourceforge.net/DTD/sodipodi-0.dtd"
   xmlns:inkscape="http://www.inkscape.org/namespaces/inkscape"
   version="1.1"
   id="svg798"
   width="1000"
   height="1000"
   viewBox="0 0 1000 1000"
   sodipodi:docname="Saida_lettre_n_bdc.svg"
   inkscape:version="0.92.2 5c3e80d, 2017-08-06">
  <metadata
     id="metadata804">
    <rdf:RDF>
      <cc:Work
         rdf:about="">
        <dc:format>image/svg+xml</dc:format>
        <dc:type
           rdf:resource="http://purl.org/dc/dcmitype/StillImage" />
        <dc:title></dc:title>
      </cc:Work>
    </rdf:RDF>
  </metadata>
  <defs
     id="defs802" />
  <sodipodi:namedview
     pagecolor="#ffffff"
     bordercolor="#666666"
     borderopacity="1"
     objecttolerance="10"
     gridtolerance="10"
     guidetolerance="10"
     inkscape:pageopacity="0"
     inkscape:pageshadow="2"
     inkscape:window-width="1103"
     inkscape:window-height="639"
     id="namedview800"
     showgrid="false"
     inkscape:zoom="0.25658854"
     inkscape:cx="600"
     inkscape:cy="600"
     inkscape:window-x="0"
     inkscape:window-y="0"
     inkscape:window-maximized="0"
     inkscape:current-layer="svg798" />
  <path
     style="fill:#000000;stroke-width:0.5"
     d="m 366.26179,750.73774 c -10.33406,-2.2321 -13.10832,-3.84615 -17.41252,-10.13045 -4.16798,-6.0854 -4.58748,-7.2137 -4.58748,-12.33862 0,-3.57705 -0.20595,-4.6891 -1.25,-6.74943 -0.96681,-1.90791 -1.25,-3.23255 -1.25,-5.84695 0,-1.85911 -0.37435,-5.12223 -0.83187,-7.25138 -0.78326,-3.64489 -0.78032,-4.1132 0.0502,-8.01142 1.53038,-7.18317 1.53043,-7.21517 0.0156,-9.50427 -0.75847,-1.14612 -1.48856,-3.05556 -1.62242,-4.2432 -0.2089,-1.85339 0.023,-2.59094 1.63689,-5.20562 1.8033,-2.92159 1.86368,-3.16176 1.47477,-5.86673 -0.22303,-1.55123 -0.41107,-4.20299 -0.41787,-5.89279 -0.011,-2.72118 0.21379,-3.43559 1.96618,-6.25 1.97858,-3.17764 1.97858,-3.17764 1.82073,-9.49008 -0.17459,-6.98143 0.13684,-8.25424 2.99261,-12.23083 1.41438,-1.96948 1.63737,-2.71084 1.75433,-5.83263 0.11942,-3.1873 0.33249,-3.86457 1.95858,-6.22558 1.19253,-1.7315 2.06021,-3.77329 2.50479,-5.89416 0.3741,-1.78473 1.03871,-4.09082 1.4769,-5.12466 0.43818,-1.03383 1.01117,-3.2297 1.27329,-4.8797 0.77089,-4.85254 3.40595,-16.17989 4.76886,-20.5 0.85045,-2.69572 1.48,-6.44552 1.93071,-11.5 0.36783,-4.125 1.13242,-10.425 1.69909,-14 0.56667,-3.575 1.25447,-9.5375 1.52844,-13.25 0.34442,-4.66733 0.96933,-8.49417 2.02533,-12.40292 0.83995,-3.10911 1.85562,-7.94662 2.25704,-10.75 0.40141,-2.80339 1.07979,-6.22208 1.5075,-7.59708 1.25871,-4.0464 2.23086,-9.14265 2.22381,-11.65769 -0.009,-3.24259 -1.80859,-11.66886 -2.59615,-12.15667 -0.81438,-0.50441 -12.41244,-0.0423 -15.30778,0.60994 -1.18828,0.26768 -3.07024,1.06098 -4.18213,1.76289 -3.72925,2.35417 -5.38523,2.66544 -13.80154,2.5942 -6.69943,-0.0567 -8.40636,0.0928 -11.59578,1.01542 -2.20704,0.63846 -5.13938,1.08191 -7.15424,1.08191 -2.14,0 -5.63183,0.55984 -9.35581,1.5 -6.54837,1.65321 -10.05832,1.85719 -13.78425,0.80109 -1.52886,-0.43335 -6.19149,-0.80152 -12.27129,-0.96896 -9.37369,-0.25814 -9.97263,-0.21697 -13.59937,0.93473 -4.42786,1.40611 -13.75472,2.55792 -16.49992,2.03764 -2.55854,-0.48489 -5.49889,-3.21621 -6.36366,-5.91123 -0.83222,-2.59359 -1.14282,-36.33355 -0.37846,-41.11177 0.78766,-4.92388 3.78667,-9.66455 7.24542,-11.45313 1.92929,-0.99769 13.28149,-2.49138 15.93563,-2.09678 1.11876,0.16633 3.48126,0.99099 5.25,1.83257 3.39475,1.61526 3.65548,1.62739 10.2159,0.47532 1.53203,-0.26904 4.74311,-0.23183 8.29334,0.0961 5.79333,0.53512 5.79333,0.53512 9.25,-1.10281 3.31328,-1.56999 3.8196,-1.6572 12.20666,-2.10259 6.76069,-0.35901 9.71624,-0.74286 13,-1.68834 2.3375,-0.67302 6.725,-1.4533 9.75,-1.73395 3.025,-0.28064 6.56183,-0.698 7.85962,-0.92747 1.29779,-0.22946 3.66029,-0.23633 5.25,-0.0153 3.42921,0.47687 4.21285,0.28434 7.02906,-1.72691 1.89843,-1.35581 2.66122,-1.56178 6.7905,-1.83356 3.40935,-0.2244 5.10843,-0.58164 6.36132,-1.33749 10.57969,-6.38255 10.50666,-6.32097 12.74317,-10.74607 2.21366,-4.3799 4.16425,-5.69888 9.83526,-6.65052 2.00019,-0.33565 2.55784,-1.01008 3.11763,-3.77059 0.56082,-2.76557 2.47322,-5.2703 4.93317,-6.46114 1.22964,-0.59526 4.78823,-1.62877 7.90799,-2.29669 3.11975,-0.66792 7.24728,-1.68636 9.17228,-2.26321 5.02748,-1.50654 10.10767,-1.4589 14.25,0.13363 6.98706,2.6862 15.79485,7.6078 18.89701,10.55924 0.90585,0.86186 2.98047,4.07116 4.61025,7.13179 4.44707,8.35129 4.73279,11.61264 2.73306,31.19639 -0.84242,8.25003 -0.78965,13.63393 0.2033,20.73827 0.63198,4.52176 0.003,7.79574 -2.11279,11.00869 -0.90684,1.37667 -1.81877,2.95304 -2.02651,3.50304 -0.96528,2.55561 -2.30432,11.90264 -2.30432,16.08505 0,3.80012 -0.23609,5.25639 -1.3016,8.02855 -0.71589,1.86253 -1.48423,5.09144 -1.70744,7.17534 -0.22319,2.08391 -0.97484,5.14087 -1.67032,6.79325 -0.69548,1.65238 -1.40918,4.22238 -1.586,5.71109 -0.47852,4.02893 -1.14103,5.9276 -3.07054,8.79989 -1.85695,2.76425 -2.06091,4.77332 -0.51451,5.06814 1.7059,0.32523 3.28705,-1.28943 4.14177,-4.22957 0.63266,-2.17629 1.42649,-3.42131 3.50966,-5.50448 1.48064,-1.48064 3.34487,-3.98248 4.14274,-5.55965 1.50925,-2.98342 2.46169,-4.1473 5.86676,-7.16929 3.10137,-2.75246 3.68948,-3.84578 3.68948,-6.85899 0,-4.81628 2.01258,-7.28435 7,-8.58427 3.47691,-0.90622 4.5,-1.75516 4.5,-3.73401 0,-2.47256 0.71402,-3.99771 3.11787,-6.65983 1.17267,-1.29866 2.68992,-3.46817 3.37167,-4.82114 0.94948,-1.8843 1.94399,-2.90347 4.25,-4.3554 4.91085,-3.09201 5.23677,-3.39007 7.50066,-6.85964 1.19327,-1.82876 2.74579,-4.11252 3.45004,-5.07502 0.71701,-0.97994 1.58391,-3.20581 1.97008,-5.05837 0.84955,-4.07551 1.57504,-5.14779 5.21857,-7.71307 2.54183,-1.78961 3.14224,-2.57021 5.2353,-6.80647 1.53241,-3.10155 3.33549,-5.8204 5.125,-7.72793 2.94629,-3.14061 3.04174,-3.41244 2.22756,-6.34436 -1.10054,-3.96316 0.74899,-6.41741 7.42101,-9.84737 4.71052,-2.42158 5.75526,-3.51958 6.81544,-7.16284 0.41446,-1.42427 1.26954,-3.27278 1.90018,-4.1078 2.22812,-2.95019 11.68698,-11.5531 14.7106,-13.37939 1.97807,-1.19477 3.24106,-2.3383 3.5636,-3.22654 0.27479,-0.75673 1.32926,-3.98902 2.34327,-7.18287 2.59611,-8.177 5.54288,-13.17331 10.29739,-17.45944 5.6393,-5.08375 6.57827,-6.65333 6.97601,-11.66112 0.38972,-4.90684 1.13217,-6.18492 7.62377,-13.12389 3.53324,-3.77674 4.39005,-5.03414 5.41471,-7.94636 0.88268,-2.50869 1.92111,-4.22141 3.77787,-6.23092 1.46906,-1.58992 3.34893,-4.43402 4.40991,-6.67184 1.34697,-2.84101 2.82453,-4.90293 5.4394,-7.5906 3.15953,-3.24748 3.94989,-3.78735 6.59009,-4.50151 1.65,-0.44631 3.9,-1.13799 5,-1.53707 2.6962,-0.97818 9.30036,-6.68199 11.2443,-9.71137 2.28472,-3.56041 4.78332,-4.66135 9.59045,-4.22574 2.01708,0.18279 5.24192,0.0902 7.16633,-0.2058 4.29423,-0.66046 6.40969,-0.23104 10.17093,2.06459 1.5554,0.94932 3.95299,2.09392 5.32799,2.54357 1.375,0.44965 3.5125,1.5042 4.75,2.34345 1.2375,0.83924 3.51372,2.17664 5.05826,2.97198 3.45718,1.78024 5.08256,3.64823 5.93061,6.81583 0.45822,1.71152 1.36547,3.17477 3.05874,4.93324 2.94644,3.0599 3.95239,5.35779 3.95239,9.02844 0,8.41017 4.45933,24.47951 9.59865,34.58905 2.60154,5.1175 2.60154,5.1175 3.01421,12.96823 0.37825,7.19589 0.32711,8.12719 -0.6131,11.16505 -0.56417,1.82287 -1.2348,5.54967 -1.4903,8.28177 -0.25549,2.73211 -0.90029,6.31746 -1.43288,7.96746 -0.53259,1.65 -1.45589,6.8958 -2.05178,11.65732 -1.18194,9.44441 -0.99965,12.89544 1.02173,19.34269 1.46008,4.65699 1.26546,7.22476 -0.84531,11.15267 -1.79878,3.34733 -1.79878,3.34733 -1.46313,11.06936 0.26626,6.12599 0.58506,8.50289 1.54239,11.5 1.39213,4.35833 1.50536,6.80016 0.47309,10.20261 -0.53319,1.75745 -0.65083,3.61911 -0.4275,6.76542 0.26163,3.68578 0.1112,5.13063 -0.99693,9.57536 -0.71778,2.87902 -1.53704,7.48458 -1.82058,10.23458 -0.28353,2.75 -1.1179,8.20492 -1.85416,12.12203 -1.32471,7.04791 -1.32981,7.15978 -0.49011,10.75 1.41353,6.04368 1.18396,8.20307 -1.25887,11.84102 -2.09458,3.11933 -2.09458,3.11933 -1.45199,5.95314 1.92271,8.47918 1.73129,11.33796 -1.10386,16.48626 -1.55623,2.82594 -1.56864,2.90638 -1.63563,10.59755 -0.0371,4.2625 -0.35138,10.9 -0.69835,14.75 -0.67809,7.52414 -0.82183,11.33214 -0.54733,14.5 0.0953,1.1 -0.0897,5.15 -0.4112,9 -0.51189,6.13048 -0.77846,7.40371 -2.14597,10.25 -1.42848,2.9732 -1.58949,3.82489 -1.89047,10 -0.33832,6.9412 -0.52614,7.66221 -3.25418,12.49227 -1.01622,1.79925 -1.26644,2.92385 -1.26644,5.69199 0,4.92235 -0.75322,6.85311 -4.27918,10.96902 -2.56075,2.9892 -3.31294,4.29825 -4.22006,7.34417 -0.96733,3.24812 -1.50631,4.12344 -4.35755,7.07681 -3.00028,3.10775 -3.30852,3.63525 -3.9578,6.77299 -0.85163,4.11559 -1.80226,5.54036 -4.71468,7.06623 -1.87324,0.98142 -2.72926,1.12391 -5.47073,0.91063 -1.7875,-0.13906 -5.14107,-0.85216 -7.45238,-1.58467 -2.31131,-0.73251 -6.1708,-1.51648 -8.57664,-1.74216 -2.40583,-0.22568 -4.81729,-0.64743 -5.35879,-0.93724 -0.5415,-0.2898 -2.1361,-1.85617 -3.54356,-3.48082 -1.40746,-1.62466 -3.29244,-3.2464 -4.18883,-3.60387 -4.91538,-1.9602 -6.17852,-4.22766 -7.12799,-12.79545 -0.56409,-5.09017 -1.02392,-7.0223 -2.4757,-10.4024 -2.45781,-5.72238 -3.25529,-11.83058 -3.26754,-25.0275 -0.0102,-11.02077 0.62698,-16.20906 3.10111,-25.25 1.82717,-6.67683 2.02053,-8.58465 1.97605,-19.49756 -0.048,-11.76377 0.37317,-14.97002 2.91179,-22.16957 0.7918,-2.24558 1.77121,-5.65787 2.17644,-7.58287 0.40524,-1.925 1.29221,-4.68936 1.97104,-6.14303 1.20596,-2.58246 1.2168,-2.71233 0.47275,-5.66607 -0.74503,-2.9576 -0.73368,-3.09078 0.52422,-6.15383 1.27133,-3.09575 1.27681,-3.16624 0.48877,-6.29459 -0.69488,-2.75853 -0.71196,-3.64916 -0.13339,-6.95313 0.36496,-2.08414 0.70507,-5.81435 0.7558,-8.28935 0.0785,-3.83017 0.32597,-5.03301 1.66242,-8.08085 1.51055,-3.44488 2.53155,-8.54965 3.33395,-16.66915 0.25238,-2.55375 0.10077,-3.94624 -0.70772,-6.5 -1.22717,-3.87626 -1.29525,-6.0056 -0.29721,-9.29553 1.0187,-3.35808 0.94252,-6.0697 -0.29041,-10.3358 -0.732,-2.53286 -1.08674,-5.36293 -1.18222,-9.43175 -0.075,-3.1972 -0.29269,-6.06595 -0.4837,-6.375 -0.4869,-0.78783 -1.56745,-0.71049 -6.75228,0.48329 -4.53955,1.0452 -4.53955,1.0452 -8.91277,5.80126 -2.40526,2.61583 -4.93858,5.04867 -5.62959,5.4063 -0.69102,0.35763 -2.71586,0.93737 -4.49965,1.28831 -2.74873,0.54078 -3.6245,0.9943 -5.74361,2.97434 -1.3752,1.28495 -3.76532,3.13593 -5.31138,4.11329 -3.128,1.9774 -7.55205,6.86111 -11.45539,12.64562 -1.41751,2.10066 -4.82737,6.06945 -7.57746,8.81955 -3.26656,3.26656 -8.01147,9.04286 -13.68553,16.66032 -10.91939,14.65935 -12.98378,17.84935 -15.3611,23.73671 -2.19319,5.43139 -4.5722,8.79801 -8.4862,12.00909 -1.50839,1.2375 -3.59981,3.4875 -4.64761,5 -1.04779,1.5125 -2.75912,3.78704 -3.80295,5.05454 -1.04383,1.2675 -2.35863,3.37945 -2.92178,4.69324 -0.56316,1.31378 -1.78933,3.65174 -2.72484,5.19546 -0.93551,1.54372 -1.96888,4.15676 -2.29639,5.80676 -1.0332,5.20532 -2.81355,7.60739 -8.42016,11.36062 -1.48614,0.99486 -2.5246,2.33894 -3.86309,5 -2.84869,5.66349 -5.02936,8.82644 -8.88646,12.88938 -4.05011,4.26625 -7.35401,9.47445 -8.56391,13.5 -1.34312,4.46877 -1.63015,4.95536 -3.1041,5.26217 -2.71731,0.56563 -4.60633,1.89733 -6.29142,4.43527 -2.534,3.81648 -9.60886,12.60605 -13.06753,16.23465 -1.66818,1.75015 -4.39132,4.15441 -6.05141,5.34279 -4.34046,3.10713 -4.68157,3.60792 -5.18423,7.61117 -0.48945,3.89799 -0.87867,4.6432 -3.72055,7.12358 -2.30693,2.01346 -2.6949,2.93692 -3.61875,8.61346 -0.92971,5.71249 -1.57102,7.44752 -4.23991,11.4708 -1.22001,1.83914 -3.11821,4.74453 -4.21821,6.45643 -1.1,1.71189 -2.39728,3.72147 -2.88284,4.46573 -0.48557,0.74426 -1.35035,3.57637 -1.92174,6.29358 -1.01524,4.82793 -2.68409,8.99327 -4.35991,10.88206 -0.45953,0.51793 -2.01138,1.81481 -3.44856,2.88195 -2.25125,1.6716 -2.72693,2.33198 -3.43551,4.76942 -0.55953,1.92474 -1.50008,3.56089 -2.94211,5.11804 -2.66907,2.8822 -3.16682,3.8482 -3.8193,7.41215 -0.66849,3.65135 -1.8909,5.6373 -4.29032,6.97 -6.73224,3.7394 -21.402,5.65675 -29.64971,3.87525 z"
     id="path808"
     inkscape:connector-curvature="0" />
</svg>
