<?xml version="1.0" encoding="UTF-8" standalone="no"?>
<svg
   xmlns:dc="http://purl.org/dc/elements/1.1/"
   xmlns:cc="http://creativecommons.org/ns#"
   xmlns:rdf="http://www.w3.org/1999/02/22-rdf-syntax-ns#"
   xmlns:svg="http://www.w3.org/2000/svg"
   xmlns="http://www.w3.org/2000/svg"
   xmlns:sodipodi="http://sodipodi.sourceforge.net/DTD/sodipodi-0.dtd"
   xmlns:inkscape="http://www.inkscape.org/namespaces/inkscape"
   viewBox="0 0 1000 1000"
   height="1000"
   width="1000"
   id="svg4220"
   version="1.1"
   sodipodi:docname="Saida_lettre_f_bdc.svg"
   inkscape:version="0.92.2 5c3e80d, 2017-08-06">
  <sodipodi:namedview
     pagecolor="#ffffff"
     bordercolor="#666666"
     borderopacity="1"
     objecttolerance="10"
     gridtolerance="10"
     guidetolerance="10"
     inkscape:pageopacity="0"
     inkscape:pageshadow="2"
     inkscape:window-width="1025"
     inkscape:window-height="480"
     id="namedview6"
     showgrid="false"
     inkscape:zoom="0.236"
     inkscape:cx="500"
     inkscape:cy="500"
     inkscape:window-x="0"
     inkscape:window-y="0"
     inkscape:window-maximized="0"
     inkscape:current-layer="svg4220" />
  <metadata
     id="metadata4226">
    <rdf:RDF>
      <cc:Work
         rdf:about="">
        <dc:format>image/svg+xml</dc:format>
        <dc:type
           rdf:resource="http://purl.org/dc/dcmitype/StillImage" />
        <dc:title></dc:title>
      </cc:Work>
    </rdf:RDF>
  </metadata>
  <defs
     id="defs4224" />
  <path
     style="fill:#000000;stroke-width:0.5"
     d="m 514.6308,740.17144 c -2.87785,-0.68705 -5.91604,-2.4897 -9.64397,-5.722 -4.17098,-3.61645 -10.21495,-7.09475 -18.30881,-10.5366 -6.80187,-2.89245 -13.02544,-6.2012 -17.09993,-9.0912 -1.71125,-1.21375 -4.7017,-2.854 -6.64543,-3.645 -1.94373,-0.79105 -4.81862,-2.1941 -6.38863,-3.118 -1.57002,-0.92385 -4.83173,-2.5525 -7.24827,-3.6192 -2.94454,-1.2998 -5.41323,-2.8492 -7.48487,-4.6977 -1.70016,-1.517 -4.51741,-3.4049 -6.26056,-4.19525 -1.74315,-0.7904 -5.16236,-2.87905 -7.59825,-4.64145 -2.43589,-1.76245 -6.07898,-4.0305 -8.09576,-5.04015 -4.13966,-2.07245 -8.85561,-5.25535 -12.91686,-8.7179 -1.5125,-1.28955 -4.55,-3.61405 -6.75,-5.16555 -4.28852,-3.02445 -13.97376,-13.0593 -16.98969,-17.60301 -2.19672,-3.30949 -4.43404,-8.84835 -5.54701,-13.73254 -0.69313,-3.04173 -0.79781,-5.16654 -0.55426,-11.25 0.55035,-13.74664 2.12794,-16.64081 16.48897,-30.25 14.55539,-13.79335 15.38935,-14.42355 26.85199,-20.29083 5.6375,-2.88563 12.05476,-6.19442 14.26058,-7.35288 2.20581,-1.15846 5.64134,-2.7445 7.63452,-3.52454 5.63929,-2.20696 5.89235,-3.33915 4.0974,-18.33175 -0.6523,-5.4484 -0.99165,-11.47609 -0.99932,-17.75 -0.007,-6.12182 -0.27494,-10.98907 -0.75215,-13.68752 -0.65888,-3.72585 -0.6556,-4.75948 0.0298,-9.37546 0.42368,-2.85336 0.72415,-7.60648 0.66771,-10.56248 -0.19009,-9.95531 0.1095,-23.35252 0.58979,-26.37454 0.26223,-1.65 0.56824,-7.8375 0.68,-13.75 0.11177,-5.9125 0.45392,-13.33619 0.76035,-16.49708 0.30643,-3.1609 0.42806,-6.33474 0.27031,-7.053 -0.15775,-0.71824 0.0614,-4.13126 0.48709,-7.58449 0.42565,-3.45323 0.77391,-9.57378 0.77391,-13.60124 0,-4.02745 0.21483,-8.82824 0.47741,-10.66842 1.62117,-11.36133 2.10506,-17.65677 2.15584,-28.04737 0.0303,-6.21412 -0.10717,-11.78045 -0.30565,-12.36963 -0.48311,-1.43413 -1.81071,-1.87276 -10.3276,-3.41219 -10.26427,-1.85527 -11.75584,-2.22457 -16.25,-4.02339 -2.2,-0.88057 -4.9,-1.88847 -6,-2.23978 -5.33979,-1.70537 -7.5959,-3.91847 -9.05091,-8.87841 -0.69621,-2.37331 -0.6944,-2.88523 0.019,-5.33905 0.97487,-3.35343 3.48362,-5.67595 7.94032,-7.35089 5.358,-2.01368 11.65091,-1.17059 23.21346,3.11004 7.01758,2.59801 8.06905,2.81404 9.02819,1.8549 0.7352,-0.73521 0.76912,-5.90696 0.0567,-8.65 -0.28568,-1.1 -0.7076,-4.3625 -0.9376,-7.25 -0.23,-2.8875 -0.88232,-8.5125 -1.4496,-12.5 -0.56728,-3.9875 -1.27537,-9.1625 -1.57352,-11.5 -2.022,-15.85243 -4.30517,-26.94733 -8.78814,-42.70534 -2.44372,-8.58987 -5.57451,-25.13896 -5.98001,-31.60982 -0.43396,-6.92492 0.56453,-21.65277 1.79704,-26.5066 1.7401,-6.85283 5.48587,-12.58858 9.69099,-14.83945 1.75241,-0.93801 2.83331,-1.08879 7.805,-1.08879 6.64778,0 7.06921,0.15736 15.72911,5.87316 3.89941,2.57374 7.48713,5.7574 16.29914,14.4635 11.40499,11.26792 18.78217,19.98276 24.33784,28.7509 1.29966,2.05116 3.6198,5.68306 5.15587,8.07091 4.38251,6.81268 8.3822,14.16026 10.1727,18.68758 0.90355,2.28467 2.91219,7.00973 4.46363,10.50013 1.55145,3.49039 2.82082,6.59634 2.82082,6.90211 0,0.91265 3.43075,16.0623 4.2106,18.59337 0.39697,1.28836 0.87788,5.78646 1.06914,10 0.34182,7.52998 0.32458,7.72119 -1.02831,11.40834 -0.75679,2.0625 -2.00067,5.58546 -2.76419,7.8288 -2.73291,8.02976 -5.0325,11.55018 -13.79847,21.12395 -1.40867,1.53849 -2.93163,3.52547 -3.38435,4.4155 -1.36296,2.67959 -3.8601,5.17378 -7.55442,7.54554 -5.16104,3.3134 -6.92959,3.93497 -13,4.56899 -9.41994,0.98387 -14.7276,2.4827 -15.4882,4.37373 -0.58855,1.46328 -2.33871,20.24766 -2.73862,29.39349 -0.20442,4.675 -0.63866,15.1375 -0.96498,23.25 -0.32631,8.1125 -0.92002,16.66687 -1.31934,19.0097 -0.39933,2.34283 -0.94879,10.44283 -1.22104,18 -0.27224,7.55716 -0.72128,16.2153 -0.99786,19.2403 -1.27738,13.97129 -1.85584,42.30246 -1.01359,49.64258 0.65834,5.7373 1.45808,15.88799 1.93875,24.60742 0.18949,3.4375 0.51993,6.62158 0.73429,7.07573 0.997,2.11219 4.41159,1.47944 17.70471,-3.28078 11.36245,-4.06886 18.00032,-6.0056 24.11588,-7.0363 2.6125,-0.44032 10.825,-2.01438 18.25,-3.49792 27.11391,-5.41749 27.52979,-5.485 29.72984,-4.82585 5.66163,1.69628 6.70579,10.13353 1.58199,12.78314 -1.46793,0.7591 -9.38922,2.16187 -18.56183,3.28709 -5.09911,0.62553 -13.37109,2.44003 -16.9513,3.71838 -1.21072,0.43229 -4.58572,1.37089 -7.5,2.08576 -2.91429,0.71487 -7.7737,2.18671 -10.7987,3.27075 -3.025,1.08405 -8.50605,2.73943 -12.18012,3.67863 -3.67407,0.9392 -7.49907,2.19475 -8.5,2.79011 -1.00094,0.59537 -3.57165,1.71835 -5.71272,2.49553 -2.14106,0.77716 -4.53206,1.86821 -5.31335,2.42454 -3.34376,2.38096 -4.00597,7.46834 -2.11335,16.23584 0.69346,3.21249 1.07013,6.72869 1.07124,10 0.001,3.76516 0.30124,6.12373 1.18224,9.29535 3.60888,12.992 5.06101,17.88 7.05561,23.75 5.10856,15.03413 9.29801,26.7542 10.90252,30.5 0.94238,2.2 2.78662,6.5875 4.09834,9.75 2.59284,6.2512 8.13534,17.1856 11.53168,22.75 2.10903,3.45535 3.88037,6.75005 9.94608,18.5 1.70357,3.3 3.9188,7.4625 4.92275,9.25 1.00393,1.7875 2.07388,4.43125 2.37766,5.875 1.87109,8.89275 -5.36756,15.7895 -14.32724,13.65055 z m -30.69134,-44.57465 c 0,-0.90715 -1.3313,-4.20215 -3.21248,-7.95095 -1.76686,-3.521 -4.04694,-8.39265 -5.06682,-10.8259 -1.01988,-2.43325 -3.14565,-7.47125 -4.72392,-11.19565 -1.57826,-3.7244 -3.12323,-7.9544 -3.43325,-9.4 -0.31003,-1.4456 -0.90233,-3.28322 -1.31622,-4.0836 -0.41389,-0.80037 -1.10187,-2.98288 -1.52886,-4.85001 -0.42698,-1.86714 -1.64654,-5.98229 -2.71013,-9.14479 -1.06359,-3.1625 -2.74654,-8.53762 -3.73988,-11.94471 -0.99335,-3.40709 -2.68532,-8.26048 -3.75994,-10.78531 -1.24493,-2.92497 -2.43247,-7.0063 -3.27296,-11.24846 -1.39938,-7.06306 -1.9736,-8.81401 -3.0225,-9.21652 -0.35833,-0.1375 -4.03337,0.87989 -8.16675,2.26088 -7.28085,2.43257 -7.64072,2.61932 -11.53884,5.98781 -2.21298,1.91232 -5.65122,4.51965 -7.64053,5.79408 -8.44469,5.41003 -16.25535,12.4972 -19.93821,18.09139 -3.03754,4.61394 -3.17474,6.63772 -0.86108,12.70197 1.50401,3.94213 1.85402,4.40007 8.625,11.28466 4.50912,4.58479 8.60709,8.22516 11.34933,10.08206 2.36058,1.59845 5.96058,4.2367 8,5.8628 5.53991,4.4172 7.46121,5.5946 16.191,9.92205 4.39062,2.1765 10.04079,5.42315 12.55591,7.21475 6.13915,4.37315 23.39674,12.9627 26.08613,12.98375 0.92649,0.007 1.125,-0.26455 1.125,-1.5403 z m 3.6068,-359.45719 c 5.67085,-1.40248 6.34654,-1.70232 9.80385,-4.35041 2.04227,-1.56425 4.3041,-3.43951 5.02628,-4.16725 3.13799,-3.1621 8.90227,-15.67559 10.0293,-21.77228 0.75846,-4.10289 0.67054,-6.01539 -0.47065,-10.23759 -0.55245,-2.0439 -1.33144,-5.35965 -1.73111,-7.36833 -0.39968,-2.00869 -1.51,-5.49619 -2.46738,-7.75 -0.95738,-2.25382 -3.1028,-7.53074 -4.76759,-11.7265 -3.62745,-9.14222 -9.72067,-21.47364 -12.30208,-24.8969 -2.18544,-2.89815 -6.51696,-7.41182 -21.71307,-22.6261 -12.18716,-12.20174 -12.72629,-12.5465 -13.83688,-8.84835 -0.99885,3.32604 -0.76617,6.09227 1.30951,15.56832 1.0925,4.98757 2.23465,10.72507 2.53813,12.75 0.60194,4.01653 1.20186,6.23107 3.23052,11.92513 0.92076,2.58441 1.70552,6.68687 2.5346,13.25 0.66049,5.2286 1.65289,11.07668 2.20533,12.99573 0.55244,1.91904 1.00444,4.14234 1.00444,4.94065 0,0.79832 0.66002,3.39068 1.46671,5.76082 1.62666,4.77927 3.02585,12.23138 4.28264,22.80935 0.45743,3.85 1.15141,8.9125 1.54219,11.25 0.39077,2.3375 0.71129,5.15 0.71226,6.25 0.004,4.32857 2.02213,7.75 4.57172,7.75 0.51736,0 3.68144,-0.67784 7.03128,-1.50629 z"
     id="path8"
     inkscape:connector-curvature="0" />
</svg>
