<?xml version="1.0" encoding="UTF-8" standalone="no"?>
<!-- Created with Inkscape (http://www.inkscape.org/) -->

<svg
   xmlns:dc="http://purl.org/dc/elements/1.1/"
   xmlns:cc="http://creativecommons.org/ns#"
   xmlns:rdf="http://www.w3.org/1999/02/22-rdf-syntax-ns#"
   xmlns:svg="http://www.w3.org/2000/svg"
   xmlns="http://www.w3.org/2000/svg"
   xmlns:sodipodi="http://sodipodi.sourceforge.net/DTD/sodipodi-0.dtd"
   xmlns:inkscape="http://www.inkscape.org/namespaces/inkscape"
   version="1.1"
   id="svg262"
   width="1000"
   height="1000"
   viewBox="0 0 1000 1000"
   sodipodi:docname="Saida_lettre_z_bdc.svg"
   inkscape:version="0.92.2 5c3e80d, 2017-08-06">
  <metadata
     id="metadata268">
    <rdf:RDF>
      <cc:Work
         rdf:about="">
        <dc:format>image/svg+xml</dc:format>
        <dc:type
           rdf:resource="http://purl.org/dc/dcmitype/StillImage" />
        <dc:title></dc:title>
      </cc:Work>
    </rdf:RDF>
  </metadata>
  <defs
     id="defs266" />
  <sodipodi:namedview
     pagecolor="#ffffff"
     bordercolor="#666666"
     borderopacity="1"
     objecttolerance="10"
     gridtolerance="10"
     guidetolerance="10"
     inkscape:pageopacity="0"
     inkscape:pageshadow="2"
     inkscape:window-width="1284"
     inkscape:window-height="765"
     id="namedview264"
     showgrid="false"
     inkscape:zoom="0.39410156"
     inkscape:cx="474.5"
     inkscape:cy="600"
     inkscape:window-x="0"
     inkscape:window-y="0"
     inkscape:window-maximized="0"
     inkscape:current-layer="svg262" />
  <path
     style="fill:#000000;stroke-width:0.5"
     d="m 436.74169,855.68435 c -2.0625,-0.23505 -7.0125,-0.9847 -11,-1.6659 -3.9875,-0.6812 -10.17036,-1.60035 -13.73969,-2.0425 -5.8136,-0.7202 -9.91443,-1.56765 -19.454,-4.02015 -4.34775,-1.11775 -12.91468,-5.3088 -14.2051,-6.9493 -0.67719,-0.8609 -1.10121,-2.10125 -1.10121,-3.2213 0,-2.11325 -0.76841,-3.34885 -3.84804,-6.18755 -2.9072,-2.67975 -3.54734,-4.01425 -3.91746,-8.1667 -0.16862,-1.89175 -0.62786,-4.94645 -1.02054,-6.78825 -0.90368,-4.2386 -0.91925,-10.4495 -0.0315,-12.54235 0.37539,-0.88495 1.64289,-2.46315 2.81666,-3.5072 2.13414,-1.89825 2.13414,-1.89825 1.80497,-5.11115 -0.90268,-8.81065 5.93368,-11.67105 16.05304,-6.7167 3.79135,1.8562 5.80001,4.191 7.18433,8.3509 1.30477,3.9208 2.85909,5.8136 5.64907,6.8791 1.55645,0.5944 2.38669,1.29655 2.96365,2.5065 0.62946,1.32 1.62331,2.076 4.63024,3.5223 4.85138,2.3334 8.49722,2.7054 14.39193,1.46835 4.1508,-0.8711 4.25739,-0.86855 7.71886,0.18285 2.34135,0.71115 4.8991,1.07205 7.68234,1.0839 2.29481,0.01 5.52238,0.3438 7.17238,0.7422 1.65,0.3984 4.20936,0.7279 5.68747,0.7322 1.8145,0.005 3.64205,0.4362 5.62612,1.3266 2.93863,1.31875 2.93863,1.31875 10.06252,0.69255 5.4273,-0.47705 8.41368,-1.02925 12.53966,-2.31875 4.74813,-1.48395 6.08036,-1.6926 10.80676,-1.6926 6.77968,0 9.86508,-0.58275 14.27747,-2.6966 3.75081,-1.79695 6.40414,-2.47815 17.75,-4.55715 4.9295,-0.9033 8.45025,-1.86375 11,-3.0008 2.0625,-0.9198 5.57047,-2.1222 7.79547,-2.672 2.22502,-0.5498 5.90794,-1.7179 8.18429,-2.59575 3.40602,-1.3135 4.72302,-2.16335 7.43839,-4.7997 1.81476,-1.762 4.88856,-4.3021 6.83066,-5.64465 3.44477,-2.38135 4.49583,-2.81365 12.25119,-5.03845 4.65395,-1.33506 7.43607,-2.90814 11.10024,-6.2763 2.24754,-2.06597 3.67788,-2.89561 6.7642,-3.92345 2.4846,-0.82745 4.77228,-2.01275 6.26426,-3.24565 1.29267,-1.06819 3.40366,-2.55949 4.69111,-3.31398 8.8303,-5.1749 22.51878,-19.29897 26.62461,-27.47187 1.10899,-2.2075 2.90444,-5.08181 3.98988,-6.38733 4.53975,-5.4602 9.51865,-17.69013 9.55432,-23.46877 0.006,-1.01335 0.23477,-2.43001 0.5078,-3.14814 0.8569,-2.25383 2.21676,-13.3452 2.10583,-17.1757 -0.0634,-2.18904 0.2151,-4.77145 0.69117,-6.40909 0.65565,-2.25535 0.70031,-3.30012 0.25127,-5.87868 -0.30035,-1.72474 -0.40382,-4.49708 -0.22993,-6.16076 0.29912,-2.86183 0.20816,-3.22327 -1.68743,-6.70504 -1.40756,-2.58535 -2.101,-4.56366 -2.33099,-6.65007 -0.21202,-1.92335 -0.81795,-3.77342 -1.71946,-5.25 -1.76035,-2.88329 -1.97303,-3.43916 -3.11847,-8.15024 -0.51753,-2.12859 -1.71741,-5.41196 -2.66638,-7.29636 -0.94896,-1.88441 -2.32729,-5.88033 -3.06293,-8.87983 -1.47786,-6.0258 -1.99013,-7.21957 -4.7734,-11.12356 -1.21394,-1.70275 -2.115,-3.69509 -2.48744,-5.5 -0.32121,-1.55654 -1.00413,-3.65736 -1.51762,-4.66848 -1.13367,-2.23233 -2.75954,-8.20153 -3.21509,-11.8039 -0.23057,-1.8233 -0.85244,-3.37309 -2.00626,-5 -0.91967,-1.29674 -2.38244,-3.68952 -3.25061,-5.3173 -0.86817,-1.62779 -2.33026,-4.05249 -3.24909,-5.38823 -0.91883,-1.33574 -1.82356,-2.92892 -2.01051,-3.5404 -0.6661,-2.17872 -9.82206,-21.54236 -11.02243,-23.31097 -0.67221,-0.99044 -2.56566,-3.6008 -4.20765,-5.8008 -3.93348,-5.27022 -4.96436,-7.44416 -4.97909,-10.5 -0.009,-1.78485 -0.4333,-3.29912 -1.4846,-5.29351 -0.80991,-1.53642 -2.01678,-4.23937 -2.68194,-6.00654 -0.66516,-1.76717 -1.91924,-4.61925 -2.78683,-6.33794 -2.00781,-3.97744 -2.32531,-6.43527 -1.43589,-11.11543 0.66217,-3.48434 0.64203,-4.022 -0.28078,-7.5 -0.84802,-3.19612 -0.98613,-5.24045 -0.94002,-13.91435 0.0389,-7.31452 0.26081,-10.89239 0.79083,-12.75 0.40522,-1.42023 0.8904,-3.64604 1.07817,-4.94626 0.18777,-1.30023 0.9867,-3.38156 1.77539,-4.6252 0.83339,-1.31413 1.63289,-3.49629 1.90891,-5.21016 0.6234,-3.87097 1.10756,-4.58278 5.54685,-8.15494 2.0625,-1.65963 4.7853,-4.28614 6.05066,-5.83667 2.44453,-2.99544 5.37467,-4.855 9.94934,-6.31416 3.65866,-1.16699 4,-1.50644 4,-3.97779 0,-1.16078 0.46121,-3.43948 1.02491,-5.06378 0.56371,-1.6243 1.35344,-4.49733 1.75496,-6.38451 1.33104,-6.25599 3.0351,-7.81578 8.54727,-7.82365 2.5264,-0.003 4.07761,-0.30968 5.92286,-1.16867 1.375,-0.64008 3.625,-1.54413 5,-2.009 1.78868,-0.60472 3.60254,-1.88585 6.375,-4.50266 4.16091,-3.92732 4.62334,-5.05358 3,-7.30679 -0.48125,-0.66798 -1.55,-2.45654 -2.375,-3.97456 -0.825,-1.51803 -2.0625,-3.02604 -2.75,-3.35112 -0.6875,-0.32509 -3.3875,-1.60259 -6,-2.83888 -2.6125,-1.23629 -6.09039,-2.62667 -7.72865,-3.08972 -3.91412,-1.10632 -6.99192,-2.6996 -9.972,-5.1622 -1.85579,-1.53353 -3.1176,-2.1288 -5.34378,-2.52093 -1.78899,-0.31512 -4.70819,-1.47832 -7.55995,-3.01238 -3.24868,-1.74757 -5.47255,-2.59616 -7.39562,-2.82204 -4.06428,-0.47738 -5.86731,-1.15197 -9.22734,-3.45233 -2.45328,-1.67958 -4.25958,-2.38699 -9.52502,-3.73032 -9.23268,-2.35546 -10.63156,-2.84695 -13.98742,-4.91448 -2.80785,-1.72991 -3.32505,-1.86427 -8.5,-2.20811 -3.55434,-0.23616 -6.40837,-0.71909 -8.04053,-1.36051 -1.39167,-0.54691 -4.65417,-1.2405 -7.25,-1.54132 -11.56809,-1.34057 -16.64294,-2.38172 -20.35585,-4.17615 -2.34258,-1.13216 -4.74391,-1.87451 -6.75,-2.08668 -6.01242,-0.6359 -18.66191,-2.83493 -23.36384,-4.06166 -4.78879,-1.24939 -13.61354,-2.4311 -23.75,-3.18035 -3.025,-0.2236 -6.175,-0.68476 -7,-1.02481 -2.25909,-0.93114 -8.33076,-2.48115 -9.75724,-2.49087 -1.9388,-0.0132 -7.32184,4.56782 -7.76128,6.60494 -1.14818,5.32267 -3.43675,9.08363 -7.64749,12.56767 -1.2837,1.06214 -3.00899,2.87015 -3.83399,4.01778 -2.38614,3.31928 -9.25679,9.77438 -12.15937,11.42394 -2.60281,1.4792 -5.70838,4.74905 -10.72418,11.29145 -1.31095,1.70995 -3.56095,3.86653 -5,4.7924 -3.15355,2.02896 -4.04719,2.98804 -7.08332,7.60202 -1.43313,2.17792 -3.58675,4.55644 -5.55035,6.12997 -1.76472,1.41415 -4.07976,3.75047 -5.14455,5.19182 -1.06478,1.44134 -2.34562,2.95786 -2.84632,3.37003 -0.50069,0.41217 -2.09544,2.34906 -3.54388,4.30418 -1.92456,2.5978 -3.24647,3.84289 -4.91033,4.625 -1.25224,0.58863 -2.56051,1.07107 -2.90725,1.0721 -0.34675,10e-4 -1.32989,0.42837 -2.18475,0.94965 -1.29423,0.7892 -1.59876,1.34225 -1.82002,3.30525 -0.33601,2.98108 -1.52688,4.5711 -4.91232,6.55883 -1.99398,1.17074 -3.27259,2.45959 -4.95081,4.99046 -2.7117,4.08943 -4.45491,5.19363 -8.98406,5.69081 -2.83492,0.3112 -3.82231,0.68167 -5.75995,2.16117 -2.66255,2.033 -5.87368,2.86932 -10.70123,2.78708 -2.43281,-0.0415 -3.49306,0.17561 -4.5,0.92129 -1.6829,1.24629 -3.56729,4.00558 -3.56729,5.22359 0,1.83127 -1.45994,4.40033 -3.05017,5.36741 -0.88569,0.53863 -3.20548,1.23998 -5.15509,1.55858 -1.9496,0.3186 -6.13224,1.20787 -9.29474,1.97615 -10.59423,2.57371 -16.31684,3.62755 -17.85913,3.2888 -2.09266,-0.45963 -3.96832,-2.61437 -4.64982,-5.34169 -0.36352,-1.4548 -0.51191,-5.4368 -0.40058,-10.75 0.15845,-7.56198 0.29909,-8.71169 1.35295,-11.06007 1.23388,-2.74951 4.17264,-5.80252 6.45772,-6.70875 0.74187,-0.29422 4.44227,-1.29073 8.2231,-2.21446 7.41868,-1.81252 8.79351,-2.37937 12.62283,-5.20441 5.14508,-3.79574 11.00718,-6.95396 14.74744,-7.94523 4.212,-1.11629 5.50549,-2.25301 5.50549,-4.8382 0,-2.62142 0.91844,-4.01481 3.61299,-5.48137 2.06553,-1.1242 2.70091,-1.82211 3.68528,-4.04797 0.8513,-1.92491 1.78063,-3.08036 3.26884,-4.06418 1.14365,-0.75604 3.79017,-3.09172 5.88113,-5.19042 3.10282,-3.11428 4.30733,-3.97339 6.55176,-4.673 1.5125,-0.47146 3.9875,-1.5938 5.5,-2.49409 1.5125,-0.90029 3.65,-1.91848 4.75,-2.26264 3.38502,-1.05907 5.13957,-2.44187 7.0144,-5.52818 2.26675,-3.73147 4.22889,-5.7012 7.1715,-7.19923 2.99807,-1.52627 4.34321,-3.03161 5.03355,-5.63306 1.08385,-4.08435 5.20586,-12.00713 9.61242,-18.47573 0.77997,-1.14496 1.41813,-2.44066 1.41813,-2.87935 0,-0.43868 -1.2375,-2.14369 -2.75,-3.78891 -2.50855,-2.72868 -2.75,-3.19504 -2.75,-5.31164 0,-4.61285 2.97836,-7.11467 9.75,-8.19 5.93212,-0.942 5.74827,-0.74693 5.76098,-6.11264 0.0142,-5.97999 0.8405,-7.82035 5.79945,-12.91613 4.06719,-4.17943 6.11137,-5.44558 9.68957,-6.00166 2.96959,-0.4615 15.3198,0.82181 19.7819,2.05554 1.94254,0.53709 4.86753,0.98122 6.5,0.98695 1.63245,0.006 4.4306,0.34289 6.2181,0.74925 1.7875,0.40635 5.4669,0.95671 8.17645,1.22301 2.74839,0.27013 8.22282,1.38295 12.38239,2.51705 7.45596,2.03285 7.45596,2.03285 13.07416,1.25591 8.01703,-1.10868 11.27132,-0.41576 16.49731,3.51269 3.13597,2.35736 4.89439,2.74845 6.59026,1.46577 0.53381,-0.40376 1.86064,-0.7341 2.94851,-0.7341 1.6427,0 2.65139,0.50849 5.95115,3 2.18526,1.65 4.23343,3.00414 4.55149,3.0092 16.70106,0.26567 15.17408,0.0827 20.32828,2.43546 7.534,3.43904 18.06473,6.96906 27,9.05069 4.87802,1.13642 9.68054,2.59623 11.75,3.57161 3.25076,1.53216 3.98067,1.67153 10.25,1.95722 6.09125,0.27757 7.53074,0.53797 14.75,2.66821 9.23165,2.72405 13.29717,4.76275 17.5,8.77553 2.84116,2.7127 3.25149,2.92529 7.75,4.01533 2.6125,0.63304 6.775,1.88977 9.25,2.79274 2.475,0.90298 6.42309,2.21581 8.77352,2.91741 4.52378,1.35033 9.01317,3.93717 12.64886,7.28844 1.19723,1.10356 3.4383,2.56439 4.98016,3.24626 2.97441,1.31543 3.69822,2.14542 6.09746,6.99189 1.04707,2.11509 2.1794,3.5162 3.75,4.64016 4.66881,3.34109 5.17289,3.90412 7.11037,7.94194 2.51257,5.23633 2.79769,7.31315 1.36571,9.94791 -0.59784,1.1 -1.39605,2.57873 -1.77379,3.28607 -0.55296,1.03544 -0.57565,1.81597 -0.11644,4.00527 0.75151,3.58283 0.24415,5.96907 -1.78571,8.39864 -0.91537,1.09564 -1.93072,3.05009 -2.25635,4.34324 -1.40367,5.57449 -3.93031,8.70637 -8.94362,11.08599 -2.14853,1.01982 -5.28742,3.13019 -7.41285,4.98388 -3.08005,2.68626 -3.73714,3.53237 -3.99486,5.14409 -0.48419,3.02793 -1.79285,4.65318 -5.5017,6.83266 -4.36621,2.56579 -6.18334,3.17016 -9.53143,3.17016 -3.92806,0 -5.8141,0.97047 -7.4424,3.82955 -1.89117,3.32063 -3.97199,5.43676 -7.0594,7.17919 -3.15255,1.77918 -3.50343,2.37498 -4.16741,7.07612 -0.91064,6.4477 -2.43782,10.3421 -5.14141,13.11091 -2.39082,2.4485 -2.39988,2.47058 -2.07637,5.05989 0.27448,2.19684 0.11769,3.03872 -1.00978,5.422 -0.73409,1.55174 -1.46322,4.06654 -1.6203,5.58846 -0.26918,2.60811 -0.17404,2.92907 1.65566,5.58572 1.74751,2.5373 1.9599,3.18773 2.12801,6.51686 0.16202,3.20846 0.41106,4.03157 1.88041,6.21502 1.08706,1.61536 1.69366,3.11674 1.69366,4.19191 0,3.51873 1.11091,6.76573 3.62605,10.59835 3.46626,5.28194 4.37395,7.83939 4.37395,12.32371 0,3.68697 0,3.68697 3.75217,7.83762 3.60533,3.98822 4.73838,6.10687 4.74504,8.87256 0.005,1.83532 0.85323,3.05714 5.3164,7.65274 4.18639,4.31062 4.18639,4.31062 4.18639,8.0265 0,3.34904 0.14933,3.91894 1.51258,5.77268 0.83192,1.13123 1.95462,3.34159 2.49489,4.91192 0.54027,1.57032 1.66839,3.89093 2.50694,5.1569 0.83855,1.26597 1.88029,3.54368 2.31499,5.06158 0.93699,3.27179 3.6676,8.42714 6.01965,11.36498 2.03634,2.54352 2.91007,4.57906 3.38874,7.89483 0.48496,3.35934 0.81627,3.90378 5.03557,8.27503 4.14809,4.29746 4.73839,5.89927 3.76953,10.22863 -0.51945,2.32116 -0.46749,3.00172 0.43345,5.67609 0.56301,1.67129 1.03168,3.66455 1.04147,4.42948 0.01,0.76492 0.3263,2.68148 0.70333,4.25901 0.37704,1.57753 0.56869,3.73922 0.42591,4.80376 -0.14279,1.06454 0.10321,3.53075 0.54667,5.48047 0.44346,1.94971 0.80628,4.41755 0.80628,5.48407 0,1.06652 0.5467,3.50391 1.21489,5.41642 1.11125,3.18064 1.23694,4.46355 1.47331,15.03879 0.2478,11.08686 0.31281,11.69077 1.58351,14.70982 1.14007,2.70871 1.29996,3.70182 1.14508,7.11252 -0.17963,3.95522 -0.18479,3.96832 -2.28063,5.77506 -2.1006,1.81085 -2.1006,1.81085 -1.80466,5.33087 0.25457,3.02797 0.13832,3.82897 -0.83162,5.73021 -0.94231,1.84708 -1.1376,3.07594 -1.18871,7.47998 -0.0612,5.26979 -0.0612,5.26979 -3.37077,12.46889 -4.17411,9.07957 -6.84586,12.82734 -11.14564,15.63437 -3.24936,2.12129 -4.2208,3.50457 -5.55959,7.91653 -0.70155,2.31198 -1.81781,3.46647 -4.64469,4.8038 -1.68106,0.79527 -4.02399,2.56685 -5.82614,4.40538 -1.65789,1.69136 -5.48934,5.1743 -8.51434,7.73987 -3.025,2.5656 -7.08233,6.27035 -9.01628,8.23285 -1.93395,1.96245 -4.28311,4.0181 -5.22034,4.5681 -0.93723,0.55 -2.39241,2.17015 -3.23372,3.60035 -1.66608,2.83225 -6.75946,7.1186 -11.02966,9.2821 -1.375,0.69665 -3.4,1.98625 -4.5,2.8658 -1.1,0.87955 -3.42425,2.24635 -5.16501,3.03725 -1.74075,0.79095 -4.21575,2.19215 -5.5,3.11385 -3.62774,2.6036 -10.16043,6.2586 -13.58501,7.60065 -4.48564,1.7579 -7.27027,3.51285 -10.83268,6.82695 -1.72814,1.60765 -3.22954,2.92305 -3.33645,2.92305 -0.1069,0 -1.36646,0.2223 -2.79902,0.49395 -2.00222,0.37975 -3.59454,1.2369 -6.88442,3.706 -4.93226,3.7017 -6.92583,4.3868 -10.73776,3.6899 -4.09901,-0.74935 -6.61052,-0.2621 -9.73271,1.88825 -2.50915,1.7281 -3.14629,1.9259 -7.33735,2.27745 -2.52427,0.2117 -5.6941,0.73585 -7.04406,1.1647 -1.34995,0.42885 -3.34936,0.77975 -4.44313,0.77975 -2.23583,0 -12.47755,1.55145 -20.24656,3.06695 -2.82929,0.55195 -6.62626,1.6971 -8.43769,2.54475 -3.29352,1.54125 -3.29352,1.54125 -14.67419,0.9417 -11.38066,-0.59955 -11.38066,-0.59955 -15.02447,0.67355 -3.394,1.18575 -4.22917,1.2686 -12.18165,1.2082 -4.69581,-0.0355 -10.22534,-0.2572 -12.28784,-0.4922 z"
     id="path272"
     inkscape:connector-curvature="0" />
</svg>
