<?xml version="1.0" encoding="UTF-8" standalone="no"?>
<!-- Created with Inkscape (http://www.inkscape.org/) -->

<svg
   xmlns:dc="http://purl.org/dc/elements/1.1/"
   xmlns:cc="http://creativecommons.org/ns#"
   xmlns:rdf="http://www.w3.org/1999/02/22-rdf-syntax-ns#"
   xmlns:svg="http://www.w3.org/2000/svg"
   xmlns="http://www.w3.org/2000/svg"
   xmlns:sodipodi="http://sodipodi.sourceforge.net/DTD/sodipodi-0.dtd"
   xmlns:inkscape="http://www.inkscape.org/namespaces/inkscape"
   version="1.1"
   id="svg4713"
   width="1000"
   height="1000"
   viewBox="0 0 1400 1400"
   sodipodi:docname="Saida_lettre_h_bdc.svg"
   inkscape:version="0.92.2 5c3e80d, 2017-08-06">
  <metadata
     id="metadata4719">
    <rdf:RDF>
      <cc:Work
         rdf:about="">
        <dc:format>image/svg+xml</dc:format>
        <dc:type
           rdf:resource="http://purl.org/dc/dcmitype/StillImage" />
        <dc:title></dc:title>
      </cc:Work>
    </rdf:RDF>
  </metadata>
  <defs
     id="defs4717" />
  <sodipodi:namedview
     pagecolor="#ffffff"
     bordercolor="#666666"
     borderopacity="1"
     objecttolerance="10"
     gridtolerance="10"
     guidetolerance="10"
     inkscape:pageopacity="0"
     inkscape:pageshadow="2"
     inkscape:window-width="1026"
     inkscape:window-height="627"
     id="namedview4715"
     showgrid="false"
     scale-x="1.4"
     inkscape:zoom="0.1974349"
     inkscape:cx="428.5"
     inkscape:cy="397.40157"
     inkscape:window-x="115"
     inkscape:window-y="15"
     inkscape:window-maximized="0"
     inkscape:current-layer="svg4713" />
  <path
     style="fill:#000000;stroke-width:0.50000012"
     d="m 622.07054,914.78728 c -1.95968,-0.7198 -6.19481,-3.9593 -8.63002,-6.6012 -2.20284,-2.3898 -4.84841,-8.3221 -5.91055,-13.2535 -0.39314,-1.8253 -0.83282,-6.2438 -0.97706,-9.8188 -0.14424,-3.575 -0.50333,-8.4125 -0.79799,-10.75 -0.42947,-3.4069 -0.37539,-5.5559 0.27259,-10.8328 0.61042,-4.9711 0.72932,-8.6436 0.48564,-15 -0.26033,-6.7906 -0.15161,-9.5176 0.56257,-14.1113 0.75192,-4.8365 0.79713,-6.305 0.30013,-9.75 -0.43644,-3.0253 -0.44817,-6.0888 -0.0461,-12.0559 0.9056,-13.4422 1.06483,-18.8698 0.64394,-21.9496 -0.22198,-1.6244 -0.19173,-4.9708 0.0673,-7.4479 0.4161,-3.9789 0.34242,-4.9951 -0.63805,-8.8004 -1.36332,-5.2912 -1.36758,-6.9783 -0.0306,-12.136 0.84294,-3.2519 1.01605,-5.16 0.87204,-9.6117 -0.15815,-4.8887 -0.34412,-5.8679 -1.55172,-8.1702 -1.71237,-3.2647 -1.72093,-4.9401 -0.0464,-9.095 1.25899,-3.124 1.33092,-3.7791 1.43168,-13.0392 0.0583,-5.3625 0.3806,-11.325 0.71612,-13.25 0.76774,-4.4049 0.80016,-14.3046 0.0514,-15.7037 -0.308,-0.5755 -1.03629,-1.0463 -1.61843,-1.0463 -1.86825,0 -13.8032,3.4937 -17.84582,5.224 -6.26925,2.6834 -17.59381,4.6272 -24.16082,4.147 -3.01858,-0.2206 -4.29827,-0.053 -7.39975,0.9687 -2.57666,0.8489 -5.62735,1.3636 -9.75001,1.6449 -3.87244,0.2642 -7.32972,0.8245 -9.75,1.5802 -2.96745,0.9266 -4.89774,1.1724 -9.25,1.178 -5.06995,0.01 -5.67801,-0.097 -7.77654,-1.3312 -1.32516,-0.7791 -2.61459,-2.0328 -3.08543,-3 -5.55121,-11.4033 -6.32188,-13.3064 -6.64611,-16.4116 -0.18664,-1.7875 -0.76743,-4.8205 -1.29064,-6.74 -1.29171,-4.7388 -1.36961,-17.6577 -0.12588,-20.8749 2.62305,-6.7852 8.15766,-8.5988 15.1746,-4.9725 3.98087,2.0573 10.83127,7.1195 13.9201,10.2865 4.49337,4.607 9.86209,5.4923 17.97207,2.9638 4.08093,-1.2724 4.48505,-1.3087 8.34746,-0.7503 3.55728,0.5143 4.67384,0.4665 9.03464,-0.3871 2.73666,-0.5357 7.29431,-1.4182 10.12812,-1.961 3.04728,-0.5838 6.11154,-1.5196 7.5,-2.2905 2.29308,-1.2732 3.2315,-1.7267 12.20589,-5.8981 5.6373,-2.6204 6.24304,-3.3021 6.87144,-7.7329 0.27855,-1.964 0.95393,-4.7062 1.50085,-6.0937 0.83878,-2.128 0.94859,-3.2487 0.70168,-7.1611 -0.24141,-3.8252 -0.0996,-5.3833 0.80924,-8.8882 1.8821,-7.2588 2.55021,-15.5737 2.00877,-25.00005 -0.11496,-2.00149 0.23329,-5.49193 0.90654,-9.086 1.35574,-7.23745 1.3627,-8.93193 0.052,-12.66105 -0.77334,-2.20027 -0.96402,-3.61076 -0.74122,-5.48267 0.16499,-1.38616 0.47477,-8.03279 0.68839,-14.77029 0.3802,-11.99098 0.41808,-12.31344 1.79171,-15.25 0.81414,-1.7405 1.39996,-3.83967 1.39535,-5 -0.0437,-11.00919 -0.18216,-16.63478 -0.56822,-23.09208 -0.58197,-9.73404 0.0276,-16.8398 1.77135,-20.649 0.69013,-1.50758 1.37781,-3.75758 1.52818,-5 0.47217,-3.90132 2.08454,-11.66695 2.89474,-13.94186 1.52114,-4.27116 3.03822,-14.56529 2.89159,-19.6209 -0.11505,-3.96649 0.0752,-5.49168 1.09143,-8.75001 0.67693,-2.17039 1.47116,-5.29617 1.76498,-6.94617 0.29984,-1.68383 1.49616,-4.86459 2.72682,-7.25 1.20593,-2.3375 2.4891,-5.58912 2.85148,-7.22581 0.74516,-3.36554 5.05603,-10.34246 8.20182,-13.2742 1.03277,-0.9625 2.67749,-2.9875 3.65494,-4.5 0.97745,-1.5125 4.34805,-5.27957 7.49021,-8.37127 7.24436,-7.12802 7.24935,-7.12977 20.32341,-7.12594 10.0896,0.003 11.53072,0.22045 16.87022,2.5461 1.83478,0.79915 4.98478,1.77122 7,2.16016 5.03616,0.97198 6.08618,1.44597 8.80283,3.97367 1.29866,1.20833 3.11235,2.64994 4.03043,3.20358 3.07609,1.85499 16.70181,16.69847 20.59557,22.43624 2.02575,2.98511 5.0244,6.66497 6.66368,8.17747 4.28715,3.9556 8.52816,9.8634 9.77908,13.62242 0.77738,2.33603 1.97694,4.27291 4.58065,7.3962 5.7587,6.90786 10.31264,15.56216 14.03326,26.66878 1.19584,3.56977 3.47229,8.67542 5.70876,12.80369 2.17723,4.01893 3.72081,7.46608 3.72226,8.31262 10e-4,0.79547 -0.37655,2.50383 -0.83981,3.79637 -0.78569,2.19218 -0.78712,2.64569 -0.0213,6.75 0.87524,4.69059 0.81248,5.41087 -1.05875,12.14994 -0.5727,2.0625 -1.24872,6.45 -1.50227,9.75 -0.38715,5.03864 -0.75475,6.76108 -2.29425,10.75 -1.00828,2.6125 -2.7223,6.25127 -3.80893,8.08615 -1.08663,1.83489 -3.73708,7.01547 -5.8899,11.51241 -3.59044,7.49992 -4.15365,8.38082 -6.8087,10.64909 -1.59196,1.36006 -3.55295,3.63959 -4.35776,5.06564 -1.83829,3.25727 -3.14034,4.55657 -7.92845,7.91168 -3.94657,2.76544 -7.0503,6.4121 -10.66024,12.52499 -1.69619,2.8723 -6.62932,7.7893 -12.3575,12.3172 -1.36811,1.0814 -3.4942,3.365 -4.72464,5.0745 -3.12881,4.3472 -9.65119,9.929 -15.19522,13.0041 -2.58237,1.4323 -6.18237,3.8503 -8,5.3732 -1.81764,1.5229 -4.3173,3.4638 -5.5548,4.3132 -1.2375,0.8494 -3.4875,2.7306 -5,4.1805 -5.09451,4.8834 -8.38903,7.3591 -15.33516,11.5236 -6.37755,3.8235 -13.34284,9.5161 -14.68005,11.9976 -1.32158,2.4525 -3.00614,18.458 -3.18021,30.2162 -0.0611,4.125 -0.43185,11.4375 -0.82397,16.25 -0.88583,10.8719 -0.98028,42.7034 -0.14697,49.5342 0.49032,4.0193 0.45893,5.4183 -0.19633,8.75 -0.60142,3.0579 -0.81958,8.3726 -0.95298,23.2158 -0.26702,29.7103 -0.5807,41.9148 -1.16894,45.4801 -0.29673,1.7984 -0.64652,11.7074 -0.77732,22.0199 -0.1308,10.3125 -0.40664,22.2375 -0.61297,26.5 -0.35465,7.3265 -0.45499,7.8866 -1.83601,10.25 -2.15138,3.6818 -7.53624,8.8286 -10.99665,10.5106 -3.27364,1.5912 -7.53347,2.0845 -10.04245,1.1629 z m 36.29704,-291.457 c 1.44637,-1.0299 7.27927,-3.5239 13.45297,-5.7522 2.40201,-0.8669 3.64137,-1.666 4.75,-3.0628 2.6676,-3.3609 4.85906,-5.1066 9.27015,-7.3849 5.47923,-2.8299 9.53889,-5.81297 15.27811,-11.2265 2.50155,-2.35958 5.76405,-5.42544 7.25,-6.81301 1.48596,-1.38757 3.56749,-3.78803 4.62562,-5.33435 3.24215,-4.73796 6.47196,-7.98138 9.56257,-9.60286 3.24446,-1.7022 3.30032,-1.77183 4.84256,-6.03626 0.79283,-2.19224 1.78249,-3.66819 3.68786,-5.5 3.82475,-3.67707 9.05459,-11.73509 9.73099,-14.9933 0.30262,-1.45774 1.65828,-4.78067 3.01257,-7.38429 2.97892,-5.72697 3.98648,-10.88036 3.98379,-20.3761 -0.003,-8.27863 -0.58608,-11.4897 -3.30194,-18.16325 -3.84064,-9.43747 -5.70691,-14.44419 -6.66547,-17.88185 -0.50535,-1.81231 -1.6968,-4.96231 -2.64767,-7 -0.95087,-2.0377 -2.09333,-4.49241 -2.53879,-5.45491 -0.44547,-0.9625 -1.46855,-2.65 -2.27351,-3.75 -0.80496,-1.1 -2.93064,-4.25 -4.72373,-7 -2.19114,-3.36047 -5.21113,-6.96743 -9.20995,-11 -4.12788,-4.16271 -6.4667,-6.97227 -7.63785,-9.17512 -1.38805,-2.61083 -2.15702,-3.43978 -4.32678,-4.66432 -1.4513,-0.81906 -3.26418,-2.27349 -4.02863,-3.23205 -3.89468,-4.8837 -4.94398,-5.44728 -11.19494,-6.01281 -3.8118,-0.34486 -7.9653,0.47554 -9.175,1.81224 -0.44699,0.49391 -0.93575,1.76969 -1.08614,2.83504 -0.15039,1.06536 -0.81828,4.4503 -1.4842,7.52209 -1.30946,6.04028 -4.00535,11.96908 -8.26793,18.18282 -1.23297,1.79733 -2.51786,4.38483 -2.85533,5.75 -0.33746,1.36516 -1.07041,4.16031 -1.62876,6.21143 -1.37359,5.04592 -2.11221,10.72035 -2.21549,17.02069 -0.0616,3.75571 -0.41116,6.3885 -1.22823,9.25 -1.60292,5.61368 -1.70774,7.11799 -0.80137,11.50073 0.99552,4.81386 1.01626,8.60354 0.0596,10.89316 -0.56098,1.3426 -0.71952,3.72481 -0.66127,9.93607 0.0686,7.31344 -0.0444,8.53701 -1.07749,11.67005 -1.04618,3.1727 -1.12974,4.13121 -0.89354,10.25 0.14332,3.7125 0.0879,12.4875 -0.12316,19.5 -0.3371,11.20055 -0.51494,13.11459 -1.46339,15.75001 -1.46072,4.05882 -2.74952,20.29535 -1.96466,24.75115 0.37919,2.1527 0.37217,4.3575 -0.0246,7.7217 -0.82416,6.9881 0.35598,8.8335 3.99301,6.2437 z m 58.70298,225.3941 c -3.29662,-1.2656 -9.73076,-5.4369 -11.84848,-7.6814 -1.9869,-2.1059 -2.73914,-4.3932 -3.12367,-9.4981 -0.28649,-3.8034 -0.1658,-5.2695 0.72031,-8.75 2.6924,-10.5755 3.76109,-13.0675 7.47525,-17.4311 1.2874,-1.5125 3.08599,-3.9875 3.99688,-5.5 0.91089,-1.5125 2.71666,-4.1056 4.01282,-5.7623 3.57026,-4.5636 11.90316,-19.525 13.64041,-24.4908 0.5619,-1.6062 2.1231,-3.9238 4.37641,-6.4969 1.92659,-2.2 5.00011,-6.3625 6.83005,-9.25 1.82993,-2.8875 4.58555,-7.2381 6.12359,-9.6679 1.53804,-2.4298 3.82369,-5.6335 5.07922,-7.1193 2.61189,-3.0909 6.93785,-10.7731 8.14419,-14.4628 0.81335,-2.4877 1.99065,-10.1465 2.80538,-18.25 0.23501,-2.3375 0.81136,-6.275 1.28077,-8.75 1.42356,-7.5058 0.56319,-12.8628 -3.01077,-18.7462 -3.59198,-5.913 -6.1229,-7.3169 -11.72943,-6.5065 -5.52133,0.7982 -12.51747,1.5847 -18.02293,2.0263 -11.03216,0.8849 -13.45916,1.6144 -19.11754,5.7464 -1.30215,0.9509 -2.9593,2.6231 -3.68257,3.716 -1.82707,2.7609 -1.39824,4.0742 1.91283,5.8582 3.1126,1.677 4.64575,3.7791 5.11815,7.0175 0.19161,1.3135 0.89306,3.3729 1.55876,4.5762 1.19183,2.1545 1.50974,4.2001 0.89978,5.7897 -0.47517,1.2382 -2.52416,2.089 -7.32968,3.0434 -4.38174,0.8702 -4.38174,0.8702 -7.74574,-0.8806 -1.8502,-0.963 -4.19611,-1.9027 -5.21314,-2.0884 -2.01319,-0.3676 -6.9346,-3.8205 -9.52364,-6.6818 -0.89497,-0.9892 -2.66684,-2.9396 -3.93748,-4.3343 -2.87571,-3.1566 -3.60686,-4.5995 -4.62881,-9.1346 -1.00918,-4.4785 -1.03266,-8.4769 -0.0694,-11.8244 0.40783,-1.4173 0.95967,-4.1403 1.22631,-6.051 0.5789,-4.1483 1.40439,-5.3921 5.31671,-8.0111 1.63101,-1.0918 3.41547,-2.5525 3.96547,-3.246 0.55,-0.6935 2.32177,-2.7225 3.93727,-4.509 1.61549,-1.7864 3.8475,-4.6007 4.96002,-6.254 3.92441,-5.8317 8.0636,-10.8527 10.07155,-12.2171 2.78226,-1.8905 4.70381,-2.4695 9.46013,-2.8504 4.83837,-0.3874 6.0101,-0.9187 10.44787,-4.7369 3.86383,-3.3245 5.27078,-3.8282 11.93318,-4.2725 4.81,-0.3208 4.81,-0.3208 8.65969,1.8043 3.26786,1.8039 4.619,2.2318 8.93999,2.8312 3.84492,0.5333 6.13013,1.1828 9.34032,2.6546 2.3375,1.0717 5.7392,2.6164 7.55934,3.4327 2.5645,1.1502 3.85994,2.1442 5.75567,4.4163 3.21196,3.8496 10.48877,11.1407 12.62302,12.6478 2.22147,1.5687 3.42062,4.4187 4.02725,9.5716 0.27276,2.3169 0.72966,4.9986 1.01533,5.9593 0.28566,0.9606 0.51939,3.8154 0.51939,6.3439 0,2.5285 0.34379,6.0797 0.76396,7.8914 0.49041,2.1146 0.85479,6.9966 1.01762,13.634 0.24302,9.9063 0.1879,10.7273 -1.3145,19.5779 -0.86249,5.081 -2.10792,10.8916 -2.76762,12.9125 -0.6597,2.021 -1.19946,4.4227 -1.19946,5.3371 0,1.1154 -0.55129,2.3859 -1.67471,3.8596 -2.30102,3.0185 -3.13816,4.8113 -3.47491,7.4418 -0.17732,1.3851 -0.66331,2.534 -1.26898,3 -0.53987,0.4153 -1.77128,1.3672 -2.73645,2.1155 -1.17375,0.9098 -2.02566,2.1756 -2.57261,3.8223 -0.54823,1.6506 -1.64228,3.2737 -3.31956,4.9248 -1.98465,1.9537 -2.89255,3.4374 -4.39188,7.1776 -2.07207,5.1689 -3.44578,7.5539 -6.31569,10.9649 -1.04119,1.2375 -2.76142,4.1321 -3.82272,6.4325 -1.06131,2.3005 -2.5908,5.0174 -3.39887,6.0377 -0.80807,1.0202 -2.23095,3.5265 -3.16196,5.5695 -0.931,2.0429 -2.34971,4.3885 -3.15268,5.2124 -1.9175,1.9673 -6.30626,7.1689 -7.36934,8.7341 -1.14801,1.6903 -1.11938,4.0138 0.0494,4.0138 0.48901,0 2.53663,-0.7896 4.55026,-1.7546 3.48303,-1.6692 3.90805,-1.7518 8.7359,-1.6993 3.88024,0.042 6.42347,-0.2586 10.80468,-1.2779 6.4328,-1.4967 9.06503,-1.4129 12.2483,0.39 5.87628,3.3281 5.20883,8.7076 -2.18891,17.6421 -2.98855,3.6094 -5.3382,5.3587 -13.36471,9.9497 -2.40392,1.375 -5.68678,3.7612 -7.29523,5.3026 -1.88142,1.803 -3.67432,3.0234 -5.02692,3.4218 -1.15636,0.3406 -3.67747,1.4816 -5.60247,2.5356 -2.58185,1.4137 -4.35258,2.0055 -6.75,2.256 -1.7875,0.1868 -5.725,0.9698 -8.75001,1.7401 -4.04862,1.0309 -7.28124,1.4804 -12.25,1.7034 -6.25343,0.2805 -6.97069,0.2181 -9.75,-0.8489 z"
     id="path4723"
     inkscape:connector-curvature="0" />
</svg>
