<?xml version="1.0" encoding="UTF-8" standalone="no"?>
<!-- Created with Inkscape (http://www.inkscape.org/) -->

<svg
   xmlns:dc="http://purl.org/dc/elements/1.1/"
   xmlns:cc="http://creativecommons.org/ns#"
   xmlns:rdf="http://www.w3.org/1999/02/22-rdf-syntax-ns#"
   xmlns:svg="http://www.w3.org/2000/svg"
   xmlns="http://www.w3.org/2000/svg"
   xmlns:sodipodi="http://sodipodi.sourceforge.net/DTD/sodipodi-0.dtd"
   xmlns:inkscape="http://www.inkscape.org/namespaces/inkscape"
   version="1.1"
   id="svg994"
   width="1000"
   height="1000"
   viewBox="0 0 1000 1000"
   sodipodi:docname="Saida_lettre_p_bdc.svg"
   inkscape:version="0.92.2 5c3e80d, 2017-08-06">
  <metadata
     id="metadata1000">
    <rdf:RDF>
      <cc:Work
         rdf:about="">
        <dc:format>image/svg+xml</dc:format>
        <dc:type
           rdf:resource="http://purl.org/dc/dcmitype/StillImage" />
        <dc:title></dc:title>
      </cc:Work>
    </rdf:RDF>
  </metadata>
  <defs
     id="defs998" />
  <sodipodi:namedview
     pagecolor="#ffffff"
     bordercolor="#666666"
     borderopacity="1"
     objecttolerance="10"
     gridtolerance="10"
     guidetolerance="10"
     inkscape:pageopacity="0"
     inkscape:pageshadow="2"
     inkscape:window-width="1025"
     inkscape:window-height="480"
     id="namedview996"
     showgrid="false"
     inkscape:zoom="0.19666667"
     inkscape:cx="459.5"
     inkscape:cy="600"
     inkscape:window-x="0"
     inkscape:window-y="0"
     inkscape:window-maximized="0"
     inkscape:current-layer="svg994" />
  <path
     style="fill:#000000;stroke-width:0.5"
     d="m 439.68739,773.31223 c -3.29542,-0.5214 -3.8576,-0.89725 -9.4773,-6.3358 -5.25822,-5.0887 -6.97396,-8.14985 -7.78269,-13.88555 -0.54416,-3.85935 -0.22662,-5.5857 2.30894,-12.55275 0.70057,-1.925 1.50096,-5.32054 1.77865,-7.54566 0.27768,-2.22511 0.95533,-5.18848 1.50589,-6.58527 0.88578,-2.24726 0.93613,-2.88854 0.43732,-5.57077 -0.4647,-2.49879 -0.4145,-3.80667 0.28585,-7.44663 1.21052,-6.29151 0.7039,-16.30979 -0.99671,-19.71005 -1.38932,-2.77783 -1.47911,-5.00833 -0.3619,-8.99003 0.70047,-2.49644 0.74401,-3.82664 0.30386,-9.2828 -0.44189,-5.47768 -0.73277,-6.83029 -2.07889,-9.66715 -1.50701,-3.17588 -1.58351,-3.65857 -2.06032,-13 -1.69727,-33.25207 -1.76313,-34.06466 -2.97309,-36.67903 -1.05603,-2.28176 -1.11493,-2.85423 -0.74594,-7.25 0.56684,-6.7528 0.342,-12.41828 -0.74499,-18.77261 -1.76727,-10.3311 -1.95263,-12.50511 -1.66509,-19.53048 0.28173,-6.88353 0.25912,-7.09425 -1.08151,-10.08157 -1.12033,-2.49644 -1.32336,-3.53618 -1.11685,-5.71952 0.13881,-1.46764 0.51062,-6.26843 0.82623,-10.66843 0.31562,-4.4 0.94231,-9.9125 1.39263,-12.25 0.45033,-2.3375 0.97332,-7.5125 1.1622,-11.5 0.27842,-5.87774 0.59145,-7.98705 1.65378,-11.14405 1.38047,-4.10242 1.74501,-9.10952 0.79276,-10.88882 -0.85217,-1.59229 -2.8968,-1.14895 -6.95343,1.5077 -3.06776,2.00906 -4.43769,2.57826 -7.27898,3.02437 -2.68727,0.42193 -4.18574,1.00829 -6.45314,2.52517 -1.62423,1.08659 -3.21464,1.97563 -3.53425,1.97563 -1.88261,0 -5.94204,1.77506 -8.36859,3.65932 -1.54452,1.19934 -4.00878,2.69681 -5.47612,3.32769 -1.46734,0.63088 -3.9054,1.98437 -5.4179,3.00774 -4.65269,3.14805 -14.36996,7.49924 -18.75,8.39587 -2.5597,0.52398 -6.79057,0.84324 -11.75,0.88663 -7.61161,0.0666 -7.80803,0.096 -11,1.64489 -3.02014,1.46553 -3.62462,1.5771 -8.54672,1.57747 -4.06958,3e-4 -5.98094,0.24004 -8.25,1.03476 -4.11878,1.44259 -6.94022,1.10185 -8.88326,-1.07279 -1.46242,-1.63673 -1.46242,-1.63673 -1.13796,-7.31767 0.26535,-4.64593 0.18143,-5.95756 -0.46064,-7.19919 -0.43181,-0.83502 -0.79684,-2.36779 -0.81117,-3.40615 -0.0501,-3.63087 1.7116,-5.2923 6.40121,-6.03685 1.6162,-0.2566 4.28854,-1.13851 5.93854,-1.95979 5.21208,-2.5943 10.87995,-5.09039 14.5,-6.38568 1.925,-0.6888 5.975,-2.55919 9,-4.15643 7.78112,-4.10856 12.97589,-6.15052 20.90327,-8.21665 6.79249,-1.77034 7.00912,-1.87061 13.5,-6.2478 3.6282,-2.44671 9.53482,-5.91802 13.12582,-7.714 6.46741,-3.23459 6.54244,-3.29181 7.94126,-6.05654 1.45732,-2.88034 2.52609,-3.87336 6.13378,-5.69905 1.15728,-0.58565 3.96978,-2.86811 6.25,-5.07215 2.71823,-2.62741 5.20801,-4.5147 7.23034,-5.48071 3.64639,-1.74177 4.35274,-2.60546 9.41553,-11.51292 2.1101,-3.7125 4.39389,-7.485 5.07508,-8.38333 1.87968,-2.47888 3.00626,-5.42607 3.8807,-10.1522 0.43612,-2.35705 1.32966,-5.86356 1.98565,-7.79227 0.656,-1.9287 1.34677,-4.50021 1.53506,-5.71447 0.1883,-1.21425 0.66046,-3.22023 1.04927,-4.45773 0.38881,-1.2375 1.03284,-3.9695 1.43118,-6.07111 0.39834,-2.10161 1.40293,-5.16556 2.23243,-6.80877 0.82949,-1.64321 2.09571,-5.0774 2.81383,-7.63152 1.6046,-5.70704 2.61123,-7.70667 5.07943,-10.09016 2.05329,-1.98281 7.97856,-4.9588 11.77787,-5.91547 1.27767,-0.32173 4.30674,-0.50576 6.73127,-0.40896 4.88747,0.19512 7.76296,1.31754 12.44923,4.85943 4.31985,3.26495 5.3422,6.24682 4.16001,12.13342 -0.44838,2.23266 -0.40257,3.22671 0.25,5.42414 1.17089,3.94285 1.00428,5.54828 -0.9434,9.09031 -3.32602,6.04868 -5.71038,11.34201 -6.53004,14.49686 -0.97852,3.76632 -0.80745,9.05623 0.32964,10.19332 0.67869,0.6787 0.99363,0.58018 2.97591,-0.93095 3.45967,-2.63737 5.21634,-3.35572 9.36435,-3.82932 2.11889,-0.24192 4.48593,-0.68092 5.26008,-0.97554 0.81516,-0.31023 5.2647,-0.53568 10.57233,-0.53568 7.81766,0 9.6511,0.1502 12.47325,1.02188 3.18198,0.98281 3.4344,0.9903 6.60205,0.19588 2.42535,-0.60825 4.25834,-0.73559 6.95329,-0.48305 6.12299,0.57377 20.83526,-0.65334 25.24153,-2.10533 2.79545,-0.92117 4.64091,-1.20704 7.25,-1.12305 1.925,0.062 4.30857,0.13242 5.29681,0.15654 0.98825,0.0241 3.2222,-0.59581 4.96434,-1.37763 3.06177,-1.37404 3.32732,-1.40743 7.95319,-0.99998 2.63211,0.23183 7.14816,0.37961 10.03566,0.3284 3.05948,-0.0543 6.75371,0.21551 8.85392,0.64661 1.98215,0.40685 5.24465,0.74131 7.25,0.74323 4.07936,0.004 10.90502,1.47057 13.86018,2.97818 1.06972,0.54574 2.99648,1.90233 4.28168,3.01466 1.28519,1.11233 3.61191,2.89457 5.17047,3.96054 5.91998,4.04891 7.12952,6.33182 7.47252,14.10372 0.1835,4.15799 0.0483,5.87065 -0.62269,7.89097 -0.76811,2.31256 -0.79096,3.12117 -0.22021,7.79109 0.55829,4.56809 0.5279,6.03067 -0.24639,11.85903 -0.6582,4.95453 -1.25589,7.4613 -2.34601,9.8394 -0.80453,1.75511 -1.59334,4.11761 -1.7529,5.25 -0.52817,3.74832 -1.19547,5.10915 -3.66667,7.47747 -3.05565,2.92841 -4.54784,5.48095 -6.18586,10.58144 -1.58238,4.92728 -6.18223,12.77735 -9.15374,15.62171 -2.73385,2.61688 -3.07845,3.50119 -3.61503,9.27698 -0.33446,3.60005 -0.76557,5.26865 -1.98119,7.66811 -1.65992,3.27644 -5.12344,14.20417 -5.48443,17.30389 -0.27893,2.39507 0.4397,2.69565 4.52368,1.89219 6.1138,-1.20282 14.68574,-5.98847 20.68298,-11.54716 2.76004,-2.55821 4.46754,-3.6709 7.52379,-4.90287 6.71146,-2.7054 11.02665,-5.82651 14.88218,-10.76408 2.05879,-2.63657 4.49417,-5.09244 6.2061,-6.25831 1.54969,-1.05538 3.26762,-2.42017 3.81762,-3.03287 1.44441,-1.60907 4.43979,-3.00759 6.44172,-3.00759 2.13394,0 4.52752,1.88104 5.26978,4.14137 0.62764,1.91127 1.10387,33.95958 0.55746,37.51449 -0.50371,3.27714 -1.76606,4.82629 -5.37335,6.59414 -4.1378,2.02785 -4.74446,2.66933 -7.41557,7.84108 -2.34635,4.54297 -3.90862,6.08374 -6.70985,6.61756 -7.42204,1.41438 -6.9063,1.17989 -9.08677,4.13149 -2.45046,3.31706 -4.64978,4.40465 -9.89281,4.89216 -5.45998,0.50767 -8.38459,1.78138 -11.40342,4.96638 -2.596,2.7389 -5.46004,4.20608 -10.29484,5.27381 -3.00378,0.66337 -14.67435,1.52752 -20.62943,1.52752 -5.93969,0 -7.77962,-0.53562 -12.98527,-3.78016 -2.02054,-1.25935 -5.54209,-3.07763 -7.82568,-4.04064 -6.208,-2.61796 -10.73574,-6.44015 -13.09754,-11.05659 -0.72577,-1.41862 -0.78912,-2.76564 -0.49378,-10.5 0.21051,-5.51332 0.60578,-9.62984 1.04398,-10.87261 0.38786,-1.1 1.02534,-5.0084 1.41662,-8.68532 0.6236,-5.86 0.9522,-7.21798 2.66182,-11 1.07273,-2.37308 2.21248,-5.41367 2.53279,-6.75688 0.32031,-1.34321 0.9938,-3.25571 1.49665,-4.25 0.50286,-0.99429 1.17313,-3.02871 1.4895,-4.52092 0.31638,-1.49221 1.44789,-4.30471 2.51446,-6.25 1.06657,-1.94529 2.17537,-4.40984 2.46399,-5.47677 0.28862,-1.06695 1.37859,-3.96127 2.42216,-6.43185 1.48379,-3.51281 2.62779,-5.29022 5.24828,-8.15417 3.73529,-4.08233 5.50027,-7.18061 6.33699,-11.12408 0.68804,-3.24272 1.55279,-4.9653 3.31326,-6.60001 2.64348,-2.45463 3.45713,-4.83755 4.21764,-12.35202 0.36372,-3.59396 0.8278,-5.32949 2.11861,-7.92312 1.65285,-3.32111 1.65285,-3.32111 0.56033,-4.20578 -1.60023,-1.29578 -13.36323,-0.87074 -20.70023,0.74799 -2.91638,0.64342 -9.32887,1.53964 -14.25,1.9916 -4.92113,0.45196 -9.457,0.92125 -10.07973,1.04287 -0.62272,0.12163 -2.35715,1.33044 -3.85429,2.68625 -3.5893,3.25048 -4.9146,3.8788 -9.34055,4.42829 -2.24136,0.27827 -4.74561,0.98396 -6.31644,1.77996 -1.53445,0.77756 -3.88615,1.44875 -5.72961,1.63526 -2.31464,0.23418 -3.58146,0.66803 -4.87688,1.67018 -3.89976,3.0169 -5.47779,3.17595 -10.05129,1.01302 -2.84589,-1.34589 -3.4727,-1.45865 -6.66989,-1.19991 -2.25748,0.18268 -5.16792,-0.003 -8.07842,-0.51681 -3.73949,-0.65951 -5.45731,-0.70924 -9.64719,-0.27927 -6.78769,0.69655 -7.37319,0.95608 -8.0802,3.58173 -0.31755,1.17927 -0.97432,2.9329 -1.45948,3.89695 -0.48517,0.96404 -1.04447,2.86486 -1.2429,4.22404 -0.19841,1.35917 -0.79049,4.15141 -1.3157,6.20498 -0.55478,2.16918 -0.95493,5.43425 -0.95493,7.79189 0,5.98719 -0.88649,12.32487 -1.92777,13.7819 -2.16564,3.03035 -7.60287,4.01481 -9.83665,1.78103 -0.98576,-0.98576 -1.2083,-1.69281 -1.16318,-3.69558 0.0495,-2.1977 -0.21239,-2.85243 -2.32556,-5.81378 -1.30974,-1.83544 -2.5402,-3.15368 -2.73436,-2.92942 -0.19415,0.22426 -0.86804,3.10623 -1.49753,6.40437 -1.0521,5.51237 -1.09544,6.38047 -0.53666,10.75 0.58842,4.60118 0.56648,4.87795 -0.6852,8.64383 -0.7112,2.13974 -1.29309,5.03226 -1.29309,6.42782 0,1.39557 -0.36249,3.91987 -0.80554,5.60956 -1.07561,4.10211 -0.65734,9.4049 1.1297,14.32217 1.36282,3.75 1.36282,3.75 1.42381,20 0.0788,20.99631 0.74598,29.74473 2.61977,34.35159 1.17675,2.89313 1.35624,3.95596 1.20724,7.14841 -0.51405,11.01382 0.30513,22.3568 2.20267,30.5 1.29783,5.56959 1.34295,6.27555 1.438,22.5 0.0796,13.59026 0.24999,17.31592 0.90312,19.75 0.44274,1.65 0.95084,6.0375 1.12913,9.75 0.17828,3.7125 0.53089,8.26009 0.78359,10.10577 0.36075,2.63488 0.24292,4.81269 -0.54848,10.1378 -0.55436,3.73012 -0.96934,8.18252 -0.92218,9.89423 0.1056,3.83254 -0.84093,19.33274 -1.24343,20.3622 -0.16129,0.4125 -0.62753,3.67845 -1.03611,7.25765 -0.84032,7.36145 -1.5722,9.8415 -3.83361,12.99045 -1.33034,1.85245 -1.56981,2.61765 -1.51802,4.85065 0.0338,1.4582 -0.17526,3.37125 -0.46462,4.25125 -0.72771,2.21315 -3.46089,4.46155 -6.53237,5.37365 -3.16205,0.93905 -10.75373,1.3636 -14.31309,0.80045 z m 23.6077,-247.25138 c -0.675,-0.675 -1.22728,-1.78371 -1.22728,-2.46382 0,-2.62372 1.1157,-9.0823 1.7963,-10.39843 2.14273,-4.14359 7.24379,-2.50675 9.58224,3.07477 1.06602,2.54441 0.61013,6.67372 -0.91999,8.33304 -2.62422,2.8458 -7.13,3.55572 -9.23127,1.45444 z"
     id="path1004"
     inkscape:connector-curvature="0" />
</svg>
