<?xml version="1.0" encoding="UTF-8" standalone="no"?>
<!-- Created with Inkscape (http://www.inkscape.org/) -->

<svg
   xmlns:dc="http://purl.org/dc/elements/1.1/"
   xmlns:cc="http://creativecommons.org/ns#"
   xmlns:rdf="http://www.w3.org/1999/02/22-rdf-syntax-ns#"
   xmlns:svg="http://www.w3.org/2000/svg"
   xmlns="http://www.w3.org/2000/svg"
   xmlns:sodipodi="http://sodipodi.sourceforge.net/DTD/sodipodi-0.dtd"
   xmlns:inkscape="http://www.inkscape.org/namespaces/inkscape"
   version="1.1"
   id="svg896"
   width="1000"
   height="1000"
   viewBox="0 0 1000 1000"
   sodipodi:docname="Saida_lettre_o_bdc.svg"
   inkscape:version="0.92.2 5c3e80d, 2017-08-06">
  <metadata
     id="metadata902">
    <rdf:RDF>
      <cc:Work
         rdf:about="">
        <dc:format>image/svg+xml</dc:format>
        <dc:type
           rdf:resource="http://purl.org/dc/dcmitype/StillImage" />
        <dc:title></dc:title>
      </cc:Work>
    </rdf:RDF>
  </metadata>
  <defs
     id="defs900" />
  <sodipodi:namedview
     pagecolor="#ffffff"
     bordercolor="#666666"
     borderopacity="1"
     objecttolerance="10"
     gridtolerance="10"
     guidetolerance="10"
     inkscape:pageopacity="0"
     inkscape:pageshadow="2"
     inkscape:window-width="1050"
     inkscape:window-height="597"
     id="namedview898"
     showgrid="false"
     inkscape:zoom="0.2158724"
     inkscape:cx="714"
     inkscape:cy="600"
     inkscape:window-x="0"
     inkscape:window-y="0"
     inkscape:window-maximized="0"
     inkscape:current-layer="svg896" />
  <path
     style="fill:#000000;stroke-width:0.5"
     d="m 409.20625,746.74562 c -3.1625,-0.1727 -7.62977,-0.7391 -9.92726,-1.25875 -3.90568,-0.8834 -4.65332,-0.8995 -11.5,-0.24775 -9.82681,0.9355 -11.73369,0.84645 -15.57934,-0.7273 -5.70292,-2.33385 -10.99052,-3.27845 -21.00071,-3.7518 -6.07012,-0.28705 -9.91949,-0.692 -11.03279,-1.1607 -0.94045,-0.39595 -2.9474,-2.0071 -4.4599,-3.58035 -3.9919,-4.15222 -6.05019,-5.22014 -10.79298,-5.5998 -4.68102,-0.37471 -6.49764,-1.03611 -9.41764,-3.42884 -1.19404,-0.97842 -4.26013,-2.68507 -6.81353,-3.79253 -5.15783,-2.23708 -6.68222,-3.18559 -9.97998,-6.20979 -1.23977,-1.13693 -3.95891,-2.88711 -6.04253,-3.88929 -3.91975,-1.88532 -4.60466,-2.60012 -7.64805,-7.98173 -0.87244,-1.54274 -2.33498,-3.04606 -4.19716,-4.31421 -3.72923,-2.53959 -4.20564,-3.11715 -6.24272,-7.56796 -1.72495,-3.76886 -3.15421,-5.36261 -9.57036,-10.67183 -2.98749,-2.47209 -4.09933,-4.71763 -5.03317,-10.16529 -0.81148,-4.7338 -0.64394,-4.48392 -5.84255,-8.71434 -1.59931,-1.30146 -1.59931,-1.30146 -1.78475,-13.25 -0.17555,-11.31174 -0.25712,-12.17505 -1.53065,-16.19854 -1.1987,-3.78713 -1.33066,-4.90347 -1.21164,-10.25 0.13262,-5.95711 0.12099,-6.02617 -1.6265,-9.65979 -2.08356,-4.33241 -3.30639,-9.17477 -3.38213,-13.39301 -0.0476,-2.64712 0.19576,-3.50863 1.83072,-6.48309 1.21355,-2.20778 2.06529,-4.58495 2.38993,-6.67018 0.27743,-1.78193 1.14714,-4.84502 1.9327,-6.80686 1.03851,-2.59356 1.57248,-5.096 1.95666,-9.16988 0.36994,-3.92294 0.92818,-6.60951 1.86178,-8.96005 1.20828,-3.04212 1.36015,-4.17821 1.61843,-12.10714 0.24858,-7.63143 0.42513,-9.03764 1.38105,-11 1.71666,-3.52405 6.50766,-10.9597 9.12621,-14.16391 2.31018,-2.82688 2.38959,-3.03477 2.65867,-6.96068 0.43953,-6.41252 2.5767,-10.17257 9.83303,-17.2998 5.77716,-5.67439 5.77716,-5.67439 5.64678,-9.25 -0.13953,-3.82627 -0.0913,-3.93927 6.04094,-14.16026 0.6879,-1.14656 2.81564,-3.25575 4.72832,-4.6871 2.52204,-1.88735 4.13179,-3.61862 5.85842,-6.30065 1.43394,-2.22739 3.4923,-4.57996 5.1755,-5.91525 2.33062,-1.84887 3.17103,-2.98848 5.06095,-6.86265 2.1611,-4.43007 2.45184,-4.77849 6.26625,-7.5094 2.2,-1.57508 5.75736,-3.826 7.90526,-5.00204 6.83107,-3.74025 6.99603,-3.88662 8.14647,-7.22822 1.33409,-3.87508 2.86758,-6.35692 4.87289,-7.88644 2.37984,-1.8152 4.13545,-2.3437 9.08414,-2.73464 4.09643,-0.32361 4.83458,-0.54976 8.07154,-2.4728 1.95953,-1.16413 6.31684,-3.09955 9.68293,-4.30093 3.36608,-1.20138 6.45778,-2.52195 6.87044,-2.93462 0.41267,-0.41266 1.22641,-1.94096 1.80832,-3.39623 1.93069,-4.82835 8.2774,-8.25268 16.317,-8.80373 5.00156,-0.34281 6.52257,-1.25276 8.95935,-5.35998 1.83295,-3.08945 1.82122,-3.011 1.54498,-10.32759 -0.0894,-2.36738 0.13304,-3.85039 0.78287,-5.2198 1.68494,-3.55075 18.75913,-21.25004 21.95381,-22.75755 4.14546,-1.95618 7.92242,-0.92924 12.96855,3.52608 2.96855,2.62099 2.96855,2.62099 6.83267,2.28392 5.37605,-0.46896 7.20625,0.14274 11.16727,3.73237 1.81579,1.64554 3.5367,2.9919 3.82424,2.9919 0.28755,0 2.13932,0.75443 4.11504,1.67651 3.96375,1.8499 8.96467,5.71335 13.65292,10.54755 3.64822,3.76178 6.30339,4.92045 13.84344,6.04103 2.80273,0.41653 5.84642,1.00111 6.76375,1.29905 2.67299,0.86817 5.0242,3.26305 5.65224,5.75721 0.56196,2.23172 2.33853,4.15891 3.87231,4.20059 1.47509,0.0401 4.50525,1.33195 7.9266,3.37938 2.78653,1.66754 4.65566,2.3014 10.63097,3.60521 7.25,1.58194 7.25,1.58194 20,1.28217 7.0125,-0.16487 15.94388,-0.43107 19.84752,-0.59156 8.45499,-0.3476 10.62097,0.0346 17.14631,3.02572 2.62109,1.20147 6.56349,2.63078 8.76089,3.17626 2.1974,0.54547 5.27061,1.46182 6.82935,2.03633 2.65412,0.97823 3.17039,1.00698 8.13043,0.45271 5.44891,-0.6089 5.24394,-0.63116 11.35056,1.2325 1.48998,0.45472 2.34072,0.38419 4.75,-0.39382 2.22516,-0.71854 4.44641,-0.95126 9.18494,-0.96229 6.9413,-0.0161 8.1786,0.37504 12.4358,3.93179 2.9177,2.43771 4.87965,2.70498 10.0642,1.37104 2.3375,-0.60142 5.66855,-1.08762 7.4024,-1.08044 2.7927,0.0115 3.523,-0.21046 6.4007,-1.94611 3.87135,-2.3349 8.08515,-3.22489 15.4547,-3.26415 4.64305,-0.0248 5.27075,0.0943 8.6175,1.63409 3.6097,1.66078 3.6097,1.66078 7.4183,0.81344 3.1301,-0.69638 5.1247,-0.78386 11.19635,-0.49108 7.3877,0.35626 7.3877,0.35626 10.8239,-1.30168 3.3402,-1.61163 3.70845,-1.67375 13.18615,-2.2242 6.5948,-0.38301 10.458,-0.83179 11.93785,-1.38676 4.7415,-1.77816 8.3177,-0.67406 10.1629,3.13765 1.0574,2.18428 1.0805,2.71729 1.12695,26.01092 0.0523,26.24264 -0.037,27.18078 -2.8501,29.90726 -2.49985,2.42293 -10.74,5.12368 -15.6327,5.12368 -2.0561,0 -6.7211,0.58414 -10.36665,1.29808 -7.9796,1.56274 -11.16565,1.65192 -15.12825,0.42348 -2.19015,-0.67896 -4.68725,-0.94431 -9.25,-0.98294 -3.4375,-0.0291 -7.9415,-0.23349 -10.00885,-0.4542 -3.3049,-0.35284 -4.24085,-0.24988 -7.75,0.85255 -6.7187,2.11072 -11.94965,2.5564 -25.8192,2.19978 -8.39735,-0.21591 -13.72375,-0.13365 -16.3191,0.25204 -2.11905,0.31491 -6.77785,0.57788 -10.35285,0.58438 -6.05639,0.011 -6.81642,-0.0987 -11.1363,-1.6071 -5.81624,-2.03093 -13.20187,-3.32012 -18.24451,-3.18465 -2.13445,0.0573 -5.24674,-0.21439 -6.9162,-0.60385 -2.57752,-0.60129 -3.52207,-0.60628 -6.26182,-0.0331 -2.32073,0.48556 -4.09873,0.54793 -6.33381,0.22217 -10.06745,-1.4673 -12.93308,-2.03288 -15.85736,-3.1297 -1.7875,-0.67044 -5.05246,-1.45848 -7.25547,-1.7512 -2.23738,-0.29729 -6.06576,-1.32791 -8.67291,-2.33479 -2.77095,-1.07014 -6.27327,-1.99525 -8.61953,-2.27679 -2.17365,-0.26081 -5.80834,-0.73951 -8.07709,-1.06376 -4.60969,-0.65882 -19.88668,-1.14142 -21.70286,-0.68559 -0.64468,0.1618 -1.17214,0.60706 -1.17214,0.98946 0,0.38239 2.53235,2.71692 5.62744,5.18783 6.46141,5.15836 7.24945,6.16087 12.85065,16.34785 2.26808,4.125 5.01243,8.625 6.09855,10 6.10021,7.72273 9.41062,13.7304 9.41847,17.09245 0.006,2.79058 0.69122,4.43916 2.82438,6.80031 2.93715,3.25107 3.2449,4.53648 3.36576,14.05801 0.13546,10.67149 1.21774,17.64569 3.37782,21.76651 1.26159,2.40676 1.60836,3.81019 1.94122,7.85645 0.27686,3.36559 0.83209,6.03509 1.75255,8.42627 1.2704,3.3002 1.32863,3.81396 1.02019,9 -0.20524,3.45065 -0.11818,6.46818 0.23365,8.09839 0.58051,2.68988 0.5981,2.57718 -1.70359,10.91857 -0.58589,2.12332 -0.59013,3.1008 -0.0271,6.25 0.90582,5.06655 0.88109,14.6641 -0.0444,17.23304 -1.05452,2.92709 -0.89574,4.23849 0.81726,6.75 1.27689,1.87211 1.49575,2.60568 1.30313,4.36778 -0.30292,2.7711 -1.27485,4.17138 -4.6007,6.62833 -4.06154,3.00043 -4.95283,5.39529 -4.03338,10.8375 0.50049,2.96234 -0.75427,5.57195 -4.04523,8.41316 -1.52573,1.31722 -3.76517,3.94119 -4.97654,5.83106 -1.60927,2.51061 -2.95229,3.91575 -4.98623,5.21684 -1.74967,1.11925 -3.31814,2.64897 -4.22238,4.11803 -2.446,3.9739 -2.98474,4.57259 -5.79197,6.43649 -2.31425,1.53657 -2.99807,2.37673 -4.5613,5.60418 -2.54947,5.2636 -3.32842,6.29016 -6.56138,8.64704 -1.55477,1.13345 -3.92604,3.276 -5.26949,4.76122 -1.34345,1.48522 -3.69519,3.53019 -5.22608,4.54438 -1.5309,1.01419 -3.52109,2.85649 -4.42266,4.09399 -5.11864,7.02592 -6.72666,8.37225 -15.22173,12.74461 -6.17517,3.17832 -20.64377,9.04305 -27.6869,11.22269 -1.925,0.5957 -6.36395,1.517 -9.86433,2.0473 -9.22175,1.39705 -14.84044,3.1212 -20.38567,6.2555 -2.6125,1.47665 -6.09102,3.03245 -7.73005,3.45735 -3.07165,0.7963 -4.01868,0.8158 -13.76995,0.28335 z m 5.25,-64.00226 c 7.03017,-2.32386 16.31661,-4.60616 20.5,-5.03822 5.31007,-0.54841 6.27135,-0.97588 8.08728,-3.59626 0.75203,-1.08518 2.72754,-3.00689 4.39002,-4.27047 1.66249,-1.26358 4.20401,-3.36229 5.64782,-4.66379 4.03285,-3.63534 7.51725,-5.13656 11.98986,-5.16572 4.2332,-0.0276 4.78095,-0.44833 6.38263,-4.90247 1.19824,-3.33221 3.21269,-5.52531 6.86162,-7.47017 3.57583,-1.9059 5.01741,-3.87745 6.14305,-8.40144 1.53988,-6.18882 4.12433,-9.59547 7.84716,-10.3436 2.53151,-0.50872 3.08546,-1.70492 2.73106,-5.89749 -0.17432,-2.06219 -0.6923,-5.24371 -1.15106,-7.07006 -0.73475,-2.92504 -0.76683,-4.2613 -0.2693,-11.21656 0.39868,-5.57344 0.87977,-8.80601 1.63558,-10.99 0.8273,-2.39054 0.99357,-3.67824 0.73127,-5.66318 -0.18673,-1.41301 -0.50666,-5.15661 -0.71096,-8.31911 -0.3712,-5.74626 -0.37345,-5.75408 -3.46874,-12.03593 -3.65128,-7.41024 -3.89546,-9.31449 -1.75423,-13.68037 1.34307,-2.73846 1.34307,-2.73846 -0.79294,-8.13608 -1.1748,-2.96869 -3.03911,-6.91077 -4.14292,-8.76018 -2.39612,-4.0147 -2.93615,-6.08409 -2.34266,-8.97698 1.13333,-5.52425 1.15259,-5.2838 -0.74723,-9.33224 -1.30444,-2.77972 -1.96965,-5.07666 -2.3469,-8.10375 -0.39959,-3.20634 -1.07485,-5.42951 -2.80182,-9.22447 -4.14935,-9.11806 -7.4925,-14.87536 -10.16192,-17.5 -2.54265,-2.5 -2.54265,-2.5 -8.14966,-2.81723 -4.93248,-0.27906 -6.13573,-0.53888 -10.00193,-2.15967 -2.41721,-1.01334 -5.14768,-1.96459 -6.06771,-2.11389 -1.55082,-0.25167 -1.71034,-0.14889 -2.18799,1.40966 -1.52425,4.97358 -1.6531,6.95555 -1.31456,20.2206 0.4032,15.79886 0.37494,17.80574 -0.28411,20.17818 -0.80709,2.90531 -0.57941,5.77686 0.77885,9.82306 1.15454,3.4393 1.22073,4.03881 0.67745,6.13553 -0.55445,2.13976 -0.92431,9.01016 -1.09411,20.32376 -0.0582,3.88069 0.11857,4.928 1.28478,7.60994 1.82878,4.20566 1.79648,6.77282 -0.10922,8.67852 -1.34054,1.34054 -2.95126,1.82178 -5.03846,1.50538 -0.4125,-0.0625 -4.15752,-0.15423 -8.32227,-0.20377 -6.79614,-0.0808 -7.6858,-0.19256 -8.68008,-1.09007 -1.21973,-1.10102 -6.63438,-8.15751 -7.59704,-9.90063 -0.35554,-0.64377 -0.74932,-4.41467 -0.95023,-9.09937 -0.18869,-4.4 -0.58812,-10.025 -0.88763,-12.5 -0.2995,-2.475 -0.76347,-7.5375 -1.03103,-11.25 -0.26757,-3.7125 -0.94095,-8.65216 -1.49641,-10.97702 -0.79934,-3.34564 -0.94535,-5.13671 -0.70024,-8.58977 0.27122,-3.82105 0.16875,-4.70995 -0.82525,-7.15902 -1.22329,-3.014 -1.22053,-3.24791 0.14552,-12.31302 0.3969,-2.63386 1.19932,-5.86871 1.78315,-7.18856 2.25491,-5.09761 1.25943,-6.55845 -4.38861,-6.44018 -16.95619,0.35507 -16.35336,0.2923 -18.00524,1.87485 -0.83663,0.80151 -3.37601,2.37651 -5.64308,3.5 -3.80496,1.88563 -4.30944,2.32088 -6.55993,5.6597 -1.75999,2.61111 -3.5022,4.40511 -6.26481,6.45098 -2.10475,1.55871 -5.06432,4.10144 -6.57682,5.65053 -1.5125,1.54908 -4.325,3.6773 -6.25,4.72937 -4.09799,2.23969 -10.12325,6.47165 -11.37608,7.99023 -0.48185,0.58405 -1.6631,3.5531 -2.625,6.59791 -1.44098,4.56123 -1.74892,6.30281 -1.74892,9.89105 0,5.54015 -0.6252,6.99341 -4.4337,10.30593 -4.23513,3.6836 -4.98865,6.9779 -3.28066,14.3426 1.26845,5.46941 0.2405,8.47353 -3.92602,11.47365 -3.47161,2.49975 -3.7075,3.30087 -2.61219,8.87152 1.06522,5.41764 0.6823,8.01046 -1.74701,11.82925 -0.78724,1.2375 -1.91594,3.55149 -2.50823,5.1422 -0.5923,1.5907 -1.82234,3.86876 -2.73343,5.06236 -0.91109,1.19359 -1.90453,2.63356 -2.20764,3.19994 -0.77555,1.44912 -0.68891,5.40752 0.26475,12.0955 0.81399,5.70842 0.81188,5.7717 -0.29132,8.75 -1.67105,4.51134 -1.76254,5.82333 -0.56922,8.16244 0.57648,1.12999 1.29622,3.24321 1.59942,4.69605 0.8832,4.23199 9.68164,19.79739 15.57599,27.55564 3.34112,4.39764 4.43785,5.19804 9.66536,7.05385 2.02002,0.71712 5.52085,2.42633 7.77962,3.79825 4.50416,2.7357 5.85627,3.19788 12.49809,4.27211 2.86036,0.46263 5.58783,1.28366 7.54293,2.27059 3.06416,1.54679 9.50627,2.93551 13.63326,2.93892 1.1,10e-4 3.18367,-0.44824 4.63037,-0.9981 1.4467,-0.54986 3.77562,-0.99975 5.17538,-0.99975 3.09034,0 12.43765,2.62629 15.19425,4.26908 2.46111,1.4667 4.13571,1.51682 8,0.23946 z"
     id="path906"
     inkscape:connector-curvature="0" />
</svg>
