<?xml version="1.0" encoding="UTF-8" standalone="no"?>
<svg
   xmlns:dc="http://purl.org/dc/elements/1.1/"
   xmlns:cc="http://creativecommons.org/ns#"
   xmlns:rdf="http://www.w3.org/1999/02/22-rdf-syntax-ns#"
   xmlns:svg="http://www.w3.org/2000/svg"
   xmlns="http://www.w3.org/2000/svg"
   viewBox="0 0 1000 1000"
   height="1000"
   width="1000"
   id="svg67"
   version="1.1">
  <metadata
     id="metadata73">
    <rdf:RDF>
      <cc:Work
         rdf:about="">
        <dc:format>image/svg+xml</dc:format>
        <dc:type
           rdf:resource="http://purl.org/dc/dcmitype/StillImage" />
        <dc:title></dc:title>
      </cc:Work>
    </rdf:RDF>
  </metadata>
  <defs
     id="defs71" />
  <path
     id="path77"
     d="m 490.09414,644.30799 c -0.55,-0.12755 -2.8,-0.80265 -5,-1.50025 -3.46083,-1.09735 -5.41531,-1.3281 -14.5,-1.7118 -21.09424,-0.89095 -24.18083,-1.1849 -28,-2.66672 -1.925,-0.74689 -5.86462,-1.78272 -8.75472,-2.30183 -2.89009,-0.51912 -6.69493,-1.52906 -8.45518,-2.24432 -1.76027,-0.71526 -6.59565,-2.18032 -10.74529,-3.25569 -5.37476,-1.39285 -8.8391,-2.62476 -12.04481,-4.28309 -2.475,-1.28034 -6.8625,-3.37666 -9.75,-4.65849 -2.8875,-1.28184 -7.725,-3.90954 -10.75,-5.83933 -3.025,-1.92978 -6.54728,-4.16838 -7.82729,-4.97466 -7.95709,-5.01218 -10.94506,-7.32604 -12.17874,-9.43115 -0.71044,-1.21227 -2.48738,-3.22562 -3.94876,-4.47412 -1.50322,-1.28424 -3.55282,-3.77779 -4.7198,-5.7421 -1.13451,-1.90965 -3.09632,-4.67506 -4.35959,-6.14535 -1.26327,-1.47029 -2.88324,-3.68575 -3.59995,-4.92325 -0.71671,-1.2375 -2.81574,-3.86063 -4.66452,-5.82918 -2.98142,-3.17454 -3.42556,-3.90937 -3.92875,-6.5 -0.31203,-1.60645 -1.45726,-4.83692 -2.54497,-7.17883 -1.0877,-2.34191 -1.983,-4.92941 -1.98956,-5.75 -0.0229,-2.85841 -0.9123,-5.32587 -3.56651,-9.89399 -2.67156,-4.598 -2.67156,-4.598 -2.72431,-9.848 -0.0462,-4.59744 -0.22334,-5.62289 -1.42523,-8.25 -1.05488,-2.30575 -1.46173,-4.17303 -1.75811,-8.06896 -0.2121,-2.78793 -0.54463,-5.32624 -0.73898,-5.6407 -0.58254,-0.94258 -1.35733,-12.83622 -1.28625,-19.74503 0.0577,-5.61236 0.29296,-7.33098 1.80246,-13.16966 1.73605,-6.71497 1.73605,-6.71497 0.65579,-10.54531 -1.00552,-3.56529 -1.03705,-4.14776 -0.45566,-8.41737 0.48394,-3.55403 0.49353,-5.33976 0.0426,-7.92952 -0.44,-2.52667 -0.44182,-4.01808 -0.007,-6.11043 0.36694,-1.76751 0.43101,-3.96157 0.17728,-6.07047 -0.54765,-4.55176 -0.29734,-6.81217 1.10565,-9.98458 0.66136,-1.49543 1.55607,-4.09125 1.98828,-5.76847 0.43219,-1.67723 1.44205,-4.54972 2.24412,-6.38331 1.07884,-2.4663 1.45831,-4.11476 1.45831,-6.33501 0,-3.11324 2.4517,-12.59423 4.46309,-17.25929 0.84535,-1.96064 1.02831,-3.31709 0.95036,-7.04557 -0.08,-3.82357 0.0808,-4.95347 0.93515,-6.57189 0.56744,-1.07494 2.11305,-3.97943 3.43469,-6.45443 2.24259,-4.19964 2.41132,-4.77286 2.52788,-8.58802 0.13349,-4.36922 0.59985,-5.67185 3.1906,-8.91198 2.48983,-3.1139 3.77814,-6.09272 4.89069,-11.30816 1.28709,-6.03369 3.28446,-10.02222 7.03285,-14.04382 3.59666,-3.85883 4.2422,-5.09132 5.26011,-10.04291 0.92174,-4.48378 1.13014,-4.94128 3.59429,-7.89067 1.00248,-1.1999 2.33259,-3.23858 2.95579,-4.53041 0.62319,-1.29183 2.04784,-3.43671 3.16588,-4.7664 1.63477,-1.94427 2.14557,-3.05397 2.60883,-5.66763 0.9998,-5.64076 1.83574,-7.02308 8.4394,-13.95535 3.40979,-3.57946 6.74291,-7.47259 7.40693,-8.65138 0.66403,-1.1788 2.18219,-3.15577 3.37371,-4.39327 1.1915,-1.2375 2.62977,-3.17795 3.19614,-4.31211 1.48628,-2.97627 3.3581,-4.31317 8.19726,-5.85465 4.03086,-1.284 4.44672,-1.55249 7.11895,-4.5962 2.8777,-3.27774 3.67441,-3.69955 9.33079,-4.93997 0.73506,-0.1612 3.0802,-2.04466 5.27508,-4.2366 4.3105,-4.30471 3.46551,-3.90832 15.12995,-7.09756 4.57668,-1.25133 6.3862,-1.51981 9,-1.33533 3.87963,0.27381 11.73573,-1.07368 15.02158,-2.57653 2.90704,-1.3296 5.50603,-1.32245 9.34484,0.0257 3.09484,1.08688 3.09484,1.08688 6.18838,-0.30142 3.02026,-1.35542 3.23787,-1.37998 9.185,-1.03696 4.62606,0.26682 7.04653,0.16602 10.06161,-0.41901 6.96516,-1.35146 17.48417,-1.90031 21.22017,-1.10719 3.45046,0.7325 9.78989,3.36972 16.05311,6.67815 2.0917,1.10491 5.12921,2.27113 6.75,2.5916 5.85497,1.15769 7.66446,2.00706 11.12317,5.22121 1.82804,1.69879 3.99872,3.51411 4.82372,4.03405 1.41391,0.89107 5.52817,4.57949 9.01621,8.08301 0.94819,0.95239 1.86822,2.64219 2.33834,4.29476 0.60204,2.11634 1.74628,3.88656 5.12564,7.9298 5.23432,6.26259 5.70493,7.10603 6.19153,11.09667 0.29549,2.42332 0.75922,3.60826 2.10366,5.37537 0.94854,1.24675 2.47291,4.39675 3.38749,7 0.91457,2.60326 2.6431,6.7582 3.84115,9.2332 1.19806,2.475 2.32261,5.58751 2.49902,6.91669 0.17641,1.32918 0.64164,3.32622 1.03385,4.43786 1.18863,3.36895 0.90645,5.44552 -1.30796,9.62505 -1.11158,2.09805 -2.25757,5.09843 -2.54662,6.66752 -0.28907,1.56908 -1.05816,3.97788 -1.7091,5.35288 -1.98142,4.18543 -7.35519,10.78585 -10.81259,13.28073 -1.87618,1.35387 -4.30706,3.80389 -5.98165,6.02878 -1.55157,2.06143 -4.18948,4.93355 -5.86202,6.3825 -1.67254,1.44895 -3.85416,3.97308 -4.84805,5.60918 -2.1682,3.56925 -6.78423,7.46276 -10.68618,9.01353 -3.22147,1.28032 -4.45727,2.08362 -8.40419,5.46289 -1.58319,1.35549 -3.92082,2.8131 -5.19473,3.23912 -2.76645,0.92515 -3.39431,1.57992 -5.18468,5.4069 -1.02893,2.19937 -1.91287,3.26934 -3.56824,4.31914 -2.91558,1.849 -9.49827,3.8992 -14.32446,4.4614 -3.2005,0.37282 -4.49105,0.81291 -7.25,2.47229 -4.08616,2.45765 -5.08893,2.84487 -8.60642,3.32342 -1.5125,0.20577 -5.1125,1.21365 -8,2.23973 -3.67606,1.30629 -6.48475,1.95741 -9.36861,2.17185 -4.36806,0.3248 -5.66429,0.82063 -10.23546,3.91523 -3.76453,2.54851 -4.65549,2.84961 -10.87028,3.6735 -2.9016,0.38467 -6.50193,0.96405 -8.00072,1.2875 -2.67942,0.57825 -8.80226,0.39661 -14.27493,-0.42346 -1.42229,-0.21313 -4.53241,-0.12055 -7.21468,0.21476 -4.5671,0.57094 -5.50941,0.51485 -12.28532,-0.73126 -1.41972,-0.26109 -9.45081,-0.32753 -18.58571,-0.15374 -16.08572,0.30602 -16.08572,0.30602 -17.42252,1.55602 -0.73523,0.6875 -1.67272,1.89587 -2.0833,2.68527 -1.15962,2.22958 -2.33859,11.39348 -2.38842,18.56473 -0.0504,7.25055 -0.41952,8.91681 -3.29095,14.85455 -2.24705,4.64663 -2.37547,5.99158 -1.2101,12.67428 0.92095,5.28113 0.69951,6.65643 -1.62719,10.10604 -1.66339,2.46615 -1.7565,2.81084 -1.45414,5.38339 0.33916,2.88572 0.82444,4.40372 3.1111,9.73174 1.33683,3.11487 1.39653,3.60344 1.43567,11.75 0.0408,8.5 0.0408,8.5 2.09131,11.25 2.76936,3.71415 3.00701,4.24318 4.19194,9.3317 0.56587,2.43007 1.58087,5.95046 2.25558,7.8231 0.6747,1.87264 1.22672,4.29861 1.22672,5.39106 0,2.62681 1.05938,5.05042 2.66841,6.1047 0.71767,0.47024 2.41904,2.48497 3.78084,4.4772 3.96565,5.80154 8.37289,10.06673 11.46235,11.09288 3.29483,1.09436 5.26133,2.73329 6.2528,5.21121 1.03132,2.57753 1.96955,3.43403 4.4831,4.09257 1.15638,0.30296 3.64699,1.47528 5.53472,2.60514 1.88771,1.12987 5.26271,2.71773 7.5,3.52858 3.50222,1.26929 5.11053,1.52825 11.56778,1.86259 4.77896,0.24744 8.31388,0.68403 9.7433,1.20336 1.23382,0.44826 4.01592,1.26761 6.18244,1.82078 2.16652,0.55316 5.65704,1.8808 7.7567,2.95031 4.3586,2.22016 7.14198,2.97365 11.06756,2.9961 4.09146,0.0234 10.79612,1.80863 14.4349,3.84355 3.21348,1.79709 3.21348,1.79709 17.51429,0.60646 15.75648,-1.31183 18.01752,-1.3507 30.05928,-0.51679 7.02521,0.4865 8.85455,0.45781 12.25,-0.19214 3.23748,-0.61971 4.65272,-0.65815 7.49153,-0.20351 3.66115,0.58633 3.64263,0.58975 9.75,-1.80016 1.18734,-0.46462 4.10756,-0.69186 9.08249,-0.70675 7.33249,-0.0219 7.33249,-0.0219 11.24863,-2.09679 3.83835,-2.03363 4.02543,-2.07718 9.41751,-2.19184 5.58284,-0.11871 9.11304,-0.88187 12.82524,-2.77254 3.0586,-1.55779 8.93118,-3.01318 13.76729,-3.41192 3.78239,-0.31186 4.88338,-0.60069 6.25,-1.63959 2.44971,-1.86227 4.38831,-2.74734 6.90884,-3.15425 1.2375,-0.19978 3.75041,-0.99606 5.58425,-1.76951 1.83385,-0.77345 5.12965,-1.7449 7.32403,-2.15877 4.61747,-0.8709 10.1557,-2.97955 15.84172,-6.03166 2.2,-1.1809 5.23303,-2.55317 6.74007,-3.04948 1.50703,-0.49632 3.98203,-1.45213 5.5,-2.12403 3.7042,-1.6396 6.65403,-1.36169 8.59417,0.8097 2.39051,2.67545 2.57111,4.41359 2.16321,20.81874 -0.20513,8.25 -0.33582,16.85541 -0.29043,19.12313 0.10166,5.07865 -0.54773,7.62592 -2.51546,9.86704 -4.28151,4.87636 -15.97012,9.9863 -26.82987,11.72926 -7.72315,1.23955 -7.80385,1.26523 -14.36169,4.56944 -5.34861,2.69494 -8.75119,3.51979 -18.17834,4.40682 -5.27355,0.4962 -7.20205,1.15957 -10.37309,3.56822 -2.59413,1.97043 -4.90555,2.49422 -8.28527,1.87752 -3.65341,-0.66665 -20.03486,1.21169 -25.9133,2.97127 -3.58278,1.07245 -5.15271,1.2611 -10,1.20155 -3.32015,-0.041 -7.54597,0.254 -10,0.69755 -5.89038,1.0647 -15.13747,1.47265 -18.59429,0.82025 -2.23925,-0.42255 -3.88782,-0.3682 -7.75,0.25565 -4.2057,0.6793 -5.76186,0.7049 -10.90571,0.17925 -6.03223,-0.61645 -11.31236,-0.3344 -18.19325,0.9718 -2.6519,0.5034 -12.85472,0.616 -14.80675,0.1634 z m -83.25,-258.36324 c 3.1625,-0.41371 8.55071,-1.54796 11.97379,-2.52056 3.42308,-0.97259 6.57308,-1.77066 7,-1.77348 0.42692,-0.003 4.48871,-1.24889 9.02621,-2.76904 5.54781,-1.85861 9.82558,-3.66363 13.06036,-5.51085 3.62964,-2.07271 6.0797,-3.06025 9.98174,-4.02332 6.42656,-1.58617 7.5284,-2.1364 10.9579,-5.47215 3.49273,-3.39724 6.11334,-4.53637 12.02019,-5.22495 6.48807,-0.75633 7.44142,-1.13579 10.26666,-4.08636 2.95973,-3.09103 5.16739,-4.12852 10.46315,-4.91715 7.99082,-1.18996 13.64119,-4.14107 19.5,-10.18458 4.37368,-4.51156 6.69119,-5.8809 12.38553,-7.31819 1.98796,-0.50178 4.88592,-1.47921 6.43992,-2.17207 2.60512,-1.16154 2.89003,-1.45425 3.65384,-3.75388 0.45563,-1.37175 1.59413,-3.49693 2.53001,-4.72261 1.87013,-2.44925 3.55888,-8.00395 3.04989,-10.03189 -0.16819,-0.67012 -1.43161,-2.53227 -2.80761,-4.13812 -1.37599,-1.60584 -3.23301,-4.14941 -4.12669,-5.65238 -1.92834,-3.24299 -5.11791,-5.77628 -10.68728,-8.48826 -2.77247,-1.35005 -4.6131,-2.64115 -5.79676,-4.06612 -2.16156,-2.60224 -3.54614,-2.68896 -6.39362,-0.40045 -1.99925,1.60678 -2.29453,1.6875 -6.17346,1.6875 -2.24057,0 -5.13283,-0.32533 -6.42724,-0.72294 -2.35346,-0.72295 -2.35346,-0.72295 -5.01125,1.10754 -3.84624,2.64902 -6.80115,3.21667 -10.89331,2.09268 -5.62137,-1.54403 -7.45802,-1.51121 -10.8352,0.19358 -1.64271,0.82923 -4.43124,1.88003 -6.19675,2.33511 -1.76551,0.45507 -4.78049,1.51448 -6.69995,2.35424 -3.48994,1.52684 -3.48994,1.52684 -9.5,1.10501 -9.82286,-0.68944 -10.02848,-0.66174 -15.03832,2.02592 -2.45946,1.31944 -5.48425,3.02122 -6.72175,3.78174 -1.2375,0.76051 -3.35876,1.7524 -4.71391,2.20419 -3.89556,1.29873 -4.9975,2.17687 -7.16609,5.71064 -3.81696,6.21986 -6.12068,11.89812 -6.31455,15.56427 -0.18316,3.46379 -0.55887,4.47606 -2.81964,7.59696 -0.74896,1.03391 -1.62552,2.92735 -1.9479,4.20765 -0.98764,3.92229 -2.50823,6.2855 -6.55887,10.19341 -3.70516,3.5746 -3.9465,3.94559 -5.15993,7.93176 -0.70013,2.29997 -2.22153,5.75167 -3.38087,7.67046 -2.25805,3.7372 -2.04752,2.69291 -3.24502,16.09616 -0.53202,5.95484 -0.93092,5.82225 12.30678,4.09053 z"
     style="fill:#000000;stroke-width:0.5" />
</svg>
