<?xml version="1.0" encoding="UTF-8" standalone="no"?>
<svg
   xmlns:dc="http://purl.org/dc/elements/1.1/"
   xmlns:cc="http://creativecommons.org/ns#"
   xmlns:rdf="http://www.w3.org/1999/02/22-rdf-syntax-ns#"
   xmlns:svg="http://www.w3.org/2000/svg"
   xmlns="http://www.w3.org/2000/svg"
   viewBox="0 0 1000 1000"
   height="1000"
   width="1000"
   id="svg115"
   version="1.1">
  <metadata
     id="metadata121">
    <rdf:RDF>
      <cc:Work
         rdf:about="">
        <dc:format>image/svg+xml</dc:format>
        <dc:type
           rdf:resource="http://purl.org/dc/dcmitype/StillImage" />
        <dc:title></dc:title>
      </cc:Work>
    </rdf:RDF>
  </metadata>
  <defs
     id="defs119" />
  <path
     id="path3815"
     d="m 1040.1777,944.92452 c -12.9356,-3.7082 -16.1516,-6.3043 -18.6125,-15.025 -1.3073,-4.6329 -2.6605,-6.6307 -7.8551,-11.5971 -5.633,-5.3856 -6.5043,-6.768 -8.5082,-13.5 -2.8199,-9.473 -3.8166,-11.3664 -10.08198,-19.1537 -2.8083,-3.4905 -5.6924,-7.74 -6.4091,-9.44331 -4.4308,-10.52993 -5.8843,-29.99294 -2.9122,-38.99406 1.5151,-4.58845 2.8789,-23.83293 3.7849,-53.40893 0.2162,-7.0575 0.8705,-10.91408 2.5448,-15 4.5176,-11.02473 4.9148,-12.74874 4.8538,-21.07003 -0.1163,-15.86905 1.5538,-23.53121 6.84778,-31.41662 1.8413,-2.74266 3.3531,-5.66766 3.3596,-6.5 0.01,-0.83234 1.1315,-6.0123 2.5,-11.51102 3.0111,-12.09864 3.1126,-16.87997 0.4882,-23.00233 -2.5437,-5.93418 -2.5393,-13.19727 0.013,-21.33909 2.6229,-8.36723 2.5764,-16.57435 -0.1283,-22.68885 -2.509,-5.67207 -2.7091,-12.39709 -0.5688,-19.11663 0.8506,-2.67049 1.8544,-6.88043 2.2306,-9.35543 0.693,-4.55838 1.6455,-6.81979 7.3125,-17.36081 1.733,-3.22345 4.075,-8.90329 5.2045,-12.62187 2.0536,-6.76105 2.0536,-6.76105 -1.5049,-15.86766 -3.6678,-9.38623 -4.4391,-15.59347 -2.4188,-19.4654 0.6268,-1.20134 3.1018,-4.30248 5.5,-6.89142 3.8512,-4.15753 4.3673,-5.26679 4.4199,-9.5 0.033,-2.63606 0.439,-7.04284 0.9027,-9.79284 0.5153,-3.05586 0.4187,-7.97384 -0.2484,-12.64823 -1.3556,-9.49906 -0.3199,-13.47933 5.259,-20.21065 4.5029,-5.43297 4.7108,-6.53026 2.4182,-12.76539 -1.7281,-4.70022 -2.1462,-14.8895 -0.9864,-24.04052 0.5044,-3.97996 1.923,-7.66276 4.7695,-12.38245 5.1335,-8.51147 5.7451,-12.61882 2.8373,-19.05553 -1.2168,-2.69348 -3.0223,-7.59723 -4.0123,-10.89723 -0.99,-3.3 -2.6289,-7.8 -3.642,-10 -1.5811,-3.43367 -1.843,-6.66325 -1.8495,-22.81066 -0.01,-18.81066 -0.01,-18.81066 -3.5077,-22.92284 -5.2776,-6.20067 -5.9247,-7.7446 -5.9799,-14.2665 -0.028,-3.3 -0.3813,-6.50968 -0.7854,-7.13261 -0.4041,-0.62294 -2.7597,-2.25425 -5.2347,-3.62513 -6.8996,-3.82162 -9,-7.59481 -9,-16.16764 0,-11.63785 -2.8614,-13.71493 -12.62848,-9.16713 -3.7767,1.7585 -5.7376,3.47162 -7.4392,6.49916 -3.0375,5.40443 -5.2424,6.71738 -15.1679,9.03169 -9.7033,2.26253 -24.4356,9.69373 -28.2835,14.26669 -1.4254,1.69404 -3.6519,5.15343 -4.9476,7.68753 -2.4309,4.75414 -3.9879,6.63976 -9.3841,11.36515 -2.6653,2.33393 -3.1492,3.4557 -3.1492,7.29966 0,6.04446 -1.7748,9.3268 -15.2396,28.18449 -4.5382,6.35576 -7.1865,8.99857 -11.5726,11.5485 -4.3331,2.51906 -6.3315,4.49623 -8.3905,8.30112 -1.4865,2.74696 -4.754,6.91714 -7.2612,9.26707 -2.5072,2.34992 -6.0752,6.64349 -7.9289,9.54126 -1.8536,2.89777 -4.6513,6.27629 -6.2169,7.50782 -5.6841,4.4711 -6.5245,6.75021 -5.8125,15.76246 0.6263,7.92837 0.5473,8.34867 -2.6726,14.20557 -3.3041,6.01017 -3.3108,6.05049 -1.6116,9.61384 2.2915,4.80531 2.181,5.92329 -1.1747,11.88877 -1.5846,2.81695 -3.4196,6.80969 -4.0779,8.87275 -0.6582,2.06306 -2.6871,5.91751 -4.5085,8.56545 -1.8215,2.64794 -4.4378,7.03498 -5.8141,9.74898 -1.3762,2.714 -3.4969,5.83349 -4.7127,6.93219 -3.2899,2.97313 -4.7174,6.32993 -5.53,13.0034 -0.961,7.8921 -2.3463,10.37944 -8.8982,15.97693 -3.0343,2.59229 -6.4399,6.67201 -7.6415,9.15423 -1.1922,2.46281 -4.0934,7.04058 -6.4471,10.17282 -2.3536,3.13224 -4.8206,7.71998 -5.4821,10.19498 -1.9379,7.25044 -5.5954,14.13884 -10.6269,20.01411 -7.5432,8.80824 -9.3329,13.71801 -9.1078,24.98589 0.2464,12.33456 -2.3207,19.88223 -10.4052,30.59329 -4.2111,5.57929 -6.5151,9.88744 -8.4442,15.78974 -1.4591,4.46433 -4.6571,11.37782 -7.1066,15.3633 -5.7224,9.3108 -6.525,12.22759 -5.3582,19.47304 0.7451,4.6263 0.5673,7.28431 -0.8725,13.04537 -0.9945,3.97939 -1.8488,10.85555 -1.8984,15.28035 -0.064,5.71262 -0.8538,10.46232 -2.7239,16.38248 -2.29,7.24887 -2.4921,8.90014 -1.5485,12.64773 1.6471,6.54108 1.3092,10.40205 -1.4244,16.274 -3.1807,6.83264 -3.1317,8.82085 0.5098,20.6507 3.5506,11.53456 3.6708,15.51731 0.9413,31.18368 -1.1323,6.49898 -2.4276,16.12028 -2.8783,21.38068 -0.4806,5.60805 -1.5347,10.94712 -2.5483,12.9072 -2.4708,4.77799 -10.002,12.53795 -15.0257,15.48201 -2.3643,1.38556 -5.9619,4.78492 -7.9947,7.55414 -6.7097,9.14049 -15.6271,13.58319 -25.5605,12.73439 -15.451,-1.3203 -36.7798,-4.9944 -41.4963,-7.1481 -6.0772,-2.775 -17.3788,-13.08158 -20.7259,-18.90103 -3.6042,-6.26659 -11.5054,-30.33824 -12.2081,-37.19297 -0.4014,-3.91531 -0.1242,-7.73724 0.7979,-11 0.7771,-2.75 2.2162,-7.77733 3.198,-11.17185 1.7851,-6.17185 1.7851,-6.17185 -0.9608,-14.97873 -2.3697,-7.6004 -2.7922,-10.85235 -3.0841,-23.73807 -0.3243,-14.30988 -0.2159,-15.29964 2.6036,-23.78615 2.2143,-6.66512 2.9418,-10.72235 2.9418,-16.40607 0,-4.1531 0.858,-11.45891 1.9067,-16.23511 2.1419,-9.75489 4.1675,-21.47363 4.8616,-28.12517 0.6523,-6.25085 -1.4325,-20.9485 -4.4766,-31.55885 -3.96,-13.80283 -3.4445,-26.40563 2.1859,-53.44231 1.2249,-5.88176 1.1755,-6.86385 -0.568,-11.28702 -2.5992,-6.59415 -2.4139,-9.21545 1.0904,-15.42466 1.65,-2.92364 3,-6.02775 3,-6.89801 0,-0.87027 -1.575,-3.06772 -3.5,-4.88323 -3.2412,-3.05687 -3.5,-3.74271 -3.5,-9.2763 0,-3.32007 0.8666,-8.49415 1.9501,-11.64354 1.0726,-3.1175 2.4813,-9.15044 3.1305,-13.40655 1.1803,-7.73838 1.1803,-7.73838 -2.5594,-14.73838 -3.6274,-6.79002 -3.725,-7.24244 -3.2515,-15.08191 0.5922,-9.8077 3.1513,-16.11196 8.0602,-19.85612 6.7886,-5.17796 6.9302,-13.07832 0.4104,-22.89785 -5.2688,-7.93541 -6.4064,-10.66591 -7.1351,-17.12587 -0.3698,-3.27896 -1.3587,-8.32245 -2.1975,-11.20774 -1.5581,-5.35966 -1.3238,-7.45751 1.6643,-14.90415 1.6113,-4.01559 0.8495,-6.69052 -4.0755,-14.31054 -2.2377,-3.4621 -4.7273,-8.82401 -5.5325,-11.91537 -1.954,-7.50181 -1.8947,-23.38713 0.1125,-30.14609 0.8671,-2.91975 1.3016,-6.40379 0.9657,-7.7423 -0.5119,-2.0396 -1.1304,-2.38333 -3.8199,-2.12286 -2.792,0.2704 -3.9463,1.41147 -8.8816,8.77915 -5.1838,7.7388 -8.5615,11.38287 -20.6401,22.26815 -4.9773,4.48554 -7.5512,9.26705 -9.7935,18.19372 -2.8153,11.20804 -7.6381,16.23555 -18.3443,19.12306 -8.3656,2.25625 -10.3684,3.56316 -12.6163,8.23252 -3.2174,6.68339 -5.4677,8.3737 -12.0958,9.0857 -5.8507,0.6285 -5.8507,0.6285 -5.8507,6.6285 0,10.88911 -5.6382,16.82015 -17.1628,18.05434 -5.95586,0.63782 -6.96387,1.08911 -10.44522,4.67641 -2.58333,2.66193 -4.39752,5.8323 -5.50481,9.61985 -0.90838,3.10717 -2.46134,8.3494 -3.45102,11.6494 -0.98968,3.3 -2.09994,8.025 -2.46724,10.5 -1.10789,7.46532 -3.79032,12.15195 -11.16096,19.5 -3.86183,3.85 -8.47478,9.58016 -10.25098,12.73368 -3.43456,6.0978 -6.01005,8.65743 -13.42461,13.34189 -2.54583,1.60844 -4.64689,3.37443 -4.66902,3.92443 -0.0221,0.55 -0.13544,4.00447 -0.25179,7.67659 -0.19146,6.04246 -0.60143,7.2297 -4.31644,12.5 -2.25768,3.20288 -5.12822,7.83175 -6.37897,10.28639 -2.9745,5.83755 -11.8323,16.75093 -16.90362,20.82636 -3.9002,3.13428 -3.99985,3.36638 -3.44753,8.02986 0.44051,3.71936 0.0914,5.73798 -1.54811,8.9517 -1.79216,3.51292 -2.11688,5.91146 -2.11688,15.63635 0,10.33222 0.25131,11.95957 2.5,16.18877 4.47588,8.41799 3.14165,15.0217 -4.93064,24.40398 -5.81719,6.76121 -7.2542,9.43203 -8.69864,16.1672 -0.62128,2.89693 -2.93917,9.77752 -5.15087,15.29021 -5.29459,13.19683 -5.85237,20.11573 -2.62035,32.5037 2.35764,9.03658 2.35856,9.06382 0.53216,15.79554 -2.19167,8.07802 -4.58468,20.72417 -4.61199,24.37251 -0.0108,1.44603 1.15667,5.19861 2.59441,8.33906 2.5757,5.62607 2.59637,5.85173 1.40787,15.37084 -0.66342,5.31352 -2.06476,12.06348 -3.11408,14.99992 -1.04933,2.93645 -1.91527,7.66145 -1.92432,10.5 -0.0118,3.70049 -0.70968,6.29299 -2.46608,9.16102 -5.01641,8.19128 -5.00106,8.12457 -3.19105,13.86657 2.87651,9.12536 2.28494,14.38372 -2.6821,23.84057 -2.39563,4.56107 -4.9093,9.99179 -5.58594,12.06826 -1.58215,4.8553 -5.19107,9.1092 -10.04031,11.8346 -2.44471,1.374 -4.80129,3.913 -6.45938,6.9595 -3.02979,5.5667 -6.92041,9.1122 -12.90339,11.7588 -2.34062,1.0353 -7.60809,5.2404 -11.70549,9.3446 -6.49434,6.505 -8.22775,7.6779 -13.51541,9.1446 -7.49224,2.0782 -12.33107,2.1209 -19.80334,0.1746 -10.91733,-2.8436 -16.18903,-6.213 -24.64668,-15.7529 -4.31809,-4.8707 -8.08197,-10.067 -8.36419,-11.5475 -0.28223,-1.4804 -0.79782,-4.5808 -1.14577,-6.8897 -0.79525,-5.277 -4.79011,-11.35645 -11.95742,-18.19693 -3.06863,-2.92872 -6.30574,-6.72964 -7.19356,-8.4465 -2.15792,-4.17296 -2.40083,-22.28071 -0.38676,-28.83108 1.2982,-4.22215 1.2548,-5.40288 -0.4503,-12.2502 -1.67844,-6.74023 -1.75318,-8.5031 -0.67632,-15.95106 0.66587,-4.60535 2.14014,-11.01776 3.27617,-14.2498 1.65693,-4.71403 1.94717,-7.26832 1.46727,-12.91305 -0.70305,-8.26958 0.26872,-11.72866 5.46794,-19.46338 7.74128,-11.51649 7.74633,-11.5369 8.04119,-32.50988 0.26699,-18.99012 0.26699,-18.99012 -3.39782,-25.81278 -2.79005,-5.19416 -3.66481,-7.98994 -3.66481,-11.71298 0,-2.68968 -0.9,-7.17364 -2,-9.96436 -2.30592,-5.85017 -2.48391,-10.40768 -0.83062,-21.26937 1.1087,-7.28393 1.04039,-8.11246 -1.09327,-13.26029 -2.69761,-6.50846 -2.52283,-9.77211 1.27096,-23.73284 1.45911,-5.36938 2.65293,-10.60347 2.65293,-11.63131 0,-1.02785 -1.55622,-3.0558 -3.45826,-4.50655 -6.10082,-4.65333 -6.49659,-11.35729 -1.1362,-19.24582 1.42695,-2.09995 2.59446,-4.24476 2.59446,-4.76624 0,-0.52148 -1.75055,-3.67952 -3.89012,-7.01786 -5.73491,-8.94813 -6.62111,-12.47533 -5.00704,-19.9287 0.73143,-3.37756 1.19376,-6.81602 1.0274,-7.64102 -0.16636,-0.825 -2.48085,-3.41864 -5.14331,-5.76365 -5.85214,-5.15437 -7.41365,-9.2365 -6.51538,-17.03261 0.59504,-5.16432 0.35505,-6.26887 -2.53764,-11.67933 -3.68916,-6.90015 -5.88283,-19.4679 -5.91447,-33.88443 -0.0177,-8.05777 -0.31352,-9.41177 -3.26723,-14.95351 -2.44309,-4.58371 -3.20787,-7.21995 -3.08667,-10.63997 0.0886,-2.50058 0.28978,-7.6965 0.44704,-11.5465 0.24654,-6.03609 -0.28679,-8.6733 -3.87311,-19.15169 -2.28746,-6.68343 -4.58336,-15.56962 -5.102,-19.74708 -0.69293,-5.58136 -1.9424,-9.51862 -4.71203,-14.84831 -4.68832,-9.02187 -4.96038,-15.42636 -1.13646,-26.75292 1.68783,-4.9994 2.75577,-10.9239 3.20304,-17.76922 0.67099,-10.26922 0.67099,-10.26922 -2.43892,-14.96433 -2.93046,-4.42418 -3.09895,-5.19167 -2.92,-13.30062 0.18991,-8.60552 0.18991,-8.60552 -4.13544,-14.73886 -5.73575,-8.13329 -6.47515,-14.37776 -2.60644,-22.01229 3.03504,-5.98937 3.23547,-9.4229 0.95674,-16.38972 -1.39281,-4.25825 -1.47318,-6.02157 -0.5122,-11.23701 1.86093,-10.0996 -0.4927,-15.57696 -8.14825,-18.96261 -3.17159,-1.40262 -6.33104,-3.78027 -8.09312,-6.09047 -2.89049,-3.78963 -2.89049,-3.78963 -15.49708,-3.33442 -7.99596,0.28874 -13.70209,0.97862 -15.60195,1.88632 -2.68332,1.28202 -3.04745,2.01318 -3.49536,7.01858 -0.76554,8.55489 -2.83221,10.31077 -14,11.89465 -8.88322,1.25987 -10.5072,2.11443 -12.89097,6.78344 -1.04362,2.04411 -3.73025,5.18833 -5.97027,6.98717 -2.76293,2.21875 -4.41345,4.53579 -5.13207,7.20453 -1.64147,6.09597 -5.22574,9.55159 -12.980913,12.51501 -10.94234,4.1813 -18.56937,9.57384 -20.03933,14.16841 -1.93955,6.06234 -4.65016,9.85312 -9.19713,12.86216 -2.31693,1.53327 -5.77268,4.5256 -7.67946,6.64963 -1.90677,2.12402 -5.83818,5.69131 -8.73645,7.92732 -2.89828,2.236 -6.69472,6.28632 -8.43654,9.00072 -1.74182,2.71439 -6.09591,7.61911 -9.67575,10.89938 -6.23227,5.71075 -6.58322,6.28429 -8.2606,13.49998 -2.17427,9.35322 -5.18653,13.78459 -13.53901,19.91741 -3.8246996,2.80829 -8.1281996,7.14889 -10.3900796,10.47965 -2.12361997,3.12717 -4.6214,6.31673 -5.55062,7.08792 -0.92922,0.77118 -3.1879,4.35305 -5.01928,7.95971 -1.8313904,3.60666 -5.1656004,8.99754 -7.4093704,11.97974 -2.24378,2.9822 -5.43903,9.0572 -7.10057,13.5 -4.70542,12.58183 -12.1739,27.40525 -15.56895,30.90122 -1.69669,1.74713 -4.95811,4.66217 -7.24759,6.47787 -2.33187,1.84932 -4.4237,4.48822 -4.75615,6 -2.2652,10.30071 -3.53715,12.92362 -9.54685,19.68663 -5.00303,5.63015 -7.9147,10.48765 -14.98544,25 -7.42233,15.23395 -9.79127,19.12133 -15.35901,25.20375 -6.78999,7.41766 -15.537207,13.82572 -26.082087,19.10727 -3.32996,1.66787 -8.02369,4.67771 -10.43051,6.68855 -2.40681,2.01083 -6.2073,4.59491 -8.44551,5.74238 -4.99804,2.56237 -16.42146,3.49591 -22.07116,1.8037 -2.19908,-0.65867 -8.78582,-1.51912 -14.6372,-1.91211 -12.84664,-0.86281 -15.1568,-2.24002 -22.36875,-13.33519 -2.60487,-4.00744 -6.68068,-9.31125 -9.05735,-11.78625 -5.07311,-5.28298 -6.43758,-8.42776 -6.42802,-14.8151 0.0126,-8.41745 3.06386,-19.05115 12.24816,-42.6849 0.64121,-1.65 4.16517,-6.17992 7.83102,-10.06649 5.40151,-5.72672 6.99058,-8.18575 8.38137,-12.9699 2.69454,-9.26889 5.08812,-13.07211 14.13032,-22.45196 6.13761,-6.36679 9.41058,-10.76227 12.01187,-16.13149 5.01388,-10.34895 7.28667,-12.99661 15.18395,-17.68829 7.95683,-4.72707 9.50214,-6.68124 11.07206,-14.00154 1.53289,-7.14763 3.11445,-9.92252 8.56062,-15.01985 2.78539,-2.60697 5.74568,-6.78451 7.44051,-10.5 1.54808,-3.39376 5.1331,-8.64548 7.96673,-11.67048 6.760717,-7.21733 19.270587,-25.05339 22.799547,-32.50668 2.6454,-5.58716 5.90897,-9.40512 14.95315,-17.49332 2.78018,-2.48631 4.76241,-5.67219 6.84411,-11 3.23706,-8.28476 7.86706,-13.55918 21.56957,-24.57169 6.64071,-5.33704 7.99805,-7.03406 11.847,-14.81183 3.15384,-6.3731 5.86542,-10.20219 9.87897,-13.95033 3.04259,-2.84138 8.2864404,-7.91802 11.6530004,-11.28141 3.36657,-3.3634 8.01501,-7.54904 10.32987,-9.30143 2.31486,-1.75239 5.8866396,-5.97552 7.9372896,-9.38474 4.87645,-8.1071 13.36263,-19.54787 16.83663,-22.69857 1.5161,-1.375 3.9024,-4.3 5.3029,-6.5 4.29725,-6.75042 14.44753,-17.44051 19.71434,-20.76277 9.72312,-6.13326 20.08545,-14.53637 24.9563,-20.23776 2.71233,-3.17481 7.20675,-7.24129 9.98761,-9.03662 2.78085,-1.79532 6.5964,-4.87312 8.47901,-6.83955 2.268653,-2.36966 5.534393,-4.27798 9.684373,-5.659 3.4438,-1.14603 8.20349,-3.55297 10.57708,-5.34876 4.1334,-3.12722 10.88222,-7.02917 24.68602,-14.272694 5.34195,-2.80317 7.4407,-3.3458 13,-3.36115 8.15908,-0.0225 20.48806,-4.74702 28.83672,-11.05032 6.91941,-5.22426 19.35532,-11.48866 25.5727,-12.88206 7.00345,-1.5695 12.05667,-0.3736 18.55145,4.3903 11.01006,8.0759 23.26442,14.4198 29.16874,15.10023 12.34233,1.42238 18.02681,5.30467 20.56841,14.047494 1.06433,3.66117 2.60629,6.25786 4.83593,8.14384 7.17811,6.07171 7.80356,7.76836 8.72154,23.65907 0.70693,12.23728 1.31745,15.88817 3.89798,23.30982 4.82534,13.87775 5.10165,15.94283 3.4674,25.91413 -2.31941,14.15177 -2.0683,16.53861 2.54468,24.18703 4.42548,7.33754 7.96406,17.48461 7.96406,22.83735 0,1.88535 -1.166,5.7289 -2.59111,8.54121 -2.39159,4.71958 -2.53756,5.73728 -1.89565,13.21676 0.3825,4.4569 2.00695,12.15345 3.60989,17.10345 1.60294,4.95 3.37789,12.55036 3.94434,16.8897 0.56645,4.33933 2.15429,10.63933 3.52853,14 1.37424,3.36066 2.75961,9.0353 3.07859,12.6103 0.35689,3.9998 1.91906,9.76949 4.06133,15 3.31132,8.08482 3.44939,8.89917 2.82686,16.67235 -0.49842,6.22339 -0.29304,9.03748 0.86123,11.80001 3.4064,8.15267 4.61672,18.03173 4.07844,33.28967 -0.28597,8.10588 -0.77007,16.08843 -1.07578,17.739 -0.45501,2.45662 0.0167,3.54507 2.60033,6 4.68527,4.45191 6.63986,9.11337 7.42953,17.71844 0.38961,4.24571 1.34094,10.09571 2.11406,13 2.06735,7.76619 1.77759,12.75528 -1.0664,18.36105 -1.3727,2.70571 -2.4977,5.31916 -2.5,5.80765 -0.002,0.48849 1.83486,2.88331 4.0826,5.32181 2.24773,2.4385 5.20762,6.96804 6.57752,10.06565 1.36991,3.0976 4.1983,7.67779 6.28531,10.17819 2.08702,2.5004 4.66841,5.99007 5.73643,7.75482 1.94185,3.20863 1.94185,3.20863 7.12664,-2.68159 5.79102,-6.57894 7.18488,-9.45522 7.19257,-14.84215 0.008,-5.34219 2.69931,-8.91736 9.4215,-12.51392 7.65217,-4.09412 9.64283,-6.90562 10.49195,-14.81816 0.37495,-3.49405 1.2821,-7.47782 2.01587,-8.85282 0.73377,-1.375 8.65627,-9.95912 17.60556,-19.07583 16.24578,-16.5497 16.27488,-16.58754 18.46023,-24 1.20384,-4.08329 3.92011,-10.57417 6.03616,-14.42417 4.09623,-7.4528 7.97349,-11.56988 19.96347,-21.19829 8.45087,-6.78636 20.23164,-18.25187 27.0934,-26.36837 3.82062,-4.51926 4.69846,-6.33786 5.21786,-10.80982 0.81569,-7.02285 2.56105,-9.48888 10.03049,-14.17221 3.52825,-2.2122 6.96555,-5.28814 8.00555,-7.16401 1.0024,-1.80801 5.0205,-6.27507 8.929,-9.92678 7.1065,-6.63948 7.1065,-6.63948 5.9151,-10.61602 -1.5941,-5.32068 -1.5018,-9.74356 0.2751,-13.17966 2.5149,-4.86339 10.209,-10.77146 17.2528,-13.248 3.6243,-1.27426 7.6418,-3.44184 8.9279,-4.81684 4.8145,-5.14753 9.4352,-11.64276 11.3822,-16 3.9461,-8.83072 5.7671,-11.54325 9.885,-14.72436 5.8171,-4.49375 12.6516,-6.27722 24.0171,-6.26724 5.8007,0.005 12.206,-0.66751 16.2666,-1.70812 5.7357,-1.46988 7.4599,-1.5378 12,-0.47274 2.916,0.68408 9.8631,1.63778 15.438,2.11935 8.2858,0.71574 11.6629,1.54357 18.5,4.53484 11.0775,4.84648 11.9651,5.482 18.178,13.01418 2.9299,3.55206 8.281,8.69444 11.8913,11.42751 7.8265,5.92479 10.7946,11.13256 10.7946,18.93992 0,4.90647 0.2955,5.52813 4.75,9.9944 2.6125,2.61938 5.3538,6.53545 6.0918,8.70238 0.738,2.16694 3.3275,6.87382 5.7545,10.45975 3.0219,4.4649 4.718,8.24711 5.3813,12 0.5327,3.01407 1.6204,9.20022 2.4171,13.747 0.9169,5.23257 2.8303,11.06306 5.2128,15.88502 3.2411,6.55934 3.8651,8.95448 4.4902,17.23313 0.5462,7.23319 1.5389,11.72057 4.0077,18.11498 2.8218,7.30888 3.2988,9.83125 3.4038,18 0.094,7.31147 0.7626,11.57334 2.9022,18.5 1.6531,5.35176 3.075,12.85092 3.5077,18.5 0.7405,9.66808 2.9062,16 5.4725,16 2.3916,0 26.3787,-24.64399 26.9653,-27.70378 0.2948,-1.53792 0.8374,-4.82122 1.2057,-7.29622 0.9184,-6.17139 1.7126,-7.47391 9.4873,-15.55991 5.3079,-5.52035 6.9263,-7.91913 7.4218,-11 1.4687,-9.13319 2.8561,-13.29443 6.4813,-19.44009 2.1088,-3.575 4.5929,-8.86138 5.5201,-11.74752 1.1995,-3.73344 3.0101,-6.4745 6.275,-9.5 12.8917,-11.94639 12.8704,-11.91862 14.117,-18.36667 1.9384,-10.02592 11.2318,-21.86751 21.0773,-26.85664 5.9786,-3.02957 9.2203,-7.52899 14.0415,-19.48914 3.6564,-9.0708 7.809,-13.74638 16.1637,-18.19936 4.5381,-2.4188 6.5977,-4.40284 10.2101,-9.83533 3.9015,-5.86726 5.3948,-7.22237 10.8338,-9.83113 3.4697,-1.66421 10.2925,-6.49595 15.1619,-10.73721 7.3127,-6.36949 9.3403,-8.79669 11.6517,-13.94832 3.0855,-6.87709 5.9473,-9.49466 15.7245,-14.38255 6.9927,-3.49581 8.7455,-5.66146 9.6809,-11.9611 1.3188,-8.881 5.2664,-13.45922 13.57,-15.73773 8.8189,-2.41991 9.8304,-3.07286 13.3971,-8.64846 8.2714,-12.93032 15.3306,-16.62475 34.62238,-18.11972 7.425,-0.57538 19.8,-1.06706 27.5,-1.09263 13.071,-0.0434 14.3711,0.12754 19.5926,2.57613 6.9062,3.23863 26.0023,20.51895 29.7015,26.87738 1.4399,2.475 7.0012,9.29775 12.3584,15.16167 8.4161,9.21221 9.9607,11.45539 11.3617,16.5 2.8446,10.24306 3.249,11.10189 8.379,17.79496 5.963,7.78001 7.4548,12.28615 7.6288,23.04337 0.1696,10.48513 0.027,9.91634 3.4813,13.85098 3.4987,3.9848 5.9967,9.48312 5.9967,13.19929 0,1.43798 -1.3958,5.79468 -3.1018,9.68157 -2.7207,6.19895 -3.0572,7.94853 -2.7393,14.2429 0.3411,6.75577 0.6117,7.47376 4.623,12.26478 6.1794,7.38056 10.6274,15.20328 13.2079,23.22884 2.5239,7.84914 2.3197,11.92671 -0.9591,19.15282 -2.9221,6.4403 -2.5265,9.5086 2.5726,19.9514 4.45,9.11331 4.5882,9.6711 4.1461,16.74115 -0.2562,4.09831 0.095,9.68924 0.7988,12.71701 1.4122,6.07491 0.8437,9.85748 -2.4481,16.28783 -1.9896,3.88665 -2.1446,5.23683 -1.5496,13.5 0.5002,6.94611 0.2702,10.67734 -0.9447,15.32577 -0.8832,3.37939 -1.6058,9.09474 -1.6058,12.70078 0,3.60604 -0.5049,8.91065 -1.122,11.78801 -0.9368,4.3682 -0.8223,6.43498 0.6939,12.5235 1.8158,7.29192 1.8158,7.29192 -0.8405,16.56764 -1.461,5.10165 -3.14,12.36397 -3.7311,16.13849 -0.5911,3.77452 -1.958,8.5941 -3.0375,10.71017 -2.3052,4.5185 -2.4308,7.48444 -0.4628,10.92707 2.0311,3.55303 1.8341,6.87975 -0.6897,11.64476 -2.3579,4.45198 -2.2743,6.32478 1.3872,31.07916 1.5956,10.78758 0.7471,14.88877 -5.7364,27.72535 -5.7851,11.45388 -5.7851,11.45388 -6.5298,23.7523 -0.4096,6.76414 -1.2434,13.87343 -1.8528,15.79843 -0.6248,1.97332 -1.0354,9.3886 -0.9414,17 0.1667,13.5 0.1667,13.5 -3.6968,21.23441 -3.7216,7.45039 -3.819,7.90077 -2.6519,12.26436 2.2115,8.26848 1.6077,13.70005 -2.1276,19.13902 -6.2135,9.04736 -11.7188,22.2189 -12.627,30.20985 -0.6604,5.81107 -1.4832,8.2502 -3.9344,11.66348 -3.571,4.97255 -3.6958,6.0412 -1.4454,12.37726 2.155,6.06762 1.2936,10.50968 -3.3461,17.25458 -3.1568,4.58922 -3.7214,6.32414 -4.3685,13.42363 -0.4087,4.48428 -1.4069,9.45378 -2.2182,11.04333 -1.8757,3.67505 -1.7088,26.96448 0.235,32.79623 0.8617,2.5852 1.0894,6.19335 0.6734,10.66955 -0.587,6.31548 -0.3968,7.247 2.8709,14.06564 4.8191,10.05586 4.7295,14.68466 -0.5005,25.85866 -2.1881,4.675 -3.985,9.175 -3.993,10 -0.036,3.7125 -4.0038,7.6924 -11.9132,11.9495 -6.8232,3.6725 -9.3274,5.7585 -14.6814,12.23 -3.5502,4.2913 -7.6119,8.5603 -9.0258,9.4868 -3.72,2.4374 -11.8103,2.6276 -19.3866,0.4558 z M -362.66439,660.80242 c 0,-1.375 0.22698,-1.9375 0.50439,-1.25 0.27741,0.6875 0.27741,1.8125 0,2.5 -0.27741,0.6875 -0.50439,0.125 -0.50439,-1.25 z"
     style="fill:#000000" />
</svg>
