<?xml version="1.0" encoding="UTF-8" standalone="no"?>
<!-- Created with Inkscape (http://www.inkscape.org/) -->

<svg
   xmlns:dc="http://purl.org/dc/elements/1.1/"
   xmlns:cc="http://creativecommons.org/ns#"
   xmlns:rdf="http://www.w3.org/1999/02/22-rdf-syntax-ns#"
   xmlns:svg="http://www.w3.org/2000/svg"
   xmlns="http://www.w3.org/2000/svg"
   xmlns:sodipodi="http://sodipodi.sourceforge.net/DTD/sodipodi-0.dtd"
   xmlns:inkscape="http://www.inkscape.org/namespaces/inkscape"
   version="1.1"
   id="svg273"
   width="1000"
   height="1000"
   viewBox="0 0 1000 1000"
   sodipodi:docname="Saida_lettre_l_bdc.svg"
   inkscape:version="0.92.2 5c3e80d, 2017-08-06">
  <metadata
     id="metadata279">
    <rdf:RDF>
      <cc:Work
         rdf:about="">
        <dc:format>image/svg+xml</dc:format>
        <dc:type
           rdf:resource="http://purl.org/dc/dcmitype/StillImage" />
        <dc:title></dc:title>
      </cc:Work>
    </rdf:RDF>
  </metadata>
  <defs
     id="defs277" />
  <sodipodi:namedview
     pagecolor="#ffffff"
     bordercolor="#666666"
     borderopacity="1"
     objecttolerance="10"
     gridtolerance="10"
     guidetolerance="10"
     inkscape:pageopacity="0"
     inkscape:pageshadow="2"
     inkscape:window-width="1025"
     inkscape:window-height="480"
     id="namedview275"
     showgrid="false"
     inkscape:zoom="0.19666667"
     inkscape:cx="346.5"
     inkscape:cy="600"
     inkscape:window-x="0"
     inkscape:window-y="0"
     inkscape:window-maximized="0"
     inkscape:current-layer="svg273" />
  <path
     style="fill:#000000;stroke-width:0.5"
     d="m 349.79004,736.47827 c -4.81668,-3.23485 -8.36273,-6.31795 -9.18731,-7.98795 -0.74979,-1.5185 -0.97436,-3.41125 -1.15655,-9.74815 -0.28067,-9.7622 0.11581,-13.82095 1.56232,-15.99355 1.81713,-2.72925 3.66224,-3.2847 12.5805,-3.78725 8.77823,-0.4946 8.78449,-0.49665 18,-5.87055 2.91387,-1.6992 3.10878,-1.7404 6.78941,-1.43505 4.23839,0.3516 6.30028,-0.32725 7.75987,-2.5549 0.44479,-0.6788 2.24081,-2.25615 3.99116,-3.5052 1.75035,-1.249 3.76273,-3.0317 4.47195,-3.96155 0.70922,-0.92984 3.26207,-3.3683 5.67298,-5.4188 4.81033,-4.09122 6.93332,-6.90535 8.67134,-11.49426 0.78315,-2.06777 2.12336,-4.09293 4.25462,-6.42907 1.71123,-1.87573 3.82145,-4.81718 4.68939,-6.53654 0.86793,-1.71937 2.84283,-4.55765 4.38867,-6.30731 1.54583,-1.74965 3.93731,-4.45491 5.31438,-6.0117 3.289,-3.71821 7.39754,-10.02481 10.96452,-16.83052 4.14558,-7.90968 6.01843,-10.23871 13.16002,-16.36547 0.8754,-0.75101 2.02869,-2.21351 2.56285,-3.25 0.53417,-1.03649 1.80804,-2.67203 2.83082,-3.63453 1.02278,-0.9625 3.10028,-3.6625 4.61667,-6 1.51639,-2.3375 4.03846,-5.7125 5.6046,-7.5 2.52976,-2.88732 6.85767,-9.40949 10.62992,-16.01931 1.37228,-2.40453 5.66322,-8.35728 10.62683,-14.7424 10.38444,-13.35842 11.21771,-15.33301 9.49,-22.48829 -0.39841,-1.65 -0.72789,-3.86465 -0.73219,-4.92146 -0.0169,-4.16029 -2.36693,-13.77148 -6.52469,-26.68492 -0.94685,-2.9408 -1.48312,-5.65892 -1.48312,-7.51733 0,-1.62922 -0.44031,-4.16372 -1,-5.75613 -0.55,-1.56484 -1,-3.83651 -1,-5.04814 0,-1.21163 -0.5859,-3.7485 -1.30199,-5.63749 -1.05025,-2.77049 -1.38409,-4.79991 -1.72665,-10.49647 -0.30618,-5.09158 -0.83508,-8.64898 -1.89564,-12.75 -1.10235,-4.26265 -1.55963,-7.44223 -1.82475,-12.68806 -0.31078,-6.14938 -0.53727,-7.45569 -1.86386,-10.75 -1.2209,-3.03185 -1.58391,-4.85117 -1.89557,-9.5 -0.21201,-3.1625 -0.62841,-6.875 -0.92532,-8.25 -0.29692,-1.375 -0.88094,-5.43176 -1.29783,-9.01502 -0.52264,-4.49225 -1.22529,-7.79553 -2.26318,-10.63939 -2.02369,-5.54505 -2.00194,-8.26967 0.0963,-12.0573 1.60147,-2.89094 1.60147,-2.89094 0.68114,-5.93059 -0.58419,-1.92945 -0.82768,-3.86167 -0.66665,-5.29029 0.17706,-1.57092 -0.0287,-2.88124 -0.68114,-4.33863 -1.22782,-2.74242 -1.17949,-4.02838 0.25824,-6.8704 0.65619,-1.29711 1.67082,-3.90774 2.25475,-5.8014 0.91567,-2.96954 1.01822,-4.17286 0.74568,-8.75 -0.28174,-4.7316 -0.14274,-6.17433 1.28198,-13.30698 0.8789,-4.4 2.14395,-9.75536 2.81126,-11.90081 0.6673,-2.14544 1.21327,-4.33134 1.21327,-4.85752 0,-1.88207 1.6637,-5.80225 4.02796,-9.49111 1.3221,-2.06281 3.1184,-5.72748 3.99178,-8.14371 0.90213,-2.49575 2.5189,-5.65773 3.7434,-7.3211 2.6031,-3.53606 3.4979,-5.22701 3.98766,-7.53575 0.64332,-3.03258 2.23283,-5.65889 5.1625,-8.52987 5.80116,-5.68494 12.40521,-13.55706 14.5867,-17.38755 3.28614,-5.77015 6.94914,-11.54261 8.8005,-13.86856 0.89131,-1.11979 2.44096,-3.52852 3.44369,-5.35275 2.06434,-3.75561 4.4207,-6.04809 7.71396,-7.50486 1.24243,-0.54958 3.28337,-1.62956 4.53542,-2.39996 1.25204,-0.77039 4.07195,-2.03969 6.26644,-2.82065 2.4272,-0.86378 5.16502,-2.32155 6.98999,-3.72188 5.03339,-3.86218 14.3591,-6.83162 19.19186,-6.11094 5.71124,0.85167 9.81209,3.97923 11.5736,8.82671 0.62364,1.71617 2.01849,4.54987 3.09967,6.29711 2.59692,4.19675 3.38148,6.56365 3.40123,10.26106 0.009,1.68418 0.2345,4.63714 0.50111,6.56214 0.2666,1.925 0.71246,6.9875 0.99079,11.25 1.06091,16.24775 1.39371,19.22763 2.4801,22.20725 1.53789,4.21792 1.74856,7.10058 0.86731,11.86775 -1.2194,6.59647 -1.80671,13.21932 -2.38767,26.925 -0.29724,7.0125 -0.7365,15.1125 -0.97613,18 -0.23961,2.8875 -0.46058,7.5 -0.49103,10.25 -0.0304,2.75 -0.35034,6.8 -0.71088,9 -1.67785,10.23816 -2.94619,16.89049 -4.06882,21.34061 -0.67163,2.66234 -1.225,6.03734 -1.22971,7.5 -0.005,1.46266 -0.45086,4.34689 -0.99143,6.40939 -0.65253,2.48962 -0.98574,5.40861 -0.99143,8.68486 -0.007,3.8821 -0.38797,6.54873 -1.78704,12.5 -0.97815,4.16083 -2.00144,9.339 -2.27397,11.50706 -0.27254,2.16806 -0.9095,4.75555 -1.41548,5.75 -2.01903,3.96816 -4.03208,10.6528 -4.03208,13.38911 0,1.95985 -0.42843,3.72749 -1.48926,6.1445 -1.30265,2.96796 -1.48432,3.94959 -1.4498,7.8338 0.0652,7.33128 -1.78724,13.52076 -5.91182,19.75342 -0.86513,1.3073 -1.44918,3.25045 -1.91574,6.37365 -0.77871,5.21274 -1.54904,6.93441 -4.54917,10.16718 -1.30952,1.41106 -2.18421,2.83075 -2.18421,3.54514 0,0.65535 -0.65946,2.52124 -1.46547,4.14642 -2.98002,6.00871 -5.41437,12.01786 -5.7545,14.20486 -0.19246,1.2375 -0.5948,3.0375 -0.89408,4 -0.54121,1.74058 -0.94615,2.42753 -6.77865,11.5 -1.67952,2.6125 -3.31433,5.425 -3.63291,6.25 -0.70854,1.83486 -1.42016,8.78869 -1.80291,17.61791 -0.24489,5.64899 -0.13398,7.25947 0.75757,11 1.13239,4.75095 2.0658,13.20876 2.07963,18.84393 0.005,1.94598 0.34228,5.11307 0.75,7.03797 0.40772,1.9249 0.74132,4.8665 0.74132,6.53689 0,1.84392 0.50713,4.69225 1.29086,7.25018 1.15818,3.78004 1.26082,4.75032 0.99857,9.43926 -0.32119,5.74277 -0.72071,3.95611 4.42293,19.77861 1.25242,3.85261 2.52361,8.35261 2.82486,10 0.92733,5.07098 4.94649,11.02194 10.01798,14.83307 4.94523,3.71625 12.79501,7.176 22.56376,9.94488 5.02824,1.42521 5.71082,1.50015 10.75571,1.18093 5.04036,-0.31894 5.59536,-0.25825 8.63104,0.94391 4.8441,1.91831 5.64073,2.01629 8.83472,1.08672 1.60026,-0.46574 5.97321,-1.36718 9.71767,-2.0032 4.36446,-0.74134 7.68597,-1.60127 9.25388,-2.39578 2.52696,-1.28051 9.6086,-2.84528 12.87681,-2.84528 2.78208,0 4.5571,1.16466 5.885,3.86136 1.11505,2.26444 1.17541,2.8956 1.1608,12.13864 -0.0174,11.05365 -0.34137,12.61215 -3.13005,15.06065 -2.64948,2.32625 -8.64936,4.93395 -13.31466,5.78685 -2.22193,0.4062 -5.8771,1.3286 -8.12259,2.0498 -4.08271,1.31125 -4.08271,1.31125 -12.3549,0.14155 -8.29036,-1.17225 -8.71889,-1.1776 -19.81239,-0.2473 -5.79386,0.4859 -11.45667,-0.69885 -17.90213,-3.7453 -4.79906,-2.26825 -5.90541,-2.58845 -10.60301,-3.0683 -5.90404,-0.6031 -11.13967,-2.21775 -13.89212,-4.28425 -3.06106,-2.29815 -8.62339,-7.2713 -11.31963,-10.12055 -1.39321,-1.47228 -4.25229,-4.39729 -6.35352,-6.50001 -2.10122,-2.10273 -4.21558,-4.61064 -4.69858,-5.57314 -1.09931,-2.19066 -5.31762,-8.48722 -7.78144,-11.61513 -1.51241,-1.92006 -2.06816,-3.28434 -2.95331,-7.25 -0.59969,-2.68668 -1.95888,-6.79737 -3.02044,-9.13487 -2.09566,-4.61453 -3.16204,-9.10842 -3.91539,-16.5 -0.26627,-2.6125 -0.83227,-6.55 -1.25778,-8.75 -0.86332,-4.46361 -1.72147,-12.46924 -2.30464,-21.5 -0.56803,-8.79625 -1.65143,-10.97061 -4.15414,-8.33728 -1.18316,1.2449 -2.15874,2.82654 -6.76311,10.96459 -0.97316,1.72003 -3.36013,4.75753 -5.30439,6.75 -4.71689,4.8339 -6.7161,7.39264 -9.27639,11.87269 -1.20634,2.11086 -3.58703,5.17701 -5.44653,7.0147 -3.67602,3.6329 -8.19947,9.93602 -16.49545,22.9853 -3.05951,4.8125 -7.01533,10.5791 -8.79071,12.81466 -1.77538,2.23557 -4.06241,5.49807 -5.08229,7.25 -1.01988,1.75194 -2.40987,3.9224 -3.08886,4.82326 -0.679,0.90085 -1.93465,2.73869 -2.79034,4.08409 -0.85569,1.34538 -2.4126,3.53332 -3.4598,4.86207 -1.0472,1.32877 -3.59399,4.84812 -5.65953,7.82082 -2.06554,2.9727 -5.60707,7.3602 -7.87005,9.75 -2.26298,2.3898 -5.03436,5.70135 -6.15862,7.35895 -1.12425,1.6576 -4.6032,5.4826 -7.73099,8.5 -3.12779,3.0174 -6.56941,6.5719 -7.64805,7.89895 -1.13437,1.3956 -3.02936,2.9503 -4.49495,3.68775 -1.3936,0.70125 -3.82913,2.24365 -5.4123,3.4276 -3.4042,2.54575 -7.19052,4.05795 -11.79581,4.7111 -1.84159,0.2612 -4.33935,0.82455 -5.55057,1.2519 -1.74549,0.61585 -3.40233,0.7102 -7.98868,0.455 -5.40398,-0.3007 -6.0368,-0.2352 -9.57404,0.99095 -4.45929,1.54575 -5.28184,1.5968 -7.01137,0.43525 z M 526.62268,490.1247 c 0.4437,-0.67718 1.14459,-2.71241 1.55752,-4.52275 0.56573,-2.48016 1.23422,-3.85006 2.71197,-5.55746 2.5803,-2.9813 3.24473,-4.3884 3.61397,-7.65336 0.17813,-1.57514 1.14758,-4.51371 2.30934,-7 1.10128,-2.35687 2.3528,-5.85329 2.78116,-7.76984 0.42835,-1.91655 1.42993,-4.50405 2.22573,-5.75 1.41939,-2.22228 2.58779,-6.30279 3.22569,-11.26537 0.17675,-1.375 0.9664,-4.3 1.75479,-6.5 0.78839,-2.2 1.65553,-5.74843 1.92696,-7.88541 0.38509,-3.03172 1.01921,-4.93057 2.88605,-8.64223 2.26235,-4.49803 2.41396,-5.05353 2.78662,-10.21059 0.21676,-2.99958 0.74115,-6.79305 1.16531,-8.42994 0.42417,-1.6369 0.77566,-4.51869 0.78112,-6.404 0.0146,-5.04451 0.78479,-9.51127 2.26881,-13.15758 1.47075,-3.61369 1.53284,-4.64337 1.11592,-18.50252 -0.2272,-7.55187 -0.13644,-9.17377 0.67133,-11.9984 0.51371,-1.79638 0.93403,-4.7951 0.93403,-6.66382 0,-1.86871 0.31729,-5.01943 0.70509,-7.00159 0.3878,-1.98215 0.85282,-7.76642 1.03337,-12.85392 0.18055,-5.0875 0.53771,-12.2875 0.79369,-16 1.23053,-17.84662 1.28407,-15.79571 -0.4764,-18.24713 -2.22038,-3.09183 -2.35533,-4.43412 -0.84832,-8.43788 1.55203,-4.12336 1.38772,-5.03609 -1.5197,-8.44222 -1.20325,-1.40965 -2.18773,-2.7452 -2.18773,-2.96789 0,-0.662 -2.44199,-0.46056 -3.96512,0.32708 -0.7785,0.40258 -3.41108,2.85201 -5.85016,5.44318 -2.4391,2.59116 -5.85151,5.89006 -7.58314,7.33088 -1.81754,1.5123 -3.66182,3.59705 -4.36296,4.93182 -1.61325,3.07122 -2.01325,3.51962 -5.28182,5.92084 -3.30671,2.42925 -6.02382,5.42865 -9.80157,10.8199 -3.3828,4.82763 -4.41364,7.09224 -5.40556,11.87521 -0.42158,2.03291 -1.32523,5.32945 -2.0081,7.32563 -0.68286,1.99619 -1.24384,4.02119 -1.24661,4.5 -0.003,0.47882 -0.80056,3.12058 -1.77285,5.87058 -1.39358,3.94158 -1.8652,6.23059 -2.22796,10.81336 -0.29311,3.70298 -0.82935,6.75002 -1.47715,8.39351 -1.22044,3.09629 -1.27086,4.70395 -0.23852,7.60526 0.6518,1.83181 0.80768,6.01608 0.95789,25.71108 0.1654,21.68831 0.25803,23.81391 1.18748,27.25 2.6433,9.77204 2.82615,10.80572 2.82615,15.97679 0,5.08612 0.0609,5.37484 1.95066,9.24931 1.55812,3.19453 1.99137,4.70377 2.15303,7.5 0.2909,5.03196 0.39458,5.33003 2.92172,8.39973 2.57687,3.1301 2.7405,4.05271 1.523,8.58759 -0.83757,3.11969 -0.73834,4.73101 0.55502,9.01337 0.41824,1.38483 0.93302,5.98847 1.15404,10.32047 0.21944,4.30126 0.65295,8.29501 0.96335,8.875 0.74956,1.40058 1.82359,1.33311 2.81286,-0.17669 z"
     id="path283"
     inkscape:connector-curvature="0" />
</svg>
