<?xml version="1.0" encoding="UTF-8" standalone="no"?>
<!-- Created with Inkscape (http://www.inkscape.org/) -->

<svg
   xmlns:dc="http://purl.org/dc/elements/1.1/"
   xmlns:cc="http://creativecommons.org/ns#"
   xmlns:rdf="http://www.w3.org/1999/02/22-rdf-syntax-ns#"
   xmlns:svg="http://www.w3.org/2000/svg"
   xmlns="http://www.w3.org/2000/svg"
   xmlns:sodipodi="http://sodipodi.sourceforge.net/DTD/sodipodi-0.dtd"
   xmlns:inkscape="http://www.inkscape.org/namespaces/inkscape"
   version="1.1"
   id="svg109"
   width="1000"
   height="1000"
   viewBox="0 0 1000 1000"
   sodipodi:docname="Saida_lettre_x_bdc.svg"
   inkscape:version="0.92.2 5c3e80d, 2017-08-06">
  <metadata
     id="metadata115">
    <rdf:RDF>
      <cc:Work
         rdf:about="">
        <dc:format>image/svg+xml</dc:format>
        <dc:type
           rdf:resource="http://purl.org/dc/dcmitype/StillImage" />
        <dc:title></dc:title>
      </cc:Work>
    </rdf:RDF>
  </metadata>
  <defs
     id="defs113" />
  <sodipodi:namedview
     pagecolor="#ffffff"
     bordercolor="#666666"
     borderopacity="1"
     objecttolerance="10"
     gridtolerance="10"
     guidetolerance="10"
     inkscape:pageopacity="0"
     inkscape:pageshadow="2"
     inkscape:window-width="1285"
     inkscape:window-height="720"
     id="namedview111"
     showgrid="false"
     inkscape:zoom="0.41739358"
     inkscape:cx="585.96774"
     inkscape:cy="600"
     inkscape:window-x="0"
     inkscape:window-y="0"
     inkscape:window-maximized="0"
     inkscape:current-layer="svg109" />
  <path
     style="fill:#000000;stroke-width:0.5"
     d="m 218.85325,909.98523 c -0.275,-0.104 -1.10141,-0.3212 -1.83646,-0.48265 -1.95787,-0.4301 -4.2978,-2.60105 -5.6415,-5.23405 -0.64834,-1.2704 -1.89486,-2.98485 -2.77005,-3.80985 -3.12987,-2.95035 -3.67326,-5.62405 -2.25199,-11.08065 0.4125,-1.5837 0.75018,-4.12595 0.75039,-5.6494 2.9e-4,-2.001 0.39348,-3.6028 1.41632,-5.76995 0.77875,-1.65 1.92272,-4.67295 2.54215,-6.7177 0.97697,-3.225 1.54608,-4.15265 4.29434,-7 2.28693,-2.36935 3.47513,-4.10315 4.27189,-6.2335 0.83417,-2.23035 1.95825,-3.818 4.60211,-6.5 1.92408,-1.95185 4.74922,-5.2363 6.27808,-7.2988 1.52887,-2.0625 5.85057,-7.0125 9.60377,-11 8.54071,-9.07386 10.59059,-11.69902 12.69956,-16.2636 0.92489,-2.00182 2.64437,-4.68412 3.82105,-5.96067 1.17668,-1.27655 2.94513,-3.70435 3.92988,-5.39511 1.30262,-2.23652 2.94844,-4.01114 6.04046,-6.51317 7.54393,-6.10448 8.89998,-7.66945 10.06289,-11.61323 1.26849,-4.30184 2.29234,-5.47661 6.39017,-7.3321 2.06029,-0.9329 4.11174,-2.39104 5.75,-4.087 1.40082,-1.45016 3.78444,-3.35447 5.29694,-4.2318 2.99322,-1.73623 3.87423,-2.40604 12.96025,-9.85332 3.35513,-2.75 7.71788,-6.24568 9.69499,-7.76817 1.97712,-1.52249 4.67721,-4.22249 6.00021,-6 1.323,-1.77751 3.15597,-4.01933 4.07327,-4.98183 0.9173,-0.9625 2.28322,-2.98222 3.03537,-4.48826 0.8008,-1.60347 3.19628,-4.63194 5.78031,-7.30772 3.09617,-3.20611 4.87853,-5.54452 5.97383,-7.83753 1.80964,-3.78843 5.81661,-8.83497 9.25165,-11.65186 3.95531,-3.24355 7.26144,-6.69089 11.47449,-11.96463 2.19689,-2.75 5.47854,-6.575 7.29255,-8.5 1.814,-1.925 4.57158,-5.11773 6.12795,-7.09496 1.55638,-1.97722 3.94696,-4.55727 5.31241,-5.73344 3.48725,-3.00385 5.65306,-6.048 7.52758,-10.58042 1.98323,-4.79527 3.22531,-6.31215 7.44981,-9.09806 3.69582,-2.43726 4.67851,-3.80608 5.48707,-7.64311 0.61543,-2.92053 1.58307,-5.02982 3.41017,-7.43366 0.66203,-0.871 1.75745,-3.38682 2.43427,-5.5907 0.83204,-2.70934 1.89168,-4.84342 3.27193,-6.58956 1.12274,-1.42038 2.6191,-3.85456 3.32524,-5.4093 0.70614,-1.55474 2.15136,-4.06496 3.2116,-5.57829 1.4588,-2.0822 2.13352,-3.74683 2.77382,-6.8434 0.84612,-4.09192 0.84612,-4.09192 -0.75014,-6.31467 -0.87794,-1.22252 -2.52271,-4.05451 -3.65503,-6.29331 -1.3921,-2.75242 -2.71751,-4.59297 -4.09303,-5.68384 -4.47615,-3.54983 -5.17267,-4.46654 -5.78716,-7.6166 -0.38841,-1.99115 -1.18953,-3.84474 -2.37708,-5.5 -3.47813,-4.84797 -4.89748,-8.19523 -4.98097,-11.74668 -0.0421,-1.7875 -0.10992,-3.50977 -0.15088,-3.82727 -0.041,-0.3175 -1.29091,-1.26378 -2.77765,-2.10285 -1.48674,-0.83906 -3.45549,-2.48886 -4.375,-3.66621 -0.91951,-1.17735 -3.17897,-3.60607 -5.02104,-5.39716 -3.49765,-3.40087 -4.40079,-4.98043 -4.40079,-7.69689 0,-0.90711 -0.88376,-3.36378 -2,-5.55962 -1.63972,-3.2256 -2,-4.44808 -2,-6.78624 0,-1.60388 -0.56953,-4.79091 -1.30145,-7.28283 -0.7158,-2.43701 -1.46337,-6.45593 -1.66127,-8.93093 -0.37131,-4.64373 -0.70817,-5.61411 -3.09067,-8.90305 -0.77051,-1.06367 -1.76065,-3.17132 -2.20031,-4.68366 -0.43965,-1.51234 -1.91242,-4.87107 -3.27283,-7.46385 -2.1104,-4.02217 -2.47347,-5.12584 -2.47347,-7.51886 0,-2.15909 -0.42251,-3.73998 -1.83548,-6.86765 -1.83548,-4.06293 -1.83548,-4.06293 -1.25,-9.33596 0.32201,-2.90017 0.58548,-7.74665 0.58548,-10.76995 0,-6.88873 0.72834,-9.73641 4.38739,-17.15398 2.44642,-4.95935 3.42189,-6.35907 6.70944,-9.62748 5.30135,-5.27051 7.65011,-6.34867 14.71055,-6.75264 5.21382,-0.29832 5.818,-0.22851 10.73371,1.24003 2.8649,0.85587 7.85487,2.03914 11.08881,2.62949 7.47517,1.36455 8.61126,2.15333 12.6201,8.762 3,4.94556 3,4.94556 2.89727,9.69556 -0.087,4.02094 0.0849,5.22158 1.11986,7.82243 0.82947,2.08449 1.37405,4.81767 1.69361,8.5 0.45569,5.2509 0.57035,5.62562 3.52268,11.51203 2.55412,5.09247 3.29697,7.20107 4.55636,12.93332 0.87353,3.97599 2.11361,8.0551 2.95633,9.72451 0.79839,1.58161 1.71101,4.36519 2.02804,6.18573 0.31704,1.82054 1.36365,4.944 2.32582,6.94103 0.96216,1.99702 2.40366,5.47381 3.20333,7.7262 0.79967,2.25239 2.23606,5.40819 3.19198,7.0129 0.95592,1.6047 2.28819,4.53518 2.96061,6.51218 1.25591,3.69252 5.30647,11.5706 6.62915,12.89329 0.41513,0.41512 1.01925,0.57587 1.36991,0.3645 1.79277,-1.08064 8.16978,-8.88948 10.1277,-12.40168 1.23364,-2.21295 3.58235,-5.58795 5.21935,-7.5 1.637,-1.91204 3.7971,-4.82644 4.80022,-6.47644 1.00312,-1.65 2.66679,-4.02289 3.69705,-5.27309 1.03026,-1.2502 2.43791,-3.54999 3.1281,-5.11065 0.6902,-1.56065 2.05782,-3.8891 3.03917,-5.17432 1.03697,-1.3581 2.22687,-3.82465 2.84109,-5.88936 0.58127,-1.95392 1.67257,-4.79008 2.42512,-6.30258 0.75254,-1.5125 1.98511,-4.38429 2.73905,-6.38177 0.75394,-1.99747 2.4649,-5.30776 3.80213,-7.3562 1.33724,-2.04843 3.31555,-5.49641 4.39626,-7.66217 1.08071,-2.16576 2.57741,-4.90798 3.32599,-6.09381 0.8612,-1.36423 1.61303,-3.59935 2.04713,-6.08595 0.37734,-2.16144 1.00643,-4.5494 1.39799,-5.30659 0.39156,-0.75719 1.09979,-2.72374 1.57386,-4.37011 0.72504,-2.51797 1.35799,-3.47038 3.98515,-5.99656 3.03975,-2.9229 3.13317,-3.08993 3.4956,-6.25 0.46444,-4.04951 1.50118,-6.11707 5.06662,-10.1043 2.8743,-3.21433 5.45485,-6.82772 7.84361,-10.98294 2.91236,-5.066 9.05254,-12.54851 17.02992,-20.75291 8.77751,-9.0273 11.72476,-11.29236 18.06394,-13.88274 1.925,-0.78661 5.96275,-2.68418 8.97278,-4.21682 5.47278,-2.78662 5.47278,-2.78662 12.5,-3.14953 3.86497,-0.1996 7.92722,-0.5926 9.02722,-0.87333 2.95479,-0.75408 8.20805,-0.64131 11.17544,0.23991 1.43382,0.4258 4.44811,2.02787 6.69843,3.56016 2.25031,1.5323 5.73881,3.56791 7.75221,4.52359 2.0134,0.95568 4.33747,2.30704 5.16459,3.00302 2.88513,2.42768 8.4444,10.53794 9.7986,14.29491 0.71254,1.97677 1.9205,4.71914 2.68436,6.09414 0.76386,1.375 2.00922,4.4125 2.76746,6.75 1.80748,5.57204 1.91746,12.62051 0.29649,19 -0.59393,2.3375 -1.29108,5.63736 -1.54919,7.33303 -0.97572,6.40983 -2.49408,7.79902 -10.90382,9.97619 -10.02144,2.59442 -15.38231,2.05598 -18.14392,-1.82235 -1.41863,-1.99228 -3.09253,-8.60857 -3.15913,-12.48687 -0.0468,-2.72468 0.20477,-3.77412 1.55633,-6.49255 0.88668,-1.78341 1.61215,-3.7021 1.61215,-4.26376 0,-1.59237 -1.4397,-3.26434 -3.69125,-4.28682 -5.26312,-2.39007 -9.98102,-0.1106 -15.82611,7.64642 -3.59622,4.77254 -6.23979,9.89355 -11.48443,22.2471 -2.31897,5.46227 -5.06448,10.9592 -6.86759,13.75 -4.96446,7.6838 -6.07547,10.29017 -6.94858,16.301 -0.42731,2.94173 -1.32066,6.72272 -1.98522,8.40219 -0.66457,1.67946 -1.56767,4.26696 -2.00689,5.75 -1.05973,3.5782 -1.64125,4.62533 -4.62601,8.33008 -4.01265,4.98057 -5.98212,8.97008 -7.54198,15.2776 -1.96102,7.92967 -1.83467,7.64372 -4.80468,10.87436 -3.41915,3.71917 -5.56616,7.93052 -7.24671,14.21438 -1.28031,4.78729 -2.61294,8.49497 -4.39531,12.22876 -0.45388,0.95081 -1.97924,2.63831 -3.38968,3.75 -1.41044,1.11168 -3.05726,2.80874 -3.65959,3.77124 -3.97101,6.34547 -5.48848,9.41296 -5.80186,11.72814 -0.53514,3.95349 -1.35179,5.05684 -5.0977,6.88731 -2.92896,1.43126 -3.70448,2.12552 -6.01947,5.38874 -1.46154,2.0602 -4.22179,5.52467 -6.13388,7.69884 -2.23185,2.53776 -3.66839,4.66548 -4.01238,5.94297 -0.53226,1.97669 -0.24344,6.02783 0.58613,8.22127 0.23241,0.6145 1.00149,3.3145 1.70907,6 1.0825,4.10847 1.8094,5.66472 4.58406,9.81417 1.8726,2.80043 3.79826,6.41136 4.45624,8.35618 2.27284,6.71793 4.80896,10.30556 10.1166,14.31113 4.4153,3.33213 5.94105,5.32683 9.19668,12.02335 1.99542,4.10439 3.39925,6.12926 7.06537,10.19105 2.54633,2.82114 6.12723,6.14124 8.07517,7.48704 5.78272,3.99519 6.80981,5.1797 7.97911,9.20197 0.93882,3.22942 2.25863,4.87386 6.67077,8.31158 5.24929,4.09 6.99919,5.9129 9.47124,9.86641 1.78594,2.85622 3.92882,5.13405 9.57136,10.17416 6.19157,5.53052 8.0519,6.88613 12.53887,9.13699 5.44572,2.73181 7.56298,4.40152 8.8741,6.99831 1.71533,3.39733 3.13799,4.66311 7.75299,6.89804 5.71864,2.76939 8.01466,4.72917 12.38931,10.57498 4.45266,5.95006 5.41279,6.86733 9.67821,9.24617 1.96572,1.09628 5.12649,3.32691 7.02394,4.95693 1.89745,1.63002 5.71596,4.17206 8.48559,5.64898 3.52692,1.88073 6.23846,3.81225 9.0501,6.44665 2.20793,2.06875 4.80191,4.30061 5.76441,4.9597 2.65986,1.82137 9.6612,9.00875 11.23815,11.53677 0.7693,1.23319 2.43665,3.38116 3.70525,4.77325 2.655,2.91337 8.01035,10.47904 10.7728,15.21892 2.91765,5.00627 9.9985,15.07594 11.7783,16.75 6.3181,5.94266 2.0418,13.7855 -7.4912,13.739 -3.23155,-0.0155 -6.0892,-1.5089 -10.1751,-5.31665 -3.8068,-3.54765 -12.4934,-9.48463 -17.7691,-12.1445 -1.755,-0.88483 -4.238,-2.43432 -5.51779,-3.44332 -1.2798,-1.00899 -7.83672,-4.48264 -14.57095,-7.71923 -9.43646,-4.53533 -13.52379,-6.22046 -17.82505,-7.34894 -9.72286,-2.5509 -23.26299,-9.41971 -30.25812,-15.34973 -6.56846,-5.5683 -12.54358,-9.62233 -18.63719,-12.64505 -6.96898,-3.45695 -10.71217,-6.14135 -13.47376,-9.66263 -1.23747,-1.57789 -3.75548,-3.68321 -6.75,-5.64372 -2.85213,-1.86729 -7.09262,-5.37837 -10.52624,-8.71563 -3.1625,-3.07376 -6.81045,-6.13069 -8.10654,-6.79319 -3.22312,-1.64751 -5.68171,-3.90436 -7.24438,-6.64999 -1.76646,-3.10366 -3.42452,-4.83343 -6.1336,-6.39887 -1.24601,-0.72001 -4.06548,-2.81308 -6.26548,-4.65127 -7.20687,-6.0216 -9.19453,-7.40776 -11.86476,-8.27425 -4.15089,-1.34697 -5.74087,-2.56675 -7.68769,-5.89776 -2.99875,-5.13087 -5.93738,-8.19068 -9.67302,-10.07192 -3.05438,-1.53815 -6.52453,-4.60221 -6.52453,-5.76099 0,-0.25511 -0.46819,-1.71521 -1.04043,-3.24465 -0.93251,-2.49234 -1.41765,-3.03535 -4.67683,-5.23461 -4.03661,-2.72388 -5.75746,-4.54438 -7.53223,-7.96838 -2.20733,-4.25856 -6.33871,-8.05372 -8.76719,-8.05372 -1.76945,0 -10.44918,5.37036 -13.6082,8.41972 -2.84332,2.74462 -5.89627,8.7208 -7.12906,13.95519 -0.49386,2.09689 -1.41065,4.34996 -2.1749,5.34496 -0.72664,0.94604 -2.34958,3.02734 -3.60653,4.6251 -1.25695,1.59776 -3.49249,4.91796 -4.96787,7.37822 -1.47537,2.46024 -3.96597,5.72274 -5.53466,7.25 -1.56869,1.52724 -4.69741,5.58931 -6.9527,9.02681 -5.08346,7.74814 -5.11637,7.78447 -8.68475,9.58729 -3.60548,1.82155 -6.71072,4.95447 -9.40384,9.48768 -2.55465,4.3001 -3.4781,5.02896 -8.4838,6.69601 -4.857,1.61753 -7.0167,3.53128 -7.88741,6.98916 -0.91308,3.62616 -2.40924,6.17822 -5.55758,9.47977 -1.57873,1.65555 -3.32973,3.92199 -3.89111,5.03654 -1.99768,3.96615 -3.52475,5.01925 -12.085,8.334 -3.42895,1.32777 -4.44756,1.97233 -5.35667,3.38955 -0.61741,0.9625 -1.49724,2.28066 -1.95517,2.92925 -0.45793,0.64859 -3.10993,2.24525 -5.89334,3.54815 -4.47167,2.09317 -8.31073,4.91813 -8.31073,6.11545 0,0.22165 -1.4625,1.99666 -3.25,3.94447 -1.7875,1.9478 -3.25,3.78375 -3.25,4.07988 0,1.34483 -2.84363,4.09389 -5.44652,5.26539 -4.0146,1.80687 -6.72445,4.17997 -9.82367,8.60288 -4.43326,6.32675 -9.08831,10.05397 -15.02348,12.02908 -4.10777,1.36695 -5.1481,2.24065 -9.19873,7.72515 -1.86117,2.52 -4.03051,5.0832 -4.82077,5.69605 -4.82738,3.74345 -8.7911,6.1838 -11.51766,7.09115 -5.00562,1.66575 -6.27229,2.7645 -7.19016,6.2368 -1.088,4.11595 -1.57754,4.86385 -4.59545,7.0209 -4.16375,2.97605 -6.74712,5.6432 -9.89707,10.218 -2.2775,3.3077 -3.94078,5.02965 -7.48602,7.75 -2.50686,1.92355 -5.75033,4.19705 -7.20772,5.05225 -1.45738,0.85515 -3.89002,2.4912 -5.40587,3.6357 -1.51586,1.14445 -4.14641,2.55035 -5.84566,3.1242 -2.66438,0.8998 -3.36286,1.41335 -5.07556,3.73175 -1.09231,1.4786 -2.63281,3.0228 -3.42334,3.4316 -1.4779,0.76425 -4.90404,1.38445 -5.79232,1.04845 z"
     id="path150"
     inkscape:connector-curvature="0" />
</svg>
