<?xml version="1.0" encoding="UTF-8" standalone="no"?>
<!-- Created with Inkscape (http://www.inkscape.org/) -->

<svg
   xmlns:dc="http://purl.org/dc/elements/1.1/"
   xmlns:cc="http://creativecommons.org/ns#"
   xmlns:rdf="http://www.w3.org/1999/02/22-rdf-syntax-ns#"
   xmlns:svg="http://www.w3.org/2000/svg"
   xmlns="http://www.w3.org/2000/svg"
   xmlns:sodipodi="http://sodipodi.sourceforge.net/DTD/sodipodi-0.dtd"
   xmlns:inkscape="http://www.inkscape.org/namespaces/inkscape"
   version="1.1"
   id="svg738"
   width="1000"
   height="1000"
   viewBox="0 0 1000 1000"
   sodipodi:docname="Saida_lettre_a2_bdc.svg"
   inkscape:version="0.92.2 5c3e80d, 2017-08-06">
  <metadata
     id="metadata744">
    <rdf:RDF>
      <cc:Work
         rdf:about="">
        <dc:format>image/svg+xml</dc:format>
        <dc:type
           rdf:resource="http://purl.org/dc/dcmitype/StillImage" />
        <dc:title></dc:title>
      </cc:Work>
    </rdf:RDF>
  </metadata>
  <defs
     id="defs742" />
  <sodipodi:namedview
     pagecolor="#ffffff"
     bordercolor="#666666"
     borderopacity="1"
     objecttolerance="10"
     gridtolerance="10"
     guidetolerance="10"
     inkscape:pageopacity="0"
     inkscape:pageshadow="2"
     inkscape:window-width="1249"
     inkscape:window-height="698"
     id="namedview740"
     showgrid="false"
     inkscape:zoom="0.36721354"
     inkscape:cx="624"
     inkscape:cy="600"
     inkscape:window-x="0"
     inkscape:window-y="0"
     inkscape:window-maximized="0"
     inkscape:current-layer="svg738" />
  <path
     style="fill:#000000;stroke-width:0.5"
     d="m 368.62486,816.85847 c -0.825,-0.0986 -4.9875,-0.52405 -9.25,-0.94545 -12.41992,-1.22775 -15.17047,-1.62495 -22.40757,-3.23555 -13.25447,-2.94975 -14.07199,-3.25325 -22.51424,-8.35937 -4.3055,-2.60409 -9.74069,-6.13568 -12.07819,-7.84797 -2.3375,-1.7123 -5.31022,-3.71834 -6.60605,-4.45786 -3.32787,-1.89921 -14.13317,-12.00549 -19.25444,-18.00883 -5.22455,-6.12442 -7.31091,-10.31596 -11.95428,-24.01639 -4.60221,-13.579 -4.65842,-13.88271 -5.19224,-28.04943 -0.25905,-6.875 -0.79427,-14.75 -1.18936,-17.5 -0.39509,-2.75 -0.87492,-7.025 -1.06629,-9.5 -0.19138,-2.475 -0.74494,-6.75 -1.23014,-9.5 -0.76435,-4.33213 -0.86253,-7.66606 -0.73504,-24.95927 0.0809,-10.9776 0.30235,-22.02934 0.49204,-24.55942 0.2752,-3.67066 0.16882,-5.19432 -0.52649,-7.54073 -1.22635,-4.1385 -1.54417,-30.4237 -0.46177,-38.19058 0.43981,-3.15591 0.80214,-10.63481 0.90838,-18.75 0.0972,-7.425 0.42994,-15.75 0.73944,-18.5 0.8721,-7.74921 2.01799,-19.61928 2.27927,-23.61048 0.13,-1.98576 0.69276,-5.81076 1.2506,-8.5 0.55782,-2.68924 1.34288,-6.68952 1.74455,-8.88952 3.00295,-16.44743 6.98435,-29.49874 11.49496,-37.68131 1.76414,-3.20028 3.92547,-7.56146 4.80295,-9.69151 1.59365,-3.86855 7.00503,-11.45473 13.46546,-18.87718 1.55582,-1.7875 4.27469,-5.05 6.04195,-7.25 1.76725,-2.2 4.48093,-5.35 6.03038,-7 1.54947,-1.65 5.0997,-5.79873 7.88941,-9.21939 4.32754,-5.30629 5.33466,-6.89669 6.85976,-10.83277 0.98315,-2.53736 2.47276,-5.70114 3.31025,-7.03062 2.43828,-3.87068 12.64365,-13.676 16.69966,-16.04504 3.36581,-1.9659 4.74236,-3.25716 8.65428,-8.11807 0.93349,-1.15994 2.846,-2.84483 4.25,-3.7442 1.40402,-0.89937 3.98575,-3.24921 5.73717,-5.22186 3.44575,-3.881 7.98321,-6.61406 13.77708,-8.29838 4.3282,-1.25824 13.60748,-0.84119 17.03851,0.76579 2.25855,1.05783 3.22437,1.17447 10,1.20772 8.87354,0.0435 9.76433,0.35174 14.46617,5.00502 1.69798,1.68044 4.7034,3.92198 6.74275,5.02896 4.43108,2.40524 8.27671,6.07639 10.23885,9.7743 2.05182,3.86693 2.49969,4.27146 6.44122,5.81787 4.25956,1.67118 8.05472,4.95885 10.09026,8.74098 0.79026,1.46832 2.75231,4.08721 4.36013,5.81975 1.60781,1.73254 3.73305,4.77004 4.72276,6.75 1.19542,2.39151 3.0412,4.88313 5.49864,7.42263 2.14815,2.21988 4.14864,4.84044 4.77114,6.25 0.58959,1.33501 2.15535,3.6742 3.47946,5.1982 4.33239,4.98636 7.30057,13.0102 6.64391,17.96038 -0.42314,3.18976 0.5179,6.2014 3.04469,9.74396 1.23927,1.73747 2.61667,4.51432 3.23647,6.52477 1.81885,5.89982 2.53755,7.73907 5.95902,15.25 3.30261,7.25 3.30261,7.25 3.30357,13.06685 0.001,5.77392 0.0131,5.8337 1.63955,8.10067 2.11872,2.953 3.11072,5.82634 3.1142,9.02034 0.004,3.50289 0.81762,6.18775 1.98819,6.55927 1.2496,0.39661 4.62388,-0.52282 5.97714,-1.62866 0.74748,-0.61081 1.44068,-2.42604 2.33651,-6.11847 1.21968,-5.0273 1.2925,-6.18325 1.71663,-27.25 0.45265,-22.48328 0.85546,-27.53609 2.55859,-32.09484 2.5241,-6.75621 10.22276,-9.09132 33.67014,-10.21262 21.3927,-1.02304 22.3784,-0.9871 26.5,0.96611 1.925,0.91226 5.5878,2.07918 8.1395,2.59316 5.3706,1.08178 7.3877,2.17632 9.9775,5.41389 1.0269,1.28387 3.5407,4.1343 5.5861,6.3343 4.0857,4.39439 8.1368,10.24225 9.0844,13.11347 0.4276,1.29565 0.5154,3.89346 0.2952,8.73327 -0.176,3.87089 -0.1108,7.42186 0.1491,8.10522 0.2543,0.66891 1.2532,2.25225 2.2198,3.51854 2.2327,2.925 2.6136,4.93925 1.5961,8.43929 -0.9975,3.43159 -1.012,6.10708 -0.048,8.84021 0.4125,1.16915 0.75,3.39976 0.75,4.95692 0,2.91699 -0.5298,4.24436 -3.75,9.39419 -1.2674,2.02702 -1.4894,2.86394 -1.4321,5.39889 0.037,1.65 0.5419,4.9125 1.1215,7.25 1.3396,5.40328 1.3538,10.2454 0.043,14.75159 -1.4357,4.9361 -2.2832,19.62121 -1.5907,27.56092 0.338,3.87507 0.3691,10.97413 0.09,20.43749 -0.4997,16.91561 -0.7258,20.09125 -1.9587,27.5 -0.5908,3.55009 -1.0309,9.66573 -1.2414,17.25 -0.2813,10.13775 -0.1827,12.98492 0.7185,20.75 1.1721,10.09883 1.8023,13.2008 4.2161,20.75 0.9233,2.8875 1.8424,6.0375 2.0424,7 0.4849,2.33301 1.9565,5.16522 4.2895,8.25516 2.5096,3.32405 3.4522,5.67401 3.4522,8.60708 0,3.40413 0.6281,5.18463 2.9007,8.22281 1.0964,1.46572 3.009,4.68995 4.2503,7.16495 1.2413,2.475 3.4589,6.33554 4.928,8.57898 1.469,2.24345 3.9725,6.21151 5.5632,8.81793 3.1495,5.16044 10.0386,13.08197 21.8314,25.10309 4.0467,4.125 7.8267,8.2875 8.4001,9.25 0.5734,0.9625 1.4158,3.2125 1.8722,5 0.4563,1.7875 1.6437,5.05 2.6387,7.25 2.4497,5.41636 2.4572,7.88621 0.037,12.26036 -0.9856,1.7818 -2.1893,4.47714 -2.6747,5.98964 -1.1363,3.54005 -4.008,6.38225 -8.0166,7.93425 -2.2516,0.87175 -4.6935,1.26805 -9.9809,1.61985 -15.0097,0.9987 -17.3262,0.7631 -21.75,-2.2117 -2.5659,-1.7254 -21.5,-20.49379 -21.5,-21.31177 0,-0.29545 -1.5981,-1.56154 -3.5514,-2.81353 -2.2587,-1.44785 -8.1966,-6.76959 -16.3146,-14.62173 -14.0152,-13.55619 -17.7042,-16.79042 -25.5926,-22.43736 -2.9103,-2.08332 -7.039,-5.47497 -9.1748,-7.53699 -3.6629,-3.53627 -3.9845,-3.73273 -5.6636,-3.46026 -2.2224,0.36065 -6.6979,3.94578 -15.4378,12.36661 -3.87082,3.72951 -7.73286,6.9597 -9.51522,7.95847 -1.65,0.9246 -5.3625,3.29549 -8.25,5.26863 -2.8875,1.97315 -6.4361,4.22398 -7.88577,5.00186 -1.44968,0.77788 -4.03718,2.63818 -5.75,4.13402 -1.71283,1.49583 -5.70173,4.46401 -8.86423,6.59597 -3.1625,2.13195 -7.6625,5.39879 -10,7.25964 -7.5203,5.9868 -11.09973,8.17088 -17.08115,10.42248 -3.66559,1.37984 -8.48647,3.78125 -14.16885,7.05787 -2.2,1.26859 -6.25,3.00224 -9,3.85264 -2.75,0.85035 -6.30348,2.0874 -7.89663,2.749 -5.07129,2.10605 -11.89798,3.6651 -18.35337,4.19155 -3.4375,0.2803 -10.075,0.8416 -14.75,1.2473 -7.5764,0.6575 -22.479,0.8847 -26.5,0.40405 z m 20.41808,-81.18094 c 2.12104,-0.55556 4.85161,-1.34797 6.06794,-1.76092 2.14583,-0.72854 12.47817,-6.71774 15.51296,-8.99219 0.82556,-0.61872 2.69095,-1.7208 4.14531,-2.44907 3.0451,-1.52483 3.34186,-2.10086 3.83596,-7.44579 0.27609,-2.98664 0.15663,-4.75495 -0.50667,-7.5 -0.79111,-3.274 -1.12871,-3.84447 -3.81408,-6.44482 -1.70366,-1.64972 -3.38705,-3.86383 -3.99159,-5.25 -0.57499,-1.31842 -1.82316,-3.66972 -2.77372,-5.22512 -2.3034,-3.76902 -2.65065,-5.54883 -1.77149,-9.07957 0.71718,-2.8802 0.71718,-2.8802 -0.70276,-4.657 -3.32949,-4.16623 -3.41994,-4.45748 -3.41994,-11.01182 0,-6.07638 0,-6.07638 -2.30533,-8.10616 -3.2372,-2.85027 -4.6666,-6.25012 -4.65309,-11.06745 0.009,-3.23759 0.26145,-4.30374 1.84694,-7.80251 1.01004,-2.22887 2.17208,-5.34115 2.58231,-6.91616 0.66841,-2.56618 0.66436,-3.08011 -0.0389,-4.94749 -0.43163,-1.14611 -1.14589,-3.35964 -1.58724,-4.91895 -0.74676,-2.63833 -0.74187,-3.0273 0.0704,-5.604 0.73332,-2.32636 1.42185,-3.25685 4.30804,-5.82194 3.43521,-3.05304 3.43521,-3.05304 3.60606,-7.96187 0.16684,-4.79349 0.21785,-4.97695 2.17086,-7.80844 2,-2.89962 2,-2.89962 2.32517,-9.18413 0.17885,-3.45648 0.3476,-10.72408 0.375,-16.15023 0.0274,-5.42614 0.30976,-11.38864 0.62746,-13.25 0.4803,-2.81403 0.438,-4.14252 -0.25102,-7.88428 -1.03527,-5.62209 -1.07393,-17.2135 -0.10293,-30.87008 0.69999,-9.84504 0.54555,-14.77373 -0.70427,-22.47564 -0.28152,-1.73485 -0.51356,-5.00048 -0.51564,-7.25696 -0.004,-4.38269 -1.81027,-12.02235 -3.52215,-14.89732 -0.49125,-0.825 -1.26654,-2.79375 -1.72288,-4.375 -0.941,-3.26066 -1.27482,-3.39018 -5.46321,-2.11959 -3.28774,0.99738 -7.10613,0.92251 -9.54553,-0.18715 -2.28975,-1.04158 -3.00702,-1.79857 -4.75,-5.01299 -0.82525,-1.52193 -1.63294,-2.35965 -2.37693,-2.4653 -1.14916,-0.16318 -6.44318,2.73835 -7.65046,4.19304 -0.40507,0.48808 -0.67934,2.34043 -0.72212,4.87699 -0.0772,4.57737 -0.616,5.96837 -3.68578,9.51523 -1.17426,1.35675 -2.58085,3.90747 -3.53682,6.41369 -2.39214,6.27136 -5.87553,12.31268 -9.03011,15.66108 -3.76812,3.99964 -4.80869,5.85285 -6.0207,10.72262 -0.56137,2.25552 -1.48423,5.26564 -2.05081,6.68916 -0.86721,2.17886 -0.9667,3.10226 -0.62904,5.83822 0.51689,4.18829 0.51471,9.96034 -0.008,21.75 -0.28634,6.45574 -0.23982,11.18236 0.14518,14.75 0.51175,4.74226 0.46924,5.65432 -0.43954,9.43058 -0.96025,3.99012 -0.96983,4.37402 -0.21035,8.42708 0.64667,3.45108 0.69626,5.00943 0.26472,8.31943 -0.29205,2.2401 -0.75607,7.90241 -1.03115,12.5829 -0.27508,4.6805 -0.72914,9.71746 -1.00901,11.19325 -0.6573,3.46593 -0.64733,6.40267 0.0375,11.04676 0.4914,3.3323 0.42938,4.27909 -0.55677,8.5 -0.80338,3.43861 -1.17763,6.96108 -1.35559,12.75879 -0.22227,7.24132 -0.1361,8.41521 0.89923,12.25 0.62978,2.33267 1.10738,5.36621 1.06133,6.74121 -0.046,1.375 -0.0718,7.7875 -0.0572,14.25 0.0146,6.4625 -0.24236,16.1375 -0.57099,21.5 -0.76325,12.45459 -0.71126,12.66374 4.55843,18.33783 8.92967,9.61495 22.8063,19.15513 31.11906,21.39435 3.39336,0.91408 3.06958,0.9245 7.52418,-0.24227 z m 111.24524,-69.36491 c 1.16704,-0.99713 3.21863,-8.91458 4.07136,-15.71216 0.28722,-2.28956 0.85377,-6.63784 1.25901,-9.66284 1.41747,-10.58115 0.89748,-14.82886 -2.79894,-22.8641 -2.62923,-5.71538 -3.18578,-9.41047 -2.65629,-17.6359 0.23014,-3.575 0.42812,-8.68789 0.43998,-11.36198 0.029,-6.54354 -0.247,-6.82378 -7.57382,-7.68989 -8.80856,-1.04127 -8.13292,-1.21805 -10.94802,2.8646 -2.4566,3.56274 -2.4566,3.56274 -3.05461,14.37501 -0.35584,6.43355 -0.91219,11.92594 -1.3738,13.56226 -0.42668,1.5125 -1.0075,4.7539 -1.29072,7.2031 -0.32771,2.83403 -1.05127,5.72963 -1.99006,7.96402 -1.47513,3.51091 -1.47513,3.51091 -1.18619,12.0469 0.15892,4.69479 0.48888,9.33814 0.73325,10.31855 0.62937,2.52511 2.18855,3.70154 6.20553,4.68218 6.99662,1.70804 11.83185,4.73797 13.7982,8.64646 1.70796,3.39489 2.42223,4.13879 3.9739,4.13879 0.75192,0 1.82796,-0.39375 2.39122,-0.875 z"
     id="path748"
     inkscape:connector-curvature="0" />
</svg>
