<?xml version="1.0" encoding="UTF-8" standalone="no"?>
<!-- Created with Inkscape (http://www.inkscape.org/) -->

<svg
   xmlns:dc="http://purl.org/dc/elements/1.1/"
   xmlns:cc="http://creativecommons.org/ns#"
   xmlns:rdf="http://www.w3.org/1999/02/22-rdf-syntax-ns#"
   xmlns:svg="http://www.w3.org/2000/svg"
   xmlns="http://www.w3.org/2000/svg"
   xmlns:sodipodi="http://sodipodi.sourceforge.net/DTD/sodipodi-0.dtd"
   xmlns:inkscape="http://www.inkscape.org/namespaces/inkscape"
   version="1.1"
   id="svg159"
   width="1000"
   height="1000"
   viewBox="0 0 1000 1000"
   sodipodi:docname="Masomeh_maj_a2.svg"
   inkscape:version="0.92.2 5c3e80d, 2017-08-06">
  <metadata
     id="metadata165">
    <rdf:RDF>
      <cc:Work
         rdf:about="">
        <dc:format>image/svg+xml</dc:format>
        <dc:type
           rdf:resource="http://purl.org/dc/dcmitype/StillImage" />
        <dc:title></dc:title>
      </cc:Work>
    </rdf:RDF>
  </metadata>
  <defs
     id="defs163" />
  <sodipodi:namedview
     pagecolor="#ffffff"
     bordercolor="#666666"
     borderopacity="1"
     objecttolerance="10"
     gridtolerance="10"
     guidetolerance="10"
     inkscape:pageopacity="0"
     inkscape:pageshadow="2"
     inkscape:window-width="1291"
     inkscape:window-height="753"
     id="namedview161"
     showgrid="false"
     inkscape:zoom="0.39947917"
     inkscape:cx="609.36962"
     inkscape:cy="499.86962"
     inkscape:window-x="0"
     inkscape:window-y="0"
     inkscape:window-maximized="0"
     inkscape:current-layer="svg159" />
  <path
     style="fill:#000000;stroke-width:0.5"
     d="m 182.70229,887.4012 c -0.63182,-0.2682 -1.89073,-1.05355 -2.79759,-1.7452 -0.90685,-0.6917 -2.88451,-1.6828 -4.39481,-2.2024 -1.51031,-0.5196 -3.40139,-1.29035 -4.20243,-1.7127 -2.44642,-1.2899 -7.95804,-7.3261 -11.36,-12.4412 -3.53952,-5.32195 -4.15411,-7.4252 -3.4044,-11.65075 0.75897,-4.27775 1.49427,-9.16165 2.82291,-18.75 1.69951,-12.2647 2.4034,-15.3522 4.75458,-20.85529 1.32931,-3.11133 2.39233,-6.81129 3.23621,-11.26398 0.69118,-3.6469 1.91186,-8.20573 2.71263,-10.13073 4.05152,-9.73958 5.23235,-12.82141 6.27437,-16.3754 0.76935,-2.62402 2.03065,-5.20725 3.90611,-8 4.28764,-6.38477 6.27762,-10.69038 7.09833,-15.35835 1.1403,-6.48574 3.45934,-9.50378 10.61225,-13.81105 2.23229,-1.34421 3.36889,-1.7052 5.36898,-1.7052 5.11024,0 8.41271,3.25223 10.5654,10.40466 0.7193,2.38993 2.00799,5.45238 2.86374,6.80542 2.09192,3.30756 2.38564,7.32235 0.89479,12.23066 -1.16002,3.81913 -2.64022,5.91399 -5.37138,7.60194 -1.96478,1.21431 -2.89005,3.01841 -5.22029,10.17857 -0.80033,2.45918 -1.98058,5.27168 -2.62279,6.25 -0.64221,0.97831 -1.43172,2.5458 -1.75448,3.48331 -0.80907,2.35014 -2.34569,11.68889 -3.54513,21.54544 -0.87913,7.2244 -0.92264,8.642 -0.35,11.40325 0.35966,1.73425 1.00835,3.50765 1.44154,3.9408 0.71681,0.71685 1.06246,0.54575 3.84527,-1.9032 1.6817,-1.47995 4.02222,-3.93265 5.20116,-5.45045 2.21981,-2.8578 7.66505,-6.44369 16.32379,-10.74976 2.0625,-1.02569 5.48869,-3.08638 7.61376,-4.57929 2.12507,-1.49291 4.93757,-3.07537 6.25,-3.51656 2.49757,-0.83958 7.48323,-4.12815 9.85639,-6.5013 0.76438,-0.76438 2.01897,-2.62812 2.78798,-4.14164 0.81347,-1.60102 2.74306,-4.01944 4.61398,-5.78288 2.64699,-2.49491 3.46934,-3.67731 4.64934,-6.68493 0.87016,-2.21788 2.27531,-4.59013 3.57534,-6.03607 1.74239,-1.93797 2.48263,-3.42953 3.96986,-7.99915 1.66789,-5.1247 2.08332,-5.8898 4.74004,-8.72985 1.60156,-1.71207 3.34461,-4.12226 3.87344,-5.35598 0.52884,-1.23372 2.33327,-3.78845 4.00985,-5.67717 2.14291,-2.41405 3.43537,-4.44689 4.35137,-6.84403 1.80761,-4.73046 4.65878,-8.38191 10.74426,-13.76 8.66572,-7.65841 15.40906,-15.55142 18.45237,-21.59832 1.0238,-2.03425 2.63876,-4.14776 4.39367,-5.75 1.52616,-1.39341 3.47087,-3.31502 4.32159,-4.27025 0.85072,-0.95523 2.39827,-2.53023 3.43901,-3.5 1.96039,-1.82671 3.44479,-3.34503 11.20214,-11.45813 4.10735,-4.29571 4.76291,-5.24663 6.18413,-8.97033 1.04672,-2.74247 2.4946,-5.29362 4.23877,-7.46867 3.00571,-3.74824 4.88987,-7.2074 4.62624,-8.49338 -0.25714,-1.25435 -3.26402,-0.90354 -7.79942,0.90996 -2.01074,0.804 -5.45935,1.92228 -7.66358,2.48507 -2.20423,0.56279 -5.62158,1.65425 -7.59411,2.42547 -3.99492,1.56194 -12.36923,3.71681 -17.33642,4.46099 -2.23446,0.33477 -4.16629,1.04356 -6.18235,2.26834 -1.6128,0.97978 -4.2003,2.06474 -5.75,2.41103 -1.98097,0.44266 -3.41154,1.16675 -4.81765,2.43849 -5.38018,4.86604 -14.13228,10.47737 -18.21575,11.67887 -4.0131,1.1808 -6.46154,0.9924 -12.4185,-0.95555 -4.64964,-1.52046 -5.96632,-2.21924 -9.86575,-5.23593 -2.475,-1.91472 -6.04672,-4.55175 -7.93716,-5.86006 -2.44177,-1.68989 -4.14029,-3.39533 -5.86518,-5.88907 -1.33541,-1.93068 -3.65751,-5.19782 -5.16022,-7.26032 -4.09639,-5.6224 -5.12899,-7.42698 -7.88409,-13.77838 -1.78573,-4.11667 -2.71175,-7.07313 -3.1764,-10.14113 -0.36072,-2.38177 -1.00935,-5.67151 -1.4414,-7.31054 -0.98482,-3.73599 -0.99403,-6.57107 -0.0334,-10.27829 1.05476,-4.07044 8.65755,-21.23769 15.05375,-33.99166 4.83288,-9.63672 5.73051,-11.09341 8.66764,-14.06595 4.03395,-4.08258 5.84589,-4.62735 9.44684,-2.84022 2.13653,1.06034 2.54349,1.58133 4.91023,6.28589 4.05634,8.06313 4.5845,13.39192 1.92367,19.40853 -0.7035,1.59073 -1.72475,4.63773 -2.26945,6.7711 -0.5447,2.13338 -1.64342,5.52402 -2.4416,7.53476 -2.16362,5.45051 -3.21519,12.52791 -2.79222,18.79269 0.31851,4.71754 0.52928,5.51169 2.58234,9.72994 3.21443,6.60439 5.17343,9.0684 8.50611,10.69894 2.7748,1.35758 2.81842,1.362 7.60067,0.77004 2.64542,-0.32745 6.96822,-0.5932 9.60622,-0.59054 4.2036,0.004 5.06869,-0.14993 7,-1.24739 5.1448,-2.92352 6.64884,-3.4126 11.70364,-3.80576 4.55468,-0.35426 5.40078,-0.59096 9.5,-2.65775 2.475,-1.24787 7.2,-3.26029 10.5,-4.47202 8.00999,-2.94121 14.41222,-5.61987 17.48131,-7.31409 1.38528,-0.76471 3.38583,-1.6648 4.44567,-2.00021 1.05983,-0.3354 3.66376,-1.79927 5.78651,-3.25304 2.12275,-1.45378 5.5306,-3.47815 7.57302,-4.49861 2.04242,-1.02047 4.44801,-2.40729 5.34576,-3.08184 0.89774,-0.67455 2.92274,-1.78785 4.5,-2.474 1.57725,-0.68615 6.01773,-2.82891 9.86773,-4.76168 6.47186,-3.249 7.32227,-3.54264 11.27142,-3.89207 2.59928,-0.22998 4.77579,-0.7084 5.55982,-1.22212 0.9387,-0.61506 2.00769,-2.63838 3.9384,-7.4544 1.45749,-3.63561 3.61479,-8.41106 4.79398,-10.61211 1.1792,-2.20105 2.51608,-5.46355 2.97085,-7.25 1.00571,-3.95065 1.21248,-4.35604 3.67016,-7.19567 1.07125,-1.23774 2.33768,-3.44338 2.81429,-4.90142 1.24505,-3.80891 1.96361,-5.06647 4.57504,-8.00679 2.38766,-2.68839 5.10022,-7.92344 6.15858,-11.88566 0.83258,-3.11697 3.74596,-10.05493 6.05777,-14.42606 1.06683,-2.01713 1.93969,-3.96232 1.93969,-4.32264 0,-0.36033 0.63938,-2.19745 1.42084,-4.08249 0.78146,-1.88505 1.8173,-4.50849 2.30186,-5.82988 0.48898,-1.33341 2.03832,-3.66962 3.48172,-5.25 5.24568,-5.74344 7.27844,-8.63357 8.10046,-11.51708 1.22187,-4.28612 3.11685,-7.41315 5.67425,-9.36345 2.99003,-2.28022 7.42618,-7.29609 9.25721,-10.46695 0.794,-1.375 2.60114,-3.7375 4.01585,-5.25 1.41472,-1.5125 3.10356,-3.5375 3.75299,-4.5 0.64943,-0.9625 3.6752,-4.45 6.72393,-7.75 3.04873,-3.3 6.19107,-6.9 6.98297,-8 0.79191,-1.1 2.18652,-2.7902 3.09915,-3.75601 0.91263,-0.9658 2.35387,-3.18979 3.20274,-4.9422 0.84888,-1.7524 2.72375,-4.4497 4.16636,-5.99399 4.44108,-4.75405 9.01378,-10.57213 12.53402,-15.94765 1.85126,-2.82692 4.55369,-6.42692 6.0054,-8 1.45172,-1.57308 3.68732,-4.43515 4.968,-6.36015 4.56903,-6.86772 8.58997,-12.59917 10.37084,-14.78259 0.99471,-1.21957 2.75018,-3.72276 3.90102,-5.56264 1.92446,-3.07669 6.54409,-7.9013 9.28557,-9.69758 1.384,-0.90683 2.97226,-4.00092 3.98808,-7.76916 0.41692,-1.54658 1.54288,-3.90909 2.50214,-5.25 0.95927,-1.34092 2.72803,-4.46303 3.93059,-6.93803 2.83699,-5.83885 4.24691,-7.45849 7.5775,-8.70462 1.4861,-0.55602 4.6364,-2.03119 7.00068,-3.27816 4.99462,-2.63426 6.82565,-2.82001 10.50583,-1.06576 4.22845,2.0156 15.78015,10.77478 19.5,14.78603 0.825,0.88963 2.76485,2.48265 4.3108,3.54005 1.69875,1.1619 4.27045,3.76227 6.5,6.5725 2.02905,2.55748 5.2642,6.34433 7.1892,8.41522 1.925,2.07089 4.2714,5.22089 5.2142,7 0.9428,1.77911 2.541,4.47224 3.55155,5.98474 2.6369,3.94668 6.77325,11.82038 8.19745,15.60408 1.17565,3.12349 2.90045,12.06344 4.56195,23.64592 0.43395,3.025 1.4583,7.4125 2.2763,9.75 1.6128,4.60877 2.9409,12.07965 2.9456,16.56977 0,1.55087 0.3641,4.70087 0.80545,7 0.6917,3.60311 0.71445,4.76699 0.16455,8.43023 -0.4761,3.17162 -0.6112,12.44288 -0.53235,36.53882 0.0581,17.75885 0.27695,32.92914 0.48625,33.71175 0.2093,0.78261 0.73635,1.64735 1.1712,1.92166 1.23555,0.77935 10.0952,-2.22756 18.16325,-6.16448 5.55435,-2.71033 7.3456,-3.84168 8.64765,-5.46195 2.51765,-3.13285 4.10095,-3.76116 9.23415,-3.66446 6.45015,0.12151 10.93565,2.41396 12.6744,6.4776 1.00695,2.3534 0.85135,4.31137 -0.64005,8.05578 -1.3023,3.26955 -6.2798,11.22277 -7.8278,12.50748 -0.4313,0.35795 -2.42885,0.89472 -4.43895,1.19282 -2.70235,0.40076 -4.3063,0.97277 -6.1548,2.19493 -1.375,0.90911 -5.29535,2.57523 -8.71185,3.70249 -3.4165,1.12727 -8.3665,3.02565 -11,4.21863 -2.6335,1.19298 -5.35065,2.33289 -6.03815,2.53315 -0.6875,0.20025 -2.0746,0.78002 -3.0824,1.28837 -2.1671,1.09309 -2.6267,2.2764 -3.3784,8.69741 -0.28975,2.475 -0.8671,7.36342 -1.283,10.86316 -0.4159,3.49974 -0.7562,8.05085 -0.7562,10.11358 0,2.75703 -0.3232,4.60903 -1.2201,6.99195 -0.67105,1.78284 -1.45855,5.27548 -1.75,7.76142 -1.24395,10.61069 -1.53795,13.67702 -2.0155,21.01989 -0.27715,4.2625 -0.73,9.1 -1.0063,10.75 -0.27625,1.65 -0.5075,5.1375 -0.5139,7.75 -0.006,2.6125 -0.3558,6.325 -0.77655,8.25 -0.4207,1.925 -0.9482,5.21605 -1.17225,7.31344 -0.61825,5.78915 0.19895,34.83323 1.1237,39.93656 0.42355,2.3375 1.02475,6.5 1.33595,9.25 0.3112,2.75 0.87605,6.2375 1.25525,7.75 0.3792,1.5125 0.92185,4.62557 1.2059,6.91792 0.34855,2.81247 1.07515,5.41415 2.23425,8 0.9448,2.10764 2.22795,5.71192 2.85145,8.00952 0.62355,2.29759 1.86635,5.33509 2.76175,6.75 0.89545,1.41491 2.18615,3.5992 2.8682,4.85397 1.7103,3.14634 2.25435,3.48663 6.4765,4.05082 4.64295,0.62041 6.8724,0.0706 10.36975,-2.55724 1.53555,-1.1538 3.6548,-2.2013 5.16325,-2.55209 3.2498,-0.75572 5.17215,-1.92052 7.7056,-4.66903 4.02065,-4.3619 4.46405,-6.70926 2.10305,-11.1337 -1.90835,-3.57616 -2.0251,-6.76489 -0.3378,-9.22539 0.6392,-0.93213 4.10985,-4.74287 7.7125,-8.46832 6.5503,-6.77354 6.5503,-6.77354 11.7128,-8.69749 3.58255,-1.33512 6.26975,-1.99825 8.78045,-2.16676 2.0639,-0.13851 3.8478,-0.51971 4.153,-0.88745 0.29425,-0.35455 0.7548,-2.85641 1.0234,-5.5597 0.6348,-6.38872 1.55145,-9.4686 3.5281,-11.85463 1.7039,-2.05679 4.85375,-3.78307 6.92755,-3.79666 3.3852,-0.0222 5.11435,1.0353 10.62055,6.49512 6.23935,6.18682 6.69935,7.26458 5.12445,12.00613 -0.47955,1.44378 -1.03055,4.67479 -1.22445,7.18002 -0.2471,3.19245 -0.6861,5.20291 -1.4677,6.7211 -0.61335,1.19138 -1.5585,4.19749 -2.10035,6.68023 -1.26675,5.80386 -1.75235,6.91302 -5.35755,12.23679 -1.6451,2.42926 -3.321,5.20434 -3.7243,6.16684 -0.40325,0.9625 -1.74785,3.1 -2.98795,4.75 -1.24015,1.65 -2.74605,3.97182 -3.34655,5.1596 -0.60045,1.18778 -2.2635,3.43778 -3.69565,5 -1.43215,1.56222 -4.14305,4.81523 -6.02425,7.2289 -2.08335,2.67308 -5.0124,5.63808 -7.4933,7.58526 -2.2401,1.75823 -5.19795,4.3492 -6.57295,5.75773 -1.9172,1.96396 -3.14105,2.7456 -5.25,3.35301 -1.88085,0.54173 -3.4936,1.48293 -5.1028,2.97806 -1.4164,1.31599 -4.4014,3.15485 -7.5,4.62031 -2.83095,1.33887 -6.47285,3.245 -8.0931,4.23585 -1.62025,0.99085 -4.09525,2.12481 -5.5,2.51991 -18.11725,5.09569 -18.9551,5.21531 -27.18385,3.88099 -6.96035,-1.12863 -8.77605,-1.99799 -10.6226,-5.0861 -1.8584,-3.10791 -3.95545,-5.43711 -5.69685,-6.32757 -3.43825,-1.75808 -5.2832,-3.74961 -7.81985,-8.44114 -1.92305,-3.5567 -2.67635,-5.56921 -3.03155,-8.09879 -0.34055,-2.42562 -0.97135,-4.17654 -2.25775,-6.26717 -0.98185,-1.59563 -2.3024,-4.52063 -2.9345,-6.5 -0.6321,-1.97936 -2.0788,-6.01705 -3.2149,-8.97263 -1.5842,-4.12132 -2.17605,-6.5103 -2.53935,-10.25 -0.26055,-2.68192 -0.91,-6.90122 -1.44315,-9.37622 -0.5858,-2.71906 -1.1788,-8.45764 -1.49835,-14.5 -0.7919,-14.97198 -1.13725,-41.02518 -0.5932,-44.75 0.2611,-1.7875 0.72145,-5.5 1.02305,-8.25 0.3016,-2.75 0.89545,-8.1349 1.31965,-11.96645 0.42415,-3.83155 1.20275,-9.2311 1.73015,-11.99901 0.52745,-2.76791 0.9634,-7.058 0.96885,-9.53355 0.0105,-4.72788 1.074,-14.96156 1.9502,-18.76405 0.2835,-1.23032 0.5211,-3.92444 0.52805,-5.98694 0.009,-2.4798 0.4583,-5.35892 1.32845,-8.5 1.09895,-3.96683 1.3256,-5.86564 1.37465,-11.51653 0.05,-5.75843 -0.0765,-6.97376 -0.84905,-8.1575 -0.90555,-1.38746 -0.92005,-1.3905 -5.75,-1.20572 -3.54865,0.13576 -5.64365,0.49757 -7.8422,1.35432 -2.26175,0.88139 -4.3534,1.22876 -8.5,1.41165 -5.35869,0.23633 -5.62263,0.30395 -10.27253,2.63131 -5.76656,2.88627 -7.31104,3.32653 -14.01945,3.99621 -2.86441,0.28594 -6.55802,0.95609 -8.20802,1.48921 -1.65,0.53313 -4.0125,1.11996 -5.25,1.30406 -1.2375,0.1841 -3.29118,0.85516 -4.56372,1.49124 -1.27255,0.63607 -3.41005,1.41967 -4.75,1.74133 -1.33996,0.32166 -3.79369,1.32803 -5.45273,2.2364 -3.45885,1.89377 -10.84245,3.89348 -18.14446,4.91408 -4.54914,0.63583 -5.39644,0.93046 -8.82996,3.07049 -2.14203,1.33506 -5.47903,2.86025 -7.65355,3.49807 -6.63373,1.94577 -15.33048,5.08812 -18.47491,6.67542 -2.12634,1.07337 -4.30608,1.6839 -7.37232,2.06493 -3.7349,0.46411 -5.1816,0.95614 -10.18288,3.46319 -3.20621,1.60723 -7.51608,3.42042 -9.57747,4.02932 -5.64319,1.66689 -6.89207,2.574 -10.498,7.6251 -1.92821,2.70099 -4.42952,5.4738 -6.15017,6.81775 -2.1009,1.64094 -3.37815,3.16786 -4.63456,5.54044 -0.95392,1.80138 -3.24884,4.92195 -5.09983,6.9346 -4.25655,4.62832 -5.38245,4.96129 -12.07009,3.56963 -7.25962,-1.51067 -7.24709,-1.5136 -11.36526,2.65627 -2.89477,2.93112 -3.87518,4.35321 -5.18409,7.51958 -0.88779,2.14767 -2.50568,5.0327 -3.59531,6.41118 -2.52165,3.19013 -5.45343,8.62251 -7.58842,14.06083 -0.91942,2.34197 -2.68242,5.80276 -3.91778,7.69064 -1.23535,1.88788 -3.57323,5.86967 -5.19529,8.84842 -5.30839,9.74834 -10.13291,13.78749 -16.9943,14.22782 -2.546,0.1634 -4.3164,-0.008 -5.99766,-0.58096 -4.92932,-1.67958 -7.665,-0.70166 -10.76493,3.84814 -0.93077,1.3661 -3.31584,3.90076 -5.30016,5.63256 -4.19802,3.66381 -9.26076,9.13067 -10.99447,11.87207 -0.66628,1.05356 -2.45771,4.20356 -3.98095,7 -1.52324,2.79645 -3.49304,5.98445 -4.37735,7.08445 -0.8843,1.1 -2.36564,3.125 -3.29187,4.5 -0.92623,1.375 -2.64992,3.69616 -3.83043,5.15813 -2.13722,2.64679 -2.57118,3.73891 -3.66648,9.22732 -0.38923,1.95039 -1.12696,3.5707 -2.27651,5 -0.93536,1.16301 -2.82222,3.72272 -4.19301,5.68826 -1.37078,1.96555 -3.69077,5.00305 -5.15552,6.75 -1.46475,1.74696 -3.55413,4.41379 -4.64306,5.92629 -1.08894,1.5125 -3.10548,4.00054 -4.4812,5.52898 -4.07498,4.52734 -11.40061,13.53237 -12.8192,15.75802 -1.87762,2.9458 -3.16126,4.0119 -7.64604,6.3502 -2.73413,1.42555 -4.8283,2.9963 -6.75,5.0629 -6.03476,6.48975 -12.16922,11.57525 -16.83806,13.95885 -1.3464,0.68735 -3.87066,2.61405 -5.60947,4.28155 -5.23319,5.01845 -11.15285,10.23625 -14.45368,12.73995 -4.62052,3.50465 -12.96131,8.6877 -15.05309,9.3541 -3.83533,1.2218 -5.11245,2.13145 -7.3036,5.2021 -1.41421,1.98185 -2.92693,3.4626 -4.12989,4.04265 -2.15617,1.0397 -7.3273,1.45295 -9.04703,0.72295 z M 476.35105,589.94051 c 1.375,-0.50918 4.81004,-1.86116 7.63344,-3.00439 2.82339,-1.14323 7.99838,-2.7764 11.5,-3.62926 3.50161,-0.85287 10.52906,-2.84156 15.61656,-4.41932 5.0875,-1.57777 11.48765,-3.24547 14.22256,-3.70601 2.73491,-0.46054 6.95101,-1.48933 9.36911,-2.2862 2.4181,-0.79687 5.24295,-1.60073 6.27744,-1.78635 1.03449,-0.18563 3.11839,-0.84189 4.63089,-1.45835 1.5125,-0.61647 4.27126,-1.26931 6.13058,-1.45076 1.85931,-0.18145 3.99682,-0.57249 4.75,-0.86897 0.75318,-0.29648 3.73192,-0.57897 6.61942,-0.62773 4.88058,-0.0824 5.53145,-0.21695 9.25,-1.9117 4.78659,-2.18154 14.81615,-4.29203 23.10075,-4.86103 6.5981,-0.45317 7.8401,-1.04673 8.69435,-4.15516 0.60365,-2.19655 1.1584,-30.13009 1.18915,-59.87633 0.016,-15.25 0.016,-15.25 -1.35925,-18.35994 -1.08035,-2.4435 -1.375,-3.87333 -1.375,-6.67237 0,-2.21523 -0.4068,-4.90172 -1.07565,-7.10386 -0.98695,-3.2492 -1.0251,-3.85381 -0.46245,-7.32762 0.55275,-3.41301 0.5124,-4.18049 -0.40955,-7.78621 -0.56255,-2.2 -1.2579,-6.37723 -1.5452,-9.28272 -0.6203,-6.27251 -3.3839,-16.75215 -5.566,-21.10629 -2.50285,-4.99423 -5.66805,-9.08149 -8.38075,-10.82224 -1.36605,-0.87657 -3.08475,-2.3818 -3.8194,-3.34497 -1.6709,-2.19066 -7.1121,-6.19378 -8.41885,-6.19378 -1.65915,0 -4.19439,2.37032 -5.84244,5.46238 -1.77355,3.3275 -5.12014,7.40378 -13.46794,16.40445 -3.66877,3.9557 -6.36559,7.37543 -7.47777,9.48225 -0.95676,1.81237 -2.77852,4.44401 -4.04837,5.84808 -2.82999,3.12908 -8.72361,10.6703 -10.9826,14.05284 -0.91827,1.375 -3.0516,4.075 -4.74071,6 -4.37757,4.9889 -5.46308,6.53481 -7.54111,10.73954 -2.06904,4.18653 -8.42497,11.15753 -13.22121,14.50062 -4.43659,3.0924 -7.27045,6.3651 -8.75889,10.11525 -0.98289,2.47641 -2.26952,4.37773 -4.91144,7.25787 -4.07963,4.44751 -10.29089,13.37056 -14.32967,20.58591 -2.95898,5.28626 -6.37678,10.14829 -10.05288,14.30079 -1.46255,1.6521 -2.80586,3.91762 -3.68128,6.20856 -0.75812,1.98397 -2.70452,5.6066 -4.32535,8.05028 -3.31352,4.99574 -3.61106,5.65304 -4.69684,10.37599 -0.4255,1.85085 -1.5302,4.60269 -2.45488,6.11519 -0.96096,1.57185 -2.23308,4.83242 -2.96934,7.61071 -0.70846,2.67339 -1.87045,6.00992 -2.58221,7.4145 -1.81027,3.5724 -1.36192,3.97346 4.449,3.97968 5.39013,0.006 7.22527,0.74542 13.56378,5.46685 3.6277,2.70221 4.23269,2.98028 6.5,2.98757 1.375,0.005 3.625,-0.40856 5,-0.91775 z"
     id="path169"
     inkscape:connector-curvature="0" />
</svg>
