<?xml version="1.0" encoding="UTF-8" standalone="no"?>
<!-- Created with Inkscape (http://www.inkscape.org/) -->

<svg
   xmlns:dc="http://purl.org/dc/elements/1.1/"
   xmlns:cc="http://creativecommons.org/ns#"
   xmlns:rdf="http://www.w3.org/1999/02/22-rdf-syntax-ns#"
   xmlns:svg="http://www.w3.org/2000/svg"
   xmlns="http://www.w3.org/2000/svg"
   xmlns:sodipodi="http://sodipodi.sourceforge.net/DTD/sodipodi-0.dtd"
   xmlns:inkscape="http://www.inkscape.org/namespaces/inkscape"
   version="1.1"
   id="svg225"
   width="1000"
   height="1000"
   viewBox="0 0 1000 1000"
   sodipodi:docname="Masomeh_bdc_v.svg"
   inkscape:version="0.92.2 5c3e80d, 2017-08-06">
  <metadata
     id="metadata231">
    <rdf:RDF>
      <cc:Work
         rdf:about="">
        <dc:format>image/svg+xml</dc:format>
        <dc:type
           rdf:resource="http://purl.org/dc/dcmitype/StillImage" />
        <dc:title></dc:title>
      </cc:Work>
    </rdf:RDF>
  </metadata>
  <defs
     id="defs229" />
  <sodipodi:namedview
     pagecolor="#ffffff"
     bordercolor="#666666"
     borderopacity="1"
     objecttolerance="10"
     gridtolerance="10"
     guidetolerance="10"
     inkscape:pageopacity="0"
     inkscape:pageshadow="2"
     inkscape:window-width="1237"
     inkscape:window-height="647"
     id="namedview227"
     showgrid="false"
     inkscape:zoom="0.34877604"
     inkscape:cx="534.5"
     inkscape:cy="600"
     inkscape:window-x="0"
     inkscape:window-y="0"
     inkscape:window-maximized="0"
     inkscape:current-layer="svg225" />
  <path
     style="fill:#000000;stroke-width:0.5"
     d="m 425.24525,907.53925 c -2.62772,-0.9204 -3.04911,-1.41925 -5.75578,-6.81345 -2.21685,-4.41805 -2.56979,-4.83675 -6.69633,-7.9437 -2.39588,-1.80385 -4.71017,-3.7852 -5.14286,-4.40295 -0.43269,-0.61775 -0.99452,-2.6344 -1.24851,-4.48145 -0.76899,-5.5921 -0.95019,-6.0421 -3.7724,-9.36875 -3.39445,-4.0012 -5.26098,-7.5076 -6.38876,-12.00165 -0.48139,-1.9183 -1.11671,-4.4614 -1.41181,-5.65125 -0.39831,-1.6061 -1.10746,-2.6366 -2.75255,-4 -2.69757,-2.2357 -4.31662,-4.9381 -5.14437,-8.5866 -0.75843,-3.34295 -1.81375,-5.51712 -5.24657,-10.80896 -2.38066,-3.66989 -3.11154,-4.37347 -7.62488,-7.33997 -5.76834,-3.79139 -6.89964,-5.28967 -7.57041,-10.02619 -0.45745,-3.23014 -1.72338,-6.01949 -3.34133,-7.36227 -2.24921,-1.86667 -4.16834,-8.46417 -4.19505,-14.42158 -0.007,-1.58033 -0.70939,-3.71471 -2.46785,-7.5 -1.35187,-2.91006 -3.05117,-7.40209 -3.77623,-9.98226 -0.72506,-2.58018 -1.95094,-5.95518 -2.72417,-7.5 -0.77324,-1.54483 -2.14563,-4.83377 -3.04977,-7.30877 -2.19424,-6.00656 -3.10369,-7.34035 -9.65923,-14.16619 -7.52421,-7.83445 -7.61502,-8.04143 -7.45346,-16.9878 0.15174,-8.40181 -0.35327,-11.08998 -3.64868,-19.42201 -2.52559,-6.38565 -5.92765,-16.84993 -9.4848,-29.174 -1.37283,-4.7563 -3.83601,-11.57364 -5.81654,-16.09841 -1.88941,-4.31663 -3.89984,-9.82912 -4.46761,-12.25 -1.88486,-8.03661 -4.55306,-15.84542 -7.02204,-20.55087 -1.34174,-2.5571 -2.43952,-5.0728 -2.43952,-5.59043 0,-0.51763 -0.9,-3.67226 -2,-7.01029 -2.40284,-7.29161 -2.53226,-10.1205 -0.80445,-17.58498 0.65755,-2.84076 1.55757,-7.11799 2.00003,-9.50495 0.44246,-2.38697 1.87321,-7.32605 3.17945,-10.97575 2.88421,-8.05866 3.97655,-9.37706 8.8657,-10.7005 2.45977,-0.66582 4.16419,-1.5595 6.42828,-3.37051 4.54856,-3.63834 5.45723,-3.98743 11.33099,-4.3531 3.95562,-0.24626 5.769,-0.596 7.35508,-1.41853 2.78475,-1.44416 4.07115,-1.37967 8.14492,0.40832 2.17863,0.95621 4.25405,1.5 5.72486,1.5 4.84629,0 7.14496,1.97524 8.47897,7.28594 1.24109,4.94082 3.48859,8.94127 7.26463,12.93073 4.31923,4.56337 4.93794,6.59645 3.87698,12.73995 -0.61275,3.54813 -0.61492,4.63245 -0.0155,7.71105 0.38364,1.97028 1.03162,6.73233 1.43996,10.58233 0.80349,7.57574 1.29383,9.25874 3.8843,13.33217 2.9046,4.56739 5.34579,12.82836 5.34579,18.0901 0,1.21794 0.57204,4.09617 1.2712,6.39608 3.51369,11.55839 4.76788,16.48147 5.01285,19.67694 0.45241,5.90154 0.64066,6.47627 3.04296,9.29065 2.53596,2.97094 3.68022,5.28349 4.67146,9.44097 0.35759,1.4998 1.17517,3.87367 1.81684,5.27527 0.64168,1.40159 2.18323,5.50251 3.42568,9.11314 1.9846,5.76734 2.25901,7.07957 2.25901,10.80243 0,4.12692 0.0466,4.29348 1.78588,6.3752 2.47051,2.957 3.2929,4.73104 5.65882,12.20705 2.59204,8.1905 3.16674,9.5203 6.40001,14.80912 3.39619,5.5553 4.2117,7.51379 5.90898,14.19088 1.93415,7.60891 3.63299,10.64819 8.8037,15.75 3.54345,3.49624 4.50196,4.78206 5.40444,7.25 1.36793,3.74076 1.45359,3.84748 6.1424,7.65252 4.39856,3.5695 7.34291,5.0707 9.97632,5.0865 2.67251,0.0161 4.02799,-1.85764 5.4203,-7.49246 1.93405,-7.82728 5.32251,-11.49548 12.69648,-13.74468 4.81045,-1.46728 5.8017,-2.34656 7.58056,-6.72439 0.70802,-1.74243 2.27902,-5.24824 3.49113,-7.79067 1.91202,-4.01056 2.70376,-5.07006 5.9797,-8.00201 2.96034,-2.64949 4.22136,-4.23565 5.83839,-7.3438 1.37343,-2.6399 2.831,-4.61125 4.3627,-5.90049 1.26511,-1.06484 3.65019,-3.07435 5.30019,-4.46559 1.94975,-1.64396 4.3719,-3.06192 6.91878,-4.05032 2.15533,-0.83645 4.34833,-1.78907 4.87334,-2.11695 0.52501,-0.32787 2.11486,-2.80312 3.533,-5.50055 1.82396,-3.46931 3.71916,-6.13267 6.47679,-9.10192 4.82615,-5.19652 5.9081,-7.27876 6.7528,-12.996 1.01865,-6.89457 2.50459,-10.88189 6.0082,-16.12219 1.7928,-2.68146 3.48174,-5.89463 3.95611,-7.52641 0.45527,-1.56607 1.1753,-3.52536 1.60007,-4.35399 1.75094,-3.41566 7.47659,-10.46414 10.2069,-12.56507 2.34036,-1.80087 3.24707,-2.9424 4.63862,-5.83997 2.5233,-5.25418 2.89652,-7.5436 2.5018,-15.34674 -0.38387,-7.58875 -0.005,-10.24908 2.41727,-16.95779 1.30099,-3.60372 2.00646,-4.71792 4.94795,-7.81454 2.52312,-2.65619 3.679,-4.33347 4.36955,-6.3406 1.55314,-4.51425 2.4729,-5.85574 5.21948,-7.61271 3.51606,-2.2492 3.7035,-2.5335 4.5348,-6.87831 1.1272,-5.89133 6.18297,-17.28801 9.45286,-21.30859 1.49504,-1.83825 3.19219,-4.28206 3.77145,-5.43068 1.4144,-2.80459 2.91148,-8.64083 3.29674,-12.85203 0.37815,-4.13341 0.82292,-5.25608 5.2729,-13.30957 4.1692,-7.54531 7.5006,-15.38955 7.5006,-17.66117 0,-0.91653 -0.58804,-3.11147 -1.30675,-4.87762 -1.60349,-3.94038 -1.46276,-7.75033 0.44428,-12.02773 0.69064,-1.54908 1.63218,-4.47171 2.0923,-6.49472 1.06253,-4.6716 2.23358,-6.54097 5.72116,-9.13288 1.53945,-1.14409 5.62389,-4.8872 9.07653,-8.31802 5.75679,-5.72041 6.53057,-6.71485 9.32788,-11.98786 1.67769,-3.1625 3.65239,-7.61077 4.38821,-9.88505 1.51172,-4.67244 2.71392,-6.34176 6.15948,-8.55277 3.06945,-1.96966 4.30143,-4.22699 5.3314,-9.76861 1.47316,-7.92621 2.83604,-9.57137 12.39938,-14.96764 9.10697,-5.13875 11.86837,-6.02369 17.61613,-5.64542 2.475,0.16289 5.28601,0.52641 6.2467,0.80782 0.96068,0.28142 3.05089,0.51167 4.64492,0.51167 5.30623,0 7.95931,-2.21681 11.78751,-9.84916 3.5291,-7.03601 6.20383,-9.11121 10.91175,-8.46591 1.88671,0.2586 2.38886,0.13078 3.38001,-0.86037 0.66324,-0.66324 1.32219,-2.11292 1.53152,-3.36933 0.77433,-4.64746 3.24262,-7.45523 6.55381,-7.45523 0.74574,0 2.50066,0.33159 3.89983,0.73686 1.39917,0.40527 3.82635,0.87004 5.39372,1.03282 3.67558,0.38173 5.82274,1.82697 7.40023,4.98104 1.25,2.49928 1.25,2.49928 1.25,27.74928 0,28.45205 0.0423,28.07193 -3.78212,33.98905 -1.1348,1.75575 -3.90817,5.12022 -6.16306,7.47661 -2.25489,2.35638 -5.40346,5.92869 -6.99684,7.93846 -3.47635,4.38481 -5.72955,6.09636 -10.34999,7.86194 -2.87627,1.09907 -3.88996,1.81295 -5.84394,4.11551 -4.22245,4.9757 -5.32511,5.93647 -7.86405,6.85211 -5.48615,1.97853 -6.77989,2.845 -10.00628,6.70166 -4.25389,5.08488 -5.98786,8.70343 -6.9792,14.56466 -0.44186,2.6125 -1.44988,6.775 -2.24004,9.25 -0.79017,2.475 -1.90571,6.10758 -2.47899,8.0724 -0.57328,1.96482 -1.85097,4.77405 -2.83933,6.24273 -2.6406,3.92392 -2.72063,4.13088 -3.17934,8.22118 -0.54712,4.87867 -1.87761,6.88533 -6.61912,9.98307 -2.01173,1.31432 -4.37276,3.05732 -5.24672,3.87335 -2.40406,2.24469 -6.05514,10.82788 -6.66959,15.67928 -0.27362,2.16039 -0.75232,4.71549 -1.06379,5.67799 -1.12877,3.48823 -4.3994,9.37896 -6.81916,12.28199 -3.52904,4.23385 -4.92782,7.34239 -6.68509,14.8564 -1.27253,5.44127 -1.54002,7.61716 -1.51114,12.29233 0.0426,6.88508 -0.43425,8.28917 -4.49495,13.23702 -3.3545,4.08736 -7.81602,12.42689 -9.40625,17.58226 -1.58637,5.14284 -2.55307,7.21054 -4.55716,9.74742 -0.98789,1.25051 -2.06499,2.77598 -2.39357,3.38994 -1.18321,2.21085 -3.61647,13.39741 -4.09425,18.82274 -1.01306,11.5035 -2.46388,14.6015 -9.12996,19.49556 -1.75417,1.28786 -4.85365,4.26519 -6.88774,6.61629 -2.03408,2.3511 -4.98593,5.77172 -6.55966,7.60139 -3.29562,3.83157 -5.46195,7.94083 -6.6302,12.57666 -0.45046,1.7875 -1.03876,4.0926 -1.30733,5.12244 -0.26857,1.02985 -1.75664,3.72441 -3.30681,5.98792 -3.46101,5.05363 -5.88886,10.54117 -6.95423,15.71824 -1.22988,5.9765 -2.5995,8.10678 -7.1901,11.18334 -3.29171,2.20606 -10.81769,8.3984 -12.40664,10.20812 -0.87297,0.99426 -2.01889,2.64524 -2.54647,3.66884 -1.17427,2.27826 -3.539,4.51842 -6.61919,6.2705 -2.80279,1.5943 -4.51324,3.54808 -6.4295,7.34415 -1.04702,2.07415 -2.818,4.12521 -6.47791,7.50238 -2.77032,2.55631 -5.8261,5.74626 -6.7906,7.08879 -1.06176,1.47789 -3.12585,3.32862 -5.23158,4.69081 -1.91285,1.23742 -4.25538,3.19815 -5.2056,4.35716 -3.78461,4.61623 -5.91336,7.30264 -9.22555,11.64239 -1.9037,2.49427 -4.9817,6.31927 -6.84,8.50002 -1.8583,2.1807 -4.32092,5.4274 -5.4725,7.2149 -1.15156,1.7875 -3.37024,4.33855 -4.93037,5.669 -1.56014,1.33045 -3.55453,3.46795 -4.432,4.75 -0.87747,1.28205 -2.76618,3.7556 -4.19713,5.4968 -1.89421,2.30485 -3.03985,4.38075 -4.21273,7.6335 -1.83283,5.08295 -4.51604,9.14725 -7.31519,11.0804 -1.95019,1.34685 -14.97934,7.28235 -18.16704,8.2761 -0.9625,0.30005 -3.20294,0.79985 -4.97876,1.1107 -4.38357,0.76725 -5.37339,1.3689 -9.02124,5.4835 -4.31891,4.8715 -6.69356,5.97745 -10.19849,4.7498 z"
     id="path235"
     inkscape:connector-curvature="0" />
</svg>
