<?xml version="1.0" encoding="UTF-8" standalone="no"?>
<!-- Created with Inkscape (http://www.inkscape.org/) -->

<svg
   xmlns:dc="http://purl.org/dc/elements/1.1/"
   xmlns:cc="http://creativecommons.org/ns#"
   xmlns:rdf="http://www.w3.org/1999/02/22-rdf-syntax-ns#"
   xmlns:svg="http://www.w3.org/2000/svg"
   xmlns="http://www.w3.org/2000/svg"
   xmlns:sodipodi="http://sodipodi.sourceforge.net/DTD/sodipodi-0.dtd"
   xmlns:inkscape="http://www.inkscape.org/namespaces/inkscape"
   version="1.1"
   id="svg1271"
   width="1000"
   height="1000"
   viewBox="0 0 1000 1000"
   sodipodi:docname="Masomeh_maj_q.svg"
   inkscape:version="0.92.2 5c3e80d, 2017-08-06">
  <metadata
     id="metadata1277">
    <rdf:RDF>
      <cc:Work
         rdf:about="">
        <dc:format>image/svg+xml</dc:format>
        <dc:type
           rdf:resource="http://purl.org/dc/dcmitype/StillImage" />
        <dc:title></dc:title>
      </cc:Work>
    </rdf:RDF>
  </metadata>
  <defs
     id="defs1275" />
  <sodipodi:namedview
     pagecolor="#ffffff"
     bordercolor="#666666"
     borderopacity="1"
     objecttolerance="10"
     gridtolerance="10"
     guidetolerance="10"
     inkscape:pageopacity="0"
     inkscape:pageshadow="2"
     inkscape:window-width="1259"
     inkscape:window-height="714"
     id="namedview1273"
     showgrid="false"
     inkscape:zoom="0.37489583"
     inkscape:cx="544"
     inkscape:cy="600"
     inkscape:window-x="0"
     inkscape:window-y="0"
     inkscape:window-maximized="0"
     inkscape:current-layer="svg1271" />
  <path
     style="fill:#000000;stroke-width:0.5"
     d="m 642.9254,776.64161 c -1.94628,-0.9809 -4.23648,-2.77135 -6.28124,-4.91065 -1.76996,-1.8518 -4.56023,-4.6166 -6.20059,-6.144 -2.44947,-2.2808 -3.6869,-4.10025 -6.9241,-10.18075 -2.84629,-5.3463 -5.52299,-9.4376 -9.6323,-14.7229 -7.56032,-9.72395 -9.6624,-14.10145 -14.40503,-29.99825 -0.43959,-1.47347 -1.39482,-3.61097 -2.12273,-4.75001 -0.7279,-1.13904 -1.78612,-3.39772 -2.35159,-5.01929 -0.56547,-1.62155 -1.4107,-3.1896 -1.87828,-3.48455 -1.12154,-0.70745 -3.93721,0.65427 -11.14101,5.38806 -3.025,1.9878 -6.9625,4.48479 -8.75,5.54886 -5.92785,3.52878 -17.20899,10.88498 -20,13.04158 -1.5125,1.1687 -5.74754,3.9422 -9.4112,6.16325 -7.46627,4.52645 -10.35645,6.6556 -16.76966,12.35405 -2.43698,2.1654 -6.93698,5.6317 -10,7.703 -3.06303,2.07125 -6.60903,4.48645 -7.87999,5.3671 -1.27097,0.88065 -3.81169,2.2746 -5.64603,3.0976 -1.83435,0.823 -7.36834,3.64535 -12.29775,6.2718 -10.98013,5.85045 -12.10191,6.1215 -20.72973,5.0093 -3.73583,-0.4816 -7.44109,-0.6716 -9.35153,-0.47955 -1.74026,0.17495 -4.95016,0.0669 -7.1331,-0.2401 -3.63543,-0.51125 -13.23397,-3.23105 -19.63675,-5.56415 -5.89079,-2.14655 -22.66465,-11.34375 -27.56165,-15.11225 -5.8193,-4.4783 -16.80814,-17.80505 -25.12369,-30.46895 -3.68993,-5.61946 -10.66999,-19.6745 -13.73001,-27.64675 -9.13495,-23.7992 -10.22693,-27.00211 -13.47308,-39.51837 -1.85176,-7.1399 -4.24551,-15.2996 -5.31945,-18.13266 -1.47967,-3.90343 -2.07471,-6.38603 -2.45675,-10.25 -0.59087,-5.97607 -1.56965,-11.13846 -3.26429,-17.21693 -0.67193,-2.41012 -1.45753,-6.63204 -1.74578,-9.38204 -0.28826,-2.75 -1.11762,-7.25 -1.84303,-10 -1.19373,-4.52543 -1.30916,-5.75932 -1.21612,-13 0.0565,-4.4 -0.14111,-13.11327 -0.43921,-19.36283 -0.46614,-9.77226 -0.43365,-11.90694 0.23213,-15.25 0.42579,-2.13794 1.11834,-6.81217 1.539,-10.38717 1.75364,-14.90343 4.35855,-30.2688 6.99316,-41.25 0.69277,-2.8875 1.60792,-7.275 2.03365,-9.75 1.42859,-8.30501 7.9073,-30.40673 11.50541,-39.25 1.17486,-2.8875 2.51098,-6.69917 2.96918,-8.47038 1.41399,-5.46593 13.57267,-36.23076 15.67506,-39.66223 2.59231,-4.23111 9.19858,-18.24622 9.90389,-21.01097 0.85961,-3.36958 2.17936,-6.24881 3.94492,-8.60642 1.75722,-2.34646 4.49171,-8.11063 6.28813,-13.25504 1.46623,-4.19885 2.1612,-5.34073 6.52575,-10.72214 2.68661,-3.31255 6.37701,-7.71032 8.20089,-9.77282 1.82387,-2.0625 4.66677,-5.325 6.31754,-7.25 1.65078,-1.925 6.52237,-6.71988 10.82575,-10.65527 7.4457,-6.80902 11.9984,-10.18824 20.17997,-14.97848 9.17183,-5.37004 26.06585,-17.78699 30.88439,-22.69975 3.886,-3.96199 5.28076,-4.6713 11.08995,-5.63982 1.00648,-0.16781 4.33136,-1.53274 7.38863,-3.03319 3.05727,-1.50046 8.30878,-3.728 11.67003,-4.95009 3.36126,-1.2221 8.1513,-3.01288 10.64456,-3.97952 2.49325,-0.96664 6.82235,-2.22403 9.62022,-2.7942 2.79787,-0.57017 7.50793,-1.6219 10.46681,-2.33719 5.85329,-1.41499 5.97458,-1.41495 19.87978,0.007 4.23333,0.43299 8.0869,1.12419 9.75,1.7488 1.5125,0.56806 6.2375,1.92223 10.5,3.00927 10.42624,2.65895 15.97074,4.61395 19.93718,7.02989 11.52777,7.02152 15.45735,9.61066 18.68289,12.30991 1.99646,1.6707 4.75493,3.79575 6.12993,4.72232 1.375,0.92657 4.4125,3.50716 6.75,5.73464 2.3375,2.22747 5.09475,4.68614 6.12723,5.46371 1.03246,0.77757 2.70039,2.56754 3.70651,3.97772 3.17418,4.44899 11.66942,12.49051 15.16154,14.35179 3.72644,1.98617 8.85989,6.93075 11.60509,11.17812 2.78302,4.30586 7.06355,13.29251 8.85859,18.59792 0.84928,2.51013 2.09961,7.29119 2.7785,10.62458 1.55301,7.62531 2.46801,10.77367 4.3149,14.84689 0.80667,1.77908 1.79219,4.63643 2.19005,6.34967 0.39786,1.71325 1.19465,4.46499 1.77064,6.11499 0.57599,1.65 1.6053,5.475 2.28734,8.5 0.68205,3.025 2.13368,8.15547 3.22584,11.40103 1.09217,3.24557 2.67767,9.20807 3.52333,13.25 1.51509,7.24157 1.54476,7.66683 2.0302,29.09897 0.58233,25.71026 0.43059,30.111 -1.25857,36.5 -0.6907,2.6125 -2.48172,9.47656 -3.98003,15.25345 -1.49832,5.7769 -3.74727,12.98577 -4.99767,16.01972 -1.25041,3.03394 -3.43814,8.76989 -4.86163,12.74655 -1.42349,3.97665 -4.23469,10.71778 -6.24712,14.98028 -3.79182,8.03143 -11.80451,27.79317 -15.50902,38.25 -2.89052,8.15913 -7.45593,20.00844 -11.07707,28.75 -1.6518,3.9875 -4.2867,10.98237 -5.85533,15.54414 -2.71669,7.90046 -3.11614,8.6955 -8.41568,16.75 -3.64064,5.53322 -6.29877,10.22142 -7.69056,13.56401 -1.16981,2.80948 -3.06855,6.49473 -4.21941,8.18946 -1.78037,2.62171 -2.15357,3.62611 -2.5021,6.73391 -0.22529,2.00893 -0.64574,4.96118 -0.93432,6.56054 -0.71622,3.96932 -0.14881,6.95198 3.18533,16.74419 1.53088,4.49611 2.78342,8.57019 2.78342,9.0535 0,1.60958 3.58278,12.0684 5.15362,15.04439 1.95252,3.69911 6.53584,8.38826 9.83099,10.05806 6.21785,3.1508 14.68747,3.63885 19.42469,1.1192 4.55189,-2.421 6.38629,-3.3437 10.5907,-5.32697 2.3375,-1.10263 6.725,-3.83442 9.75,-6.07063 3.025,-2.23622 7.02351,-4.83561 8.88558,-5.77644 1.86207,-0.94082 4.93828,-3.1355 6.83603,-4.87706 2.59433,-2.38082 4.42158,-3.55844 7.36442,-4.7462 2.8662,-1.15683 4.87227,-2.43135 7.49374,-4.76103 1.96888,-1.74972 5.45638,-4.3193 7.75,-5.71017 4.86378,-2.94943 8.67504,-6.68644 10.89953,-10.68717 1.97498,-3.55199 4.90079,-6.24412 7.26896,-6.68839 5.46267,-1.0248 9.98993,1.0983 12.37211,5.80203 1.49587,2.95366 1.91798,5.85148 2.98333,20.48063 0.90552,12.4344 0.89174,12.5903 -1.59064,18 -1.99903,4.35637 -3.36361,6.7275 -9.60642,16.6925 -3.0521,4.87185 -10.18415,12.21705 -16.6395,17.13675 -3.03443,2.31255 -6.44677,4.9509 -7.58297,5.86295 -1.13621,0.91205 -3.98904,2.4633 -6.33962,3.4473 -2.35059,0.98395 -6.70846,3.4457 -9.68417,5.47055 -8.37581,5.6994 -26.55123,14.32875 -38.16003,18.11775 -3.09695,1.0108 -7.42882,2.7793 -9.62636,3.93 -3.58022,1.8747 -4.41801,2.1089 -8.05977,2.25285 -3.71503,0.1469 -4.3274,0.028 -7.12735,-1.3831 z m -189.79079,-62.3176 c 2.11966,-0.4345 5.54142,-1.46395 7.60392,-2.2876 2.0625,-0.82365 6.10947,-2.05613 8.99326,-2.73886 5.78159,-1.36877 8.20705,-2.32215 12.43071,-4.88613 1.55432,-0.94356 5.13253,-2.60957 7.9516,-3.70224 8.21677,-3.18482 21.34417,-11.37953 31.37443,-19.58531 4.49905,-3.68067 13.13383,-9.55752 19.5,-13.27172 7.08326,-4.13257 18.62369,-11.84633 21.0785,-14.08912 1.75337,-1.60194 11.87215,-13.3022 17.5465,-20.28888 2.25354,-2.77473 2.11821,-4.25948 -1.07238,-11.76489 -1.48355,-3.48986 -2.96515,-7.51252 -3.29244,-8.93923 -0.76997,-3.35653 -3.02207,-6.87788 -5.07908,-7.9416 -2.43079,-1.25701 -6.51208,-0.67228 -15.47495,2.2171 -16.28164,5.24877 -23.37038,4.2943 -27.34207,-3.68147 -2.22938,-4.47694 -4.43088,-16.78647 -3.80045,-21.25 0.37717,-2.67051 1.714,-5.50275 3.89401,-8.25 0.87287,-1.1 2.64724,-3.50491 3.94301,-5.34424 2.91499,-4.13776 5.49884,-6.28776 10.66257,-8.87229 4.32142,-2.16294 7.82147,-3.10825 15.03629,-4.06108 4.18798,-0.55309 5.01563,-0.51379 9.25,0.43916 2.55777,0.57563 5.95547,1.27545 7.55043,1.55516 3.99093,0.69989 6.87849,2.07195 10.61083,5.04186 3.62412,2.8838 5.95662,5.56707 9.71139,11.17183 3.52263,5.25824 4.32192,7.21346 5.2406,12.8196 1.13008,6.89632 3.04906,12.5 4.2806,12.5 0.95908,0 2.40269,-2.13771 3.73248,-5.52713 0.75403,-1.9219 2.38884,-4.87705 3.63292,-6.567 2.95488,-4.01393 3.48632,-5.38547 4.14708,-10.70288 0.65831,-5.29757 1.57558,-7.5363 4.61862,-11.27234 2.66108,-3.26709 3.17,-4.19118 5.52249,-10.02767 0.96367,-2.39086 2.89971,-6.24689 4.3023,-8.56896 2.53941,-4.20412 6.81083,-13.28573 8.03666,-17.08702 0.3542,-1.09835 1.64736,-4.20208 2.8737,-6.89718 2.40185,-5.27852 5.64039,-17.08037 5.64039,-20.55467 0,-3.09997 1.2733,-6.87084 3.24959,-9.62361 2.96635,-4.13184 3.6031,-5.74055 4.15869,-10.50672 0.3575,-3.0668 1.05037,-5.79744 2.09231,-8.24597 1.00721,-2.36689 1.81405,-5.48619 2.28278,-8.82535 0.77468,-5.51862 2.99918,-15.15383 5.10077,-22.0935 1.1161,-3.6855 1.31058,-5.37359 1.46414,-12.70917 0.14795,-7.06743 0.009,-9.27247 -0.8473,-13.40261 -0.82826,-3.99701 -1.00913,-6.58946 -0.94471,-13.54083 0.0921,-9.94077 -0.27833,-12.19295 -3.36223,-20.44052 -1.8759,-5.0169 -2.22825,-6.57232 -2.49182,-11 -0.27784,-4.66734 -0.51095,-5.60778 -2.45565,-9.90687 -2.66207,-5.88497 -3.10137,-7.34843 -3.52712,-11.75 -0.1862,-1.925 -0.61881,-4.18587 -0.96135,-5.02415 -0.84375,-2.06487 -6.27763,-9.6207 -8.25301,-11.47585 -0.87848,-0.825 -2.69182,-2.86974 -4.02966,-4.54388 -1.68825,-2.11263 -3.3539,-3.53502 -5.44433,-4.64921 -3.84274,-2.04815 -5.64797,-3.581 -8.05561,-6.84008 -1.4816,-2.00556 -2.495,-2.8217 -4.3299,-3.48702 -4.85903,-1.76185 -7.4602,-3.16491 -10.086,-5.44035 -3.38362,-2.93214 -4.13241,-3.29001 -10.55821,-5.04602 -3.41076,-0.93207 -7.26255,-2.48705 -11,-4.44073 -5.75138,-3.00642 -5.75138,-3.00642 -15.93286,-3.1109 -9.55266,-0.098 -10.37098,-0.0333 -13.25,1.0489 -1.68768,0.63436 -4.86852,1.32083 -7.06852,1.52549 -2.55442,0.23762 -5.53593,0.95916 -8.25,1.99653 -2.3375,0.89344 -6.5,1.9951 -9.25,2.44813 -6.62611,1.09159 -8.66568,1.78387 -17.3412,5.88615 -7.21954,3.4138 -10.16106,4.2771 -17.6588,5.18262 -2.29416,0.27708 -2.76758,0.58483 -5.75,3.73787 -1.7875,1.88976 -4.52893,4.41686 -6.09206,5.61578 -1.56314,1.19891 -3.92564,3.46993 -5.25,5.04669 -1.32437,1.57678 -3.64544,3.69722 -5.15794,4.7121 -1.5125,1.01489 -4.44451,3.43466 -6.51558,5.37729 -2.07107,1.94262 -4.88357,4.28259 -6.25,5.19992 -1.36643,0.91734 -3.98293,3.28239 -5.81445,5.25567 -2.09107,2.25293 -4.44741,4.18335 -6.33335,5.18854 -4.5523,2.42636 -11.15445,9.72829 -16.73317,18.50678 -1.9819,3.11864 -5.24919,7.89967 -7.26065,10.6245 -4.25585,5.7652 -7.09988,11.53474 -8.52964,17.30369 -1.07861,4.35207 -1.95515,6.32366 -5.08443,11.43629 -4.02569,6.5772 -8.05918,15.21254 -10.66564,22.83418 -1.48006,4.32791 -3.59778,9.39041 -4.70604,11.25 -1.10826,1.85959 -2.85276,5.74357 -3.87666,8.63107 -1.02391,2.8875 -2.75805,7.1625 -3.85365,9.5 -2.58117,5.50704 -3.25259,7.71264 -4.13911,13.59712 -0.40164,2.66591 -1.1819,5.993 -1.73393,7.39351 -0.79522,2.01747 -1.0037,3.71848 -1.0037,8.18917 0,5.64278 0,5.64278 -2.24428,10.25389 -1.23435,2.53611 -2.57031,6.017 -2.96882,7.73532 -0.3985,1.71831 -1.30835,4.86331 -2.02188,6.98888 -1.35953,4.04998 -2.43712,10.82245 -3.20142,20.1204 -0.33755,4.10638 -0.8127,6.42124 -1.84736,9 -1.78154,4.44028 -2.03248,7.70015 -1.69137,21.97171 0.25968,10.86447 0.349,11.70379 1.61642,15.18761 1.21928,3.35151 1.3383,4.30853 1.30585,10.5 -0.0306,5.83551 0.2622,8.53316 2.04181,18.81239 1.14263,6.6 2.41108,13.9993 2.81878,16.4429 0.82559,4.94831 3.48292,15.55915 5.71171,22.8071 0.80337,2.6125 1.80374,6.4375 2.22305,8.5 0.75245,3.70112 5.43742,13.76381 8.03123,17.25 0.61382,0.825 1.81311,2.89444 2.6651,4.59874 0.85199,1.70431 3.19854,5.07931 5.21456,7.5 6.49025,7.79302 11.19658,11.5077 23.2944,18.38609 6.77906,3.85432 8.98597,4.86732 11.35806,5.21352 4.85031,0.7079 11.99017,0.6021 16.09024,-0.2384 z"
     id="path1281"
     inkscape:connector-curvature="0" />
</svg>
