<?xml version="1.0" encoding="UTF-8" standalone="no"?>
<!-- Created with Inkscape (http://www.inkscape.org/) -->

<svg
   xmlns:dc="http://purl.org/dc/elements/1.1/"
   xmlns:cc="http://creativecommons.org/ns#"
   xmlns:rdf="http://www.w3.org/1999/02/22-rdf-syntax-ns#"
   xmlns:svg="http://www.w3.org/2000/svg"
   xmlns="http://www.w3.org/2000/svg"
   xmlns:sodipodi="http://sodipodi.sourceforge.net/DTD/sodipodi-0.dtd"
   xmlns:inkscape="http://www.inkscape.org/namespaces/inkscape"
   version="1.1"
   id="svg284"
   width="1000"
   height="1000"
   viewBox="0 0 1000 1000"
   sodipodi:docname="Masomeh_bdc_f.svg"
   inkscape:version="0.92.2 5c3e80d, 2017-08-06">
  <metadata
     id="metadata290">
    <rdf:RDF>
      <cc:Work
         rdf:about="">
        <dc:format>image/svg+xml</dc:format>
        <dc:type
           rdf:resource="http://purl.org/dc/dcmitype/StillImage" />
        <dc:title></dc:title>
      </cc:Work>
    </rdf:RDF>
  </metadata>
  <defs
     id="defs288" />
  <sodipodi:namedview
     pagecolor="#ffffff"
     bordercolor="#666666"
     borderopacity="1"
     objecttolerance="10"
     gridtolerance="10"
     guidetolerance="10"
     inkscape:pageopacity="0"
     inkscape:pageshadow="2"
     inkscape:window-width="1027"
     inkscape:window-height="480"
     id="namedview286"
     showgrid="false"
     inkscape:zoom="0.19666667"
     inkscape:cx="407"
     inkscape:cy="600"
     inkscape:window-x="0"
     inkscape:window-y="0"
     inkscape:window-maximized="0"
     inkscape:current-layer="svg284" />
  <path
     style="fill:#000000;stroke-width:0.5"
     d="m 364.02837,834.91535 c -4.18585,-0.7055 -7.16532,-2.5293 -10.87293,-6.6555 -2.50118,-2.7836 -4.4201,-4.3351 -7.49866,-6.06295 -11.36642,-6.3794 -13.62857,-12.2114 -12.81911,-33.0487 0.46964,-12.08941 0.23509,-11.03535 6.01234,-27.01904 1.98421,-5.48965 6.90793,-15.84963 9.43617,-19.85462 0.70681,-1.11967 2.74405,-4.74086 4.5272,-8.0471 3.64989,-6.76749 7.02288,-11.97727 10.85187,-16.76134 1.43065,-1.7875 3.78867,-5.02658 5.24005,-7.19796 2.9758,-4.452 8.78612,-10.74349 12.66633,-13.71523 4.12712,-3.16086 16.13057,-9.81074 21.75042,-12.04968 8.90682,-3.54847 16.0363,-7.44646 22.0932,-12.07932 3.48879,-2.66853 5.1207,-3.42144 11,-5.075 2.07411,-0.58334 2.37704,-0.88688 3.87509,-3.88281 0.8938,-1.7875 2.08853,-4.825 2.65496,-6.75 1.48618,-5.05077 3.38077,-10.01674 5.26723,-13.80607 1.85354,-3.72323 4.63844,-11.49642 8.22012,-22.94393 2.2378,-7.15231 5.12837,-15.12653 8.88098,-24.5 0.82571,-2.0625 1.6483,-4.7625 1.82799,-6 0.35847,-2.4688 5.80488,-20.32359 8.61735,-28.25 0.97578,-2.75 2.19984,-6.575 2.72016,-8.5 0.52032,-1.925 1.52016,-5.22987 2.22187,-7.34414 0.7017,-2.11428 1.4564,-5.63536 1.6771,-7.82465 0.34118,-3.38432 0.75268,-4.62517 2.74747,-8.28464 1.74797,-3.2067 2.66335,-5.7121 3.5901,-9.8261 1.51535,-6.72692 1.71158,-7.25704 4.01885,-10.85699 1.85032,-2.887 4.74592,-10.27718 7.60483,-19.40916 0.93772,-2.99529 2.55221,-6.61016 4.08298,-9.14188 1.39257,-2.30316 2.84642,-4.79568 3.23078,-5.53894 0.76232,-1.47418 2.93567,-11.57099 3.76327,-17.48317 0.315,-2.2503 1.22257,-5.26728 2.30701,-7.66909 2.37128,-5.25184 5.00205,-13.1103 6.17449,-18.44398 1.07564,-4.89331 2.03878,-6.94642 8.50416,-18.12829 4.66544,-8.06886 8.9979,-14.73721 19.5314,-30.06191 7.88334,-11.46912 8.4811,-12.70877 8.48461,-17.59544 0.005,-7.30544 1.37528,-9.57202 7.69111,-12.72397 5.3772,-2.68353 8.72876,-5.19757 13.5561,-10.16858 4.5935,-4.73022 6.54054,-5.85854 12.62212,-7.31464 5.54951,-1.3287 12.57556,-1.06943 19.87788,0.73353 2.75,0.67898 7.44723,1.59067 10.43829,2.02598 4.08426,0.5944 6.51181,1.27485 9.75,2.73292 2.37144,1.0678 5.66171,2.46565 7.31171,3.10634 3.31546,1.28739 4.12017,2.05206 13.38256,12.7168 6.30383,7.25824 7.56882,8.93563 8.10705,10.75 0.20394,0.6875 2.04262,4.65342 4.08595,8.81317 5.01106,10.20134 5.14989,11.36021 2.90851,24.27862 -1.48703,8.57066 -2.85184,11.12572 -7.64271,14.3079 -1.57048,1.04314 -4.11877,2.89869 -5.66287,4.12346 -1.54411,1.22477 -4.19725,3.31192 -5.89588,4.63811 -1.77211,1.38355 -4.54563,4.36701 -6.50743,7 -4.53921,6.0922 -5.64452,7.05994 -10.31212,9.02859 -2.17968,0.91932 -5.58455,2.4881 -7.56637,3.48618 -5.98305,3.01317 -13.17775,5.66689 -17.14669,6.32445 -2.0625,0.3417 -5.41118,1.27844 -7.44151,2.08165 -6.27976,2.48428 -18.6208,6.27921 -22.55849,6.93684 -2.0625,0.34446 -8.10075,0.64985 -13.41833,0.67866 -9.66833,0.0524 -9.66833,0.0524 -10.85788,1.43535 -0.65425,0.76063 -1.44105,2.33562 -1.74844,3.5 -0.3074,1.16436 -1.90351,4.96745 -3.54692,8.45132 -2.5436,5.39219 -3.04887,6.93793 -3.39716,10.39285 -0.36167,3.58757 -0.79126,4.82563 -3.70196,10.66866 -1.81106,3.63555 -3.63066,8.07127 -4.04357,9.85714 -3.78424,16.36721 -5.28913,22.48209 -7.44387,30.24705 -1.37361,4.95 -2.99505,10.9125 -3.6032,13.25 -0.60815,2.3375 -1.94417,6.92106 -2.96893,10.18569 -1.94179,6.18606 -2.0268,7.48696 -0.77328,11.83371 1.09258,3.78867 0.40839,5.75793 -3.21252,9.24624 -4.32359,4.16526 -5.4302,7.05809 -5.54079,14.48436 -0.0867,5.82392 -0.47599,7.15118 -3.14009,10.70689 -0.70338,0.93879 -1.88236,3.18879 -2.61995,5 -0.73759,1.81121 -2.25967,4.71356 -3.38239,6.44968 -2.75622,4.26204 -3.50948,6.79908 -4.07084,13.71102 -0.55265,6.80482 -1.39789,9.12658 -4.49525,12.34797 -3.04954,3.17166 -3.36998,3.78867 -4.51242,8.68876 -0.56477,2.42237 -1.36331,5.05495 -1.77453,5.85017 -1.08864,2.10518 -0.95393,3.43228 0.37732,3.71741 0.61875,0.13252 4.5,0.32106 8.625,0.41898 7.12223,0.16906 7.77703,0.27242 13,2.05207 3.90662,1.33112 7.24137,2.07103 11.51084,2.55399 8.57957,0.97052 29.268,1.48412 32.98916,0.81897 9.80826,-1.75322 17.13395,-3.20456 21.75,-4.30904 7.71131,-1.84509 10.09695,-2.04666 12.65608,-1.06931 4.39078,1.67685 6.50102,5.21073 7.10939,11.9056 0.18276,2.01126 0.62135,5.39669 0.97464,7.52318 1.671,10.05789 -2.41477,13.54382 -17.74011,15.13569 -15.97037,1.65887 -21.46871,1.91531 -25.96689,1.21111 -2.35571,-0.36879 -7.20811,-0.70989 -10.78311,-0.75801 -3.575,-0.0481 -14.15,-0.30557 -23.5,-0.57211 -17.7727,-0.50667 -18.78103,-0.63933 -23.75,-3.12475 -2.37146,-1.18617 -11.61282,-4.00827 -13.12566,-4.00827 -2.25003,0 -2.89893,1.47862 -4.43207,10.0991 -2.67612,15.04707 -8.34115,30.4652 -14.54355,39.58215 -1.70952,2.51281 -4.08138,6.91904 -5.27081,9.79163 -2.49257,6.01978 -4.20874,8.9777 -7.84838,13.52712 -3.69191,4.61476 -7.73155,10.56071 -10.53061,15.5 -2.83528,5.00325 -9.84361,15.39005 -13.49465,20 -1.41569,1.7875 -3.70986,4.9396 -5.09818,7.0047 -2.44455,3.6362 -6.86663,7.97995 -13.52872,13.2891 -1.76407,1.40585 -4.17507,3.78895 -5.35779,5.29585 -2.39712,3.0542 -4.35186,4.1822 -8.61212,4.96975 -3.19319,0.5903 -4.72569,1.28305 -8.34323,3.7715 -1.34104,0.92245 -3.6715,2.03575 -5.17881,2.4739 -1.5073,0.4382 -3.89815,1.3053 -5.31299,1.92685 -3.19988,1.4058 -6.29194,1.79355 -9.70932,1.2176 z m 19.18935,-56.5775 c 1.34614,-1.44557 3.79753,-4.39323 5.44753,-6.55038 1.65,-2.15715 4.60905,-5.95577 6.57568,-8.44138 4.29554,-5.42912 7.24864,-10.46815 9.19962,-15.69779 0.79551,-2.13241 2.16573,-5.01451 3.04492,-6.40466 3.75765,-5.94148 5.48595,-9.2362 5.77304,-11.0054 0.30247,-1.86392 0.29138,-1.87949 -0.89349,-1.25404 -2.39046,1.26184 -9.65311,8.86407 -14.03242,14.68853 -5.00955,6.66268 -8.2563,12.94089 -9.93399,19.20928 -0.69906,2.61187 -1.74068,5.0366 -2.79229,6.5 -2.72045,3.78573 -6.1723,9.76534 -6.18204,10.70909 -0.0159,1.54335 1.28225,0.94335 3.79344,-1.75325 z M 571.01465,430.75664 c 3.10784,-0.39021 7.22561,-0.86286 9.15061,-1.05035 5.85874,-0.57063 13.28089,-2.15965 15.09955,-3.23268 0.94633,-0.55834 3.89856,-2.77891 6.56052,-4.93458 2.66197,-2.15568 6.42507,-4.93542 8.36246,-6.17721 1.93739,-1.24179 4.11592,-2.96301 4.84117,-3.82493 3.3894,-4.02806 13.96586,-22.41613 14.60465,-25.39141 0.19738,-0.91928 0.0147,-2.81534 -0.44057,-4.57217 -0.42778,-1.65086 -0.77778,-4.69818 -0.77778,-6.77183 0,-4.56158 -0.30148,-5.4197 -2.96252,-8.43231 -3.89155,-4.40569 -10.18954,-6.30195 -15.65423,-4.71332 -2.73339,0.79462 -4.23208,1.91938 -11.44175,8.58698 -4.68793,4.33547 -9.32097,10.15799 -13.7934,17.33468 -5.98582,9.60517 -5.56459,8.70358 -6.18201,13.23188 -0.65945,4.83666 -2.10741,8.09559 -5.17911,11.65671 -2.58266,2.99416 -4.19449,5.86722 -5.4699,9.75 -0.90183,2.74547 -1.72491,4.1477 -4.2341,7.21331 -1.66701,2.03669 -1.66701,2.03669 0.0994,2.03669 0.97153,0 4.30919,-0.31925 7.41702,-0.70946 z"
     id="path294"
     inkscape:connector-curvature="0" />
</svg>
