<?xml version="1.0" encoding="UTF-8" standalone="no"?>
<!-- Created with Inkscape (http://www.inkscape.org/) -->

<svg
   xmlns:dc="http://purl.org/dc/elements/1.1/"
   xmlns:cc="http://creativecommons.org/ns#"
   xmlns:rdf="http://www.w3.org/1999/02/22-rdf-syntax-ns#"
   xmlns:svg="http://www.w3.org/2000/svg"
   xmlns="http://www.w3.org/2000/svg"
   xmlns:sodipodi="http://sodipodi.sourceforge.net/DTD/sodipodi-0.dtd"
   xmlns:inkscape="http://www.inkscape.org/namespaces/inkscape"
   version="1.1"
   id="svg307"
   width="1000"
   height="1000"
   viewBox="0 0 1000 1000"
   sodipodi:docname="Masomeh_bdc_y.svg"
   inkscape:version="0.92.2 5c3e80d, 2017-08-06">
  <metadata
     id="metadata313">
    <rdf:RDF>
      <cc:Work
         rdf:about="">
        <dc:format>image/svg+xml</dc:format>
        <dc:type
           rdf:resource="http://purl.org/dc/dcmitype/StillImage" />
        <dc:title></dc:title>
      </cc:Work>
    </rdf:RDF>
  </metadata>
  <defs
     id="defs311" />
  <sodipodi:namedview
     pagecolor="#ffffff"
     bordercolor="#666666"
     borderopacity="1"
     objecttolerance="10"
     gridtolerance="10"
     guidetolerance="10"
     inkscape:pageopacity="0"
     inkscape:pageshadow="2"
     inkscape:window-width="1194"
     inkscape:window-height="686"
     id="namedview309"
     showgrid="false"
     inkscape:zoom="0.32496094"
     inkscape:cx="453"
     inkscape:cy="600"
     inkscape:window-x="0"
     inkscape:window-y="0"
     inkscape:window-maximized="0"
     inkscape:current-layer="svg307" />
  <path
     style="fill:#000000;stroke-width:0.5"
     d="m 412.14322,949.5767 c -2.33969,-0.92775 -5.84068,-1.9067 -7.77997,-2.17545 -2.25816,-0.3129 -4.77369,-1.114 -6.99602,-2.22795 -1.90852,-0.95665 -4.76254,-2.11195 -6.34226,-2.5673 -1.57973,-0.4554 -5.24511,-2.08385 -8.14528,-3.61885 -3.96233,-2.09715 -5.73408,-3.3651 -7.12777,-5.10095 -1.0201,-1.2706 -2.6391,-2.99 -3.59779,-3.821 -4.54704,-3.9413 -7.00384,-6.95155 -9.27799,-11.36815 -1.45642,-2.8285 -3.55878,-5.9127 -5.38009,-7.8927 -3.45065,-3.75135 -7.80202,-9.48215 -9.07844,-11.9564 -0.48416,-0.93855 -1.30026,-2.92705 -1.81355,-4.41895 -0.98207,-2.85445 -6.22085,-10.3985 -12.239,-17.62465 -1.94674,-2.3375 -4.22669,-5.2625 -5.06655,-6.5 -1.41035,-2.07809 -3.15131,-6.27488 -3.15131,-7.5966 0,-0.30891 -0.90419,-2.52454 -2.00932,-4.92363 -1.10512,-2.39908 -2.46864,-6.46651 -3.03003,-9.03872 -0.68503,-3.1387 -1.68849,-5.88647 -3.05122,-8.35512 -2.0211,-3.66134 -2.02893,-3.6963 -1.69201,-7.55869 0.39586,-4.5381 -0.39673,-8.65346 -2.71652,-14.10488 -0.82653,-1.94232 -1.95477,-5.34752 -2.50719,-7.56711 -0.6231,-2.50355 -1.85043,-5.4787 -3.23294,-7.83688 -3.36982,-5.748 -3.82705,-7.40776 -4.27776,-15.52827 -0.24686,-4.44765 -0.80582,-8.83782 -1.44298,-11.33331 -1.25396,-4.9113 -1.32595,-9.84067 -0.28742,-19.68149 0.63491,-6.0163 0.67318,-10.17245 0.24471,-26.57772 -0.5707,-21.85149 -0.4644,-22.99247 2.76841,-29.71376 2.28721,-4.75531 5.19815,-7.34033 9.86048,-8.75647 2.41358,-0.7331 4.12803,-0.95989 5.66439,-0.74931 2.43542,0.33381 6.27756,2.17424 8.21116,3.93323 2.93518,2.67013 9.17778,10.30109 10.71932,13.10332 1.98778,3.61339 4.56429,11.76663 5.60527,17.73759 0.4121,2.3638 1.42151,5.83049 2.24312,7.70376 1.3877,3.16392 1.46975,3.68229 1.15463,7.29472 -0.3133,3.59157 -0.20316,4.3057 1.44102,9.34405 0.97913,3.00041 2.11952,7.25529 2.53419,9.45529 1.18425,6.28284 4.11707,16.86693 5.30567,19.1473 0.59466,1.14088 2.26976,6.65021 3.72245,12.24294 3.28398,12.64306 6.60679,22.46472 10.01742,29.60976 1.44396,3.025 3.2494,7.075 4.01209,9 0.76269,1.925 3.0523,5.91381 5.08803,8.86403 2.03573,2.95022 4.18175,6.55022 4.76894,8 1.53345,3.78618 2.57077,5.15512 7.26059,9.58174 2.59255,2.44705 4.66972,4.91593 5.4687,6.5 1.54104,3.05526 9.53588,11.21208 12.44318,12.69523 1.10989,0.56625 3.42094,1.28395 5.13566,1.59485 3.74492,0.6791 13.32223,0.239 16.57796,-0.7618 1.2375,-0.3804 4.05,-1.05525 6.25,-1.49965 2.2,-0.4444 6.025,-1.59665 8.5,-2.56055 2.475,-0.96391 5.9625,-2.27435 7.75,-2.91208 1.7875,-0.63774 6.0625,-2.61008 9.5,-4.383 16.73283,-8.63005 18.34108,-9.55061 21.91694,-12.54514 1.19181,-0.99806 4.27184,-3.05347 6.84451,-4.56756 2.57266,-1.51409 4.8183,-2.98061 4.99031,-3.25892 0.172,-0.27831 1.92947,-1.79087 3.90549,-3.36125 1.97601,-1.57037 4.03962,-3.42463 4.58581,-4.12056 0.54618,-0.69594 2.3545,-2.72784 4.01849,-4.51534 4.94624,-5.31337 10.83033,-13.45807 12.26612,-16.97864 0.73379,-1.79925 2.13302,-4.95886 3.1094,-7.02136 0.97639,-2.0625 2.1602,-5.08422 2.6307,-6.71492 0.47051,-1.63071 1.69478,-5.00571 2.72061,-7.5 3.15499,-7.67134 7.39506,-21.20414 8.78389,-28.03508 0.72685,-3.575 1.88012,-8.1875 2.56282,-10.25 0.68271,-2.0625 2.22601,-7.0125 3.42957,-11 1.20356,-3.9875 2.77607,-9.05 3.49446,-11.25 0.7184,-2.2 2.10773,-6.46323 3.08742,-9.47385 0.97968,-3.01061 2.77116,-9.53561 3.98105,-14.5 1.3423,-5.50765 2.8679,-10.4187 3.91369,-12.5985 0.94264,-1.9648 2.27473,-5.5648 2.96021,-8 0.68547,-2.43521 2.13899,-7.12765 3.23003,-10.42765 1.51201,-4.57331 2.11706,-7.41852 2.54456,-11.96565 0.48299,-5.13738 0.87189,-6.75203 2.80107,-11.62974 2.0893,-5.28252 2.933,-8.28274 4.2617,-15.15461 0.6848,-3.5417 2.60498,-12.0564 4.52504,-20.06542 0.83271,-3.47347 1.44025,-6.93872 1.35007,-7.70055 -0.22317,-1.88531 -2.08332,-3.1248 -5.66396,-3.77411 -1.67719,-0.30415 -4.54328,-1.39117 -6.5,-2.46527 -1.925,-1.05668 -5.87329,-2.83686 -8.77397,-3.95596 -5.89504,-2.27432 -8.59012,-3.83745 -12.30509,-7.13687 -1.39288,-1.23708 -3.75431,-2.94827 -5.24762,-3.80265 -3.5573,-2.03529 -8.73475,-7.4663 -11.29596,-11.84917 -1.1249,-1.925 -3.1005,-4.85 -4.39021,-6.5 -1.28972,-1.65 -3.13391,-4.575 -4.09821,-6.5 -0.9643,-1.925 -3.29625,-5.65537 -5.1821,-8.28972 -1.88585,-2.63434 -4.12703,-6.45934 -4.98039,-8.5 -0.85337,-2.04065 -2.66716,-6.09746 -4.03064,-9.01512 -1.46627,-3.13759 -3.08752,-7.7337 -3.9684,-11.25 -0.81913,-3.26984 -1.93824,-7.07016 -2.48692,-8.44516 -0.54867,-1.375 -1.32851,-4.1875 -1.73298,-6.25 -0.40446,-2.0625 -1.04745,-4.7625 -1.42886,-6 -0.38141,-1.2375 -0.84549,-3.6 -1.03128,-5.25 -1.62963,-14.47237 -4.90454,-28.94834 -9.52785,-42.11561 -0.69824,-1.98859 -1.26952,-4.25538 -1.26952,-5.03731 0,-0.78194 0.75549,-3.56337 1.67887,-6.18096 3.50577,-9.9381 7.35871,-15.14601 12.32113,-16.65413 1.5125,-0.45967 6.8,-1.16373 11.75,-1.56459 4.95,-0.40087 9.9071,-0.85322 11.01579,-1.00522 1.35212,-0.18539 3.03427,0.0667 5.10923,0.76571 1.70139,0.57316 3.84385,1.04211 4.76103,1.04211 2.35101,0 6.50199,2.20839 9.27146,4.93257 1.76651,1.73761 2.58848,3.06802 3.2853,5.31743 0.51114,1.65 1.67642,4.48744 2.58952,6.30542 0.91309,1.81799 2.10822,4.63547 2.65584,6.26106 1.39381,4.13743 2.65086,13.88283 2.52946,19.60978 -0.15218,7.17928 0.9128,31.92439 1.50584,34.98856 1.22552,6.33215 8.40953,17.26516 15.75781,23.98108 5.04666,4.61236 15.81388,11.1041 18.4173,11.1041 1.7467,0 4.85142,-3.96183 4.85142,-6.19073 0,-0.40722 1.03986,-3.51214 2.31081,-6.89983 3.01521,-8.03702 4.75233,-18.56529 4.60085,-27.88461 -0.0902,-5.54696 0.0477,-6.73883 1.1882,-10.27483 1.33069,-4.12553 3.1304,-13.25448 3.63968,-18.4621 0.15931,-1.62915 0.94305,-5.56665 1.74164,-8.75 3.35232,-13.3632 4.194,-17.79656 4.23137,-22.2879 0.0355,-4.26597 -0.0471,-4.62861 -1.58755,-6.97289 -1.1617,-1.76785 -1.62432,-3.05084 -1.62259,-4.5 10e-4,-1.11491 -0.60167,-3.68675 -1.33999,-5.7152 -1.21517,-3.33859 -1.2905,-3.93544 -0.79491,-6.29821 0.62135,-2.96233 6.07885,-13.59833 8.24118,-16.0611 0.91034,-1.03682 2.69159,-2.11204 4.89148,-2.95266 1.90288,-0.72714 4.53755,-2.17588 5.8548,-3.21944 5.45162,-4.31887 10.33293,-5.69916 19.91251,-5.63065 7.60044,0.0543 12.67769,0.75214 15.48252,2.12782 1.29123,0.63331 2.79406,2.08687 4.24066,4.10163 5.23737,7.2944 7.84485,11.21371 8.39646,12.6207 0.88899,2.26757 1.6026,7.5266 1.62831,12 0.0127,2.2 0.36928,7.4875 0.79252,11.75 1.46661,14.77032 1.47847,13.92979 -0.2524,17.87342 -2.26733,5.16592 -3.97655,12.0251 -4.78499,19.20233 -0.39188,3.47917 -1.38551,8.65417 -2.20805,11.5 -0.82255,2.84584 -1.73952,6.54746 -2.03771,8.22584 -0.2982,1.67838 -1.08518,4.94088 -1.74883,7.25 -0.66366,2.30912 -1.45182,5.66091 -1.75147,7.44841 -0.29965,1.7875 -1.08425,5.8375 -1.74353,9 -0.88941,4.26635 -1.34757,8.8214 -1.77561,17.65345 -0.5771,11.90795 -2.02668,21.59762 -4.2341,28.30282 -0.41532,1.26155 -1.214,4.54373 -1.77486,7.29373 -0.56086,2.75 -1.56321,6.8 -2.22746,9 -0.66424,2.2 -1.35419,5.2375 -1.53323,6.75 -0.52367,4.42383 -2.55412,13.35225 -4.26403,18.75 -1.13538,3.58411 -1.69522,6.55748 -1.977,10.5 -0.51573,7.21589 -1.90574,13.45767 -4.2312,19 -2.1053,5.01762 -4.03765,11.9619 -5.00877,18 -0.35384,2.2 -1.11387,5.575 -1.68897,7.5 -0.5751,1.925 -1.2859,5.075 -1.57957,7 -0.29366,1.925 -1.40872,6.3125 -2.47791,9.75 -2.47772,7.96601 -3.29656,11.28325 -4.01121,16.25 -0.32582,2.26446 -1.30908,5.73555 -2.26617,8 -0.92985,2.2 -1.92257,5.05505 -2.20605,6.34455 -0.28348,1.28951 -0.96782,3.49231 -1.52076,4.89513 -0.55294,1.40281 -1.32028,3.94777 -1.70521,5.65545 -0.38492,1.70768 -1.26282,4.79237 -1.95087,6.85487 -2.01235,6.03221 -3.4155,11.34691 -4.63973,17.57396 -0.62974,3.20318 -1.70852,7.70318 -2.3973,10 -0.68878,2.29682 -1.4078,5.30104 -1.59781,6.67604 -0.45533,3.29483 -2.37235,8.60915 -4.77965,13.25 -1.47292,2.83955 -2.60354,6.42065 -4.65682,14.75 -1.49141,6.05 -3.08349,12.0125 -3.53796,13.25 -0.45447,1.2375 -1.00715,4.43912 -1.22816,7.11472 -0.28658,3.46924 -0.70689,5.40552 -1.46523,6.75 -2.81661,4.99361 -4.6578,9.65972 -7.23653,18.33937 -1.54484,5.19976 -2.81374,9.81226 -2.81978,10.25 -0.0236,1.70528 -1.98071,4.98249 -5.11126,8.55856 -2.21494,2.53017 -3.93301,5.16909 -5.31903,8.16991 -2.20243,4.76841 -11.91976,18.40489 -25.10239,35.22654 -4.55995,5.8187 -4.59799,5.85175 -8.6555,7.51815 -2.52226,1.03585 -4.46404,2.46795 -8.95318,6.6031 -4.52928,4.1721 -6.79851,5.84085 -10.81202,7.9509 -2.7938,1.4688 -6.42456,3.87065 -8.06836,5.33735 -3.13108,2.7938 -4.77201,3.80405 -8.06783,4.9669 -1.09277,0.38555 -4.61067,2.329 -7.81754,4.3188 -3.91564,2.42955 -7.06254,3.97665 -9.5813,4.71035 -2.06284,0.60095 -5.01288,1.7599 -6.55565,2.57545 -1.54277,0.8156 -4.32873,1.7482 -6.19103,2.0725 -1.86229,0.32435 -4.65003,1.2216 -6.19496,1.99395 -1.54494,0.77235 -4.04647,1.80495 -5.55897,2.2947 -1.5125,0.48975 -4.29992,1.69675 -6.19426,2.68225 -3.44425,1.7918 -3.44425,1.7918 -12,1.9006 -10.52285,0.1338 -13.03716,0.4214 -17.12113,1.9586 -4.47287,1.6836 -7.43702,1.56205 -12.68859,-0.52035 z"
     id="path317"
     inkscape:connector-curvature="0" />
</svg>
