<?xml version="1.0" encoding="UTF-8" standalone="no"?>
<!-- Created with Inkscape (http://www.inkscape.org/) -->

<svg
   xmlns:dc="http://purl.org/dc/elements/1.1/"
   xmlns:cc="http://creativecommons.org/ns#"
   xmlns:rdf="http://www.w3.org/1999/02/22-rdf-syntax-ns#"
   xmlns:svg="http://www.w3.org/2000/svg"
   xmlns="http://www.w3.org/2000/svg"
   xmlns:sodipodi="http://sodipodi.sourceforge.net/DTD/sodipodi-0.dtd"
   xmlns:inkscape="http://www.inkscape.org/namespaces/inkscape"
   version="1.1"
   id="svg61"
   width="1000"
   height="1000"
   viewBox="0 0 1000 1000"
   sodipodi:docname="Masomeh_bdc_t.svg"
   inkscape:version="0.92.2 5c3e80d, 2017-08-06">
  <metadata
     id="metadata67">
    <rdf:RDF>
      <cc:Work
         rdf:about="">
        <dc:format>image/svg+xml</dc:format>
        <dc:type
           rdf:resource="http://purl.org/dc/dcmitype/StillImage" />
        <dc:title></dc:title>
      </cc:Work>
    </rdf:RDF>
  </metadata>
  <defs
     id="defs65" />
  <sodipodi:namedview
     pagecolor="#ffffff"
     bordercolor="#666666"
     borderopacity="1"
     objecttolerance="10"
     gridtolerance="10"
     guidetolerance="10"
     inkscape:pageopacity="0"
     inkscape:pageshadow="2"
     inkscape:window-width="1083"
     inkscape:window-height="642"
     id="namedview63"
     showgrid="false"
     inkscape:zoom="0.25335953"
     inkscape:cx="406.96774"
     inkscape:cy="600"
     inkscape:window-x="0"
     inkscape:window-y="0"
     inkscape:window-maximized="0"
     inkscape:current-layer="svg61" />
  <path
     style="fill:#000000;stroke-width:0.5"
     d="m 334.04914,776.75161 c -3.40296,-0.45485 -5.10603,-1.51575 -6.30601,-3.92825 -0.79262,-1.59345 -0.93971,-3.39305 -1.07639,-13.16855 -0.10034,-7.1762 0.0433,-12.0715 0.39212,-13.36705 0.84015,-3.12005 2.38624,-4.61195 5.09613,-4.9174 1.99549,-0.2249 3.16763,0.11545 8.93118,2.59325 7.49597,3.22265 11.39516,3.86345 17.05503,2.8029 1.75112,-0.3281 8.35885,-0.65775 14.68385,-0.73255 12.60836,-0.1491 13.41298,-0.31145 18.35833,-3.7049 1.17792,-0.8083 3.71667,-2.26145 5.64167,-3.2293 4.14236,-2.0826 7.40737,-5.34598 11.39366,-11.3879 1.53648,-2.32881 3.78883,-5.06291 5.00521,-6.07578 1.46682,-1.22139 3.53474,-4.04311 6.14053,-8.37884 2.1609,-3.59549 5.1239,-7.90746 6.58445,-9.58215 3.03432,-3.47921 3.81708,-4.89064 6.679,-12.04325 3.48306,-8.70499 3.91394,-10.07352 3.93082,-12.48485 0.0258,-3.68612 2.37937,-12.71069 4.73829,-18.16869 1.18869,-2.75035 2.3285,-5.56314 2.53292,-6.25064 0.20441,-0.6875 1.55781,-3.95 3.00754,-7.25 1.44973,-3.3 3.13404,-7.6875 3.7429,-9.75 0.60887,-2.0625 1.51965,-4.56107 2.02396,-5.55237 1.61432,-3.17319 4.91306,-13.32913 6.4513,-19.86183 0.82053,-3.48469 1.94185,-7.98438 2.49181,-9.9993 0.54997,-2.01492 1.45035,-6.91318 2.00084,-10.88501 0.5505,-3.97183 1.56136,-9.29826 2.24635,-11.8365 2.0666,-7.65773 3.30013,-13.7421 4.31178,-21.26776 0.52884,-3.93403 1.3937,-8.88403 1.92192,-11 0.52821,-2.11598 1.11252,-5.08473 1.29846,-6.59723 0.18595,-1.5125 0.89314,-5.3375 1.57154,-8.5 0.6784,-3.1625 1.54296,-8.3375 1.92123,-11.5 0.71548,-5.98165 1.60318,-8.93892 6.22864,-20.75 1.40004,-3.575 2.98021,-8.6375 3.51148,-11.25 0.53126,-2.6125 1.54765,-6.4375 2.25862,-8.5 1.57523,-4.56965 3.46037,-12.0303 4.23235,-16.75 0.31486,-1.925 1.11311,-5.6375 1.77388,-8.25 2.97162,-11.74892 3.89592,-16.86483 4.13098,-22.86456 0.23956,-6.11456 0.23956,-6.11456 -1.06942,-6.61223 -0.86598,-0.32925 -2.9592,-0.33096 -6.18501,-0.005 -2.68182,0.27095 -7.35103,0.70451 -10.37603,0.96347 -14.77076,1.26448 -26.46111,2.8722 -38.56984,5.30433 -4.27607,0.85887 -7.6007,1.20601 -11.25,1.17463 -3.9261,-0.0337 -6.02748,0.21048 -8.68016,1.00887 -1.925,0.57937 -7.8875,1.84964 -13.25,2.82281 -8.61173,1.56283 -11.32607,1.82902 -23.25,2.28007 -14.78607,0.55933 -25.99166,0.25852 -29.48017,-0.79136 -2.61587,-0.78727 -7.92798,-4.44017 -10.16949,-6.9931 -1.8978,-2.16148 -2.75392,-5.009 -2.14467,-7.13333 0.59112,-2.06112 5.61852,-9.17711 7.89681,-11.17747 3.2094,-2.8179 4.48228,-3.09989 12.35744,-2.73765 4.58506,0.21091 8.18824,0.6578 10.33257,1.28153 3.11292,0.90546 4.21738,0.93161 20.25,0.47948 9.32663,-0.26301 19.99501,-0.70458 23.70751,-0.98127 3.7125,-0.27669 12.6,-0.7453 19.75,-1.04135 7.15,-0.29605 15.25,-0.87651 18,-1.2899 2.75,-0.4134 8.0375,-0.96494 11.75,-1.22564 14.7019,-1.03243 30.21839,-2.79372 31.97477,-3.62949 1.93482,-0.92068 3.07955,-3.48814 3.84314,-8.61959 0.38921,-2.6156 1.29889,-6.48984 2.0215,-8.60942 1.0012,-2.93673 1.39696,-5.34107 1.66311,-10.10379 0.33483,-5.99196 0.73711,-8.33988 4.02944,-23.51773 0.80742,-3.72225 1.46804,-7.91153 1.46804,-9.30951 0,-1.39797 0.33817,-4.48097 0.75148,-6.8511 0.83293,-4.77636 0.84905,-8.3298 0.1126,-24.82166 -0.50237,-11.25 -0.50237,-11.25 1.37406,-17.5 2.49287,-8.30326 3.73638,-10.61223 7.88735,-14.64547 6.12044,-5.94684 9.35414,-6.66911 14.51651,-3.24236 1.4344,0.95215 3.6449,2.18969 4.91223,2.75008 5.56962,2.46283 7.04506,7.8789 5.28157,19.38775 -1.37565,8.97774 -3.23288,23.22256 -3.55988,27.30405 -0.34394,4.29308 -2.11063,11.95829 -3.97066,17.22769 -0.68566,1.94246 -1.38772,5.31746 -1.56013,7.5 -0.36149,4.57606 -1.96697,13.82183 -3.03231,17.46277 -0.40145,1.37198 -1.17815,5.19698 -1.726,8.5 -0.54785,3.30302 -1.58558,8.39906 -2.30606,11.32453 -1.02106,4.14595 -1.23404,5.92672 -0.96572,8.07434 0.58455,4.67858 2.95202,5.71428 10.45183,4.57237 2.52072,-0.3838 6.86554,-0.70185 9.65515,-0.70678 5.5294,-0.01 14.39995,-0.78885 17.17798,-1.50868 0.9625,-0.2494 6.475,-0.57595 12.25,-0.72568 5.775,-0.14972 11.5125,-0.48796 12.75,-0.75164 1.2375,-0.26368 4.5,-0.49312 7.25,-0.50986 7.74962,-0.0472 26.492,-2.22404 34.75,-4.03609 7.81097,-1.71394 15.31885,-2.97701 17.6959,-2.97701 4.52281,0 7.17559,2.67745 6.64461,6.70638 -0.48738,3.69795 -4.59905,6.06075 -13.59051,7.80986 -1.65,0.32097 -4.55663,1.26089 -6.45917,2.0887 -3.64039,1.58395 -9.59414,2.77167 -20.54083,4.09767 -16.39935,1.9865 -29.21188,3.80652 -31.5,4.47458 -1.375,0.40146 -3.76062,0.87537 -5.3014,1.05315 -1.54076,0.17777 -3.90326,0.66227 -5.25,1.07665 -1.34673,0.41439 -5.8236,0.95648 -9.9486,1.20464 -4.125,0.24817 -8.7375,0.67527 -10.25,0.94913 -1.5125,0.27385 -6.2375,0.84378 -10.5,1.26649 -8.19527,0.81274 -14.94888,1.94262 -16.46656,2.75486 -1.38318,0.74025 -2.3684,3.73584 -3.81938,11.61303 -0.72486,3.93517 -1.728,8.72986 -2.22919,10.65486 -1.96584,7.55057 -2.47466,9.68813 -3.51103,14.75 -0.5912,2.8875 -1.93354,7.8375 -2.983,11 -1.07407,3.23668 -2.35853,8.61905 -2.9386,12.31385 -0.56677,3.61013 -1.27734,7.21013 -1.57903,8 -0.3017,0.78989 -1.22125,4.13615 -2.04344,7.43615 -0.82219,3.3 -2.03189,7.8 -2.6882,10 -0.65631,2.2 -1.54505,5.9142 -1.97497,8.25378 -0.42993,2.33958 -1.43458,6.52237 -2.23256,9.29511 -2.82708,9.82309 -4.46001,19.90372 -5.05057,31.17869 -0.66182,12.63531 -0.83379,13.85146 -2.69577,19.06486 -0.92473,2.58916 -2.16583,6.95756 -2.758,9.70756 -0.59218,2.75 -1.61044,6.69786 -2.26282,8.77302 -0.65238,2.07517 -1.7793,6.80016 -2.50426,10.5 -0.72496,3.69984 -1.84659,9.20198 -2.4925,12.22698 -0.64592,3.025 -1.50677,7.1875 -1.913,9.25 -0.40624,2.0625 -1.31402,5.3621 -2.01727,7.33245 -0.70326,1.97035 -1.74577,6.58284 -2.3167,10.25 -1.47649,9.48373 -1.76442,10.48351 -4.02775,13.98531 -1.1146,1.72451 -2.35896,4.38349 -2.76525,5.90885 -2.30418,8.6508 -2.98524,10.70317 -4.98539,15.02339 -2.2267,4.80955 -3.53901,10.42578 -3.02699,12.95442 0.14429,0.71257 0.4877,3.58556 0.76314,6.38442 0.61875,6.2875 3.31417,14.16854 5.57008,16.28616 2.06476,1.9382 5.56658,1.90994 9.77043,-0.0788 1.68927,-0.79917 4.3371,-1.71579 5.88405,-2.03694 6.06169,-1.2584 18.97372,-7.59173 24.26408,-11.90149 6.19985,-5.05066 12.32517,-12.74459 15.24096,-19.1439 0.68009,-1.49262 1.92899,-5.30135 2.77531,-8.46385 1.80514,-6.74533 2.25122,-7.95544 4.0997,-11.12168 2.15912,-3.69831 3.0697,-7.53012 3.11976,-13.12832 0.0375,-4.19159 -0.11696,-5.25457 -0.95528,-6.57452 -3.82624,-6.02448 -3.97905,-6.38066 -4.14669,-9.66595 -0.13485,-2.64264 0.0526,-3.6846 0.99018,-5.5055 1.40804,-2.73443 3.91023,-4.50578 6.35545,-4.49915 2.60074,0.007 6.50324,2.00784 8.72667,4.47413 6.11617,6.78414 10.33014,24.06925 8.17216,33.52099 -0.40811,1.7875 -1.33736,5.93726 -2.06499,9.22168 -2.21181,9.98387 -5.26747,17.9329 -10.59967,27.57415 -4.6497,8.40717 -15.39315,19.57207 -26.58001,27.62268 -5.03407,3.62275 -9.32174,5.8998 -13.93511,7.40048 -2.15489,0.70096 -6.23705,2.48271 -9.07145,3.95946 -2.8344,1.4767 -8.33933,3.72615 -12.23315,4.99875 -7.0797,2.3138 -7.0797,2.3138 -13.87441,2.1433 -6.70495,-0.16825 -6.84522,-0.1955 -10.61918,-2.0616 -4.46426,-2.2075 -8.64391,-5.84485 -11.42913,-9.94627 -1.08787,-1.60194 -2.30854,-2.91263 -2.71261,-2.91263 -1.02408,0 -2.33945,1.61981 -7.22806,8.90105 -3.66792,5.4631 -5.20872,7.20975 -11.25,12.753 -8.14208,7.4709 -12.90572,11.1954 -16.75,13.0962 -1.5125,0.74785 -4.6625,2.4455 -7,3.7726 -4.11602,2.33685 -11.57614,5.2044 -17.41046,6.6923 -5.51041,1.40535 -17.17112,2.32155 -31.83954,2.50175 -7.975,0.0979 -15.74916,0.011 -17.27591,-0.19295 z M 652.0054,234.67403 c -0.46257,-0.29307 -0.16017,-0.43351 0.94465,-0.43871 0.89375,-0.004 1.625,0.0786 1.625,0.18402 0,0.45465 -1.94915,0.64784 -2.56965,0.25469 z"
     id="path71"
     inkscape:connector-curvature="0" />
</svg>
