<?xml version="1.0" encoding="UTF-8" standalone="no"?>
<!-- Created with Inkscape (http://www.inkscape.org/) -->

<svg
   xmlns:dc="http://purl.org/dc/elements/1.1/"
   xmlns:cc="http://creativecommons.org/ns#"
   xmlns:rdf="http://www.w3.org/1999/02/22-rdf-syntax-ns#"
   xmlns:svg="http://www.w3.org/2000/svg"
   xmlns="http://www.w3.org/2000/svg"
   xmlns:sodipodi="http://sodipodi.sourceforge.net/DTD/sodipodi-0.dtd"
   xmlns:inkscape="http://www.inkscape.org/namespaces/inkscape"
   version="1.1"
   id="svg1017"
   width="1000"
   height="1000"
   viewBox="0 0 1000 1000"
   sodipodi:docname="Masomeh_bdc_n2.svg"
   inkscape:version="0.92.2 5c3e80d, 2017-08-06">
  <metadata
     id="metadata1023">
    <rdf:RDF>
      <cc:Work
         rdf:about="">
        <dc:format>image/svg+xml</dc:format>
        <dc:type
           rdf:resource="http://purl.org/dc/dcmitype/StillImage" />
        <dc:title></dc:title>
      </cc:Work>
    </rdf:RDF>
  </metadata>
  <defs
     id="defs1021" />
  <sodipodi:namedview
     pagecolor="#ffffff"
     bordercolor="#666666"
     borderopacity="1"
     objecttolerance="10"
     gridtolerance="10"
     guidetolerance="10"
     inkscape:pageopacity="0"
     inkscape:pageshadow="2"
     inkscape:window-width="1249"
     inkscape:window-height="638"
     id="namedview1019"
     showgrid="false"
     inkscape:zoom="0.34186198"
     inkscape:cx="515"
     inkscape:cy="600"
     inkscape:window-x="0"
     inkscape:window-y="0"
     inkscape:window-maximized="0"
     inkscape:current-layer="svg1017" />
  <path
     style="fill:#000000;stroke-width:0.5"
     d="m 298.86842,828.91815 c -5.10775,-1.1618 -8.80354,-3.4653 -12.75574,-7.95035 -1.92323,-2.18255 -4.0478,-5.17185 -4.72125,-6.64285 -1.4852,-3.2441 -2.39543,-11.0655 -1.97045,-16.93155 0.15939,-2.2 0.52246,-7.6 0.80683,-12 0.6136,-9.49402 2.94314,-23.68335 4.35065,-26.5 0.54968,-1.1 1.59774,-3.10226 2.32902,-4.44947 1.16631,-2.14863 1.32961,-3.01584 1.32961,-7.06089 0,-3.35165 0.35301,-5.96069 1.29223,-9.55053 0.71074,-2.71651 1.45389,-7.21001 1.65147,-9.98556 0.3528,-4.95623 0.40417,-5.11711 2.8738,-9 3.06606,-4.82064 3.14505,-5.02882 3.68151,-9.70355 0.27838,-2.4259 1.41772,-6.48649 3.22672,-11.5 1.53801,-4.2625 3.11057,-9.23883 3.49457,-11.05851 0.38399,-1.81967 1.39151,-4.68201 2.23893,-6.36073 1.43237,-2.83751 1.54077,-3.42539 1.54077,-8.35622 0,-4.48669 0.19202,-5.78396 1.24616,-8.4189 0.68538,-1.71319 2.11882,-5.68906 3.18541,-8.83527 1.06659,-3.1462 2.63851,-7.68567 3.49318,-10.08771 0.85466,-2.40203 2.11244,-6.56453 2.79506,-9.25 0.68262,-2.68546 1.80413,-6.26404 2.49224,-7.95238 0.6881,-1.68834 1.49261,-4.61334 1.78778,-6.5 0.35789,-2.28753 1.05696,-4.26312 2.09843,-5.93028 2.64879,-4.24011 2.95259,-5.08026 4.40505,-12.18204 0.77504,-3.78958 1.98607,-8.26081 2.69117,-9.93607 0.70511,-1.67525 1.51186,-4.02151 1.79278,-5.21391 0.28091,-1.19239 0.96119,-3.84027 1.51175,-5.88416 0.60708,-2.25379 1.00331,-5.30358 1.00689,-7.75 0.004,-2.31502 0.42697,-5.73821 0.9941,-8.03382 0.5435,-2.2 0.99255,-5.125 0.99789,-6.5 0.005,-1.375 0.23172,-4.4125 0.50307,-6.75 0.34069,-2.9348 0.32309,-5.54078 -0.0569,-8.42107 -0.44977,-3.40946 -0.40757,-4.96152 0.23111,-8.5 1.36858,-7.58238 1.5079,-16.96773 0.35003,-23.57893 -0.55388,-3.1625 -1.1494,-8.1125 -1.32337,-11 -0.23895,-3.96588 -0.56616,-5.67804 -1.33777,-7 -0.56179,-0.9625 -2.60168,-4.7875 -4.53309,-8.5 -4.38505,-8.42882 -4.56191,-10.19986 -1.72263,-17.25 1.55915,-3.87147 1.83527,-5.16906 1.97695,-9.29024 0.14961,-4.35178 0.29352,-4.95902 1.57214,-6.63418 0.82706,-1.08355 2.68273,-2.48141 4.5,-3.3898 1.7009,-0.85021 4.22911,-2.41396 5.61823,-3.475 3.28273,-2.50738 6.17175,-3.75287 10.41193,-4.48869 4.3894,-0.76172 6.90813,-0.44486 13.95802,1.75591 4.92219,1.53657 6.09866,2.12192 8.51565,4.23698 1.87367,1.6396 3.68594,2.71036 5.46046,3.22623 2.6216,0.76211 4.65924,2.39868 5.83711,4.68818 0.31957,0.62116 0.79291,3.65866 1.05188,6.75 0.25897,3.09134 0.59769,6.35186 0.75272,7.24561 0.58611,3.37902 2.69318,1.45225 5.87799,-5.375 2.61126,-5.5977 5.83337,-10.11259 9.14067,-12.80805 5.12904,-4.18021 6.46272,-5.58404 8.97015,-9.44195 2.95814,-4.55136 6.75589,-8.25132 14.36365,-13.99379 3.3861,-2.55588 5.98289,-4.97139 7.21258,-6.70909 2.54511,-3.59652 12.52258,-14.3609 14.42151,-15.55891 0.825,-0.52049 3.525,-3.01308 6,-5.53911 8.25427,-8.42445 8.03011,-8.25032 13.41683,-10.42237 2.79574,-1.1273 5.91054,-2.55074 6.92178,-3.16319 5.1071,-3.09308 11.00235,-7.39821 13.91139,-10.15907 3.47164,-3.29481 5.73122,-4.64392 9.79625,-5.84898 3.31172,-0.98173 6.31549,-2.53303 9.4364,-4.87343 1.38454,-1.03828 5.875,-3.48633 9.97879,-5.44011 4.1038,-1.95379 8.6807,-4.47288 10.17091,-5.598 4.18856,-3.16239 7.59793,-4.74346 12.76877,-5.92142 3.83084,-0.8727 5.26383,-1.46997 7.42307,-3.09395 5.21937,-3.9255 9.0894,-5.37549 17.79752,-6.66824 6.41344,-0.9521 11.09232,-0.96451 15.48225,-0.041 4.95021,1.04131 5.79931,1.45523 9.00549,4.39003 1.58981,1.45524 4.85011,3.742 7.24512,5.0817 2.39502,1.33971 6.18972,4.09479 8.43267,6.12241 2.24296,2.02762 4.271,3.68658 4.50676,3.68658 0.23576,0 1.69105,0.59771 3.23397,1.32825 2.22367,1.05285 4.08502,2.70669 8.97739,7.97651 3.70909,3.99526 7.01604,8.1042 8.28701,10.29675 1.16321,2.00667 3.35728,5.78599 4.8757,8.39849 2.08209,3.58231 3.94857,5.91769 7.59259,9.5 2.6575,2.6125 5.20167,5.32453 5.65371,6.02674 2.28959,3.55675 4.22502,12.00163 4.86401,21.22326 0.24772,3.575 0.78074,8.4125 1.18447,10.75 0.40374,2.3375 0.96971,5.6 1.25771,7.25 0.79245,4.54001 0.64818,11.33801 -0.31407,14.79903 -0.79135,2.84631 -0.79135,3.2297 0,6.19952 1.11555,4.18654 1.07037,5.26899 -0.39748,9.52172 -1.36289,3.94867 -1.40214,2.61356 0.50675,17.23981 0.51181,3.92163 0.55743,6.1481 0.17928,8.75 -0.47267,3.25227 -0.40295,3.82607 1.02387,8.42641 0.8421,2.71507 1.53109,5.65853 1.53109,6.54101 0,1.534 -2.87999,10.23357 -5.08358,15.35595 -1.00324,2.3321 -1.01935,2.69785 -0.42042,9.54578 0.34253,3.91642 0.72702,8.38435 0.85442,9.92874 0.20019,2.42667 0.0153,3.23666 -1.36192,5.96481 -1.69224,3.3523 -1.72511,3.90364 -0.70372,11.80354 0.28157,2.17782 0.12432,3.02856 -1.0166,5.5 -1.72336,3.73313 -1.70408,4.89194 0.18182,10.92523 2.02325,6.47269 2.02202,9.73122 -0.007,18.0723 -1.62464,6.67932 -1.65636,7.54102 -0.6437,17.48993 0.28558,2.80573 0.15611,3.40869 -1.53716,7.15891 -1.849,4.09514 -1.849,4.09514 -1.56955,9.68622 0.15369,3.0751 0.47933,11.77859 0.72364,19.34109 0.36174,11.1978 0.64535,14.61917 1.52792,18.4327 1.03966,4.49227 1.76657,11.2632 3.30848,30.8173 0.39033,4.94999 1.05239,10.09377 1.47125,11.43061 0.41887,1.33683 1.0894,4.30876 1.49008,6.60428 0.78458,4.495 1.06954,5.19544 3.53182,8.68157 0.88708,1.25595 2.56782,3.93749 3.73498,5.95899 2.21908,3.84343 9.22706,12.33122 13.14261,15.91782 6.16929,5.651 13.43248,10.18082 20.7258,12.92601 3.82133,1.43835 5.4633,2.7382 6.4828,5.13206 1.27093,2.98423 0.4872,4.78365 -4.29684,9.8654 -2.376,2.52385 -6.47464,7.26511 -9.10807,10.53605 -5.5388,6.87971 -6.12359,7.50066 -12.45049,13.22031 -5.31514,4.80499 -6.80441,5.79219 -11.56204,7.66439 -4.66101,1.8342 -6.67531,1.71855 -11.31804,-0.6497 -2.11567,-1.0792 -5.64668,-2.65589 -7.84668,-3.50369 -4.97773,-1.91825 -18.14247,-11.2184 -20.63697,-14.57886 -3.64622,-4.912 -4.81219,-6.0411 -7.77654,-7.5308 -4.42038,-2.22145 -5.356,-2.97585 -8.58362,-6.92095 -1.88493,-2.30394 -3.30756,-4.68971 -4.1027,-6.88032 -0.71875,-1.98011 -2.1546,-4.48363 -3.50619,-6.11329 -1.25894,-1.51793 -2.98089,-4.22239 -3.82656,-6.00989 -1.3244,-2.7994 -1.58661,-4.04721 -1.89119,-9 -0.19448,-3.16249 -0.58958,-6.64999 -0.87799,-7.75 -0.28841,-1.09999 -0.52975,-2.90452 -0.53631,-4.01004 -0.007,-1.10553 -0.43972,-3.58053 -0.96258,-5.5 -1.48971,-5.46886 -1.6491,-7.27024 -1.04498,-11.8099 0.46999,-3.53177 0.4289,-4.95826 -0.24668,-8.56359 -0.86247,-4.60269 -0.7355,-6.2841 0.81701,-10.81974 0.7684,-2.24488 0.9253,-4.25698 0.9253,-11.86572 0,-5.03935 0.25852,-10.68537 0.57449,-12.54672 0.48085,-2.83268 0.4401,-3.97084 -0.25,-6.98299 -0.45348,-1.97929 -0.8245,-5.17158 -0.8245,-7.09397 0,-1.9224 -0.36259,-5.02799 -0.80575,-6.9013 -0.62402,-2.6378 -0.73782,-4.81365 -0.50453,-9.64685 0.21954,-4.54825 0.072,-7.9049 -0.54418,-12.37662 -0.71441,-5.18508 -0.75244,-6.77872 -0.24547,-10.28513 0.79504,-5.49877 0.7455,-8.38361 -0.21633,-12.59743 -1.17543,-5.14961 -1.36195,-20.6049 -0.3206,-26.56486 0.73897,-4.2293 0.7352,-4.87904 -0.0513,-8.83921 -0.85988,-4.32972 -0.79253,-5.58788 0.48075,-8.98105 1.1128,-2.9655 0.88181,-8.02279 -0.59584,-13.04535 -1.30345,-4.43047 -1.30345,-4.43047 -0.7535,-16.5 0.30248,-6.63824 0.79053,-12.96953 1.08456,-14.06953 0.29404,-1.1 0.73538,-7.175 0.98076,-13.5 0.24538,-6.325 0.68124,-13.1875 0.96857,-15.25 1.26734,-9.09714 1.25497,-9.47444 -0.42642,-13 -1.88547,-3.95351 -1.92619,-5.49122 -0.2612,-9.86359 1.28954,-3.38641 1.28954,-3.38641 1.09566,-18.13641 -0.21915,-16.67341 -0.35037,-17.35219 -3.82813,-19.80244 -2.3769,-1.67464 -4.05707,-4.71694 -4.05707,-7.34614 0,-1.00808 0.26527,-3.37983 0.5895,-5.27057 0.5895,-3.4377 0.5895,-3.4377 -1.23273,-7.27482 -1.00224,-2.11041 -2.79294,-5.12387 -3.97935,-6.69657 -1.18641,-1.57271 -2.76033,-3.79751 -3.49759,-4.944 -2.72787,-4.24206 -6.6421,-5.95126 -12.74532,-5.56542 -6.32599,0.39992 -24.3072,8.95438 -46.88451,22.30504 -4.4,2.60186 -10.06399,6.16736 -12.58665,7.92334 -2.52265,1.75598 -5.78515,3.72617 -7.25,4.3782 -3.08322,1.3724 -4.2233,2.51713 -6.20585,6.23113 -1.84729,3.4606 -6.7311,7.89999 -12.4575,11.32387 -6.41774,3.83725 -13.86232,10.57693 -17.25,15.61668 -3.04629,4.53186 -7.2742,9.06319 -11.5789,12.40987 -2.42021,1.88159 -3.01797,2.6941 -4.13757,5.62407 -1.35031,3.53373 -2.8932,5.39884 -5.59092,6.75855 -2.2109,1.11435 -14.01199,12.95653 -17.40827,17.4689 -2.58079,3.42889 -2.92064,4.17673 -3.55851,7.83051 -0.82384,4.71911 -1.35752,5.87218 -4.5076,9.73924 -2.38297,2.92535 -3.71823,6.17366 -3.71823,9.04541 0,2.4234 -0.93288,4.72082 -3.10553,7.64807 -2.3729,3.19707 -6.61089,12.10835 -7.63143,16.04674 -1.33688,5.15919 -4.80714,13.74408 -6.89223,17.05034 -1.1273,1.7875 -2.98352,5.05 -4.12495,7.25 -1.14144,2.2 -2.67878,5.03894 -3.41632,6.30876 -0.94221,1.62219 -1.49573,3.55513 -1.86134,6.5 -0.28619,2.30518 -1.16853,6.10374 -1.96075,8.44124 -0.79222,2.3375 -1.78996,5.62082 -2.21721,7.29627 -0.42725,1.67544 -1.24961,4.11509 -1.82747,5.42146 -0.57787,1.30636 -1.37144,4.51045 -1.76348,7.1202 -0.54472,3.62603 -1.17628,5.64903 -2.6781,8.57854 -1.34345,2.62059 -2.29824,5.47824 -3.0176,9.03167 -0.57878,2.85897 -1.82025,7.16333 -2.75882,9.56525 -0.93857,2.40192 -1.94839,5.88139 -2.24405,7.73215 -0.29567,1.85077 -1.05971,4.65002 -1.69789,6.22057 -0.63816,1.57055 -1.4483,4.07691 -1.8003,5.56971 -0.35199,1.4928 -1.08468,3.83918 -1.6282,5.21418 -0.64918,1.64233 -1.04054,4.00658 -1.14076,6.89146 -0.13288,3.82543 -0.3861,4.88916 -1.96447,8.25262 -1.60359,3.41718 -1.83326,4.40704 -1.99742,8.60854 -0.16347,4.18408 -0.49079,5.60613 -2.75855,11.98474 -1.66742,4.69 -2.83227,9.00168 -3.30948,12.25 -1.19068,8.10468 -3.16384,16.21187 -4.67665,19.21511 -1.56216,3.10122 -2.11197,5.46381 -3.32723,14.29753 -0.65168,4.73718 -0.85453,11.0513 -0.96379,30 -0.0928,16.093 -0.32142,24.4696 -0.69393,25.4253 -0.77167,1.9798 -6.38898,7.7213 -8.72077,8.91365 -1.19313,0.61005 -3.76752,1.1688 -6.75,1.465 -7.59025,0.75375 -9.48389,1.46785 -12.43416,4.68895 -1.39241,1.52025 -3.38476,3.1205 -4.42746,3.5562 -2.63846,1.1024 -8.33623,1.3268 -12.07833,0.47565 z"
     id="path1027"
     inkscape:connector-curvature="0" />
</svg>
