<?xml version="1.0" encoding="UTF-8" standalone="no"?>
<!-- Created with Inkscape (http://www.inkscape.org/) -->

<svg
   xmlns:dc="http://purl.org/dc/elements/1.1/"
   xmlns:cc="http://creativecommons.org/ns#"
   xmlns:rdf="http://www.w3.org/1999/02/22-rdf-syntax-ns#"
   xmlns:svg="http://www.w3.org/2000/svg"
   xmlns="http://www.w3.org/2000/svg"
   xmlns:sodipodi="http://sodipodi.sourceforge.net/DTD/sodipodi-0.dtd"
   xmlns:inkscape="http://www.inkscape.org/namespaces/inkscape"
   version="1.1"
   id="svg146"
   width="1000"
   height="1000"
   viewBox="0 0 1000 1000"
   sodipodi:docname="Masomeh_bdc_a2.svg"
   inkscape:version="0.92.2 5c3e80d, 2017-08-06">
  <metadata
     id="metadata152">
    <rdf:RDF>
      <cc:Work
         rdf:about="">
        <dc:format>image/svg+xml</dc:format>
        <dc:type
           rdf:resource="http://purl.org/dc/dcmitype/StillImage" />
        <dc:title></dc:title>
      </cc:Work>
    </rdf:RDF>
  </metadata>
  <defs
     id="defs150" />
  <sodipodi:namedview
     pagecolor="#ffffff"
     bordercolor="#666666"
     borderopacity="1"
     objecttolerance="10"
     gridtolerance="10"
     guidetolerance="10"
     inkscape:pageopacity="0"
     inkscape:pageshadow="2"
     inkscape:window-width="1027"
     inkscape:window-height="480"
     id="namedview148"
     showgrid="false"
     inkscape:zoom="0.19666667"
     inkscape:cx="645"
     inkscape:cy="600"
     inkscape:window-x="0"
     inkscape:window-y="0"
     inkscape:window-maximized="0"
     inkscape:current-layer="svg146" />
  <path
     style="fill:#000000;stroke-width:0.5"
     d="m 295.79661,852.375 c -3.80262,-1.23518 -21.50438,-10.18332 -25.3377,-12.80806 -1.85568,-1.27061 -4.02119,-2.29835 -5.27927,-2.50552 -5.27204,-0.86815 -6.47823,-1.96828 -11.46895,-10.46051 -4.37572,-7.44573 -4.93145,-8.07261 -8.66408,-9.7732 -3.12157,-1.4222 -5.37604,-3.33217 -6.501,-5.50759 -0.36198,-0.69998 -1.12299,-3.86909 -1.69114,-7.04245 -1.30611,-7.29524 -2.4996,-11.19208 -5.729,-18.70562 -2.57886,-6 -2.57886,-6 -2.61794,-14.25 -0.0215,-4.5375 -0.21837,-10.6125 -0.4375,-13.5 -0.33908,-4.46815 -0.23873,-6.03074 0.67385,-10.49253 0.58975,-2.88338 1.52882,-9.74588 2.08684,-15.25 1.09698,-10.82042 1.91734,-15.52398 3.50284,-20.08373 0.63852,-1.83632 1.17012,-5.15532 1.42931,-8.92374 0.34331,-4.99152 0.68276,-6.67232 2.01953,-10 1.16463,-2.89914 1.74147,-5.37607 2.09597,-9 0.26901,-2.75 0.90175,-6.6875 1.40607,-8.75 0.50433,-2.0625 1.06431,-6.3375 1.24442,-9.5 0.5732,-10.06537 1.21175,-14.20393 3.7172,-24.09199 1.58402,-6.25149 3.71665,-12.92062 6.04635,-18.90801 1.97956,-5.0875 4.33498,-11.54075 5.23429,-14.34057 1.12743,-3.50998 2.40648,-6.22679 4.11943,-8.75 1.36637,-2.01268 3.54636,-5.90943 4.84443,-8.65943 1.29807,-2.75 3.55937,-6.575 5.02512,-8.5 1.46575,-1.925 3.6059,-5.04692 4.75589,-6.93761 1.15,-1.89069 3.48233,-5.17667 5.18297,-7.30221 1.70064,-2.12552 3.71498,-5.02991 4.47631,-6.45421 0.8905,-1.66591 2.21779,-3.16324 3.72108,-4.19779 3.75263,-2.58251 5.86721,-4.6395 11.37041,-11.06073 5.3131,-6.19941 6.62513,-7.30855 19.02427,-16.08246 3.85,-2.72434 8.70351,-6.53096 10.78558,-8.45917 7.59344,-7.03227 11.33205,-10.18303 13.99476,-11.79424 1.49581,-0.90512 4.51966,-2.93044 6.71966,-4.50072 2.2,-1.57028 6.025,-3.9212 8.5,-5.22428 2.475,-1.30309 6.6375,-3.56475 9.25,-5.02594 6.26947,-3.50654 11.51123,-5.70474 21.5,-9.01627 4.5375,-1.5043 9.6,-3.27301 11.25,-3.93046 1.65,-0.65746 4.63286,-1.56669 6.62857,-2.02053 2.68184,-0.60987 4.44298,-1.40563 6.75,-3.04996 5.49694,-3.91795 8.36257,-5.00344 16.48607,-6.24487 7.36465,-1.12546 7.36465,-1.12546 14.5,-0.006 13.02711,2.04474 13.86359,2.26431 21.13536,5.54797 1.925,0.86926 5.975,2.25184 9,3.07242 5.51723,1.49663 10.41543,3.79913 13.82968,6.50092 1.00633,0.79633 3.80613,2.47322 6.22178,3.7264 4.94419,2.56492 6.94438,4.01451 11.8973,8.62229 1.89682,1.76464 4.43646,3.64534 5.64364,4.17934 3.01574,1.334 5.50134,3.63248 6.88852,6.36996 0.64168,1.2663 2.20422,3.68257 3.47229,5.36949 2.69814,3.58931 3.27366,4.86173 5.03914,11.14097 1.65322,5.87995 3.01785,8.64669 4.15661,8.42738 1.41867,-0.27321 8.66767,-11.40557 16.37694,-25.15019 5.43061,-9.68209 5.69376,-10.28906 6.52465,-15.04928 0.85832,-4.91743 2.88019,-12.13301 4.01432,-14.32618 0.43566,-0.84246 1.7491,-2.56513 2.91877,-3.82815 1.16967,-1.26302 2.39043,-2.80156 2.7128,-3.41897 0.32238,-0.61742 0.89895,-4.66742 1.28127,-9 0.38232,-4.33259 1.06561,-9.49808 1.51843,-11.47889 1.76331,-7.71339 6.59345,-11.47933 13.01374,-10.14649 3.26615,0.67805 3.70643,0.48306 8.0655,-3.57218 3.40962,-3.17196 4.8284,-3.93175 7.33217,-3.92657 1.85759,0.004 3.66628,1.09746 5.56474,3.3647 0.74515,0.88989 2.93061,2.44605 4.85659,3.45812 2.2603,1.18776 4.23395,2.70844 5.56697,4.28933 1.13585,1.34705 3.76778,3.64223 5.84874,5.10039 6.92481,4.85235 11.38087,10.96036 11.8943,16.30378 0.3452,3.59255 -0.73265,12.80098 -2.3787,20.32202 -1.62331,7.41713 -4.15068,13.4963 -8.30455,19.97521 -1.43407,2.23676 -3.07356,5.12067 -3.6433,6.40868 -1.77468,4.01196 -6.15944,10.91183 -8.59459,13.52448 -1.28158,1.375 -2.60344,3.02382 -2.93745,3.66405 -0.89023,1.7064 -5.51353,15.20162 -5.52258,16.1202 -0.0187,1.8957 -1.66483,6.08166 -3.35903,8.54157 -1.70721,2.4788 -9.63126,22.814 -12.14769,31.17418 -3.02618,10.05364 -3.20501,10.94958 -2.99401,15 0.54642,10.48915 0.037,12.60395 -3.97081,16.4825 -2.3913,2.31421 -3.02943,4.211 -3.03375,9.0175 -0.002,2.18174 -0.47741,5.23022 -1.26232,8.09377 -1.33801,4.88134 -1.34482,4.71124 0.45594,11.38628 1.11064,4.11688 1.01273,10.32765 -0.25465,16.15367 -1.6917,7.77652 -0.73065,14.17514 2.6459,17.61628 0.67459,0.6875 2.48228,2.3113 4.01708,3.60845 2.24779,1.89975 3.23624,3.26862 5.08214,7.03814 1.7257,3.52406 3.00002,5.34937 5.16033,7.39155 6.42313,6.07188 6.94777,6.73121 8.58181,10.78487 2.91282,7.22606 7.55805,12.92445 14.03069,17.21175 2.61818,1.73421 3.41325,1.7858 7.17049,0.46524 1.74847,-0.61454 4.1269,-1 6.17036,-1 2.84083,0 4.11525,-0.33731 8.74925,-2.31571 2.98323,-1.27363 6.27377,-3.02977 7.31231,-3.90254 3.16405,-2.659 4.75093,-3.60213 8.10583,-4.81757 4.30497,-1.55964 10.06867,-5.91425 16.90721,-12.7738 3.09365,-3.10314 6.69365,-6.36422 8,-7.24683 1.30635,-0.88262 3.5002,-2.54608 4.8752,-3.69659 1.375,-1.15052 3.5125,-2.72003 4.75,-3.48782 1.2375,-0.76778 3.375,-2.44724 4.75,-3.73214 1.375,-1.28488 4.44895,-3.61777 6.831,-5.18418 2.38205,-1.5664 5.3886,-4.02809 6.6812,-5.47042 1.2926,-1.44232 3.91645,-4.03682 5.8307,-5.76555 1.9143,-1.72873 4.59495,-4.48228 5.95705,-6.11901 2.84675,-3.42073 4.1087,-4.1892 8.0869,-4.92461 1.57665,-0.29147 3.37215,-0.79925 3.9899,-1.1284 0.6178,-0.32916 3.7178,-3.11175 6.8889,-6.18355 6.2285,-6.03338 6.33985,-6.09622 15.23435,-8.59603 4.2337,-1.18988 5.89325,-1.40013 10.8283,-1.37182 5.19235,0.0298 6.0926,0.16935 8.25,1.27907 2.8172,1.44908 5.81795,5.11671 6.90325,8.43749 0.88735,2.71505 2.26845,13.69978 2.26845,18.04239 0,2.70051 -0.35775,3.92239 -2.61125,8.91842 -2.36535,5.24408 -2.95745,6.11876 -6.288,9.2892 -2.0222,1.925 -5.30345,5.11088 -7.2916,7.07974 -2.47395,2.44986 -4.66055,4.07378 -6.9278,5.145 -3.5502,1.67739 -5.73915,3.78651 -7.4354,7.16416 -1.7981,3.58049 -3.2192,5.0878 -6.14955,6.52266 -4.07895,1.99727 -9.4207,6.81432 -12.1735,10.97773 -2.0177,3.05164 -2.94295,3.92731 -6.1812,5.84978 -4.96685,2.94874 -15.3825,12.7562 -17.23175,16.22553 -1.784,3.34699 -4.9685,7.51217 -6.5213,8.5296 -0.68465,0.44861 -2.55815,1.047 -4.1633,1.32974 -2.6851,0.47297 -3.1619,0.77111 -5.96265,3.72848 -2.35125,2.48269 -3.9241,3.61538 -6.90955,4.9759 -3.2178,1.46639 -4.62405,2.53299 -8.3939,6.36659 -3.12055,3.17331 -5.53597,5.13005 -7.76888,6.29356 -1.78221,0.92865 -4.59037,2.98962 -6.24037,4.57993 -6.23065,6.00524 -15.05764,13.0405 -18.5,14.7448 -1.925,0.95307 -5.20896,2.05374 -7.29768,2.44594 -2.08873,0.3922 -5.1757,1.29308 -6.85994,2.00197 -3.52756,1.48473 -4.79485,1.56253 -8.59238,0.52749 -1.5125,-0.41224 -6.2375,-0.95143 -10.5,-1.1982 -8.74385,-0.50619 -9.86158,-0.81566 -17.23924,-4.77299 -3.52981,-1.89337 -6.01266,-2.86666 -8.21931,-3.22204 -4.91491,-0.79152 -6.09312,-1.77106 -8.80186,-7.31765 -0.96164,-1.96912 -3.13393,-5.092 -4.92637,-7.08216 -3.96757,-4.4052 -5.65517,-6.84408 -8.05824,-11.64556 -3.15335,-6.30061 -5.58246,-10.09445 -8.74254,-13.65428 -3.39044,-3.81933 -4.371,-5.54722 -6.01304,-10.59572 -1.47998,-4.55029 -3.04307,-7.6273 -5.72575,-11.27147 -1.19727,-1.62637 -2.7947,-4.59313 -3.54983,-6.59279 -0.75514,-1.99966 -2.14821,-5.43574 -3.09571,-7.63574 -4.76988,-11.07523 -5.05079,-11.9495 -6.09837,-18.98016 -0.57203,-3.83909 -1.2532,-7.1933 -1.51371,-7.45381 -0.75905,-0.75905 -1.83682,0.45952 -6.08462,6.87951 -3.16771,4.78758 -4.25821,6.95005 -5.46717,10.84142 -1.78298,5.73905 -3.48917,8.48991 -6.95475,11.21304 -4.18211,3.28616 -15.2377,16.69021 -18.97028,23 -0.97607,1.65 -2.88915,4.0125 -4.2513,5.25 -4.24227,3.85405 -12.94834,13.00174 -14.92928,15.68657 -1.04025,1.40989 -2.42472,3.25537 -3.07661,4.10107 -0.65188,0.8457 -2.83826,2.3987 -4.85863,3.45111 -2.02037,1.05241 -5.47339,3.51908 -7.67339,5.48148 -2.2,1.96241 -5.0125,4.34169 -6.25,5.2873 -1.2375,0.9456 -4.17321,3.5245 -6.5238,5.73087 -10.33712,9.70292 -20.44193,18.75045 -24.1801,21.65011 -2.22536,1.72618 -5.7336,4.46595 -7.7961,6.08836 -6.13102,4.82283 -13.22472,9.82792 -21.99218,15.51702 -10.81063,7.01488 -12.93516,8.17016 -18.00782,9.79229 -2.3375,0.74749 -5.3769,1.99219 -6.75423,2.76601 -3.59858,2.02179 -6.44713,2.93053 -10.98143,3.50329 -2.88361,0.36424 -6.33992,1.41955 -12.5,3.8166 -8.51434,3.31315 -8.51434,3.31315 -14.63445,3.52182 -4.49087,0.15311 -7.10253,-0.01 -9.81051,-0.61238 -3.40093,-0.75663 -3.86214,-0.75781 -5.87989,-0.015 -6.9042,2.54151 -7.78399,2.63631 -11.93949,1.28649 z m 7,-86.53746 c 3.6589,-0.74716 8.43219,-1.20044 15.75,-1.49564 5.775,-0.23297 11.28601,-0.67023 12.2467,-0.97171 0.96069,-0.30147 4.81122,-0.54814 8.55675,-0.54814 3.74553,0 8.02202,-0.23188 9.5033,-0.51529 1.48129,-0.28341 5.26271,-0.85412 8.40316,-1.26825 6.40442,-0.84453 15.30389,-3.95316 19.79287,-6.91373 3.44122,-2.26956 5.13353,-3.10445 9.35885,-4.61712 5.84182,-2.09137 13.37247,-5.84951 17.0105,-8.48902 1.85467,-1.34562 5.11717,-3.40632 7.25,-4.57934 7.90715,-4.34877 9.97881,-6.32028 15.74417,-14.98306 2.88594,-4.3363 5.99521,-9.23419 6.90949,-10.88419 0.91427,-1.65 3.49023,-5.7 5.72435,-9 2.23413,-3.3 5.37826,-8.3625 6.98695,-11.25 1.6087,-2.8875 4.66075,-8.175 6.78234,-11.75 4.88541,-8.23219 8.52029,-15.51995 9.97532,-20 0.6252,-1.925 5.05471,-11.35685 9.84336,-20.95966 9.13191,-18.3125 12.82894,-26.74279 15.91481,-36.29034 1.85846,-5.75 1.85846,-5.75 2.29476,-20.6735 0.42666,-14.59401 0.41003,-15.05766 -0.75316,-21 -0.6542,-3.34207 -1.34178,-7.6515 -1.52797,-9.5765 -0.41882,-4.33025 -1.52879,-9.33989 -2.47469,-11.16905 -1.55283,-3.00285 -4.59924,-5.48127 -8.04599,-6.54587 -1.82127,-0.56253 -4.7029,-1.79796 -6.40364,-2.7454 -1.70073,-0.94743 -4.44223,-2.05701 -6.09223,-2.46572 -1.65,-0.40871 -4.95638,-1.55611 -7.34751,-2.54978 -5.45312,-2.26612 -9.46606,-2.718 -13.65249,-1.53732 -2.91924,0.82329 -8.65295,1.40906 -21.06325,2.15188 -6.06326,0.36291 -6.06326,0.36291 -9.5,2.70012 -1.89022,1.28547 -6.47425,3.7409 -10.18675,5.45651 -7.20147,3.32792 -8.60577,4.19764 -13.51077,8.36759 -1.7228,1.46462 -4.28141,3.18205 -5.68579,3.81651 -1.44808,0.6542 -3.74014,2.37303 -5.29478,3.97057 -2.22149,2.28282 -3.50149,3.10854 -6.75,4.35441 -2.20476,0.84557 -5.13366,2.38128 -6.50866,3.41269 -3.59254,2.69482 -9.94218,6.25791 -14,7.85608 -3.04999,1.20124 -4.09504,1.99117 -8.12797,6.14381 -3.6717,3.78069 -5.37638,5.12877 -8.25,6.52416 -3.62203,1.75881 -3.62203,1.75881 -6.94066,8.50641 -2.85666,5.80827 -3.73742,7.13074 -6.32692,9.5 -1.65456,1.51381 -3.62975,3.7649 -4.38933,5.0024 -0.75957,1.2375 -2.68084,3.7125 -4.26949,5.5 -8.14394,9.16335 -8.40034,9.53257 -9.76321,14.05888 -0.92291,3.06511 -1.93978,5.15784 -3.52285,7.25 -3.69146,4.87859 -3.99969,5.77041 -4.29989,12.44112 -0.30416,6.75888 -1.28097,10.27644 -4.18788,15.08092 -3.07441,5.08132 -3.99589,7.22184 -6.63776,15.41908 -2.01318,6.24653 -2.74051,9.41485 -3.31835,14.45506 -0.48833,4.25939 -1.24623,7.91706 -2.22817,10.75321 -1.21152,3.49927 -1.80984,6.99269 -3.21904,18.79495 -1.12026,9.38242 -2.09687,15.55516 -2.76824,17.49678 -1.15094,3.32858 -1.12966,2.93633 -0.84101,15.5 0.3135,13.64562 1.95242,17.87454 7.47829,19.2963 2.95576,0.76049 16.69075,0.12737 22.36248,-1.03081 z"
     id="path156"
     inkscape:connector-curvature="0" />
</svg>
