<?xml version="1.0" encoding="UTF-8" standalone="no"?>
<!-- Created with Inkscape (http://www.inkscape.org/) -->

<svg
   xmlns:dc="http://purl.org/dc/elements/1.1/"
   xmlns:cc="http://creativecommons.org/ns#"
   xmlns:rdf="http://www.w3.org/1999/02/22-rdf-syntax-ns#"
   xmlns:svg="http://www.w3.org/2000/svg"
   xmlns="http://www.w3.org/2000/svg"
   xmlns:sodipodi="http://sodipodi.sourceforge.net/DTD/sodipodi-0.dtd"
   xmlns:inkscape="http://www.inkscape.org/namespaces/inkscape"
   version="1.1"
   id="svg737"
   width="1000"
   height="1000"
   viewBox="0 0 1000 1000"
   sodipodi:docname="Masomeh_maj_i.svg"
   inkscape:version="0.92.2 5c3e80d, 2017-08-06">
  <metadata
     id="metadata743">
    <rdf:RDF>
      <cc:Work
         rdf:about="">
        <dc:format>image/svg+xml</dc:format>
        <dc:type
           rdf:resource="http://purl.org/dc/dcmitype/StillImage" />
        <dc:title></dc:title>
      </cc:Work>
    </rdf:RDF>
  </metadata>
  <defs
     id="defs741" />
  <sodipodi:namedview
     pagecolor="#ffffff"
     bordercolor="#666666"
     borderopacity="1"
     objecttolerance="10"
     gridtolerance="10"
     guidetolerance="10"
     inkscape:pageopacity="0"
     inkscape:pageshadow="2"
     inkscape:window-width="1027"
     inkscape:window-height="480"
     id="namedview739"
     showgrid="false"
     inkscape:zoom="0.19666667"
     inkscape:cx="292"
     inkscape:cy="600"
     inkscape:window-x="0"
     inkscape:window-y="0"
     inkscape:window-maximized="0"
     inkscape:current-layer="svg737" />
  <path
     style="fill:#000000;stroke-width:0.5"
     d="m 438.01594,752.17448 c -4.63606,-1.4711 -8.24296,-7.4961 -6.99039,-11.67685 0.71448,-2.3847 1.69283,-3.26235 6.47854,-5.8115 3.16388,-1.68525 4.53183,-2.8424 7.71053,-6.5221 2.12535,-2.46035 5.05065,-6.34015 6.50067,-8.62175 1.45002,-2.2816 3.78783,-5.7691 5.19513,-7.75 1.40731,-1.9809 3.04326,-4.5581 3.63545,-5.72715 0.59219,-1.16905 2.07491,-3.6686 3.29492,-5.55455 1.22001,-1.88595 3.36055,-6.32945 4.75676,-9.87445 1.3962,-3.545 3.75344,-8.94932 5.2383,-12.00959 1.60921,-3.31653 2.92969,-6.85106 3.26896,-8.75 0.31307,-1.75223 0.93884,-3.74836 1.39062,-4.43586 0.45178,-0.6875 1.86643,-3.1625 3.14368,-5.5 1.27725,-2.3375 3.00752,-5.4875 3.84505,-7 0.83753,-1.5125 2.70168,-6.0125 4.14256,-10 1.44088,-3.9875 3.35217,-8.7125 4.2473,-10.5 2.83354,-5.65834 4.22695,-10.23328 4.23504,-13.9048 0.007,-3.30229 0.16705,-3.78564 2.3533,-7.11913 0.61086,-0.93143 1.24911,-2.71333 1.41831,-3.95979 0.71161,-5.24206 3.26666,-17.02142 4.39593,-20.26628 2.79451,-8.02971 4.80564,-17.80913 4.83275,-23.5 0.009,-1.91679 0.37959,-3.80526 1.02597,-5.2302 0.62298,-1.37332 1.19956,-4.21317 1.50069,-7.39136 0.26897,-2.83864 1.05339,-7.46005 1.74315,-10.2698 0.7098,-2.89133 1.45492,-7.92984 1.71676,-11.60864 0.25445,-3.575 0.7018,-7.73547 0.99411,-9.2455 0.29231,-1.51002 0.76455,-7.36002 1.04942,-13 0.5956,-11.79205 2.34408,-24.09443 4.18804,-29.46708 0.99454,-2.89774 1.27617,-4.70844 1.28317,-8.25 0.005,-2.49558 0.33839,-6.67492 0.74103,-9.28742 0.40264,-2.6125 0.7361,-6.57011 0.74103,-8.7947 0.0116,-5.2533 1.27953,-18.65587 2.33712,-24.7053 0.58686,-3.35682 0.81889,-7.46305 0.79112,-14 -0.0412,-9.68974 0.58012,-15.42392 2.46492,-22.75 0.566,-2.2 1.14731,-5.96875 1.2918,-8.375 0.22325,-3.7179 0.14719,-4.375 -0.50646,-4.375 -1.2888,0 -5.73221,5.33058 -8.24507,9.89126 -1.30595,2.37023 -3.72543,5.78309 -5.37662,7.58412 -3.83629,4.18445 -7.7772,8.85553 -9.09037,10.77462 -4.02405,5.88083 -6.29188,9.54598 -7.90428,12.77447 -1.95975,3.92397 -4.79424,8.0526 -7.53519,10.97553 -0.90258,0.9625 -2.66549,3.325 -3.91758,5.25 -1.30456,2.00565 -3.38806,4.35514 -4.8799,5.50288 -1.43185,1.10158 -3.29347,3.16667 -4.13694,4.58907 -0.84347,1.42241 -3.46862,4.68361 -5.83367,7.24712 -3.22195,3.49231 -5.20267,5.1556 -7.89994,6.63388 -2.4907,1.36507 -4.47797,2.97325 -6.4499,5.21954 -3.70966,4.22577 -9.26263,8.29273 -14.86233,10.88507 -2.46826,1.14265 -6.66534,3.08948 -9.32684,4.32628 -2.66151,1.2368 -5.87738,2.96308 -7.14638,3.83617 -1.41331,0.97238 -5.54393,2.65013 -10.6609,4.33017 -10.30146,3.38224 -15.92103,6.52804 -21.29794,11.92242 -4.27092,4.28481 -6.6811,5.32111 -9.70172,4.17145 -3.31054,-1.25999 -3.85396,-2.64563 -3.85396,-9.82699 0,-7.64112 0.30984,-8.38241 5.12791,-12.26842 5.36554,-4.32756 8.61869,-6.27544 12.37209,-7.40797 1.925,-0.58083 5.075,-1.84548 7,-2.81033 1.925,-0.96484 4.7375,-2.14946 6.25,-2.63249 4.48577,-1.43258 12.94057,-5.33762 14.9145,-6.88861 1.00953,-0.79322 2.57059,-1.81832 3.46905,-2.27799 0.89845,-0.45967 3.48595,-2.24287 5.75,-3.96267 2.26405,-1.71979 5.01645,-3.67763 6.11645,-4.35075 1.1,-0.67312 3.125,-2.24088 4.5,-3.4839 1.375,-1.24302 3.56952,-2.93366 4.8767,-3.75698 1.69405,-1.06699 2.66732,-2.1432 3.38856,-3.74695 1.57574,-3.50388 1.98958,-4.13645 6.24299,-9.54265 2.19546,-2.7905 5.71787,-6.50186 7.82757,-8.24748 3.58813,-2.96892 3.87216,-3.34896 4.39881,-5.88582 0.66802,-3.21783 2.83773,-6.96967 6.90545,-11.94085 1.63509,-1.99826 3.61375,-4.74656 4.39702,-6.10734 0.78327,-1.36078 2.6798,-4.17328 4.21452,-6.25 1.53472,-2.07672 3.67337,-5.23836 4.75254,-7.02586 1.07918,-1.7875 4.00851,-5.41457 6.50963,-8.06015 4.43237,-4.68838 4.6917,-5.09975 10.24361,-16.25 3.13286,-6.29192 6.28474,-12.33985 7.00418,-13.43985 2.11756,-3.23766 7.04061,-13.29248 7.83392,-16 0.97888,-3.34078 3.99187,-8.39483 8.73686,-14.65536 5.03949,-6.6491 5.94597,-9.85364 7.43837,-26.29583 0.3297,-3.63237 1.01355,-7.67411 1.56507,-9.25 0.59359,-1.6961 1.06953,-4.67027 1.20797,-7.54881 0.12567,-2.6125 0.59681,-6.93376 1.04699,-9.60281 0.63422,-3.76021 0.68519,-5.01345 0.2264,-5.56627 -0.43816,-0.52795 -2.24646,-0.76562 -6.95464,-0.9141 -7.2935,-0.23001 -9.51431,-0.98794 -12.82301,-4.37635 -1.57855,-1.61659 -1.97305,-2.42284 -2.1655,-4.42577 -0.30945,-3.22049 0.67927,-5.07263 3.72987,-6.98704 12.00037,-7.53088 13.53471,-8.35834 18.4597,-9.95536 3.53183,-1.14525 6.11234,-1.6723 8.18786,-1.6723 3.55889,0 5.19395,-0.60968 9.23117,-3.4421 4.25575,-2.98574 7.25274,-3.73484 13.729,-3.43158 4.55636,0.21336 5.92598,0.4986 9.89454,2.06066 4.14143,1.6301 5.07467,1.81165 9.25,1.7994 7.45751,-0.0219 18.85657,-0.88078 22.64385,-1.7062 4.73942,-1.03295 9.02463,-0.97524 11.5,0.15485 1.98068,0.90426 7.9242,6.59431 9.10295,8.71476 0.33639,0.60511 0.61959,2.1517 0.62933,3.43685 0.0323,4.25477 -2.70796,6.34859 -9.69452,7.40763 -2.0777,0.31495 -4.51117,0.79133 -5.4077,1.05862 -1.62872,0.4856 -6.4472,0.96688 -19.63006,1.96073 -9.10568,0.68648 -17.46684,1.88118 -19.85614,2.83719 -2.41423,0.96598 -2.67471,1.97939 -1.95373,7.60127 0.73142,5.70328 0.26606,8.03029 -2.8596,14.29933 -1.4621,2.93251 -3.2478,7.68525 -4.32023,11.49859 -1.0054,3.575 -2.2526,7.9639 -2.77153,9.75312 -0.51893,1.78922 -2.21087,5.71366 -3.75987,8.72099 -5.42704,10.53644 -8.7289,21.5152 -8.7289,29.0238 0,4.59364 -1.31574,13.6617 -3.27596,22.57793 -1.35687,6.17183 -1.40944,8.5938 -0.26295,12.11429 1.93853,5.95257 1.38661,10.1874 -3.29858,25.30987 -0.99142,3.20001 -1.17736,4.59999 -0.9297,7 0.17026,1.65 0.0584,4.6875 -0.24848,6.75 -0.30692,2.0625 -0.7569,6.9 -0.99996,10.75 -0.24304,3.85 -0.68983,9.5875 -0.99286,12.75 -0.30303,3.1625 -0.61485,10.25 -0.69293,15.75 -0.0928,6.53873 -0.42667,11.55757 -0.96452,14.5 -2.03543,11.13538 -2.33576,13.18001 -2.35017,16 -0.0172,3.37883 -1.44722,11.61795 -2.99386,17.25 -0.64168,2.33662 -1.20492,6.57676 -1.49441,11.25 -0.25553,4.125 -0.81141,8.85 -1.23528,10.5 -0.42388,1.65 -0.99049,5.3625 -1.25914,8.25 -0.26866,2.8875 -0.71134,6.48547 -0.98374,7.9955 -0.27241,1.51001 -0.84176,7.02251 -1.26522,12.25 -0.42346,5.22747 -1.22225,11.642 -1.77507,14.2545 -0.55283,2.6125 -1.44386,7.45 -1.98006,10.75 -3.11365,19.16246 -7.64434,38.02023 -11.3521,47.25 -1.4984,3.72998 -5.0737,14.47919 -8.14897,24.5 -0.88614,2.8875 -2.50901,7.275 -3.60636,9.75 -1.09737,2.475 -2.7333,6.4125 -3.63543,8.75 -2.20386,5.71047 -8.91196,20.41841 -13.44685,29.48305 -2.02958,4.0569 -4.42573,9.37655 -5.32478,11.82155 -1.84299,5.01205 -2.36484,5.91295 -7.82703,13.5123 -4.91216,6.83415 -6.42026,9.15395 -6.868,10.56465 -0.31923,1.0058 -0.18795,1.1172 1.30372,1.10625 0.91228,-0.007 2.55869,-0.2166 3.65869,-0.4664 1.1,-0.2498 4.1375,-0.6891 6.75,-0.97625 2.6125,-0.2872 7.06178,-1.21385 9.88729,-2.0593 2.82552,-0.84545 6.76302,-1.7207 8.75,-1.94505 1.98699,-0.2243 5.83147,-1.1199 8.54328,-1.9902 2.71182,-0.8703 7.62049,-2.03385 10.90817,-2.58565 3.28766,-0.55175 8.1564,-1.80455 10.81942,-2.7839 9.84388,-3.6202 22.2222,-7.68105 23.41358,-7.68105 1.62729,0 3.92978,1.2262 4.89791,2.6084 0.45259,0.64615 0.78035,2.1561 0.78035,3.595 0,4.8816 -3.33313,9.1419 -9.21824,11.78235 -1.7163,0.77005 -4.22557,2.1899 -5.57616,3.15525 -2.76508,1.97635 -4.62227,2.83115 -10.64783,4.901 -2.30574,0.792 -5.33808,2.17535 -6.73856,3.074 -2.33566,1.4988 -2.89887,1.63895 -6.80777,1.69375 -3.02445,0.0425 -6.36595,0.57515 -11.51144,1.83545 -3.9875,0.97665 -8.70487,1.93375 -10.48303,2.1269 -4.40358,0.4783 -13.62774,2.8694 -17.19032,4.45605 -4.09383,1.8233 -15.4657,3.8901 -21.07665,3.83065 -5.40446,-0.0573 -9.00895,0.98945 -14.06735,4.08505 -3.33524,2.04105 -3.56745,2.10395 -8.18265,2.2159 -3.11144,0.0755 -5.55574,-0.14045 -7.08575,-0.62595 z"
     id="path747"
     inkscape:connector-curvature="0" />
</svg>
