<?xml version="1.0" encoding="UTF-8" standalone="no"?>
<!-- Created with Inkscape (http://www.inkscape.org/) -->

<svg
   xmlns:dc="http://purl.org/dc/elements/1.1/"
   xmlns:cc="http://creativecommons.org/ns#"
   xmlns:rdf="http://www.w3.org/1999/02/22-rdf-syntax-ns#"
   xmlns:svg="http://www.w3.org/2000/svg"
   xmlns="http://www.w3.org/2000/svg"
   xmlns:sodipodi="http://sodipodi.sourceforge.net/DTD/sodipodi-0.dtd"
   xmlns:inkscape="http://www.inkscape.org/namespaces/inkscape"
   version="1.1"
   id="svg1345"
   width="1000"
   height="1000"
   viewBox="0 0 1000 1000"
   sodipodi:docname="Masomeh_bdc_s.svg"
   inkscape:version="0.92.2 5c3e80d, 2017-08-06">
  <metadata
     id="metadata1351">
    <rdf:RDF>
      <cc:Work
         rdf:about="">
        <dc:format>image/svg+xml</dc:format>
        <dc:type
           rdf:resource="http://purl.org/dc/dcmitype/StillImage" />
        <dc:title></dc:title>
      </cc:Work>
    </rdf:RDF>
  </metadata>
  <defs
     id="defs1349" />
  <sodipodi:namedview
     pagecolor="#ffffff"
     bordercolor="#666666"
     borderopacity="1"
     objecttolerance="10"
     gridtolerance="10"
     guidetolerance="10"
     inkscape:pageopacity="0"
     inkscape:pageshadow="2"
     inkscape:window-width="1228"
     inkscape:window-height="710"
     id="namedview1347"
     showgrid="false"
     inkscape:zoom="0.17554036"
     inkscape:cx="785.5"
     inkscape:cy="600"
     inkscape:window-x="0"
     inkscape:window-y="0"
     inkscape:window-maximized="0"
     inkscape:current-layer="svg1345" />
  <path
     style="fill:#000000;stroke-width:0.5"
     d="m 631.38061,858.73569 c -2.475,-0.5311 -6.9837,-1.29985 -10.01935,-1.70825 -3.0356,-0.40845 -6.56548,-1.1911 -7.84414,-1.7392 -1.27865,-0.5481 -4.64496,-1.712 -7.48067,-2.58645 -4.9829,-1.53655 -17.46989,-7.04349 -22.70784,-10.01443 -1.4036,-0.79612 -4.04692,-2.01017 -5.87405,-2.6979 -7.06552,-2.65945 -13.9509,-6.54586 -17.51248,-9.88479 -3.49918,-3.28044 -13.17028,-9.74046 -20.18383,-13.48225 -5.36996,-2.86491 -7.38448,-4.28117 -15.12764,-10.63513 -3.7125,-3.04643 -8.1,-6.60336 -9.75,-7.90427 -8.75631,-6.90374 -10.4709,-8.61852 -13.5,-13.50152 -1.65,-2.65985 -4.96536,-7.59587 -7.36747,-10.96893 -5.9251,-8.32004 -6.60807,-9.79073 -6.56326,-14.13283 0.0597,-5.77966 1.46714,-7.98958 9.13329,-14.34045 5.59201,-4.63259 8.9683,-6.14038 12.87453,-5.74954 1.4174,0.14181 3.14267,0.55758 3.83393,0.92392 0.69127,0.36634 5.45969,4.15357 10.59651,8.41607 10.99439,9.12308 13.03203,10.55757 17.77451,12.51321 1.95988,0.80819 5.17318,2.35539 7.14069,3.43823 1.9675,1.08283 6.24531,2.88649 9.50624,4.00812 7.36262,2.53245 10.66531,4.28207 14.82103,7.85154 4.86303,4.177 7.76531,5.9591 12.84897,7.88973 6.28281,2.38604 7.00089,2.80136 10.80682,6.25045 3.74368,3.39267 4.8045,4.01771 9.95584,5.86603 5.17111,1.85541 7.12489,2.92596 11.48472,6.29291 5.26875,4.06888 6.58675,4.38978 18.0295,4.38978 5.2068,0 12.146,0.25435 15.4205,0.56523 9.7052,0.9214 21.2941,-0.62561 28.2156,-3.7665 1.6041,-0.72792 3.29615,-2.07653 4.68175,-3.7315 2.4136,-2.88277 4.9488,-4.51752 9.0563,-5.83965 2.0245,-0.65165 3.6074,-1.69406 6,-3.95124 1.7875,-1.68634 4.26385,-3.87096 5.503,-4.85471 1.5766,-1.25164 2.81665,-2.91385 4.13035,-5.53643 1.6057,-3.20558 2.32865,-4.06211 4.997,-5.92041 3.99135,-2.77971 8.5567,-7.09443 10.52535,-9.94752 0.8473,-1.228 3.2889,-4.11523 5.42575,-6.41605 2.13685,-2.30083 4.51145,-5.4586 5.27685,-7.01728 1.3273,-2.70278 1.3995,-3.22456 1.5599,-11.27373 0.20185,-10.12903 -0.037,-10.97985 -4.7511,-16.91457 -1.78255,-2.24419 -3.65375,-4.88254 -4.15825,-5.863 -0.9753,-1.8954 -2.86875,-3.83828 -5.15435,-5.28885 -2.12145,-1.3464 -3.6893,-4.49628 -4.8499,-9.74379 -1.46575,-6.62708 -2.55035,-8.62614 -6.2631,-11.54389 -1.72025,-1.35188 -3.53495,-3.0763 -4.03275,-3.83204 -1.4996,-2.27681 -7.227,-13.68551 -8.30845,-16.54997 -1.61365,-4.27419 -9.06395,-10.93697 -15.31535,-13.69646 -4.027,-1.77759 -10.9064,-6.28991 -12.57595,-8.24879 -3.42205,-4.01509 -4.1293,-4.58949 -8.8554,-7.1925 -3.57405,-1.96847 -5.8831,-3.70001 -8.64055,-6.47949 -5.28195,-5.32416 -10.5411,-9.48935 -19.51305,-15.4541 -4.2625,-2.83379 -9.55,-6.54663 -11.75,-8.25074 -2.2,-1.70411 -6.3625,-4.67085 -9.25,-6.59277 -2.8875,-1.92191 -7.05,-4.69812 -9.25,-6.16936 -2.2,-1.47123 -5.70296,-4.15207 -7.78437,-5.95743 -7.65745,-6.64187 -13.05381,-10.82645 -16.1961,-12.55918 -1.77213,-0.97719 -4.30149,-2.673 -5.6208,-3.76845 -1.3193,-1.09546 -3.551,-2.82508 -4.95934,-3.8436 -1.91872,-1.38764 -3.02343,-2.73263 -4.40695,-5.36548 -1.64301,-3.12666 -2.15948,-3.67571 -4.6894,-4.98535 -3.1356,-1.62316 -11.81924,-9.75784 -13.16402,-12.3318 -0.52112,-0.99744 -2.07342,-2.30593 -4.25,-3.58245 -2.1007,-1.23202 -5.66798,-4.20652 -9.20886,-7.6786 -3.53288,-3.46425 -6.99011,-6.34788 -8.893,-7.41755 -7.48336,-4.20661 -8.36711,-4.85854 -11.0529,-8.15368 -1.52584,-1.87203 -3.44926,-3.80261 -4.27426,-4.29018 -10.94142,-6.46635 -13.43563,-8.13679 -16.5,-11.05044 -4.23103,-4.02294 -8.01848,-6.6277 -14.01385,-9.63782 -2.48262,-1.24645 -6.53263,-3.45335 -9,-4.90422 -8.60452,-5.05963 -9.57481,-5.46366 -13.12087,-5.46366 -2.66261,0 -4.06984,-0.35292 -7.85413,-1.96975 -2.53567,-1.08336 -6.61301,-2.33886 -9.06074,-2.78999 -2.44773,-0.45113 -6.12404,-1.25225 -8.16958,-1.78025 -5.37527,-1.38749 -13.15531,-1.29227 -20.53083,0.25128 -6.88166,1.44019 -7.74226,1.75185 -11.12142,4.02751 -2.84449,1.91559 -5.33349,2.2541 -9.02878,1.22795 -2.76254,-0.76713 -5.05177,0.17326 -8.5998,3.53273 -1.65,1.56231 -4.0125,3.5308 -5.25,4.37441 -2.39232,1.63086 -4.61773,3.87647 -7.70981,7.77977 -1.04726,1.32201 -3.6716,3.64218 -5.83187,5.15592 -5.30013,3.71389 -7.55605,6.37384 -8.72338,10.28563 -0.51778,1.73513 -1.58712,4.59394 -2.37631,6.35291 -2.73424,6.09413 -4.00107,14.21211 -4.10449,26.30188 -0.15568,18.20181 -0.81412,42.60372 -1.3896,51.5 -0.92431,14.28874 -0.78776,20.7257 0.53637,25.28189 1.19159,4.10018 1.36511,7.55829 0.61049,12.16634 -0.33011,2.01575 -0.30944,3.67625 0.0653,5.25 0.30148,1.26597 0.61132,5.67677 0.68851,9.80177 0.13396,7.15793 -0.0148,8.6416 -1.80637,18.0128 -0.26421,1.38204 -1.24709,3.78556 -2.18415,5.34114 -0.93708,1.55557 -2.28378,4.43624 -2.99268,6.40149 -1.10415,3.06097 -1.2705,4.26634 -1.16048,8.40886 0.12842,4.83571 0.12842,4.83571 -2.42732,8.58571 -4.64177,6.81081 -6.1682,10.04136 -6.91014,14.62466 -0.48094,2.97099 -1.25303,5.3203 -2.60862,7.93749 -1.05903,2.04462 -2.33987,4.77554 -2.84633,6.06872 -0.66467,1.69717 -1.60044,2.85013 -3.3639,4.14462 -2.20344,1.61747 -2.86647,2.63599 -6.75972,10.38394 -2.731,5.43494 -5.16867,9.5626 -6.63611,11.23675 -1.27569,1.45539 -3.12377,3.91921 -4.10684,5.47514 -0.98307,1.55593 -2.55807,3.42739 -3.5,4.15879 -2.14836,1.66821 -19.53812,7.31163 -32.32641,10.49076 -8.63244,2.146 -10.48998,3.19006 -16.86378,9.47861 -6.50701,6.41998 -16.59837,13.96646 -23.20297,17.35156 -4.68056,2.39896 -4.68056,2.39896 -15.75,2.35016 -7.7647,-0.0343 -12.63681,-0.30059 -16.31944,-0.89218 -2.8875,-0.46386 -7.66939,-1.1677 -10.62642,-1.5641 -5.80049,-0.77756 -7.38639,-1.3765 -9.46677,-3.57528 -2.39805,-2.53453 -2.57342,-3.60752 -2.79769,-17.11692 -0.22038,-13.27531 0.13096,-17.10374 1.88501,-20.54042 1.34321,-2.63172 2.15936,-3.19601 11.32672,-7.83136 11.1066,-5.61588 11.40538,-5.81697 13.26639,-8.92836 1.84319,-3.08161 3.65799,-4.26281 8.69327,-5.65815 4.69829,-1.30196 11.76706,-4.37538 14.32498,-6.22833 2.90126,-2.10165 5.6894,-3.24355 8.89451,-3.64279 1.5125,-0.18841 4.55,-0.76415 6.75,-1.27943 2.2,-0.51528 4.7875,-0.93947 5.75,-0.94264 2.83362,-0.009 13.88876,-3.87222 18.49281,-6.46174 2.34146,-1.31694 5.38219,-2.93856 6.75719,-3.60361 2.22043,-1.07394 2.70457,-1.61524 4.32931,-4.84043 1.00612,-1.99719 2.46862,-4.43307 3.25,-5.41305 3.04791,-3.82259 3.24349,-4.28391 2.95503,-6.96993 -0.30713,-2.85985 -0.11277,-3.21167 3.16255,-5.72475 2.69997,-2.07164 3.80726,-4.46027 5.03603,-10.86365 0.51441,-2.68074 1.50241,-6.8204 2.19554,-9.19925 0.69314,-2.37884 1.62164,-7.44134 2.06335,-11.25 0.44171,-3.80865 1.24457,-8.64514 1.78415,-10.74773 1.39914,-5.45217 2.13229,-13.71577 1.83448,-20.6771 -0.23283,-5.44238 -0.41782,-6.37174 -1.99054,-10 -2.43031,-5.60676 -3.37316,-13.7976 -2.21762,-19.26527 0.43411,-2.0541 1.01999,-5.87223 1.30194,-8.48473 0.28196,-2.6125 0.98106,-6.1 1.55357,-7.75 0.57251,-1.65 1.02882,-3.9 1.01402,-5 -0.20766,-15.43335 0.0345,-22.31344 0.94149,-26.75 0.53409,-2.6125 1.11904,-6.6625 1.29989,-9 0.18085,-2.3375 1.00342,-7.175 1.82794,-10.75 0.82451,-3.575 2.24196,-10.26031 3.14988,-14.85624 1.57324,-7.96383 1.79141,-8.60953 4.6459,-13.75 1.64733,-2.96657 3.83373,-7.08126 4.85866,-9.14376 1.02493,-2.0625 2.44103,-4.5181 3.14688,-5.45689 0.70585,-0.93879 1.93007,-3.29601 2.72047,-5.23827 1.69028,-4.15349 2.21404,-4.79783 5.99043,-7.36956 2.08119,-1.41729 3.34529,-2.78775 4.6712,-5.06421 2.40118,-4.1226 3.36367,-5.10507 7.22545,-7.3754 1.7875,-1.05087 5.2532,-3.63181 7.70156,-5.73544 2.44835,-2.10362 6.04835,-4.62828 8,-5.61035 1.95164,-0.98208 4.8098,-2.64145 6.35146,-3.68748 3.65223,-2.4781 27.26462,-14.73768 31.38927,-16.29735 5.22804,-1.9769 9.79437,-2.71522 19.55771,-3.16224 5.0875,-0.23294 10.825,-0.66496 12.75,-0.96005 7.48208,-1.14696 19.50724,-2.04276 27.42162,-2.04276 8.28087,0 8.28087,0 12.0615,1.99111 2.07935,1.09511 5.5357,2.43922 7.6808,2.98691 2.14509,0.54769 7.37325,2.32877 11.61812,3.95796 4.24488,1.62919 9.06796,3.23381 10.71796,3.56583 3.6646,0.7374 11.53709,4.69288 15.87311,7.97534 1.76326,1.33482 5.26261,3.45988 7.77632,4.72234 3.26876,1.64167 6.17666,3.68648 10.21048,7.17991 3.10205,2.68649 6.54009,5.54645 7.64009,6.35546 3.1048,2.28348 11.93075,10.41426 18,16.58223 3.025,3.07421 7.1875,6.7705 9.25,8.214 2.0625,1.44349 7.8,5.84456 12.75,9.78016 4.95,3.9356 11.475,8.72329 14.5,10.63932 3.025,1.91602 6.85,4.64228 8.5,6.05835 1.65,1.41607 4.0125,3.2717 5.25,4.12363 1.2375,0.85192 3.375,2.49904 4.75,3.66025 1.375,1.16121 4.4125,3.22248 6.75,4.5806 7.1092,4.13055 25.0171,16.08975 29,19.3667 5.5028,4.52743 7.9079,6.04432 14.66525,9.24923 3.3466,1.58724 7.4724,3.98272 9.1684,5.32328 1.69605,1.34056 4.36655,3.22489 5.9345,4.18739 1.6784,1.0303 3.77655,2.94904 5.10175,4.66556 1.32375,1.71457 4.2342,4.37699 7.06555,6.4634 6.4362,4.74284 9.853,8.07408 18.3301,17.87104 8.7604,10.12439 12.062,13.34355 18.48445,18.02305 2.75,2.00368 6.125,4.58438 7.5,5.73488 1.375,1.1505 4.22805,3.24688 6.3401,4.65863 3.8291,2.55947 4.6594,3.41175 11.4293,11.7319 2.44655,3.00681 4.4005,4.86215 6.17565,5.86398 4.3971,2.48156 5.46745,3.95543 5.8423,8.04457 0.32345,3.52907 0.32345,3.52907 3.34555,6.36103 2.7153,2.54445 3.0827,3.13059 3.61885,5.77348 0.4911,2.42059 0.97785,3.3119 2.74855,5.03283 2.1532,2.09267 3.24125,4.58371 3.2469,7.43352 0.005,2.07904 0.7307,3.19846 4.76555,7.34213 4.9617,5.09552 11.81425,13.9951 14.0523,18.25 1.01255,1.925 2.7079,4.54617 3.7675,5.82482 2.5783,3.11131 3.2681,4.93164 4.17735,11.02326 0.4229,2.83355 1.6507,8.07692 2.7284,11.65192 3.56255,11.8178 4.1749,14.84956 5.5311,27.38428 0.55215,5.10323 0.023,9.85817 -1.57985,14.20274 -0.86225,2.33676 -1.85785,3.67327 -5.03305,6.7565 -2.17695,2.11393 -5.24025,4.68738 -6.8073,5.71878 -1.56705,1.0314 -4.0867,2.9297 -5.5992,4.21845 -3.2516,2.77057 -3.90405,3.13087 -8.46245,4.67308 -1.9121,0.64691 -5.009,2.26089 -6.88205,3.58663 -1.873,1.32573 -5.318,3.68511 -7.6555,5.24305 -2.3375,1.55794 -4.9933,3.76457 -5.9018,4.9036 -0.9085,1.13904 -2.9138,3.02378 -4.4562,4.18831 -2.08975,1.57777 -3.1036,2.79387 -3.9785,4.77227 -0.78925,1.78452 -1.68555,2.93318 -2.73395,3.50362 -4.0303,2.1929 -7.6441,4.94016 -12.45085,9.46524 -2.8758,2.70727 -6.91795,6.28973 -8.9826,7.96103 -2.06465,1.6713 -5.32715,4.79718 -7.25,6.9464 -4.2469,4.74685 -6.94905,6.54492 -18.2461,12.14137 -8.75,4.33465 -8.75,4.33465 -27.25,4.1535 -10.175,-0.0996 -21.2,-0.2052 -24.5,-0.2346 -3.3,-0.0295 -7.6875,0.10195 -9.75,0.29195 -2.8576,0.2632 -4.82085,0.1156 -8.25,-0.62025 z"
     id="path1355"
     inkscape:connector-curvature="0" />
</svg>
