<?xml version="1.0" encoding="UTF-8" standalone="no"?>
<!-- Created with Inkscape (http://www.inkscape.org/) -->

<svg
   xmlns:dc="http://purl.org/dc/elements/1.1/"
   xmlns:cc="http://creativecommons.org/ns#"
   xmlns:rdf="http://www.w3.org/1999/02/22-rdf-syntax-ns#"
   xmlns:svg="http://www.w3.org/2000/svg"
   xmlns="http://www.w3.org/2000/svg"
   xmlns:sodipodi="http://sodipodi.sourceforge.net/DTD/sodipodi-0.dtd"
   xmlns:inkscape="http://www.inkscape.org/namespaces/inkscape"
   version="1.1"
   id="svg186"
   width="1000"
   height="1000"
   viewBox="0 0 1000 1000"
   sodipodi:docname="Masomeh_bdc_j.svg"
   inkscape:version="0.92.2 5c3e80d, 2017-08-06">
  <metadata
     id="metadata192">
    <rdf:RDF>
      <cc:Work
         rdf:about="">
        <dc:format>image/svg+xml</dc:format>
        <dc:type
           rdf:resource="http://purl.org/dc/dcmitype/StillImage" />
        <dc:title></dc:title>
      </cc:Work>
    </rdf:RDF>
  </metadata>
  <defs
     id="defs190" />
  <sodipodi:namedview
     pagecolor="#ffffff"
     bordercolor="#666666"
     borderopacity="1"
     objecttolerance="10"
     gridtolerance="10"
     guidetolerance="10"
     inkscape:pageopacity="0"
     inkscape:pageshadow="2"
     inkscape:window-width="1027"
     inkscape:window-height="480"
     id="namedview188"
     showgrid="false"
     inkscape:zoom="0.19666667"
     inkscape:cx="304"
     inkscape:cy="600"
     inkscape:window-x="0"
     inkscape:window-y="79"
     inkscape:window-maximized="0"
     inkscape:current-layer="svg186" />
  <path
     style="fill:#000000;stroke-width:0.5"
     d="m 460.57022,775.85139 c -0.80269,-0.4186 -2.4013,-1.62925 -3.55246,-2.69035 -1.37438,-1.26685 -3.08613,-2.21795 -4.98549,-2.77015 -5.16645,-1.5019 -6.20533,-2.6919 -8.77091,-10.04645 -1.76157,-5.04975 -2.96004,-7.08705 -6.41021,-10.89685 -5.31191,-5.8656 -9.18454,-13.53525 -10.08457,-19.9722 -0.27737,-1.9837 -0.97588,-5.03447 -1.55225,-6.77946 -1.56888,-4.74987 -1.18413,-7.80827 1.74431,-13.86553 1.84919,-3.82491 2.48457,-5.8004 2.87416,-8.93611 0.35262,-2.83822 1.07247,-5.27925 2.44044,-8.27565 1.06715,-2.3375 2.6455,-6.05 3.50744,-8.25 0.86194,-2.2 2.76087,-6.25 4.21984,-9 1.45897,-2.75 3.25733,-6.6875 3.99634,-8.75 0.73901,-2.0625 2.32453,-5.4375 3.52337,-7.5 1.19884,-2.0625 2.81143,-5.1 3.58353,-6.75 1.0899,-2.32914 2.81455,-4.39761 7.71243,-9.25 9.95108,-9.85863 14.38083,-13.9324 16.10982,-14.8152 2.94913,-1.50581 12.88294,-8.80865 14.26833,-10.48936 2.18249,-2.64774 9.98328,-8.52484 14.30088,-10.77427 2.18106,-1.13631 4.97566,-2.83704 6.21024,-3.77942 1.23458,-0.94238 3.54752,-2.37108 5.13987,-3.1749 1.59236,-0.80381 4.62694,-2.59198 6.74351,-3.97369 2.28893,-1.49422 5.28532,-2.93043 7.39458,-3.54431 6.87146,-1.99985 7.96006,-2.45438 11.23793,-4.69225 2.58422,-1.7643 4.37832,-2.52332 8.19705,-3.46789 3.67657,-0.9094 5.32092,-1.58869 6.63175,-2.73962 2.41316,-2.11878 3.98582,-2.85245 7.66661,-3.5766 2.11318,-0.41575 3.94963,-1.18725 5.49361,-2.3079 5.19947,-3.77387 6.78991,-4.61394 10.71435,-5.65937 4.4211,-1.17774 9.41064,-3.67727 11.24189,-5.63168 1.36451,-1.45629 2.11306,-3.85148 2.11306,-6.76137 0,-1.20023 0.68225,-3.91357 1.54949,-6.1624 1.39078,-3.60639 2.39675,-8.19221 5.42386,-24.72499 0.50606,-2.76388 1.50696,-6.88294 2.22422,-9.15348 1.09511,-3.46665 1.2533,-4.67506 0.98703,-7.54007 -0.33297,-3.58258 0.38722,-10.03275 1.59456,-14.28123 0.39074,-1.375 0.93098,-4.6375 1.20052,-7.25 0.29328,-2.84276 1.21359,-7.03277 2.29201,-10.43524 1.37413,-4.33546 1.90814,-7.08429 2.24924,-11.57801 0.3128,-4.12089 0.88874,-7.29758 1.91539,-10.56476 1.96029,-6.23835 3.1505,-12.55107 3.56756,-18.92199 0.18902,-2.8875 1.02291,-8.2875 1.85307,-12 1.90939,-8.53875 2.28943,-11.5499 1.66499,-13.19229 -0.67038,-1.76324 -2.35631,-1.70782 -5.3253,0.17506 -1.28594,0.81552 -3.75894,1.9556 -5.49555,2.5335 -1.97118,0.65597 -4.33974,1.99641 -6.30428,3.5678 -1.73075,1.38439 -3.82181,2.85703 -4.64681,3.27255 -0.825,0.41552 -2.53837,1.61804 -3.80749,2.67227 -3.25895,2.70714 -5.83572,3.93171 -9.50744,4.51827 -6.58937,1.05267 -8.0228,1.48535 -10.54266,3.18232 -3.27678,2.20671 -6.89579,3.08054 -9.64513,2.32884 -3.63825,-0.99473 -5.03623,-2.24181 -7.0258,-6.26743 -2.33499,-4.72453 -2.72609,-7.84506 -1.32574,-10.57772 1.29626,-2.52955 7.72497,-8.74824 10.51035,-10.167 5.02627,-2.56017 12.98221,-4.9838 18.17778,-5.53751 6.88857,-0.73415 9.29829,-1.57499 11.69902,-4.08222 3.1338,-3.27281 11.37976,-9.69082 15.07527,-11.7334 1.86551,-1.0311 4.62934,-2.70133 6.14184,-3.71162 4.13754,-2.76371 5.58438,-3.40146 10.20786,-4.49954 7.05185,-1.6748 8.30101,-2.28111 11.79214,-5.72353 4.56655,-4.50283 6.70647,-5.12575 11.43561,-3.32882 7.03748,2.67404 9.29892,7.54923 7.33859,15.82047 -0.39106,1.65 -1.29027,4.3059 -1.99825,5.902 -0.70796,1.5961 -1.51003,4.473 -1.78235,6.39313 -0.27233,1.92013 -1.06471,4.61515 -1.76086,5.98894 -2.94368,5.80906 -6.06818,16.08159 -6.75433,22.20644 -0.52098,4.65044 -2.15207,11.28087 -4.34495,17.66237 -0.88487,2.57503 -1.16605,4.19791 -0.95294,5.5 0.30379,1.85609 -0.59592,6.46137 -2.94942,15.09712 -0.63704,2.3375 -1.3018,6.05 -1.47723,8.25 -0.58366,7.31909 -1.26496,10.40521 -3.08592,13.97832 -1.27353,2.49895 -1.96518,4.75801 -2.45499,8.01857 -0.37507,2.49671 -1.00965,5.4683 -1.41019,6.60354 -0.60137,1.70445 -0.64593,3.40003 -0.2558,9.73182 0.25985,4.21727 0.59747,8.68025 0.75028,9.91775 0.29286,2.37179 -1.40579,7.54394 -6.29446,19.16578 -2.42189,5.75752 -3.21681,11.11919 -1.82037,12.27813 0.4547,0.37737 1.41205,0.5614 2.188,0.4206 0.75877,-0.13768 2.61708,-0.49304 4.12958,-0.78968 1.5125,-0.29665 3.60494,-0.67213 4.64988,-0.83441 1.33671,-0.2076 2.72607,-1.04328 4.68713,-2.81922 3.26881,-2.96024 4.59174,-3.57057 11.35676,-5.23935 2.78093,-0.686 6.82949,-2.04598 8.99681,-3.02219 6.09179,-2.74388 9.35676,-1.93209 11.85981,2.94883 1.74121,3.39532 2.12995,6.51524 1.20727,9.68915 -1.60639,5.52579 -4.60305,8.77194 -10.69691,11.58747 -2.04016,0.94261 -4.76363,2.69997 -6.05216,3.90524 -3.23364,3.02468 -5.32441,3.76931 -11.75859,4.18776 -5.5,0.35771 -5.5,0.35771 -12.75,3.89977 -6.90408,3.37306 -7.42159,3.7316 -10.84628,7.51446 -7.53187,8.31962 -8.10685,9.787 -8.66266,22.10766 -0.25073,5.55792 -0.8149,11.24572 -1.41345,14.25 -0.54789,2.75 -1.12685,6.43795 -1.28658,8.19544 -0.18632,2.04996 -0.948,4.72644 -2.12481,7.46633 -1.42155,3.30972 -1.91583,5.25412 -2.19628,8.6399 -0.19905,2.40296 -0.49416,4.58301 -0.6558,4.84455 -0.16164,0.26153 -0.64443,2.81063 -1.07288,5.66465 -0.52179,3.47581 -1.29839,6.31634 -2.35211,8.60311 -1.51439,3.28651 -1.55102,3.521 -0.98114,6.2801 0.84673,4.09944 0.74585,6.00368 -0.60734,11.46531 -0.65962,2.66233 -1.56912,6.55806 -2.0211,8.65716 -0.55113,2.55961 -1.50577,4.94735 -2.89862,7.25 -1.47891,2.44494 -2.33716,4.65705 -2.98102,7.68345 -0.7036,3.3072 -1.38951,4.97097 -3.09199,7.5 -2.76787,4.1117 -3.08102,4.73349 -4.50796,8.95117 -1.37647,4.0685 -2.29764,5.44659 -7.20665,10.78138 -2.01559,2.19045 -4.426,5.34045 -5.35648,7 -2.93336,5.2319 -8.95826,11.60705 -14.76911,15.6277 -3.73848,2.58675 -5.70878,4.33515 -6.94977,6.16715 -2.12226,3.13305 -2.64665,3.50485 -10.76797,7.63515 -5.13625,2.61215 -7.51689,3.51305 -11.34679,4.2939 -2.98667,0.60895 -6.47725,1.76635 -9.0952,3.01585 -5.22785,2.49515 -8.3495,2.7087 -11.82707,0.809 -6.48705,-3.54365 -6.06862,-3.44815 -13.43143,-3.06625 -5.80177,0.30095 -7.30001,0.56195 -10.65688,1.8565 -2.1483,0.82845 -5.19675,1.7007 -6.77432,1.93825 -1.57757,0.2376 -3.65433,0.6701 -4.61501,0.9611 -2.49704,0.7564 -6.01385,0.6478 -7.71275,-0.23815 z m 46.20945,-28.24985 c 4.5375,-0.2818 9.51947,-0.8324 11.07105,-1.2235 3.6408,-0.9177 12.70236,-5.6747 16.81675,-8.8282 1.7664,-1.3539 4.07465,-2.9019 5.12942,-3.44 2.02961,-1.0354 9.19487,-7.57466 10.08603,-9.20481 0.28973,-0.52999 0.83737,-2.295 1.21698,-3.92224 0.39188,-1.67984 1.84502,-4.93723 3.36202,-7.53638 5.55431,-9.51653 6.33452,-10.95391 7.99195,-14.72358 2.63509,-5.99327 4.73586,-13.96599 8.32756,-31.60419 0.53199,-2.6125 1.18577,-7.61483 1.45285,-11.11627 0.42429,-5.56253 0.78336,-7.23529 2.84413,-13.24949 2.11437,-6.17065 2.39808,-7.5303 2.74056,-13.13373 0.2226,-3.6422 0.81573,-7.81117 1.42135,-9.99046 0.77714,-2.79641 1.03863,-5.19313 1.0365,-9.5 -0.003,-5.20209 0.15167,-6.19823 1.59244,-10.28354 0.88157,-2.4997 1.44911,-4.90446 1.26855,-5.375 -0.51813,-1.35024 -2.50975,-0.99537 -4.64314,0.82731 -1.08075,0.92334 -3.2025,2.47393 -4.715,3.44574 -1.5125,0.9718 -4.06261,2.92139 -5.66693,4.33241 -1.6043,1.41102 -3.8543,3.03395 -5,3.60651 -1.14568,0.57258 -3.35373,2.02682 -4.90677,3.23165 -4.10628,3.18563 -4.80484,3.37018 -12.9263,3.41493 -7.25,0.0399 -7.25,0.0399 -13.5,2.93648 -3.4375,1.59309 -7.15,3.51984 -8.25,4.28166 -1.1,0.76181 -4.34737,2.70063 -7.21638,4.30847 -2.86901,1.60786 -6.51172,4.1142 -8.09491,5.56968 -1.58318,1.45546 -4.07331,3.24805 -5.53361,3.98353 -2.50945,1.26387 -4.20658,2.72958 -11.61315,10.02964 -1.71287,1.68824 -4.02828,3.5358 -5.14536,4.10569 -2.87702,1.46775 -4.34669,3.0866 -9.90806,10.91378 -2.70073,3.80105 -5.74061,7.92351 -6.75527,9.16101 -2.38248,2.9057 -3.12238,4.39248 -5.5543,11.16102 -1.10446,3.07394 -2.42062,6.71398 -2.9248,8.08898 -0.50417,1.375 -1.27078,5.25308 -1.70356,8.61796 -0.43278,3.36487 -1.23996,7.40708 -1.79373,8.98267 -1.41398,4.02302 -1.394,12.26026 0.0392,16.14937 0.55737,1.5125 1.53045,4.33374 2.1624,6.26945 0.63194,1.93565 1.46274,4.11825 1.84621,4.8501 0.91954,1.75505 9.33799,10.3041 10.94124,11.111 1.37563,0.69235 11.00713,3.60225 13.0041,3.92885 2.52072,0.41225 13.46869,0.32235 21.5,-0.1765 z m 89.83617,-427.67506 c -7.27538,-2.02836 -10.38446,-7.50889 -10.5278,-18.55784 -0.0528,-4.07231 0.0908,-4.81473 1.51065,-7.8115 3.5544,-7.50177 7.38156,-12.21242 12.59917,-15.50764 1.82113,-1.15014 5.47318,-4.16011 8.11567,-6.68881 5.92678,-5.67153 7.67443,-6.46284 13.57911,-6.14842 4.77464,0.25425 8.36167,1.74908 11.5544,4.8151 2.83723,2.72463 3.83263,4.99255 3.83263,8.73228 0,4.31215 -1.13879,7.44869 -4.21492,11.60899 -1.42334,1.925 -3.17931,4.42806 -3.90213,5.56236 -0.72283,1.1343 -2.81298,3.3843 -4.6448,5 -1.83181,1.6157 -4.55366,4.5606 -6.04854,6.54422 -2.77603,3.6836 -9.95267,10.21613 -12.89872,11.74102 -2.32232,1.20206 -6.11241,1.50267 -8.95472,0.71024 z"
     id="path196"
     inkscape:connector-curvature="0" />
</svg>
