<?xml version="1.0" encoding="UTF-8" standalone="no"?>
<!-- Created with Inkscape (http://www.inkscape.org/) -->

<svg
   xmlns:dc="http://purl.org/dc/elements/1.1/"
   xmlns:cc="http://creativecommons.org/ns#"
   xmlns:rdf="http://www.w3.org/1999/02/22-rdf-syntax-ns#"
   xmlns:svg="http://www.w3.org/2000/svg"
   xmlns="http://www.w3.org/2000/svg"
   xmlns:sodipodi="http://sodipodi.sourceforge.net/DTD/sodipodi-0.dtd"
   xmlns:inkscape="http://www.inkscape.org/namespaces/inkscape"
   version="1.1"
   id="svg125"
   width="1000"
   height="1000"
   viewBox="0 0 1000 1000"
   sodipodi:docname="Masomeh_2.svg"
   inkscape:version="0.92.2 5c3e80d, 2017-08-06">
  <metadata
     id="metadata131">
    <rdf:RDF>
      <cc:Work
         rdf:about="">
        <dc:format>image/svg+xml</dc:format>
        <dc:type
           rdf:resource="http://purl.org/dc/dcmitype/StillImage" />
        <dc:title></dc:title>
      </cc:Work>
    </rdf:RDF>
  </metadata>
  <defs
     id="defs129" />
  <sodipodi:namedview
     pagecolor="#ffffff"
     bordercolor="#666666"
     borderopacity="1"
     objecttolerance="10"
     gridtolerance="10"
     guidetolerance="10"
     inkscape:pageopacity="0"
     inkscape:pageshadow="2"
     inkscape:window-width="1034"
     inkscape:window-height="480"
     id="namedview127"
     showgrid="false"
     inkscape:zoom="0.21356909"
     inkscape:cx="463.62803"
     inkscape:cy="600"
     inkscape:window-x="0"
     inkscape:window-y="0"
     inkscape:window-maximized="0"
     inkscape:current-layer="svg125" />
  <path
     style="fill:#000000;stroke-width:0.5"
     d="m 534.02897,764.73608 c -7.90064,-1.50345 -9.14905,-2.0365 -23.4748,-10.02365 -6.3236,-3.52565 -8.94625,-5.36715 -14.25,-10.0055 -1.7875,-1.56325 -4.72253,-3.61725 -6.52228,-4.56445 -3.35102,-1.76355 -4.63635,-2.81335 -8.36019,-6.8282 -1.17285,-1.2645 -3.87285,-3.30499 -6,-4.53443 -5.46503,-3.15865 -8.0341,-5.62095 -10.59275,-10.15253 -2.52919,-4.47941 -5.64509,-8.71283 -8.09988,-11.00492 -3.24861,-3.03329 -14.57107,-11.29961 -24.31582,-17.75255 -5.42249,-3.59076 -11.32158,-7.71657 -13.10908,-9.16848 -6.79887,-5.52243 -18.78555,-12.76509 -21.12634,-12.76509 -1.16648,0 -2.8126,1.40239 -9.27099,7.89832 -8.53569,8.58532 -15.00392,13.92508 -19.18863,15.84089 -2.77954,1.27252 -15.49865,3.76079 -19.22374,3.76079 -4.8262,0 -11.21829,-3.02838 -13.67531,-6.47895 -1.95656,-2.74773 -1.84902,-4.58555 0.73352,-12.53544 4.61786,-14.21529 6.66017,-18.42563 12.66623,-26.11228 1.8344,-2.34767 4.67502,-6.11047 6.31251,-8.36177 2.2469,-3.08914 4.27071,-5.09239 8.25,-8.16618 7.07457,-5.46471 9.01807,-6.43392 17.7029,-8.82828 4.08659,-1.12665 8.13658,-2.40652 9,-2.84415 0.86342,-0.43763 3.15764,-2.28682 5.09826,-4.10932 1.94063,-1.8225 4.68815,-4.27484 6.10559,-5.44964 1.41744,-1.17481 3.40407,-3.3818 4.41472,-4.9044 1.1112,-1.67411 3.34229,-3.9206 5.6444,-5.68338 4.82913,-3.69777 12.60995,-11.66395 13.94402,-14.27621 2.44262,-4.78292 3.83471,-6.08687 9.26892,-8.68205 6.09609,-2.91127 7.98593,-4.78499 14.40658,-14.28362 2.24342,-3.31888 5.61453,-7.60933 7.49136,-9.53433 2.42085,-2.48299 4.21237,-4.99414 6.16544,-8.64204 1.51417,-2.82812 4.70298,-7.8878 7.08626,-11.24372 2.38328,-3.35594 5.29881,-7.84733 6.47896,-9.98089 1.18015,-2.13356 3.14784,-5.17388 4.37265,-6.75628 3.00038,-3.87635 2.88001,-3.60262 7.84637,-17.84271 2.40431,-6.89389 5.2778,-14.55936 6.38554,-17.03436 2.70731,-6.04889 5.30792,-14.32065 6.85986,-21.8191 1.68021,-8.11824 2.6373,-26.34458 1.74237,-33.1809 -1.14465,-8.74397 -2.79615,-14.25 -4.2742,-14.25 -0.45857,0 -2.14913,1.33179 -3.75679,2.95954 -1.60766,1.62774 -6.31992,5.73399 -10.47168,9.125 -4.15176,3.391 -9.24904,7.55575 -11.32729,9.25499 -4.24774,3.47309 -10.9872,6.94893 -19.66149,10.1403 -5.11996,1.88369 -6.13381,2.09618 -9.25277,1.93928 -4.37493,-0.22007 -8.11237,-1.99324 -11.67839,-5.54061 -4.14418,-4.12251 -4.27412,-4.61015 -4.35028,-16.32724 -0.0663,-10.19874 -0.0663,-10.19874 3.05048,-16.5 3.91409,-7.9132 6.32747,-14.37088 8.27162,-22.13305 1.62025,-6.46903 2.65922,-8.87724 6.17375,-14.31015 1.21527,-1.87863 3.11487,-5.5155 4.22133,-8.08194 2.90864,-6.74665 6.24262,-11.98691 10.94211,-17.19848 2.27031,-2.5177 5.73382,-6.71514 7.69669,-9.32764 1.96286,-2.6125 4.89864,-6.11822 6.52396,-7.7905 1.62531,-1.67228 4.13544,-4.70978 5.57807,-6.75 1.65855,-2.34559 4.19824,-4.99638 6.90734,-7.2095 5.44015,-4.44416 11.86912,-10.69866 14.49293,-14.0996 2.77409,-3.59574 4.95834,-4.87492 8.243,-4.82744 3.36635,0.0487 6.50129,1.84762 9.22547,5.29398 2.74374,3.47108 3.76344,5.6005 5.15065,10.75598 0.64777,2.40739 2.0904,6.40208 3.20584,8.87708 1.11544,2.475 2.547,6.27121 3.18125,8.43602 0.63425,2.16481 1.44184,4.04679 1.79464,4.18217 0.3528,0.13538 1.83719,-0.99832 3.29864,-2.51933 2.96992,-3.09097 5.63724,-4.16638 9.00003,-3.62865 1.93071,0.30873 4.4401,1.73961 5.7197,3.26143 1.19331,1.4192 6.08109,9.01341 7.15101,11.11063 1.31117,2.57011 1.42686,6.86925 0.25906,9.62704 -0.48492,1.14515 -2.67431,3.7608 -5.23146,6.25 -5.83507,5.68002 -7.10311,8.23736 -7.67004,15.46859 -0.65513,8.35638 -0.53948,13.03585 0.42196,17.07332 0.63514,2.66722 0.88894,5.74504 0.8855,10.73878 -0.005,7.73152 -1.03744,30.13688 -1.49713,32.5 -0.16048,0.825 -1.05198,4.9875 -1.98109,9.25 -0.92911,4.2625 -2.04923,10.45 -2.48914,13.75 -0.99242,7.44456 -1.97594,11.04727 -5.52812,20.25 -1.53915,3.9875 -3.47157,9.1351 -4.29428,11.43912 -0.82272,2.30401 -2.59298,5.93973 -3.93392,8.07937 -3.86876,6.17309 -9.71681,17.90509 -11.22045,22.50977 -1.56783,4.80129 -3.39166,8.31194 -6.71271,12.92117 -1.26789,1.75969 -3.88025,5.62684 -5.80525,8.59366 -6.98004,10.75768 -11.48408,17.27658 -14.30682,20.70691 -1.58404,1.925 -5.73263,7.2125 -9.2191,11.75 -3.48646,4.5375 -8.30481,10.275 -10.70745,12.75 -2.40263,2.475 -5.94919,6.4125 -7.88124,8.75 -1.93205,2.3375 -5.70151,6.6125 -8.37658,9.5 -2.67507,2.8875 -6.10962,6.88752 -7.63234,8.88892 -1.52272,2.00141 -4.54481,5.10843 -6.71576,6.9045 -4.60649,3.81104 -6.91071,6.75278 -6.91071,8.82275 0,1.14839 0.61839,2.02612 2.85336,4.04999 3.59735,3.25756 8.719,8.34141 11.67102,11.5849 2.46504,2.70842 11.49276,11.06315 14.73008,13.632 1.10245,0.87482 4.09754,2.48517 6.65576,3.57857 2.62828,1.12334 6.75823,3.49498 9.49554,5.45286 2.66433,1.90567 6.49924,4.51825 8.52201,5.80573 2.36698,1.50656 6.41328,5.08375 11.35292,10.03671 6.22899,6.24578 8.92759,8.53636 14.32223,12.15675 3.65589,2.4535 8.10958,5.63829 9.89708,7.07729 1.7875,1.43901 5.04483,3.52042 7.23851,4.62536 2.59383,1.30649 5.1484,3.12875 7.30555,5.21131 3.71739,3.58883 5.51259,4.37868 7.78265,3.4242 1.72395,-0.72487 12.46116,-10.48004 17.06443,-15.5037 1.90802,-2.08225 3.9273,-5.02034 5.20191,-7.56882 2.75262,-5.50367 4.2834,-7.26422 8.48817,-9.76223 2.49828,-1.48419 4.29288,-3.066 6.22309,-5.48517 1.49183,-1.86973 4.32115,-4.7841 6.28738,-6.47639 1.96624,-1.69228 4.11756,-3.72171 4.78073,-4.50984 0.66317,-0.78813 3.11179,-2.94346 5.44139,-4.78962 2.32959,-1.84617 5.46401,-4.877 6.96536,-6.7352 1.50135,-1.85819 3.72385,-4.20952 4.9389,-5.22518 1.21504,-1.01565 2.95679,-2.86765 3.87055,-4.11556 0.91376,-1.24791 3.10445,-4.1952 4.8682,-6.54953 2.87238,-3.83418 12.04014,-16.96136 20.97277,-30.0306 1.7856,-2.6125 4.08158,-5.76346 5.10217,-7.00213 1.02059,-1.23868 2.70393,-3.71368 3.74076,-5.5 3.36974,-5.80568 6.60462,-8.00042 11.78549,-7.996 4.56885,0.004 7.51474,3.51424 6.40566,7.63304 -0.31076,1.15409 -1.11214,3.17803 -1.78084,4.49765 -0.6687,1.31962 -1.79949,4.02338 -2.51285,6.00837 -0.71337,1.98499 -2.38915,5.79018 -3.72397,8.45598 -1.33481,2.66579 -2.86,6.40967 -3.3893,8.31973 -1.16598,4.20757 -1.65445,5.17307 -4.11667,8.13703 -3.06375,3.68804 -9.13435,15.08976 -12.2173,22.94633 -3.64271,9.28309 -3.71911,9.42434 -7.13959,13.1987 -1.58458,1.74852 -3.90399,4.95036 -5.15426,7.11521 -6.23652,10.7986 -7.71605,13.11008 -9.97017,15.57644 -1.34296,1.46941 -3.59095,4.33405 -4.99555,6.36587 -1.40459,2.03182 -3.31759,4.27679 -4.2511,4.98881 -0.93351,0.71202 -3.08883,3.14192 -4.7896,5.39977 -1.70077,2.25786 -4.15757,5.25022 -5.45955,6.64968 -1.30198,1.39947 -3.09043,3.98697 -3.97432,5.75 -0.8839,1.76304 -2.78463,4.67106 -4.22386,6.46227 -2.94465,3.66482 -3.75966,5.11215 -4.97764,8.8395 -0.53768,1.64545 -1.79849,3.66275 -3.44274,5.50835 -1.4269,1.6016 -3.48697,4.0036 -4.57794,5.3377 -1.09097,1.33415 -4.91597,4.65135 -8.5,7.37165 -3.58403,2.72025 -7.58332,5.82685 -8.88731,6.90355 -3.91576,3.23315 -7.0396,4.14365 -14.87911,4.3368 -4.25753,0.1049 -8.0517,-0.0814 -10.2752,-0.5045 z M 475.42939,400.38227 c 4.09423,-1.72666 5.54156,-2.66796 9.03486,-5.87601 2.28781,-2.10098 5.63044,-5.09975 7.42808,-6.66392 4.30075,-3.7422 5.11108,-5.48205 5.07941,-10.90606 -0.0209,-3.57796 -0.35236,-5.26189 -2.09619,-10.6492 -1.13926,-3.51956 -2.07138,-6.90997 -2.07138,-7.53425 0,-1.85965 -1.45659,-6.1929 -2.17427,-6.4683 -1.03185,-0.39596 -1.37796,-0.005 -5.65836,6.40175 -11.85969,17.74939 -11.02387,16.06441 -12.64912,25.5 -0.56842,3.3 -1.85831,8.37528 -2.86642,11.27841 -1.01621,2.92643 -1.68819,5.65564 -1.50808,6.125 0.49932,1.3012 2.17385,1.03095 7.48147,-1.20742 z"
     id="path135"
     inkscape:connector-curvature="0" />
</svg>
