<?xml version="1.0" encoding="UTF-8" standalone="no"?>
<!-- Created with Inkscape (http://www.inkscape.org/) -->

<svg
   xmlns:dc="http://purl.org/dc/elements/1.1/"
   xmlns:cc="http://creativecommons.org/ns#"
   xmlns:rdf="http://www.w3.org/1999/02/22-rdf-syntax-ns#"
   xmlns:svg="http://www.w3.org/2000/svg"
   xmlns="http://www.w3.org/2000/svg"
   xmlns:sodipodi="http://sodipodi.sourceforge.net/DTD/sodipodi-0.dtd"
   xmlns:inkscape="http://www.inkscape.org/namespaces/inkscape"
   version="1.1"
   id="svg260"
   width="1000"
   height="1000"
   viewBox="0 0 1000 1000"
   sodipodi:docname="Masomeh_rigolo.svg"
   inkscape:version="0.92.2 5c3e80d, 2017-08-06">
  <metadata
     id="metadata266">
    <rdf:RDF>
      <cc:Work
         rdf:about="">
        <dc:format>image/svg+xml</dc:format>
        <dc:type
           rdf:resource="http://purl.org/dc/dcmitype/StillImage" />
        <dc:title></dc:title>
      </cc:Work>
    </rdf:RDF>
  </metadata>
  <defs
     id="defs264" />
  <sodipodi:namedview
     pagecolor="#ffffff"
     bordercolor="#666666"
     borderopacity="1"
     objecttolerance="10"
     gridtolerance="10"
     guidetolerance="10"
     inkscape:pageopacity="0"
     inkscape:pageshadow="2"
     inkscape:window-width="1027"
     inkscape:window-height="480"
     id="namedview262"
     showgrid="false"
     inkscape:zoom="0.19666667"
     inkscape:cx="385.5"
     inkscape:cy="600"
     inkscape:window-x="10"
     inkscape:window-y="121"
     inkscape:window-maximized="0"
     inkscape:current-layer="svg260" />
  <path
     style="fill:#000000;stroke-width:0.5"
     d="m 432.08475,829.69662 c -2.0625,-0.0809 -7.20995,-0.5061 -11.43877,-0.945 -4.58697,-0.476 -9.0246,-0.66435 -11,-0.4668 -3.88576,0.38855 -5.47226,-0.094 -8.09258,-2.4613 -1.845,-1.66685 -2.60593,-1.93965 -7.02872,-2.5199 -1.27053,-0.16665 -3.36304,-0.97085 -4.65002,-1.787 -1.28698,-0.8162 -3.73495,-1.8662 -5.43993,-2.33335 -2.60809,-0.7146 -3.53634,-1.2997 -5.84998,-3.68725 -1.725,-1.78005 -4.0549,-3.49075 -6.25093,-4.58955 -2.6805,-1.3412 -5.0543,-3.2467 -10.12942,-8.13105 -3.64566,-3.5086 -7.03825,-7.07765 -7.53908,-7.93115 -0.50084,-0.85355 -1.8541,-3.1491 -3.00725,-5.10125 -1.44439,-2.4452 -2.25994,-4.54505 -2.62155,-6.75 -0.28871,-1.76035 -0.94771,-4.32565 -1.46445,-5.70065 -0.79566,-2.11715 -0.97294,-4.3374 -1.15766,-14.498 -0.19807,-10.89506 -0.13132,-12.21818 0.72611,-14.3935 1.22813,-3.11577 1.19757,-3.68428 -0.3836,-7.13803 -1.7642,-3.85351 -1.68275,-6.23754 0.35073,-10.26585 1.16269,-2.30327 1.74111,-4.32242 2.06328,-7.20256 0.33726,-3.0151 0.8822,-4.84181 2.20971,-7.40718 2.00394,-3.87258 3.18135,-9.75061 3.19538,-15.95252 0.008,-3.44867 0.17189,-4.11126 1.54777,-6.25 1.49776,-2.3282 1.5307,-2.50635 1.22822,-6.64236 -0.25893,-3.54054 -0.10989,-5.04293 0.8928,-9 0.66199,-2.6125 1.35889,-5.875 1.54865,-7.25 0.18978,-1.375 0.54824,-3.175 0.79659,-4 0.24835,-0.825 0.81908,-4.41221 1.26828,-7.97158 0.98973,-7.84236 2.27455,-13.06785 3.91074,-15.9053 1.83984,-3.19062 2.83837,-6.6289 3.37555,-11.62312 1.17657,-10.93877 3.23238,-13.29001 14.04679,-16.06532 4.40443,-1.13031 6.16885,-0.44249 10.83228,4.22277 6.82211,6.82478 7.90732,10.5183 5.40664,18.40154 -1.25977,3.97136 -1.27219,4.14948 -0.57508,8.25 0.39188,2.30505 1.24801,5.65351 1.90253,7.44101 2.02301,5.52488 4.72883,14.15508 5.06275,16.1476 0.40067,2.39083 1.4563,2.84095 7.53081,3.21114 3.36807,0.20525 5.23124,0.0675 7.32695,-0.54174 1.5457,-0.44936 3.86294,-0.817 5.14943,-0.817 1.28648,0 3.95185,-0.54925 5.92304,-1.22055 1.97119,-0.67129 4.98707,-1.46812 6.70196,-1.77072 1.71488,-0.3026 5.42738,-1.30534 8.25,-2.2283 2.82261,-0.92297 6.48203,-2.05313 8.13203,-2.51148 5.72491,-1.59032 15.73632,-9.3018 18.07969,-13.92622 0.70758,-1.39633 2.45096,-3.78843 3.87419,-5.31576 1.42323,-1.52733 3.57665,-4.12697 4.78539,-5.77697 2.93093,-4.00089 6.54477,-8.29376 10.31233,-12.25 3.90033,-4.09566 13.21187,-17.0853 14.76517,-20.59747 0.64521,-1.45889 1.93956,-4.11503 2.87632,-5.90253 0.93677,-1.7875 2.97544,-5.725 4.53039,-8.75 1.55496,-3.025 3.42258,-6.35752 4.15027,-7.4056 0.72769,-1.04808 1.66359,-3.07308 2.07978,-4.5 1.25604,-4.30645 4.73034,-12.46539 6.21469,-14.5944 0.76692,-1.1 2.68547,-4.28455 4.26346,-7.07678 2.68284,-4.74729 2.90027,-5.38008 3.35017,-9.75 0.80767,-7.84511 2.79564,-13.85884 5.73684,-17.35426 1.37665,-1.63605 3.23213,-7.89316 4.46853,-15.06896 0.35537,-2.0625 1.33125,-5.1 2.16859,-6.75 1.9661,-3.87418 3.59419,-10.15257 3.59419,-13.86023 0,-1.60704 0.35107,-3.75841 0.78014,-4.78083 2.04501,-4.87286 0.47053,-8.27097 -5.78014,-12.47501 -1.50986,-1.01549 -2.81979,-2.52784 -3.98212,-4.59745 -3.37808,-6.01491 -7.73901,-7.41554 -12.87531,-4.13528 -1.31591,0.8404 -3.0128,1.6812 -3.77086,1.86843 -3.71384,0.91729 -8.29143,-1.99025 -9.27928,-5.89392 -0.77823,-3.07526 -1.14399,-30.83978 -0.56813,-43.12571 0.72194,-15.40268 1.56084,-20.50523 4.85004,-29.5 2.53272,-6.92607 2.77403,-7.96587 3.15341,-13.58795 0.53587,-7.94103 1.9628,-11.75114 6.93104,-18.50682 0.56838,-0.77287 2.46168,-4.68079 4.20731,-8.68425 1.74564,-4.00346 4.29789,-8.95346 5.67167,-11 1.37377,-2.04654 3.14619,-4.84598 3.93869,-6.22098 0.79251,-1.375 2.68576,-4.19193 4.20723,-6.25984 1.52147,-2.06792 3.65468,-5.28524 4.74048,-7.14963 1.47142,-2.52652 3.7761,-5.0868 9.04991,-10.05359 9.30199,-8.76047 15.51187,-12.92033 26.22592,-17.56821 4.5375,-1.96842 9.69689,-4.34165 11.4653,-5.27384 3.21531,-1.69489 3.21531,-1.69489 12.00502,-1.85864 10.76718,-0.20059 13.29836,0.30134 21.13707,4.19142 9.03718,4.48482 13.64538,8.43294 18.86435,16.16219 1.60067,2.37058 4.28222,5.98566 5.959,8.03352 1.67678,2.04786 3.42962,4.52286 3.89521,5.5 1.74525,3.66277 1.9517,14.07257 0.74423,37.52662 -0.397,7.7113 -0.73492,10.24807 -2.03142,15.25 -1.20484,4.6483 -1.6631,7.80226 -2.03416,14 -0.54145,9.04361 -1.53965,15.49101 -3.13515,20.25 -0.84014,2.50592 -1.09302,4.46208 -1.10453,8.54416 -0.0149,5.29133 -0.0162,5.29668 -2.35889,10 -1.28918,2.58821 -3.44079,5.99627 -4.78136,7.57345 -1.48165,1.74318 -2.76373,3.89981 -3.26966,5.5 -0.45774,1.44781 -1.7201,3.70472 -2.80523,5.01535 -1.28627,1.55357 -2.44143,3.78965 -3.31894,6.42459 -0.90971,2.7316 -2.16087,5.11824 -3.86002,7.36312 -1.38272,1.82682 -2.84751,4.30021 -3.2551,5.49643 -0.40759,1.1962 -1.48552,2.91937 -2.3954,3.82925 -1.60975,1.60975 -2.71925,2.11781 -7.07259,3.23867 -3.16904,0.81595 -5.06483,2.73746 -7.14692,7.24389 -1.02181,2.2116 -2.48028,4.63693 -3.24105,5.38963 -1.4343,1.41909 -4.00072,2.37385 -6.39396,2.37867 -0.76131,0.002 -2.51768,0.59546 -3.90303,1.31985 -2.14402,1.12107 -2.93119,1.2745 -5.28993,1.03105 -3.58069,-0.36956 -4.42306,-0.01 -8.39083,3.58622 -1.87065,1.69526 -3.94516,3.11466 -4.7907,3.27785 -0.82022,0.1583 -2.13806,0.41199 -2.92852,0.56375 -2.05068,0.39372 -3.2748,1.9791 -4.55892,5.90434 -0.92223,2.81903 -1.06251,4.03595 -0.78725,6.82936 0.37551,3.81085 -0.0935,5.31989 -2.73355,8.79596 -1.68017,2.2122 -1.64882,2.0478 -3.80234,19.93701 -0.83456,6.93267 -0.86755,7.04193 -3.84918,12.75 -1.65408,3.16657 -3.83152,6.80041 -4.83878,8.0752 -1.31464,1.66383 -2.36464,3.9916 -3.72136,8.25 -1.04806,3.28958 -3.20755,8.41736 -4.84765,11.51094 -1.62672,3.06832 -3.60849,7.65463 -4.40394,10.19182 -0.81111,2.58715 -2.17608,5.62677 -3.10804,6.92126 -1.492,2.07236 -1.68934,2.749 -1.9315,6.62294 -0.34039,5.44559 -1.58616,7.34729 -6.16821,9.41599 -1.68414,0.76035 -3.4573,1.82634 -3.94036,2.36886 -0.48306,0.54251 -1.76203,3.05407 -2.84215,5.58122 -1.08013,2.52716 -2.40438,5.32031 -2.94278,6.207 -0.53839,0.88669 -1.14313,2.39967 -1.34386,3.36217 -0.54501,2.61334 -1.9348,5.04155 -4.00646,7 -2.84022,2.68499 -8.19249,9.44772 -9.48236,11.9812 -1.3283,2.60895 -2.63954,3.8997 -5.62223,5.53437 -1.16497,0.63847 -2.73883,2.07741 -3.49747,3.19764 -3.86403,5.70578 -6.84284,9.38695 -8.99652,11.11776 -2.87982,2.31438 -3.36821,2.8703 -4.6708,5.31656 -1.89507,3.55896 -4.51342,5.91492 -8.73222,7.85717 -2.36219,1.0875 -4.72935,2.61082 -5.75,3.70025 -2.65661,2.83562 -4.16809,3.54874 -11.73486,5.53659 -3.85,1.01142 -9.7,2.91739 -13,4.23548 -3.59703,1.43673 -7.90236,2.73234 -10.75,3.23502 -2.6125,0.46117 -6.1,1.25802 -7.75,1.77078 -1.65,0.51276 -5.35636,1.07764 -8.23636,1.25529 -4.36797,0.26944 -5.94342,0.15055 -9.5,-0.71692 -2.345,-0.57196 -5.55445,-1.27605 -7.13209,-1.56465 -1.75729,-0.32146 -3.791,-1.15595 -5.25,-2.15424 -1.30986,-0.89623 -3.50655,-2.27166 -4.88155,-3.05651 -1.375,-0.78485 -3.57539,-2.41394 -4.88974,-3.62022 -3.70768,-3.40278 -4.06222,-3.04697 -4.36408,4.37973 -0.14553,3.58059 -0.51882,6.71062 -0.875,7.33683 -0.34698,0.61003 -0.6238,2.81715 -0.62712,5 -0.003,2.14933 -0.33809,5.14537 -0.74406,6.65787 -0.40597,1.5125 -0.74471,3.875 -0.75275,5.25 -0.008,1.375 -0.36671,4.075 -0.79705,6 -0.43034,1.925 -1.09477,5.04283 -1.4765,6.92852 -0.45881,2.26639 -1.43643,4.67595 -2.88419,7.10869 -2.10168,3.53155 -2.20569,3.89787 -2.5757,9.07148 -0.21207,2.96522 -0.40423,9.23911 -0.42701,13.94191 -0.0414,8.55065 -0.0414,8.55065 2.00994,12 1.22109,2.0533 2.18427,4.40205 2.37976,5.8032 0.23575,1.68965 0.86812,3.0069 2.24124,4.66855 1.05206,1.27315 2.534,3.5425 3.29321,5.04305 2.23732,4.422 6.50704,7.25675 13.52286,8.97805 1.9064,0.4677 4.81619,1.4687 6.46619,2.2244 2.68577,1.2301 6.37384,2.1135 11.84615,2.83745 1.06279,0.1406 2.94826,-0.12185 4.44355,-0.6185 1.92301,-0.6387 3.42343,-0.78145 5.77885,-0.54975 1.7498,0.1721 4.62029,0.45435 6.37887,0.6272 2.18959,0.21515 4.59301,0.036 7.625,-0.5676 3.52649,-0.7023 5.73297,-0.81635 10.84173,-0.56025 5.97469,0.29945 6.71121,0.23245 10.75,-0.97785 8.75612,-2.624 19.63897,-8.3478 23.38328,-12.29835 3.28987,-3.47105 6.65287,-8.17855 8.05849,-11.2802 0.71786,-1.584 2.3226,-4.31625 3.56609,-6.07165 1.38579,-1.9563 2.95709,-5.14955 4.05955,-8.25 1.14534,-3.22105 3.04652,-7.04465 5.23423,-10.52688 1.88957,-3.00768 5.2348,-8.97018 7.43385,-13.25 2.19904,-4.27981 4.66248,-8.75471 5.47431,-9.94423 2.50853,-3.67559 6.17538,-5.22607 9.64863,-4.07979 2.17381,0.71742 10.42697,7.9612 11.55427,10.14115 1.41258,2.73164 1.00617,7.18385 -1.08943,11.93476 -1.01084,2.29165 -2.40416,5.74164 -3.09627,7.66664 -1.88295,5.2371 -12.24624,24.6507 -16.14791,30.25 -0.47906,0.6875 -2.34648,4.199 -4.14981,7.80335 -3.24442,6.48465 -4.6959,8.319 -7.88955,9.9705 -0.78443,0.40565 -3.01728,2.0701 -4.96188,3.6988 -1.94461,1.62875 -4.59458,3.3449 -5.88883,3.81375 -5.05513,1.8312 -7.46455,3.1421 -10.23986,5.57125 -2.29645,2.01005 -3.55531,2.6946 -6.15677,3.34805 -1.79856,0.4518 -4.36776,1.5765 -5.70934,2.49935 -1.60882,1.10665 -3.47985,1.8612 -5.49587,2.2163 -2.02919,0.35745 -3.6776,1.02505 -4.90398,1.9862 -2.96704,2.32525 -3.80577,2.59245 -8.13777,2.59245 -3.18846,0 -5.1527,0.33525 -8.78884,1.5 -3.31333,1.06135 -5.5217,1.47095 -7.55172,1.40065 -1.57796,-0.0547 -4.55652,-0.1655 -6.61902,-0.2464 z M 589.05733,468.54075 c 1.25259,-0.75477 4.46961,-2.21081 7.14896,-3.23566 5.80054,-2.21871 7.02901,-3.10636 8.60603,-6.21846 1.34923,-2.66258 1.97857,-3.27696 5.16714,-5.04426 1.86669,-1.03463 2.95304,-2.3342 6.30527,-7.54282 2.22751,-3.46105 4.64887,-7.06105 5.38079,-8 0.73193,-0.93895 2.03512,-3.88177 2.89598,-6.5396 1.33984,-4.1366 1.89171,-5.14452 3.83275,-7 3.05394,-2.91932 6.19259,-9.15273 6.71022,-13.32663 0.29549,-2.3826 0.87675,-3.95656 2.31249,-6.26177 1.91779,-3.07918 1.91779,-3.07918 1.92116,-14.07918 0.002,-7.01719 0.21812,-11.72415 0.59647,-13 0.3262,-1.1 0.85953,-7.4 1.18518,-14 0.47587,-9.64467 0.46499,-12.96144 -0.0555,-16.89837 -0.47462,-3.5903 -0.51982,-6.26071 -0.16929,-10 0.7408,-7.90231 -0.22102,-12.23892 -4.20929,-18.9788 -2.3177,-3.91674 -6.22593,-7.627 -9.42469,-8.94727 -2.32472,-0.95952 -12.21258,-0.67095 -18.00484,0.52545 -2.7932,0.57695 -5.89257,1.04899 -6.88749,1.04899 -0.99493,0 -3.09708,0.45387 -4.67146,1.00859 -1.57438,0.55472 -4.72433,1.45183 -6.9999,1.99357 -5.50828,1.31133 -6.49693,1.88752 -10.47205,6.10302 -1.86481,1.97757 -6.02,6.35085 -9.23377,9.7184 -5.41811,5.6774 -6.08681,6.6019 -9.19176,12.70811 -1.84171,3.6219 -4.32121,7.68043 -5.51,9.01894 -2.36976,2.66822 -3.43929,4.38178 -3.00562,4.81545 0.15423,0.15423 1.57871,-0.22368 3.1655,-0.83979 1.76895,-0.68685 4.81943,-1.28583 7.88509,-1.54829 6.33003,-0.54194 9.3586,-1.46416 13.05575,-3.97562 1.61934,-1.1 3.19061,-2.00054 3.49173,-2.00119 0.30111,-5e-4 1.95688,-0.91213 3.67947,-2.02549 3.70256,-2.39308 8.21785,-3.69963 11.10169,-3.21242 1.13401,0.1916 3.45793,1.33268 5.33962,2.62185 1.83246,1.25542 5.58174,3.3981 8.33174,4.76148 5.73848,2.845 7.80881,4.58503 9.64158,8.10339 2.55939,4.91324 1.95172,16.34243 -1.20012,22.57191 -1.53576,3.03539 -1.52684,2.6377 -0.28724,12.80615 1.08656,8.91311 1.06604,9.11165 -1.8479,17.87194 -1.5515,4.66435 -2.76279,7.26481 -4.77445,10.25 -1.48253,2.2 -3.24955,5.125 -3.9267,6.5 -1.75454,3.56272 -3.85517,9.59003 -3.85517,11.06161 0,1.61675 -2.25267,12.48274 -2.99328,14.43839 -0.94811,2.50358 -3.5494,4.75214 -7.76735,6.71415 -6.37623,2.96593 -8.97991,5.91494 -7.98631,9.04551 0.39124,1.23267 1.32899,1.03173 4.71952,-1.01128 z m -53.6763,-29.25478 c 0.45341,-1.80651 -0.23504,-5.8462 -0.95641,-5.61204 -1.07979,0.35051 -2.00266,3.96333 -1.40326,5.49344 0.67321,1.71852 1.94211,1.7823 2.35967,0.1186 z"
     id="path270"
     inkscape:connector-curvature="0" />
</svg>
