<?xml version="1.0" encoding="UTF-8" standalone="no"?>
<!-- Created with Inkscape (http://www.inkscape.org/) -->

<svg
   xmlns:dc="http://purl.org/dc/elements/1.1/"
   xmlns:cc="http://creativecommons.org/ns#"
   xmlns:rdf="http://www.w3.org/1999/02/22-rdf-syntax-ns#"
   xmlns:svg="http://www.w3.org/2000/svg"
   xmlns="http://www.w3.org/2000/svg"
   xmlns:sodipodi="http://sodipodi.sourceforge.net/DTD/sodipodi-0.dtd"
   xmlns:inkscape="http://www.inkscape.org/namespaces/inkscape"
   version="1.1"
   id="svg487"
   width="1000"
   height="1000"
   viewBox="0 0 1000 1000"
   sodipodi:docname="Masomeh_maj_l.tif.svg"
   inkscape:version="0.92.2 5c3e80d, 2017-08-06">
  <metadata
     id="metadata493">
    <rdf:RDF>
      <cc:Work
         rdf:about="">
        <dc:format>image/svg+xml</dc:format>
        <dc:type
           rdf:resource="http://purl.org/dc/dcmitype/StillImage" />
        <dc:title></dc:title>
      </cc:Work>
    </rdf:RDF>
  </metadata>
  <defs
     id="defs491" />
  <sodipodi:namedview
     pagecolor="#ffffff"
     bordercolor="#666666"
     borderopacity="1"
     objecttolerance="10"
     gridtolerance="10"
     guidetolerance="10"
     inkscape:pageopacity="0"
     inkscape:pageshadow="2"
     inkscape:window-width="1280"
     inkscape:window-height="696"
     id="namedview489"
     showgrid="false"
     inkscape:zoom="0.38641927"
     inkscape:cx="375.5"
     inkscape:cy="600"
     inkscape:window-x="0"
     inkscape:window-y="0"
     inkscape:window-maximized="0"
     inkscape:current-layer="svg487" />
  <path
     style="fill:#000000;stroke-width:0.5"
     d="m 390.51527,902.20333 c -6.46512,-1.81815 -10.5611,-6.69265 -13.86573,-16.50135 -1.25017,-3.7107 -1.38429,-4.94025 -1.8543,-17 -0.56832,-14.5824 -0.39867,-16.4527 2.37205,-26.14965 1.74164,-6.09545 6.2701,-17.0462 8.56855,-20.72058 0.73273,-1.17137 2.16429,-3.14227 3.18126,-4.37977 1.01696,-1.2375 2.67295,-3.83071 3.67996,-5.7627 1.00702,-1.93199 2.67338,-4.55779 3.70302,-5.83511 4.44815,-5.51817 8.13416,-10.94469 10.12242,-14.90219 3.92899,-7.82037 8.77134,-13.01749 13.23623,-14.20596 6.27408,-1.67005 13.7497,-3.03824 16.26342,-2.97654 2.31364,0.0568 3.86074,0.61291 9.75,3.50476 8.09114,3.97306 10.70224,4.92721 12.33055,4.50583 1.56264,-0.40438 3.01162,-2.66203 5.70506,-8.88905 1.23445,-2.85397 3.00995,-6.76404 3.94556,-8.68904 1.73535,-3.57048 3.01154,-8.98024 3.72938,-15.80885 0.32038,-3.04772 0.71101,-4.26032 1.95478,-6.06809 0.85492,-1.24257 2.01478,-3.42725 2.57748,-4.85483 1.50818,-3.82626 4.37775,-15.27775 5.18093,-20.67531 0.57465,-3.86182 1.28539,-5.99652 3.96185,-11.89949 3.69309,-8.14514 5.97823,-14.95436 6.86071,-20.44343 0.33158,-2.0625 1.36889,-5.46765 2.30513,-7.56699 2.61512,-5.86397 5.19857,-14.21868 5.19857,-16.81182 0,-1.79381 0.61403,-3.57725 2.70148,-7.84633 4.66177,-9.53386 6.68614,-14.44003 7.02477,-17.02486 0.45116,-3.44387 1.01436,-5.14698 3.81653,-11.54108 2.30737,-5.26507 2.56107,-6.2573 4.232,-16.55206 0.14222,-0.87623 1.08343,-2.78873 2.0916,-4.25 1.69881,-2.46235 4.86982,-10.12154 6.37863,-15.40686 0.91468,-3.20406 3.08573,-13.04136 3.91876,-17.75638 0.38931,-2.2035 1.39304,-5.7176 2.23051,-7.8091 1.65496,-4.13303 3.31564,-11.26313 3.838,-16.47829 0.18145,-1.81158 0.88416,-4.49005 1.56157,-5.95217 1.66864,-3.60158 2.37221,-8.83097 1.69247,-12.5795 -0.66283,-3.65531 -0.25982,-5.89696 1.49593,-8.32071 1.85538,-2.56127 2.41563,-4.47963 3.01938,-10.33854 0.43772,-4.24769 0.84292,-5.68928 2.74055,-9.75 3.09296,-6.61861 4.14268,-9.9018 4.5167,-14.12669 0.17716,-2.00124 0.75421,-4.98862 1.28232,-6.63862 1.09537,-3.42223 2.44911,-10.32135 2.13095,-10.86 -0.11695,-0.198 -2.62227,-0.34762 -5.5674,-0.33249 -7.8269,0.0402 -10.37258,-0.81649 -13.94602,-4.69321 -2.34236,-2.54116 -3.16544,-3.92711 -3.67563,-6.18922 -0.7364,-3.26511 1.31482,-9.71901 3.98706,-12.54473 2.1199,-2.24165 3.34604,-2.50155 13.02984,-2.76189 10.36,-0.27852 13.09713,-0.85774 16.5698,-3.50643 2.90249,-2.2138 5.6972,-7.52326 6.67605,-12.68332 0.41733,-2.19998 1.41584,-5.80035 2.2189,-8.00082 0.81633,-2.23678 1.68348,-5.96894 1.96667,-8.46437 0.27859,-2.45493 0.84502,-5.41129 1.25874,-6.56969 0.41371,-1.15839 0.97604,-3.31703 1.24962,-4.79696 0.27358,-1.47993 1.32274,-4.46965 2.33146,-6.64382 1.00873,-2.17417 2.14772,-4.62804 2.53109,-5.45304 1.08535,-2.33558 6.30168,-9.07918 9.70421,-12.54547 3.42349,-3.48765 8.53214,-6.42736 14.17114,-8.15462 9.37091,-2.87035 21.19022,0.31331 28.65867,7.71954 4.1157,4.08142 5.04203,6.92966 4.17724,12.844 -0.84099,5.75157 -2.08652,10.29291 -4.77233,17.40056 -1.29604,3.4298 -3.18577,8.49146 -4.1994,11.24815 -1.90914,5.19212 -6.91,13.76229 -10.91306,18.7021 -1.20975,1.49285 -2.62643,3.55102 -3.14817,4.57373 -1.02154,2.00239 -1.95976,2.8268 -6.98062,6.13388 -1.7875,1.17737 -5.10914,3.4766 -7.38142,5.1094 -2.27229,1.63281 -5.1245,3.67196 -6.33826,4.53145 -1.2205,0.86427 -3.17877,1.70847 -4.38145,1.88882 -1.19603,0.17936 -3.04076,0.84885 -4.09939,1.48776 -2.60659,1.57314 -7.13027,7.86658 -8.13007,11.3107 -0.43906,1.5125 -1.41266,3.9875 -2.16355,5.5 -0.75088,1.5125 -2.33048,5.67499 -3.51021,9.24999 -1.17973,3.575 -2.88189,8.1875 -3.78258,10.25 -2.17529,4.98121 -3.62816,10.67359 -4.24609,16.63637 -0.27851,2.6875 -1.06506,6.7375 -1.74787,9 -0.68281,2.2625 -2.25514,9.51363 -3.49408,16.11363 -2.4579,13.09364 -3.45599,17.45079 -6.05307,26.42463 -2.13275,7.36945 -2.99284,11.52522 -3.86695,18.68454 -0.65794,5.38873 -0.94622,6.27588 -3.70528,11.40261 -0.59547,1.10648 -1.31484,3.23596 -1.59859,4.73216 -0.2961,1.56132 -1.37919,4.14916 -2.54208,6.0738 -2.16918,3.59011 -3.52059,7.33678 -4.41167,12.23096 -0.3053,1.67678 -1.34283,5.05178 -2.30564,7.5 -0.96281,2.44822 -2.00219,5.9138 -2.30971,7.7013 -0.60473,3.51497 -1.39708,5.43357 -2.68562,6.50297 -1.3298,1.10363 -2.60897,4.04571 -3.26496,7.50933 -0.33726,1.78074 -1.23218,4.9252 -1.98871,6.9877 -5.42963,14.80259 -9.49276,29.18917 -9.49276,33.61156 0,2.31473 -0.41878,3.50223 -2.96819,8.4167 -3.46933,6.68778 -4.63636,10.64854 -5.96144,20.23253 -0.65498,4.7373 -1.29902,7.57479 -1.986,8.75 -1.58686,2.71462 -2.83801,6.21252 -6.31209,17.64705 -3.13485,10.31803 -5.77578,17.03834 -7.82857,19.92121 -0.55295,0.77655 -1.56763,3.69002 -2.25486,6.47439 -0.68722,2.78436 -1.83999,5.99265 -2.56172,7.12952 -2.57896,4.06239 -8.62713,18.58429 -8.62713,20.7141 0,1.24635 1.8498,2.88659 7.75,6.87199 2.75,1.85753 6.35,4.44163 8,5.74244 6.24118,4.92033 13.44818,9.14617 20.49511,12.01735 3.85269,1.56973 9.36739,3.91835 12.25489,5.21916 2.8875,1.3008 7.5,3.10951 10.25,4.01935 2.75,0.90985 6.04955,2.1239 7.33235,2.698 2.05355,0.91895 3.18912,1.0328 9.5,0.9526 3.9422,-0.0502 8.85515,-0.0195 10.91765,0.0679 12.07546,0.5119 18.7523,0.2637 23.87628,-0.8876 4.40898,-0.9906 5.88417,-1.1038 10.54266,-0.80905 6.13646,0.3883 7.72739,0.0485 12.13333,-2.59315 1.54124,-0.92402 3.93161,-1.94071 5.31193,-2.25933 2.19464,-0.50658 2.75292,-0.46051 4.44773,0.36702 3.05065,1.48955 3.76083,3.41041 3.58496,9.69631 -0.19957,7.13355 -0.80123,8.2109 -7.18631,12.86845 -9.43234,6.88035 -12.55469,7.83435 -28.46057,8.6959 -11.8087,0.6396 -9.12869,0.6404 -26.70976,-0.008 -14.95108,-0.5514 -23.68751,-1.48085 -28.4352,-3.02515 -3.63318,-1.1818 -22.99373,-10.1139 -30.85505,-14.23515 -3.3,-1.73 -7.23981,-3.6336 -8.75513,-4.2302 -1.51533,-0.59655 -3.87783,-1.933 -5.25,-2.96975 -1.37218,-1.0368 -3.73237,-2.59305 -5.24487,-3.4583 -1.5125,-0.8653 -4.04434,-2.57971 -5.62631,-3.80983 -4.00943,-3.11767 -12.64628,-7.49345 -14.08015,-7.13357 -1.19434,0.29976 -1.83761,1.40878 -3.36747,5.8056 -1.20679,3.46834 -6.41724,12.95665 -8.92356,16.25 -1.96843,2.58655 -6.32969,9.94555 -8.7415,14.75 -1.80235,3.5904 -4.4255,8.04085 -6.85953,11.6379 -1.07479,1.5884 -2.57803,4.42095 -3.34054,6.29465 -2.11463,5.1963 -10.23682,15.72565 -17.36264,22.50845 -4.92823,4.691 -6.66202,6.0032 -10.11021,7.65185 -4.9356,2.35975 -9.55479,2.90715 -13.99497,1.6585 z m 12.91989,-28.59485 c 7.43255,-7.9454 16.27678,-20.078 20.22715,-27.7478 1.2298,-2.3877 3.31012,-6.02905 4.62292,-8.09185 7.07009,-11.1094 11.39347,-18.83553 14.11465,-25.22375 2.52043,-5.91694 2.94373,-7.30559 2.48707,-8.15887 -1.09186,-2.04016 -8.4037,-4.27241 -11.86658,-3.62277 -3.0498,0.57215 -8.5671,4.77414 -12.09822,9.21405 -1.7875,2.24753 -4.9375,5.94743 -7,8.22198 -2.47438,2.72877 -4.68546,5.87412 -6.5,9.24651 -1.5125,2.81105 -4.07432,6.6061 -5.69292,8.4335 -3.5976,4.0616 -4.51029,6.0314 -5.47787,11.8225 -1.99386,11.9335 -2.16246,14.8338 -1.26781,21.8098 0.68061,5.30715 1.79123,7.4402 3.87392,7.4402 1.14365,0 2.11086,-0.70645 4.57769,-3.3435 z M 596.84984,421.64637 c 0.6326,-0.44309 2.13965,-2.34928 3.34899,-4.23599 1.31033,-2.04424 2.98675,-3.92777 4.14878,-4.66133 2.78955,-1.76097 3.84823,-3.32951 5.32383,-7.88777 0.71636,-2.21292 2.31932,-6.30403 3.56213,-9.09139 1.2428,-2.78735 2.3691,-5.32014 2.50288,-5.62843 0.49303,-1.13624 -1.33931,-2.18947 -3.80911,-2.18947 -1.33287,0 -2.79817,0.14382 -3.25624,0.31959 -0.91195,0.34996 -5.69728,7.53017 -6.61821,9.93041 -0.31653,0.825 -1.06471,3.3 -1.6626,5.5 -0.59789,2.2 -2.29781,6.269 -3.7776,9.04222 -1.96489,3.68233 -2.69053,5.58146 -2.69053,7.04167 0,2.87012 0.77924,3.36532 2.92768,1.86049 z"
     id="path497"
     inkscape:connector-curvature="0" />
</svg>
