<?xml version="1.0" encoding="UTF-8" standalone="no"?>
<!-- Created with Inkscape (http://www.inkscape.org/) -->

<svg
   xmlns:dc="http://purl.org/dc/elements/1.1/"
   xmlns:cc="http://creativecommons.org/ns#"
   xmlns:rdf="http://www.w3.org/1999/02/22-rdf-syntax-ns#"
   xmlns:svg="http://www.w3.org/2000/svg"
   xmlns="http://www.w3.org/2000/svg"
   xmlns:sodipodi="http://sodipodi.sourceforge.net/DTD/sodipodi-0.dtd"
   xmlns:inkscape="http://www.inkscape.org/namespaces/inkscape"
   version="1.1"
   id="svg310"
   width="1000"
   height="1000"
   viewBox="0 0 999.99998 1000"
   sodipodi:docname="Masomeh_bdc_e.svg"
   inkscape:version="0.92.2 5c3e80d, 2017-08-06">
  <metadata
     id="metadata316">
    <rdf:RDF>
      <cc:Work
         rdf:about="">
        <dc:format>image/svg+xml</dc:format>
        <dc:type
           rdf:resource="http://purl.org/dc/dcmitype/StillImage" />
        <dc:title></dc:title>
      </cc:Work>
    </rdf:RDF>
  </metadata>
  <defs
     id="defs314" />
  <sodipodi:namedview
     pagecolor="#ffffff"
     bordercolor="#666666"
     borderopacity="1"
     objecttolerance="10"
     gridtolerance="10"
     guidetolerance="10"
     inkscape:pageopacity="0"
     inkscape:pageshadow="2"
     inkscape:window-width="1027"
     inkscape:window-height="480"
     id="namedview312"
     showgrid="false"
     units="px"
     inkscape:zoom="0.19666667"
     inkscape:cx="540"
     inkscape:cy="600"
     inkscape:window-x="0"
     inkscape:window-y="0"
     inkscape:window-maximized="0"
     inkscape:current-layer="svg310" />
  <path
     style="fill:#000000;stroke-width:0.5"
     d="m 238.81423,831.55352 c -1.76636,-0.9595 -3.38093,-4.43283 -3.99525,-8.59477 -0.30121,-2.04065 -0.3963,-10.01187 -0.23837,-19.9806 0.28053,-17.70655 0.4419,-18.88387 2.95808,-21.58137 2.52568,-2.70767 6.18906,-3.84667 14.60114,-4.53974 4.45475,-0.36702 7.15893,-0.89357 10.5,-2.04455 7.10811,-2.4487 14.50994,-4.04296 20.89423,-4.50034 6.47242,-0.4637 9.42706,-1.50312 15.60577,-5.48998 1.65,-1.06468 4.575,-2.41688 6.5,-3.00489 7.98636,-2.43954 12.74058,-4.58842 14.62442,-6.61016 0.61844,-0.6637 2.19344,-2.76299 3.5,-4.66509 1.71731,-2.50005 3.4147,-4.19202 6.12558,-6.106 2.0625,-1.45621 5.325,-3.90909 7.25,-5.45087 2.09706,-1.67957 5.90966,-3.94475 9.51152,-5.65106 5.65556,-2.67921 6.16662,-3.0452 8.63096,-6.18101 2.93011,-3.7285 5.12584,-5.33743 8.96874,-6.57188 1.83854,-0.5906 3.9099,-1.95248 7,-4.60239 2.41383,-2.06997 5.06378,-4.10608 5.88878,-4.52469 4.23593,-2.14933 4.34801,-4.12687 0.50385,-8.89051 -1.85103,-2.29378 -7.49194,-11.65527 -8.55241,-14.19335 -1.24194,-2.97239 -2.28477,-7.66303 -2.71292,-12.20273 -0.33366,-3.53784 -0.75389,-5.05172 -2.15254,-7.75441 -0.95586,-1.84708 -2.11912,-4.70635 -2.58502,-6.35392 -0.4659,-1.64758 -1.73656,-4.49 -2.8237,-6.31649 -1.5661,-2.63119 -2.05369,-4.04217 -2.34769,-6.79377 -0.28618,-2.67834 -0.74966,-4.06285 -2.02585,-6.05162 -1.41179,-2.20008 -1.71157,-3.22151 -2.04158,-6.95622 -0.21275,-2.40762 -0.64001,-5.01089 -0.94948,-5.78504 -0.78375,-1.96063 -0.70174,-5.32255 0.19162,-7.85459 0.71658,-2.03101 0.68991,-2.32438 -0.53373,-5.86956 -1.07501,-3.1146 -1.23353,-4.24034 -0.95861,-6.80755 0.26213,-2.4477 0.11585,-3.68343 -0.71627,-6.05097 -1.50052,-4.26924 -1.37098,-6.85251 0.51082,-10.18688 1.48223,-2.62636 1.54079,-2.93842 1.22735,-6.54043 -0.23234,-2.67018 -0.10248,-4.75869 0.44162,-7.10223 0.50471,-2.17386 0.66379,-4.34312 0.46087,-6.28454 -0.21626,-2.06912 -0.0626,-3.81529 0.50853,-5.78003 0.52281,-1.79842 0.79977,-4.4948 0.7668,-7.46545 -0.0887,-7.99061 0.76529,-14.01816 2.51618,-17.75972 0.85171,-1.82007 1.90465,-4.87477 2.33985,-6.78823 0.43521,-1.91346 1.40517,-4.96925 2.15547,-6.79064 0.75029,-1.8214 1.97223,-5.13931 2.71542,-7.37313 1.473,-4.42747 5.17035,-11.97007 7.15015,-14.58631 0.68582,-0.90629 2.10067,-3.49568 3.14411,-5.75419 1.04343,-2.25851 2.78316,-5.2295 3.86606,-6.60219 1.0829,-1.3727 2.60922,-3.59091 3.39182,-4.92936 0.78261,-1.33845 2.9774,-4.11005 4.87732,-6.15912 2.2559,-2.433 3.96479,-4.86313 4.92548,-7.00434 0.8091,-1.80332 2.57956,-4.49161 3.93436,-5.97398 1.97131,-2.15692 2.53091,-3.16794 2.80192,-5.06211 0.48798,-3.41059 1.89264,-5.60674 4.95331,-7.74439 2.25755,-1.57673 2.82589,-2.29758 3.54789,-4.5 1.25506,-3.82849 2.29483,-5.02575 6.10222,-7.02648 4.20531,-2.20982 4.6475,-2.69143 6.79215,-7.39754 2.56121,-5.62022 5.28041,-7.43932 11.12985,-7.4457 3.05209,-0.004 4.89136,-1.09162 9.69478,-5.73636 4.01959,-3.88679 17.03388,-13.49419 21.75,-16.05626 1.925,-1.04577 4.47222,-2.63337 5.6605,-3.52799 2.20724,-1.66179 4.46012,-2.61757 8.77227,-3.72162 1.36139,-0.34856 3.52917,-1.48953 4.92236,-2.59079 4.44696,-3.51511 6.23342,-4.03428 12.9325,-3.75838 6.19536,0.25515 6.65124,0.14841 9.35477,-2.1905 2.28207,-1.97429 5.29952,-1.95662 8.80949,0.0516 1.41548,0.80986 5.03994,2.50577 8.05433,3.76869 3.0144,1.26292 7.28366,3.2704 9.48725,4.46107 6.1293,3.31186 13.32531,5.82423 18.95295,6.61714 6.38976,0.90029 8.27145,1.94365 10.27092,5.69505 1.88388,3.53452 3.70043,5.1896 11.08408,10.09883 6.11236,4.06398 9.09632,6.71787 11.52913,10.25383 3.07454,4.46869 3.16145,4.92534 3.16562,16.63292 0.003,7.3261 0.23204,11.88549 0.72033,14.3151 0.59626,2.96679 0.61052,4.14156 0.085,7 -0.54482,2.96346 -0.52306,3.73518 0.15849,5.62276 0.9776,2.70745 1.01032,6.17109 0.0873,9.23809 -0.52089,1.7308 -0.63569,4.11221 -0.44368,9.20447 0.22333,5.9232 0.11349,7.43211 -0.79731,10.95288 -1.34681,5.20629 -1.32745,6.28661 0.19763,11.02265 0.68967,2.14173 1.52052,6.10475 1.84632,8.80671 0.87851,7.28569 0.12799,11.66487 -3.09987,18.08734 -2.88149,5.73331 -3.02009,6.9909 -1.25039,11.34614 2.59766,6.39289 1.02363,10.72326 -5,13.75564 -3.39628,1.70973 -4.65931,2.95561 -5.9794,5.89822 -0.61684,1.375 -2.02846,3.64097 -3.13694,5.03549 -2.3797,2.99378 -3.19078,4.51272 -4.38637,8.21451 -0.48851,1.5125 -1.90031,4.775 -3.13734,7.25 -1.23703,2.475 -3.32321,7.2 -4.63595,10.5 -1.31275,3.3 -2.96673,7.2375 -3.67552,8.75 -1.0454,2.2308 -1.28999,3.5052 -1.29547,6.75 -0.008,4.91494 -0.92256,6.68328 -4.35999,8.43295 -2.88543,1.4687 -4.12817,2.76875 -5.79961,6.06705 -1.50698,2.97377 -3.02686,4.70496 -7.22865,8.23368 -1.91672,1.60967 -3.83047,3.82489 -4.92403,5.69966 -0.98384,1.68666 -3.28548,4.65444 -5.11476,6.59507 -1.82928,1.94063 -4.29318,4.69511 -5.47532,6.12107 -1.18215,1.42596 -3.88215,3.91409 -6,5.52917 -4.31222,3.28852 -10.58042,9.93443 -15.03035,15.93604 -1.63853,2.20989 -4.26103,4.96839 -5.88167,6.18669 -1.60859,1.20924 -4.05284,3.34311 -5.43167,4.74194 -6.89308,6.99305 -10.24916,10.72687 -12.09588,13.45734 -1.9666,2.9077 -3.68463,4.63836 -9.08532,9.15208 -1.41666,1.18401 -2.57576,2.55957 -2.57576,3.05682 0,1.17742 2.01308,3.16256 4.92494,4.8566 1.27878,0.74396 3.96071,2.46244 5.95985,3.81885 5.60095,3.80022 10.59618,6.20559 13.65337,6.57452 5.22408,0.63044 6.8339,1.30848 10.23498,4.31089 2.62109,2.31385 4.34293,3.314 8.62582,5.01036 2.94308,1.16568 7.03854,2.96216 9.10104,3.99217 10.50308,5.24522 15.62785,6.78999 26.5,7.98794 2.6125,0.28786 7.6375,1.20149 11.16666,2.03029 5.77993,1.35737 7.14436,1.49716 13.75,1.40864 5.61989,-0.0753 8.06896,0.10247 10.48168,0.76084 2.65379,0.72416 3.7016,0.77327 6.67046,0.31264 1.93717,-0.30056 4.79542,-1.01766 6.35166,-1.59355 1.55625,-0.57589 4.85454,-1.72835 7.32954,-2.56102 3.00225,-1.01005 5.44478,-2.24018 7.33861,-3.69592 1.56123,-1.20009 4.27604,-2.82691 6.0329,-3.61516 2.20692,-0.99018 3.82434,-2.17027 5.23256,-3.81776 1.12105,-1.31151 4.23765,-4.26032 6.92577,-6.5529 3.92488,-3.34736 5.78194,-4.53906 9.42883,-6.0506 3.23651,-1.34145 5.76245,-2.8676 8.79133,-5.31163 5.08906,-4.1064 6.39698,-4.80845 12.25,-6.5754 6.12845,-1.85009 10.52878,-4.24572 14.85735,-8.08864 2.00346,-1.77867 5.21765,-4.03216 7.14265,-5.00774 6.96369,-3.52916 10.49625,-5.86705 14.88098,-9.84838 6.06208,-5.50438 7.25679,-6.3046 9.41248,-6.3046 2.4153,0 4.04643,1.3632 5.51209,4.60665 1.1632,2.57421 1.19825,3.04224 1.33915,17.89335 0.0796,8.3875 -0.039,21.10681 -0.2631,28.26512 -0.4065,12.9742 -0.41215,13.02252 -1.78746,15.36934 -1.49647,2.55354 -9.56719,10.04648 -13.59414,12.62096 -1.375,0.87905 -4.975,2.56492 -8,3.74638 -6.36602,2.48635 -7.96724,3.54788 -10.44686,6.9258 -2.18619,2.9782 -3.99345,3.89392 -9.62489,4.87687 -2.37108,0.41386 -5.34992,1.0964 -6.61965,1.51676 -3.21086,1.06297 -17.5586,8.18049 -17.5586,8.71033 0,0.23854 0.675,1.49808 1.5,2.79897 1.70644,2.69078 1.9091,4.90623 0.6848,7.48624 -1.82627,3.84859 -6.66632,6.14679 -15.08079,7.16081 -2.28029,0.27479 -5.54279,1.08394 -7.25,1.7981 -1.72638,0.72218 -4.54643,1.41627 -6.35401,1.5639 -3.15392,0.25759 -3.31652,0.21204 -5.5,-1.54068 -3.24591,-2.60554 -5.01303,-2.95966 -10.05643,-2.01522 -2.84332,0.53245 -9.42576,0.9197 -20.44357,1.20272 -8.9375,0.22958 -18.8677,0.70502 -22.06711,1.05653 -5.50181,0.60447 -6.04385,0.5803 -10,-0.44588 -2.30059,-0.59675 -9.13289,-1.88381 -15.18289,-2.86015 -6.05,-0.97633 -12.35,-2.12651 -14,-2.55595 -1.65,-0.42944 -5.8125,-1.4045 -9.25,-2.16681 -10.93594,-2.42518 -35.9052,-8.93974 -37.60854,-9.81219 -0.90281,-0.46242 -3.11129,-2.21577 -4.90774,-3.89635 -3.60877,-3.376 -10.14751,-7.95913 -23.73372,-16.63544 -7.58674,-4.84498 -9.89065,-6.62471 -14.67187,-11.33383 -3.11953,-3.07248 -6.89786,-7.10508 -8.3963,-8.96133 -3.50635,-4.34364 -4.25832,-4.39147 -9.2642,-0.58925 -2.0172,1.53216 -5.5597,3.9314 -7.87223,5.33164 -2.31253,1.40024 -6.13753,4.36687 -8.5,6.5925 -2.36247,2.22564 -5.8704,5.26895 -7.7954,6.76292 -1.925,1.49397 -4.9625,3.88688 -6.75,5.31759 -1.7875,1.4307 -5.4377,3.6414 -8.11155,4.91267 -5.09138,2.42066 -7.53914,4.42957 -10.24136,8.4052 -1.43469,2.11079 -2.3005,2.69609 -8.25,5.57711 -3.6559,1.77036 -8.67209,4.51324 -11.14709,6.09529 -8.51354,5.44197 -9.99812,6.25087 -13.24878,7.21897 -2.6204,0.78039 -3.74789,1.46644 -5.74915,3.49826 -3.33471,3.38562 -4.94168,3.78963 -11.81993,2.97165 -5.32792,-0.6336 -5.32792,-0.6336 -11.75503,1.17255 -6.76687,1.90163 -14.76891,3.10843 -23.92711,3.60849 -7.71717,0.42138 -19.26021,2.53176 -23.49053,4.29476 -3.8253,1.59415 -6.29939,1.80035 -8.33507,0.69455 z M 435.81996,669.66895 c 2.92593,-2.82956 6.49266,-5.8851 7.92608,-6.79007 1.81112,-1.14342 3.28624,-2.6776 4.83523,-5.02883 1.22596,-1.86089 3.4061,-4.37411 4.84475,-5.58493 6.5127,-5.48131 8.83178,-8.10154 9.66255,-10.91725 0.44069,-1.49367 0.80126,-3.30983 0.80126,-4.03593 0,-2.31397 1.48774,-5.79028 3.18,-7.43047 0.90168,-0.87395 3.41364,-2.32088 5.58213,-3.21538 3.61606,-1.49164 4.17239,-1.92146 6.71528,-5.18821 1.52492,-1.95901 4.40149,-4.95284 6.39238,-6.65297 2.2255,-1.90048 5.53413,-5.62761 8.58971,-9.67621 4.11393,-5.45091 5.62498,-7.99039 8.77325,-14.74438 4.40745,-9.45529 8.78441,-21.19195 10.02376,-26.8783 0.89026,-4.08468 2.44044,-8.19433 6.48822,-17.20068 1.53386,-3.41286 2.59233,-6.67715 3.07491,-9.48302 0.40475,-2.35329 1.73591,-7.2127 2.95813,-10.7987 2.22223,-6.52 2.22223,-6.52 2.22223,-15.9167 0,-7.55861 -0.18603,-10.14652 -0.95105,-13.22999 -0.52308,-2.10832 -1.09978,-4.90478 -1.28154,-6.21434 -0.24626,-1.77413 -0.83406,-2.96286 -2.30612,-4.66369 -3.99466,-4.61548 -4.38359,-7.1863 -1.93215,-12.77168 1.52914,-3.484 1.52914,-3.484 0.625,-5.3338 -1.246,-2.54922 -5.26988,-4.5435 -9.94634,-4.92952 -3.90139,-0.32204 -15.8152,0.97006 -19.76802,2.14393 -1.81219,0.53816 -3.42933,1.5829 -5.65474,3.6532 -3.76146,3.49927 -5.26689,4.04479 -10.78504,3.90812 -4.82627,-0.11952 -5.23108,0.0402 -12.60197,4.97363 -7.74218,5.18188 -13.03289,10.21669 -17.20726,16.37496 -2.06014,3.03923 -4.4646,6.45133 -5.34324,7.58243 -2.62946,3.38499 -6.40224,8.555 -9.7708,13.38936 -1.74531,2.50475 -4.27785,5.90409 -5.62788,7.55409 -4.13863,5.05822 -5.22835,7.50111 -11.73943,26.31705 -0.91679,2.64937 -1.91095,6.78108 -2.20925,9.18159 -0.2983,2.4005 -0.86387,5.59893 -1.25684,7.10762 -0.43586,1.67339 -0.83155,6.67203 -1.0147,12.81841 -0.16513,5.54143 -0.62205,12.43783 -1.01539,15.32533 -0.90771,6.6635 -1.06394,18.47252 -0.38034,28.75 0.58299,8.76491 1.39903,12.04334 5.34114,21.45771 1.6542,3.95049 2.69675,5.6266 5.13156,8.25 3.92087,4.22458 4.53386,5.48473 5.97279,12.27835 0.6538,3.08678 1.43611,6.26519 1.73847,7.06313 0.74378,1.96283 2.44635,3.70081 3.62543,3.70081 0.5499,0 3.26567,-2.22202 6.28784,-5.14467 z"
     id="path320"
     inkscape:connector-curvature="0" />
</svg>
