<?xml version="1.0" encoding="UTF-8" standalone="no"?>
<!-- Created with Inkscape (http://www.inkscape.org/) -->

<svg
   xmlns:dc="http://purl.org/dc/elements/1.1/"
   xmlns:cc="http://creativecommons.org/ns#"
   xmlns:rdf="http://www.w3.org/1999/02/22-rdf-syntax-ns#"
   xmlns:svg="http://www.w3.org/2000/svg"
   xmlns="http://www.w3.org/2000/svg"
   xmlns:sodipodi="http://sodipodi.sourceforge.net/DTD/sodipodi-0.dtd"
   xmlns:inkscape="http://www.inkscape.org/namespaces/inkscape"
   version="1.1"
   id="svg241"
   width="1000"
   height="1000"
   viewBox="0 0 1000 1000"
   sodipodi:docname="Masomeh_maj_b.svg"
   inkscape:version="0.92.2 5c3e80d, 2017-08-06">
  <metadata
     id="metadata247">
    <rdf:RDF>
      <cc:Work
         rdf:about="">
        <dc:format>image/svg+xml</dc:format>
        <dc:type
           rdf:resource="http://purl.org/dc/dcmitype/StillImage" />
        <dc:title></dc:title>
      </cc:Work>
    </rdf:RDF>
  </metadata>
  <defs
     id="defs245" />
  <sodipodi:namedview
     pagecolor="#ffffff"
     bordercolor="#666666"
     borderopacity="1"
     objecttolerance="10"
     gridtolerance="10"
     guidetolerance="10"
     inkscape:pageopacity="0"
     inkscape:pageshadow="2"
     inkscape:window-width="1287"
     inkscape:window-height="717"
     id="namedview243"
     showgrid="false"
     inkscape:zoom="0.28030155"
     inkscape:cx="612.55058"
     inkscape:cy="741.97875"
     inkscape:window-x="0"
     inkscape:window-y="0"
     inkscape:window-maximized="0"
     inkscape:current-layer="svg241" />
  <path
     style="fill:#000000;stroke-width:0.5"
     d="m 324.65036,878.05659 c -4.17935,-1.8982 -5.42483,-5.0865 -5.0961,-13.0456 0.24031,-5.81857 1.16791,-9.07868 4.41198,-15.50625 1.88862,-3.74198 3.3363,-7.41625 9.06216,-23 1.6672,-4.5375 4.00013,-10.40815 5.18429,-13.04589 1.18417,-2.63773 2.53049,-6.12523 2.99182,-7.75 0.46133,-1.62476 2.7269,-8.61145 5.0346,-15.52597 2.5414,-7.61473 4.40769,-14.12073 4.73313,-16.50001 0.37724,-2.75801 1.19713,-5.37461 2.75236,-8.78393 1.21828,-2.67069 2.21506,-4.9763 2.21506,-5.12358 0,-0.14728 1.09623,-3.24968 2.43607,-6.89421 1.33984,-3.64453 2.7214,-7.86392 3.07013,-9.37642 0.81922,-3.5531 4.41796,-13.23342 7.56015,-20.33623 1.3592,-3.07243 2.81487,-7.23493 3.23481,-9.25 0.41994,-2.01508 1.2217,-4.67627 1.78171,-5.91377 0.55999,-1.2375 1.56008,-3.81446 2.22241,-5.72656 0.66233,-1.91211 2.41863,-5.62461 3.9029,-8.25 1.48427,-2.6254 3.41908,-7.02344 4.29957,-9.77344 0.88048,-2.75 3.23727,-8.4875 5.2373,-12.75 3.15768,-6.72972 5.09142,-11.75808 12.11066,-31.49183 0.73203,-2.058 3.1247,-7.23301 5.31705,-11.5 2.19235,-4.267 4.63554,-9.53632 5.42931,-11.70961 1.37616,-3.76785 3.49599,-7.66543 9.96591,-18.32361 3.51063,-5.78321 5.12774,-9.3547 6.49934,-14.3542 0.57126,-2.08227 2.01913,-6.22558 3.2175,-9.20738 3.26487,-8.12374 3.71432,-10.01073 3.72257,-15.62911 0.009,-6.44405 0.77698,-9.59053 4.6845,-19.20432 1.75037,-4.30646 4.3428,-11.31743 5.76098,-15.57993 1.53499,-4.61363 4.18133,-10.98754 6.53913,-15.75 2.17835,-4.4 4.12044,-8.66759 4.31576,-9.48354 0.22818,-0.95317 2.24759,-3.36653 5.64869,-6.75058 2.91145,-2.89688 7.21513,-7.29178 9.56373,-9.76646 8.95116,-9.43172 11.27074,-11.14035 30.79427,-22.68352 1.96044,-1.1591 5.33544,-2.85987 7.5,-3.77949 3.76498,-1.59956 5.74464,-2.66289 13.32984,-7.15981 3.21588,-1.90656 8.91358,-3.94574 30.60571,-10.95364 7.5,-2.42296 7.5,-2.42296 19.5,-2.42296 12,0 12,0 20,2.6674 10.78572,3.59623 17.78586,6.3331 22.04819,8.62022 1.95151,1.04715 7.57651,3.97912 12.5,6.51547 11.83233,6.09547 13.5945,7.3497 20.08659,14.29673 6.98567,7.4752 8.58806,9.41358 12.11086,14.65018 3.70164,5.50246 4.46661,7.05465 6.97028,14.14317 1.14481,3.24125 3.31854,8.83148 4.83053,12.42274 2.9447,6.99425 3.90431,10.34053 6.00322,20.93409 1.18136,5.96255 1.34397,8.00409 1.39386,17.5 0.0565,10.75 0.0565,10.75 -1.56278,15.21462 -0.89058,2.45553 -1.85743,5.83053 -2.14854,7.5 -0.29112,1.66946 -1.00448,4.49787 -1.58525,6.28537 -1.56254,4.80917 -6.18209,15.35108 -8.10684,18.5 -0.92451,1.5125 -2.35372,4.2125 -3.17603,6 -0.84495,1.83671 -2.82545,4.72792 -4.55433,6.6486 -1.68257,1.86922 -3.81229,4.56923 -4.73272,6 -5.00166,7.77492 -8.83267,12.44582 -13.67643,16.67479 -8.6748,7.57375 -21.33001,19.58725 -22.90061,21.73937 -2.73888,3.75296 -9.11081,9.13752 -15.59529,13.17871 -3.52259,2.1953 -8.31721,5.46782 -10.65471,7.27226 -2.3375,1.80444 -6.5,4.47298 -9.25,5.9301 -5.77625,3.06061 -7.75,4.71676 -7.75,6.50295 0,1.38033 4.46375,9.20254 7.73415,13.55322 8.18098,10.88331 12.27114,19.51193 15.76125,33.25 2.4439,9.61992 3.74608,20.90704 3.25858,28.24505 -0.76599,11.52988 -3.18058,20.62434 -7.2266,27.21868 -1.16886,1.90504 -3.01367,5.4827 -4.09958,7.95035 -2.86499,6.51049 -4.93399,9.3431 -9.13269,12.50329 -2.01921,1.51978 -4.5429,3.82967 -5.6082,5.13309 -3.54949,4.34286 -14.38194,13.42945 -18.66808,15.65935 -4.52732,2.35537 -7.03911,4.18286 -12.84475,9.34539 -2.24175,1.99342 -5.05425,4.11675 -6.25,4.71851 -1.19574,0.60174 -3.52408,2.00784 -5.17408,3.12464 -5.12756,3.4706 -13.54945,7.18494 -21.25,9.37199 -3.9875,1.13249 -10.4,3.03757 -14.25,4.23351 -3.85,1.19594 -7.9,2.42753 -9,2.73686 -1.1,0.30933 -5.85788,0.76398 -10.57306,1.01033 -4.71518,0.24634 -10.56518,0.72608 -13,1.06609 -2.74829,0.38377 -10.77835,0.63043 -21.17694,0.65053 -16.46324,0.032 -16.86556,0.009 -23.5,-1.36667 -5.34834,-1.10851 -7.84017,-1.92716 -12,-3.94241 -2.8875,-1.39886 -6.22358,-2.96249 -7.41351,-3.47472 -1.18993,-0.51223 -5.68993,-3.20693 -10,-5.98823 -7.1267,-4.59889 -8.62947,-5.8444 -16.59156,-13.75126 -4.81529,-4.7819 -9.02612,-8.69436 -9.35741,-8.69436 -0.89576,0 -1.67749,1.71984 -3.18179,7 -0.74429,2.6125 -1.93406,6.325 -2.64395,8.25 -0.70988,1.925 -1.29544,4.23818 -1.30124,5.14042 -0.0126,1.96019 -4.81787,20.79543 -5.7653,22.59833 -1.07597,2.04745 -4.3197,4.88445 -6.87301,6.0112 -5.57061,2.4583 -15.87506,3.2716 -19.66153,1.5519 z m 135.87178,-40.25837 c 2.29214,-0.38418 5.29252,-0.84363 6.66752,-1.02101 1.375,-0.17737 4.6375,-0.8565 7.25,-1.50918 2.6125,-0.65267 6.79036,-1.42854 9.28412,-1.72416 5.1406,-0.60937 11.32399,-2.33636 16.17046,-4.51632 1.81248,-0.81526 6.89542,-2.85584 11.29542,-4.53462 8.31685,-3.17322 14.1447,-6.0342 17.20934,-8.44833 0.98487,-0.77581 3.36566,-2.37153 5.29066,-3.54603 3.65379,-2.2293 10.7987,-7.56212 13.67309,-10.20531 0.9202,-0.84619 3.13835,-3.6307 4.92922,-6.18781 2.06772,-2.9524 4.23027,-5.36892 5.92513,-6.62099 3.34218,-2.46901 5.44231,-5.49118 7.03339,-10.1213 2.30986,-6.72184 3.18807,-11.48183 3.7844,-20.51192 0.66243,-10.03102 0.27998,-14.5669 -1.92563,-22.83798 -1.49606,-5.61029 -2.10514,-6.87797 -5.03273,-10.47478 -1.21597,-1.49394 -3.30293,-4.98144 -4.63767,-7.75 -2.30608,-4.78333 -2.72818,-5.31639 -8.48463,-10.71501 -4.42848,-4.15319 -6.72587,-5.93509 -8.54156,-6.625 -4.65659,-1.76936 -11.87492,-0.89862 -18.91998,2.28231 -3.60647,1.62837 -4.40086,1.79179 -9.61711,1.9784 -4.25516,0.15224 -6.75536,0.53012 -9.93592,1.50174 -5.53001,1.68933 -9.77351,2.5988 -14.93364,3.20056 -6.44504,0.7516 -11.49617,3.46039 -17.33711,9.29745 -4.99224,4.98892 -6.09135,7.17281 -5.46771,10.86411 0.52199,3.08963 2.26247,4.7734 5.36907,5.19417 1.44067,0.19512 3.18189,0.64451 3.86939,0.99863 6.32407,3.2575 6.67903,13.845 0.62492,18.63995 -6.86211,5.43489 -13.20787,5.43384 -24.1031,-0.004 -3.80346,-1.89832 -6.16575,-3.49386 -8.66869,-5.85501 -3.33253,-3.14373 -8.61727,-10.34019 -11.51824,-15.68488 -2.6162,-4.82002 -1.46655,-9.09656 5.60699,-20.85716 2.59226,-4.30995 3.06174,-5.97895 1.93312,-6.87223 -0.34375,-0.27206 -2.16479,-0.99996 -4.04675,-1.61754 -3.98719,-1.30843 -6.52567,-3.32839 -7.36009,-5.85669 -0.37324,-1.13093 -0.50822,-3.70008 -0.36436,-6.93482 0.25379,-5.70632 0.84284,-7.14833 3.47633,-8.51016 2.21261,-1.14419 4.70487,-0.61993 9.78049,2.05736 4.23538,2.23407 4.23538,2.23407 11.46221,2.23407 7.98274,0 7.95658,0.007 13.2807,-3.68633 7.0656,-4.90172 24.72049,-13.03167 32.64647,-15.03343 4.69684,-1.18623 11.23234,-1.74746 21,-1.80335 8.73685,-0.05 9.1535,-0.005 14.25,1.53046 3.3233,1.00139 6.84903,1.68239 9.60716,1.85564 4.35716,0.27368 4.35716,0.27368 11,-2.83752 13.17239,-6.16935 16.21676,-7.8352 21.14041,-11.56773 2.75133,-2.08574 6.96647,-5.01074 9.36696,-6.5 6.66823,-4.13694 15.71127,-12.60514 20.77861,-19.45774 2.33859,-3.1625 6.97928,-8.5625 10.31264,-12 5.37456,-5.54246 6.86934,-7.51044 13.20402,-17.38398 15.10809,-23.54821 18.7896,-31.72345 20.0917,-44.61601 0.94769,-9.38349 -0.88357,-22.31975 -4.50311,-31.81057 -1.14095,-2.99168 -3.05907,-8.42931 -4.26248,-12.08361 -2.4315,-7.38351 -6.09255,-14.78997 -8.57348,-17.3445 -0.89476,-0.92131 -3.54869,-2.92783 -5.89761,-4.45894 -2.34892,-1.5311 -5.39895,-3.6756 -6.77784,-4.76555 -2.53958,-2.00743 -14.5315,-8.31312 -20.48698,-10.77263 -1.7875,-0.73821 -5.725,-2.56369 -8.75,-4.05662 -8.00832,-3.95236 -10.73312,-4.2534 -22.79838,-2.51877 -9.85192,1.41642 -26.60129,5.16708 -30.21685,6.76642 -1.21079,0.53559 -3.16518,1.63558 -4.3431,2.44443 -1.17792,0.80886 -4.50194,2.65398 -7.38671,4.10029 -4.34801,2.17991 -5.75896,3.19272 -8.25,5.92196 -3.63157,3.97885 -8.33961,8.70046 -13.04049,13.07809 -1.91949,1.7875 -4.52231,4.825 -5.78405,6.75 -2.5661,3.91504 -8.27368,14.90203 -10.9092,21 -0.95083,2.2 -2.47253,5.2804 -3.38157,6.84534 -2.52228,4.34222 -2.58381,5.41425 -0.50451,8.79015 3.95548,6.42199 7.87126,16.40882 7.85843,20.04218 -0.0113,3.18417 -2.3165,6.98139 -10.75626,17.71772 -2.79578,3.55655 -4.70412,5.48368 -6.29263,6.3546 -1.25396,0.6875 -3.61075,2.45782 -5.2373,3.93404 -3.41476,3.09914 -5.90238,4.36052 -9.55194,4.84341 -3.14487,0.41612 -3.96438,1.2406 -5.91537,5.9513 -0.79243,1.91332 -2.43322,4.6972 -3.6462,6.18642 -1.21299,1.48922 -2.78205,3.97378 -3.4868,5.52125 -0.70476,1.54747 -2.24946,4.27608 -3.43267,6.06358 -1.69105,2.55472 -2.46961,4.50292 -3.63925,9.10659 -1.6273,6.40497 -1.94465,7.04651 -5.95665,12.04122 -2.32697,2.89696 -2.96883,4.18678 -4.35429,8.75 -1.93471,6.37219 -5.11106,14.91489 -7.47441,20.10219 -0.93969,2.0625 -2.41843,5.775 -3.28609,8.25 -0.86767,2.475 -2.77368,7.3125 -4.23559,10.75 -1.46191,3.4375 -3.21104,7.6 -3.88695,9.25 -0.67592,1.65 -2.23056,5.25191 -3.45476,8.00425 -1.22421,2.75233 -2.62849,6.23983 -3.12062,7.75 -0.49214,1.51016 -1.43161,4.04065 -2.08771,5.62329 -0.6561,1.58265 -1.53025,4.50765 -1.94255,6.5 -0.41231,1.99235 -1.79003,5.75996 -3.0616,8.37246 -1.27157,2.6125 -3.04697,7 -3.94533,9.75 -1.47454,4.51377 -3.17875,9.16511 -6.86985,18.75 -1.88582,4.89702 -4.33942,12.37906 -5.16494,15.75001 -0.40407,1.65 -1.40048,4.94856 -2.21424,7.33013 -1.84788,5.40801 -1.89249,8.26436 -0.18614,11.91987 0.70601,1.5125 1.96364,4.50923 2.79473,6.65942 3.05227,7.89678 15.11247,19.67211 25.47293,24.87124 4.83277,2.42519 14.10704,5.54224 18.43891,6.19725 1.2375,0.18711 3.94384,0.88924 6.0141,1.56028 2.07025,0.67104 5.10776,1.43254 6.75,1.69224 3.96932,0.62767 20.08347,0.19046 25.31838,-0.68695 z"
     id="path251"
     inkscape:connector-curvature="0" />
</svg>
