<?xml version="1.0" encoding="UTF-8" standalone="no"?>
<!-- Created with Inkscape (http://www.inkscape.org/) -->

<svg
   xmlns:dc="http://purl.org/dc/elements/1.1/"
   xmlns:cc="http://creativecommons.org/ns#"
   xmlns:rdf="http://www.w3.org/1999/02/22-rdf-syntax-ns#"
   xmlns:svg="http://www.w3.org/2000/svg"
   xmlns="http://www.w3.org/2000/svg"
   xmlns:sodipodi="http://sodipodi.sourceforge.net/DTD/sodipodi-0.dtd"
   xmlns:inkscape="http://www.inkscape.org/namespaces/inkscape"
   version="1.1"
   id="svg638"
   width="1000"
   height="1000"
   viewBox="0 0 1000 1000"
   sodipodi:docname="Masomeh_bdc_l.svg"
   inkscape:version="0.92.2 5c3e80d, 2017-08-06">
  <metadata
     id="metadata644">
    <rdf:RDF>
      <cc:Work
         rdf:about="">
        <dc:format>image/svg+xml</dc:format>
        <dc:type
           rdf:resource="http://purl.org/dc/dcmitype/StillImage" />
        <dc:title></dc:title>
      </cc:Work>
    </rdf:RDF>
  </metadata>
  <defs
     id="defs642" />
  <sodipodi:namedview
     pagecolor="#ffffff"
     bordercolor="#666666"
     borderopacity="1"
     objecttolerance="10"
     gridtolerance="10"
     guidetolerance="10"
     inkscape:pageopacity="0"
     inkscape:pageshadow="2"
     inkscape:window-width="1144"
     inkscape:window-height="624"
     id="namedview640"
     showgrid="false"
     inkscape:zoom="0.28654948"
     inkscape:cx="293"
     inkscape:cy="600"
     inkscape:window-x="0"
     inkscape:window-y="0"
     inkscape:window-maximized="0"
     inkscape:current-layer="svg638" />
  <path
     style="fill:#000000;stroke-width:0.5"
     d="m 446.86511,851.09331 c -5.96163,-1.29315 -7.89871,-3.484 -10.00781,-11.31885 -1.66634,-6.1901 -2.51596,-12.8228 -2.65627,-20.73665 -0.15429,-8.7022 -0.64043,-7.52675 6.61562,-15.996 2.0625,-2.40735 4.53998,-5.56695 5.50552,-7.02135 0.96863,-1.45905 5.56308,-6.12905 10.25,-10.4185 8.49448,-7.7741 8.49448,-7.7741 18.49448,-12.79709 9.43825,-4.74081 10.28087,-5.06427 15,-5.75804 3.44581,-0.50657 5.69938,-1.13627 7.25,-2.0258 3.14347,-1.8033 4.53996,-2.51332 6.09885,-3.10081 0.74187,-0.27958 1.72419,-1.08118 2.18295,-1.78132 1.26015,-1.92324 5.58095,-19.77985 6.93725,-28.66965 0.65887,-4.3186 1.34234,-10.88949 1.51881,-14.60199 0.53239,-11.20027 2.14098,-27.45404 3.21643,-32.5 1.99947,-9.38147 4.10601,-24.30946 4.56687,-32.36319 0.55965,-9.78014 2.11307,-21.94585 3.46407,-27.12917 0.93563,-3.58965 1.4469,-7.14921 2.51469,-17.50764 0.26931,-2.6125 0.82791,-6.8875 1.24133,-9.5 0.41342,-2.6125 0.74948,-6.4375 0.7468,-8.5 -0.011,-8.46409 1.12365,-27.03203 1.89435,-31 0.86705,-4.46405 1.12793,-10.15304 0.49471,-10.78833 -0.62437,-0.62642 -2.3685,0.48812 -8.58538,5.48624 -3.27704,2.63461 -7.43623,5.52413 -9.24265,6.42115 -2.23516,1.10992 -4.32498,2.72343 -6.54174,5.05075 -4.31699,4.53231 -10.03327,9.29628 -16.75734,13.96563 -6.09118,4.22985 -13.3186,10.4941 -20.9643,18.17045 -2.76964,2.78074 -6.2732,6.02314 -7.7857,7.20533 -1.5125,1.18221 -4.2125,3.63657 -6,5.45415 -3.18881,3.24247 -7.62058,5.88666 -13.11586,7.82551 -4.1779,1.47404 -8.6244,0.56022 -12.2771,-2.52312 -2.84536,-2.40185 -3.2478,-3.76014 -3.43146,-11.5815 -0.20241,-8.61962 -0.12533,-8.76045 6.50205,-11.88018 5.07907,-2.39087 10.62792,-6.33226 11.44763,-8.13132 0.38912,-0.85402 0.3642,-1.73824 -0.0919,-3.26044 -0.77999,-2.6034 -0.27103,-10.43574 0.83215,-12.80583 0.8544,-1.8356 3.81315,-4.56067 6.9874,-6.43555 2.23411,-1.31959 4.30254,-1.69119 14.89705,-2.67631 3.575,-0.33241 7.175,-0.81306 8,-1.0681 0.825,-0.25505 4.2,-2.70812 7.5,-5.45128 9.83893,-8.17872 14.85479,-12.17851 17.5,-13.95502 1.375,-0.92344 4.10928,-3.16247 6.07618,-4.97561 1.9669,-1.81314 6.08937,-5.54662 9.16105,-8.29662 3.07168,-2.75 8.6624,-8.04598 12.42382,-11.76884 6.83895,-6.76884 6.83895,-6.76884 8.96395,-13.26372 1.9461,-5.94811 2.12575,-6.9357 2.13388,-11.73116 0.005,-2.87996 0.23913,-7.26128 0.52054,-9.73628 0.28141,-2.475 0.72191,-7.3125 0.97887,-10.75 0.58301,-7.79892 1.57528,-13.22358 2.89039,-15.8014 1.13689,-2.22849 3.10132,-12.18204 3.10132,-15.71405 0,-4.29427 1.06869,-8.10512 5.23854,-18.68004 2.28899,-5.80498 4.50135,-11.67951 4.91635,-13.05451 1.17102,-3.8799 5.74611,-13.1719 8.13942,-16.53117 1.55836,-2.18733 2.912,-5.18534 4.86242,-10.76921 3.94107,-11.28284 3.58309,-10.56622 11.63577,-23.29343 3.01898,-4.77147 10.46228,-15.55888 13.09361,-18.97626 1.30013,-1.68853 3.58786,-4.81106 5.08382,-6.93896 1.49597,-2.1279 4.77224,-6.08499 7.28061,-8.79355 3.1784,-3.43207 5.13746,-6.0761 6.46369,-8.72373 1.99762,-3.98791 3.75754,-5.65998 8.95614,-8.50902 3.13116,-1.71601 7.28329,-1.77798 11.58403,-0.17288 4.18823,1.56312 5.91578,3.45951 7.27927,7.99073 0.61524,2.04461 1.84499,5.17998 2.73278,6.96748 0.88779,1.7875 2.93477,6.625 4.54886,10.75 2.93469,7.5 2.93469,7.5 2.79779,12.75 -0.0753,2.8875 -0.46287,7.1625 -0.8613,9.5 -0.39843,2.3375 -1.30668,8.1875 -2.01834,13 -1.57047,10.61997 -3.40278,20.19338 -5.02229,26.24035 -0.66428,2.48031 -1.77157,7.68188 -2.46064,11.55906 -1.45982,8.21389 -1.86698,9.59249 -5.00623,16.95059 -1.29059,3.025 -3.41853,8.11586 -4.72876,11.31304 -1.31023,3.19717 -3.05145,6.79717 -3.86939,8 -0.81794,1.20282 -2.0628,3.45846 -2.76635,5.01252 -0.70357,1.55406 -2.83787,4.81656 -4.74289,7.25 -1.90504,2.43344 -4.21194,5.77444 -5.12646,7.42444 -0.91452,1.65 -2.71359,4.2375 -3.99792,5.75 -1.28434,1.5125 -2.97493,3.93419 -3.75687,5.38154 -2.01138,3.72299 -6.22489,8.1936 -9.92462,10.53019 -2.53795,1.60287 -3.83581,2.9472 -6.57218,6.8075 -2.39677,3.38123 -6.44008,7.77666 -13.61035,14.79565 -5.75961,5.63809 -10.39598,10.58399 -10.64932,11.36027 -0.24677,0.75617 -0.70041,3.17485 -1.00808,5.37485 -0.30767,2.2 -0.98089,5.9125 -1.49603,8.25 -1.52485,6.91909 -2.12604,12.69612 -1.75628,16.87672 0.31708,3.58502 0.22312,4.18957 -1.26245,8.12328 -1.50993,3.99817 -1.60876,4.66478 -1.66787,11.25 -0.0346,3.85 -0.22845,7.25627 -0.43086,7.56949 -0.20241,0.31321 -0.72305,2.22571 -1.15698,4.25 -0.58825,2.74424 -0.85298,7.81425 -1.04066,19.93051 -0.19925,12.86372 -0.45261,17.43252 -1.21584,21.92468 -0.66362,3.90589 -0.96414,8.06502 -0.96414,13.34333 0,5.93589 -0.22516,8.60786 -0.9965,11.82531 -0.54807,2.28617 -0.99486,5.05668 -0.99286,6.15668 0.005,2.93982 -1.44005,15.45406 -2.25226,19.5 -0.38644,1.925 -0.95664,5.83765 -1.26712,8.69478 -0.31048,2.85714 -1.11798,7.01963 -1.79445,9.25 -0.96738,3.18953 -1.38059,6.29672 -1.93562,14.55522 -0.68062,10.12731 -1.56355,16.40497 -2.73564,19.45053 -0.30703,0.7978 -0.78472,3.83529 -1.06154,6.75 -0.27682,2.91471 -0.81819,6.76197 -1.20305,8.54947 -0.38485,1.7875 -1.09218,6.68829 -1.57183,10.89066 -0.76568,6.7083 -0.78277,7.72998 -0.14008,8.37268 0.4909,0.4909 2.29152,0.82486 5.46649,1.01385 2.60395,0.155 5.74696,0.539 6.98446,0.85332 2.60088,0.66063 8.90147,0.8084 45.25,1.06127 14.575,0.10138 32.6875,0.3171 40.25,0.47938 7.5625,0.16226 15.1,0.24963 16.75,0.19413 9.24857,-0.31103 10.58701,0.10858 12.47269,3.91027 0.86576,1.74543 0.96086,2.91438 0.865,10.63227 -0.12066,9.71452 -0.61022,11.53522 -3.56554,13.26047 -2.29751,1.34125 -11.13,2.0902 -16.27215,1.3798 -10.95285,-1.51315 -49.31384,-2.09265 -64.5,-0.9744 -3.85,0.2835 -15.775,0.49035 -26.5,0.4597 -10.725,-0.0305 -20.61969,0.15475 -21.9882,0.412 -1.87521,0.35255 -2.86064,0.88965 -4,2.18025 -3.10773,3.5202 -6.21633,8.329 -9.77699,15.12435 -3.57868,6.82975 -3.82911,7.16015 -10.29757,13.5842 -4.14814,4.11965 -7.81018,7.27235 -9.78347,8.4227 -3.14067,1.83095 -7.71382,6.36335 -11.65377,11.54995 -2.26186,2.9776 -9.98109,9.34705 -13,10.72685 -4.02792,1.841 -10.56486,4.61215 -13,5.5109 -3.06319,1.1306 -10.90786,1.22125 -15.70154,0.18145 z m 21.97865,-32.64905 c 3.79777,-2.4312 9.43228,-8.05565 14.81103,-14.78465 2.83902,-3.5517 5.16186,-6.75235 5.16186,-7.1126 0,-1.0625 -1.93185,-0.0835 -8.88254,4.50145 -6.50759,4.2926 -14.24029,11.03145 -16.08686,14.0193 -2.64943,4.28685 0.37828,6.3329 4.99651,3.3765 z M 572.79092,467.56218 c 2.49629,-2.10049 9.11723,-10.28632 11.19891,-13.84583 1.3079,-2.23641 3.56058,-4.80318 7.07822,-8.06514 5.1387,-4.76518 6.03173,-6.0423 7.96576,-11.39182 0.46885,-1.29682 1.97681,-3.88432 3.35102,-5.75 4.02859,-5.46936 7.81993,-13.65998 8.63586,-18.65648 0.41638,-2.54977 1.47188,-6.02675 2.65188,-8.73565 2.56857,-5.89663 5.2986,-14.70817 6.58377,-21.25 0.56726,-2.8875 1.82504,-8.175 2.79507,-11.75 4.97211,-18.3245 5.74425,-23.47861 4.10214,-27.38203 -1.64321,-3.906 -2.9158,-3.00417 -11.0784,7.85078 -2.28764,3.04219 -5.70041,7.24221 -7.58395,9.33339 -2.356,2.61572 -3.72179,4.64397 -4.37701,6.5 -0.52382,1.48382 -1.94371,4.68929 -3.15531,7.12327 -1.2116,2.43398 -3.22869,6.93398 -4.48242,10 -2.70726,6.62063 -4.61722,10.48951 -7.19156,14.56743 -1.0441,1.65394 -3.1785,6.15716 -4.74309,10.00716 -1.5646,3.85 -3.6001,8.50277 -4.52335,10.3395 -2.16276,4.30264 -3.64448,9.56972 -4.19456,14.9105 -0.3287,3.19127 -0.91024,5.30873 -2.33444,8.5 -1.86533,4.17973 -1.89458,4.34093 -1.76897,9.75 0.0914,3.9373 -0.18176,7.22547 -0.96155,11.57289 -1.40752,7.84719 -1.05075,8.96598 2.03198,6.37203 z"
     id="path648"
     inkscape:connector-curvature="0" />
</svg>
