<?xml version="1.0" encoding="UTF-8" standalone="no"?>
<!-- Created with Inkscape (http://www.inkscape.org/) -->

<svg
   xmlns:dc="http://purl.org/dc/elements/1.1/"
   xmlns:cc="http://creativecommons.org/ns#"
   xmlns:rdf="http://www.w3.org/1999/02/22-rdf-syntax-ns#"
   xmlns:svg="http://www.w3.org/2000/svg"
   xmlns="http://www.w3.org/2000/svg"
   xmlns:sodipodi="http://sodipodi.sourceforge.net/DTD/sodipodi-0.dtd"
   xmlns:inkscape="http://www.inkscape.org/namespaces/inkscape"
   version="1.1"
   id="svg935"
   width="1000"
   height="1000"
   viewBox="0 0 1000 1000"
   sodipodi:docname="Masomeh_bdc_n.svg"
   inkscape:version="0.92.2 5c3e80d, 2017-08-06">
  <metadata
     id="metadata941">
    <rdf:RDF>
      <cc:Work
         rdf:about="">
        <dc:format>image/svg+xml</dc:format>
        <dc:type
           rdf:resource="http://purl.org/dc/dcmitype/StillImage" />
        <dc:title></dc:title>
      </cc:Work>
    </rdf:RDF>
  </metadata>
  <defs
     id="defs939" />
  <sodipodi:namedview
     pagecolor="#ffffff"
     bordercolor="#666666"
     borderopacity="1"
     objecttolerance="10"
     gridtolerance="10"
     guidetolerance="10"
     inkscape:pageopacity="0"
     inkscape:pageshadow="2"
     inkscape:window-width="1180"
     inkscape:window-height="698"
     id="namedview937"
     showgrid="false"
     inkscape:zoom="0.1110885"
     inkscape:cx="1026.5"
     inkscape:cy="600"
     inkscape:window-x="0"
     inkscape:window-y="0"
     inkscape:window-maximized="0"
     inkscape:current-layer="svg935" />
  <path
     style="fill:#000000;stroke-width:0.5"
     d="m 845.49817,828.9505 c -1.5125,-0.56195 -5.48535,-1.33035 -8.8286,-1.70755 -8.43955,-0.95225 -14.4697,-3.54185 -20.2493,-8.696 -3.15115,-2.8101 -4.56445,-5.29315 -6.06495,-10.65585 -0.98145,-3.50775 -1.95195,-5.4515 -5.067,-10.14891 -4.54685,-6.85656 -8.7538,-11.46035 -15.3821,-16.83315 -2.6631,-2.15865 -6.1506,-5.42634 -7.75,-7.26154 -1.59945,-1.8352 -5.01845,-5.37993 -7.59785,-7.87719 -7.3577,-7.12342 -21.2301,-24.40542 -23.79475,-29.64316 -2.83885,-5.79765 -3.33235,-7.96423 -3.7918,-16.6473 -0.2401,-4.5375 -0.55965,-9.0375 -0.71015,-10 -0.60365,-3.8605 0.58605,-16.09486 2.1636,-22.25 6.0973,-23.78951 6.57715,-26.17692 6.58255,-32.75 0.007,-7.69683 0.46445,-9.69621 4.97525,-21.71347 4.90365,-13.06397 10.8865,-32.47175 11.78295,-38.22302 0.18745,-1.20257 0.3817,-7.61507 0.43165,-14.25 0.0908,-12.06351 0.0908,-12.06351 2.65605,-17.31351 3.84215,-7.86349 4.1633,-9.3141 4.70435,-21.25 0.548,-12.08886 0.24795,-19.18863 -1.07105,-25.34377 -1.37775,-6.42902 -2.38695,-7.8892 -8.31905,-12.03637 -4.01575,-2.80743 -6.4145,-3.85851 -9.55495,-4.18675 -2.48485,-0.25972 -3.5715,-0.0629 -7.63115,1.38203 -4.7337,1.68486 -4.7337,1.68486 -15.2337,1.71422 -10.33875,0.0289 -10.57385,0.0532 -15.3077,1.58035 -2.6442,0.85304 -7.9028,2.04071 -11.68575,2.63925 -8.49215,1.34365 -9.72775,1.77503 -15.75655,5.50104 -5.76485,3.56289 -7.58355,4.24907 -13.9203,5.25208 -5.8194,0.92113 -8.36335,2.09939 -17.8297,8.25799 -3.85,2.50472 -9.06555,5.67149 -11.59015,7.03728 -2.72685,1.47518 -6.1584,3.90763 -8.4533,5.99213 -2.12475,1.92989 -5.45915,4.43707 -7.40985,5.5715 -4.96705,2.88862 -6.32295,4.28475 -11.06075,11.38902 -5.44615,8.16646 -8.507,11.51381 -13.58865,14.86051 -2.90755,1.9149 -4.8744,3.67856 -6.489,5.81862 -3.50435,4.64483 -5.12325,6.22044 -8.4083,8.1835 -4.482,2.67832 -5.199,3.47998 -7.5012,8.38737 -1.9772,4.21459 -3.8289,7.17322 -10.10855,16.15137 -1.9244,2.75135 -3.00495,5.05891 -4.3838,9.36171 -2.12925,6.64461 -4.82225,12.36415 -9.7132,20.62937 -6.7354,11.38218 -8.192,15.40905 -9.08185,25.10755 -0.29015,3.1625 -0.84075,7.6625 -1.22355,10 -0.3828,2.3375 -1.05025,7.85 -1.48315,12.25 -1.25155,12.71939 -2.53795,20.00622 -4.54585,25.75 -1.83535,5.25 -1.83535,5.25 -0.944,10.25 0.5973,3.35049 0.9068,7.73175 0.93825,13.28049 0.047,8.28049 0.047,8.28049 2.92985,14 3.2418,6.4314 3.91565,9.7903 2.9092,14.5011 -1.2695,5.94201 -4.4962,8.43801 -10.9332,8.45743 -4.8663,0.0147 -6.5103,0.79978 -11.314,5.40307 -4.6829,4.48755 -10.61805,8.15013 -16.4698,10.16352 -3.79985,1.3074 -4.6662,1.40815 -12.82515,1.4915 -7.56045,0.0772 -9.2258,-0.0514 -12.25,-0.94609 -1.925,-0.56951 -4.85,-1.17537 -6.5,-1.34636 -4.22947,-0.4383 -6.0792,-1.09738 -9.43156,-3.36053 -1.61236,-1.08849 -4.76236,-3.06165 -7,-4.38481 -4.43464,-2.62227 -9.5573,-7.55172 -11.19151,-10.76941 -0.55586,-1.09445 -1.40445,-3.78991 -1.88577,-5.98991 -0.48132,-2.2 -1.5208,-5.63919 -2.30997,-7.64263 -2.25256,-5.71853 -2.50977,-7.51112 -1.93847,-13.50987 0.28011,-2.94113 0.85423,-10.185 1.27583,-16.0975 0.4216,-5.9125 0.98436,-13.1125 1.25057,-16 0.60172,-6.52662 1.33361,-20.27211 1.98342,-37.25 0.27365,-7.15 0.85666,-15.5875 1.29558,-18.75 0.6669,-4.80521 0.70797,-6.86186 0.24995,-12.51678 -0.30144,-3.72172 -0.55011,-9.00922 -0.5526,-11.75 -0.002,-2.74077 -0.32934,-7.79572 -0.72632,-11.23322 -0.39697,-3.4375 -0.95983,-10.075 -1.25079,-14.75 -0.81919,-13.16219 -2.08917,-17.71491 -6.1672,-22.10862 -2.87753,-3.10028 -3.69281,-4.77027 -4.35625,-8.92328 -0.68257,-4.2727 -6.11761,-17.07074 -8.37717,-19.72595 -0.93349,-1.09696 -3.39505,-2.85724 -5.75,-4.11189 -2.26475,-1.2066 -6.87055,-4.12834 -10.23509,-6.49276 -8.23682,-5.7884 -9.16896,-6.11221 -16.24889,-5.64452 -6.30942,0.41679 -11.62887,0.48167 -16.21907,0.19781 -2.6151,-0.16171 -3.30092,-0.0201 -4.5,0.92932 -3.50027,2.77143 -5.73657,3.75848 -9.56642,4.22239 -5.19398,0.62914 -10.80388,1.83244 -13.9136,2.9844 -2.58292,0.95681 -4.47886,2.70643 -9.62627,8.88338 -1.20538,1.44647 -4.26646,4.16235 -6.80239,6.03528 -2.8066,2.07283 -5.79897,4.85942 -7.64728,7.12138 -4.11062,5.03056 -5.91655,6.52286 -11.01103,9.09874 -4.56269,2.30701 -7.27295,4.72396 -10.97171,9.78432 -2.30168,3.14899 -3.93277,4.71896 -7.14592,6.87812 -2.25783,1.51721 -8.30063,8.83749 -12.48292,15.12188 -1.1896,1.7875 -3.45036,5.05 -5.02392,7.25 -3.59246,5.02261 -6.0983,9.85472 -5.8862,11.3506 0.1416,0.99866 0.42527,1.13773 2.16297,1.06046 7.31187,-0.32514 7.51273,-0.30858 9.67471,0.79744 3.08203,1.57671 6.16218,4.57447 7.80891,7.60006 1.16796,2.14593 1.41344,3.20268 1.41344,6.08461 0,3.38644 -0.12616,3.7386 -4.34761,12.13536 -4.34761,8.64772 -4.34761,8.64772 -4.82566,14.80959 -0.26293,3.38903 -0.72277,7.22327 -1.02187,8.52052 -0.72566,3.14736 -2.95812,6.40722 -5.95088,8.68953 -2.85237,2.17525 -4.4221,4.26947 -7.79957,10.40568 -2.80086,5.08863 -4.86202,6.90544 -9.16957,8.08252 -1.53004,0.4181 -3.39202,1.03096 -4.13772,1.36191 -0.7457,0.33094 -4.77275,4.18539 -8.949,8.56542 -6.64817,6.97258 -7.82775,8.46605 -9.47791,12 -4.09647,8.77291 -4.53161,11.27593 -4.09168,23.5363 0.0691,1.925 0.0691,9.125 0,16 -0.12559,12.5 -0.12559,12.5 -1.49078,14.8223 -2.94103,5.00292 -7.40509,7.33135 -15.11,7.88129 -4.96809,0.35459 -5.38504,0.47514 -9.11552,2.63535 -4.76645,2.76011 -5.43692,2.97693 -15.15929,4.90213 -10.00438,1.98106 -11.75768,2.58457 -14.76262,5.08153 -3.71413,3.0863 -5.14749,3.52255 -12.98738,3.9529 -4.52901,0.24865 -7.88249,0.6965 -9.5,1.2687 -2.16832,0.76705 -5.12024,0.9223 -22.25,1.1701 -19.75,0.2857 -19.75,0.2857 -29,3.40135 -5.0875,1.7136 -11.3875,3.59675 -14.000002,4.1848 -2.6125,0.588 -8.125,2.37085 -12.25,3.96185 -9.57937,3.6947 -9.76148,3.74 -22.112145,5.49765 -15.196685,2.16275 -17.88112,1.97215 -20.7819,-1.4752 -2.79798,-3.3252 -2.853865,-4.0381 -2.94338,-37.54684 -0.07452,-27.8975 -0.0025,-30.97681 0.77964,-33.32317 1.033245,-3.09974 4.171285,-6.8197 6.94775,-8.23615 1.831985,-0.93461 2.552885,-0.99801 7.814105,-0.68721 6.284315,0.37124 10.57,-0.28376 19.476065,-2.9766 2.29907,-0.69515 6.98746,-1.82259 10.41864,-2.50543 3.431175,-0.68284 8.862615,-2.01012 12.069865,-2.94951 7.534942,-2.20696 7.765312,-2.25596 14.566902,-3.09816 5.08458,-0.62959 11.34116,-2.20033 27.89603,-7.00342 1.557,-0.45174 2.92583,-1.2126 3.35219,-1.86331 0.75768,-1.15636 2.61599,-6.43191 8.22324,-23.34495 1.86903,-5.6375 4.31262,-12.5 5.43021,-15.25 1.14666,-2.82154 2.58986,-7.72699 3.31242,-11.25897 0.70423,-3.44243 2.20111,-8.70215 3.32638,-11.68826 1.12528,-2.98612 2.48734,-7.45166 3.02681,-9.92343 1.22603,-5.61749 1.74285,-6.6077 5.69838,-10.91797 3.12828,-3.40882 4.24796,-5.35172 8.03663,-13.94536 2.50071,-5.6722 4.32007,-8.69905 7.30248,-12.14901 3.40871,-3.9431 5.49354,-7.5464 7.67756,-13.26947 2.79416,-7.32193 3.82273,-8.81931 10.71417,-15.59753 4.27369,-4.20349 7.15884,-7.53475 8.81117,-10.17358 2.2488,-3.59141 6.3748,-9.50421 11.29692,-16.18916 1.05806,-1.43701 4.45188,-4.65946 7.54181,-7.161 6.41437,-5.19294 17.02599,-16.18415 19.11007,-19.79364 3.16912,-5.48874 4.72398,-7.11357 9.78107,-10.22127 3.74253,-2.29986 5.89633,-4.08697 8.92874,-7.40857 2.68397,-2.93994 4.7028,-4.6778 6.14731,-5.29176 6.59743,-2.80411 7.68272,-3.44856 10.72106,-6.36611 1.79568,-1.7243 4.48438,-4.87547 5.9749,-7.0026 2.27544,-3.24729 3.77202,-4.6586 9.33247,-8.80071 3.64234,-2.71327 8.30994,-5.88356 10.37244,-7.0451 5.2526,-2.9581 9.74521,-6.67545 20.97868,-17.35855 2.34923,-2.23413 5.22188,-4.65211 6.38367,-5.37329 2.73618,-1.69848 3.44212,-2.86189 4.13506,-6.81466 1.12819,-6.43567 4.35288,-11.12809 9.28969,-13.51796 5.30702,-2.56909 9.20478,-1.64797 13.9629,3.29969 3.68184,3.8285 6.66773,4.93376 13.25,4.90462 3.83851,-0.017 4.75268,-0.22579 9.44187,-2.15657 4.58987,-1.88989 5.54737,-2.11513 8.25782,-1.94254 2.09207,0.13322 4.09583,0.68813 6.30814,1.74696 4.77837,2.28698 5.63933,2.35894 11.1359,0.93081 8.1039,-2.10557 9.37314,-1.87162 18.06228,3.32931 4.17007,2.49602 7.43921,4.94275 10.54399,7.89147 3.17411,3.01456 5.71828,4.90746 8.63477,6.4244 2.27413,1.18283 5.53663,3.21612 7.25,4.51843 1.71338,1.3023 4.46523,3.11947 6.11523,4.03815 1.65,0.91869 4.81743,2.98752 7.03873,4.59741 3.34746,2.42607 4.75704,3.10584 8.23535,3.97155 5.67603,1.41268 8.58752,2.7011 18.10497,8.01195 11.22535,6.26389 12.1519,7.25374 13.90115,14.85117 0.68565,2.97783 1.51475,5.17102 2.38535,6.30976 0.73395,0.95999 3.27155,4.2963 5.6391,7.41401 5.1668,6.80386 8.14825,9.55795 11.1709,10.31906 2.93095,0.73803 4.0414,0.7045 5.73885,-0.17326 1.2191,-0.63042 11.4785,-13.06603 18.5777,-22.51842 1.23925,-1.65 4.043,-4.45183 6.23055,-6.2263 2.18755,-1.77446 6.56485,-5.85107 9.72735,-9.05914 6.5382,-6.63241 7.4034,-7.33863 17.44165,-14.23668 5.92545,-4.07184 7.876,-5.72691 10.30835,-8.74684 4.6268,-5.74451 7.6848,-8.55337 11.649,-10.69993 1.9998,-1.08289 5.5969,-3.62246 7.99355,-5.64348 2.3966,-2.02103 6.04495,-4.82867 8.10745,-6.2392 2.0625,-1.41054 5.2125,-3.72147 7,-5.13541 1.7875,-1.41395 3.82655,-2.92909 4.5312,-3.36698 1.4113,-0.87704 13.762,-5.59044 17.7188,-6.76204 1.375,-0.40714 5.133,-1.94334 8.35115,-3.41377 9.34825,-4.27145 20.5924,-7.18129 31.89885,-8.25498 2.8875,-0.2742 8.2483,-1.04994 11.91285,-1.72386 7.04845,-1.29622 19.87515,-2.83666 31.08715,-3.73344 6.22835,-0.49817 7.0398,-0.68289 10.5,-2.39006 4.79165,-2.36407 7.7418,-2.43675 14.5,-0.35721 4.35495,1.34004 5.249,1.44657 10.75,1.28081 13.9809,-0.42129 15.01835,-0.33954 21.5,1.69429 19.7404,6.1942 20.034,6.26422 26.26815,6.26422 12.6696,0 16.35325,1.96335 18.6875,9.96029 1.12765,3.86326 1.84585,4.73365 5.82205,7.05589 4.29405,2.50785 5.49445,4.23314 10.75765,15.46134 5.38295,11.48367 5.84125,13.63637 6.01875,28.27248 0.08,6.6 0.2964,14.925 0.4808,18.5 0.3353,6.5 0.3353,6.5 -1.74125,12 -2.9229,7.7417 -3.57555,12.02835 -3.9967,26.25 -0.30395,10.26407 -0.55575,13.07931 -1.55325,17.36552 -1.1883,5.10585 -1.18895,5.12569 -0.33715,10.5 0.4694,2.96146 0.85115,6.04656 0.84845,6.85577 -0.005,1.64222 -3.4204,16.21314 -5.33845,22.77871 -1.16835,3.99952 -1.20735,4.50715 -0.6617,8.61316 0.3189,2.39974 0.42215,5.09974 0.2295,6 -0.42215,1.97233 -6.44785,20.17712 -8.957,27.06082 -1.92475,5.28029 -2.4296,8.04794 -3.25195,17.82602 -0.2891,3.4375 -0.8861,8.58139 -1.3267,11.43087 -1.25285,8.10294 -0.78205,18.98355 1.1851,27.38681 1.652,7.05729 2.31025,8.63116 5.74385,13.73409 1.4567,2.1649 2.51645,4.48906 3.07775,6.75 1.32065,5.31938 2.2211,6.8322 4.5446,7.63524 1.92255,0.66447 12.4369,1.01985 36.75,1.24213 7.61655,0.0696 7.80165,0.0457 10.75,-1.3914 3.16135,-1.54091 3.2004,-1.54476 13.25,-1.30639 3.6512,0.0866 5.55965,-0.13255 8.25,-0.94737 1.925,-0.58302 6.05705,-1.61836 9.1824,-2.30077 3.1253,-0.6824 9.5153,-2.50094 14.2,-4.04119 12.63755,-4.15502 16.42635,-4.15986 20.2369,-0.0259 3.45095,3.74385 6.1652,14.37071 6.2791,24.58387 0.28415,25.48699 -0.0335,50.35426 -0.68945,53.99556 -0.6934,3.84856 -2.5093,7.17993 -4.74935,8.71322 -1.4536,0.99495 -2.71185,1.28384 -7.1128,1.63312 -7.887,0.62595 -10.36955,1.18389 -12.9167,2.90295 -6.2521,4.21945 -10.3737,5.4875 -19.4301,5.97775 -5.9559,0.3224 -7.50525,0.58515 -10.38745,1.76135 -3.55515,1.4508 -7.1968,3.7147 -11.9658,7.4387 -1.56925,1.2254 -3.93175,2.6192 -5.25,3.0973 -3.62555,1.3149 -9.9158,3.89355 -14.48805,5.93925 -6.411,2.86845 -9.90625,3.43245 -21.9087,3.5353 -5.775,0.0495 -12.525,0.23795 -15,0.4189 -3.83465,0.28031 -4.9066,0.17785 -7.25,-0.69275 z"
     id="path945"
     inkscape:connector-curvature="0" />
</svg>
