<?xml version="1.0" encoding="UTF-8" standalone="no"?>
<!-- Created with Inkscape (http://www.inkscape.org/) -->

<svg
   xmlns:dc="http://purl.org/dc/elements/1.1/"
   xmlns:cc="http://creativecommons.org/ns#"
   xmlns:rdf="http://www.w3.org/1999/02/22-rdf-syntax-ns#"
   xmlns:svg="http://www.w3.org/2000/svg"
   xmlns="http://www.w3.org/2000/svg"
   xmlns:sodipodi="http://sodipodi.sourceforge.net/DTD/sodipodi-0.dtd"
   xmlns:inkscape="http://www.inkscape.org/namespaces/inkscape"
   version="1.1"
   id="svg358"
   width="1000"
   height="1000"
   viewBox="0 0 1000 1000"
   sodipodi:docname="Masomeh_bdc_ê.svg"
   inkscape:version="0.92.2 5c3e80d, 2017-08-06">
  <metadata
     id="metadata364">
    <rdf:RDF>
      <cc:Work
         rdf:about="">
        <dc:format>image/svg+xml</dc:format>
        <dc:type
           rdf:resource="http://purl.org/dc/dcmitype/StillImage" />
        <dc:title></dc:title>
      </cc:Work>
    </rdf:RDF>
  </metadata>
  <defs
     id="defs362" />
  <sodipodi:namedview
     pagecolor="#ffffff"
     bordercolor="#666666"
     borderopacity="1"
     objecttolerance="10"
     gridtolerance="10"
     guidetolerance="10"
     inkscape:pageopacity="0"
     inkscape:pageshadow="2"
     inkscape:window-width="1027"
     inkscape:window-height="480"
     id="namedview360"
     showgrid="false"
     inkscape:zoom="0.19666667"
     inkscape:cx="364"
     inkscape:cy="600"
     inkscape:window-x="0"
     inkscape:window-y="0"
     inkscape:window-maximized="0"
     inkscape:current-layer="svg358" />
  <path
     style="fill:#000000;stroke-width:0.5"
     d="m 598.58899,848.72909 c -2.475,-0.5523 -5.9625,-1.3284 -7.75,-1.72465 -3.92101,-0.8692 -17.06133,-7.02905 -23.64508,-11.08425 -2.62208,-1.615 -6.75584,-3.7621 -9.18616,-4.77125 -2.43032,-1.00915 -5.58386,-2.7931 -7.00788,-3.96435 -1.42402,-1.1712 -4.32329,-3.5483 -6.44283,-5.28235 -2.11955,-1.7341 -5.34194,-3.90725 -7.16089,-4.8293 -4.34613,-2.203 -5.69866,-3.72005 -10.49162,-11.76785 -5.59807,-9.39963 -6.33475,-10.40612 -8.30382,-11.34511 -2.79758,-1.33406 -3.8883,-0.48719 -6.5427,5.08001 -2.46186,5.1633 -3.4068,6.124 -8.55529,8.6976 -2.31194,1.1557 -3.65948,2.2877 -5.37089,4.51185 -2.4425,3.1742 -3.72465,4.113 -9.71901,7.11625 -3.54643,1.77685 -6.96939,3.9952 -12.57383,8.14885 -3.52958,2.6159 -5.24776,3.3045 -10.02644,4.0184 -3.28874,0.49125 -5.1457,1.07545 -7.08969,2.23035 -7.06453,4.19695 -10.4739,5.5367 -15.19924,5.97275 -3.80919,0.3515 -5.03275,0.6955 -7.49359,2.10695 -2.63813,1.5131 -3.48175,1.72325 -8.19104,2.04035 -2.8875,0.1944 -6.74723,0.5104 -8.57718,0.70225 -1.82995,0.1918 -4.10366,0.20305 -5.05267,0.025 -2.97856,-0.5588 -11.75114,-6.56575 -16.78191,-11.4913 -4.78741,-4.68725 -6.01637,-6.49555 -7.65855,-11.2686 -0.52085,-1.5139 -1.82051,-4.1122 -2.88815,-5.77405 -2.1372,-3.3267 -7.54154,-18.53556 -7.54154,-21.22332 0,-2.24915 1.14511,-4.69587 2.81441,-6.01343 1.26714,-1.00014 1.75827,-1.08897 4.18559,-0.75708 1.5125,0.20679 7.025,0.39766 12.25,0.42414 9.39292,0.0476 9.55917,0.0297 14.75,-1.58889 8.05335,-2.51115 20.51855,-6.00598 22.75,-6.37835 1.1,-0.18356 4.16495,-1.33011 6.811,-2.54789 2.64606,-1.21779 6.24605,-2.45267 8,-2.74419 1.89525,-0.315 5.21812,-1.50567 8.19064,-2.93491 5.02945,-2.41825 6.71496,-3.73192 17.99613,-14.02611 2.82984,-2.58225 4.54527,-3.66781 8.17053,-5.17046 2.52377,-1.04608 4.92461,-2.38158 5.33519,-2.96777 1.10636,-1.57957 0.90949,-4.05492 -0.55189,-6.93882 -1.40061,-2.76396 -3.81627,-9.52776 -6.39449,-17.90447 -0.88873,-2.8875 -2.55423,-7.63986 -3.70112,-10.5608 -2.66748,-6.79364 -3.60599,-10.43876 -3.60599,-14.00548 0,-3.37009 -3.156,-16.90425 -6.10572,-26.18372 -2.05527,-6.46563 -2.06692,-6.54627 -2.20427,-15.25 -0.0759,-4.8125 -0.37742,-12.125 -0.66996,-16.25 -0.29254,-4.125 -0.75331,-10.65 -1.02394,-14.5 -1.3626,-19.38476 0.76287,-38.529 5.51836,-49.70423 0.84534,-1.98653 2.22424,-5.56575 3.06422,-7.95382 1.86298,-5.29652 8.01973,-17.58256 11.42462,-22.79834 1.37613,-2.10801 3.16053,-5.13719 3.96534,-6.73151 2.29623,-4.54881 4.96599,-6.43699 11.39879,-8.06175 1.45952,-0.36865 2.54701,-1.08398 3.5,-2.30227 1.74306,-2.22829 3.56012,-3.1988 5.98273,-3.19545 2.14244,0.003 2.63513,0.28713 9.48227,5.46881 11.55694,8.74589 20.90165,17.00116 24.9205,22.01516 1.43863,1.79487 4.50149,6.35467 6.80638,10.13288 2.30487,3.77821 4.93008,8.05322 5.83379,9.5 0.90372,1.44678 2.17761,4.43052 2.83089,6.63052 2.59519,8.73969 4.18939,15.13165 4.42817,17.75485 0.13793,1.51516 1.16734,5.53574 2.28759,8.93461 2.36336,7.17054 4.56024,16.54158 4.56024,19.45223 0,1.1117 0.53634,6.03461 1.19186,10.9398 1.00152,7.49427 1.17252,10.67516 1.07074,19.91851 -0.11608,10.54123 -0.18794,11.26067 -1.72295,17.25 -0.88101,3.4375 -1.78706,8.52179 -2.01347,11.29841 -0.2598,3.18634 -0.78363,5.88937 -1.42018,7.32842 -0.99699,2.25384 -3.8933,11.15946 -6.62584,20.37317 -2.67852,9.03161 -4.48016,16.95215 -4.48016,19.69614 0,1.51505 -0.24687,3.94696 -0.5486,5.40425 -0.48122,2.32419 -0.9643,3.04876 -3.93342,5.89961 -1.86166,1.7875 -4.39867,4.825 -5.63781,6.75 -1.23913,1.925 -3.18159,4.38941 -4.31657,5.47648 -1.13498,1.08705 -2.0636,2.17054 -2.0636,2.40775 0,0.87639 5.13127,9.08296 7.1567,11.44587 3.0305,3.53547 5.41537,5.02952 8.74645,5.47939 4.92062,0.66453 6.83606,1.44659 10.29565,4.20361 2.62359,2.0908 3.98552,2.80388 6.2062,3.24946 1.56475,0.31398 4.9825,1.20776 7.595,1.98619 11.66159,3.47475 17.44229,4.39705 21.11583,3.36903 0.75121,-0.21023 2.13664,-1.05901 3.07873,-1.88617 0.9421,-0.82717 3.91885,-2.84893 6.61501,-4.49278 4.28124,-2.61028 5.22118,-2.9885 7.42127,-2.98627 4.36744,0.005 8.02333,3.11642 9.4991,8.08586 0.77184,2.59906 1.94053,9.73963 2.72698,16.66158 0.28121,2.475 0.43872,9.6844 0.35003,16.02095 -0.13212,9.43905 -0.31044,11.83335 -0.98679,13.25 -1.49695,3.13535 -9.4148,11.60005 -12.36018,13.21385 -2.58852,1.41825 -3.01249,1.48945 -9.45998,1.5891 -5.22833,0.0808 -7.76444,-0.12205 -11.25,-0.8999 z M 515.22873,721.44126 c 2.87884,-3.05246 6.90001,-8.68013 8.4931,-11.88617 4.10076,-8.25269 12.73142,-31.69488 15.37098,-41.75 0.90238,-3.4375 2.22944,-7.8022 2.94901,-9.69934 1.95109,-5.14398 2.63194,-8.23152 3.75992,-17.05066 0.83553,-6.53253 0.93383,-8.77959 0.53589,-12.25 -0.38482,-3.35599 -0.31885,-5.26389 0.31362,-9.06987 0.76689,-4.61482 0.75446,-5.18429 -0.29224,-13.38649 -1.02566,-8.03743 -2.66279,-15.50762 -3.90878,-17.83579 -0.98963,-1.84913 -4.85292,-5.01287 -7.88237,-6.45505 -2.19297,-1.04398 -3.9776,-1.47784 -6.76447,-1.64452 -4.47222,-0.26748 -5.91401,0.30524 -9.7144,3.85886 -1.375,1.28572 -3.88535,3.27578 -5.57855,4.42236 -4.35016,2.94576 -5.16908,4.13926 -5.18243,7.55293 -0.007,1.76819 -0.39584,3.64053 -1.05057,5.05757 -0.57177,1.2375 -1.4811,3.57082 -2.02072,5.18517 -0.53963,1.61434 -1.53911,3.81903 -2.22106,4.8993 -1.91674,3.03632 -2.09211,3.78404 -2.99312,12.76118 -0.95967,9.56173 -1.07322,31.54319 -0.19467,37.68491 0.29263,2.04569 1.07736,8.10694 1.74384,13.46944 1.14553,9.21695 2.12944,15.24449 5.06031,31 2.03341,10.93101 4.45635,17 6.78698,17 0.56755,0 1.82293,-0.83872 2.78973,-1.86383 z m 88.11015,-110.26117 c -0.90639,-0.61875 -2.30062,-2.2872 -3.09829,-3.70767 -2.00621,-3.57265 -6.62127,-16.08142 -8.41944,-22.82032 -3.45993,-12.96651 -4.70096,-16.89249 -7.04051,-22.27257 -2.6616,-6.12065 -6.47177,-18.30887 -7.37467,-23.59057 -0.30708,-1.79638 -2.04235,-7.19638 -3.85614,-12 -1.8138,-4.80363 -4.37948,-11.88387 -5.7015,-15.73387 -1.32203,-3.85 -2.98234,-8.58695 -3.68957,-10.52656 -0.70723,-1.93961 -1.63342,-5.65211 -2.0582,-8.25 -2.20379,-13.47798 -4.15922,-22.08277 -7.76643,-34.17589 -1.07418,-3.60115 -2.30117,-8.59552 -2.72665,-11.09861 -0.89599,-5.27109 -4.61237,-19.15389 -5.37374,-20.07394 -0.97641,-1.17993 -1.87989,-0.62106 -3.19657,1.97727 -0.72528,1.43126 -2.58532,3.85088 -4.13343,5.37696 -1.70926,1.68492 -3.4593,4.08732 -4.45588,6.11685 -1.99012,4.0529 -3.73314,5.60472 -7.49666,6.67436 -5.46808,1.55409 -6.17412,2.10175 -8.35351,6.47956 -3.42287,6.87565 -7.4373,9.73075 -13.72445,9.76098 -3.47598,0.0167 -5.84476,1.39601 -11.5381,6.71843 -4.51052,4.21667 -5.9588,5.23333 -10.7867,7.57205 -3.06716,1.48578 -7.10523,3.82978 -8.97348,5.2089 -2.41482,1.78259 -4.62234,2.88958 -7.63594,3.82917 -2.33151,0.72693 -5.38907,2.09591 -6.79457,3.04218 -1.4055,0.94628 -3.11796,2.00842 -3.80546,2.36033 -3.00211,1.53669 -10.59304,3.74982 -14.52281,4.23411 -2.60137,0.32059 -7.19775,1.51003 -11.75,3.04064 -11.36425,3.82101 -18.9124,5.61709 -22.22719,5.28895 -1.5125,-0.14973 -7.025,-0.51659 -12.25,-0.81526 -11.93193,-0.68204 -13.89103,-1.22805 -17.95767,-5.00493 -1.67328,-1.55406 -4.32821,-3.64122 -5.89985,-4.63816 -2.81478,-1.7855 -4.83815,-4.1347 -7.87474,-9.14285 -1.17818,-1.94313 -1.65067,-3.48613 -1.99678,-6.52078 -0.24937,-2.18644 -0.9608,-5.20348 -1.58095,-6.70455 -1.67081,-4.04414 -1.66937,-11.66846 0.003,-15.36893 1.42604,-3.15563 4.96459,-6.50221 8.92283,-8.43881 2.46031,-1.20371 3.58643,-1.40894 9.0961,-1.6577 3.45849,-0.15615 6.59938,-0.47993 6.97975,-0.7195 0.38037,-0.23957 3.50565,-0.6181 6.94507,-0.84117 3.78245,-0.24531 8.84364,-0.99904 12.80842,-1.90748 3.60521,-0.82604 8.69243,-1.96642 11.30493,-2.53416 2.6125,-0.56775 7.225,-2.05695 10.25,-3.30936 3.025,-1.2524 8.425,-3.14251 12,-4.20023 6.59099,-1.95006 8.59709,-2.74693 22,-8.7389 4.125,-1.84414 10.0875,-4.31097 13.25,-5.48184 3.1625,-1.17088 6.875,-2.70326 8.25,-3.40531 4.13446,-2.11097 11.05144,-7.3047 14.37478,-10.79355 1.71887,-1.80447 6.7483,-7.00491 11.17652,-11.55656 4.42821,-4.55164 9.43557,-10.12014 11.12747,-12.37444 1.69189,-2.2543 4.22008,-5.4043 5.61819,-7 4.53418,-5.17497 9.87117,-12.91474 12.18843,-17.67581 2.2424,-4.60726 2.26481,-4.70471 2.28529,-9.93917 0.0113,-2.90746 0.3192,-8.36172 0.68405,-12.12058 0.53289,-5.4899 0.88881,-7.19904 1.80936,-8.68852 1.5626,-2.52833 4.79044,-3.94885 8.08605,-3.55853 2.91193,0.34487 4.881,1.64703 6.87658,4.54751 1.13523,1.65001 2.15253,2.41762 4.37617,3.30212 1.59341,0.6338 3.54208,1.59797 4.33037,2.14258 2.02772,1.40089 3.2926,4.49605 3.30576,8.08913 0.009,2.5056 0.3531,3.68425 2.08697,7.15198 2.6601,5.32021 2.91991,7.7816 1.41316,13.38839 -1.10722,4.12011 -1.11684,4.34008 -0.31558,7.22203 1.27847,4.5984 1.08385,7.98347 -0.69155,12.02857 -1.44108,3.28335 -1.5026,3.69292 -1.21431,8.0838 0.16703,2.54388 0.83852,6.98773 1.49221,9.87523 0.65369,2.8875 1.42468,6.6 1.71332,8.25 1.73656,9.92697 2.62893,13.43733 4.49239,17.67191 2.31036,5.25011 2.83846,8.21198 3.29036,18.45414 0.17293,3.91934 0.54101,7.85684 0.81796,8.75 0.27695,0.89317 0.68544,4.99895 0.90776,9.12395 0.37275,6.91622 0.54487,7.8639 2.21125,12.17517 0.99387,2.57135 1.80704,4.99426 1.80704,5.38425 0,0.38998 0.76737,3.12366 1.70528,6.07482 0.9379,2.95117 2.75087,8.85326 4.02882,13.11576 1.27794,4.2625 2.6465,8.8 3.04124,10.08334 0.39475,1.28333 1.50112,3.64844 2.45861,5.25579 0.95829,1.60868 2.20201,4.77513 2.76661,7.04367 0.56415,2.26667 1.2655,4.73906 1.55856,5.49421 0.29306,0.75514 0.72317,3.51477 0.95579,6.13249 0.33444,3.76346 0.96286,6.27478 3.00281,12 1.41893,3.98228 2.9856,8.5905 3.48151,10.2405 2.9368,9.7714 5.01113,18.05381 5.49255,21.93073 0.30261,2.43691 1.19469,6.37441 1.9824,8.75 2.0732,6.25237 2.21641,8.02718 1.25837,15.59506 -0.8747,6.90958 -1.69649,9.35102 -3.80889,11.3159 -2.61192,2.42951 -7.1815,2.90532 -9.92377,1.03331 z"
     id="path368"
     inkscape:connector-curvature="0" />
</svg>
