<?xml version="1.0" encoding="UTF-8" standalone="no"?>
<!-- Created with Inkscape (http://www.inkscape.org/) -->

<svg
   xmlns:dc="http://purl.org/dc/elements/1.1/"
   xmlns:cc="http://creativecommons.org/ns#"
   xmlns:rdf="http://www.w3.org/1999/02/22-rdf-syntax-ns#"
   xmlns:svg="http://www.w3.org/2000/svg"
   xmlns="http://www.w3.org/2000/svg"
   xmlns:sodipodi="http://sodipodi.sourceforge.net/DTD/sodipodi-0.dtd"
   xmlns:inkscape="http://www.inkscape.org/namespaces/inkscape"
   version="1.1"
   id="svg178"
   width="1000"
   height="1000"
   viewBox="0 0 1000 1000"
   sodipodi:docname="Masomeh_beau.svg"
   inkscape:version="0.92.2 5c3e80d, 2017-08-06">
  <metadata
     id="metadata184">
    <rdf:RDF>
      <cc:Work
         rdf:about="">
        <dc:format>image/svg+xml</dc:format>
        <dc:type
           rdf:resource="http://purl.org/dc/dcmitype/StillImage" />
        <dc:title></dc:title>
      </cc:Work>
    </rdf:RDF>
  </metadata>
  <defs
     id="defs182" />
  <sodipodi:namedview
     pagecolor="#ffffff"
     bordercolor="#666666"
     borderopacity="1"
     objecttolerance="10"
     gridtolerance="10"
     guidetolerance="10"
     inkscape:pageopacity="0"
     inkscape:pageshadow="2"
     inkscape:window-width="1027"
     inkscape:window-height="480"
     id="namedview180"
     showgrid="false"
     inkscape:zoom="0.19666667"
     inkscape:cx="441"
     inkscape:cy="600"
     inkscape:window-x="5"
     inkscape:window-y="24"
     inkscape:window-maximized="0"
     inkscape:current-layer="svg178" />
  <path
     style="fill:#000000;stroke-width:0.5"
     d="m 405.2613,867.74302 c -2.39915,-0.4014 -5.37469,-1.3126 -7.05348,-2.1601 -3.76757,-1.90185 -10.17945,-3.5236 -13.93117,-3.5236 -3.94578,0 -5.90105,-1.2915 -7.75912,-5.125 -1.75878,-3.62865 -2.58411,-3.6813 -6.18092,-0.394 -1.67015,1.52645 -3.36787,2.60355 -4.41251,2.79955 -2.14379,0.40215 -4.78017,-0.45205 -6.26146,-2.0288 -0.62999,-0.6706 -2.66828,-1.8012 -4.52954,-2.5124 -4.15575,-1.588 -5.54669,-2.8294 -6.74301,-6.01805 -0.50995,-1.35925 -1.6701,-3.5653 -2.57813,-4.9024 -2.65213,-3.9054 -2.09694,-7.7837 1.50787,-10.53325 2.15481,-1.64355 4.82874,-2.56375 9.51323,-3.27385 2.08543,-0.3161 5.03173,-1.0106 6.54734,-1.54325 3.6009,-1.26565 5.08407,-1.22215 9.03494,0.26495 2.67547,1.00705 4.12342,1.2244 7.88641,1.18375 2.5351,-0.0275 5.24266,0.20505 6.01682,0.5165 2.30765,0.92835 3.63411,0.66125 5.83091,-1.1741 1.14569,-0.9572 3.02323,-1.97025 4.1723,-2.25115 5.66765,-1.3857 7.30119,-2.08315 8.7536,-3.73735 1.49556,-1.70335 1.49556,-1.70335 1.31726,-13.36225 -0.0981,-6.41239 -0.33501,-17.64376 -0.52654,-24.95858 -0.32819,-12.53394 -0.2891,-13.49835 0.67888,-16.75 0.56491,-1.89768 1.41309,-5.44048 1.88482,-7.87291 1.21036,-6.24092 0.92739,-8.19347 -2.51113,-17.32741 -0.72366,-1.9223 -0.76662,-2.75975 -0.29493,-5.75 0.44388,-2.81385 0.40282,-4.33318 -0.20944,-7.75 -0.90732,-5.06357 -0.5814,-10.49259 0.86538,-14.41477 1.10374,-2.99224 1.00399,-4.62112 -0.70179,-11.45881 -1.1974,-4.79982 -0.98116,-6.87907 0.95468,-9.17969 1.72634,-2.05164 3.94412,-2.94673 7.30117,-2.94673 3.36006,0 3.78647,-0.47324 4.37623,-4.85694 0.25107,-1.86618 0.59457,-4.42349 0.76333,-5.68291 0.23667,-1.76624 -0.003,-3.18829 -1.0493,-6.21892 -1.24796,-3.61567 -1.31094,-4.15877 -0.7896,-6.80872 0.34607,-1.75903 0.43584,-4.61097 0.23069,-7.32866 -0.26346,-3.48996 -0.15784,-4.985 0.48997,-6.93539 0.74796,-2.25187 0.75417,-2.68951 0.0659,-4.64028 -1.08385,-3.07193 -0.93441,-5.88248 0.47357,-8.90673 0.67307,-1.4457 1.47818,-4.03159 1.78914,-5.7464 0.79083,-4.36118 1.49612,-5.79698 4.11398,-8.37505 1.25659,-1.2375 2.84236,-3.2625 3.52393,-4.5 1.73198,-3.1447 3.38785,-4.25935 6.25202,-4.20852 3.30973,0.0587 5.88943,1.58231 9.37045,5.53416 5.56954,6.32288 5.48394,6.12131 5.34711,12.59186 -0.067,3.16777 0.10634,6.09013 0.39296,6.62568 0.28203,0.52699 1.60752,1.51291 2.94551,2.19092 4.16031,2.10819 5.85537,5.35919 5.05735,9.69964 -0.23422,1.27394 -0.58361,4.22876 -0.77643,6.56626 -0.25996,3.15145 -0.77251,5.21931 -1.98291,8 -2.4147,5.54735 -3.41804,10.49233 -3.01587,14.8638 0.32099,3.48918 0.26232,3.76607 -1.70163,8.02954 -2.17892,4.73016 -2.18695,4.94231 -0.34877,9.2156 0.4398,1.02242 0.79964,2.95766 0.79964,4.30053 0,1.69894 0.40541,3.18663 1.33288,4.89106 1.04241,1.91565 1.42951,3.53913 1.77623,7.44947 0.24384,2.75 0.563,6.14913 0.70925,7.55362 0.18756,1.80119 -0.0411,3.54779 -0.77623,5.92767 -1.21376,3.92972 -1.28421,7.16203 -0.3402,15.60978 1.07431,9.61378 0.0425,16.50573 -3.24912,21.70271 -1.83546,2.89791 -1.81963,3.55841 0.14382,6.00166 1.4091,1.75343 1.63423,2.46945 1.91666,6.09568 0.20417,2.62142 0.72162,4.9708 1.42937,6.48979 0.90527,1.94288 1.08907,3.13873 0.99909,6.5 -0.0607,2.2655 0.17007,5.10787 0.51272,6.31638 0.4801,1.6933 0.49378,2.93933 0.0596,5.43236 -0.32136,1.8454 -0.41948,4.6952 -0.22842,6.63417 0.21186,2.15008 0.10576,4.35443 -0.28876,5.99898 -0.51893,2.1631 -0.50806,2.6731 0.0647,3.03585 1.39467,0.8834 9.46206,0.4158 18.9232,-1.0968 1.77916,-0.2844 5.63613,-1.50065 8.57106,-2.7027 2.93492,-1.2021 6.71003,-2.4347 8.38914,-2.7392 1.6791,-0.30445 4.00962,-0.89375 5.17894,-1.30952 1.16932,-0.41576 3.681,-1.08547 5.58152,-1.48824 1.90051,-0.40276 4.93801,-1.16255 6.75,-1.68843 1.81198,-0.52587 4.41952,-1.09896 5.79452,-1.27353 1.375,-0.17458 4.6375,-1.00034 7.25,-1.83503 6.44036,-2.05769 12.01653,-2.43725 14.81699,-1.00856 5.63594,2.87524 8.38885,9.89576 5.54635,14.14441 -0.65586,0.98035 -2.40067,2.3721 -4.125,3.29035 -1.64359,0.87525 -3.66334,2.3676 -4.48834,3.3163 -2.25807,2.59665 -3.84986,3.3857 -7.84121,3.88685 -2.46973,0.3101 -3.9412,0.76565 -4.5994,1.42385 -0.95711,0.9571 -0.93649,0.99745 1.86139,3.64325 2.70054,2.55375 2.82913,2.7883 2.82735,5.1569 -0.002,3.0674 -1.24094,5.2409 -3.96754,6.96215 -1.10311,0.69635 -3.20046,2.4609 -4.66077,3.9212 -6.18925,6.18925 -9.37187,7.8481 -15.05727,7.8481 -1.17602,0 -3.74822,0.5625 -5.716,1.25 -4.17504,1.45865 -5.2849,1.51215 -10.1484,0.4891 -3.29874,-0.6939 -3.8629,-0.6879 -6.40768,0.0684 -3.19365,0.9491 -8.5785,1.6299 -15.79047,1.9963 -3.8804,0.1972 -5.66262,0.54225 -7.95916,1.54095 -3.99232,1.7362 -8.7906,1.4516 -13.61883,-0.8078 -1.80636,-0.8453 -3.5596,-1.5369 -3.89609,-1.5369 -0.3365,0 -1.60499,0.76535 -2.81887,1.70075 -3.00269,2.31385 -6.23041,3.2977 -10.84953,3.30705 -2.12164,0.005 -5.20752,0.3338 -6.85752,0.7322 -3.61606,0.87315 -6.16789,0.8608 -11.64972,-0.0563 z m 28.89972,-42.9161 c 0,-1.08205 -1.63557,-1.7676 -4.21713,-1.7676 -2.4975,0 -2.69532,0.2155 -1.45538,1.58565 1.0671,1.1791 5.67251,1.32685 5.67251,0.18195 z M 328.11758,676.91953 c -3.75459,-2.53021 -5.06661,-7.20622 -3.74207,-13.33657 0.81713,-3.78192 0.81188,-3.9736 -0.18685,-6.81518 -1.21269,-3.4503 -1.2813,-5.58674 -0.28487,-8.8709 0.85649,-2.82299 1.14169,-9.97631 0.54503,-13.67076 -0.54161,-3.35357 -0.22726,-4.42671 2.12775,-7.2638 1.4377,-1.732 2.03214,-2.97665 2.26857,-4.75 0.70026,-5.25217 3.34426,-7.34419 8.93895,-7.07278 3.29917,0.16006 3.55714,0.0934 4.50497,-1.16383 0.98551,-1.30722 0.98796,-1.39808 0.12389,-4.59023 -1.67789,-6.19861 -0.28933,-11.46344 3.63407,-13.77881 4.05463,-2.39282 4.64468,-3.10068 5.43456,-6.51976 0.40726,-1.76282 1.73923,-5.15331 2.95995,-7.53442 1.22072,-2.38111 2.21949,-4.53893 2.21949,-4.79516 0,-0.25623 -0.58311,-1.324 -1.2958,-2.37281 -1.51202,-2.22516 -1.76277,-5.38206 -0.60502,-7.61738 2.40095,-4.63559 4.70773,-8.20411 6.47797,-10.02125 1.97262,-2.02486 2.00398,-2.11363 1.67775,-4.75 -0.43704,-3.53174 0.2229,-5.0891 2.98004,-7.03251 2.25805,-1.59162 2.25805,-1.59162 2.18027,-6.42205 -0.0923,-5.73085 0.64449,-7.65551 4.58688,-11.98201 2.54931,-2.79772 4.36025,-7.07028 5.22863,-12.33603 0.49136,-2.97953 2.75532,-6.25274 5.96461,-8.62358 1.52592,-1.12727 3.02147,-2.51122 3.32344,-3.07546 0.30197,-0.56423 0.74293,-2.90519 0.97991,-5.20212 0.44246,-4.28854 0.97869,-5.74606 3.2136,-8.73495 0.76745,-1.02636 1.28772,-2.38 1.28772,-3.35039 0,-3.22532 1.10966,-6.70389 3.04422,-9.54306 3.22737,-4.73649 4.05567,-7.54625 3.66047,-12.41694 -0.32988,-4.06554 -0.30549,-4.19189 1.4093,-7.3023 0.95974,-1.74084 2.01654,-4.29017 2.34845,-5.66517 0.33192,-1.375 1.18373,-3.49566 1.89292,-4.71257 0.96143,-1.64975 1.40372,-3.35196 1.73871,-6.69175 0.66017,-6.58164 1.83517,-8.32145 6.81823,-10.09568 2.80857,-1 2.80857,-1 4.1991,-6.49394 1.66827,-6.59124 3.86302,-11.37677 7.22609,-15.75606 1.37272,-1.7875 2.76663,-3.75695 3.0976,-4.37655 0.33096,-0.6196 0.72334,-3.7696 0.87194,-7 0.35736,-7.76834 2.74976,-16.30721 5.92774,-21.15706 3.27256,-4.99419 4.17811,-7.03992 4.77404,-10.78501 0.62464,-3.92557 1.38648,-5.32728 3.64336,-6.70338 2.07212,-1.26346 2.72192,-1.23161 5.54982,0.272 1.29301,0.6875 2.64454,1.25 3.00339,1.25 0.35886,0 2.11218,-0.76085 3.89626,-1.69078 3.68986,-1.92328 9.32597,-3.12169 12.1711,-2.58794 2.45942,0.46139 5.06349,3.02364 5.40102,5.31429 0.13894,0.94293 0.47647,4.1652 0.75007,7.16059 0.32031,3.50684 0.73403,5.59983 1.16181,5.87768 0.3654,0.23733 2.23936,0.26156 4.16436,0.0538 1.925,-0.20773 4.40769,-0.35232 5.51709,-0.32133 4.0946,0.11441 7.22725,3.05129 7.23104,6.77917 0.003,2.71117 -1.88007,10.19629 -3.50008,13.91448 -0.77882,1.7875 -1.66357,4.62416 -1.96611,6.3037 -1.03409,5.74057 -6.00477,19.10306 -8.81473,23.6963 -0.58882,0.9625 -2.14492,5.2375 -3.45801,9.5 -1.31308,4.2625 -2.91272,8.65552 -3.55476,9.76227 -0.64204,1.10676 -1.64912,3.58176 -2.23796,5.5 -0.58884,1.91825 -1.79184,4.50023 -2.67333,5.73773 -1.39136,1.95328 -3.95583,6.60291 -8.96257,16.25 -3.71034,7.14915 -5.93276,12.56822 -7.27944,17.75 -0.82191,3.1625 -2.18214,7.26381 -3.02275,9.11402 -0.84061,1.85021 -1.52839,3.68082 -1.52839,4.06802 0,0.3872 -0.91225,2.07011 -2.02722,3.7398 -1.97137,2.95214 -2.01783,3.11884 -1.68622,6.04987 0.34003,3.00547 0.33025,3.03588 -3.42403,10.64618 -2.07077,4.19766 -4.02471,8.91069 -4.34209,10.4734 -0.33276,1.63842 -1.36455,4.07269 -2.43717,5.75 -1.02306,1.59979 -2.4995,4.43067 -3.28098,6.29084 -0.78148,1.86018 -1.62079,3.5057 -1.86514,3.65671 -0.81948,0.50647 -2.07157,3.40722 -2.77823,6.43637 -0.38533,1.65177 -1.4911,4.41677 -2.45727,6.14444 -2.30084,4.11428 -5.27942,12.10576 -6.89481,18.49866 -1.16859,4.62467 -1.99711,6.97049 -4.49641,12.73095 -0.80234,1.84926 -0.80234,1.84926 1.19362,4.15541 1.57145,1.81567 1.99595,2.70932 1.99595,4.2018 0,2.32437 -1.50049,4.67099 -4.40173,6.88383 -2.70243,2.06122 -5.45738,2.81173 -8.79185,2.39511 -1.89937,-0.23731 -2.7568,-0.14367 -3.15293,0.34432 -0.29926,0.36865 -1.15098,2.92027 -1.89272,5.67027 -2.2668,8.40418 -3.65697,9.83615 -9.98591,10.28621 -2.21367,0.15742 -5.05585,0.58774 -6.31596,0.95627 -2.06597,0.6042 -2.48358,0.57608 -4.25,-0.28622 -3.03882,-1.48344 -4.21446,-4.27367 -4.18695,-9.93721 0.0139,-2.86022 0.30855,-5.2532 0.80273,-6.51905 0.42944,-1.1 0.89459,-2.73474 1.03367,-3.63276 0.35378,-2.2843 -0.29334,-6.11724 -1.03278,-6.11724 -0.33724,0 -1.6475,1.06875 -2.91169,2.375 -2.1567,2.22844 -2.31358,2.57555 -2.54225,5.625 -0.18694,2.49303 -0.66045,4.00697 -2.03299,6.5 -2.04712,3.71834 -3.33864,8.17065 -3.33864,11.50946 0,1.76999 -0.42019,2.98327 -1.82511,5.26996 -4.81242,7.83282 -5.60586,9.49702 -6.09601,12.78607 -0.29832,2.00177 -1.60054,5.91618 -3.28649,9.87895 -2.19584,5.16129 -2.79298,7.12341 -2.79518,9.18451 -0.005,4.81482 -0.72126,6.26649 -5.17134,10.48286 -2.24172,2.12399 -4.78488,4.20525 -5.65143,4.625 -2.24804,1.08893 -4.75144,0.9486 -6.71788,-0.3766 z m 60.23094,-122.92271 c 0.17187,-0.85937 0.3125,-2.78838 0.3125,-4.28666 0,-2.30451 -0.13214,-2.69872 -0.85782,-2.55896 -0.47179,0.0908 -1.1769,0.7337 -1.5669,1.42854 -0.61945,1.10361 -0.60405,1.62471 0.12177,4.12146 0.93348,3.21105 1.52974,3.59917 1.99045,1.29562 z m 45.86883,-83.99383 c 0.58098,-0.58098 2.49632,-4.01223 4.25631,-7.625 1.75999,-3.61277 3.92839,-7.67919 4.81867,-9.03649 1.51931,-2.3163 1.61114,-2.70916 1.49569,-6.39884 -0.10025,-3.20375 0.0763,-4.31974 0.95415,-6.03218 0.59244,-1.15564 1.46986,-3.39139 1.9498,-4.96835 0.47996,-1.57695 1.59108,-3.77429 2.46917,-4.88297 1.55157,-1.95901 1.58284,-2.09521 1.11043,-4.8372 -0.67976,-3.9455 -0.0175,-5.8972 3.02409,-8.91264 2.82197,-2.79767 4.18168,-5.81977 6.33886,-14.08869 0.37121,-1.42295 1.27809,-2.77759 2.84522,-4.25 1.26519,-1.18872 2.61104,-2.88533 2.9908,-3.77025 0.82206,-1.91556 0.91734,-6.44183 0.14565,-6.91876 -0.30169,-0.18646 -1.80784,0.98042 -3.375,2.61473 -3.20557,3.34295 -6.2545,9.54302 -8.07119,16.41297 -0.61251,2.31628 -2.07621,5.78895 -3.4773,8.25 -4.99555,8.77486 -7.01551,14.42027 -7.05346,19.71312 -0.0352,4.90823 -0.63878,6.78533 -3.68096,11.44748 -3.64547,5.5867 -4.11613,6.74559 -5.02718,12.3785 -0.48833,3.01923 -1.26674,5.60992 -2.25769,7.51396 -2.1587,4.14781 -1.88975,5.8243 0.54394,3.39061 z m 21.45745,139.7412 c -0.85962,-0.72332 -2.09429,-2.35457 -2.74372,-3.625 -0.64942,-1.27043 -2.01583,-3.09737 -3.03647,-4.05987 -2.50826,-2.36538 -3.7092,-5.12759 -3.72261,-8.56213 -0.015,-3.83972 1.08984,-6.65741 3.70786,-9.45628 1.21395,-1.29782 3.02797,-3.98954 4.03116,-5.98159 1.00319,-1.99205 2.78111,-4.66324 3.95093,-5.93596 3.30568,-3.59643 3.7988,-4.54331 3.80186,-7.30029 0.005,-3.95753 0.84257,-6.05264 3.70473,-9.26032 1.80283,-2.02047 2.86234,-3.74163 3.30212,-5.36423 1.02731,-3.79034 2.13158,-5.60567 6.14141,-10.09593 3.66582,-4.10503 4.34895,-5.45934 4.34895,-8.62183 0,-2.5708 1.25877,-4.6009 6.47672,-10.44541 6.9484,-7.78275 7.8219,-9.15137 9.25251,-14.49708 1.47032,-5.49415 3.62275,-10.2565 5.9318,-13.12445 2.04849,-2.54432 2.83897,-4.72997 2.83897,-7.84965 0,-3.03402 1.09607,-6.63053 2.63691,-8.65239 0.67167,-0.88135 1.7926,-2.73077 2.49096,-4.10982 0.69836,-1.37905 2.27957,-3.85405 3.51378,-5.5 4.31788,-5.75831 5.38212,-8.42845 6.10431,-15.31561 0.61261,-5.84208 0.78995,-6.46742 3.27047,-11.53245 1.54599,-3.15681 3.72966,-6.6464 5.31901,-8.5 2.54536,-2.96855 7.77519,-11.11897 10.10251,-15.74421 0.72727,-1.44536 1.19775,-3.72644 1.5098,-7.32019 0.55738,-6.4191 1.30751,-8.08073 5.24311,-11.61417 4.6359,-4.1622 8.29399,-5.78368 13.74993,-6.09476 3.91894,-0.22345 4.7514,-0.11742 6.77711,0.86321 4.5644,2.20959 5.15759,6.24254 1.84802,12.56423 -1.15541,2.20698 -2.74739,5.96763 -3.53774,8.357 -0.79034,2.38937 -2.11217,5.91931 -2.9374,7.84431 -0.82523,1.925 -2.11089,5.1875 -2.85703,7.25 -0.74613,2.0625 -2.91635,6.26121 -4.8227,9.33045 -3.71423,5.97995 -6.19686,11.38688 -7.92433,17.25844 -0.59241,2.01361 -1.70606,4.67361 -2.47475,5.91111 -1.6949,2.7286 -2.3092,4.58924 -3.22726,9.77507 -0.88645,5.00731 -1.26031,5.96133 -3.47107,8.85758 -0.98652,1.29243 -2.72699,4.21005 -3.86769,6.48361 -1.1407,2.27356 -2.75674,5.08777 -3.59118,6.25379 -1.23133,1.72061 -1.57622,2.80399 -1.83051,5.75 -0.35157,4.07298 -0.69165,4.85713 -3.52771,8.13394 -1.0981,1.26876 -1.99781,2.6869 -1.99934,3.15142 -0.007,2.06479 -1.19471,4.76197 -3.03243,6.88528 -1.09497,1.26514 -2.41884,3.13918 -2.94193,4.16453 -0.52309,1.02535 -1.79127,2.86113 -2.81816,4.07952 -3.30975,3.92697 -9.32306,13.59236 -11.24546,18.0752 -1.02833,2.39797 -2.3096,4.98547 -2.84727,5.75 -1.67167,2.37704 -2.68332,4.66578 -3.68823,8.34429 -0.53276,1.95017 -1.92825,5.12077 -3.10109,7.04577 -1.17284,1.925 -2.75649,5.075 -3.51921,7 -0.76273,1.925 -2.24482,4.86399 -3.29353,6.53109 -1.04872,1.66711 -3.01277,5.74397 -4.36455,9.0597 -3.67928,9.02473 -6.33794,13.39979 -9.76945,16.07643 -1.58075,1.23301 -3.43259,3.19484 -4.11519,4.35961 -2.77879,4.74164 -6.58176,6.07135 -9.74693,3.40804 z m 85.16148,-45.71246 c -1.6911,-0.22045 -3.96907,-0.85705 -5.06214,-1.4147 -3.3333,-1.70052 -9.61312,-10.16873 -9.61312,-12.96309 0,-4.84624 5.36687,-8.19843 15.31408,-9.5653 2.19416,-0.30151 4.44866,-0.92551 5.09457,-1.41009 0.63726,-0.47808 1.70089,-2.21923 2.36362,-3.86923 0.66273,-1.65 1.6731,-3.38411 2.24526,-3.85357 1.11981,-0.91879 8.59652,-3.35985 11.51398,-3.75917 1.19978,-0.16422 2.83246,0.17004 5,1.02364 3.37871,1.33059 4.76607,1.53071 9.78739,1.41179 2.63781,-0.0625 3.43376,-0.32368 5.66645,-1.8595 4.5083,-3.10116 5.53448,-3.29413 18.26465,-3.43469 12.19057,-0.13461 18.64636,-0.91123 22.82764,-2.74615 3.85822,-1.69315 5.45584,-1.75077 9.01894,-0.3253 4.11085,1.6446 5.54026,1.62388 10.0154,-0.14517 5.54176,-2.19069 7.71853,-2.49015 22.38999,-3.08021 16.61712,-0.66831 18.53473,-0.38452 22.83481,3.3794 4.63104,4.05362 5.30944,7.8878 2.41322,13.63893 -1.5787,3.13489 -1.75007,3.88002 -1.75077,7.61252 -10e-4,4.65434 -0.82139,6.88637 -3.16213,8.60194 -1.20463,0.88289 -2.03518,1.01782 -5.63417,0.9153 -2.32169,-0.0661 -5.84838,-0.4914 -7.83709,-0.94503 -7.52756,-1.71709 -30.94723,-2.37485 -34.8037,-0.97748 -1.32209,0.47904 -3.79533,0.79278 -6.25,0.79283 -2.23418,6e-5 -5.75843,0.32469 -7.83167,0.72141 -5.61119,1.07373 -18.46366,1.93601 -24.45791,1.64089 -4.32642,-0.213 -6.25951,-0.0497 -10.77256,0.90998 -3.025,0.64325 -6.47677,1.51738 -7.67059,1.9425 -4.65499,1.65764 -13.34506,3.28514 -17.54117,3.28514 -4.07459,0 -4.32295,0.068 -7.27925,1.99414 -4.34476,2.83072 -7.89936,3.41475 -15.08373,2.47827 z"
     id="path188"
     inkscape:connector-curvature="0" />
</svg>
