<?xml version="1.0" encoding="UTF-8" standalone="no"?>
<!-- Created with Inkscape (http://www.inkscape.org/) -->

<svg
   xmlns:dc="http://purl.org/dc/elements/1.1/"
   xmlns:cc="http://creativecommons.org/ns#"
   xmlns:rdf="http://www.w3.org/1999/02/22-rdf-syntax-ns#"
   xmlns:svg="http://www.w3.org/2000/svg"
   xmlns="http://www.w3.org/2000/svg"
   xmlns:sodipodi="http://sodipodi.sourceforge.net/DTD/sodipodi-0.dtd"
   xmlns:inkscape="http://www.inkscape.org/namespaces/inkscape"
   version="1.1"
   id="svg655"
   width="1000"
   height="1000"
   viewBox="0 0 1000 1000"
   sodipodi:docname="Masomeh_maj_v.svg"
   inkscape:version="0.92.2 5c3e80d, 2017-08-06">
  <metadata
     id="metadata661">
    <rdf:RDF>
      <cc:Work
         rdf:about="">
        <dc:format>image/svg+xml</dc:format>
        <dc:type
           rdf:resource="http://purl.org/dc/dcmitype/StillImage" />
        <dc:title></dc:title>
      </cc:Work>
    </rdf:RDF>
  </metadata>
  <defs
     id="defs659" />
  <sodipodi:namedview
     pagecolor="#ffffff"
     bordercolor="#666666"
     borderopacity="1"
     objecttolerance="10"
     gridtolerance="10"
     guidetolerance="10"
     inkscape:pageopacity="0"
     inkscape:pageshadow="2"
     inkscape:window-width="1027"
     inkscape:window-height="480"
     id="namedview657"
     showgrid="false"
     inkscape:zoom="0.19666667"
     inkscape:cx="313.22034"
     inkscape:cy="600"
     inkscape:window-x="61"
     inkscape:window-y="93"
     inkscape:window-maximized="0"
     inkscape:current-layer="svg655" />
  <path
     style="fill:#000000;stroke-width:0.5"
     d="m 401.80508,779.34701 c -3.99092,-1.09875 -6.18017,-2.4491 -9.64991,-5.95225 -3.55922,-3.59355 -4.82499,-4.32095 -9.35009,-5.3731 -6.70493,-1.55905 -10.07918,-4.13445 -12.2464,-9.3472 -0.7753,-1.8648 -2.33078,-4.58565 -3.45661,-6.04635 -3.5477,-4.6028 -4.17008,-5.6986 -6.72726,-11.8442 -2.7645,-6.6439 -2.86937,-7.03455 -6.84474,-25.5 -1.53931,-7.15 -3.48142,-14.9125 -4.31581,-17.25 -2.50992,-7.03143 -3.2715,-10.08144 -3.8538,-15.43407 -0.75213,-6.91369 -0.68936,-11.77254 0.19462,-15.06593 1.00818,-3.75613 0.93724,-5.80586 -0.33998,-9.82233 -0.77283,-2.43029 -1.10683,-4.80981 -1.14786,-8.17767 -0.045,-3.69275 -0.35882,-5.67388 -1.41001,-8.90081 -1.6994,-5.21681 -1.68484,-6.35986 0.14785,-11.59919 1.6779,-4.79685 1.84356,-7.24549 0.73031,-10.79553 -0.42332,-1.34996 -0.9774,-5.04197 -1.23128,-8.20447 -0.25389,-3.1625 -0.92003,-7.1763 -1.48032,-8.91954 -1.33307,-4.14761 -1.28508,-6.1301 0.25698,-10.61789 0.70164,-2.04191 1.82447,-7.31257 2.49518,-11.71257 0.67072,-4.4 1.44535,-9.35 1.72141,-11 0.65088,-3.89027 0.63963,-9.71752 -0.026,-13.5 -0.29039,-1.65 -0.72324,-6.6 -0.96191,-11 -0.598,-11.02468 -1.34205,-16.79149 -2.78596,-21.59274 -1.30555,-4.34117 -2.90727,-14.10731 -3.46959,-21.1551 -0.18642,-2.33631 -1.41822,-8.52381 -2.73734,-13.75 -3.135,-12.42041 -4.2353,-21.44057 -3.81223,-31.25216 0.30148,-6.99189 0.26585,-7.3746 -1.00088,-10.75 -2.24565,-5.98389 -4.06352,-16.0802 -4.95147,-27.5 -1.10382,-14.19623 -4.22876,-23.29222 -8.86623,-25.8076 -0.47815,-0.25936 -2.84065,-1.04258 -5.25,-1.7405 -4.07616,-1.18076 -5.69784,-1.93493 -13.2197,-6.14792 -2.48291,-1.39069 -3.58057,-1.65654 -8.75,-2.11925 -5.93414,-0.53117 -10.32789,-0.40729 -22.44302,0.63274 -5.67104,0.48683 -7.0881,0.44886 -10.75,-0.28811 -5.71366,-1.14988 -9.5261,-2.93823 -12.01119,-5.63424 -2.54051,-2.75612 -3.62541,-5.20401 -4.71792,-10.64512 -0.46934,-2.3375 -1.50727,-5.54665 -2.30651,-7.13144 -1.78368,-3.53678 -2.26055,-6.60887 -1.42084,-9.15323 0.81651,-2.47404 4.24736,-6.11496 8.17101,-8.67132 1.71237,-1.11566 4.19852,-3.28535 5.52477,-4.82154 1.32932,-1.53975 3.33831,-3.21547 4.47707,-3.73437 4.89142,-2.22887 14.02447,-5.71253 19.81571,-7.5584 6.2864,-2.00371 7.94539,-2.69349 12.99766,-5.4042 1.51121,-0.81081 4.77371,-1.97349 7.25,-2.58371 4.8378,-1.19216 12.95956,-4.4624 21.00234,-8.4566 4.50642,-2.23797 5.83908,-2.63318 13.5,-4.0035 9.59207,-1.71575 12.39918,-2.51335 16.04498,-4.55891 1.39975,-0.78536 4.09975,-1.96578 6,-2.62316 1.90026,-0.65737 5.0718,-1.89281 7.04786,-2.7454 6.10941,-2.63598 8.61784,-3.06802 20.90716,-3.60094 6.325,-0.27428 13.525,-0.67527 16,-0.89109 8.24713,-0.71915 13.62896,0.7559 15.84594,4.34306 0.67104,1.08576 1.17824,3.03841 1.4136,5.44219 0.36382,3.71577 0.39199,3.77405 3.19234,6.60393 5.56541,5.6241 5.17063,7.74468 -3.57266,19.19019 -7.6381,9.99876 -11.00544,12.38777 -19.29601,13.68981 -7.84131,1.23148 -8.56814,1.52109 -11.45705,4.56508 -5.82499,6.13769 -7.09224,6.99837 -14.12616,9.59413 -4.44763,1.64132 -4.63326,2.39932 -1.485,6.06371 3.49363,4.06637 4.58942,6.27363 5.47305,11.02448 0.44283,2.38082 1.28642,5.64332 1.87465,7.25 0.8656,2.36426 1.12508,4.49419 1.36095,11.17123 0.31804,9.00346 0.33005,9.04538 3.81124,13.31936 3.38381,4.1544 3.81014,6.59498 2.21511,12.68064 -0.98632,3.76317 -1.28828,9.43362 -0.66761,12.53694 0.22438,1.12189 1.21204,2.48264 3.03941,4.1875 4.92524,4.59508 5.54389,7.23786 3.28322,14.02556 -1.1165,3.3523 -1.33349,4.89059 -1.34005,9.5 -0.008,5.86739 0.49298,7.60017 2.96559,10.25 1.88792,2.02325 2.72244,4.57692 2.39611,7.33226 -0.28111,2.37342 -0.21437,2.53517 2.27462,5.51393 3.0074,3.59917 4.04871,5.838 4.04871,8.70474 0,3.43336 -1.03636,5.86366 -3.8407,9.00653 -3.04889,3.41695 -2.9089,2.44482 -2.15172,14.94254 1.00997,16.67026 1.90068,24.74295 3.24599,29.41917 1.30455,4.53452 1.31359,4.68322 1.16795,19.20037 -0.14677,14.63046 -0.14677,14.63046 1.2518,19.88046 1.12497,4.22296 1.48287,6.96173 1.82948,14 0.453,9.19864 1.03981,13.69297 2.03706,15.60185 0.32991,0.63148 1.55683,2.18153 2.7265,3.44455 3.83523,4.14132 4.72922,6.99295 3.50862,11.19169 -0.48766,1.67747 -1.65799,3.8071 -2.99273,5.4458 -3.99494,4.9047 -3.96857,4.78771 -3.27166,14.51495 0.33696,4.70314 1.03493,10.51753 1.55103,12.92086 1.08637,5.05888 1.23744,13.27074 0.36472,19.82559 -0.4221,3.17037 -0.43022,5.67367 -0.0308,9.47574 0.48966,4.66021 0.73923,5.49388 2.54396,8.49804 1.10058,1.83201 2.26768,4.40587 2.59357,5.7197 0.52064,2.09901 0.46359,2.77045 -0.47031,5.53525 -1.40128,4.14847 -1.36566,4.4879 0.71245,6.78811 2.22155,2.45899 9.41231,7.93976 11.66673,8.89235 2.74769,1.16102 7.8368,1.32892 13.69813,0.45197 2.96457,-0.44354 7.71815,-0.80645 10.56351,-0.80645 4.40259,0 5.90885,-0.23225 10.10986,-1.5588 4.62067,-1.45906 5.4803,-1.5662 13.43649,-1.67464 11.56982,-0.15769 15.09154,-1.20927 29.05308,-8.67523 1.95419,-1.045 4.84322,-2.18873 6.42008,-2.54162 3.72586,-0.83381 7.73086,-2.9894 17.52684,-9.43339 5.90563,-3.88484 8.85084,-6.18984 11.25,-8.80455 5.4524,-5.94224 7.45679,-7.72007 15.375,-13.63712 4.19375,-3.13387 7.62502,-5.86145 7.62504,-6.0613 2e-5,-0.19984 2.19697,-2.72585 4.8821,-5.61335 5.59816,-6.02006 6.20822,-6.93574 9.16087,-13.75 1.87416,-4.32526 2.71917,-5.58416 6.26172,-9.32874 2.25235,-2.38081 5.05619,-5.75581 6.23075,-7.5 1.17456,-1.7442 3.84083,-5.31255 5.92504,-7.92968 5.67282,-7.1233 10.84439,-15.16894 16.47575,-25.63203 3.67421,-6.8267 5.95162,-10.41962 8.34169,-13.16012 1.80821,-2.07332 4.25773,-5.27261 5.44337,-7.10955 3.44349,-5.33503 9.67343,-18.21418 10.98555,-22.71043 1.6112,-5.52114 2.0564,-6.60894 4.04358,-9.8802 1.12408,-1.85044 2.03697,-4.35569 2.70874,-7.43367 0.66681,-3.05519 1.68875,-5.86889 2.98881,-8.22908 3.21022,-5.82795 4.0643,-8.53109 4.59065,-14.52913 0.57997,-6.60906 1.60134,-9.14433 5.56253,-13.80737 1.51846,-1.7875 3.06295,-3.8125 3.4322,-4.5 0.40134,-0.74723 0.80068,-3.8644 0.99286,-7.75 0.30457,-6.15778 0.43187,-6.76325 2.41794,-11.5 1.15305,-2.75 2.55535,-6.8 3.11622,-9 0.56087,-2.2 1.91496,-5.835 3.00909,-8.07778 1.53622,-3.14899 2.14844,-5.19892 2.68788,-9 0.3842,-2.70722 1.0142,-5.93472 1.39999,-7.17222 1.29733,-4.16142 5.46021,-14.72188 7.09551,-18 0.8917,-1.7875 2.21901,-5.21774 2.94958,-7.62276 1.11755,-3.67892 1.7996,-4.93544 4.29854,-7.91906 3.19351,-3.81292 3.3142,-4.1722 3.68086,-10.95818 0.18432,-3.41112 0.68249,-5.51476 2.52389,-10.65767 3.2687,-9.12922 2.99188,-13.68555 -0.94495,-15.5537 -2.13611,-1.01365 -9.50122,-1.03726 -15.09119,-0.0484 -6.3426,1.12203 -10.45185,0.18527 -16.06725,-3.66278 -1.5688,-1.07504 -5.17052,-3.46316 -8.00383,-5.30693 -3.15394,-2.05241 -5.72479,-4.14374 -6.63,-5.39335 -0.81319,-1.12257 -3.01333,-5.21043 -4.88919,-9.08412 -1.87587,-3.87369 -4.5475,-8.51959 -5.93695,-10.32421 -3.40804,-4.42635 -4.60015,-6.91345 -4.95503,-10.33771 -0.5821,-5.61655 1.16621,-8.84779 6.25465,-11.5599 1.72955,-0.92184 4.6431,-3.24683 6.90069,-5.50671 2.33131,-2.33366 5.41986,-4.78391 7.65731,-6.0748 5.24335,-3.02513 7.18922,-4.69449 10.31821,-8.85195 3.34884,-4.44956 4.82373,-5.59846 9.97708,-7.77185 5.11071,-2.15542 13.37807,-7.12534 20.44503,-12.29055 3.98584,-2.91323 7.73181,-5.05949 13.74441,-7.87491 12.00856,-5.62303 12.28171,-5.69041 26.26527,-6.47964 7.25874,-0.40968 13.35715,-1.00929 15.43489,-1.51759 1.88915,-0.46218 6.05165,-2.19113 9.25,-3.84212 3.1983,-1.65099 7.50261,-3.87537 9.56511,-4.94306 3.35895,-1.73881 4.34109,-1.99559 9.4184,-2.46234 9.4908,-0.8725 16.85265,0.57037 21.66724,4.24659 1.20075,0.91681 3.75391,2.6206 5.67376,3.78619 4.46659,2.71181 5.58005,3.75026 6.9818,6.51148 2.355,4.63898 3.8364,10.48706 4.2431,16.75 0.3135,4.82783 0.74035,7.0745 2.18475,11.5 2.54095,7.78503 3.59675,12.65734 5.07975,23.44263 1.52315,11.07762 3.41755,17.68689 5.9957,20.91843 0.93855,1.17642 2.9722,3.77628 4.5192,5.77747 4.4087,5.70297 3.09055,5.35501 20.46575,5.4027 8.2613,0.0227 15.80805,0.21888 16.77055,0.43602 2.67854,0.60427 5.47704,2.16357 8.45299,4.70993 1.48666,1.27205 5.18691,4.11282 8.2228,6.31282 5.59091,4.05148 7.1025,5.80004 7.8397,9.06879 0.5339,2.36728 -0.43714,5.9897 -2.23895,8.35196 -2.55865,3.35453 -12.9085,9.60502 -24.52055,14.80847 -7.3962,3.31427 -11.49244,4.62418 -18.1702,5.81048 -3.85265,0.68443 -5.06335,1.13329 -6.9584,2.57982 -3.1205,2.38194 -4.65395,2.94323 -9.7238,3.55918 -4.72915,0.57455 -6.64004,1.38127 -15.23699,6.43251 -4.73285,2.78083 -5.04845,2.8888 -8.44416,2.8888 -3.52755,0 -3.52755,0 -11.25,-5.03615 -4.24735,-2.76988 -10.4167,-6.70738 -13.7097,-8.75 -3.4687,-2.15161 -7.39414,-5.09362 -9.3318,-6.99389 -3.02955,-2.97119 -3.44595,-3.63032 -4.42225,-7 -1.60495,-5.53967 -2.4483,-7.73185 -3.6801,-9.56594 -1.33085,-1.98153 -3.23095,-2.39317 -4.5121,-0.97751 -0.81455,0.90007 -6.94465,19.56542 -10.03135,30.54422 -0.73,2.5964 -2.5317,7.3214 -4.00375,10.5 -2.8615,6.17871 -2.93435,6.40826 -4.032,12.70257 -0.39555,2.26809 -1.51305,6.31699 -2.48335,8.99754 -0.97035,2.68055 -2.12325,6.49495 -2.5621,8.47644 -0.4388,1.9815 -1.89115,6.41522 -3.22749,9.85272 -3.42746,8.81683 -6.38015,18.86558 -7.2551,24.69087 -1.20875,8.04773 -2.14735,11.43932 -4.3224,15.61874 -1.12785,2.16721 -2.67106,5.15891 -3.42935,6.6482 -0.82966,1.62938 -1.61415,4.31771 -1.96975,6.75 -0.82345,5.63194 -1.31875,6.82528 -5.34585,12.88019 -1.9513,2.93384 -3.94195,6.533 -4.4237,7.99813 -0.48175,1.46513 -1.94601,5.13887 -3.25395,8.16387 -1.37555,3.18136 -2.81826,7.60785 -3.42224,10.5 -0.97552,4.67133 -1.62196,6.25783 -5.7045,14 -3.09449,5.86843 -6.39302,13.59276 -7.40312,17.33624 -1.51165,5.60227 -7.75108,17.9236 -10.93929,21.60242 -3.41852,3.94457 -4.92049,6.18864 -8.00156,11.95507 -1.43137,2.67888 -3.76194,6.41176 -5.17906,8.2953 -1.41712,1.88353 -5.35493,7.11154 -8.75069,11.61779 -3.39575,4.50625 -7.1486,10.12576 -8.33965,12.48781 -2.7557,5.46499 -3.93746,6.84104 -8.37566,9.7527 -6.39402,4.19475 -13.39885,11.62562 -17.63038,18.70267 -1.06879,1.7875 -3.30972,4.7125 -4.97985,6.5 -1.67013,1.7875 -4.4692,5.275 -6.22015,7.75 -1.75095,2.475 -4.57658,6.075 -6.27918,8 -1.70261,1.925 -4.254,5.23121 -5.66977,7.34713 -1.41576,2.11592 -3.53197,4.62784 -4.70268,5.58204 -8.24947,6.72381 -13.41443,10.66469 -18.62857,14.21362 -3.3,2.24616 -7.575,5.44701 -9.5,7.11306 -1.925,1.66604 -5.59213,4.72745 -8.14919,6.8031 -2.55705,2.07565 -6.22093,5.34564 -8.14196,7.2667 -2.39654,2.39649 -4.46828,3.93579 -6.60082,4.90425 -9.18773,4.1726 -14.29257,6.435 -15.85803,7.02815 -0.9625,0.36465 -3.325,1.5129 -5.25,2.55165 -1.925,1.03869 -5.975,2.74095 -9,3.7827 -5.5,1.8941 -5.5,1.8941 -18,2.06705 -21.6477,0.29945 -23.36231,0.2919 -29.5,-0.12955 -4.79629,-0.3294 -7.10265,-0.2383 -11.49624,0.4539 -6.26942,0.9877 -7.43989,1.47915 -11.25376,4.72474 -5.32645,4.53286 -9.13423,6.40905 -15.803,7.78651 -4.3523,0.899 -13.04595,0.9355 -16.197,0.068 z M 737.61633,331.80453 c 0.61385,-1.59966 -3.9837,-11.79067 -6.33585,-14.04418 -1.16755,-1.11857 -1.8212,-1.32573 -4.09745,-1.29855 -3.5575,0.0425 -4.8652,0.59142 -6.9177,2.90373 -0.93655,1.05511 -3.2232,3.39624 -5.0815,5.20251 -1.8583,1.80627 -3.37875,3.52272 -3.37875,3.81434 0,0.59338 1.8646,1.40363 4.5,1.95541 0.9625,0.20152 4.3375,0.33851 7.5,0.30441 4.39915,-0.0475 6.39605,0.15545 8.5,0.86356 3.4247,1.15264 4.95065,1.23848 5.31125,0.29877 z"
     id="path665"
     inkscape:connector-curvature="0" />
</svg>
