<?xml version="1.0" encoding="UTF-8" standalone="no"?>
<!-- Created with Inkscape (http://www.inkscape.org/) -->

<svg
   xmlns:dc="http://purl.org/dc/elements/1.1/"
   xmlns:cc="http://creativecommons.org/ns#"
   xmlns:rdf="http://www.w3.org/1999/02/22-rdf-syntax-ns#"
   xmlns:svg="http://www.w3.org/2000/svg"
   xmlns="http://www.w3.org/2000/svg"
   xmlns:sodipodi="http://sodipodi.sourceforge.net/DTD/sodipodi-0.dtd"
   xmlns:inkscape="http://www.inkscape.org/namespaces/inkscape"
   version="1.1"
   id="svg736"
   width="1000"
   height="1000"
   viewBox="0 0 1000 1000"
   sodipodi:docname="Masomeh_bdc_m.svg"
   inkscape:version="0.92.2 5c3e80d, 2017-08-06">
  <metadata
     id="metadata742">
    <rdf:RDF>
      <cc:Work
         rdf:about="">
        <dc:format>image/svg+xml</dc:format>
        <dc:type
           rdf:resource="http://purl.org/dc/dcmitype/StillImage" />
        <dc:title></dc:title>
      </cc:Work>
    </rdf:RDF>
  </metadata>
  <defs
     id="defs740" />
  <sodipodi:namedview
     pagecolor="#ffffff"
     bordercolor="#666666"
     borderopacity="1"
     objecttolerance="10"
     gridtolerance="10"
     guidetolerance="10"
     inkscape:pageopacity="0"
     inkscape:pageshadow="2"
     inkscape:window-width="1185"
     inkscape:window-height="657"
     id="namedview738"
     showgrid="false"
     inkscape:zoom="0.13380301"
     inkscape:cx="64.212283"
     inkscape:cy="600"
     inkscape:window-x="0"
     inkscape:window-y="0"
     inkscape:window-maximized="0"
     inkscape:current-layer="svg736" />
  <path
     style="fill:#000000;stroke-width:0.5"
     d="m 269.05223,855.89408 c -4.26732,-1.98635 -6.976,-4.49355 -8.57678,-7.93885 -1.78817,-3.84855 -11.10551,-13.5424 -16.21794,-16.87325 -7.76235,-5.05735 -9.14155,-9.3853 -4.44227,-13.94005 0.94409,-0.91505 1.71653,-1.83675 1.71653,-2.04825 0,-0.2115 -0.675,-1.44895 -1.5,-2.74985 -1.77325,-2.79611 -1.92654,-5.11125 -0.49212,-7.4322 1.58163,-2.55913 3.94488,-3.41765 8.54063,-3.10265 2.84664,0.19511 4.13399,0.0817 4.86208,-0.42825 1.01187,-0.70874 5.34396,-10.35411 5.90073,-13.13794 0.18773,-0.93868 -0.008,-2.33211 -0.50155,-3.56484 -0.44538,-1.1131 -0.80977,-2.57331 -0.80977,-3.24493 0,-2.6212 2.01627,-6.54944 5.24247,-10.21374 4.325,-4.9123 4.64313,-6.14219 3.29359,-12.73301 -1.329,-6.49052 -1.30536,-7.87318 0.25284,-14.79034 1.41386,-6.27633 1.84038,-7.31279 4.22691,-10.27155 2.76012,-3.42192 4.84413,-8.35134 5.23446,-12.38134 0.51342,-5.3009 2.05221,-12.42471 3.75518,-17.38454 1.6892,-4.91972 1.78859,-6.32915 0.78465,-11.12744 -0.82762,-3.9556 -0.59122,-5.1241 1.86507,-9.21877 1.73237,-2.88791 1.73237,-2.88791 2.26824,-12.88791 0.29473,-5.5 0.40932,-12.1375 0.25464,-14.75 -0.26564,-4.48657 -0.19519,-4.96258 1.27036,-8.58329 1.41465,-3.49499 1.55159,-4.32711 1.55159,-9.42854 0,-3.07738 0.47542,-9.2274 1.05649,-13.6667 1.29768,-9.91412 1.10659,-16.89814 -0.59703,-21.82147 -1.0435,-3.01561 -1.11649,-3.99823 -1.01206,-13.625 0.0743,-6.85221 -0.0622,-10.375 -0.40203,-10.375 -0.28302,0 -1.47058,0.49829 -2.63903,1.10732 -3.05997,1.59495 -6.27088,1.42039 -10.90793,-0.59298 -9.58624,-4.16226 -9.46803,-4.12833 -15.98809,-4.59023 -10.43731,-0.73941 -13.44368,-1.71467 -15.55049,-5.04454 -0.92435,-1.46096 -1.00695,-2.19866 -0.79829,-7.12957 0.20813,-4.91849 0.10616,-5.8367 -0.9644,-8.68453 -1.80905,-4.81229 -1.6259,-7.30945 0.80286,-10.94654 2.26397,-3.39032 2.37198,-4.11201 1.07467,-7.18037 -0.50893,-1.20371 -1.29426,-3.20291 -1.74518,-4.44265 -0.45092,-1.23976 -1.93428,-3.78273 -3.29636,-5.65106 -1.95714,-2.68455 -2.64986,-4.17612 -3.30308,-7.1122 -0.57973,-2.60578 -1.33233,-4.37763 -2.52022,-5.93336 -0.93151,-1.21996 -2.516,-3.64263 -3.52108,-5.3837 -2.19996,-3.81093 -3.5859,-5.41559 -4.6774,-5.41559 -0.44789,0 -1.72728,0.67137 -2.84308,1.49195 -1.24213,0.91347 -3.70441,1.93126 -6.35051,2.625 -3.87527,1.01599 -4.6186,1.41215 -7.19476,3.83446 -2.53628,2.3848 -3.7813,3.06076 -10.623,5.76758 -7.60062,3.00709 -7.77891,3.11219 -9.25,5.45311 -0.825,1.31281 -2.7507,3.81132 -4.27934,5.55226 -1.64524,1.87375 -3.04144,4.04019 -3.42169,5.30934 -0.91039,3.03865 -1.80458,4.21979 -5.13414,6.78184 -3.39892,2.61541 -4.48146,4.49293 -6.11938,10.61333 -1.44917,5.41508 -1.66329,5.82486 -4.99411,9.55777 -2.79593,3.13346 -5.72347,8.2167 -7.27761,12.63652 -0.50803,1.44476 -1.69834,4.31434 -2.64515,6.37684 -0.9468,2.0625 -2.22797,5.42957 -2.84703,7.48238 -0.61906,2.0528 -1.81113,5.0903 -2.64904,6.75 -0.83791,1.65969 -2.1579,4.93012 -2.9333,7.26762 -4.36329,13.15339 -6.85181,19.85434 -8.80381,23.70643 -0.6869,1.35552 -1.78604,5.05484 -2.44254,8.2207 -0.6565,3.16587 -1.30233,6.10864 -1.43518,6.5395 -0.13286,0.43085 -0.46256,2.75415 -0.73267,5.16288 -0.39657,3.53642 -0.83391,4.99249 -2.2718,7.56367 -0.97938,1.7513 -2.13742,4.39302 -2.57343,5.8705 -0.43601,1.47748 -1.58051,4.09984 -2.54333,5.82748 -1.43835,2.58089 -1.82605,3.91861 -2.17364,7.5 -0.23267,2.39736 -0.78841,5.59634 -1.23497,7.10884 -0.62998,2.13374 -0.75171,4.03856 -0.54318,8.5 0.31036,6.64015 -0.0841,8.22646 -2.9006,11.66358 -2.06253,2.51704 -2.20633,3.36398 -1.58523,9.33642 0.37207,3.57785 0.32712,3.84182 -0.97929,5.75 -0.75309,1.1 -1.75809,3.13006 -2.23333,4.51124 -0.47524,1.38118 -1.45069,3.66888 -2.16767,5.08377 -0.71698,1.4149 -2.20922,4.81872 -3.31607,7.56406 -1.89756,4.70652 -2.01263,5.28699 -2.01526,10.16623 -0.003,6.49774 -0.55054,8.46247 -3.13769,11.26919 -2.541766,2.7575 -4.672766,3.87584 -9.427416,4.94747 -5.44421,1.22706 -6.31742,1.81824 -7.9333,5.371 -0.77223,1.69787 -2.55107,4.63749 -3.95298,6.53248 -2.37547,3.21098 -4.03107,7.09626 -4.0568,9.52031 -0.0174,1.64508 -1.77237,5.07546 -3.05992,5.98134 -0.6485,0.45628 -2.70249,1.2845 -4.56441,1.8405 -2.3268,0.69481 -4.26073,1.72394 -6.18508,3.29135 -3.31572,2.70069 -6.00136,3.95022 -9.473,4.40747 -2.94898,0.3884 -7.32461,2.71576 -8.51151,4.5272 -0.4513,0.68878 -1.12714,2.71494 -1.50186,4.50258 -1.22034,5.82172 -2.88367,8.10352 -7.25003,9.94577 -1.20627,0.50894 -3.87003,1.69254 -5.91948,2.63014 -2.04944,0.93765 -4.74944,1.82125 -6,1.9636 -4.00218,0.4556 -4.48758,0.67115 -7.35069,3.264 -3.32988,3.01555 -6.2810201,4.40895 -12.5586701,5.92975 -3.18027997,0.77045 -5.61337,1.7376 -7.75,3.08065 -7.2059899,4.5296 -8.7964399,4.96585 -21.8643699,5.9971 -13.87433,1.0949 -13.71851,1.1133 -21.75,-2.5703 -7.762375,-3.56015 -8.578845,-3.6888 -18.000005,-2.83665 -4.169776,0.37715 -4.665106,0.32165 -6.749996,-0.7566 -1.81475,-0.93855 -2.53974,-1.7439 -3.74785,-4.16315 -1.49785,-2.9995 -1.49785,-2.9995 -1.37626,-25.45857 0.13583,-25.0869 0.12456,-25.00291 3.62411,-27.02553 1.4288,-0.8258 2.7595,-1.02946 7.249996,-1.10963 3.025,-0.054 7.4125,-0.36792 9.75,-0.69759 2.887285,-0.40721 6.253995,-0.47066 10.500005,-0.19788 3.4375,0.22084 7.15,0.40827 8.25,0.4165 2.68725,0.0201 12.95952,-1.10563 15.70059,-1.72064 2.74015,-0.61481 11.97649,-4.8795 17.2965099,-7.98631 2.20159,-1.28569 5.04377003,-2.92325 6.31596003,-3.63901 1.27217997,-0.71577 3.63467997,-2.40062 5.24999997,-3.74413 1.61531,-1.3435 4.8494401,-3.62428 7.1869401,-5.0684 2.3375,-1.44412 5.7125,-4.02957 7.5,-5.74545 1.7875,-1.71587 4.29465,-3.7123 5.57145,-4.43651 1.55706,-0.88317 2.77508,-2.10214 3.69915,-3.70204 0.75773,-1.31192 2.46933,-3.55309 3.80355,-4.98038 1.97378,-2.11147 2.42585,-2.93139 2.42585,-4.39983 0,-2.06844 -0.90718,-4.06424 -2.50286,-5.50628 -2.11704,-1.91321 -3.49714,-5.44508 -3.49714,-8.94965 0,-3.77444 0.56099,-5.52233 2.38661,-7.43592 2.37663,-2.49117 9.10082,-3.62477 13.78527,-2.32402 2.48572,0.69023 2.97976,0.13006 1.07812,-1.22241 -0.825,-0.58675 -2.45625,-1.99346 -3.625,-3.12603 -2.67612,-2.59327 -2.86971,-4.82192 -0.71386,-8.2179 2.4283,-3.82514 6.12306,-6.11681 11.75526,-7.29116 1.9664,-0.41 3.96017,-1.09378 4.4306,-1.51952 0.47042,-0.42573 1.11109,-2.00608 1.42369,-3.51191 0.43358,-2.08851 1.01358,-3.17218 2.44549,-4.56908 2.74095,-2.67394 3.00533,-3.41933 2.70063,-7.6143 -0.32743,-4.50796 0.605,-8.89872 3.08999,-14.55061 1.67182,-3.80241 2.25164,-6.53018 3.6549,-17.19467 0.30996,-2.35558 1.13098,-4.93157 2.47011,-7.75 6.24911,-13.15235 6.16903,-12.93207 6.62427,-18.22164 0.51063,-5.93319 2.16347,-11.48496 4.62896,-15.54839 0.985,-1.62338 2.28053,-4.75161 2.87898,-6.95161 1.94425,-7.14747 9.30486,-23.43021 12.771016,-28.25137 0.89023,-1.23825 3.7474,-5.96325 6.34925,-10.5 2.60186,-4.53675 5.74744,-9.88346 6.99019,-11.88159 1.24275,-1.99812 2.75587,-4.96013 3.3625,-6.58222 0.60876,-1.62783 2.27055,-4.36863 3.70886,-6.11705 2.74715,-3.33949 12.52184,-18.27747 17.2865,-26.41777 1.53763,-2.62701 2.70081,-3.82592 6.06805,-6.25445 4.70737,-3.39506 6.14182,-5.21995 7.24272,-9.21413 1.66931,-6.05642 2.87678,-8.63672 5.26383,-11.24853 3.13829,-3.43379 6.9456,-5.17417 12.25859,-5.6036 3.93447,-0.318 3.93447,-0.318 6.68447,-3.16241 3.38171,-3.49779 5.70823,-4.38271 13.25,-5.03974 5.16592,-0.45005 5.80371,-0.63162 10.5,-2.98931 3.3372,-1.67539 5.91454,-2.61699 7.75,-2.83138 2.47859,-0.28952 3.04609,-0.60298 5.75,-3.17594 4.09271,-3.89451 5.4914,-4.50406 11.54046,-5.02931 7.01025,-0.60871 7.27799,-0.60977 17.20954,-0.0681 13.93894,0.76028 18.27584,2.81422 20.81036,9.85574 1.39051,3.86314 2.78122,5.75452 9.42183,12.81376 2.48479,2.64143 5.64281,6.08949 7.01781,7.66235 2.95629,3.38169 4.59015,3.9226 10.01187,3.31458 3.5234,-0.39513 7.282,-0.0628 10.4134,0.92065 0.86611,0.27202 4.27473,0.94606 7.57473,1.49788 9.78429,1.63611 14.512,3.67399 18.17356,7.83375 2.43526,2.76659 3.39444,5.59599 3.76785,11.11437 0.40076,5.9225 2.2703,9.69883 7.79336,15.74193 3.12163,3.41557 4.48993,6.34369 4.50425,9.63897 0.0111,2.54013 -0.9205,4.45618 -4.03202,8.29328 -0.91824,1.13238 -1.11378,2.20037 -1.37317,7.5 -0.50654,10.34928 -0.30164,12.9209 1.41774,17.79321 0.85135,2.41252 1.86409,6.73881 2.25053,9.61398 0.5977,4.44688 0.93019,5.52961 2.22635,7.25 0.83804,1.11233 2.44836,3.42867 3.57848,5.14742 1.17869,1.79261 2.4155,3.125 2.90084,3.125 1.22373,0 3.44313,-2.47208 8.19353,-9.12638 2.92819,-4.10177 5.37842,-6.87814 8.14355,-9.22753 6.56453,-5.57755 14.1647,-13.17232 17.15825,-17.14609 2.91425,-3.86847 4.145,-4.74672 9.1687,-6.54275 4.0533,-1.4491 7.96875,-4.79907 9.9468,-8.51024 1.6867,-3.16461 3.20665,-4.59199 6.82525,-6.40969 1.4546,-0.73066 2.68745,-1.9266 3.8345,-3.71972 0.9298,-1.45355 2.46575,-3.32342 3.41315,-4.15525 2.22645,-1.95485 8.05615,-4.36193 13.0503,-5.38844 4.81955,-0.99063 5.3002,-1.23858 7.3033,-3.7677 1.1023,-1.39179 2.77195,-2.57017 5.42375,-3.82791 4.9858,-2.36476 5.84055,-3.20029 7.07795,-6.91869 1.0834,-3.25565 3.37395,-6.11777 5.1945,-6.4907 0.5823,-0.11928 2.3522,-0.30333 3.9331,-0.40898 1.58095,-0.10566 3.0143,-0.33197 3.18525,-0.50292 0.17095,-0.17095 0.5102,-1.38996 0.75385,-2.70891 0.9647,-5.22233 3.20165,-6.50206 12.51885,-7.16194 7.8013,-0.55252 14.85095,-1.52647 21.40905,-2.9578 3.90535,-0.85235 5.3148,-1.44293 8.3707,-3.50744 4.35575,-2.94264 5.73195,-3.26337 12.18705,-2.84035 4.29915,0.28174 5.37,0.17582 8.7979,-0.87026 10.64665,-3.24898 21.97375,-5.11542 28.15295,-4.63894 3.98065,0.30695 18.71675,3.89792 21.14175,5.15193 0.79305,0.41012 2.7324,1.93202 4.3096,3.382 2.5031,2.30114 3.40365,2.78066 7.08315,3.77164 7.0247,1.8919 8.7846,3.13329 11.15325,7.8674 1.1475,2.29348 1.69025,2.78634 4.68015,4.25 4.5416,2.22328 5.6321,3.87651 5.6321,8.53842 0,3.38152 0.0562,3.53876 1.89665,5.30106 1.04315,0.9989 2.71285,2.43033 3.71045,3.18095 2.35885,1.77485 8.74155,10.00276 9.98315,12.86921 0.5676,1.31041 1.1505,4.30773 1.40995,7.25 0.41245,4.67674 2.1003,13.05895 2.9734,14.76602 0.8021,1.56831 2.09295,1.0296 5.56505,-2.32243 2.57025,-2.48132 3.97255,-4.34808 5.19335,-6.91337 0.9198,-1.93281 2.7842,-5.0167 4.1431,-6.85308 3.27565,-4.4267 4.50285,-7.43507 5.3587,-13.13661 0.8359,-5.5683 1.0838,-6.11249 3.87175,-8.49887 1.9538,-1.67238 3.3912,-2.25733 9.23835,-3.75949 4.6725,-1.2004 10.70455,-7.6117 11.65755,-12.3905 1.115,-5.59109 2.0107,-7.18844 5.26425,-9.38801 2.0926,-1.41472 3.2949,-2.66004 4.02385,-4.16777 1.55455,-3.21553 3.42285,-4.9141 7.8576,-7.14385 2.2032,-1.10776 5.16105,-3.10666 6.573,-4.442 1.4119,-1.33534 3.19215,-2.66552 3.95605,-2.95595 2.17865,-0.82834 6.05035,-0.62126 8.8238,0.47193 3.45185,1.36059 5.17425,1.25976 8.2168,-0.481 4.7873,-2.73901 7.22455,-3.10472 21.72655,-3.26001 13.19335,-0.14129 13.19335,-0.14129 16.0487,2.4837 2.1425,1.96965 3.7124,2.9102 6.2883,3.76741 2.7599,0.91843 4.13735,1.78919 7.0257,4.44116 1.976,1.81431 4.68425,3.97374 6.01835,4.79874 3.1592,1.95366 5.3082,5.2431 6.9548,10.64563 1.3144,4.31251 4.40325,10.20953 6.199,11.83465 0.83795,0.75832 1.0727,0.76839 2.35135,0.10079 3.7398,-1.95256 5.69415,-3.87858 7.2264,-7.12161 1.7861,-3.78026 3.85445,-5.5363 8.6092,-7.30921 2.50685,-0.93472 3.84665,-1.91595 7.1504,-5.2367 2.25995,-2.27156 5.19015,-4.65634 6.59775,-5.36963 2.8746,-1.45664 26.7737,-7.53574 31.3367,-7.97094 1.65,-0.15737 4.45355,-0.87796 6.2301,-1.6013 4.4941,-1.82981 7.4698,-2.1924 13.32435,-1.62354 4.423,0.42976 6.20325,0.33255 14.25,-0.77808 6.63435,-0.9157 11.14525,-1.25118 16.19555,-1.2045 6.3497,0.0587 7.3716,-0.0592 11,-1.26905 2.2,-0.73356 4.7875,-1.33167 5.75,-1.32914 2.9765,0.008 5.92425,1.76963 9.94745,5.94532 2.41755,2.50919 4.8042,4.44335 6.55255,5.31022 1.5125,0.74993 4.1,2.31706 5.75,3.4825 3.91575,2.76583 5.44505,3.50552 8.65,4.18387 4.13775,0.87578 5.44575,1.78349 11.70105,8.11989 6.58005,6.66542 6.9558,7.46061 5.8927,12.47039 -0.60895,2.86936 -0.5869,3.03052 0.67615,4.9391 0.83265,1.2582 2.56665,2.70942 4.78645,4.00586 5.81415,3.39564 6.6781,5.51779 5.0255,12.34407 -0.856,3.53562 -1.00275,5.18274 -0.7261,8.14815 0.4905,5.25723 1.5411,8.87974 3.183,10.97535 2.88415,3.68098 3.1832,5.62647 1.74495,11.35214 -0.7924,3.15458 -0.7833,3.36097 0.3113,7.04814 1.3039,4.39219 1.17515,7.06061 -0.52635,10.90763 -1.492,3.37343 -1.4222,6.28874 0.2454,10.25 1.03335,2.45471 1.5395,4.90176 2.06835,10 0.6761,6.51733 2.1092,12.2291 5.17185,20.61251 0.57515,1.57438 1.04575,3.43786 1.04575,4.14106 0,2.15364 -1.40445,4.7988 -4.0117,7.55556 -2.8036,2.96438 -2.78425,2.85321 -1.7925,10.30543 0.52205,3.92282 0.94655,5.32636 2.1928,7.25 0.85,1.31199 2.24805,3.56016 3.1068,4.99592 1.547,2.58643 2.66305,3.67141 5.95865,5.79269 2.61045,1.68028 3.8038,3.59455 3.7458,6.00879 -0.0689,2.87223 -3.67305,9.90165 -6.75925,13.18311 -1.3423,1.42729 -2.4406,2.80525 -2.4406,3.06214 0,0.25689 0.3375,1.42364 0.75,2.59279 1.0922,3.09562 0.93625,4.6596 -0.8096,8.11802 -1.55955,3.0895 -1.55955,3.0895 -1.2033,12.11074 0.19595,4.96168 0.44055,13.18374 0.5436,18.27124 0.103,5.0875 0.43165,10.6 0.7303,12.25 0.29865,1.65 0.47715,5.25 0.3966,8 -0.1451,4.95494 -0.12845,5.036 1.848,8.99441 2.21215,4.43051 3.1422,5.19044 7.9968,6.53413 2.28403,0.63219 5.02103,0.82044 11.49763,0.79084 11.4501,-0.0523 18.6127,-0.74904 23.75,-2.31015 8.7229,-2.65071 15.9091,-4.26901 21.1908,-4.77208 4.3381,-0.4132 6.3143,-0.88074 9.75,-2.30671 4.5695,-1.89652 14.1907,-4.18044 17.6105,-4.18044 2.7999,0 5.2168,1.25682 6.5429,3.40238 1.0129,1.63904 1.1477,2.73726 1.5425,12.57177 0.5219,12.99796 0.2205,26.1054 -0.656,28.52585 -1.7044,4.70687 -4.2865,6.20724 -12.0211,6.9849 -2.9097,0.29256 -6.8472,0.96181 -8.75,1.48723 -1.9028,0.52542 -5.4846,1.32193 -7.9596,1.77002 -6.2573,1.13286 -8.8137,2.00279 -14.0063,4.76646 -4.903,2.60951 -10.194,4.31096 -19.4937,6.26862 -3.9919,0.84033 -7.5898,1.99276 -10.75,3.44335 -7.1237,3.26985 -6.8441,3.26244 -19.75003,0.52273 -4.75285,-1.00894 -8.11275,-1.40251 -12.5,-1.46422 -5.74965,-0.0809 -6.2295,-0.17223 -11.5,-2.18948 -6.2581,-2.39525 -15.45435,-6.75292 -20.25,-9.59552 -1.7875,-1.05954 -4.7125,-2.29417 -6.5,-2.74364 -6.05865,-1.52345 -8.4976,-3.92795 -11.0005,-10.84505 -0.8644,-2.38891 -2.4303,-5.76367 -3.4798,-7.49944 -1.63615,-2.70617 -2.3927,-3.41828 -5.30815,-4.99653 -6.59785,-3.57166 -8.01595,-6.13403 -6.5535,-11.84114 0.4677,-1.82506 0.84845,-3.60161 0.84615,-3.9479 0,-0.34628 -0.89715,-2.71956 -1.9885,-5.27395 -1.33035,-3.11386 -2.2191,-6.20175 -2.6969,-9.37039 -0.3919,-2.59933 -1.0973,-6.04508 -1.5675,-7.65724 -0.96825,-3.31979 -0.87555,-6.53515 0.4613,-16.00053 0.9686,-6.85814 1.724,-9.38314 4.0834,-13.64952 1.971,-3.56406 2.13785,-5.60342 0.715,-8.73916 -1.0839,-2.38869 -1.28355,-5.14767 -0.51815,-7.16085 0.2711,-0.71299 1.51025,-2.38397 2.75365,-3.7133 2.2608,-2.41694 2.2608,-2.41694 2.19575,-6.8612 -0.036,-2.44434 0.16755,-5.45675 0.4519,-6.69425 0.7597,-3.30677 0.33465,-20.35571 -0.86015,-34.5 -1.01925,-12.06676 -2.31725,-23.55728 -2.821,-24.97377 -0.1416,-0.39807 -0.4524,-2.78481 -0.69075,-5.30386 -0.32115,-3.39476 -0.78815,-5.27786 -1.8045,-7.27623 -2.1219,-4.1723 -2.2921,-5.60179 -1.118,-9.38923 0.8847,-2.85382 0.969,-3.92347 0.61525,-7.80691 -0.68875,-7.56112 -0.55425,-18.20919 0.2637,-20.875 0.61795,-2.01404 0.62785,-2.73596 0.0649,-4.75 -0.36505,-1.30625 -0.83955,-4.3513 -1.05435,-6.76677 -0.3482,-3.91463 -0.589,-4.67978 -2.2165,-7.04287 -1.1829,-1.71751 -2.1707,-4.03098 -2.8051,-6.56948 -0.7291,-2.91764 -1.5041,-4.59879 -3.0346,-6.5826 -3.6052,-4.67298 -4.69525,-5.45724 -10.35875,-7.45276 -6.52905,-2.30049 -10.3954,-2.65226 -15.83925,-1.44112 -3.3349,0.74194 -4.94405,0.80612 -10.705,0.4269 -3.72905,-0.24546 -9.2551,-0.44285 -12.2801,-0.43864 -5.16545,0.007 -5.7114,0.10729 -8.9749,1.64549 -2.7491,1.29571 -4.4363,2.62452 -8.0775,6.36163 -2.5314,2.5981 -5.16545,4.93784 -5.85345,5.19942 -0.688,0.26157 -2.62905,0.63151 -4.31345,0.82208 -2.43265,0.27522 -3.26495,0.6038 -4.04665,1.59753 -0.5412,0.68808 -0.98405,1.55755 -0.98405,1.93218 0,1.10339 -3.4817,4.63435 -5.9582,6.04246 -4.1954,2.38549 -5.45875,3.97248 -6.873,8.63368 -2.0834,6.86669 -3.2268,8.50698 -9.02795,12.95104 -2.18875,1.67672 -1.94265,1.23316 -10.16185,18.31445 -1.58995,3.30419 -3.2615,7.43816 -3.71455,9.1866 -0.45305,1.74845 -1.8352,5.09674 -3.07145,7.44067 -2.2477,4.26168 -2.2477,4.26168 -2.09535,10.56339 0.14735,6.09388 0.10565,6.39061 -1.2642,8.99697 -0.7791,1.4824 -1.7436,4.26376 -2.1433,6.1808 -0.3997,1.91705 -1.1648,4.34416 -1.70015,5.39357 -1.35905,2.66398 -3.2707,9.48007 -3.9895,14.22488 -0.5492,3.62505 -3.18225,11.14947 -5.5226,15.78162 -0.4935,0.97686 -1.92235,2.91616 -3.1751,4.30955 -2.48425,2.76309 -3.3028,4.4283 -3.3028,6.71912 0,0.81933 -0.361,2.92687 -0.80225,4.68341 -0.7982,3.17764 -0.79565,3.20804 0.5,6.03818 1.99185,4.35078 1.7872,6.45205 -1.02905,10.56559 -4.1562,6.0708 -4.62685,8.36355 -4.8561,23.65803 -0.1321,8.80872 -0.2039,9.40206 -1.50505,12.43746 -1.0944,2.55299 -1.4711,4.49373 -1.8926,9.75 -0.87155,10.86959 -0.92005,10.35025 1.08505,11.61617 3.75165,2.36858 4.08225,2.9085 3.7233,6.08093 -0.2827,2.4988 -0.15605,3.18903 0.9759,5.31794 2.9462,5.54101 0.72535,8.87363 -7.37245,11.0631 -2.4812,0.67086 -3.31285,1.22089 -5.5,3.63739 -1.4172,1.56585 -3.9699,4.19701 -5.67265,5.84701 -1.7027,1.65 -4.11845,4.3292 -5.3683,5.95379 -2.5068,3.25841 -5.9364,6.05178 -9.4687,7.71217 -3.35975,1.57926 -7.34455,1.45942 -11.9291,-0.35876 -2.0009,-0.79354 -5.888,-2.03856 -8.638,-2.76671 -5.16135,-1.36663 -10.1768,-3.45821 -12.8401,-5.35467 -1.8902,-1.34592 -3.3844,-4.52468 -3.3989,-7.23084 -0.006,-1.12476 -0.461,-3.8045 -1.011,-5.95498 -1.2801,-5.00521 -1.2627,-5.54729 0.30855,-9.61359 1.16715,-3.02047 1.3785,-4.60211 1.95565,-14.63641 0.82805,-14.396 3.23555,-31.91667 5.80555,-42.25 1.19705,-4.81289 2.14155,-10.0188 2.3709,-13.06742 0.34105,-4.53343 0.55365,-5.33619 2.01785,-7.6179 1.2794,-1.99381 1.73885,-3.39776 2.1049,-6.43257 0.25755,-2.13516 0.8946,-5.23211 1.41565,-6.88211 0.5211,-1.65 1.32235,-4.35 1.7806,-6 0.45825,-1.65 2.2516,-6.6 3.9853,-11 1.73365,-4.4 3.5434,-9.2375 4.0216,-10.75 1.25785,-3.97811 4.3019,-11.50407 6.93475,-17.14525 2.7517,-5.89574 4.96035,-12.03606 5.7928,-16.10475 0.3376,-1.65 1.35115,-5.025 2.25235,-7.5 3.8508,-10.5757 6.77035,-20.42135 7.5611,-25.49859 0.7421,-4.76475 0.76985,-6.37042 0.23265,-13.45588 -0.3355,-4.42505 -0.8187,-9.95803 -1.0737,-12.29553 -0.25505,-2.3375 -0.4643,-6.01529 -0.4651,-8.17285 0,-4.7076 -0.65895,-6.05685 -3.92825,-8.0638 -5.95645,-3.65659 -7.64325,-6.72078 -6.546,-11.89136 0.38155,-1.79789 0.4419,-3.10295 0.15665,-3.38818 -0.7959,-0.79591 -3.8793,0.4006 -8.01,3.1083 -2.1581,1.41463 -6.1809,3.63276 -8.9396,4.92918 -5.99385,2.81676 -15.49265,8.92206 -20.89,13.42696 -5.09885,4.25578 -10.07035,10.36735 -12.24395,15.05175 -2.37235,5.11277 -5.05495,8.97202 -9.71255,13.9727 -2.86505,3.07608 -4.45355,5.31833 -5.85,8.25762 -1.05435,2.21921 -2.7061,5.0687 -3.67055,6.33223 -0.96445,1.26351 -2.8184,3.91365 -4.1199,5.88919 -1.6529,2.50892 -3.2213,4.17246 -5.20195,5.51749 -3.50645,2.38119 -3.8707,2.81723 -5.051,6.04638 -0.5214,1.42649 -1.8337,3.97529 -2.9162,5.664 -1.08255,1.68871 -2.21835,3.86251 -2.52405,4.83066 -0.30575,0.96814 -1.4702,2.86673 -2.58775,4.21909 -2.50415,3.03041 -2.657,3.33759 -3.41245,6.85838 -0.5163,2.40622 -1.0125,3.23002 -3.26305,5.4174 -2.56075,2.48891 -2.66505,2.69658 -2.9645,5.9037 -0.3195,3.42146 -1.30515,5.36979 -3.6631,7.24089 -1.99925,1.58649 -5.44575,9.66516 -6.85215,16.06172 -0.8229,3.74258 -2.1293,7.72698 -3.5934,10.9595 -1.3733,3.03208 -2.78105,7.24637 -3.4929,10.45672 -0.65585,2.95772 -1.39385,5.77022 -1.64,6.25 -0.24615,0.47978 -0.85115,2.55983 -1.34445,4.62233 -0.49325,2.0625 -1.31165,4.7249 -1.8186,5.91645 -0.60825,1.42964 -0.9218,3.38521 -0.92195,5.75 -1.5e-4,2.40686 -0.3383,4.47292 -1.0297,6.29211 -1.0295,2.70856 -1.0295,2.70856 0.035,5.55442 0.8894,2.37825 1.07915,4.06928 1.1547,10.29144 0.1155,9.50846 -0.44915,12.05041 -3.76815,16.96323 -2.5343,3.75133 -2.5343,3.75133 -2.25155,7.49018 0.37125,4.90858 -0.9463,11.38132 -3.25845,16.00757 -0.95785,1.91653 -2.11425,4.62267 -2.5698,6.01366 -0.90815,2.77305 -3.359,5.44526 -7.5616,8.2445 -1.375,0.91585 -3.31265,2.31037 -4.30585,3.09894 -2.0916,1.66057 -5.7327,2.8775 -8.60965,2.8775 -1.1036,0 -3.9366,0.36192 -6.29555,0.80427 -4.71445,0.88405 -8.09095,0.69926 -10.63705,-0.58216 -0.90855,-0.45725 -3.23375,-2.43803 -5.1671,-4.40174 -1.93335,-1.9637 -4.60945,-4.45794 -5.94685,-5.54275 -1.6787,-1.36167 -2.86785,-2.90981 -3.8405,-5 -1.5736,-3.38151 -2.94745,-8.24104 -2.94745,-10.4254 0,-0.79073 -0.7875,-3.0362 -1.75,-4.98994 -2.1565,-4.37736 -2.26055,-6.95943 -0.47205,-11.71454 0.7389,-1.96458 1.46475,-5.29583 1.72085,-7.89774 0.2436,-2.475 0.682,-6.9272 0.97425,-9.89377 0.29225,-2.96657 0.9829,-6.67841 1.53475,-8.24854 0.78975,-2.24698 0.98845,-3.99827 0.93325,-8.22576 -0.07,-5.37098 -0.07,-5.37098 2.43965,-10.50146 2.3548,-4.81372 7.1353,-16.99701 7.92325,-20.19265 0.195,-0.7908 1.23885,-3.80032 2.31975,-6.68782 1.08085,-2.8875 2.28145,-7.20493 2.6679,-9.59429 0.4035,-2.49458 1.43055,-6.00725 2.41215,-8.25 0.9402,-2.14814 2.49175,-6.15571 3.4479,-8.90571 0.95615,-2.75 2.52525,-6.9125 3.48695,-9.25 0.9617,-2.3375 2.2432,-6.6125 2.84785,-9.5 0.6046,-2.8875 1.7475,-7.95 2.53975,-11.25 0.7923,-3.3 2.12395,-9.5819 2.9593,-13.95978 0.89955,-4.71429 2.0485,-9.09744 2.81795,-10.75 1.27375,-2.73575 1.2993,-3.00498 1.3087,-13.79022 0.009,-9.87207 -0.0964,-11.29456 -1.0235,-13.8726 -0.56825,-1.57993 -1.5005,-5.02965 -2.0717,-7.66606 -2.22275,-10.25942 -7.3168,-16.66585 -14.1406,-17.78365 -6.6354,-1.08697 -7.29645,-1.39247 -11.48115,-5.30593 -2.1817,-2.04029 -5.01935,-4.1874 -6.30595,-4.77135 -3.39775,-1.54218 -8.66045,-1.36575 -16.83925,0.56451 -3.575,0.84373 -8.3,1.67216 -10.5,1.84097 -6.08095,0.46658 -8.5244,1.117 -14.30425,3.80759 -4.04265,1.88192 -6.1848,2.56797 -9.0065,2.8844 -5.94505,0.66671 -13.4503,4.8414 -17.0596,9.48914 -2.6277,3.38373 -5.57335,5.31811 -9.7545,6.40573 -1.58135,0.41133 -4.78765,1.9323 -7.12515,3.37992 -2.3375,1.44761 -5.98455,3.59959 -8.1046,4.78217 -4.5259,2.52462 -10.74305,8.00836 -11.714,10.33221 -0.37475,0.89695 -0.68265,2.25681 -0.6842,3.02189 -0.01,4.70293 -2.7724,8.26624 -8.71955,11.24537 -2.2152,1.10966 -5.33735,2.99786 -6.93805,4.196 -1.8042,1.35044 -4.19175,2.56003 -6.2816,3.18242 -3.8196,1.13751 -5.1835,2.33017 -6.30725,5.51512 -1.69695,4.80962 -4.3614,8.0948 -9.05765,11.16773 -2.0265,1.32603 -2.59545,2.05253 -3.3975,4.33858 -1.32635,3.7804 -8.8418,11.11404 -14.31745,13.97108 -4.6805,2.44217 -5.2704,3.09074 -6.4367,7.07674 -0.5146,1.75891 -1.75935,5.11052 -2.76606,7.44802 -1.0067,2.3375 -2.87278,6.725 -4.14683,9.75 -1.27405,3.025 -3.41192,7.22983 -4.75082,9.34408 -1.94401,3.06978 -2.53602,4.53013 -2.93906,7.25 -0.71294,4.81128 -4.06797,11.40603 -8.36102,16.43464 -4.18239,4.89899 -4.42907,5.34264 -4.87069,8.75979 -0.19273,1.49132 -0.89099,4.3814 -1.5517,6.42241 -1.04034,3.21376 -1.13121,4.03764 -0.67827,6.14961 1.27211,5.93167 0.48651,8.14889 -4.62132,13.04278 -4.55789,4.36699 -4.05791,2.76225 -5.27454,16.92915 -0.38156,4.443 -0.58465,5.11324 -2.51998,8.31633 -2.57693,4.26495 -2.89162,6.01277 -2.05309,11.40308 0.63696,4.09453 0.61904,4.31092 -0.67289,8.12628 -0.73,2.15585 -1.68218,5.79062 -2.11595,8.07725 -0.43376,2.28664 -1.33266,5.52712 -1.99754,7.20106 -1.5808,3.9799 -4.89624,15.31044 -6.20629,21.20999 -0.56992,2.56655 -1.80123,7.06655 -2.73624,10 -0.935,2.93345 -2.05691,7.13355 -2.49313,9.33355 -0.43621,2.2 -1.4404,6.25 -2.23153,9 -1.57799,5.4852 -2.41493,10.6236 -3.08757,18.9561 -0.62096,7.6925 -1.46064,9.87595 -5.25992,13.67755 -3.71956,3.72185 -8.13296,5.97975 -13.07435,6.68885 -1.86046,0.267 -5.52016,0.8135 -8.13266,1.21445 -7.02457,1.0781 -10.235,0.943 -13.47954,-0.56725 z"
     id="path746"
     inkscape:connector-curvature="0" />
</svg>
