<?xml version="1.0" encoding="UTF-8" standalone="no"?>
<!-- Created with Inkscape (http://www.inkscape.org/) -->

<svg
   xmlns:dc="http://purl.org/dc/elements/1.1/"
   xmlns:cc="http://creativecommons.org/ns#"
   xmlns:rdf="http://www.w3.org/1999/02/22-rdf-syntax-ns#"
   xmlns:svg="http://www.w3.org/2000/svg"
   xmlns="http://www.w3.org/2000/svg"
   xmlns:sodipodi="http://sodipodi.sourceforge.net/DTD/sodipodi-0.dtd"
   xmlns:inkscape="http://www.inkscape.org/namespaces/inkscape"
   version="1.1"
   id="svg392"
   width="1000"
   height="1000"
   viewBox="0 0 1000 1000"
   sodipodi:docname="Masomeh_bdc_g.svg"
   inkscape:version="0.92.2 5c3e80d, 2017-08-06">
  <metadata
     id="metadata398">
    <rdf:RDF>
      <cc:Work
         rdf:about="">
        <dc:format>image/svg+xml</dc:format>
        <dc:type
           rdf:resource="http://purl.org/dc/dcmitype/StillImage" />
        <dc:title></dc:title>
      </cc:Work>
    </rdf:RDF>
  </metadata>
  <defs
     id="defs396" />
  <sodipodi:namedview
     pagecolor="#ffffff"
     bordercolor="#666666"
     borderopacity="1"
     objecttolerance="10"
     gridtolerance="10"
     guidetolerance="10"
     inkscape:pageopacity="0"
     inkscape:pageshadow="2"
     inkscape:window-width="1027"
     inkscape:window-height="480"
     id="namedview394"
     showgrid="false"
     inkscape:zoom="0.19666667"
     inkscape:cx="470.5"
     inkscape:cy="600"
     inkscape:window-x="64"
     inkscape:window-y="103"
     inkscape:window-maximized="0"
     inkscape:current-layer="svg392" />
  <path
     style="fill:#000000;stroke-width:0.5"
     d="m 333.30931,927.04634 c -3.40939,-0.98025 -13.07346,-1.80225 -16.75,-1.42475 -4.78772,0.4916 -10.53648,-0.1727 -25.75,-2.9756 -9.95862,-1.8347 -18.59792,-4.7311 -23.66783,-7.93475 -1.4673,-0.9272 -3.6048,-2.0487 -4.74999,-2.4922 -1.1452,-0.4435 -2.50193,-1.1652 -3.01495,-1.6038 -1.62806,-1.39185 -5.25551,-8.10735 -6.63072,-12.27545 -0.72986,-2.2121 -2.17676,-5.597 -3.21533,-7.522 -2.38465,-4.41995 -3.09328,-6.86805 -5.21018,-18 -0.94132,-4.95 -2.05067,-10.575 -2.46524,-12.5 -0.47089,-2.18655 -0.80563,-6.8774 -0.89201,-12.5 -0.11495,-7.48182 0.0106,-9.47344 0.74458,-11.80661 0.52078,-1.65553 1.06826,-5.75682 1.33491,-10 0.49158,-7.82248 2.19713,-15.81351 4.98865,-23.37333 0.84891,-2.29896 1.97535,-6.15876 2.50321,-8.57734 0.52786,-2.41856 1.5058,-5.48759 2.17319,-6.82006 0.66739,-1.33247 1.58792,-3.56716 2.04562,-4.96598 0.45771,-1.39883 1.82388,-4.05318 3.03593,-5.89857 1.21206,-1.84539 2.78497,-5.08839 3.49536,-7.20668 0.71039,-2.11828 1.84157,-4.75143 2.51374,-5.85143 0.67215,-1.1 1.84962,-3.10929 2.61658,-4.46507 1.87505,-3.31462 5.38216,-7.08905 8.02734,-8.63922 1.73609,-1.01742 2.61396,-1.21977 4.4125,-1.01704 5.62571,0.63409 6.94736,5.22582 4.7122,16.37133 -0.57907,2.8875 -1.18648,7.3875 -1.34981,10 -0.16489,2.63768 -0.68878,5.75878 -1.17806,7.01846 -0.48461,1.24765 -1.04411,3.61015 -1.24333,5.25 -0.19922,1.63985 -0.92228,4.44404 -1.6068,6.23154 -1.19923,3.13154 -1.25422,3.79673 -1.50856,18.25 -0.34644,19.68653 -0.34174,21.06924 0.10445,30.75 0.77531,16.8218 5.13038,26.93945 15.62915,36.30935 4.06858,3.63115 5.80414,4.5671 13.44212,7.2493 7.18988,2.5248 12.01021,3.3195 22.62339,3.7298 8.59077,0.33215 8.50152,0.3409 21.07989,-2.06525 6.64487,-1.2711 13.67446,-3.5342 18.76343,-6.0406 2.26961,-1.11785 5.10175,-2.00005 8,-2.492 2.46761,-0.41885 5.72407,-1.3281 7.23657,-2.0205 1.5125,-0.6924 4.6625,-1.9395 7,-2.77135 4.89322,-1.74135 5.17941,-1.9254 11.5162,-7.4064 5.09331,-4.40545 7.38967,-5.6914 11.10122,-6.21645 1.68717,-0.23865 3.09283,-0.9083 4.89197,-2.33045 1.38851,-1.09755 3.52726,-2.42535 4.75277,-2.95065 1.22552,-0.52535 3.41163,-1.8373 4.85803,-2.91545 1.4464,-1.0782 3.74668,-2.44575 5.11174,-3.03905 1.44527,-0.6281 3.95137,-2.50025 6,-4.4822 2.58923,-2.50496 4.1985,-3.62839 6.09529,-4.25514 1.6396,-0.54177 3.82243,-1.92456 6,-3.8009 1.88253,-1.62214 5.33528,-4.23323 7.67278,-5.80244 5.79863,-3.89274 6.96863,-4.91081 10.24383,-8.91368 1.55888,-1.90523 5.9105,-6.51773 9.67025,-10.25 4.03523,-4.00573 7.5529,-7.99 8.58592,-9.7248 0.9625,-1.61637 2.80645,-4.31637 4.09767,-6 4.46736,-5.82503 8.7595,-12.57556 10.19403,-16.03284 0.79229,-1.90943 2.41317,-4.66574 3.60197,-6.12512 1.1888,-1.45938 2.72306,-3.9233 3.40947,-5.47538 0.6864,-1.55208 1.88067,-3.74578 2.65393,-4.87488 0.77327,-1.12911 1.57812,-2.61542 1.78858,-3.30292 0.8503,-2.77762 2.2849,-4.88517 4.25435,-6.25 2.34596,-1.62575 3.57718,-3.74854 4.49502,-7.75 0.61995,-2.70277 4.87941,-12.71736 9.32638,-21.92768 1.24218,-2.57272 3.23616,-7.41022 4.43109,-10.75 1.19491,-3.33978 3.53494,-9.76802 5.20004,-14.28498 1.66511,-4.51696 3.38786,-9.45234 3.82833,-10.96752 0.97183,-3.34296 4.30546,-11.78182 5.91982,-14.98561 0.6469,-1.28382 1.63604,-4.16272 2.19809,-6.39756 0.56204,-2.23485 1.60258,-5.20927 2.3123,-6.60983 1.73052,-3.41502 6.57915,-18.15517 7.7764,-23.64075 0.52903,-2.42394 1.17936,-4.81354 1.44518,-5.31023 0.26581,-0.49668 1.05756,-3.62292 1.75945,-6.94721 1.22785,-5.8154 4.32928,-13.79132 8.84827,-22.75497 0.78369,-1.55448 1.6687,-4.36698 1.9667,-6.25 0.29799,-1.88301 1.1991,-4.88616 2.00247,-6.67366 0.80336,-1.7875 2.0222,-5.275 2.70853,-7.75 0.68633,-2.475 1.70553,-5.78813 2.2649,-7.36251 1.08939,-3.06619 1.27523,-4.6689 0.59045,-5.09212 -0.6396,-0.39529 -9.86215,6.34591 -13.57342,9.92148 -1.7875,1.72213 -4.0375,3.53063 -5,4.01888 -0.9625,0.48826 -2.875,1.69683 -4.25,2.68572 -1.375,0.98889 -7.7875,4.47021 -14.25,7.73625 -11.75,5.93827 -11.75,5.93827 -19.23025,6.4379 -5.23852,0.34989 -8.01593,0.33913 -9.26774,-0.0359 -2.13153,-0.63862 -4.35071,-2.70717 -6.50358,-6.06212 -1.03963,-1.62012 -2.62846,-3.12577 -4.66271,-4.41859 -4.04078,-2.56801 -4.30434,-2.88358 -10.71474,-12.82897 -7.09108,-11.00141 -11.39839,-19.63047 -12.61744,-25.27719 -0.50786,-2.35245 -2.19227,-7.62534 -3.74313,-11.71751 -1.55085,-4.09218 -3.25481,-9.25494 -3.78657,-11.47281 -1.57228,-6.55766 -1.10238,-16.75712 1.05382,-22.87399 0.75321,-2.13677 1.04091,-4.43088 1.16,-9.25 0.1202,-4.86367 0.40003,-7.07141 1.16081,-9.1585 0.55134,-1.5125 1.15761,-4.1382 1.34727,-5.83489 0.18966,-1.6967 0.984,-4.8467 1.7652,-7 0.7812,-2.15331 1.58295,-4.70261 1.78167,-5.66511 0.61932,-2.99979 3.14749,-7.76221 6.52699,-12.29517 2.35627,-3.1605 3.53493,-5.3022 4.29484,-7.80402 1.06442,-3.5044 1.62843,-4.24193 5.83649,-7.63218 2.0594,-1.65917 7.08494,-7.57586 9.57138,-11.26863 1.88251,-2.79582 7.40722,-8.29857 12.27769,-12.22888 2.475,-1.99725 5.85,-4.95872 7.5,-6.58104 5.26132,-5.17306 21.04953,-17.28864 26.05419,-19.99351 1.8952,-1.02429 4.34581,-2.57757 5.44581,-3.45172 2.89888,-2.30371 3.99574,-2.78564 7.42676,-3.26311 3.23322,-0.44994 11.50161,-2.69935 17.82324,-4.84881 6.18132,-2.10175 8.65139,-2.0588 15.96411,0.27758 3.45724,1.10457 8.98589,2.70847 12.28589,3.56423 3.3,0.85576 7.87515,2.44773 10.16701,3.53771 2.30625,1.09683 5.59747,2.2103 7.37043,2.49354 1.76188,0.28146 5.28673,1.41491 7.83299,2.51877 5.04667,2.18785 9.01662,5.53681 11.93304,10.06644 1.50448,2.33668 5.72145,11.81214 7.47017,16.78537 1.40529,3.99652 2.05394,9.61488 1.43941,12.46754 -0.28506,1.32324 -0.68288,4.99339 -0.88403,8.15589 -0.33867,5.32432 -0.50718,6.02624 -2.27628,9.48137 -1.63212,3.18759 -1.97199,4.42628 -2.33225,8.5 -0.41702,4.71571 -1.50945,8.75084 -3.26558,12.06222 -0.49773,0.93853 -1.61063,4.40641 -2.47311,7.70641 -5.55142,21.24071 -7.05579,26.7735 -9.04076,33.25 -2.45413,8.00729 -3.1838,11.73454 -3.18815,16.28535 -0.003,3.11288 -0.0564,3.25093 -4.13579,10.69059 -1.59231,2.9039 -6.47089,19.89675 -7.83031,27.27417 -0.50675,2.75007 -1.59484,7.25007 -2.41798,10 -1.46002,4.87762 -2.02787,7.01775 -4.17895,15.74989 -0.57582,2.3375 -2.13335,8.075 -3.46118,12.75 -1.32783,4.675 -2.87098,10.3 -3.42922,12.5 -0.55825,2.2 -1.92261,6.7 -3.03192,10 -1.10931,3.3 -2.34608,8.025 -2.74838,10.5 -0.43192,2.65723 -1.68451,6.95704 -3.05878,10.5 -1.28002,3.3 -3.44277,9.6 -4.8061,14 -1.45454,4.69436 -3.37483,9.65282 -4.64732,12 -1.19269,2.2 -2.54249,5.4625 -2.99956,7.25 -0.45706,1.7875 -1.11166,3.7 -1.45465,4.25 -0.76178,1.22151 -5.30275,12.45056 -5.30275,13.11277 0,1.86886 -5.31325,14.27903 -7.673,17.92183 -2.77697,4.28691 -3.32226,5.51459 -5.31453,11.96538 -0.59452,1.925 -2.05207,5.75 -3.239,8.5 -1.18695,2.75 -2.54027,6.33656 -3.00739,7.97014 -0.46713,1.63358 -1.58779,4.44608 -2.49034,6.25 -0.90256,1.80392 -2.68816,5.7714 -3.96801,8.81661 -1.56601,3.72611 -3.13029,6.50581 -4.78341,8.5 -1.35104,1.62979 -4.2573,5.50438 -6.45837,8.61021 -3.40126,4.79935 -4.23281,6.39005 -5.54004,10.59775 -2.53981,8.17514 -3.07092,9.0828 -8.41095,14.37434 -3.16999,3.14119 -5.67875,6.1705 -7.03843,8.49883 -1.162,1.98983 -3.30627,5.02733 -4.76504,6.75 -2.76574,3.26607 -7.07678,9.71068 -9.58064,14.32217 -1.12808,2.07766 -2.2171,3.18844 -4.7837,4.87933 -1.82772,1.2041 -5.94796,4.66198 -9.15611,7.68417 -7.15107,6.7366 -11.19494,10.1291 -14.79104,12.4085 -1.5125,0.95875 -3.60657,2.5067 -4.65348,3.44 -1.04692,0.93325 -3.07191,2.4461 -4.5,3.3619 -1.42808,0.9158 -4.01501,2.93315 -5.74874,4.483 -1.73371,1.54985 -4.72565,3.61025 -6.64873,4.5787 -2.68523,1.35225 -4.56309,2.87065 -8.09332,6.5439 -4.74432,4.9366 -6.16681,5.91145 -10.85573,7.4396 -3.22389,1.05065 -5.43542,2.3721 -8.7031,5.20025 -2.73406,2.3663 -3.98813,3.05885 -7.79221,4.303 -2.15515,0.70485 -3.62521,1.74055 -6.83837,4.81775 -2.25119,2.1559 -4.39437,3.91985 -4.76263,3.91985 -0.36825,0 -2.24099,0.9255 -4.16162,2.0566 -1.92064,1.13115 -4.68716,2.4738 -6.14783,2.98365 -1.46067,0.5099 -4.27515,1.9364 -6.25441,3.17 -4.45042,2.7738 -11.11327,5.8738 -15.08983,7.0207 -1.65,0.4759 -4.35,1.6097 -6,2.51955 -2.0709,1.14195 -4.00302,1.76575 -6.23868,2.0142 -1.78127,0.19795 -4.14377,0.6991 -5.25,1.11375 -1.32453,0.49645 -4.99912,0.87765 -10.76132,1.11635 -6.91997,0.2867 -9.4172,0.5866 -11.94014,1.43385 -3.29709,1.10725 -7.57725,1.33555 -10.30986,0.5499 z M 538.96032,559.36898 c 0.74324,-0.38435 1.80082,-1.19756 2.35017,-1.80714 0.54935,-0.60958 2.36589,-1.75538 4.03675,-2.54623 1.67088,-0.79086 3.64945,-2.12423 4.39684,-2.96305 0.7474,-0.83882 2.53033,-2.28191 3.96207,-3.20686 1.43174,-0.92495 3.50316,-2.61453 4.60316,-3.75463 1.1,-1.14009 3.575,-2.84001 5.5,-3.7776 4.53473,-2.20868 7.71999,-5.01072 10.72181,-9.43183 2.76264,-4.06886 4.07138,-5.36334 8.27819,-8.18806 3.32196,-2.23058 4.53812,-3.4566 6.22546,-6.27597 0.62547,-1.04509 2.11895,-3.0503 3.31884,-4.45601 2.16314,-2.53417 2.4149,-3.07642 3.89727,-8.39381 0.42165,-1.5125 1.70269,-4.30061 2.84675,-6.19579 1.77934,-2.94756 2.17743,-4.14046 2.75313,-8.25 0.37017,-2.64232 1.13346,-6.14029 1.69622,-7.77327 0.56275,-1.63298 1.25559,-4.42382 1.53963,-6.20186 0.28404,-1.77803 2.51745,-9.71182 4.96312,-17.63063 5.09765,-16.50562 5.84332,-20.8176 5.33705,-30.86285 -0.39424,-7.82239 -0.72403,-8.52499 -4.57747,-9.75203 -2.47801,-0.78907 -4.49269,-0.95337 -11.5788,-0.9443 -4.71833,0.006 -9.28591,0.16629 -10.15017,0.35611 -2.50829,0.55091 -7.025,2.51994 -10.26104,4.47323 -1.64451,0.99263 -3.89451,2.02722 -5,2.29908 -4.88721,1.20188 -5.92881,1.6373 -7.66608,3.20469 -1.01415,0.91499 -3.75977,2.87051 -6.10138,4.34562 -9.18488,5.78603 -12.8987,8.85026 -15.00573,12.38104 -1.08344,1.81552 -3.33043,4.98846 -4.99332,7.05096 -1.66289,2.0625 -4.08545,5.09007 -5.38346,6.72792 -1.29801,1.63785 -3.86005,4.61228 -5.69342,6.60983 -2.38693,2.60069 -3.62687,4.45254 -4.36698,6.52209 -0.56846,1.58959 -1.47528,3.67766 -2.01514,4.64016 -3.10557,5.53683 -5.80765,12.40503 -6.29072,15.98991 -0.20307,1.50696 -0.69945,3.64446 -1.10308,4.75 -0.94304,2.58299 -1.47578,13.21618 -1.09324,21.82016 0.23496,5.28453 0.57634,7.56193 1.625,10.84074 0.99419,3.10847 1.32756,5.187 1.32756,8.27711 0,3.76581 0.13701,4.34234 1.56833,6.59919 0.86258,1.36009 2.33824,4.09487 3.27925,6.0773 2.30303,4.85177 5.40032,7.86893 9.37033,9.12789 3.65786,1.15998 5.87839,1.25214 7.6831,0.31889 z M 683.0769,371.10066 c -0.72101,-1.34722 -0.64576,-2.67229 0.21651,-3.8123 0.67327,-0.89015 0.73542,-0.73235 0.75,1.90443 0.0171,3.0854 -0.15478,3.42461 -0.96651,1.90787 z"
     id="path402"
     inkscape:connector-curvature="0" />
</svg>
