<?xml version="1.0" encoding="UTF-8" standalone="no"?>
<!-- Created with Inkscape (http://www.inkscape.org/) -->

<svg
   xmlns:dc="http://purl.org/dc/elements/1.1/"
   xmlns:cc="http://creativecommons.org/ns#"
   xmlns:rdf="http://www.w3.org/1999/02/22-rdf-syntax-ns#"
   xmlns:svg="http://www.w3.org/2000/svg"
   xmlns="http://www.w3.org/2000/svg"
   xmlns:sodipodi="http://sodipodi.sourceforge.net/DTD/sodipodi-0.dtd"
   xmlns:inkscape="http://www.inkscape.org/namespaces/inkscape"
   version="1.1"
   id="svg323"
   width="1000"
   height="1000"
   viewBox="0 0 1000 1000"
   sodipodi:docname="Masomeh_maj_f.svg"
   inkscape:version="0.92.2 5c3e80d, 2017-08-06">
  <metadata
     id="metadata329">
    <rdf:RDF>
      <cc:Work
         rdf:about="">
        <dc:format>image/svg+xml</dc:format>
        <dc:type
           rdf:resource="http://purl.org/dc/dcmitype/StillImage" />
        <dc:title></dc:title>
      </cc:Work>
    </rdf:RDF>
  </metadata>
  <defs
     id="defs327" />
  <sodipodi:namedview
     pagecolor="#ffffff"
     bordercolor="#666666"
     borderopacity="1"
     objecttolerance="10"
     gridtolerance="10"
     guidetolerance="10"
     inkscape:pageopacity="0"
     inkscape:pageshadow="2"
     inkscape:window-width="1286"
     inkscape:window-height="768"
     id="namedview325"
     showgrid="false"
     inkscape:zoom="0.19781901"
     inkscape:cx="396"
     inkscape:cy="600"
     inkscape:window-x="0"
     inkscape:window-y="0"
     inkscape:window-maximized="0"
     inkscape:current-layer="svg323" />
  <path
     style="fill:#000000;stroke-width:0.5"
     d="m 373.64713,862.01277 c -2.75997,-1.25365 -4.44357,-3.41515 -7.24581,-9.30255 -3.05787,-6.42445 -3.16796,-6.84825 -2.31159,-8.8978 0.56632,-1.35545 1.3599,-2.0109 3.79625,-3.1357 2.31055,-1.0667 3.50939,-2.0194 4.79767,-3.81255 1.29777,-1.80645 2.59759,-2.8338 5.31959,-4.20455 1.9812,-0.99775 4.78246,-2.68595 6.225,-3.75165 1.44255,-1.06565 4.15659,-2.76955 6.0312,-3.78635 1.87461,-1.01685 4.36923,-2.49735 5.5436,-3.28995 1.17437,-0.79265 3.64937,-2.1422 5.5,-2.9991 1.85063,-0.85685 4.97037,-2.6324 6.93277,-3.9457 3.9674,-2.6551 4.67415,-3.8798 4.69378,-8.13385 0.0123,-2.6774 1.0327,-6.86547 3.30128,-13.5504 1.18197,-3.48295 1.34637,-4.70151 1.27183,-9.42706 -0.07,-4.43545 0.0938,-5.83257 0.89612,-7.64643 0.53994,-1.22065 1.12706,-3.05348 1.30468,-4.07294 0.59003,-3.38644 3.16942,-13.58541 3.67456,-14.52927 1.76561,-3.29908 3.68234,-9.76862 4.03283,-13.61205 0.21505,-2.35827 0.75459,-4.99084 1.19897,-5.85017 0.44438,-0.85933 0.80796,-2.66789 0.80796,-4.01901 0,-1.35111 0.22652,-3.651 0.50337,-5.11085 0.33785,-1.78146 0.33783,-3.98653 -8e-5,-6.70573 -0.62767,-5.05112 0.0408,-10.94625 1.75889,-15.51073 0.68144,-1.81043 1.23782,-4.35549 1.23782,-5.66222 0,-1.3055 0.47351,-4.05662 1.05224,-6.11359 0.61983,-2.20303 1.2123,-6.30837 1.44174,-9.98995 0.26257,-4.21326 0.68152,-6.90176 1.28561,-8.25 0.66,-1.47301 0.85992,-2.98811 0.75874,-5.75 -0.0756,-2.0625 -0.14392,-4.875 -0.15192,-6.25 -0.017,-2.93424 0.89806,-11.91853 1.5788,-15.5 0.26135,-1.375 0.49847,-5.425 0.52693,-9 0.0364,-4.57202 0.28169,-7.09322 0.82695,-8.5 2.44105,-6.29783 2.4217,-6.17374 1.51486,-9.71272 -1.01908,-3.97698 -1.04043,-5.19934 -0.14105,-8.07321 0.38108,-1.21774 0.96743,-4.35157 1.30296,-6.96407 0.33555,-2.6125 1.16919,-6.8875 1.85253,-9.5 1.11179,-4.25051 1.20612,-5.32835 0.89708,-10.25 -0.56459,-8.99149 -0.5196,-9.8398 0.65499,-12.34757 0.90871,-1.94014 1.09954,-3.23779 1.09954,-7.47697 0,-7.17087 0.91835,-15.5429 2.15826,-19.67546 0.76679,-2.5557 1.07751,-5.08713 1.15167,-9.3826 0.0558,-3.23542 0.33799,-6.94792 0.62697,-8.25 1.55504,-7.0067 2.03691,-13.98259 2.21858,-32.1174 0.1033,-10.3125 10e-4,-20.29165 -0.22651,-22.1759 -0.22788,-1.88425 -0.22282,-6.17655 0.0113,-9.53846 0.3805,-5.46508 0.61806,-6.53884 2.24268,-10.13703 1.8492,-4.09555 2.22495,-6.4523 1.30329,-8.17442 -0.28259,-0.52804 -1.91385,-1.65357 -3.625,-2.50119 -3.88348,-1.92367 -5.23008,-3.16841 -5.84775,-5.40541 -0.96348,-3.48944 0.19669,-5.46618 6.38183,-10.8736 7.74893,-6.77458 12.06487,-8.43656 23.84943,-9.1839 4.85569,-0.30794 7.26604,-0.70598 9.5053,-1.5697 2.57832,-0.99451 3.75734,-1.13896 8.38802,-1.02774 7.11475,0.17088 12.13746,-1.11758 16.79996,-4.30966 4.24823,-2.90844 5.46729,-3.38833 10.46313,-4.11875 3.52894,-0.51595 4.45953,-0.86459 6.20882,-2.32608 3.04446,-2.54358 4.31849,-3.05901 8.99875,-3.6406 4.11397,-0.51122 6.55927,-1.22751 15.28508,-4.47742 2.27906,-0.84883 6.8658,-1.98013 10.19274,-2.51401 5.99171,-0.96149 6.10397,-1.00445 11.85624,-4.53796 3.194,-1.962 7.18687,-4.50573 8.87306,-5.65272 1.68618,-1.147 4.15654,-2.76045 5.48967,-3.58545 1.4296,-0.8847 2.8854,-2.32041 3.54898,-3.5 2.17868,-3.87286 4.57118,-10.59788 5.08527,-14.2941 0.2859,-2.05551 0.96416,-4.74273 1.50725,-5.97159 0.5431,-1.22888 1.68454,-5.16809 2.53654,-8.75383 1.77985,-7.49068 2.68798,-9.2638 5.64171,-11.01535 8.0375,-4.76622 10.83711,-6.289 12.37478,-6.73097 2.81755,-0.80984 15.70375,-1.15948 17.75714,-0.4818 1.86367,0.61506 6.93844,6.01512 8.56821,9.11743 1.08251,2.06059 1.80514,11.31108 1.09892,14.06749 -0.27299,1.0655 -0.56953,4.778 -0.65897,8.25 -0.18468,7.16892 -1.02454,11.45735 -3.22625,16.47376 -0.84031,1.91456 -1.7447,5.02405 -2.00976,6.90998 -0.32985,2.34688 -1.13253,4.69726 -2.54356,7.4479 -2.06164,4.01892 -2.06164,4.01892 -1.73195,8.75 0.32397,4.64908 0.30395,4.77099 -1.15518,7.03378 -0.86939,1.34822 -1.63045,3.36116 -1.83608,4.85625 -0.19316,1.40445 -0.8062,3.40573 -1.36231,4.4473 -0.55612,1.04156 -1.31819,2.4685 -1.6935,3.17096 -0.54879,1.02717 -0.57197,1.87094 -0.11841,4.30986 0.51194,2.75282 0.46468,3.23777 -0.5122,5.25574 -1.66287,3.43502 -3.52069,4.20424 -11.3261,4.68945 -11.52193,0.71626 -15.3066,0.54272 -18.06267,-0.82821 -2.99693,-1.49075 -3.97014,-3.14533 -4.61166,-7.84039 -0.27327,-1.99999 -0.91956,-4.36249 -1.4362,-5.25 -1.38573,-2.38048 -3.98195,-2.39958 -12.29072,-0.0904 -8.21396,2.28281 -10.76659,3.54785 -12.52718,6.20829 -1.60568,2.42635 -3.72469,3.82972 -6.48741,4.29648 -1.0998,0.18581 -3.49934,0.84792 -5.33233,1.47135 -1.83298,0.62344 -4.552,1.29876 -6.04226,1.50071 -3.18331,0.43136 -4.74764,1.15786 -6.45957,2.99992 -1.96012,2.10911 -3.59835,2.7158 -8.78604,3.25374 -4.92913,0.51112 -7.47579,1.40565 -10.65514,3.74268 -1.93142,1.41972 -4.51795,2.24548 -7.05882,2.25358 -0.9625,0.003 -2.59589,0.24049 -3.62975,0.5276 -1.03386,0.28711 -3.58708,0.71349 -5.67382,0.94752 -3.04771,0.34178 -4.22239,0.73308 -5.97141,1.98913 -1.22372,0.8788 -3.62976,1.92206 -5.49358,2.38201 -2.19331,0.54125 -3.54855,1.17291 -4.00229,1.86538 -0.37732,0.57587 -0.92315,3.40758 -1.21295,6.29269 -0.28981,2.88512 -0.86045,6.59567 -1.26809,8.24567 -0.52435,2.12238 -0.65012,4.25256 -0.42995,7.28165 0.26951,3.70774 0.16852,4.60426 -0.75347,6.68855 -1.31214,2.96633 -1.3198,3.60839 -0.0757,6.3502 1.184,2.6093 1.24427,5.40972 0.26471,12.30032 -0.65262,4.59076 -0.6454,5.48631 0.0697,8.65303 0.79769,3.53231 0.79769,3.53231 -0.80198,6.68392 -2.06553,4.06943 -2.98416,10.67251 -3.00565,21.60447 -0.0119,6.06326 -0.21189,8.60458 -0.80659,10.25 -0.59014,1.63279 -0.71051,3.12069 -0.47445,5.86477 0.33405,3.88306 -0.11822,6.03042 -3.06933,14.57309 -0.7125,2.0625 -1.39664,4.76268 -1.52031,6.0004 -0.18945,1.896 -0.0356,2.42823 0.97708,3.37957 1.37411,1.29091 8.91766,4.0954 11.05559,4.11017 0.78531,0.005 2.81031,0.3691 4.5,0.80817 5.4999,1.42918 12.05289,0.18763 17.63822,-3.34178 2.16368,-1.36724 5.40657,-2.92508 7.20644,-3.46185 2.1156,-0.63094 3.77589,-1.50141 4.69645,-2.46226 2.08782,-2.17922 4.30649,-3.04497 9.06022,-3.53543 3.55819,-0.36711 4.8325,-0.76459 7.92605,-2.47226 4.92577,-2.71909 10.87119,-3.66231 19.5775,-3.10591 7.1621,0.45771 8.31532,1.00243 12.45635,5.88364 3.5244,4.15437 4.11349,6.04874 3.10411,9.98216 -2.39464,9.33166 -4.41445,11.65243 -15.34317,17.62936 -0.9625,0.52639 -3.07985,1.11928 -4.70523,1.31755 -1.81452,0.22133 -3.67399,0.83612 -4.81729,1.59272 -1.25766,0.83228 -3.30083,1.45816 -6.29476,1.92826 -5.85073,0.91865 -7.6579,1.4798 -12.15815,3.77526 -3.30608,1.68635 -4.42619,1.984 -9.02457,2.39809 -3.93285,0.35415 -6.00265,0.81564 -8.25,1.83942 -1.90199,0.86647 -4.37251,1.49891 -6.75,1.728 -2.13115,0.20535 -4.88285,0.8671 -6.37421,1.53293 -2.36513,1.05592 -2.88345,1.11699 -5.25,0.61858 -2.47877,-0.52205 -2.83575,-0.46089 -6.37579,1.09233 -2.0625,0.90494 -4.425,1.79919 -5.25,1.98723 -2.31998,0.5288 -7.74253,4.27401 -9.29888,6.42247 -2.2045,3.04324 -2.6235,4.84274 -1.72699,7.41705 1.46596,4.2095 1.00102,6.84957 -1.97983,11.2421 -1.79041,2.63831 -1.63662,4.2761 0.55876,5.95059 3.56217,2.717 3.92337,6.34953 1.44116,14.49344 -3.48023,11.41835 -3.3382,10.42388 -1.92856,13.50294 1.52057,3.32135 1.33185,4.69354 -1.13966,8.28648 -1.21948,1.77281 -1.8918,3.46266 -2.23699,5.62257 -0.28691,1.79528 -1.11551,4.13458 -1.97934,5.58801 -3.73421,6.28303 -4.1742,7.64892 -4.10706,12.75 0.28011,21.28452 0.25892,21.69321 -1.33262,25.69969 -1.2746,3.20861 -1.46861,4.31432 -1.38456,7.8909 0.0757,3.21964 -0.15452,4.86591 -1.01884,7.2864 -0.66274,1.85599 -1.11675,4.29475 -1.11698,6 -3e-4,2.15161 -0.3758,3.66654 -1.49545,6.03329 -0.82229,1.73815 -1.83208,4.46087 -2.24399,6.05049 -0.41191,1.58962 -1.08896,3.70402 -1.50455,4.69866 -0.41559,0.99465 -0.76004,2.77193 -0.76545,3.94951 -0.005,1.17758 -0.33507,3.94106 -0.73256,6.14106 -1.05337,5.83006 -0.99088,10.3839 0.15676,11.4225 1.23801,1.12038 1.6652,1.06194 4.91546,-0.6725 2.74904,-1.46697 2.96941,-1.5 10.00662,-1.5 7.60721,0 8.80334,0.25508 12.27166,2.617 1.02195,0.69595 2.70168,1.42362 3.73272,1.61705 6.21092,1.16517 7.97929,6.08155 3.95427,10.99355 -1.48421,1.8113 -1.7951,2.5902 -1.7951,4.4976 0,3.235 -1.0913,5.49945 -3.33564,6.9214 -5.61147,3.55535 -10.21238,5.9685 -12.66436,6.6425 -8.80367,2.41995 -13.78401,4.98095 -15.7543,8.1012 -2.48384,3.9336 -7.11583,8.9833 -10.13844,11.0528 -3.23304,2.21355 -5.44133,4.45405 -7.05394,7.1567 -1.54366,2.5871 -3.60317,3.69055 -9.11834,4.88545 -2.62769,0.56935 -6.04491,1.48055 -7.59381,2.02495 -3.7613,1.322 -6.63049,1.2472 -10.97556,-0.28605 -2.41033,-0.85055 -5.03237,-1.34485 -7.86561,-1.4828 -2.3375,-0.11385 -5.05795,-0.34095 -6.04544,-0.50465 -1.37527,-0.22805 -2.77941,0.10885 -6,1.4396 -7.65806,3.16425 -14.96059,4.0939 -18.72524,2.38385 z"
     id="path333"
     inkscape:connector-curvature="0" />
</svg>
