<?xml version="1.0" encoding="UTF-8" standalone="no"?>
<!-- Created with Inkscape (http://www.inkscape.org/) -->

<svg
   xmlns:dc="http://purl.org/dc/elements/1.1/"
   xmlns:cc="http://creativecommons.org/ns#"
   xmlns:rdf="http://www.w3.org/1999/02/22-rdf-syntax-ns#"
   xmlns:svg="http://www.w3.org/2000/svg"
   xmlns="http://www.w3.org/2000/svg"
   xmlns:sodipodi="http://sodipodi.sourceforge.net/DTD/sodipodi-0.dtd"
   xmlns:inkscape="http://www.inkscape.org/namespaces/inkscape"
   version="1.1"
   id="svg1417"
   width="1000"
   height="1000"
   viewBox="0 0 1000 1000"
   sodipodi:docname="Masomeh_bdc_b.svg"
   inkscape:version="0.92.2 5c3e80d, 2017-08-06">
  <metadata
     id="metadata1423">
    <rdf:RDF>
      <cc:Work
         rdf:about="">
        <dc:format>image/svg+xml</dc:format>
        <dc:type
           rdf:resource="http://purl.org/dc/dcmitype/StillImage" />
        <dc:title></dc:title>
      </cc:Work>
    </rdf:RDF>
  </metadata>
  <defs
     id="defs1421" />
  <sodipodi:namedview
     pagecolor="#ffffff"
     bordercolor="#666666"
     borderopacity="1"
     objecttolerance="10"
     gridtolerance="10"
     guidetolerance="10"
     inkscape:pageopacity="0"
     inkscape:pageshadow="2"
     inkscape:window-width="1274"
     inkscape:window-height="648"
     id="namedview1419"
     showgrid="false"
     inkscape:zoom="0.34954427"
     inkscape:cx="401"
     inkscape:cy="600"
     inkscape:window-x="0"
     inkscape:window-y="0"
     inkscape:window-maximized="0"
     inkscape:current-layer="svg1417" />
  <path
     style="fill:#000000;stroke-width:0.33333334"
     d="m 470.70006,674.26865 c -1.08543,-0.14983 -3.05484,-0.83806 -4.66666,-1.63076 -2.78832,-1.37134 -6.30038,-2.3638 -10.90014,-3.08027 -2.64848,-0.4125 -4.25723,-1.4456 -5.25462,-3.37437 -0.27427,-0.53036 -1.23079,-1.77273 -2.12559,-2.7608 -2.01723,-2.2275 -2.1733,-2.52026 -3.16145,-5.93016 -0.99977,-3.44997 -4.5376,-11.87202 -5.83894,-13.9 -2.17277,-3.38596 -2.42452,-4.95746 -1.3456,-8.39937 0.3643,-1.16217 0.66691,-3.01303 0.67246,-4.11303 0.006,-1.1 0.22662,-3.02195 0.49128,-4.27099 0.26466,-1.24904 0.64916,-3.49904 0.85446,-5 0.57355,-4.19329 3.45778,-16.26346 5.15625,-21.57827 0.65888,-2.06178 1.34576,-5.23262 1.66076,-7.66667 0.86089,-6.65209 1.41667,-9.81802 2.68899,-15.31741 0.65743,-2.84166 1.33162,-6.56552 1.4982,-8.27523 0.26373,-2.7069 0.4948,-3.4822 1.78824,-6 3.99519,-7.77704 6.35916,-13.05443 8.16367,-18.22477 4.04116,-11.57889 6.53674,-17.2594 10.03407,-22.83983 4.16305,-6.64267 8.48706,-16.23258 8.43951,-18.71739 -0.0157,-0.81974 -0.65619,-2.40883 -1.93963,-4.81223 -2.12991,-3.98853 -2.38365,-5.43387 -1.42737,-8.13055 0.29256,-0.825 0.77174,-2.54359 1.06484,-3.81909 0.58834,-2.56033 1.60718,-3.93782 3.33023,-4.50253 0.56559,-0.18536 2.48298,-0.4869 4.26086,-0.67007 3.93842,-0.40578 5.54931,-1.01154 6.461,-2.4296 3.32655,-5.17417 4.5786,-7.61394 7.48155,-14.57871 3.99406,-9.58252 5.50155,-12.69382 7.55351,-15.58958 0.81439,-1.14928 1.87108,-2.94928 2.3482,-4 0.47713,-1.05073 1.75123,-3.45064 2.83134,-5.33315 3.22972,-5.629 4.19035,-7.95154 5.27078,-12.74325 0.84599,-3.75198 2.74088,-10.71128 5.53657,-20.33402 0.7607,-2.61832 2.52201,-5.98634 5.16071,-9.86851 2.58265,-3.79969 11.22178,-12.55859 15.74407,-15.96233 3.08722,-2.32364 3.72122,-3.4197 3.97043,-6.86413 0.10061,-1.39057 0.3763,-3.17374 0.61265,-3.96259 0.49663,-1.65761 2.8473,-4.37447 5.59939,-6.47166 1.81988,-1.38681 14.7086,-8.2306 16.36395,-8.6891 0.45834,-0.12695 2.78334,-1.19667 5.16667,-2.37716 4.34553,-2.15239 7.74574,-3.13785 10.8268,-3.13785 1.59841,0 9.41948,1.85383 10.8029,2.56062 2.49795,1.27619 6.63722,4.60429 7.94552,6.38844 0.75994,1.03635 1.93413,2.55927 2.6093,3.38427 1.82541,2.23049 3.9615,6.04237 4.68043,8.3523 0.69071,2.21927 0.78968,4.65265 0.321,7.89298 -0.19173,1.32562 -0.16782,3.55952 0.066,6.16666 0.67872,7.56758 0.59319,8.71857 -0.87342,11.75473 -0.70847,1.46667 -1.6282,3.74938 -2.04386,5.0727 -0.41565,1.32331 -1.27605,3.19831 -1.912,4.16666 -1.03035,1.56891 -4.25601,8.22877 -4.25601,8.78718 0,0.40612 -4.06786,8.28123 -6.01266,11.64013 -2.07414,3.58226 -3.63509,6.75984 -5.40363,11 -0.61173,1.46666 -1.87499,3.71666 -2.80723,5 -0.93223,1.28333 -2.72581,4.2073 -3.98573,6.4977 -2.25908,4.10679 -2.4009,4.27732 -10.25674,12.33334 -6.266,6.42566 -8.898,8.86592 -12.33333,11.43485 -2.40204,1.79625 -5.71735,4.30373 -7.36735,5.57218 -1.65,1.26845 -3.69883,2.74933 -4.55296,3.29083 -0.85413,0.54151 -2.62856,1.97163 -3.94317,3.17805 -1.48593,1.36364 -3.29445,2.62258 -4.78037,3.32769 -6.49881,3.08387 -10.73567,4.91672 -14.2235,6.15306 -2.10833,0.74734 -5.63333,2.13488 -7.83333,3.08342 -3.86921,1.66822 -7.11495,2.83157 -10.10406,3.62152 -2.07895,0.54942 -3.9783,2.42243 -5.24679,5.17402 -0.59161,1.28334 -1.6018,3.19894 -2.24486,4.25691 -0.64306,1.05796 -1.43398,3.00796 -1.75761,4.33333 -0.76812,3.14576 -1.26416,4.29515 -2.88154,6.67685 -1.28638,1.89427 -4.48566,8.32078 -6.75664,13.57228 -0.59604,1.37833 -2.22468,4.32571 -3.6192,6.54974 -5.57122,8.88524 -8.20013,15.10695 -8.21685,19.44643 -0.003,0.82621 -0.1627,2.02621 -0.35447,2.66666 -0.19178,0.64046 -0.48591,2.4345 -0.65362,3.98676 -0.2384,2.2065 -0.56233,3.31364 -1.48465,5.07429 -1.02531,1.95726 -1.17971,2.55872 -1.17971,4.59546 0,2.31196 -0.15484,2.93236 -2.83053,11.34129 -0.43752,1.375 -1.02194,3.48864 -1.29872,4.69698 -0.27678,1.20833 -0.9008,3.23333 -1.38673,4.5 -2.98507,7.78127 -3.77348,11.08811 -4.16508,17.46969 -1.24167,20.23442 -1.20365,21.16368 1.04767,25.60374 1.68225,3.31775 4.33393,6.15856 6.97363,7.47103 2.26997,1.12863 9.36002,2.77686 13.94507,3.24183 6.75563,0.68507 18.05064,0.12897 23.34351,-1.1493 2.81119,-0.6789 7.3886,-1.39337 11.69169,-1.82487 2.9563,-0.29642 3.84436,-0.53307 5.83334,-1.55447 1.29038,-0.66265 4.09101,-1.84422 6.22363,-2.62572 3.10063,-1.13623 4.84108,-2.06014 8.68716,-4.61154 4.26939,-2.83221 5.4987,-3.88421 10.94318,-9.3648 11.67873,-11.75617 18.45152,-22.47501 19.82028,-31.36823 0.29907,-1.94314 -0.55483,-2.91072 -3.05683,-3.46376 -3.91266,-0.86485 -5.13709,-2.3077 -5.36369,-6.32045 -0.17595,-3.11573 0.49829,-5.11058 2.74757,-8.12923 4.54862,-6.10446 7.88344,-12.15872 8.89736,-16.15287 0.50545,-1.99112 -0.0708,-2.725 -3.06108,-3.89818 -3.22701,-1.26608 -7.91438,-5.16015 -9.76585,-8.11307 -1.50822,-2.40545 -2.29056,-2.90868 -5.26443,-3.38628 -1.1703,-0.18794 -2.99251,-0.79444 -4.04936,-1.34777 -2.25226,-1.17921 -3.29768,-1.24561 -5.40306,-0.34314 -3.29801,1.4137 -8.91435,4.80036 -10.50792,6.33629 -1.18594,1.14306 -2.37181,1.87666 -4.08586,2.52759 -2.12525,0.80709 -2.79985,1.30035 -5.62343,4.11182 -2.88797,2.87559 -3.30153,3.44444 -4.14013,5.69471 -0.51241,1.375 -1.50672,3.69337 -2.20959,5.15192 -1.23519,2.56323 -1.2755,2.75865 -1.20542,5.84334 0.0798,3.51196 0.13496,3.34688 -2.84187,8.50474 -2.05819,3.56617 -4.19415,5.4437 -8.72785,7.67188 -4.18923,2.05889 -6.46535,2.65098 -9.228,2.40047 -3.6572,-0.33163 -6.18253,-2.56337 -6.99162,-6.1788 -0.46259,-2.06704 0.0449,-10.06051 0.89546,-14.10381 0.62261,-2.95979 3.53886,-10.11163 6.85477,-16.81068 2.21042,-4.46567 3.08243,-5.84867 5.25431,-8.33333 5.16777,-5.91198 8.73467,-9.26572 11.23127,-10.56007 1.29224,-0.66996 2.62061,-1.51766 2.95194,-1.88377 0.33133,-0.36612 0.80615,-1.73488 1.05515,-3.04169 0.95685,-5.02172 2.56934,-6.06013 10.65361,-6.86069 4.80247,-0.47557 5.66544,-0.66271 8.82311,-1.91332 3.5,-1.38619 3.5,-1.38619 16.05767,-1.4878 12.55766,-0.10161 12.55766,-0.10161 16,1.06658 1.89328,0.64251 4.78456,1.41114 6.42505,1.70807 3.6225,0.65568 4.63276,1.05976 6.91553,2.76605 0.97263,0.72701 2.66842,1.77238 3.76842,2.32306 1.1,0.55067 3.275,2.11458 4.83334,3.47536 1.55833,1.36078 3.68661,3.09944 4.72951,3.8637 1.0429,0.76425 2.26705,1.87913 2.72034,2.47751 1.14651,1.51347 4.08368,8.9719 4.5634,11.58795 0.21946,1.19676 0.42884,5.74787 0.46774,10.16667 0.0387,4.4 0.26503,9.575 0.50288,11.5 0.992,8.02841 -0.30179,20.17426 -2.98349,28.00852 -1.44877,4.23238 -2.38293,6.00363 -4.2619,8.08088 -2.06509,2.28301 -2.83575,3.4223 -3.54719,5.24393 -0.941,2.40941 -4.74691,7.18164 -7.62915,9.56617 -1.44386,1.19453 -3.62351,3.45279 -4.84367,5.01835 -8.80067,11.29192 -17.58938,20.27868 -26.33649,26.93001 -3.36491,2.55867 -6.73547,5.06647 -7.49014,5.5729 -2.19405,1.47234 -6.13135,2.82194 -11.04217,3.78497 -4.56359,0.89497 -4.56359,0.89497 -8.30249,0.3088 -2.54259,-0.3986 -4.74812,-0.5316 -6.89305,-0.4157 -1.73477,0.0937 -7.27914,0.33987 -12.3208,0.54697 -10.0036,0.4109 -9.38006,0.28313 -13.73186,2.814 -1.20496,0.70076 -2.27901,0.9835 -4.66667,1.22856 -1.70581,0.1751 -4.07647,0.65297 -5.26814,1.062 -1.67289,0.57417 -2.81237,0.72877 -5,0.67837 -1.94367,-0.0448 -3.566,0.1364 -5.16667,0.5769 -2.90315,0.79897 -5.44336,1.01923 -7.87797,0.68313 z m 53.45929,-203.3766 c 2.98028,-1.11165 6.44108,-2.23667 7.69068,-2.50005 1.24959,-0.26337 2.5983,-0.6535 2.99712,-0.86694 0.39882,-0.21344 2.53072,-2.05092 4.73756,-4.08329 2.43866,-2.24586 4.85851,-4.14474 6.16955,-4.8413 4.16793,-2.21446 10.06705,-6.87726 10.99032,-8.68701 0.5966,-1.16943 1.94107,-2.51037 4.40924,-4.39763 1.42994,-1.09339 4.62331,-6.18534 6.97229,-11.1176 2.10391,-4.41765 3.06832,-6.0344 6.05565,-10.15168 1.26368,-1.74166 2.89398,-4.34906 3.62289,-5.7942 0.7289,-1.44515 1.83339,-3.39515 2.45441,-4.33334 3.10314,-4.68796 6.81897,-18.21755 6.81897,-24.82835 0,-3.25331 -0.89313,-8.95747 -1.62485,-10.37744 -0.90663,-1.75942 -2.99394,-3.08021 -5.1504,-3.25904 -1.66331,-0.13793 -2.0717,-0.009 -5.42835,1.70784 -1.99635,1.02135 -4.52633,2.57952 -5.62218,3.4626 -1.89852,1.52991 -2.32583,2.04784 -4.11335,4.98569 -0.42485,0.69827 -1.43143,1.77005 -2.23683,2.38173 -1.10446,0.83882 -1.63712,1.57616 -2.16723,3 -0.96165,2.58293 -2.28065,4.55146 -4.50348,6.72118 -1.55578,1.51861 -2.38837,2.83472 -4.85002,7.66667 -1.6345,3.20833 -3.88192,7.51553 -4.99427,9.57155 -1.69859,3.1396 -2.09767,4.20284 -2.49215,6.63973 -0.25833,1.59583 -0.75225,3.43863 -1.09759,4.09511 -0.34534,0.65649 -1.58856,3.06861 -2.7627,5.36027 -1.17414,2.29167 -2.79688,5.05954 -3.60608,6.15083 -0.8092,1.09129 -2.40453,4.01629 -3.54518,6.5 -4.28311,9.32629 -5.71323,11.87664 -7.49757,13.37058 -1.86244,1.55932 -3.65169,4.91479 -4.96328,9.30789 -0.40985,1.37278 -1.03003,3.05431 -1.37817,3.73672 -0.58778,1.15215 -0.84863,2.60065 -0.46833,2.60065 0.0906,0 2.60306,-0.90953 5.58333,-2.02117 z"
     id="path1427"
     inkscape:connector-curvature="0" />
</svg>
