<?xml version="1.0" encoding="UTF-8" standalone="no"?>
<!-- Created with Inkscape (http://www.inkscape.org/) -->

<svg
   xmlns:dc="http://purl.org/dc/elements/1.1/"
   xmlns:cc="http://creativecommons.org/ns#"
   xmlns:rdf="http://www.w3.org/1999/02/22-rdf-syntax-ns#"
   xmlns:svg="http://www.w3.org/2000/svg"
   xmlns="http://www.w3.org/2000/svg"
   xmlns:sodipodi="http://sodipodi.sourceforge.net/DTD/sodipodi-0.dtd"
   xmlns:inkscape="http://www.inkscape.org/namespaces/inkscape"
   version="1.1"
   id="svg405"
   width="1000"
   height="1000"
   viewBox="0 0 1000 1000"
   sodipodi:docname="Masomeh_maj_h.svg"
   inkscape:version="0.92.2 5c3e80d, 2017-08-06">
  <metadata
     id="metadata411">
    <rdf:RDF>
      <cc:Work
         rdf:about="">
        <dc:format>image/svg+xml</dc:format>
        <dc:type
           rdf:resource="http://purl.org/dc/dcmitype/StillImage" />
        <dc:title></dc:title>
      </cc:Work>
    </rdf:RDF>
  </metadata>
  <defs
     id="defs409" />
  <sodipodi:namedview
     pagecolor="#ffffff"
     bordercolor="#666666"
     borderopacity="1"
     objecttolerance="10"
     gridtolerance="10"
     guidetolerance="10"
     inkscape:pageopacity="0"
     inkscape:pageshadow="2"
     inkscape:window-width="1281"
     inkscape:window-height="764"
     id="namedview407"
     showgrid="false"
     inkscape:zoom="0.39179687"
     inkscape:cx="467"
     inkscape:cy="600"
     inkscape:window-x="0"
     inkscape:window-y="0"
     inkscape:window-maximized="0"
     inkscape:current-layer="svg405" />
  <path
     style="fill:#000000;stroke-width:0.5"
     d="m 409.58898,872.02255 c -4.53056,-0.5664 -10.9421,-2.2178 -12.82481,-3.30335 -1.11767,-0.6444 -2.25761,-2.06715 -3.42519,-4.27495 -2.37057,-4.48255 -3.08499,-5.16545 -7.08514,-6.7728 -2.20293,-0.88515 -4.84738,-2.54575 -7.30842,-4.5893 -5.24819,-4.35785 -7.70578,-5.85615 -10.76241,-6.56135 -5.15184,-1.18855 -8.47512,-4.1249 -10.14103,-8.9602 -0.38437,-1.11565 -0.93679,-4.2217 -1.2276,-6.90235 -0.2908,-2.68061 -0.74048,-5.66135 -0.99928,-6.62385 -0.86204,-3.20604 -0.56259,-7.85622 0.71898,-11.16472 1.75297,-4.52547 1.76586,-4.68235 1.02455,-12.46828 -0.98,-10.29293 -1.00714,-21.08196 -0.0695,-27.617 2.31792,-16.15454 2.474,-18.31452 1.59184,-22.02871 -0.65556,-2.7601 -0.79911,-5.62251 -0.70066,-13.97129 0.24267,-20.57738 -0.19057,-51.71261 -0.79119,-56.86046 -0.24525,-2.10212 -0.1737,-4.7233 0.19108,-7 0.52213,-3.25869 0.47272,-4.05811 -0.47221,-7.63954 -0.89995,-3.41092 -1.00516,-4.77597 -0.71448,-9.26902 0.35181,-5.43794 -0.53992,-11.98623 -2.58479,-18.98098 -0.45765,-1.56542 -0.74347,-4.04227 -0.66356,-5.75 0.20447,-4.36923 0.18297,-6.23247 -0.22494,-19.5 -0.47792,-15.54473 -0.4778,-15.47496 -0.0338,-19.05579 0.28538,-2.30166 0.17825,-3.65986 -0.43409,-5.50344 -0.4816,-1.44995 -0.78522,-3.87287 -0.74489,-5.9442 0.0375,-1.92311 -0.29573,-6.30998 -0.74039,-9.74859 -0.55213,-4.26971 -0.82265,-10.45255 -0.85319,-19.5 -0.0246,-7.28639 -0.081,-14.93548 -0.12538,-16.99798 -0.0444,-2.0625 0.21592,-5.70697 0.57837,-8.09881 0.41632,-2.7473 0.59182,-7.35062 0.47655,-12.5 -0.1688,-7.54116 -0.28326,-8.38144 -1.52945,-11.22784 -1.30574,-2.98242 -1.33799,-3.28103 -1.05288,-9.75 0.23782,-5.39579 0.51547,-7.19981 1.45032,-9.42335 0.87893,-2.09053 1.23209,-4.13816 1.47267,-8.53858 0.2806,-5.13232 0.19847,-6.09599 -0.7244,-8.5 -0.57248,-1.49128 -1.26147,-4.23685 -1.5311,-6.10127 -0.26962,-1.86442 -1.13216,-4.67692 -1.91674,-6.25 -1.93897,-3.8876 -2.17996,-5.56764 -1.24881,-8.70607 1.13005,-3.8088 2.62893,-6.56734 7.62958,-14.04142 2.43336,-3.63696 4.99518,-7.53422 5.69293,-8.66057 1.34533,-2.17172 3.86648,-3.70209 6.09886,-3.70209 0.73937,0 3.29287,-0.6592 5.67443,-1.4649 2.38158,-0.8057 5.09844,-1.61922 6.03749,-1.80782 0.93906,-0.1886 3.52656,-1.23241 5.75,-2.31958 4.00643,-1.95895 4.08748,-1.97515 9.04891,-1.80894 4.24331,0.14215 5.43585,0.37789 7.82508,1.54683 1.55034,0.75851 3.41291,2.15803 4.13905,3.11005 1.81024,2.37334 2.54295,2.67631 7.78386,3.21853 5.17668,0.53557 7.68059,1.69892 10.59148,4.92092 5.30704,5.87427 8.40426,12.82567 8.40426,18.86255 0,2.265 0.3853,4.22354 1.29958,6.60595 1.60777,4.18946 1.65375,7.26871 0.17749,11.88641 -0.92892,2.90567 -1.11047,4.56131 -1.06911,9.75 0.0274,3.4375 -0.17959,7.56584 -0.45998,9.17409 -0.35217,2.01998 -0.34592,3.68815 0.0202,5.39522 1.04729,4.88341 1.20569,14.80139 0.34624,21.68069 -0.58107,4.6511 -0.68567,7.35333 -0.36774,9.5 0.27029,1.82489 0.23955,6.88798 -0.0785,12.92579 -0.37374,7.09604 -0.36635,11.37242 0.0259,15 0.3877,3.5853 0.40012,7.71202 0.0423,14.06385 -0.3446,6.11746 -0.34271,9.95146 0.006,12 0.28178,1.6557 0.65333,7.0531 0.82565,11.99422 0.17232,4.94112 0.52265,9.37503 0.77852,9.85312 0.76541,1.43017 3.31747,1.76033 10.95345,1.41705 7.07553,-0.31809 7.33687,-0.37015 10.85975,-2.16359 1.98535,-1.0107 6.03535,-2.53828 9,-3.39461 2.96464,-0.85633 6.48154,-2.10967 7.81535,-2.78521 5.1646,-2.61572 10.19713,-2.5871 13.81021,0.0785 2.24633,1.65729 4.30293,1.60866 8.43089,-0.19933 5.05878,-2.21568 10.90584,-3.53899 15.66711,-3.54577 4.38651,-0.006 6.43095,-0.45681 13.52407,-2.98052 5.63873,-2.00625 9.52409,-2.1117 13.29059,-0.36072 2.64796,1.231 2.64796,1.231 6.2358,-0.0168 2.79025,-0.97035 4.15353,-1.18124 6.1325,-0.94865 1.45297,0.17077 4.35488,-0.0195 6.76419,-0.4435 2.32075,-0.40841 5.72771,-0.74288 7.57102,-0.74325 4.00984,-10e-4 5.41775,-0.56259 6.68727,-2.66829 0.79184,-1.31341 0.91518,-2.26235 0.72556,-5.5824 -0.41261,-7.22475 -0.18998,-11.88644 0.96709,-20.24992 1.04236,-7.53433 1.08991,-8.77036 0.54812,-14.25 -0.32629,-3.30004 -1.05754,-8.09519 -1.62502,-10.65589 -1.03177,-4.65581 -1.03177,-4.65581 0.35103,-8.81724 1.50724,-4.53594 1.50774,-6.53636 0.003,-11.77695 -0.88105,-3.06834 -0.74461,-6.30852 0.58392,-13.86665 0.67835,-3.85923 0.71672,-5.29478 0.2339,-8.75 -0.69685,-4.98695 -0.7464,-12.4415 -0.11027,-16.59239 1.89588,-12.37116 2.17551,-16.33957 1.53018,-21.71641 -0.35147,-2.9285 -1.16941,-6.75759 -1.81763,-8.50908 -2.45729,-6.63963 -1.71744,-8.28088 7.89748,-17.51926 6.88743,-6.61772 10.6767,-9.57096 16.13467,-12.57487 2.16348,-1.19072 3.50078,-1.16683 12.03927,0.21512 7.92279,1.2823 13.49446,3.71015 22,9.58647 3.59342,2.48263 3.93427,2.61499 8.34502,3.24055 4.4231,0.62731 6.83764,1.8823 9.23316,4.79908 1.057,1.28701 3.11306,3.53335 4.56901,4.99186 4.56926,4.57729 8.10281,13.87713 8.10281,21.32549 0,3.47831 -1.66419,9.03216 -4.49345,14.99585 -2.03973,4.29947 -2.42395,8.04271 -1.28972,12.5653 0.77288,3.08181 0.77889,3.76659 0.0741,8.45616 -0.42178,2.80653 -1.33269,7.31712 -2.02425,10.02353 -2.00179,7.83394 -2.49313,13.17114 -1.55105,16.84842 1.02709,4.00911 0.98952,6.17476 -0.16476,9.49816 -0.87983,2.53319 -0.91352,3.46268 -0.46146,12.73267 0.26821,5.5 0.60087,11.63956 0.73926,13.64346 0.21031,3.04544 0.0399,4.25664 -1.03855,7.37942 -1.49271,4.32255 -1.58272,6.66702 -0.50781,13.22712 0.48184,2.94065 0.66388,5.98798 0.47789,8 -0.40355,4.36556 0.57203,5.99124 4.47074,7.44994 1.5436,0.57753 3.00498,1.05006 3.2475,1.05006 0.90891,0 6.11748,5.2279 7.0713,7.09755 0.54556,1.06939 1.2201,3.22867 1.49896,4.7984 0.74334,4.18426 0.84639,4.42204 2.98924,6.89792 1.62772,1.88067 1.96204,2.63367 1.96204,4.41912 0,1.45885 -0.35359,2.60167 -1.09761,3.54754 -1.37416,1.74695 -8.35068,5.07075 -15.82175,7.53789 -4.15506,1.37211 -5.8773,2.18953 -6.44786,3.06031 -0.503,0.76768 -0.89394,2.99682 -1.10474,6.29919 -0.17944,2.81109 -0.5404,5.4443 -0.80215,5.85158 -0.26174,0.40728 -0.49701,3.553 -0.52282,6.9905 -0.0258,3.4375 -0.31999,8.72501 -0.65374,11.75 -0.33375,3.025 -0.80395,10.9 -1.04491,17.5 -0.24095,6.60001 -0.65923,13.01251 -0.92953,14.25 -0.32494,1.48768 -0.3191,3.77466 0.0172,6.75 0.7344,6.49681 0.29066,14.39625 -0.9858,17.54929 -1.69976,4.19864 -2.25585,9.7271 -2.384,23.70071 -0.11548,12.59232 -0.18605,13.47319 -1.42191,17.74649 -0.82319,2.84641 -1.3004,5.7247 -1.3004,7.84334 0,1.84076 -0.44842,5.21735 -0.9965,7.50352 -0.54807,2.28616 -0.99831,4.83167 -1.00053,5.65667 -0.002,0.825 -0.58832,3.8625 -1.30245,6.75 -0.93778,3.79178 -1.20842,5.87495 -0.97439,7.5 0.17821,1.2375 0.51433,4.3875 0.74692,7 0.2326,2.6125 0.78381,5.58653 1.22492,6.60894 1.0349,2.39871 1.01048,3.75816 -0.17326,9.64259 -0.6058,3.01149 -1.59491,6.01321 -2.61086,7.92334 -1.6122,3.03119 -1.63935,3.19301 -1.89971,11.32513 -0.22464,7.0163 -0.40873,8.4743 -1.23099,9.75 -2.08479,3.23445 -12.97369,12.96415 -17.45894,15.60035 -6.2638,3.6815 -8.36391,4.0601 -14.8836,2.68315 -2.85484,-0.60295 -7.50994,-1.51845 -10.34467,-2.0344 -5.84833,-1.0645 -8.73303,-2.48395 -11.14326,-5.48315 -2.01777,-2.51085 -8.87609,-8.31925 -12.15999,-10.2984 -1.39848,-0.84285 -3.57377,-2.80995 -4.83397,-4.3713 -1.2602,-1.56135 -3.85123,-3.9343 -5.75784,-5.27327 -4.16055,-2.92184 -5.39151,-4.9716 -7.65266,-12.743 -0.86735,-2.98101 -2.12739,-6.50616 -2.8001,-7.83368 -1.86748,-3.6853 -2.03529,-5.85897 -0.77884,-10.08851 0.59763,-2.01178 1.96589,-5.45779 3.04057,-7.65779 1.65459,-3.38715 2.07366,-4.93451 2.73523,-10.09947 0.83419,-6.51271 1.26873,-8.05636 3.70184,-13.15053 1.17031,-2.45027 1.55239,-3.94624 1.55268,-6.0794 5e-4,-4.5413 3.11216,-15.93633 5.82834,-21.34452 2.3474,-4.67391 2.3474,-4.67391 2.41954,-12.5 0.0397,-4.30435 0.33254,-9.28858 0.65081,-11.07608 1.68903,-9.48616 2.10424,-12.81425 2.12981,-17.07166 0.0469,-7.80293 1.77955,-24.48821 2.95179,-28.42504 0.28607,-0.96068 0.52011,-3.6133 0.52011,-5.89471 0,-2.2814 0.21049,-6.22038 0.46776,-8.7533 0.25727,-2.53291 0.60742,-6.7864 0.7781,-9.45219 0.28838,-4.50373 0.23482,-4.92241 -0.75642,-5.91366 -0.69823,-0.69822 -1.35569,-0.94119 -1.9031,-0.7033 -0.45999,0.1999 -3.20688,0.40894 -6.1042,0.46453 -2.89733,0.0556 -6.04733,0.35399 -7,0.66313 -0.95268,0.30915 -3.98214,0.78385 -6.73214,1.05489 -16.48919,1.62521 -20.37133,2.04728 -20.70025,2.25057 -0.20168,0.12464 -2.25135,0.46293 -4.55484,0.75176 -4.74383,0.59483 -8.93883,2.33508 -13.08482,5.4281 -4.33948,3.23736 -5.54683,3.66077 -11.62878,4.07818 -3.07275,0.21089 -6.05415,0.63353 -6.62533,0.93922 -0.57118,0.30568 -3.82119,1.48773 -7.22224,2.62676 -5.89433,1.97405 -6.56986,2.0883 -14.43374,2.44104 -8.14465,0.36534 -8.29771,0.39334 -11.9859,2.19287 -2.76754,1.35034 -4.37905,1.82281 -6.21719,1.82281 -3.33962,0 -7.99346,1.36254 -9.26053,2.71127 -1.56057,1.66116 -2.25568,8.03347 -1.77681,16.28873 0.21536,3.7125 0.42445,9.675 0.46465,13.25 0.0402,3.575 0.36791,9.2 0.72825,12.5 0.36034,3.3 0.70771,9.2625 0.77192,13.25 0.0753,4.67369 0.4115,8.46034 0.94619,10.65603 1.07801,4.42686 1.03849,6.38995 -0.20821,10.34397 -0.77267,2.4506 -1.01102,4.47985 -0.96902,8.25 0.0857,7.69344 0.0968,12.64533 0.0377,16.75 -0.15771,10.93999 0.0223,18.77227 0.53372,23.22168 0.43896,3.81908 0.42949,6.07946 -0.0408,9.75 -0.54319,4.23905 -0.51667,5.03225 0.23498,7.02832 0.48581,1.2901 1.02076,4.80973 1.25394,8.25 0.28234,4.16582 0.74853,6.91709 1.525,9 1.40774,3.7763 1.54212,11.71465 0.28618,16.90605 -0.4532,1.8733 -0.824,4.87985 -0.824,6.6812 0,2.8901 -0.26886,3.8124 -2.28652,7.844 -1.25759,2.5128 -2.65393,4.97515 -3.10297,5.4719 -0.44905,0.49675 -2.86836,1.888 -5.37625,3.09165 -2.50789,1.20365 -5.5553,3.0236 -6.77203,4.04435 -3.84926,3.22915 -6.03301,3.659 -13.71223,2.699 z"
     id="path415"
     inkscape:connector-curvature="0" />
</svg>
