<?xml version="1.0" encoding="UTF-8" standalone="no"?>
<!-- Created with Inkscape (http://www.inkscape.org/) -->

<svg
   xmlns:dc="http://purl.org/dc/elements/1.1/"
   xmlns:cc="http://creativecommons.org/ns#"
   xmlns:rdf="http://www.w3.org/1999/02/22-rdf-syntax-ns#"
   xmlns:svg="http://www.w3.org/2000/svg"
   xmlns="http://www.w3.org/2000/svg"
   xmlns:sodipodi="http://sodipodi.sourceforge.net/DTD/sodipodi-0.dtd"
   xmlns:inkscape="http://www.inkscape.org/namespaces/inkscape"
   version="1.1"
   id="svg1263"
   width="1000"
   height="1000"
   viewBox="0 0 1000 1000"
   sodipodi:docname="Masomeh_bdc_r2.svg"
   inkscape:version="0.92.2 5c3e80d, 2017-08-06">
  <metadata
     id="metadata1269">
    <rdf:RDF>
      <cc:Work
         rdf:about="">
        <dc:format>image/svg+xml</dc:format>
        <dc:type
           rdf:resource="http://purl.org/dc/dcmitype/StillImage" />
        <dc:title></dc:title>
      </cc:Work>
    </rdf:RDF>
  </metadata>
  <defs
     id="defs1267" />
  <sodipodi:namedview
     pagecolor="#ffffff"
     bordercolor="#666666"
     borderopacity="1"
     objecttolerance="10"
     gridtolerance="10"
     guidetolerance="10"
     inkscape:pageopacity="0"
     inkscape:pageshadow="2"
     inkscape:window-width="1234"
     inkscape:window-height="701"
     id="namedview1265"
     showgrid="false"
     inkscape:zoom="0.3556901"
     inkscape:cx="636.5"
     inkscape:cy="600"
     inkscape:window-x="0"
     inkscape:window-y="0"
     inkscape:window-maximized="0"
     inkscape:current-layer="svg1263" />
  <path
     style="fill:#000000;stroke-width:0.5"
     d="m 265.30489,901.24563 c -4.33952,-1.97055 -13.02133,-8.27535 -17.19733,-12.48885 -4.9255,-4.96975 -7.43956,-9.4675 -8.69248,-15.5512 -0.42477,-2.0625 -1.25897,-5.325 -1.85379,-7.25 -1.85437,-6.00135 -1.19524,-17.75297 1.52843,-27.25 0.51264,-1.7875 1.54024,-6.00413 2.28356,-9.3703 1.20889,-5.47457 1.29323,-6.4548 0.79933,-9.29095 -1.14509,-6.57562 -0.24158,-13.32053 2.64276,-19.72887 1.64854,-3.66266 1.73423,-4.12813 1.6771,-9.10988 -0.0602,-5.25 -0.0602,-5.25 3.58886,-16 2.91452,-8.58604 4.08851,-11.36852 5.83203,-13.82267 3.11373,-4.38281 3.52099,-6.33479 2.86402,-13.72686 -0.44564,-5.01422 -0.41107,-6.66782 0.19636,-9.39301 0.40546,-1.81911 0.91417,-4.16503 1.13045,-5.21317 0.23073,-1.11815 0.11766,-4.21762 -0.2736,-7.5 -0.36676,-3.07686 -0.67658,-8.10686 -0.68848,-11.17776 -0.0211,-5.43824 0.0239,-5.66929 1.72836,-8.88219 0.9625,-1.81429 1.75,-3.65151 1.75,-4.08271 0,-0.43121 -0.675,-2.32194 -1.5,-4.20163 -1.83153,-4.17298 -1.879,-6.27519 -0.25639,-11.35595 2.16178,-6.76902 1.47866,-15.88152 -2.06638,-27.56449 -1.69314,-5.57986 -1.68465,-9.71314 0.0293,-14.26409 1.62799,-4.32275 1.61942,-5.76777 -0.0648,-10.91466 -1.69657,-5.18469 -1.86086,-12.09503 -0.42421,-17.84229 0.71985,-2.87976 0.85334,-4.66958 0.60703,-8.13959 -0.20171,-2.84164 -0.0588,-6.29379 0.3956,-9.55852 0.45846,-3.29372 0.80688,-11.86468 0.98012,-24.11041 0.28874,-20.4103 0.74429,-26.02153 2.55731,-31.50001 2.53642,-7.66441 4.63758,-13.26556 5.42995,-14.47487 0.90796,-1.38571 9.07263,-7.66025 11.68185,-8.97748 0.89067,-0.44965 3.47818,-1.05176 5.75,-1.33803 3.21891,-0.40559 5.12865,-1.01284 8.65241,-2.75121 7.1679,-3.53613 12.95155,-3.87951 19.81007,-1.17613 5.96867,2.35263 12.67416,8.16415 14.18445,12.2934 0.48768,1.33337 2.14601,5.12432 3.68518,8.42432 2.79849,6 2.79849,6 2.70282,10.70241 -0.0803,3.94642 0.0757,5.0316 0.97026,6.75 0.58625,1.12618 1.53331,3.38018 2.10456,5.00889 0.57126,1.62872 1.32655,3.05726 1.67842,3.17456 0.35188,0.11729 1.58537,-0.86987 2.74111,-2.19369 1.15572,-1.32383 3.90654,-4.32738 6.11292,-6.67456 2.20638,-2.34718 4.78118,-5.28011 5.7218,-6.51761 0.94061,-1.2375 2.90168,-3.63177 4.35792,-5.3206 2.63248,-3.05292 7.97865,-11.42517 10.65078,-16.6794 1.74318,-3.42764 2.60893,-4.2108 7.13462,-6.45405 3.3371,-1.6541 3.83188,-2.11188 6.2643,-5.79595 5.46877,-8.28284 7.09128,-10.23333 11.20341,-13.46818 2.74685,-2.16082 5.02082,-4.50003 6.70794,-6.90041 2.29904,-3.27097 2.95461,-3.83539 6.605,-5.68653 4.86105,-2.46508 13.13532,-9.99678 16.49104,-15.01105 1.58647,-2.37058 2.80888,-3.56645 4.6735,-4.57204 1.3888,-0.74898 5.0027,-2.89349 8.03089,-4.76558 3.02819,-1.87209 7.7455,-4.5111 10.48289,-5.86447 2.7374,-1.35337 5.71249,-3.08417 6.61132,-3.84621 0.89882,-0.76204 3.41595,-2.9256 5.59361,-4.8079 4.24389,-3.6683 6.3061,-4.95574 17.95938,-11.21206 8.16486,-4.38351 11.56246,-5.61557 15.48569,-5.61557 1.40481,0 3.88407,-0.34639 5.50946,-0.76975 2.76244,-0.71952 4.62545,-1.55217 11.08451,-4.95409 1.88222,-0.99134 4.04513,-1.54835 8,-2.06021 6.45312,-0.83521 16.78808,-3.94143 22.42033,-6.73854 2.2,-1.09257 4.96272,-2.18699 6.13938,-2.43204 1.29198,-0.26906 6.44125,-0.23407 13,0.0884 18.12697,0.8911 19.19214,0.84647 24.26175,-1.01645 2.68957,-0.98832 5.33581,-1.61727 6.80454,-1.61727 2.34226,0 2.86804,0.21178 10.04525,4.04627 1.79464,0.95881 10.80329,2.18934 12.17486,1.66302 1.45574,-0.55861 61.86519,0.8053 68.53677,1.54742 3.5956,0.39996 9.5117,0.8772 13.14685,1.06053 6.5608,0.33087 6.6325,0.32265 9.75,-1.11696 2.58195,-1.1923 3.80765,-1.45028 6.8906,-1.45028 3.9277,0 4.9466,0.41223 9.9558,4.02797 3.64035,2.62766 5.55435,2.88839 21.7942,2.96885 10.413,0.0516 15.8208,0.27414 17.68405,0.72778 2.46335,0.59973 3.2109,1.17795 9.0916,7.03208 7.54785,7.51379 7.9117,8.31733 5.7587,12.71784 -1.98285,4.05287 -5.86075,7.34713 -10.63405,9.0336 -9.2448,3.2663 -10.91565,4.4907 -12.3537,9.05264 -1.06915,3.39175 -2.35715,4.26797 -8.3374,5.67197 -3.15425,0.74054 -6.08435,1.02051 -10.7711,1.0292 -3.54095,0.007 -7.3381,0.23179 -8.4381,0.50053 -1.1,0.26873 -4.3153,0.71878 -7.14515,1.0001 -3.99175,0.39684 -6.23345,0.94376 -10,2.43973 -13.83615,5.4954 -18.04015,6.32711 -29.43155,5.82274 -6.61043,-0.29268 -8.11546,-0.20752 -11.80082,0.66775 -4.65537,1.10565 -15.07599,2.29808 -19.37248,2.21678 -1.8556,-0.0351 -4.05095,-0.58122 -6.75,-1.67912 -4.46104,-1.81462 -5.18286,-1.86166 -19.96794,-1.30115 -5.64002,0.21381 -9.14595,0.60753 -12,1.34763 -7.30599,1.89455 -8.53911,2.01065 -13.47692,1.26887 -5.17474,-0.77738 -5.91374,-0.70944 -11.55514,1.06222 -3.27616,1.02886 -5.58342,1.33069 -12.75,1.6679 -4.8125,0.22644 -9.9875,0.66773 -11.5,0.98064 -3.98425,0.82427 -21.52683,6.2642 -26.5,8.21761 -2.3375,0.91814 -6.3875,2.23558 -9,2.92764 -2.6125,0.69205 -7.5625,2.52467 -11,4.07247 -3.4375,1.54781 -7.36578,3.31179 -8.72951,3.91997 -1.36373,0.60816 -3.79831,2.0732 -5.41018,3.25563 -3.76949,2.76519 -5.06007,3.33123 -11.07875,4.85904 -9.44384,2.39725 -14.75804,5.83819 -18.14614,11.74957 -3.02904,5.28492 -5.42958,6.84485 -12.63748,8.21217 -2.32638,0.4413 -5.23021,1.28667 -6.45297,1.8786 -1.23264,0.59671 -5.02389,3.77333 -8.50908,7.1296 -3.45724,3.32937 -8.22298,7.67494 -10.59053,9.65685 -3.71698,3.11153 -4.54729,4.10761 -6.08217,7.29639 -1.66653,3.46232 -2.00548,3.83114 -5.42781,5.9063 -2.92991,1.77658 -3.96624,2.75096 -5.25139,4.93749 -0.88061,1.49827 -3.16418,4.11727 -5.0746,5.82001 -6.17981,5.50799 -11.29804,13.04912 -18.12571,26.70618 -1.42925,2.85887 -3.70096,6.69226 -5.04825,8.51865 -2.48262,3.36547 -2.74532,3.93607 -4.16024,9.03614 -0.70404,2.53772 -1.41995,3.51661 -6.40888,8.7631 -5.28121,5.55384 -5.84533,6.35297 -9.45459,13.39315 -2.11106,4.1178 -4.29089,8.64117 -4.84407,10.05194 -0.55319,1.41078 -2.13812,4.53983 -3.52207,6.95346 -1.38395,2.41363 -3.00569,5.87186 -3.60388,7.68495 -0.59819,1.81311 -2.03504,5.54655 -3.193,8.29655 -1.15797,2.75 -3.41171,8.90548 -5.00832,13.67885 -3.29771,9.85914 -3.25319,7.61529 -0.45283,22.82115 0.91334,4.9594 1.35928,9.405 1.52973,15.25 0.18947,6.49738 0.50444,9.32364 1.48261,13.30384 1.10482,4.49552 1.18319,5.42216 0.70941,8.38791 -0.29294,1.83374 -0.8507,7.54701 -1.23947,12.69616 -0.38876,5.14915 -0.98023,12.34787 -1.31437,15.99718 -0.53768,5.87229 -0.50914,7.10814 0.24821,10.75 0.77405,3.72209 0.8006,5.37979 0.27815,17.36491 -0.31767,7.2875 -0.61229,16.0625 -0.65471,19.5 -0.0807,6.54105 -0.034,6.36233 -3.01985,11.56861 -0.96897,1.68958 -1.46568,3.52084 -1.83084,6.75 -1.47556,13.04824 -2.99402,19.50989 -5.67232,24.13794 -1.20742,2.0864 -2.79424,5.67635 -3.52628,7.9777 -0.73204,2.30135 -1.98746,5.41445 -2.78982,6.91805 -0.80237,1.5036 -1.59631,3.5582 -1.76431,4.56575 -0.79409,4.7623 -1.72661,6.9682 -3.69903,8.7502 -2.32757,2.1028 -4.59135,2.799 -14.02466,4.3132 -3.7125,0.5959 -8.8875,1.66105 -11.5,2.36705 -3.38186,0.9139 -6.26216,1.32095 -10,1.4133 -2.8875,0.0713 -6.825,0.48775 -8.75,0.9253 -4.88125,1.1095 -10.94316,1.0438 -13.56558,-0.14705 z"
     id="path1273"
     inkscape:connector-curvature="0" />
</svg>
