<?xml version="1.0" encoding="UTF-8" standalone="no"?>
<!-- Created with Inkscape (http://www.inkscape.org/) -->

<svg
   xmlns:dc="http://purl.org/dc/elements/1.1/"
   xmlns:cc="http://creativecommons.org/ns#"
   xmlns:rdf="http://www.w3.org/1999/02/22-rdf-syntax-ns#"
   xmlns:svg="http://www.w3.org/2000/svg"
   xmlns="http://www.w3.org/2000/svg"
   xmlns:sodipodi="http://sodipodi.sourceforge.net/DTD/sodipodi-0.dtd"
   xmlns:inkscape="http://www.inkscape.org/namespaces/inkscape"
   version="1.1"
   id="svg96"
   width="1000"
   height="1000"
   viewBox="0 0 1000 1000"
   sodipodi:docname="Masomeh_maj_j.svg"
   inkscape:version="0.92.2 5c3e80d, 2017-08-06">
  <metadata
     id="metadata102">
    <rdf:RDF>
      <cc:Work
         rdf:about="">
        <dc:format>image/svg+xml</dc:format>
        <dc:type
           rdf:resource="http://purl.org/dc/dcmitype/StillImage" />
        <dc:title></dc:title>
      </cc:Work>
    </rdf:RDF>
  </metadata>
  <defs
     id="defs100" />
  <sodipodi:namedview
     pagecolor="#ffffff"
     bordercolor="#666666"
     borderopacity="1"
     objecttolerance="10"
     gridtolerance="10"
     guidetolerance="10"
     inkscape:pageopacity="0"
     inkscape:pageshadow="2"
     inkscape:window-width="1034"
     inkscape:window-height="480"
     id="namedview98"
     showgrid="false"
     inkscape:zoom="0.21356909"
     inkscape:cx="413.96774"
     inkscape:cy="600"
     inkscape:window-x="0"
     inkscape:window-y="0"
     inkscape:window-maximized="0"
     inkscape:current-layer="svg96" />
  <path
     style="fill:#000000;stroke-width:0.5"
     d="m 478.80391,799.46919 c -0.11458,-0.108 -2.45833,-0.43915 -5.20833,-0.7359 -2.75,-0.29675 -6.09124,-0.9122 -7.42498,-1.36765 -2.29082,-0.7823 -2.5951,-0.77655 -5.5,0.1037 -3.52079,1.06685 -8.01252,1.16055 -9.83153,0.2051 -0.68392,-0.35925 -2.0512,-1.37505 -3.03841,-2.25735 -1.46667,-1.31085 -2.38109,-1.66995 -5,-1.9636 -1.76279,-0.19765 -4.21758,-0.81205 -5.45508,-1.3654 -1.2375,-0.5533 -4.05449,-1.17605 -6.25997,-1.38385 -5.2639,-0.4959 -9.9679,-2.67345 -12.60915,-5.83685 -2.05944,-2.4666 -6.96187,-5.46555 -10.57624,-6.46975 -1.26755,-0.3522 -3.65464,-1.11645 -5.30464,-1.6984 -1.65,-0.58195 -4.0125,-1.30115 -5.25,-1.59825 -1.69308,-0.40645 -2.89356,-1.2043 -4.85,-3.22345 -1.42999,-1.47585 -3.59519,-3.1511 -4.81155,-3.7229 -2.74454,-1.29005 -3.87701,-2.4849 -5.67635,-5.98905 -1.2402,-2.4152 -1.79017,-2.9326 -4.51768,-4.25 -3.96415,-1.9147 -5.86453,-3.75475 -7.74596,-7.5 -1.887,-3.75637 -3.05824,-5.04705 -5.89846,-6.5 -2.81606,-1.44059 -4.18411,-2.90624 -5.27472,-5.65103 -0.64401,-1.6208 -1.49842,-2.56281 -3.46619,-3.82158 -2.90821,-1.86036 -4.30786,-3.8093 -5.75373,-8.01181 -0.59404,-1.7266 -1.85647,-3.81529 -3.22809,-5.34086 -2.17154,-2.41528 -3.26863,-4.87868 -3.27448,-7.35255 -0.005,-1.93519 -1.51524,-7.19701 -2.6046,-9.07217 -0.55915,-0.9625 -2.17124,-2.65886 -3.58242,-3.7697 -3.13795,-2.47009 -5.19693,-6.10801 -5.85488,-10.34474 -0.26782,-1.72456 -0.94482,-4.22171 -1.50444,-5.54922 -1.2119,-2.87478 -2.45645,-10.66385 -2.45645,-15.37379 0,-1.85602 -0.34992,-5.13813 -0.7776,-7.29357 -1.74429,-8.79084 -0.61121,-22.48106 2.58071,-31.18136 0.79099,-2.15601 1.19689,-4.33144 1.19689,-6.41473 0,-3.35415 0.65383,-5.34679 4.8637,-14.82289 3.124,-7.03191 4.70334,-9.3014 8.16036,-11.72637 2.36147,-1.65647 3.33196,-2.7574 4.53966,-5.14986 0.84485,-1.67364 2.29363,-4.14424 3.21951,-5.49023 0.92588,-1.34599 1.81777,-3.27667 1.982,-4.2904 0.58967,-3.63995 1.48223,-5.29155 3.75041,-6.93977 1.2289,-0.89301 2.81332,-2.0645 3.52094,-2.60331 0.70761,-0.53881 1.98534,-2.28924 2.83939,-3.88986 1.82961,-3.42894 3.38785,-4.99542 7.12403,-7.16174 3.94834,-2.28933 4.70912,-3.12587 8.37696,-9.21119 3.51464,-5.83117 9.0705,-12.17386 11.7969,-13.46763 0.9017,-0.42788 2.63771,-0.91811 3.8578,-1.08939 3.69572,-0.51882 4.85456,-1.19528 6.26881,-3.65936 2.68922,-4.68547 4.67182,-6.15756 9.47076,-7.03207 1.63833,-0.29855 4.32877,-1.09908 5.97877,-1.77895 2.47418,-1.01947 3.83254,-1.23528 7.75,-1.23126 7.55498,0.008 18.47798,1.19328 20.61745,2.23774 1.8432,0.89983 1.89947,0.89666 4.33372,-0.24348 6.94495,-3.25284 15.54883,0.75988 15.54883,7.25173 0,2.67657 -1.21844,4.8226 -5.09467,8.97323 -4.67084,5.0015 -7.19219,6.20924 -13.98641,6.69959 -2.8429,0.20518 -5.66966,0.64342 -6.28169,0.97386 -0.61201,0.33045 -3.26437,1.15984 -5.89411,1.84311 -5.78979,1.50431 -10.88387,4.00114 -13.24312,6.49101 -0.9625,1.01578 -3.4375,3.21316 -5.5,4.88304 -6.25642,5.06547 -14.41286,13.72995 -16.10824,17.11156 -1.97869,3.94671 -2.32895,4.30784 -7.89176,8.13633 -3.20518,2.2059 -7.06113,5.63608 -11.85624,10.5471 -6.5198,6.67739 -7.1507,7.4859 -7.64507,9.79729 -0.47063,2.20045 -1.41094,4.06494 -5.5573,11.01928 -0.49188,0.825 -2.06461,2.4 -3.49496,3.5 -3.58404,2.7563 -4.22694,3.8007 -5.69396,9.25 -0.70332,2.6125 -1.70335,6.2125 -2.22227,8 -0.66327,2.28469 -1.03813,5.70042 -1.26206,11.5 -0.48625,12.59301 -0.42456,15.05801 0.45234,18.07444 0.4451,1.5311 1.00974,5.00946 1.25476,7.72969 0.24501,2.72023 0.79213,5.90578 1.21581,7.079 0.42368,1.17323 1.12519,4.52296 1.5589,7.44386 0.43371,2.92089 1.00108,5.70779 1.26081,6.19312 0.25974,0.48532 1.40594,1.6219 2.54712,2.52573 1.14118,0.90383 3.3273,3.34452 4.85805,5.42374 1.53075,2.07923 3.84461,5.0633 5.14192,6.63126 1.2973,1.56796 3.65125,5.16796 5.23099,8 2.21516,3.97119 3.96908,6.27724 7.66671,10.08024 5.26562,5.41566 6.65368,6.42837 11.69778,8.53449 2.93198,1.22422 3.6303,1.77512 5.04223,3.97773 2.12608,3.31669 2.49389,3.58888 6.5374,4.83779 4.90765,1.51581 15.14959,7.04441 17.48976,9.44096 1.32714,1.3591 2.79514,2.2529 4.5275,2.7565 1.40997,0.4099 3.51735,1.43615 4.68307,2.2806 1.16571,0.84445 3.88781,2.31285 6.0491,3.2631 3.57634,1.57245 4.35567,1.72775 8.66888,1.72775 3.43894,0 6.05925,0.34295 9.55024,1.25 2.7016,0.70195 6.21394,1.25 8.01076,1.25 1.75987,0 4.8508,0.3092 6.86875,0.68715 4.20075,0.78675 26.83014,0.703 30.05674,-0.1112 1.03826,-0.262 2.83826,-1.2513 4,-2.19845 3.42265,-2.79035 4.2265,-3.0438 10.63794,-3.3538 5.77291,-0.2791 6.1865,-0.3741 9.85843,-2.26345 3.73265,-1.92065 5.65391,-3.1861 11.68895,-7.6989 6.12951,-4.5835 26.6185,-26.45084 31.68012,-33.81135 3.86789,-5.6246 9.56223,-16.67699 12.08371,-23.45382 0.82801,-2.2254 1.92734,-5.17118 2.44296,-6.54618 0.59649,-1.59066 0.94708,-3.86401 0.96386,-6.25 0.0244,-3.46479 0.25708,-5.53337 1.37809,-12.25 0.22948,-1.375 0.26755,-3.2875 0.0846,-4.25 -2.39293,-12.5885 -3.04082,-17.25647 -3.01292,-21.70788 0.0294,-4.698 -0.11188,-5.39254 -2.69624,-13.25 -1.50002,-4.56067 -2.98319,-9.52962 -3.29593,-11.04212 -0.31273,-1.5125 -1.87002,-6.0125 -3.46064,-10 -2.12985,-5.3393 -3.09885,-8.58172 -3.6768,-12.3031 -0.99101,-6.38116 -2.89766,-12.45704 -5.31803,-16.9469 -1.03771,-1.925 -2.15833,-4.67953 -2.49025,-6.12117 -0.38344,-1.66538 -1.31811,-3.51867 -2.56326,-5.08251 -1.07786,-1.35374 -3.4287,-5.68671 -5.22408,-9.62883 -2.73166,-5.99794 -3.73682,-7.65702 -6.15997,-10.16749 -3.24845,-3.36552 -7.23993,-8.86593 -8.33416,-11.48478 -0.39827,-0.95321 -0.72413,-2.44639 -0.72413,-3.31818 0,-1.28798 -0.55748,-2.11104 -2.97415,-4.39106 -2.43052,-2.29308 -3.56206,-3.97064 -6.19049,-9.17766 -2.81956,-5.58567 -3.86354,-7.07824 -8.46294,-12.09926 -2.88564,-3.15017 -6.50474,-7.59541 -8.04243,-9.87832 -3.77242,-5.60064 -5.92435,-7.84671 -10.15498,-10.59925 -4.18857,-2.72517 -5.26973,-4.03842 -8.18611,-9.94335 -2.02339,-4.09685 -6.86483,-10.42831 -9.98495,-13.05796 -4.25888,-3.58939 -5.4598,-5.15647 -6.31847,-8.24494 -0.64765,-2.32946 -1.25281,-3.41136 -2.3599,-4.21903 -4.61265,-3.3651 -7.16629,-6.62205 -10.51887,-13.41592 -1.83643,-3.72147 -4.31759,-8.25627 -5.51368,-10.07735 -1.33212,-2.02819 -2.30329,-4.16848 -2.50657,-5.52408 -0.21611,-1.44115 -0.97792,-3.04209 -2.18416,-4.59001 -1.75834,-2.25641 -1.8611,-2.59515 -2.02582,-6.67792 -0.14197,-3.51912 -0.3788,-4.5736 -1.30285,-5.80093 -0.62114,-0.825 -1.61638,-2.45625 -2.21165,-3.625 -1.3788,-2.70713 -2.1818,-2.70713 -6.33917,0 -2.43643,1.58652 -3.90976,3.05868 -5.8142,5.80957 -3.24604,4.68879 -5.38083,5.80864 -10.10808,5.30239 -2.88548,-0.30901 -3.35887,-0.21408 -5.84515,1.17214 -5.73017,3.19483 -10.09671,3.67626 -21.30324,2.34876 -4.03016,-0.4774 -7.10363,-1.14565 -9.06398,-1.97076 -1.63136,-0.68662 -4.51039,-1.49511 -6.39783,-1.79663 -3.49076,-0.55766 -4.43008,-0.90528 -14.84391,-5.49344 -4.32328,-1.90476 -6.91804,-2.72696 -9.69332,-3.07152 -4.53673,-0.56323 -6.15851,-1.32757 -8.00926,-3.77472 -3.0263,-4.00154 -4.91991,-5.24465 -7.25308,-4.76148 -1.61808,0.33509 -4.79303,4.98143 -5.39922,7.90143 -0.46072,2.21932 -1.06932,3.27633 -3.23029,5.61044 -1.68135,1.81606 -3.13942,4.04936 -3.95642,6.06001 -0.71159,1.75124 -1.95698,4.22014 -2.76752,5.48644 -0.95939,1.49884 -2.03355,4.54174 -3.07781,8.71891 -1.60411,6.41653 -1.60411,6.41653 -0.79587,10.25 0.97436,4.62133 1.50802,10.92134 1.55299,18.33346 0.0278,4.57799 -0.1275,5.76584 -0.92628,7.08582 -1.52325,2.51713 -2.81558,2.93015 -8.71606,2.78555 -6.22226,-0.15249 -8.23414,-1.04972 -11.10349,-4.9518 -2.66529,-3.62457 -3.00832,-4.79986 -3.47366,-11.90121 -0.23493,-3.5851 -0.57692,-7.21666 -0.75999,-8.07015 -0.18821,-0.87741 0.0372,-3.36598 0.51861,-5.72642 0.874,-4.28513 0.77348,-11.80926 -0.24729,-18.50914 -0.29292,-1.92265 -0.20684,-4.01665 0.27748,-6.75 0.46295,-2.61273 0.60514,-5.66596 0.4174,-8.96265 -0.22134,-3.8867 -0.10188,-5.55666 0.5365,-7.5 0.45169,-1.375 1.00314,-4.77417 1.22546,-7.55371 0.36893,-4.61273 0.6919,-5.76272 3.70127,-13.17897 1.81338,-4.46889 3.88273,-8.8931 4.59854,-9.83158 2.71166,-3.55517 5.68031,-4.48386 10.97113,-3.43213 1.93257,0.38417 5.32303,0.92212 7.53436,1.19545 5.37184,0.66399 7.76022,1.77686 13.84565,6.4514 2.82357,2.16893 6.37125,4.73872 7.88375,5.71065 1.5125,0.97193 3.65,2.71447 4.75,3.87231 4.1815,4.40139 13.89531,7.79253 25.74255,8.98686 3.53932,0.3568 4.38802,0.65142 7.07617,2.45647 3.37173,2.26406 3.90713,2.39647 11.32401,2.80047 5.81743,0.31687 6.74349,0.0294 9.60727,-2.9823 0.9625,-1.01221 2.7625,-2.53472 4,-3.38335 4.82871,-3.31134 8.6837,-7.16154 11.37568,-11.36157 1.49822,-2.3375 3.36299,-4.925 4.14396,-5.75 0.78097,-0.825 2.26597,-3.28576 3.3,-5.46836 2.30766,-4.87094 2.64797,-8.15711 1.44146,-13.91957 -0.83448,-3.98558 -0.82932,-4.28835 0.16798,-9.84278 0.75645,-4.21311 1.4939,-6.61831 2.78472,-9.0824 2.60917,-4.98077 5.2862,-11.69257 5.2862,-13.25349 0,-0.75526 -0.25904,-2.62735 -0.57565,-4.16019 -0.52362,-2.53515 -0.47327,-3.01228 0.55719,-5.2801 0.62306,-1.37121 1.65154,-3.78343 2.2855,-5.36048 0.69824,-1.73694 2.34569,-4.20096 4.17875,-6.25 1.66434,-1.86045 3.76366,-4.50763 4.66514,-5.88263 1.41054,-2.15143 2.29823,-2.83114 6.36668,-4.875 3.92678,-1.97269 5.1936,-2.375 7.47849,-2.375 2.71648,0 2.78894,0.0391 5.79402,3.125 2.26515,2.32608 3.64733,4.38549 5.40644,8.05543 1.29983,2.71174 2.57834,5.86174 2.84115,7 0.70187,3.03984 0.58888,8.57878 -0.25639,12.56939 -0.40773,1.92489 -0.74132,4.43137 -0.74132,5.56995 0,5.69863 -4.56269,20.72805 -7.7503,25.52937 -1.1288,1.70025 -1.98477,3.84223 -2.47503,6.19352 -0.90403,4.33577 -1.51886,5.33894 -4.90778,8.00768 -3.3391,2.6295 -3.53657,3.01384 -3.14766,6.12654 0.20743,1.6602 0.0457,3.77482 -0.45337,5.92662 -0.75134,3.23969 -0.73687,3.49558 0.45746,8.09231 0.67833,2.61077 1.91809,6.10333 2.75501,7.76125 0.83692,1.65793 1.52167,3.32663 1.52167,3.70822 0,0.38159 0.6747,2.01925 1.49933,3.63926 0.82463,1.62001 2.31216,5.53296 3.30562,8.69546 0.99345,3.1625 2.37348,6.86994 3.06674,8.23876 0.69325,1.36882 1.67401,3.69081 2.17948,5.15996 0.54433,1.58214 1.86112,3.71904 3.22976,5.24129 1.2709,1.41356 2.96505,3.86628 3.76476,5.45051 1.21879,2.41439 2.04052,3.26699 5.07916,5.26994 3.25035,2.14249 3.80608,2.75471 5.37515,5.92154 0.9625,1.9426 2.7625,4.92155 4,6.61988 5.67154,7.78356 6.60138,9.20293 7.79084,11.89253 2.62033,5.92501 8.58268,13.0633 13.95916,16.71225 1.925,1.30648 5.00065,3.93633 6.83479,5.84412 2.74195,2.85204 3.48655,3.99585 4.1884,6.43396 1.10728,3.84648 2.30474,6.16553 3.98385,7.71526 0.74489,0.6875 2.20755,2.49939 3.25035,4.02643 1.31322,1.92304 2.79453,3.30621 4.8193,4.5 2.877,1.69626 2.97876,1.8347 6.42331,8.7383 1.925,3.8581 3.95666,7.6831 4.51481,8.5 0.55815,0.8169 2.65531,4.76801 4.66036,8.78025 2.00506,4.01224 4.64464,8.51224 5.86574,10 1.22109,1.48776 3.68809,4.84252 5.48221,7.45502 1.79411,2.6125 4.03528,5.83469 4.98037,7.16041 1.55404,2.17995 5.56055,13.44484 7.74475,21.77555 1.03488,3.94711 5.02829,14.12557 6.29008,16.03227 2.10552,3.18165 5.71457,14.27233 6.23736,19.16753 0.31176,2.91921 0.87823,5.19456 1.69404,6.80447 0.67411,1.33029 1.67361,4.6442 2.22113,7.36424 0.54751,2.72004 1.43363,5.95803 1.96916,7.19553 0.53553,1.2375 1.1263,4.04405 1.31281,6.23678 0.2333,2.74262 0.79757,5.03128 1.80816,7.33381 1.10026,2.50685 1.46902,4.11446 1.46902,6.40428 0,1.69365 0.35665,3.88637 0.79964,4.91619 1.6273,3.78305 1.75684,4.76168 1.14476,8.6483 -0.51569,3.27452 -0.48451,4.1188 0.22942,6.21407 1.0809,3.17229 1.04548,5.85078 -0.10769,8.14149 -0.51362,1.02029 -1.05354,3.43008 -1.19983,5.35508 -0.35047,4.61219 -1.98772,9.64077 -3.92457,12.05389 -2.72756,3.39826 -3.58107,5.95715 -3.5113,10.52725 0.0554,3.63178 -0.10246,4.39434 -1.43406,6.92577 -1.11035,2.1108 -1.49637,3.52152 -1.49637,5.46851 0,2.05039 -0.39281,3.3641 -1.79727,6.01064 -0.9885,1.86272 -2.24543,4.76538 -2.79319,6.45035 -1.24285,3.8232 -2.8232,5.52236 -6.37063,6.84963 -3.71752,1.3909 -3.92343,1.61557 -4.30901,4.70169 -0.4437,3.55127 -1.49528,5.13417 -5.56547,8.37767 -4.09395,3.26245 -4.67405,3.5788 -7.9874,4.3559 -3.26679,0.7662 -4.60444,2.1883 -5.11875,5.4418 -0.41853,2.6476 -1.10227,3.81895 -5.26662,9.0229 -1.71193,2.13925 -3.23004,3.43695 -5,4.27395 -4.58958,2.17035 -10.65903,4.79 -11.10459,4.79285 -1.82496,0.0115 -4.66488,1.4395 -6.91378,3.4761 -2.73243,2.4745 -5.54801,3.5211 -9.47255,3.5211 -0.93826,0 -3.13842,0.7899 -5.10039,1.83115 -4.68484,2.4863 -6.47662,2.8261 -10.25467,1.9447 -2.70698,-0.6315 -3.34545,-0.6294 -5.14316,0.0165 -4.106,1.4756 -27.75825,3.53475 -28.84419,2.5111 z"
     id="path106"
     inkscape:connector-curvature="0" />
</svg>
