<?xml version="1.0" encoding="UTF-8" standalone="no"?>
<!-- Created with Inkscape (http://www.inkscape.org/) -->

<svg
   xmlns:dc="http://purl.org/dc/elements/1.1/"
   xmlns:cc="http://creativecommons.org/ns#"
   xmlns:rdf="http://www.w3.org/1999/02/22-rdf-syntax-ns#"
   xmlns:svg="http://www.w3.org/2000/svg"
   xmlns="http://www.w3.org/2000/svg"
   xmlns:sodipodi="http://sodipodi.sourceforge.net/DTD/sodipodi-0.dtd"
   xmlns:inkscape="http://www.inkscape.org/namespaces/inkscape"
   version="1.1"
   id="svg851"
   width="1000"
   height="1000"
   viewBox="0 0 1000 1000"
   sodipodi:docname="Masomeh_bdc_v2.svg"
   inkscape:version="0.92.2 5c3e80d, 2017-08-06">
  <metadata
     id="metadata857">
    <rdf:RDF>
      <cc:Work
         rdf:about="">
        <dc:format>image/svg+xml</dc:format>
        <dc:type
           rdf:resource="http://purl.org/dc/dcmitype/StillImage" />
        <dc:title></dc:title>
      </cc:Work>
    </rdf:RDF>
  </metadata>
  <defs
     id="defs855" />
  <sodipodi:namedview
     pagecolor="#ffffff"
     bordercolor="#666666"
     borderopacity="1"
     objecttolerance="10"
     gridtolerance="10"
     guidetolerance="10"
     inkscape:pageopacity="0"
     inkscape:pageshadow="2"
     inkscape:window-width="1027"
     inkscape:window-height="480"
     id="namedview853"
     showgrid="false"
     inkscape:zoom="0.19666667"
     inkscape:cx="713"
     inkscape:cy="600"
     inkscape:window-x="84"
     inkscape:window-y="104"
     inkscape:window-maximized="0"
     inkscape:current-layer="svg851" />
  <path
     style="fill:#000000;stroke-width:0.5"
     d="m 388.60594,718.33667 c -1.65,-0.2047 -5.1375,-0.4011 -7.75,-0.4364 -5.89447,-0.0796 -10.33705,-0.69745 -16.63691,-2.31375 -8.65157,-2.2196 -11.03136,-3.6118 -18.86309,-11.035 -2.0625,-1.9549 -5.7632,-4.8473 -8.22378,-6.4275 -2.46058,-1.5802 -5.94183,-4.1185 -7.73611,-5.6407 -1.79428,-1.5222 -5.12264,-3.9928 -7.39635,-5.49025 -5.03524,-3.31615 -7.65625,-6.20582 -9.88074,-10.8935 -0.92998,-1.95973 -2.97256,-5.23502 -4.53905,-7.27841 -1.56651,-2.04338 -4.0275,-6.19024 -5.46888,-9.21524 -1.44137,-3.025 -3.7426,-7.33854 -5.11383,-9.58563 -1.37124,-2.2471 -3.01056,-5.3971 -3.64294,-7 -1.58391,-4.0148 -2.49093,-5.43933 -6.95439,-10.92231 -2.13319,-2.62044 -4.96615,-6.84066 -6.29546,-9.37825 -1.32932,-2.5376 -3.2472,-5.85131 -4.26195,-7.36381 -1.01475,-1.5125 -3.30619,-5.3375 -5.09207,-8.5 -1.78588,-3.1625 -4.4173,-7.6625 -5.8476,-10 -1.43029,-2.3375 -3.75272,-6.5856 -5.16094,-9.44023 -2.56041,-5.19023 -2.56041,-5.19023 -2.92398,-12.25 -0.24872,-4.82934 -0.75913,-8.63945 -1.61557,-12.05977 -0.6886,-2.75 -1.50268,-7.25 -1.80905,-10 -0.30638,-2.75 -1.10571,-7.925 -1.77628,-11.5 -6.23926,-33.26344 -7.02023,-46.21746 -3.77661,-62.64272 1.21935,-6.1746 1.25669,-8.66314 0.23975,-15.97795 -1.01008,-7.26548 -0.32212,-23.24685 1.25396,-29.12932 1.18247,-4.4134 1.2615,-8.11006 0.26187,-12.25 -0.91712,-3.79824 -0.90809,-8.09606 0.0257,-12.25 1.21199,-5.39124 1.4684,-14.08721 0.5676,-19.25 -0.43183,-2.475 -1.24742,-7.52329 -1.8124,-11.21843 -1.10271,-7.21198 -4.09148,-20.54614 -5.31776,-23.72473 -0.4123,-1.06874 -1.76858,-3.26733 -3.01393,-4.88577 -3.38472,-4.39868 -7.04265,-13.0691 -9.90687,-23.48227 -0.99594,-3.62087 -2.81595,-5.38968 -7.70408,-7.48738 -4.63658,-1.98974 -7.85776,-4.00754 -11.80668,-7.39588 -1.79834,-1.54306 -3.45571,-2.55555 -4.18319,-2.55555 -0.82902,0 -2.23949,1.05863 -4.52165,3.39372 -1.82424,1.86655 -4.61792,4.13727 -6.20819,5.04608 -4.75695,2.71846 -5.58406,3.66991 -7.84193,9.02068 -1.76119,4.17374 -2.7074,5.63811 -5.93108,9.179 -3.4534,3.79321 -4.10264,4.84845 -6.51565,10.59019 -1.47403,3.50745 -2.86888,7.0844 -3.09966,7.94876 -0.23079,0.86437 -0.25804,5.43469 -0.0606,10.15627 0.35907,8.58469 0.35907,8.58469 3.44529,14.75 1.69743,3.39092 4.01786,7.28084 5.15653,8.64427 2.64775,3.1704 3.30137,4.46716 5.03736,9.99391 1.63258,5.19756 5.1499,11.51408 7.52392,13.51168 1.46255,1.23065 1.93549,1.34958 4.67347,1.17524 4.50051,-0.28658 5.73527,-1.38399 8.79867,-7.82004 1.39788,-2.93686 3.02837,-5.86789 3.62331,-6.51341 3.96665,-4.30377 13.45825,-4.6908 19.44278,-0.79279 2.58114,1.6812 3.55129,3.75203 3.28156,7.00459 -0.28152,3.39487 -2.41642,6.94115 -7.44264,12.36298 -2.15117,2.32048 -4.51693,5.50053 -5.41378,7.27718 -2.04913,4.05931 -4.80996,7.02653 -8.96472,9.63489 -1.8268,1.14687 -4.81394,3.48556 -6.63806,5.19708 -5.67119,5.32109 -11.95943,7.28052 -16.93341,5.27648 -4.2498,-1.71226 -10.57071,-5.11732 -14.34052,-7.72521 -4.77562,-3.30369 -7.36411,-6.08067 -9.62917,-10.33037 -0.89797,-1.68474 -3.29029,-4.90097 -5.31629,-7.14717 -2.026,-2.2462 -4.23074,-5.0965 -4.89942,-6.334 -1.38608,-2.56515 -5.45288,-17.38038 -6.31353,-23 -0.77342,-5.05004 -2.58332,-11.75951 -5.54794,-20.56675 -3.21519,-9.55163 -3.68417,-13.28202 -2.69256,-21.41747 1.03868,-8.52154 1.8126,-11.30982 5.00311,-18.02515 1.50497,-3.16766 2.73632,-6.04825 2.73632,-6.40131 0,-2.95174 1.90132,-8.0947 4.96129,-13.42001 2.1852,-3.80294 4.41351,-8.69024 6.23235,-13.66932 4.84528,-13.26398 5.38836,-14.54426 7.50359,-17.6895 3.17532,-4.72153 9.43619,-11.90716 14.10328,-16.1864 2.45472,-2.25072 7.28931,-5.80401 11.53749,-8.47973 9.64199,-6.07302 11.50906,-6.35357 16.33504,-2.45458 2.96259,2.39354 3.57202,2.62918 8.46535,3.27334 7.90628,1.04076 12.27493,2.8898 17.82631,7.54499 1.25691,1.054 4.96393,3.29287 8.2378,4.97527 11.17662,5.74348 12.64762,7.22184 20.4144,20.51661 2.32948,3.9875 4.59311,7.94484 5.03027,8.79409 0.43716,0.84926 2.0281,3.17195 3.53542,5.16154 1.50732,1.9896 3.68981,5.79476 4.84998,8.45591 3.4542,7.92313 6.38488,13.52762 9.98167,19.08847 4.0492,6.26028 5.00505,9.10358 7.01292,20.86074 0.90065,5.27385 2.32555,11.28052 3.67689,15.5 2.54835,7.95711 3.79595,13.56219 3.79595,17.05407 0,1.35133 -0.57866,4.67957 -1.28591,7.39608 -0.79691,3.06091 -1.44133,7.31581 -1.69463,11.18911 -0.41532,6.35089 -0.76203,7.71828 -3.42513,13.50856 -2.43049,5.28454 -3.014,8.17349 -3.87291,19.17473 -0.67647,8.6644 -0.72167,11.97048 -0.26662,19.5 0.7358,12.17493 0.68805,19.14851 -0.17746,25.9161 -0.52642,4.11626 -0.67404,9.45214 -0.54363,19.65061 0.19386,15.16162 0.17823,15.04059 4.29591,33.24999 2.37542,10.50468 2.95026,12.43832 5.04693,16.97656 2.35769,5.1032 3.20637,7.98567 3.90807,13.27344 0.49035,3.69512 1.11765,5.18141 8.23004,19.5 4.23457,8.525 8.88614,18.51754 10.33681,22.20565 2.90482,7.38506 5.40463,11.53497 11.92368,19.79435 2.38761,3.025 5.48091,7.1875 6.87401,9.25 2.83428,4.19618 7.36553,8.72142 13.54509,13.52712 2.27934,1.77258 5.20434,4.06598 6.5,5.09644 2.99912,2.38523 8.87133,4.84246 15.7604,6.59495 5.14693,1.30932 6.01712,1.37861 18.25,1.45318 12.31686,0.0751 12.97888,0.0301 16.09107,-1.09267 7.77152,-2.80378 12.09336,-5.70829 15.63416,-10.507 1.14525,-1.55211 3.45784,-4.39702 5.13907,-6.32202 1.68124,-1.925 3.99781,-4.89655 5.14793,-6.60346 1.15012,-1.7069 3.14373,-3.9569 4.43025,-5 4.65509,-3.7743 7.3181,-6.45155 9.26377,-9.31329 1.09069,-1.60421 3.36817,-4.51208 5.06108,-6.46194 4.62333,-5.32504 7.78613,-9.18558 11.15946,-13.62131 1.67308,-2.2 5.20909,-5.98771 7.85782,-8.41714 3.46081,-3.17428 5.4005,-5.42525 6.89371,-8 1.14282,-1.97057 3.04803,-4.95283 4.23381,-6.62723 1.18576,-1.67442 2.98496,-4.82441 3.9982,-7 1.01324,-2.1756 2.91841,-5.75563 4.23371,-7.95563 1.3153,-2.2 2.75966,-5.449 3.20969,-7.22001 1.0578,-4.16275 2.16933,-6.29039 5.16983,-9.89586 3.34255,-4.01649 3.94203,-5.34792 4.53416,-10.07026 0.5674,-4.52503 0.83974,-5.20738 3.51787,-8.81386 3.24252,-4.36653 3.20726,-4.2138 3.28971,-14.25 0.0495,-6.02662 0.36407,-10.90525 0.90268,-14 0.45467,-2.6125 1.05845,-7.78183 1.34174,-11.48739 0.3356,-4.39001 1.20332,-9.79039 2.49051,-15.5 1.93991,-8.60487 2.41409,-11.45521 3.50405,-21.063 0.29952,-2.64022 1.12139,-6.80272 1.82638,-9.25 1.12268,-3.89727 1.33085,-5.84609 1.67702,-15.69961 0.43993,-12.52231 1.11155,-16.20152 4.89068,-26.79157 1.08765,-3.04786 2.58342,-7.66036 3.32393,-10.25 1.64884,-5.76612 4.8059,-12.56632 8.12526,-17.50149 3.50631,-5.21314 3.65774,-5.55722 5.18859,-11.78941 0.75419,-3.07036 2.3103,-7.57036 3.45804,-10 1.14774,-2.42964 2.76776,-6.33003 3.60004,-8.66753 1.96871,-5.52918 3.01528,-7.53459 5.96693,-11.43363 1.33881,-1.76852 2.47489,-3.5757 2.52462,-4.01594 0.0498,-0.44024 0.10598,-3.61294 0.125,-7.05044 0.0292,-5.28233 0.20004,-6.60783 1.10325,-8.5612 2.55043,-5.51582 7.54751,-8.9388 13.04942,-8.9388 4.14073,0 6.30126,1.12302 9.71106,5.04767 1.46895,1.69076 4.24585,4.43315 6.17085,6.09418 1.925,1.66104 4.9357,4.80485 6.69045,6.98625 1.7547,2.18139 3.86265,4.375 4.6843,4.87466 0.8216,0.49967 3.68995,1.51078 6.3741,2.24692 7.8527,2.15367 10.0241,4.73773 8.93445,10.6323 -0.94215,5.09639 -0.68655,5.55193 7.7325,13.7823 4.1713,4.07784 9.4661,9.02783 11.76625,11 2.3001,1.97215 5.06385,4.34186 6.14165,5.26603 5.92635,5.08165 22.1879,7.01391 39.17125,4.6545 6.5954,-0.91626 8.3022,-1.32704 9.75,-2.34655 0.9653,-0.67971 2.62405,-1.84608 3.68615,-2.59192 2.9211,-2.0513 7.26905,-2.2075 11.1525,-0.40064 4.45885,2.07458 5.35125,2.24 8.27175,1.53332 4.02025,-0.97276 7.71775,-2.59769 12.3004,-5.40554 3.3075,-2.02655 4.7103,-2.59228 6.8725,-2.77159 3.60465,-0.29893 5.18565,0.43541 8.39085,3.8974 5.4561,5.89325 5.9314,8.46045 6.0174,32.50072 0.0635,17.75 0.0635,17.75 -1.3248,20.11171 -0.90025,1.53149 -2.2185,2.84975 -3.75,3.75 -2.3617,1.38829 -2.3617,1.38829 -19.1117,1.65793 -16.75,0.26963 -16.75,0.26963 -25.75,3.33569 -13.2711,4.52109 -19.0139,5.26737 -31.75,4.12593 -12.6373,-1.1326 -17.21865,-2.54625 -22.5026,-6.94361 -3.66835,-3.05283 -4.52055,-3.50293 -9.9974,-5.2805 -5.5269,-1.7938 -12.9563,-5.49859 -19.1031,-9.52601 -6.6177,-4.33597 -7.6069,-4.79899 -15.3292,-7.17506 -8.30525,-2.55543 -9.8343,-2.61061 -11.9458,-0.43108 -2.1387,2.20762 -5.7969,10.21065 -7.65443,16.74548 -2.01793,7.09924 -3.7475,11.66676 -5.91838,15.62952 -1.72869,3.15561 -1.78264,3.417 -1.85737,9 -0.0712,5.3225 -0.23643,6.23327 -2.22182,12.25 -2.14485,6.5 -2.14485,6.5 -2.50759,16.5 -0.19951,5.5 -0.69315,13.4875 -1.09696,17.75 -0.64951,6.85595 -0.9454,8.2596 -2.5649,12.16737 -1.5995,3.85954 -1.90211,5.26728 -2.39624,11.14753 -0.42657,5.07621 -0.42286,7.34838 0.0151,9.24578 0.88592,3.83802 0.70398,6.85491 -0.69209,11.47619 -0.85318,2.82421 -1.41637,6.27351 -1.70838,10.46312 -0.34317,4.92366 -0.75675,7.15192 -1.94885,10.5 -2.40745,6.76149 -2.83408,7.59317 -6.23527,12.15522 -1.77135,2.37594 -4.29233,6.40674 -5.60217,8.95733 -2.47811,4.82552 -3.85072,6.81706 -7.79903,11.31575 -1.29284,1.47306 -3.16105,4.28556 -4.15157,6.25 -1.53062,3.03559 -1.87377,4.35125 -2.28619,8.76526 -0.62051,6.64128 -1.74018,9.06832 -6.68622,14.49336 -2.09948,2.30281 -4.94174,6.04859 -6.31613,8.32396 -1.37439,2.27537 -3.47583,5.22876 -4.66987,6.56309 -1.19404,1.33431 -3.60062,4.45103 -5.34797,6.92603 -1.74734,2.475 -5.57873,6.975 -8.5142,10 -5.71132,5.88553 -11.41911,13.05656 -14.04383,17.6441 -0.88888,1.55359 -3.21731,4.51924 -5.1743,6.59031 -1.95698,2.07107 -4.63136,5.17952 -5.94306,6.90766 -3.74521,4.93423 -5.72025,6.59543 -10.5502,8.87383 -5.00588,2.3614 -6.67843,3.89565 -10.71894,9.83245 -3.77173,5.5419 -9.71121,10.9996 -16.97597,15.59895 -7.59854,4.8107 -10.36875,6.0997 -14.55509,6.7727 -3.62673,0.583 -29.57204,0.59115 -34.25,0.0105 z"
     id="path861"
     inkscape:connector-curvature="0" />
</svg>
