<?xml version="1.0" encoding="UTF-8" standalone="no"?>
<!-- Created with Inkscape (http://www.inkscape.org/) -->

<svg
   xmlns:dc="http://purl.org/dc/elements/1.1/"
   xmlns:cc="http://creativecommons.org/ns#"
   xmlns:rdf="http://www.w3.org/1999/02/22-rdf-syntax-ns#"
   xmlns:svg="http://www.w3.org/2000/svg"
   xmlns="http://www.w3.org/2000/svg"
   xmlns:sodipodi="http://sodipodi.sourceforge.net/DTD/sodipodi-0.dtd"
   xmlns:inkscape="http://www.inkscape.org/namespaces/inkscape"
   version="1.1"
   id="svg474"
   width="1000"
   height="1000"
   viewBox="0 0 1000 1000"
   sodipodi:docname="Masomeh_bdc_h.svg"
   inkscape:version="0.92.2 5c3e80d, 2017-08-06">
  <metadata
     id="metadata480">
    <rdf:RDF>
      <cc:Work
         rdf:about="">
        <dc:format>image/svg+xml</dc:format>
        <dc:type
           rdf:resource="http://purl.org/dc/dcmitype/StillImage" />
        <dc:title></dc:title>
      </cc:Work>
    </rdf:RDF>
  </metadata>
  <defs
     id="defs478" />
  <sodipodi:namedview
     pagecolor="#ffffff"
     bordercolor="#666666"
     borderopacity="1"
     objecttolerance="10"
     gridtolerance="10"
     guidetolerance="10"
     inkscape:pageopacity="0"
     inkscape:pageshadow="2"
     inkscape:window-width="1144"
     inkscape:window-height="639"
     id="namedview476"
     showgrid="false"
     inkscape:zoom="0.28654948"
     inkscape:cx="342.5"
     inkscape:cy="600"
     inkscape:window-x="0"
     inkscape:window-y="0"
     inkscape:window-maximized="0"
     inkscape:current-layer="svg474" />
  <path
     style="fill:#000000;stroke-width:0.5"
     d="m 370.50267,854.32347 c -3.10263,-1.65895 -3.71925,-3.4074 -3.91292,-11.0952 -0.27361,-10.86035 0.45603,-12.2987 8.11385,-15.9952 3.24124,-1.5646 6.31352,-3.5269 8.55687,-5.46545 3.64466,-3.1495 13.04321,-8.85445 17.44626,-10.58996 1.40141,-0.55239 3.56181,-1.73161 4.80088,-2.6205 1.23908,-0.8889 3.86396,-2.55617 5.83308,-3.70506 1.96913,-1.14889 4.86509,-3.26318 6.43548,-4.69843 2.8228,-2.57987 10.03832,-11.68473 13.02821,-16.43955 0.84915,-1.3504 2.89464,-3.86239 4.54554,-5.58219 1.80128,-1.87645 3.25933,-3.92671 3.64604,-5.12691 0.35443,-1.1 1.61551,-4.1375 2.80241,-6.75 1.1869,-2.6125 2.71005,-6.775 3.38476,-9.25 0.67471,-2.475 1.78717,-6.1875 2.47215,-8.25 2.77828,-8.36561 4.30086,-13.90007 4.5757,-16.63224 0.17245,-1.71435 1.31539,-5.46249 2.82066,-9.25 1.39191,-3.50227 3.0693,-8.73026 3.72754,-11.61776 1.57927,-6.92777 3.14969,-11.42703 5.75405,-16.48537 2.10309,-4.08473 3.88706,-9.84496 8.49709,-27.43613 1.10574,-4.21933 2.53477,-8.71933 3.17564,-10 1.70195,-3.40115 3.65621,-9.71666 4.51114,-14.5785 0.41104,-2.3375 1.5452,-7.9016 2.52035,-12.36467 0.97516,-4.46306 1.77739,-9.52556 1.78274,-11.25 0.005,-1.72443 0.30264,-5.27283 0.66066,-7.88533 0.35801,-2.6125 0.55547,-5.82521 0.43879,-7.13936 -0.11668,-1.31414 0.28564,-5.02212 0.89404,-8.23993 0.95536,-5.05282 1.06134,-6.80644 0.77729,-12.86064 -0.2083,-4.43966 -0.13589,-7.65175 0.19748,-8.76007 0.64713,-2.15151 1.45486,-12.13402 2.00263,-24.75 0.35359,-8.14379 0.59726,-10.07103 1.70688,-13.5 1.49471,-4.61895 3.15252,-13.8181 3.57516,-19.83839 0.16068,-2.28889 0.61513,-6.07411 1.00988,-8.41161 0.39476,-2.3375 1.04254,-7.67863 1.43951,-11.86919 0.39697,-4.19055 0.89801,-7.90305 1.11341,-8.25 0.21541,-0.34694 0.53839,-5.58081 0.71773,-11.63081 0.34051,-11.48661 1.15686,-16.34068 4.06141,-24.14931 1.00119,-2.69163 2.88147,-9.71265 5.38311,-20.10069 0.76159,-3.1625 2.42213,-9.4625 3.69009,-14 1.26796,-4.5375 2.98712,-11.99428 3.82034,-16.57062 2.94194,-16.15795 4.14922,-19.30252 8.21168,-21.38862 2.18748,-1.12329 3.07316,-1.26466 8,-1.27694 6.84632,-0.017 9.40188,0.82356 12.21329,4.01749 3.35179,3.80784 4.55124,10.50283 2.86087,15.96869 -0.42523,1.375 -0.77684,3.85 -0.78134,5.5 -0.0105,3.86508 -0.64896,6.08464 -2.7781,9.65883 -2.43367,4.08541 -5.19013,12.53051 -5.74171,17.59117 -0.27324,2.50687 -1.18294,6.30075 -2.21798,9.25 -1.03401,2.94632 -1.75682,5.95977 -1.7598,7.33669 -0.003,1.28518 -0.67534,5.11018 -1.49461,8.5 -1.44494,5.9787 -1.95777,9.42137 -3.04083,20.41331 -0.28451,2.8875 -0.63168,5.58254 -0.77149,5.98898 -0.13981,0.40643 -0.36863,5.46893 -0.50849,11.25 -0.20162,8.33347 -0.45258,11.18432 -1.2114,13.76102 -3.09382,10.50557 -3.61636,13.06916 -3.31714,16.27353 0.43278,4.63451 -0.84618,13.98592 -2.39035,17.47755 -1.09272,2.47084 -1.27073,3.59471 -1.27073,8.02283 0,4.06018 -0.32948,6.50405 -1.55757,11.55305 -1.38128,5.67883 -1.51497,6.8574 -1.18119,10.41331 0.60549,6.45055 0.27044,25.00724 -0.5328,29.50973 -0.39249,2.2 -0.80942,6.5875 -0.92651,9.75 -0.14601,3.94349 -0.52813,6.69253 -1.21624,8.75 -0.55185,1.65 -1.48142,6.15 -2.06573,10 -1.48117,9.75953 -2.52762,15.05047 -3.60026,18.20328 -0.5732,1.6848 -0.9197,4.1263 -0.9197,6.48034 0,3.49141 -0.18827,4.17559 -2.48946,9.04672 -3.53371,7.48011 -6.96253,19.2333 -7.48904,25.67066 -0.42395,5.18324 -1.28245,8.05546 -3.69113,12.349 -0.69423,1.2375 -1.62281,4.18736 -2.06349,6.55524 -0.44068,2.36788 -1.35264,6.08038 -2.02656,8.25 -1.44223,4.64311 -1.61894,7.94248 -0.44942,8.39127 2.66951,1.02439 5.29553,-0.48705 8.39656,-4.83276 1.26238,-1.76907 3.33894,-4.02963 4.61457,-5.02346 1.27562,-0.99384 3.28863,-3.1391 4.47336,-4.76725 1.18472,-1.62816 3.57617,-4.03341 5.31432,-5.345 1.73816,-1.31159 3.94779,-3.10077 4.91029,-3.97594 2.7024,-2.45723 8.38145,-6.23132 12.25,-8.14093 1.925,-0.95022 5.01893,-2.8479 6.87541,-4.21706 3.85584,-2.84369 3.24266,-2.71907 16.87459,-3.4296 5.3625,-0.2795 10.90928,-0.6311 12.32619,-0.78131 2.71337,-0.28767 9.36119,0.91109 11.74488,2.11788 0.72658,0.36785 2.05828,1.63184 2.95933,2.80887 0.90105,1.17703 2.71517,3.26505 4.03139,4.64005 2.72916,2.85104 3.93821,5.35697 3.93821,8.16248 0,1.06953 0.83166,4.62051 1.84814,7.89106 1.42162,4.57409 1.852,6.81192 1.86482,9.69646 0.0191,4.30818 -1.43723,17.58803 -2.49496,22.75 -0.39445,1.925 -0.71755,4.9625 -0.71801,6.75 -0.002,6.91055 -0.98737,14.18579 -2.59502,19.15513 -1.58688,4.90513 -1.58688,4.90513 -0.75888,11.25 1.1072,8.48436 2.0184,11.37701 4.30368,13.66229 2.01667,2.01667 6.72347,3.74849 8.78294,3.2316 4.32302,-1.08501 9.69986,-3.66357 11.86777,-5.69139 3.49015,-3.26462 8.26184,-10.70504 9.36235,-14.59857 0.50666,-1.79248 1.55953,-5.39656 2.33973,-8.00906 1.31355,-4.39844 1.43152,-5.49275 1.59382,-14.78556 0.16291,-9.32815 0.0982,-10.24452 -0.91771,-13 -3.41935,-9.2741 -2.76849,-12.41084 3.19885,-15.41647 3.51248,-1.76917 8.47816,-2.22895 14.2101,-1.31574 6.01625,0.9585 8.09494,2.08613 12.58003,6.82432 5.26145,5.55836 6.28274,8.02485 6.2125,15.00364 -0.0636,6.31945 -1.10512,11.06201 -4.26095,19.40244 -1.36047,3.59556 -3.03677,8.53985 -3.72509,10.98732 -0.69584,2.47424 -2.13035,5.90713 -3.23097,7.73199 -1.88279,3.1217 -2.44777,4.61981 -4.20164,11.14115 -0.41758,1.55269 -1.58402,4.02769 -2.59208,5.5 -1.00806,1.4723 -2.63982,4.12854 -3.62613,5.90276 -1.08046,1.94357 -2.61386,3.8317 -3.85761,4.75 -12.81668,9.46295 -15.1822,10.9198 -19.45365,11.9806 -7.19128,1.7859 -26.01623,1.913 -31.23203,0.2108 -4.23228,-1.3812 -12.7639,-6.21435 -15.59247,-8.8331 -3.51692,-3.25605 -9.41625,-11.87815 -10.70299,-15.64286 -1.06737,-3.12289 -1.16444,-13.17044 -0.18539,-19.19129 0.31302,-1.925 0.75213,-6.9875 0.97579,-11.25 0.45852,-8.73823 1.59514,-17.21244 2.74629,-20.47516 0.58877,-1.66875 0.80135,-4.76622 0.89101,-12.98323 0.14562,-13.34526 0.29065,-12.96197 -6.04363,-15.97218 -4.28553,-2.03659 -4.5905,-2.10785 -6.66482,-1.55746 -3.76915,1.0001 -9.33592,4.45279 -13.56683,8.41458 -12.62201,11.81913 -31.72488,31.85115 -33.23208,34.84845 -0.6845,1.36125 -2.05126,3.46918 -3.03725,4.68428 -0.98598,1.2151 -2.75392,3.4651 -3.92875,5 -1.17482,1.5349 -2.59532,3.35616 -3.15664,4.04725 -2.33256,2.8718 -8.2697,21.02955 -9.23493,28.24347 -0.18397,1.375 -0.99838,4.59643 -1.80979,7.15872 -1.29387,4.08583 -1.43833,5.13113 -1.17471,8.49998 0.25542,3.2642 0.11476,4.40465 -0.93627,7.5913 -0.68027,2.0625 -1.62189,5.4375 -2.0925,7.5 -2.07167,9.0794 -2.91012,10.20155 -10.24558,13.71205 -3.99469,1.9117 -4.52171,2.03515 -8.50846,1.9924 -4.75307,-0.051 -6.90639,-0.7748 -9.76085,-3.28105 -3.6843,-3.23485 -4.7293,-7.36975 -4.73538,-18.7372 -0.004,-8.2345 -0.22605,-8.7273 -3.48618,-7.75055 -1.40826,0.42195 -2.7594,1.5079 -4.85913,3.9055 -1.59965,1.82655 -4.03346,4.06205 -5.40846,4.96775 -1.375,0.90565 -4.075,2.7713 -6,4.1458 -1.925,1.37455 -5.075,3.56685 -7,4.87185 -1.925,1.30495 -4.70188,3.34035 -6.17084,4.52305 -1.46896,1.1827 -2.89347,2.1504 -3.16558,2.1504 -0.93709,0 -14.17081,5.41915 -18.16358,7.4379 -4.60918,2.3304 -11.91695,4.5621 -14.93873,4.5621 -1.14228,0 -2.86086,-0.4192 -3.81907,-0.93155 z"
     id="path484"
     inkscape:connector-curvature="0" />
</svg>
