<?xml version="1.0" encoding="UTF-8" standalone="no"?>
<!-- Created with Inkscape (http://www.inkscape.org/) -->

<svg
   xmlns:dc="http://purl.org/dc/elements/1.1/"
   xmlns:cc="http://creativecommons.org/ns#"
   xmlns:rdf="http://www.w3.org/1999/02/22-rdf-syntax-ns#"
   xmlns:svg="http://www.w3.org/2000/svg"
   xmlns="http://www.w3.org/2000/svg"
   xmlns:sodipodi="http://sodipodi.sourceforge.net/DTD/sodipodi-0.dtd"
   xmlns:inkscape="http://www.inkscape.org/namespaces/inkscape"
   version="1.1"
   id="svg556"
   width="1000"
   height="1000"
   viewBox="0 0 1000 1000"
   sodipodi:docname="Masomeh_bdc_k.svg"
   inkscape:version="0.92.2 5c3e80d, 2017-08-06">
  <metadata
     id="metadata562">
    <rdf:RDF>
      <cc:Work
         rdf:about="">
        <dc:format>image/svg+xml</dc:format>
        <dc:type
           rdf:resource="http://purl.org/dc/dcmitype/StillImage" />
        <dc:title></dc:title>
      </cc:Work>
    </rdf:RDF>
  </metadata>
  <defs
     id="defs560" />
  <sodipodi:namedview
     pagecolor="#ffffff"
     bordercolor="#666666"
     borderopacity="1"
     objecttolerance="10"
     gridtolerance="10"
     guidetolerance="10"
     inkscape:pageopacity="0"
     inkscape:pageshadow="2"
     inkscape:window-width="1152"
     inkscape:window-height="645"
     id="namedview558"
     showgrid="false"
     inkscape:zoom="0.29269531"
     inkscape:cx="444.17823"
     inkscape:cy="600"
     inkscape:window-x="0"
     inkscape:window-y="0"
     inkscape:window-maximized="0"
     inkscape:current-layer="svg556" />
  <path
     style="fill:#000000;stroke-width:0.5"
     d="m 444.98875,918.57686 c -1.10308,-0.2193 -4.79792,-0.6371 -8.21076,-0.9285 -4.88672,-0.41715 -6.74471,-0.7959 -8.74441,-1.78255 -4.34174,-2.1422 -15.09404,-10.5066 -17.10593,-13.307 -1.13628,-1.5816 -3.97787,-4.1518 -7.50268,-6.7861 -3.12053,-2.33215 -5.88265,-4.63075 -6.13804,-5.10795 -0.2554,-0.4772 -2.67084,-2.77155 -5.36765,-5.0986 -6.51217,-5.6192 -6.60132,-5.73255 -10.40897,-13.23095 -1.81537,-3.575 -4.07353,-7.84885 -5.01814,-9.49745 -0.94461,-1.64855 -1.95754,-4.12355 -2.25095,-5.5 -0.29341,-1.3764 -1.21723,-3.81973 -2.05293,-5.42961 -0.8357,-1.60989 -1.84774,-4.53489 -2.24898,-6.5 -0.40124,-1.96512 -1.16855,-4.92294 -1.70513,-6.57294 -1.74495,-5.36574 -3.48983,-14.11379 -3.48983,-17.49653 0,-1.81833 -0.36582,-4.91443 -0.81293,-6.88022 -0.55602,-2.44463 -0.71465,-4.60898 -0.50197,-6.8487 0.19691,-2.07369 0.0178,-5.10819 -0.4885,-8.27455 -0.7451,-4.66014 -0.73773,-5.64574 0.10844,-14.5 0.80093,-8.38076 1.05977,-22.05185 0.42946,-22.68216 -0.37438,-0.37438 -2.24666,1.52781 -3.87034,3.93216 -0.83569,1.2375 -2.79221,3.7125 -4.34783,5.5 -2.90221,3.33483 -10.47573,14.70976 -13.64905,20.5 -0.97963,1.7875 -2.11203,4.38453 -2.51643,5.77117 -1.04737,3.59126 -4.59574,10.47519 -7.17707,13.9237 -1.21238,1.61966 -3.3989,5.45797 -4.85893,8.52956 -1.46003,3.07159 -3.89408,7.4839 -5.409,9.80513 -1.51491,2.32124 -3.29002,5.31257 -3.9447,6.6474 -1.92465,3.92424 -6.21054,6.90438 -11.5302,8.0174 -3.54781,0.7423 -7.36669,2.54483 -14.45563,6.82311 -2.62607,1.58488 -6.22607,3.54044 -8,4.34568 -1.77393,0.80525 -4.53783,2.61375 -6.142,4.0189 -3.75506,3.2891 -5.4026,3.65405 -12.59666,2.79045 -3.01767,-0.3623 -6.61166,-0.88175 -7.98666,-1.15435 -1.375,-0.2726 -4.75,-0.7231 -7.5,-1.0011 -6.8289,-0.6903 -12.57231,-2.15805 -17.96479,-4.59095 -3.83027,-1.72806 -5.27354,-2.10543 -9.28521,-2.42779 -5.6661,-0.45529 -7.24087,-0.8566 -14.75021,-3.7589 -10.31176,-3.9854 -16.17332,-7.56328 -24.21354,-14.77985 -5.39102,-4.83877 -7.03625,-7.25792 -7.03625,-10.3461 0,-1.80182 4.00012,-16.24517 5.03433,-18.17761 0.25828,-0.48259 1.25118,-3.81313 2.20644,-7.40118 2.90639,-10.91668 4.3259,-12.767 11.78424,-15.36076 5.37072,-1.86775 7.76143,-1.93553 15.47499,-0.43871 6.45867,1.25331 9.70895,1.83003 19.77877,3.50948 8.1277,1.35555 15.29376,0.797 19.70112,-1.53559 10.80633,-5.71923 9.93891,-5.02919 12.84636,-10.21937 1.4603,-2.60685 4.01961,-7.32722 5.68734,-10.48972 1.66775,-3.1625 4.59203,-8 6.49843,-10.75 3.99532,-5.7633 8.05313,-13.24766 10.30126,-19 1.71835,-4.39675 4.52015,-9.42937 6.62771,-11.90472 0.74703,-0.87741 2.21899,-2.83278 3.27101,-4.34528 1.05202,-1.5125 2.53359,-3.25214 3.29239,-3.86586 0.75879,-0.61371 2.11446,-2.30121 3.01258,-3.75 0.89812,-1.44878 3.0338,-4.77164 4.74596,-7.38414 1.71214,-2.6125 4.16657,-6.48922 5.45428,-8.61494 1.51997,-2.50913 3.12914,-4.43072 4.58719,-5.47782 1.92515,-1.38254 2.66587,-2.49083 5.18654,-7.7603 2.4841,-5.19302 3.43837,-6.63253 6.14656,-9.27218 1.76325,-1.71861 4.29866,-4.69976 5.63422,-6.62476 1.33557,-1.925 3.70329,-4.7375 5.2616,-6.25 3.3661,-3.26717 4.91887,-5.6449 6.47696,-9.91811 0.91888,-2.52012 1.69404,-3.63233 3.79688,-5.44779 2.94874,-2.54576 2.81979,-2.31537 4.48382,-8.01093 1.75201,-5.99671 5.76307,-13.90706 8.95415,-17.65877 1.50374,-1.76792 3.55379,-4.17118 4.55566,-5.34057 1.8096,-2.11219 1.82281,-2.16098 2.00569,-7.40961 0.20368,-5.84633 0.96872,-9.35816 3.42811,-15.73652 2.93886,-7.62187 4.63453,-10.53195 7.9989,-13.7277 2.90631,-2.76065 3.202,-3.23935 3.70607,-6 1.61143,-8.82532 2.67953,-12.63572 4.79204,-17.09524 1.24761,-2.63376 2.27207,-5.03978 2.27657,-5.34671 0.005,-0.30693 1.01989,-2.89611 2.25643,-5.75373 1.31392,-3.03644 2.47635,-6.67279 2.7971,-8.75 0.30186,-1.95488 2.00261,-7.82932 3.77944,-13.05432 2.80324,-8.24329 3.28355,-10.1945 3.63082,-14.75 0.2201,-2.8875 0.85379,-6.825 1.40819,-8.75 0.55439,-1.925 1.2578,-5.42171 1.56313,-7.77046 0.30532,-2.34876 1.09651,-5.94876 1.75819,-8 3.05055,-9.45684 3.95531,-12.98418 4.18038,-16.29779 0.21072,-3.10224 0.0308,-4.17954 -1.37823,-8.24907 -1.3691,-3.95439 -1.58148,-5.16833 -1.36847,-7.822 0.26225,-3.26711 0.96597,-4.64593 4.48187,-8.78146 1.43061,-1.68274 1.63144,-2.27141 1.62054,-4.75 -0.007,-1.55607 -0.40059,-4.17024 -0.875,-5.80927 -0.5802,-2.00453 -0.86256,-4.75262 -0.86256,-8.39492 0,-6.56048 0.65465,-8.1586 4.79661,-11.70946 1.54972,-1.32857 3.97321,-3.43121 5.38553,-4.67255 4.99182,-4.3875 5.76434,-4.68285 12.79899,-4.8933 3.44788,-0.10316 7.50637,-0.20418 9.01887,-0.2245 4.39185,-0.059 17.09321,0.9867 18.91713,1.55745 3.24906,1.01672 6.02296,3.09871 9.23851,6.9341 5.53203,6.5984 7.08632,7.7823 17.34436,13.21115 2.69327,1.42536 10.17286,10.13161 12.57335,14.6354 1.22487,2.29808 1.64129,3.79109 1.81579,6.51015 0.22188,3.45735 -0.0163,4.80637 -1.62669,9.21126 -0.72356,1.97922 -0.72643,2.43327 -0.0306,4.82695 1.16088,3.99329 0.97762,5.13576 -1.67091,10.41665 -1.34147,2.67474 -2.69797,6.17935 -3.01446,7.78802 -0.35268,1.79261 -1.14496,3.67175 -2.04666,4.85425 -3.53088,4.63047 -4.27425,5.80908 -7.99711,12.6794 -2.16074,3.9875 -4.60992,8.1585 -5.44262,9.26889 -2.28982,3.05342 -3.5355,6.19482 -3.56136,8.98111 -0.0356,3.83108 -0.74553,6.14102 -3.22231,10.48402 -2.28691,4.0101 -2.48083,4.64056 -3.04083,9.88634 -0.22578,2.11494 -0.74979,3.51489 -1.9911,5.31944 -0.92657,1.347 -2.0257,3.26528 -2.44251,4.26283 -0.93083,2.22779 -3.7995,13.82943 -3.8087,15.40336 -0.004,0.62921 -0.67569,3.05651 -1.49333,5.39401 -1.25183,3.57876 -1.48768,5.01718 -1.49331,9.10741 -0.006,4.29456 0.10537,4.91738 0.96044,5.375 1.52688,0.81716 3.3321,0.61477 6.53287,-0.73241 1.63342,-0.6875 3.38851,-1.25 3.90019,-1.25 0.51168,0 2.03721,-0.57222 3.39007,-1.27161 1.35285,-0.69937 3.80974,-1.8454 5.45974,-2.54671 3.50772,-1.4909 10.23681,-5.66079 12.76553,-7.91053 0.97105,-0.86391 4.32625,-3.13459 7.45601,-5.04596 3.4151,-2.08561 7.4159,-5.08848 10.00564,-7.50989 2.85931,-2.67346 5.72758,-4.7821 8.50155,-6.25 2.30249,-1.21841 5.33046,-3.25207 6.72881,-4.51922 1.39836,-1.26715 5.67833,-4.40225 9.51106,-6.96688 3.83273,-2.56463 8.35156,-6.03913 10.04183,-7.72111 1.69028,-1.68198 4.74191,-4.1524 6.78141,-5.48983 2.03949,-1.33743 4.83316,-3.37467 6.20816,-4.52721 1.375,-1.15253 3.66201,-2.85951 5.08223,-3.79328 10.45892,-6.87655 17.57681,-13.41052 18.87861,-17.32989 1.44356,-4.34615 4.90034,-6.61788 10.0701,-6.61788 0.67744,0 2.8556,-0.45 4.84034,-1 7.95088,-2.20331 12.67782,-0.63428 16.22753,5.38641 1.52841,2.59236 2.07171,2.89764 5.90119,3.3159 4.54012,0.49588 9.79442,1.79643 11.7377,2.90534 3.1396,1.79159 4.41715,4.48761 4.47425,9.442 0.0315,2.74155 0.32415,3.84095 1.72945,6.5 0.94585,1.78961 1.8551,4.40813 2.06275,5.94026 0.2042,1.50696 0.6943,3.64446 1.0891,4.75 1.4618,4.09349 1.5739,6.09113 0.6118,10.90121 -0.507,2.53489 -0.9293,5.1339 -0.93845,5.77558 -0.009,0.6417 -0.67415,2.80888 -1.47785,4.81597 -1.21045,3.02302 -1.45235,4.32435 -1.40965,7.58329 0.0613,4.67802 -1.16185,7.74272 -4.36715,10.94245 -2.3164,2.31233 -11.16611,6.80697 -22.11782,11.23331 -5.40919,2.18623 -8.5729,3.86169 -13.25,7.01703 -3.37927,2.27979 -7.18301,5.10403 -8.45274,6.27609 -1.26973,1.17206 -3.51973,2.73943 -5,3.48303 -1.48027,0.74359 -4.15389,2.41615 -5.94139,3.71678 -1.7875,1.30064 -4.6,3.27258 -6.25,4.38211 -1.65,1.10951 -4.48756,3.67465 -6.30571,5.70028 -2.02075,2.25137 -4.71785,4.55755 -6.93867,5.93296 -1.99813,1.2375 -5.24762,3.7125 -7.22109,5.5 -2.6614,2.4106 -4.41336,3.54433 -6.78327,4.38959 -3.69081,1.31639 -6.50126,3.27657 -6.50126,4.53438 0,1.43162 3.48276,4.34283 7.75,6.47816 2.2,1.10088 4.9,2.62803 6,3.39365 5.75478,4.00543 6.97032,4.69731 9.59125,5.45923 1.56748,0.45568 3.7632,1.45272 4.87936,2.21564 2.9386,2.0086 9.59179,5.28561 12.77939,6.29447 4.0476,1.28104 5.09364,1.91061 9.36879,5.63871 3.42801,2.98936 10.3316,7.83842 15.70134,11.02857 1.00108,0.59473 2.87747,2.31896 4.16977,3.83161 1.81226,2.12128 3.2828,3.19928 6.42987,4.7135 5.16293,2.48417 10.49423,7.20318 12.14657,10.75156 0.64564,1.38651 1.17735,2.85843 1.18157,3.27093 0.0241,2.35496 1.33612,4.82429 4.31944,8.12954 4.148,4.59555 4.68265,5.84269 4.68265,10.92265 0,3.08647 0.5584,6.48019 2.28555,13.89106 2.26415,9.71501 2.31265,9.8465 5.1845,14.05675 1.59445,2.3375 3.46865,5.375 4.16495,6.75 1.86365,3.68019 3.1925,4.6977 6.9137,5.29386 1.76075,0.28207 5.1138,1.18704 7.4513,2.01104 2.3375,0.824 6.81365,2.2857 9.947,3.24822 3.1334,0.96252 6.5084,2.15763 7.5,2.6558 0.99165,0.49816 2.703,1.18932 3.803,1.53589 1.1,0.34658 3.8,1.58938 6,2.76178 2.2,1.1724 4.83595,2.39666 5.8577,2.72059 1.02175,0.32392 2.96105,1.58094 4.30955,2.79338 2.6566,2.38852 4.36255,3.22944 6.5515,3.22944 0.77195,0 3.0636,0.53759 5.09245,1.19464 2.02885,0.65706 4.92175,1.36028 6.4287,1.56273 4.10225,0.55109 6.3356,1.50214 8.9236,3.79996 1.2851,1.14098 3.124,2.40566 4.0865,2.81038 0.9625,0.40473 2.7531,1.18953 3.9791,1.744 4.45705,2.01574 6.52785,-0.18331 7.0369,-7.47287 0.23925,-3.42613 0.83735,-6.43053 1.9991,-10.04165 2.2769,-7.07717 3.74435,-8.68673 10.7223,-11.76033 7.66445,-3.37599 10.3665,-3.25411 15.3598,0.69287 1.4305,1.13073 3.8583,2.69061 5.39515,3.46641 3.21045,1.62062 6.10385,4.55695 8.3796,8.50386 0.87205,1.5125 2.82935,4.16682 4.3495,5.8985 1.5202,1.73168 3.3687,4.20668 4.1079,5.5 1.24695,2.18186 3.0859,4.23061 11.68365,13.01693 3.70575,3.78696 4.487,5.66019 4.487,10.7583 0,1.81924 0.26705,4.86515 0.5935,6.7687 0.54375,3.17083 0.4943,3.81085 -0.5895,7.63428 -0.8578,3.02617 -1.28005,6.16611 -1.53615,11.42329 -0.3305,6.78396 -0.596,8.33589 -3.06805,17.93324 -0.6977,2.70861 -2.5519,4.97072 -4.87645,5.94918 -0.97535,0.41054 -4.0442,0.91285 -6.8197,1.11623 -3.67205,0.26908 -5.97035,0.73945 -8.4393,1.72719 -2.91385,1.16573 -3.8099,1.30903 -6.3451,1.01478 -1.75015,-0.20312 -4.2178,-0.0971 -6.0607,0.26048 -2.19385,0.42564 -4.11745,0.46367 -6.5372,0.12924 -2.216,-0.30625 -5.10705,-0.29513 -8.1739,0.0314 -4.25665,0.45329 -5.2788,0.38687 -9.92875,-0.64525 -3.68635,-0.81823 -5.87465,-1.05347 -7.57615,-0.8144 -6.98775,0.98179 -6.7569,1.00172 -13.53795,-1.16867 -3.5793,-1.14562 -7.48585,-2.7064 -8.6812,-3.46841 -3.8589,-2.45993 -10.1555,-5.93364 -13.5247,-7.46132 -1.8062,-0.81896 -4.19275,-2.3978 -5.3035,-3.50853 -2.4092,-2.40923 -3.59015,-3.09521 -5.32845,-3.09521 -2.18585,0 -9.10835,-2.95475 -11.888,-5.07418 -1.4458,-1.10242 -3.8655,-2.56139 -5.37715,-3.24216 -1.5116,-0.68077 -3.7685,-1.89239 -5.01535,-2.69248 -1.24685,-0.80009 -3.8215,-1.81523 -5.72145,-2.25586 -4.4613,-1.03465 -5.7996,-1.63005 -9.8965,-4.40297 -1.8599,-1.25886 -4.5599,-2.80155 -6,-3.42822 -1.44005,-0.62665 -5.7683,-2.73791 -9.6183,-4.69168 -3.85,-1.95377 -8.22875,-3.95971 -9.7306,-4.45764 -2.0173,-0.66883 -3.64996,-1.77182 -6.25,-4.22233 -1.93567,-1.82435 -4.33187,-3.8145 -5.32489,-4.42256 -1.80345,-1.10431 -2.33527,-1.78065 -6.57367,-8.35992 -1.2401,-1.925 -3.38811,-4.81928 -4.77335,-6.43174 -1.38525,-1.61245 -3.24873,-4.31245 -4.14107,-6 -0.89233,-1.68754 -2.5543,-4.30576 -3.69326,-5.81826 -1.13896,-1.5125 -3.09563,-4.55 -4.34815,-6.75 -1.25252,-2.2 -3.79088,-6.63973 -5.64079,-9.86606 -4.08288,-7.12068 -5.04889,-9.57777 -6.05292,-15.39583 -0.42634,-2.47052 -1.29317,-6.23477 -1.92629,-8.36499 -0.63312,-2.13022 -1.43371,-5.11062 -1.77909,-6.62312 -0.73026,-3.19799 -2.33532,-6.18811 -4.34839,-8.10078 -1.45738,-1.38468 -9.47103,-4.89922 -11.17095,-4.89922 -0.52105,0 -2.09698,-0.24655 -3.50206,-0.54789 -2.14466,-0.45994 -3.18297,-1.13542 -6.4688,-4.20829 -4.31378,-4.0342 -5.59652,-4.82673 -10.06142,-6.21636 -1.66416,-0.51795 -4.75567,-2.0515 -6.87002,-3.40788 -2.11435,-1.35639 -5.45382,-3.39783 -7.42103,-4.53654 -1.96721,-1.1387 -4.75839,-3.079 -6.20262,-4.31177 -1.71649,-1.46517 -3.7678,-2.61772 -5.92325,-3.32807 -1.81356,-0.59766 -6.10988,-2.49271 -9.54738,-4.21122 -9.23026,-4.61448 -9.54854,-4.68535 -22.25,-4.95452 -7.40291,-0.15688 -12.06278,-0.4845 -14.25,-1.00188 -1.7875,-0.42283 -6.625,-1.43803 -10.75,-2.256 -4.125,-0.81797 -9.0226,-1.87637 -10.88355,-2.352 -4.69645,-1.20034 -4.72741,-1.15622 -5.89035,8.39412 -0.51491,4.22856 -1.28307,8.9258 -1.70701,10.4383 -0.42394,1.5125 -1.33568,5.83635 -2.02607,9.60855 -0.6904,3.77221 -1.51274,7.48471 -1.82743,8.25 -0.64727,1.57411 -1.12674,12.66772 -0.96846,22.4076 0.11773,7.24506 -0.31873,9.88328 -2.43242,14.70288 -1.72155,3.92544 -2.79685,12.05822 -2.02041,15.28097 0.75456,3.13199 0.59441,5.42232 -0.56195,8.03647 -1.28499,2.90494 -4.60618,16.35417 -5.66797,22.95256 -0.42041,2.61262 -0.77229,6.49638 -0.78195,8.63058 -0.01,2.13422 -0.33925,5.34289 -0.73243,7.13039 -0.82407,3.74642 -0.91351,10.63617 -0.27369,21.0812 0.39608,6.46591 0.62463,7.73472 1.93647,10.75 0.81806,1.88034 1.75898,4.7688 2.09092,6.4188 1.28127,6.36887 4.31526,10.47192 7.71392,10.432 0.84281,-0.01 2.76988,-0.77134 4.28238,-1.6921 5.40108,-3.288 19.80648,-13.10275 22.9679,-15.64858 5.18209,-4.17304 15.0071,-14.02074 16.97078,-17.00998 1.86626,-2.84093 5.79057,-7.87644 11.69056,-15.00083 9.52948,-11.50707 11.46403,-14.0313 14.81481,-19.33051 1.9997,-3.1625 5.0757,-7.6625 6.83557,-10 4.266,-5.66622 8.61162,-12.85367 9.57232,-15.83217 0.50509,-1.56593 0.76842,-4.16941 0.74737,-7.3891 -0.0294,-4.49086 0.13315,-5.40888 1.68164,-9.5 2.31294,-6.11074 3.72745,-8.78334 5.21905,-9.86091 1.67011,-1.20654 12.4498,-2.24019 15.30649,-1.46772 1.06893,0.28904 3.63101,1.5281 5.69351,2.75347 2.0625,1.22536 5.1,2.72541 6.75,3.33345 2.44039,0.8993 3.69951,1.83168 6.75,4.9984 2.3808,2.4715 5.02792,4.61038 7.25,5.85802 4.17899,2.34638 6.11955,4.68877 8.02966,9.69231 0.76936,2.01534 2.23663,4.78925 3.26059,6.16425 3.25752,4.37427 3.76913,8.75904 1.70975,14.65345 -1.07997,3.0911 -1.25,4.44174 -1.25,9.9293 0,7.2569 -0.44769,8.65845 -4.15196,12.9981 -1.18724,1.39089 -2.57701,3.62444 -3.08839,4.96345 -1.09666,2.87156 -5.38745,9.649 -8.6261,13.62519 -1.26186,1.54922 -2.72788,3.83236 -3.25782,5.07364 -0.52994,1.24128 -1.61106,3.63295 -2.40249,5.31482 -0.79142,1.68187 -1.67777,4.12359 -1.96966,5.42605 -0.29188,1.30245 -0.87006,3.02435 -1.28483,3.82643 -1.07118,2.07143 -6.82412,8.05123 -11.1376,11.57679 -2.01788,1.64928 -4.80053,4.5546 -6.18369,6.45626 -1.38315,1.90166 -4.00716,4.68697 -5.83114,6.18952 -1.82397,1.5026 -4.45616,3.68485 -5.84931,4.8495 -1.39314,1.1646 -3.6019,2.8547 -4.90835,3.7557 -1.74775,1.20535 -2.68448,2.33715 -3.54527,4.28355 -1.50175,3.39575 -5.3645,7.60085 -9.02805,9.82825 -1.58309,0.9625 -4.45488,3.17095 -6.38177,4.9076 -2.14724,1.9353 -5.20041,4.0099 -7.88723,5.3593 -3.25035,1.63245 -4.94389,2.858 -6.55007,4.74005 -1.19145,1.3961 -2.95377,3.01585 -3.91627,3.59945 -0.9625,0.58365 -3.2125,2.1246 -5,3.42435 -2.1568,1.5683 -4.49503,2.7322 -6.95137,3.46015 -2.98378,0.88425 -4.20259,1.57095 -6.28677,3.5421 -3.45508,3.2677 -5.97114,4.28355 -12.83877,5.18385 -3.17514,0.4162 -7.09152,1.1002 -8.70308,1.51995 -3.17208,0.82625 -4.39265,0.86785 -7.47561,0.25485 z"
     id="path566"
     inkscape:connector-curvature="0" />
</svg>
