<?xml version="1.0" encoding="UTF-8" standalone="no"?>
<!-- Created with Inkscape (http://www.inkscape.org/) -->

<svg
   xmlns:dc="http://purl.org/dc/elements/1.1/"
   xmlns:cc="http://creativecommons.org/ns#"
   xmlns:rdf="http://www.w3.org/1999/02/22-rdf-syntax-ns#"
   xmlns:svg="http://www.w3.org/2000/svg"
   xmlns="http://www.w3.org/2000/svg"
   xmlns:sodipodi="http://sodipodi.sourceforge.net/DTD/sodipodi-0.dtd"
   xmlns:inkscape="http://www.inkscape.org/namespaces/inkscape"
   version="1.1"
   id="svg77"
   width="1000"
   height="1000"
   viewBox="0 0 1000 1000"
   sodipodi:docname="Masomeh_maj_a.svg"
   inkscape:version="0.92.2 5c3e80d, 2017-08-06">
  <metadata
     id="metadata83">
    <rdf:RDF>
      <cc:Work
         rdf:about="">
        <dc:format>image/svg+xml</dc:format>
        <dc:type
           rdf:resource="http://purl.org/dc/dcmitype/StillImage" />
        <dc:title></dc:title>
      </cc:Work>
    </rdf:RDF>
  </metadata>
  <defs
     id="defs81" />
  <sodipodi:namedview
     pagecolor="#ffffff"
     bordercolor="#666666"
     borderopacity="1"
     objecttolerance="10"
     gridtolerance="10"
     guidetolerance="10"
     inkscape:pageopacity="0"
     inkscape:pageshadow="2"
     inkscape:window-width="1248"
     inkscape:window-height="692"
     id="namedview79"
     showgrid="false"
     inkscape:zoom="0.38083333"
     inkscape:cx="478.19037"
     inkscape:cy="600"
     inkscape:window-x="0"
     inkscape:window-y="0"
     inkscape:window-maximized="0"
     inkscape:current-layer="svg77" />
  <path
     style="fill:#000000;stroke-width:0.5"
     d="m 256.0427,812.30905 c -2.40145,-1.5246 -4.19245,-3.97595 -6.80371,-9.3123 -1.82779,-3.7353 -2.42496,-5.5207 -2.42489,-7.25 1.1e-4,-3.0413 1.21654,-9.2951 2.829,-14.54435 0.79228,-2.5792 1.44613,-6.21565 1.66319,-9.25 0.28046,-3.92055 0.70681,-5.8623 1.97485,-8.99415 1.22028,-3.01385 1.70955,-5.16135 1.99358,-8.75 0.22762,-2.87605 0.83376,-6.0005 1.53353,-7.90472 1.07796,-2.93337 1.11458,-3.3782 0.53504,-6.5 -0.71004,-3.82474 -0.41203,-5.05116 1.8639,-7.67059 2.22579,-2.56172 2.59348,-3.55579 2.87794,-7.78066 0.29178,-4.33356 1.26826,-9.62518 3.02636,-16.39988 1.34148,-5.16936 3.0792,-14.34392 3.71568,-19.61749 0.24012,-1.98961 1.1229,-5.61632 1.96171,-8.05934 0.83882,-2.44302 1.52513,-4.93986 1.52513,-5.54853 0,-0.60866 0.56525,-2.74434 1.25611,-4.74595 1.522,-4.40962 3.00377,-15.08292 2.83834,-20.44478 -0.11182,-3.62447 0.001,-4.12712 1.51737,-6.75 1.41506,-2.44793 1.6767,-3.44681 1.92102,-7.33391 0.21281,-3.38586 0.65847,-5.42846 1.80002,-8.25 0.83446,-2.0625 1.66991,-5.08222 1.85658,-6.71048 0.18666,-1.62826 0.80864,-3.99076 1.38216,-5.25 0.57353,-1.25924 1.57222,-3.60727 2.21933,-5.21785 0.64711,-1.61058 2.17722,-4.64808 3.40026,-6.75 1.66812,-2.86688 2.41492,-4.85275 2.98913,-7.94868 0.42099,-2.26985 1.5409,-5.86985 2.48867,-8 0.94779,-2.13014 1.87598,-4.99799 2.06266,-6.37299 0.18668,-1.375 1.42811,-4.8625 2.75873,-7.75 1.33062,-2.8875 2.96821,-6.4875 3.63907,-8 0.67086,-1.5125 2.04268,-3.72935 3.0485,-4.92633 1.00582,-1.19697 1.95429,-2.77197 2.10771,-3.5 0.35551,-1.68696 1.59162,-5.02463 4.19374,-11.32367 2.67193,-6.46804 4.18124,-9.34343 6.55416,-12.48634 1.0611,-1.40542 3.19255,-5.02094 4.73655,-8.03448 1.544,-3.01355 3.22101,-6.15418 3.72669,-6.97918 0.50567,-0.825 1.29392,-2.95253 1.75164,-4.72783 0.93036,-3.60844 1.70261,-5.27302 3.77089,-8.12821 0.77767,-1.07353 1.55754,-2.67009 1.73304,-3.54792 0.69104,-3.45627 1.40893,-4.9147 4.03164,-8.19047 1.7922,-2.23845 3.00081,-4.34803 3.52661,-6.15557 1.09657,-3.76963 2.77126,-8.48769 4.70312,-13.25 0.89244,-2.2 1.98569,-4.89535 2.42944,-5.98967 0.44375,-1.09432 2.11631,-3.45682 3.71679,-5.25 1.60049,-1.79318 4.90116,-6.29783 7.33482,-10.01033 2.43367,-3.7125 5.73669,-8.62281 7.34004,-10.91179 1.60334,-2.28899 4.4331,-6.65787 6.28835,-9.70862 1.85524,-3.05075 3.68956,-5.90294 4.07627,-6.33821 0.3867,-0.43526 2.31653,-3.71638 4.28852,-7.29138 1.97198,-3.575 4.87829,-8.1875 6.45846,-10.25 1.58015,-2.0625 4.11082,-5.6625 5.6237,-8 1.51288,-2.3375 3.75281,-5.4875 4.97763,-7 2.81407,-3.47503 6.88605,-8.84606 13.45696,-17.75 8.91279,-12.07731 11.62861,-15.22867 22.33518,-25.91704 2.30568,-2.30177 4.63105,-5.17358 5.33036,-6.58296 1.77814,-3.58368 3.95738,-5.40302 9.12766,-7.62025 2.50135,-1.07268 6.43885,-3.30852 8.75,-4.96853 2.31114,-1.66 4.76458,-3.3123 5.45208,-3.67178 0.6875,-0.35948 2.6,-1.94101 4.25,-3.51452 4.13219,-3.94061 10.88958,-7.71794 15.69777,-8.77494 2.09123,-0.45972 5.15223,-1.51194 6.80223,-2.33827 2.0199,-1.01157 4.81209,-1.80612 8.54663,-2.43203 3.05066,-0.51129 6.85463,-1.37963 8.45328,-1.92965 3.40642,-1.17198 6.83096,-1.2467 11.00009,-0.24003 1.65,0.39841 4.07823,0.7279 5.39608,0.73219 4.9339,0.0161 10.38218,1.49214 19.7393,5.34778 5.83529,2.40446 7.571,3.80475 10.11464,8.16007 1.437,2.46049 3.02363,4.28676 5.39299,6.20756 7.8983,6.403 10.02317,8.76304 11.80501,13.11154 0.91706,2.23802 2.83889,6.00865 4.27076,8.37916 3.354,5.55272 6.34332,12.03305 9.01903,19.5517 1.17439,3.3 2.41926,6.5625 2.76635,7.25 1.61992,3.20852 2.26545,6.72034 3.27318,17.80662 0.90254,9.9291 0.98822,12.4915 0.50808,15.19338 -0.39251,2.20874 -0.49563,7.93974 -0.32184,17.88775 0.16562,9.48084 0.0666,15.55805 -0.28093,17.25 -0.29514,1.43674 -0.58912,9.24975 -0.6533,17.36225 -0.0848,10.71728 -0.34396,16.24335 -0.94801,20.21204 -0.92169,6.05561 -1.06799,13.90654 -0.31958,17.14969 1.44848,6.27686 1.8416,18.73139 1.66146,52.63827 -0.10008,18.8375 -0.21842,36.6125 -0.26298,39.5 -0.12533,8.1214 0.99699,33.37476 1.86659,42 1.411,13.99533 1.68373,15.4347 4.06563,21.45705 1.90172,4.80827 2.33487,6.55539 2.7174,10.96073 0.25027,2.88239 0.80677,6.72379 1.23665,8.53646 0.42988,1.81267 0.99003,5.61055 1.24477,8.43975 0.25474,2.82919 0.90506,7.2167 1.44515,9.75 0.54009,2.5333 1.20531,6.40601 1.47827,8.60601 1.64962,13.29595 2.4051,16.80087 4.19033,19.44034 2.4185,3.57578 2.74003,4.2951 3.62445,8.10869 1.07946,4.6545 1.83297,5.89999 5.11742,8.4587 1.56921,1.22247 3.57619,3.29583 4.45997,4.60747 2.68805,3.98942 3.22139,7.01335 3.50711,19.8848 0.36874,16.6119 -0.42135,20.193 -5.02612,22.78105 -2.67551,1.5037 -5.9988,1.4264 -9.60252,-0.22345 -1.57111,-0.7193 -4.31926,-1.54145 -6.10698,-1.82705 -1.78773,-0.28555 -4.5167,-1.0364 -6.06439,-1.66845 -1.54768,-0.6321 -3.93264,-1.56105 -5.29989,-2.0644 -3.2201,-1.1854 -6.87565,-4.631 -8.21411,-7.74235 -0.58166,-1.3521 -1.52121,-4.4377 -2.08787,-6.8569 -0.56666,-2.41915 -1.44405,-5.63595 -1.94974,-7.14845 -1.10957,-3.31865 -3.28897,-12.51974 -4.02668,-17 -0.29432,-1.7875 -0.99299,-4.9375 -1.55259,-7 -0.55961,-2.0625 -1.20917,-6.225 -1.44347,-9.25 -0.2343,-3.025 -0.78569,-6.625 -1.22532,-8 -0.43962,-1.375 -1.00933,-5.2 -1.266,-8.5 -0.25668,-3.3 -0.7975,-7.125 -1.20182,-8.5 -0.40433,-1.375 -1.07218,-4.30593 -1.48412,-6.51317 -0.41194,-2.20725 -1.77487,-8.25066 -3.02874,-13.4298 -1.3568,-5.60435 -2.49845,-11.7667 -2.81995,-15.22148 -0.2971,-3.19267 -0.63869,-5.96422 -0.75908,-6.15901 -0.12038,-0.19479 -0.55732,-4.68208 -0.97096,-9.97175 -0.57822,-7.39419 -1.05652,-10.61019 -2.06894,-13.91119 -0.72428,-2.36148 -1.53518,-4.57485 -1.802,-4.9186 -0.80599,-1.03836 -2.6017,-0.72192 -7.80269,1.375 -4.9606,2 -4.9606,2 -13.44205,2 -11.72219,0 -12.98479,0.29306 -16.85321,3.91177 -2.61109,2.44255 -3.71587,3.09633 -6.81548,4.03324 -2.0346,0.61499 -5.27426,1.88256 -7.19926,2.81683 -1.925,0.93427 -5.075,2.07125 -7,2.52662 -1.925,0.45537 -5.12842,1.61466 -7.1187,2.57621 -5.902,2.85137 -12.47301,4.1837 -22.8813,4.6394 -8.3723,0.36657 -9.36616,0.51504 -14.25,2.12889 -6.24298,2.06297 -16.93154,4.17457 -23.40459,4.62375 -2.77497,0.19256 -6.04407,0.79559 -8.09541,1.49329 -1.99922,0.67998 -5.39095,1.31504 -8.09541,1.51577 -3.0713,0.22796 -5.71346,0.76177 -7.76748,1.56932 -4.41247,1.73479 -5.95419,1.88304 -12.54448,1.20628 -5.1173,-0.5255 -6.80475,-0.48305 -13.59263,0.34194 -6.46099,0.78526 -9.37165,0.88029 -17.5,0.57134 -10.11835,-0.38459 -20.82065,-1.18493 -26.59577,-1.98888 -7.74368,-1.078 -10.13382,-0.4471 -14.05372,3.70959 -4.02092,4.26382 -4.34582,5.00807 -4.21288,9.6504 0.10264,3.58421 -0.0236,4.16407 -1.45641,6.69205 -2.08322,3.67544 -3.12956,6.88118 -3.69078,11.30764 -0.2684,2.11689 -1.00051,4.71438 -1.74019,6.17406 -0.70227,1.38588 -1.72508,4.69816 -2.27291,7.36062 -0.54782,2.66247 -1.58244,6.08938 -2.29915,7.61536 -1.86557,3.97207 -4.0678,10.08031 -5.47593,15.18837 -0.66923,2.42763 -1.54999,5.05825 -1.95727,5.84583 -0.99225,1.9188 -2.19094,10.07158 -2.82888,19.24031 -0.57418,8.25245 -1.85929,13.77145 -4.7319,20.32165 -0.97103,2.2142 -2.21871,6.5256 -2.96624,10.25 -1.40692,7.0097 -5.35704,19.6466 -6.79614,21.7417 -1.41164,2.0551 -3.72307,2.8325 -10.18321,3.42485 -12.65294,1.16015 -14.8443,1.17585 -16.50993,0.11845 z M 375.06401,632.19522 c 3.85,-0.56858 8.4625,-1.26409 10.25,-1.54557 1.7875,-0.2815 6.33068,-0.70092 10.09597,-0.93208 3.76528,-0.23115 7.04432,-0.54286 7.28676,-0.69269 0.24243,-0.14983 2.44924,-0.51843 4.90403,-0.81909 7.54882,-0.9246 18.19544,-2.95207 23.85979,-4.5437 5.26245,-1.4787 5.62899,-1.51263 14.75,-1.36553 9.35345,0.15084 9.35345,0.15084 16.85345,-2.42026 4.125,-1.41411 10.00443,-3.70792 13.0654,-5.09737 3.27253,-1.48549 6.67141,-2.66075 8.25,-2.85267 3.24038,-0.39397 13.67041,-3.28599 19.1846,-5.31948 2.2,-0.8113 6.025,-1.89574 8.5,-2.40986 9.52897,-1.97942 13.77135,-3.71092 17.75,-7.24452 4.13993,-3.67684 5.91824,-4.34446 12.75378,-4.78805 7.12933,-0.46265 10.79859,-1.58809 11.32894,-3.47481 0.19126,-0.68043 0.73414,-3.48714 1.20639,-6.23714 0.47226,-2.75 1.51062,-7.25 2.30748,-10 1.44229,-4.97743 1.44638,-5.03047 0.90713,-11.75 -0.70434,-8.77679 -1.39472,-14.06932 -2.29868,-17.62177 -0.55601,-2.18509 -0.65365,-4.45668 -0.40831,-9.5 0.23611,-4.8533 0.0839,-8.83745 -0.56851,-14.87823 -1.06169,-9.83101 -1.1621,-24.82715 -0.19585,-29.25 0.60586,-2.77328 0.76861,-7.42698 1.11907,-32 0.0628,-4.4 0.43832,-11.0375 0.83461,-14.75 0.45895,-4.29957 0.72614,-12.28618 0.736,-22 0.0137,-13.46713 -0.11411,-16.02531 -1.09312,-21.88169 -1.78526,-10.67928 -3.55292,-15.94204 -6.91723,-20.59431 -0.68649,-0.9493 -1.49601,-2.71029 -1.79893,-3.91331 -0.38697,-1.5368 -1.35909,-3.03097 -3.26866,-5.02401 -2.52724,-2.6377 -5.55502,-6.88921 -8.70716,-12.22628 -1.01288,-1.71496 -2.38451,-2.88784 -6,-5.13058 -2.57783,-1.59907 -5.69945,-3.28894 -6.93695,-3.75528 -5.00547,-1.88627 -16.86284,-1.59276 -22.5,0.55694 -1.5125,0.57679 -4.325,1.90417 -6.25,2.94974 -1.925,1.04557 -4.4,2.1836 -5.5,2.52897 -3.59667,1.12923 -8.82547,4.02117 -11.18596,6.1867 -1.27272,1.16761 -3.72029,3.18911 -5.43904,4.49224 -1.71875,1.30312 -3.125,2.54649 -3.125,2.76303 0,0.21655 -2.78049,2.77593 -6.17888,5.68752 -5.23142,4.48206 -6.73939,6.12309 -9.8343,10.70206 -2.01049,2.97454 -4.48661,6.32598 -5.5025,7.44764 -1.01589,1.12166 -2.2371,3.21363 -2.71379,4.64881 -0.65667,1.97704 -1.68896,3.42679 -4.25956,5.98215 -1.86607,1.85499 -4.86036,5.64141 -6.65398,8.41427 -1.79363,2.77285 -3.70891,5.35518 -4.25619,5.73851 -0.54728,0.38333 -1.919,2.08799 -3.04827,3.78813 -1.12926,1.70015 -3.05881,3.78305 -4.28788,4.62867 -2.69677,1.85542 -4.22467,3.85267 -5.74524,7.51008 -2.55363,6.14219 -3.95559,8.27739 -7.87918,12 -3.68416,3.49544 -4.197,4.24799 -7.55485,11.08623 -1.98131,4.03493 -3.93457,8.27776 -4.34058,9.42852 -0.40601,1.15076 -1.48786,3.13696 -2.4041,4.41377 -0.91625,1.27681 -2.30069,3.44648 -3.07653,4.82148 -0.77584,1.375 -2.35708,3.625 -3.51387,5 -1.15678,1.375 -2.50036,3.2875 -2.98572,4.25 -0.48537,0.9625 -1.74871,2.88639 -2.80743,4.27531 -1.25993,1.65289 -2.12212,3.46663 -2.49568,5.25 -0.51141,2.44142 -0.95099,3.08856 -4.22817,6.22469 -3.77565,3.61313 -5.21641,5.87981 -6.19916,9.75281 -0.65565,2.58391 -2.82185,9.75575 -3.88394,12.85891 -0.45974,1.34322 -1.44522,2.68392 -2.70797,3.68404 -1.09187,0.86477 -2.54638,2.67973 -3.23226,4.03323 -0.68587,1.35351 -1.99728,3.4438 -2.91425,4.64509 -0.91697,1.20129 -1.82792,3.04078 -2.02433,4.08776 -0.43029,2.29362 -1.43405,4.33429 -3.30105,6.71106 -0.76595,0.9751 -1.9663,3.0001 -2.66744,4.5 -0.70113,1.4999 -1.86761,3.79605 -2.59217,5.10254 -0.72455,1.3065 -1.19693,2.68933 -1.04971,3.07297 0.14722,0.38365 1.39598,1.0723 2.77504,1.53035 3.2117,1.06676 4.82089,2.35227 6.1882,4.9435 1.19179,2.25861 1.28123,4.18416 0.81933,17.63982 -0.22525,6.56209 -0.22525,6.56209 -2.34045,9.71213 -1.16336,1.73252 -2.37261,4.00917 -2.68721,5.05922 -0.3146,1.05005 -1.57202,3.08074 -2.79427,4.51264 -2.52258,2.95527 -2.99508,3.97832 -3.72157,8.05791 -0.3395,1.90644 -1.1304,3.79549 -2.30241,5.49929 -1.78525,2.59531 -1.78525,2.59531 -1.85116,8.98474 -0.0524,5.07565 0.0855,6.51512 0.67032,7.00071 0.48543,0.40304 3.90385,0.7272 10.0347,0.95156 5.35161,0.19585 10.57185,0.65558 12.29846,1.0831 4.12817,1.02215 5.4784,1.00409 13.5,-0.18056 z"
     id="path87"
     inkscape:connector-curvature="0" />
</svg>
