<?xml version="1.0" encoding="UTF-8" standalone="no"?>
<!-- Created with Inkscape (http://www.inkscape.org/) -->

<svg
   xmlns:dc="http://purl.org/dc/elements/1.1/"
   xmlns:cc="http://creativecommons.org/ns#"
   xmlns:rdf="http://www.w3.org/1999/02/22-rdf-syntax-ns#"
   xmlns:svg="http://www.w3.org/2000/svg"
   xmlns="http://www.w3.org/2000/svg"
   xmlns:sodipodi="http://sodipodi.sourceforge.net/DTD/sodipodi-0.dtd"
   xmlns:inkscape="http://www.inkscape.org/namespaces/inkscape"
   version="1.1"
   id="svg64"
   width="1000"
   height="1000"
   viewBox="0 0 1000 1000"
   sodipodi:docname="Masomeh_bdc_a.svg"
   inkscape:version="0.92.2 5c3e80d, 2017-08-06">
  <metadata
     id="metadata70">
    <rdf:RDF>
      <cc:Work
         rdf:about="">
        <dc:format>image/svg+xml</dc:format>
        <dc:type
           rdf:resource="http://purl.org/dc/dcmitype/StillImage" />
        <dc:title></dc:title>
      </cc:Work>
    </rdf:RDF>
  </metadata>
  <defs
     id="defs68" />
  <sodipodi:namedview
     pagecolor="#ffffff"
     bordercolor="#666666"
     borderopacity="1"
     objecttolerance="10"
     gridtolerance="10"
     guidetolerance="10"
     inkscape:pageopacity="0"
     inkscape:pageshadow="2"
     inkscape:window-width="1281"
     inkscape:window-height="700"
     id="namedview66"
     showgrid="false"
     inkscape:zoom="0.41170923"
     inkscape:cx="544.96774"
     inkscape:cy="600"
     inkscape:window-x="0"
     inkscape:window-y="0"
     inkscape:window-maximized="0"
     inkscape:current-layer="svg64" />
  <path
     style="fill:#000000;stroke-width:0.5"
     d="m 388.87608,705.99911 c -2.37469,-1.25527 -3.68085,-3.07533 -7.42811,-10.3507 -1.72588,-3.35081 -4.19913,-7.40929 -5.49609,-9.01882 -4.44925,-5.52145 -7.46627,-10.2019 -9.05225,-14.04318 -0.87327,-2.11508 -2.67899,-5.64559 -4.01271,-7.84559 -1.33373,-2.2 -2.69382,-5.125 -3.02244,-6.5 -0.32863,-1.375 -0.79706,-3.34375 -1.04098,-4.375 -0.65927,-2.78731 -1.95215,-2.48783 -4.31709,1 -1.07218,1.58125 -2.56176,4.08565 -3.31017,5.56534 -0.74842,1.47969 -2.41081,3.73324 -3.69422,5.00788 -3.151,3.12949 -9.28017,8.35427 -10.67782,9.10228 -0.62401,0.33396 -2.26207,1.49844 -3.64013,2.58774 -1.37806,1.08929 -3.70123,2.50932 -5.16259,3.15559 -1.46136,0.64629 -3.8261,2.16142 -5.25497,3.36696 -1.42888,1.20554 -4.21802,3.12843 -6.19811,4.2731 -1.98008,1.14466 -3.75287,2.3283 -3.93952,2.63031 -0.95044,1.53785 -4.57013,2.34826 -11.96032,2.67779 -4.125,0.18394 -8.9625,0.70332 -10.75,1.15418 -3.84874,0.97076 -11.45973,1.06177 -14.10001,0.16861 -2.27931,-0.77106 -4.67147,-3.41098 -5.36993,-5.92611 -0.69755,-2.51187 -0.68112,-22.31401 0.0207,-24.88867 0.56434,-2.07044 1.96668,-3.92964 3.69929,-4.90444 0.55,-0.30944 4.0375,-0.7281 7.75,-0.93036 17.92938,-0.97679 17.49664,-0.8926 21.91193,-4.26287 1.28394,-0.98006 3.50539,-2.33635 4.93654,-3.01396 1.83227,-0.86754 3.21349,-2.04181 4.66863,-3.96914 1.27952,-1.6947 4.22327,-4.33294 7.72964,-6.92743 7.57088,-5.60196 9.67696,-8.52407 9.73131,-13.50185 0.012,-1.10553 0.44655,-3.58052 0.9655,-5.5 0.51896,-1.91947 1.10024,-4.37948 1.29175,-5.4667 0.43601,-2.47532 1.60693,-4.78439 4.59035,-9.05221 2.72969,-3.90486 5.36937,-5.75675 9.98748,-7.00681 3.98001,-1.07734 5.09233,-2.33176 4.23876,-4.78028 -1.25687,-3.60548 -0.81009,-5.1718 4.44222,-15.57344 5.93371,-11.75107 7.74087,-14.7061 11.22843,-18.36051 1.44345,-1.5125 3.36542,-3.98588 4.27104,-5.4964 0.90562,-1.51053 2.9236,-4.21053 4.4844,-6 4.16947,-4.78035 5.73236,-6.934 7.25956,-10.0036 0.75251,-1.5125 2.22726,-3.78254 3.27725,-5.04454 1.04998,-1.262 2.95756,-4.02157 4.23906,-6.13238 1.44314,-2.37705 3.40287,-4.73903 5.14867,-6.20546 7.76583,-6.52315 13.11847,-12.65635 16.86095,-19.31975 0.83241,-1.48208 3.54946,-4.68666 6.03791,-7.12128 2.48844,-2.43462 6.72712,-7.40385 9.41928,-11.04272 5.2019,-7.03118 7.20921,-8.78749 12.16082,-10.64012 1.50521,-0.56317 5.07356,-2.6484 7.92966,-4.63385 2.8561,-1.98544 6.14824,-4.12795 7.31588,-4.76112 2.3218,-1.25904 3.37646,-1.26633 10.69569,-0.0739 3.82583,0.62328 4.34108,0.59412 8.5,-0.4811 13.11929,-3.39178 13.97077,-3.521 23.42729,-3.55515 6.50768,-0.0235 9.55385,-0.23204 11,-0.75304 2.71289,-0.97735 5.26679,-0.91637 9.1961,0.21956 1.81714,0.52532 4.8789,1.10324 6.8039,1.28426 5.9307,0.55771 11.92206,2.17825 15.07687,4.07797 1.60239,0.96491 4.44747,2.56049 6.3224,3.54574 2.41168,1.26731 3.84535,2.42562 4.90062,3.9594 1.24996,1.81676 5.65347,5.80587 9.50826,8.61348 1.16888,0.85134 1.1035,0.89574 8.13798,-5.52639 6.14638,-5.61134 15.43128,-11.68177 18.65215,-12.1947 1.74129,-0.27731 2.67703,-0.0637 5.5,1.25578 10.20097,4.76786 12.35461,8.47414 12.38504,21.31389 0.0167,7.03456 0.0167,7.03456 -1.82438,10.02036 -2.56439,4.15891 -3.73614,7.36896 -4.66627,12.78343 -0.8772,5.10636 -2.69519,10.83595 -6.00066,18.91164 -1.18188,2.8875 -2.75401,7.5 -3.4936,10.25 -0.7396,2.75 -1.96376,6.2375 -2.72036,7.75 -0.96179,1.92272 -1.48061,3.92204 -1.72459,6.646 -0.57633,6.43438 -2.81436,12.62321 -5.79072,16.01309 -0.81461,0.9278 -2.16323,3.5369 -2.99693,5.79802 -1.77074,4.80252 -1.98087,8.98211 -0.7233,14.38687 0.59723,2.56678 0.70805,4.59467 0.44971,8.23008 -0.26391,3.71386 -0.16212,5.44556 0.44227,7.52461 1.1055,3.80276 3.31334,14.85401 3.32649,16.65052 0.0197,2.68794 1.72856,5.45886 5.26531,8.53749 5.1099,4.44803 6.17763,5.65078 7.71145,8.68661 1.7873,3.5375 2.34015,4.01154 7.6481,6.55783 3.40471,1.63329 5.13841,2.15697 7.75,2.34097 3.2511,0.22906 3.53516,0.15139 8.45244,-2.31087 2.79856,-1.40133 6.31474,-3.61963 7.81373,-4.92956 1.49899,-1.30991 4.49677,-3.34518 6.66172,-4.52281 2.16495,-1.17763 5.0699,-2.8037 6.45545,-3.61349 2.03985,-1.19218 3.81904,-1.66334 9.35059,-2.47623 7.71897,-1.13432 9.33794,-0.9845 11.37517,1.05273 2.27185,2.27185 2.65996,5.18242 2.39632,17.97086 -0.20278,9.83687 -0.35852,11.53166 -1.27365,13.86003 -1.56736,3.98782 -4.13813,6.7349 -9.77368,10.444 -2.80166,1.84393 -6.38687,4.30144 -7.96713,5.46111 -1.78603,1.31068 -3.82915,2.31352 -5.39961,2.65032 -3.09675,0.66414 -13.34061,0.70641 -18.74031,0.0774 -2.19279,-0.25546 -7.81188,-0.72286 -12.48688,-1.03867 -10.49959,-0.70928 -14.55866,-1.52428 -18.46253,-3.70698 -1.67061,-0.93407 -4.49,-2.07455 -6.2653,-2.53443 -4.56058,-1.18135 -5.90227,-1.95994 -9.02217,-5.2356 -2.5061,-2.63121 -2.98976,-2.91779 -5.45319,-3.23117 -3.82936,-0.48713 -5.13297,-1.3279 -7.27698,-4.69331 -1.32836,-2.08511 -2.79113,-3.55607 -4.95249,-4.98026 -3.76871,-2.4833 -4.52456,-3.3186 -7.56944,-8.36511 -3.95716,-6.55849 -4.36975,-7.57505 -4.6307,-11.40928 -0.368,-5.40731 -1.19369,-5.95098 -4.65102,-3.06246 -1.17064,0.97804 -3.65635,2.76666 -5.5238,3.97471 -1.86746,1.20805 -6.3872,5.08297 -10.04388,8.61094 -3.65667,3.52797 -8.14981,7.47578 -9.98474,8.7729 -2.13703,1.51067 -4.11969,3.48255 -5.51581,5.4858 -1.19876,1.72007 -3.26459,3.91489 -4.59073,4.87739 -1.32614,0.9625 -5.25652,4.19227 -8.73419,7.17726 -4.59251,3.94188 -7.55462,6.0445 -10.82303,7.68259 -2.475,1.24044 -5.90999,3.25596 -7.6333,4.47893 -1.72331,1.22297 -4.42331,2.78287 -6,3.46644 -1.57669,0.68357 -5.6792,2.67062 -9.1167,4.41566 -3.4375,1.74505 -8.1625,3.7527 -10.5,4.46145 -2.3375,0.70875 -5.375,2.04844 -6.75,2.97707 -3.10708,2.09846 -4.49329,2.53526 -12,3.78138 -3.3,0.5478 -7.80534,1.56642 -10.01186,2.26362 -5.78217,1.82698 -9.80869,2.27735 -20.23814,2.2636 -8.10041,-0.0107 -9.47277,-0.12995 -11.04248,-0.95971 z m 43.58308,-40.74115 c 6.46297,-1.57807 9.83028,-2.65903 11.48243,-3.68607 1.28575,-0.79926 3.81648,-1.9453 5.62386,-2.54676 3.09056,-1.02847 4.21501,-1.71269 8.54769,-5.20125 0.96789,-0.77933 3.32924,-1.94793 5.24744,-2.5969 6.54614,-2.21472 8.91672,-3.94253 10.95718,-7.98616 1.29059,-2.55762 3.19323,-4.31394 6.42032,-5.92657 1.56436,-0.78175 3.52027,-2.39893 5,-4.13409 1.33676,-1.56752 3.90869,-3.79892 5.71539,-4.95867 1.86634,-1.19803 5.10519,-4.09014 7.5,-6.69709 2.3183,-2.52365 6.7,-6.70815 9.7371,-9.29889 5.7557,-4.90979 6.92395,-6.19901 8.60868,-9.50003 1.21092,-2.37265 2.1533,-3.27696 6.49713,-6.23466 2.54649,-1.73389 3.75027,-2.99549 5.24794,-5.5 1.0689,-1.7875 2.73044,-4.02153 3.6923,-4.96451 0.96186,-0.94298 2.05907,-2.31446 2.43826,-3.04772 1.4217,-2.74926 2.74368,-9.17294 2.74368,-13.33192 0,-3.30628 0.31467,-5.10124 1.53931,-8.78083 1.23834,-3.72071 1.62305,-5.94482 1.96757,-11.37502 0.32337,-5.09662 0.81142,-8.09563 1.99251,-12.2436 3.99999,-14.04778 3.96681,-16.7436 -0.2554,-20.7564 -2.80298,-2.66397 -6.01229,-7.44615 -6.97305,-10.39052 -0.47389,-1.45229 -1.388,-3.2661 -2.03137,-4.03069 -2.42315,-2.87975 -19.4484,-10.57879 -23.39337,-10.57879 -0.97099,0 -3.17765,0.3618 -4.9037,0.80399 -2.68744,0.68849 -3.65797,0.71509 -6.75604,0.18514 -3.99493,-0.68335 -4.39855,-0.63291 -9.43646,1.1795 -1.925,0.69253 -6.2,1.6246 -9.5,2.07129 -9.95786,1.34787 -10.82597,1.67992 -15.01735,5.74408 -2.89937,2.81137 -4.65,4.01294 -8.39917,5.76494 -4.6078,2.15324 -4.7597,2.27829 -5.59621,4.60719 -1.57005,4.37106 -3.28398,7.60803 -4.55969,8.6115 -0.69332,0.54537 -2.48662,1.4503 -3.98512,2.01096 -1.4985,0.56066 -3.26395,1.37281 -3.92323,1.80479 -0.65928,0.43198 -3.28143,3.81779 -5.827,7.52403 -3.35908,4.89068 -5.7761,7.78068 -8.81378,10.53849 -2.73908,2.48673 -4.62906,4.68179 -5.46915,6.35198 -0.70602,1.40367 -3.22742,4.57712 -5.6031,7.05212 -6.55064,6.82451 -14.57876,16.69696 -15.8571,19.5 -1.64158,3.59953 -2.45948,8.72059 -5.44916,34.11847 -1.36474,11.59369 -1.67537,24.24062 -0.66763,27.18192 0.32027,0.93479 1.71206,3.38263 3.09287,5.43965 1.44178,2.14785 3.08751,5.46822 3.86582,7.79954 1.74567,5.22888 2.4638,6.5763 4.79475,8.99642 1.05283,1.09312 2.4909,2.68068 3.19569,3.52791 0.70479,0.84724 1.86144,1.92046 2.57034,2.38495 1.41508,0.92719 9.43836,2.65925 12.72115,2.74622 1.14012,0.0302 6.18807,-0.94987 11.21767,-2.17794 z"
     id="path74"
     inkscape:connector-curvature="0" />
</svg>
