<?xml version="1.0" encoding="UTF-8" standalone="no"?>
<!-- Created with Inkscape (http://www.inkscape.org/) -->

<svg
   xmlns:dc="http://purl.org/dc/elements/1.1/"
   xmlns:cc="http://creativecommons.org/ns#"
   xmlns:rdf="http://www.w3.org/1999/02/22-rdf-syntax-ns#"
   xmlns:svg="http://www.w3.org/2000/svg"
   xmlns="http://www.w3.org/2000/svg"
   xmlns:sodipodi="http://sodipodi.sourceforge.net/DTD/sodipodi-0.dtd"
   xmlns:inkscape="http://www.inkscape.org/namespaces/inkscape"
   version="1.1"
   id="svg557"
   width="1000"
   height="1000"
   viewBox="0 0 1000 1000"
   sodipodi:docname="Masomeh_bdc_g2.svg"
   inkscape:version="0.92.2 5c3e80d, 2017-08-06">
  <metadata
     id="metadata563">
    <rdf:RDF>
      <cc:Work
         rdf:about="">
        <dc:format>image/svg+xml</dc:format>
        <dc:type
           rdf:resource="http://purl.org/dc/dcmitype/StillImage" />
        <dc:title></dc:title>
      </cc:Work>
    </rdf:RDF>
  </metadata>
  <defs
     id="defs561" />
  <sodipodi:namedview
     pagecolor="#ffffff"
     bordercolor="#666666"
     borderopacity="1"
     objecttolerance="10"
     gridtolerance="10"
     guidetolerance="10"
     inkscape:pageopacity="0"
     inkscape:pageshadow="2"
     inkscape:window-width="1027"
     inkscape:window-height="480"
     id="namedview559"
     showgrid="false"
     inkscape:zoom="0.19666667"
     inkscape:cx="474.5"
     inkscape:cy="600"
     inkscape:window-x="0"
     inkscape:window-y="0"
     inkscape:window-maximized="0"
     inkscape:current-layer="svg557" />
  <path
     style="fill:#000000;stroke-width:0.5"
     d="m 403.28938,777.20761 c -0.88722,-0.541 -2.43216,-1.89015 -3.43317,-2.99815 -1.50734,-1.66845 -2.14095,-2.01455 -3.68791,-2.01455 -1.19049,0 -2.48399,0.44605 -3.56682,1.22995 -6.08496,4.4051 -8.76192,4.3692 -13.74428,-0.1844 -2.25036,-2.0567 -3.2086,-2.5554 -6.30419,-3.28095 -2.00776,-0.47055 -6.46297,-2.1663 -9.90047,-3.7683 -3.4375,-1.602 -9.9625,-4.64415 -14.5,-6.76035 -4.5375,-2.1162 -10.58281,-4.87075 -13.43401,-6.1212 -3.97566,-1.74365 -5.81369,-2.8884 -7.88547,-4.9111 -1.48581,-1.4506 -4.21551,-3.9391 -6.06599,-5.52995 -1.85049,-1.59085 -4.62116,-4.06125 -6.15704,-5.4898 -1.53588,-1.42855 -4.34838,-3.60815 -6.25,-4.8436 -4.50692,-2.92805 -5.41933,-3.94115 -9.98836,-11.0903 -2.10903,-3.3 -4.93612,-7.38505 -6.28242,-9.07785 -3.23814,-4.07165 -3.93525,-6.2126 -3.94316,-12.11001 -0.005,-3.38991 -0.30009,-5.7489 -1,-7.98168 -1.26334,-4.0302 -1.26045,-7.90248 0.009,-12.33205 1.39517,-4.86749 2.49376,-11.44741 2.49565,-14.94752 0.002,-3.21192 1.8999,-9.39593 5.77086,-18.80089 1.18845,-2.8875 2.77913,-7.26149 3.53484,-9.71998 1.68553,-5.48345 7.38186,-17.02744 12.28769,-24.90184 2.01202,-3.2295 4.89571,-7.94712 6.40821,-10.48359 1.6173,-2.71222 4.19163,-6.0653 6.25,-8.14065 3.6095,-3.63927 15.93271,-14.2161 21.36979,-18.34138 3.39474,-2.57568 16.68085,-8.85229 27.13021,-12.81682 8.01986,-3.04276 11.39426,-4.54299 14.19475,-6.31086 3.32309,-2.09777 5.8502,-2.83202 11.32477,-3.29041 3.51861,-0.29462 6.71784,-0.96932 10.6993,-2.25644 3.12388,-1.00988 7.72759,-2.35318 10.23048,-2.9851 2.50289,-0.63192 6.5757,-1.71446 9.0507,-2.40564 4.87102,-1.36031 18.54482,-4.00885 25.021,-4.84644 2.65872,-0.34386 10.36618,-0.38499 22.75,-0.1214 23.22541,0.49434 43.64206,0.37882 58.97196,-0.33367 6.45863,-0.30018 15.23363,-0.54909 19.5,-0.55315 10.28581,-0.01 10.16304,0.0571 10.57508,-5.75585 0.17491,-2.46773 0.80282,-6.82422 1.39534,-9.68109 0.91438,-4.40877 1.02701,-6.11013 0.74476,-11.25 -0.232,-4.22455 -0.14754,-6.66045 0.27932,-8.05569 0.83072,-2.71534 1.39802,-10.70879 2.00493,-28.25 0.28068,-8.1125 0.75991,-16.76548 1.06495,-19.22885 0.30503,-2.46336 0.52291,-6.46513 0.48416,-8.89281 -0.0387,-2.42768 0.17745,-5.33457 0.48043,-6.45976 0.93724,-3.48065 0.24642,-3.45986 -7.38703,0.22232 -3.78669,1.82661 -11.4974,4.89695 -17.1349,6.82298 -5.6375,1.92603 -13.175,4.51673 -16.75,5.7571 -3.575,1.24038 -10.6625,3.40374 -15.75,4.80748 -8.98692,2.47966 -9.52019,2.56517 -18.75,3.00635 -5.225,0.24975 -11.4125,0.6891 -13.75,0.97632 -10.18266,1.2512 -12.25791,1.45482 -18.18323,1.78403 -5.69176,0.31624 -6.58138,0.24516 -9.77214,-0.78081 -4.30054,-1.3828 -6.77851,-3.43616 -8.49638,-7.04046 -1.03947,-2.18093 -1.56571,-2.75479 -2.64005,-2.8789 -1.72678,-0.19948 -3.60655,0.8076 -6.38263,3.41943 -1.22344,1.15106 -2.69801,2.40313 -3.27681,2.78238 -0.57881,0.37925 -5.95595,2.27375 -11.94921,4.21001 -8.90117,2.87572 -11.87231,3.6158 -16.22319,4.04105 -2.9295,0.28632 -6.74657,0.84268 -8.48238,1.23636 -4.49725,1.01997 -10.03931,0.92247 -13.07231,-0.22999 -2.86568,-1.08887 -9.99997,-6.48869 -12.83717,-9.71623 -2.38886,-2.71753 -6.3161,-9.68559 -7.46221,-13.24014 -0.9619,-2.98322 -0.76538,-6.59728 0.49081,-9.02649 1.72967,-3.34482 10.23233,-10.19722 18.19276,-14.66178 2.60816,-1.46277 5.89007,-3.69808 7.29313,-4.96735 4.45692,-4.03193 6.13019,-4.94224 9.0845,-4.94224 2.287,0 2.79092,0.18563 3.73275,1.375 0.90459,1.14235 1.04445,1.81231 0.82659,3.95955 -0.32752,3.22814 0.28931,4.14103 3.15175,4.66446 4.88536,0.89335 9.54297,-0.63035 19.13042,-6.25836 4.70491,-2.76187 4.8309,-3.36994 1.59115,-7.67977 -3.49656,-4.65144 -4.29031,-7.44256 -4.78079,-16.81088 -0.50155,-9.57964 -0.35086,-10.76042 2.07751,-16.27901 1.0356,-2.35346 2.71033,-7.07259 3.72161,-10.48696 1.01128,-3.41437 2.6284,-7.90131 3.5936,-9.97098 0.96519,-2.06968 2.72062,-6.23805 3.90095,-9.26305 2.82005,-7.22735 8.54437,-19.15819 11.6928,-24.37058 1.38214,-2.2882 3.7345,-6.76004 5.22747,-9.93744 1.49297,-3.17739 3.49669,-6.99543 4.45271,-8.48453 2.67648,-4.16887 12.86895,-15.78674 22.20973,-25.31573 8.43826,-8.60828 8.43826,-8.60828 15.25962,-11.81994 3.75175,-1.76642 8.13925,-4.09438 9.75,-5.17326 9.5599,-6.40317 18.52201,-11.35299 26.00839,-14.36458 4.35614,-1.75236 10.62288,-4.42461 13.9261,-5.93832 3.30322,-1.51372 7.35321,-3.12226 9,-3.57453 3.37781,-0.9277 15.95956,-1.99606 23.49415,-1.99497 4.3728,6.5e-4 5.40768,0.17676 8.25,1.40407 7.00689,3.02558 13.04099,4.96868 19.64148,6.32493 8.28484,1.70235 11.84249,3.27919 16.82745,7.45833 2.04542,1.71477 4.74541,3.8071 6,4.64964 3.54313,2.37943 5.46075,4.37905 7.32373,7.63691 2.26637,3.96326 2.47718,4.20386 5.8631,6.69184 3.56818,2.6219 4.70946,4.42248 5.08664,8.02519 0.16025,1.53063 0.74471,5.15823 1.2988,8.06132 0.97408,5.10359 0.97892,5.40985 0.14617,9.25 -0.52835,2.43646 -0.89181,6.48414 -0.94029,10.47165 -0.223,18.33807 -0.8348,29.56866 -1.89306,34.75 -0.81968,4.0132 -1.07983,7.13465 -1.10429,13.25 -0.0315,7.86051 -0.0594,8.06103 -1.60237,11.5 -2.2767,5.0742 -6.34597,22.03348 -7.61821,31.75 -0.59412,4.5375 -1.66695,11.175 -2.38406,14.75 -0.71711,3.575 -1.50006,8.1875 -1.7399,10.25 -0.71878,6.18113 -3.65645,23.58892 -5.14707,30.5 -1.30273,6.03994 -2.78756,15.72084 -3.22093,21 -0.333,4.05645 -0.79623,6.15937 -2.03757,9.25 -2.10809,5.2486 -2.46985,9.80044 -2.82442,35.5385 -0.27605,20.03849 -0.27605,20.03849 0.89938,21.33532 0.69526,0.76707 2.32817,1.6188 3.99734,2.08503 3.97124,1.10925 5.92808,3.37323 5.92808,6.85855 0,2.19206 -0.21911,2.75171 -1.62948,4.16208 -1.05853,1.05853 -2.6791,1.9327 -4.625,2.49483 -4.99326,1.44244 -5.34495,1.98855 -8.25178,12.81316 -1.13912,4.24189 -2.49827,9.06253 -3.02035,10.71253 -0.52208,1.65 -1.71427,5.8125 -2.64931,9.25 -1.25303,4.60652 -2.94925,8.87956 -6.45057,16.25 -4.38077,9.22168 -6.06716,13.62457 -8.80943,23 -0.6741,2.30466 -2.7403,6.39722 -6.04992,11.98318 -4.77379,8.05722 -5.71424,10.2208 -7.75797,17.84794 -0.56666,2.11478 -1.52441,3.74769 -3.78522,6.45362 -4.19724,5.02362 -4.47097,5.68163 -4.47097,10.74736 0,5.57808 -0.89163,7.2771 -5.36104,10.21556 -1.92208,1.26371 -3.89995,3.08727 -4.8235,4.44719 -0.861,1.26783 -3.60604,4.44265 -6.10008,7.05515 -2.49405,2.6125 -5.30041,5.7625 -6.23636,7 -4.5815,6.0576 -9.15749,11.02025 -13.77386,14.93785 -11.79011,10.00545 -14.68466,12.5421 -19.22316,16.84605 -2.62954,2.4937 -5.93351,5.44495 -7.34218,6.55845 -2.85247,2.25475 -10.98058,6.57615 -15.76811,8.3833 -1.71694,0.64805 -6.67201,2.65825 -11.01127,4.46705 -4.33926,1.8088 -11.76426,4.6519 -16.5,6.318 -4.73574,1.66605 -11.03055,4.16825 -13.98845,5.56045 -5.27713,2.4838 -5.49753,2.539 -11.75,2.94375 -6.55624,0.4244 -13.72883,1.5703 -16.37199,2.6156 -0.825,0.32625 -2.81306,1.7999 -4.41791,3.2748 -1.60485,1.47485 -3.67888,2.99955 -4.60894,3.38815 -2.48448,1.03805 -6.6465,0.902 -8.58631,-0.28075 z m 17.61316,-54.77475 c 2.32709,-0.2599 7.6406,-1.31425 19.25,-3.81975 5.74562,-1.24 12.81106,-3.8824 15.83142,-5.9208 3.0483,-2.0573 4.55612,-2.7987 8.78021,-4.31725 4.62978,-1.66445 14.88576,-6.86179 20.38837,-10.33205 5.1591,-3.25363 14.07901,-8.54657 18.5,-10.97763 2.40295,-1.32136 4.62728,-3.26405 8.53443,-7.45381 6.9134,-7.41346 12.96204,-14.60839 15.10633,-17.96913 3.25297,-5.09838 7.53192,-15.28641 13.10291,-31.19753 1.44429,-4.125 2.8791,-8.13021 3.18847,-8.90046 0.30936,-0.77026 1.03797,-3.35776 1.61912,-5.75 0.58116,-2.39225 2.74898,-8.51204 4.81739,-13.59954 6.31327,-15.52819 6.98753,-18.0066 5.16422,-18.98241 -1.41644,-0.75805 -13.318,-0.62334 -20.53287,0.23241 -3.4375,0.40772 -7.825,0.74543 -9.75,0.75047 -1.925,0.005 -6.5375,0.38475 -10.25,0.84381 -5.50164,0.6803 -11.74341,0.84197 -33.75,0.87419 -23.74668,0.0347 -27.57234,0.14751 -31.75,0.93565 -2.6125,0.49286 -9.02111,1.45472 -14.24135,2.13746 -11.06708,1.44743 -13.40032,1.98436 -21.61057,4.97304 -3.71982,1.35407 -8.79485,2.71563 -13,3.48771 -10.55061,1.93711 -15.09007,3.67968 -22.14808,8.50199 -4.11678,2.81274 -6.80166,4.19968 -11.5,5.94057 -2.84419,1.05387 -3.7675,1.84343 -6.4962,5.55511 -1.21302,1.65 -3.81916,4.9431 -5.79141,7.31801 -1.97226,2.3749 -4.2514,5.2999 -5.06476,6.5 -2.0375,3.00629 -5.77868,12.70458 -7.11025,18.43199 -0.65703,2.82603 -2.02745,6.61245 -3.38336,9.34812 -1.25346,2.52896 -2.27902,5.14248 -2.27902,5.80781 0,0.66533 0.41409,2.42118 0.9202,3.90188 0.72349,2.11669 0.89541,3.94224 0.80426,8.5399 -0.0638,3.21624 0.10203,6.82027 0.36842,8.00896 0.70649,3.15251 5.68694,11.56696 9.40714,15.89333 8.2185,9.55765 17.34759,15.81995 25.87498,17.74955 1.925,0.43555 5.2022,1.34975 7.28266,2.0315 2.08047,0.68175 4.78047,1.4221 6,1.6452 2.36283,0.4323 29.51887,0.2806 33.71734,-0.1883 z m 90.53317,-310.76987 c 1.63176,-0.29256 5.72637,-1.42174 9.09914,-2.50931 3.37277,-1.08756 8.88527,-2.63591 12.25,-3.44077 10.06518,-2.40764 22.85453,-7.82365 29.36769,-12.43656 4.84549,-3.4318 7.35976,-5.92202 10.14527,-10.04826 2.58089,-3.82313 9.06026,-17.2655 11.10226,-23.03318 0.63284,-1.7875 1.95475,-5.30648 2.93757,-7.81996 0.98282,-2.51348 2.34295,-6.90098 3.02251,-9.75 0.67956,-2.84902 2.05235,-7.53803 3.05066,-10.42002 2.84914,-8.22514 3.87478,-13.1386 3.91599,-18.76002 0.0353,-4.81815 -0.0491,-5.21822 -2.32157,-11 -2.70954,-6.89386 -3.30453,-7.82486 -6.60676,-10.33798 -6.04382,-4.59957 -14.39233,-5.70268 -33.24593,-4.39288 -13.9652,0.9702 -16.75021,1.52462 -23.86402,4.75069 -7.20272,3.2664 -8.15881,3.84662 -12.44223,7.55096 -1.68094,1.45368 -4.94344,3.81269 -7.25,5.24225 -5.59129,3.46536 -12.21083,9.58655 -16.87881,15.60812 -5.51264,7.11114 -6.3893,8.54803 -7.80047,12.7854 -0.69722,2.09357 -2.87207,6.72856 -4.83299,10.29997 -7.3681,13.41944 -12.38683,25.04146 -13.61674,31.53269 -1.08283,5.71501 -1.43567,22.03437 -0.5826,26.94683 0.72341,4.16583 1.29106,4.9492 3.26786,4.50972 3.8341,-0.85239 8.27418,-0.84672 12.04886,0.0154 3.73092,0.85213 4.14385,0.85607 7.39785,0.0707 6.3666,-1.53666 9.36432,-0.85356 12.87408,2.93367 2.32097,2.50447 3.37402,2.70452 8.96238,1.70258 z"
     id="path567"
     inkscape:connector-curvature="0" />
</svg>
