<?xml version="1.0" encoding="UTF-8" standalone="no"?>
<!-- Created with Inkscape (http://www.inkscape.org/) -->

<svg
   xmlns:dc="http://purl.org/dc/elements/1.1/"
   xmlns:cc="http://creativecommons.org/ns#"
   xmlns:rdf="http://www.w3.org/1999/02/22-rdf-syntax-ns#"
   xmlns:svg="http://www.w3.org/2000/svg"
   xmlns="http://www.w3.org/2000/svg"
   xmlns:sodipodi="http://sodipodi.sourceforge.net/DTD/sodipodi-0.dtd"
   xmlns:inkscape="http://www.inkscape.org/namespaces/inkscape"
   version="1.1"
   id="svg1099"
   width="1000"
   height="1000"
   viewBox="0 0 1000 1000"
   sodipodi:docname="Masomeh_bdc_o.svg"
   inkscape:version="0.92.2 5c3e80d, 2017-08-06">
  <metadata
     id="metadata1105">
    <rdf:RDF>
      <cc:Work
         rdf:about="">
        <dc:format>image/svg+xml</dc:format>
        <dc:type
           rdf:resource="http://purl.org/dc/dcmitype/StillImage" />
        <dc:title></dc:title>
      </cc:Work>
    </rdf:RDF>
  </metadata>
  <defs
     id="defs1103" />
  <sodipodi:namedview
     pagecolor="#ffffff"
     bordercolor="#666666"
     borderopacity="1"
     objecttolerance="10"
     gridtolerance="10"
     guidetolerance="10"
     inkscape:pageopacity="0"
     inkscape:pageshadow="2"
     inkscape:window-width="1281"
     inkscape:window-height="673"
     id="namedview1101"
     showgrid="false"
     inkscape:zoom="0.36875"
     inkscape:cx="595"
     inkscape:cy="600"
     inkscape:window-x="0"
     inkscape:window-y="0"
     inkscape:window-maximized="0"
     inkscape:current-layer="svg1099" />
  <path
     style="fill:#000000;stroke-width:0.5"
     d="m 521.61865,820.88707 c -17.21993,-1.487 -27.34458,-2.2403 -30.01493,-2.2333 -12.1092,0.032 -30.47237,-5.0571 -41.22713,-11.4251 -4.8359,-2.86335 -5.7702,-2.78545 -13.87704,1.1571 -8.7155,4.23855 -11.87657,5.2274 -18.56306,5.80705 -3.06231,0.2655 -6.69284,0.806 -8.06784,1.20115 -7.70135,2.2132 -8.75925,2.36505 -19.25545,2.7638 -5.91549,0.2247 -13.34049,0.7943 -16.5,1.26575 -4.58914,0.6848 -7.50444,0.7917 -14.49455,0.5315 -6.83003,-0.25425 -10.01169,-0.14595 -14.5,0.4936 -8.60315,1.22585 -28.20933,0.46905 -45.5,-1.7563 -8.75799,-1.1272 -16.85232,-3.44 -23.23446,-6.63885 -6.43268,-3.2242 -13.71663,-7.4793 -15.03015,-8.78025 -2.94557,-2.91735 -2.9717,-3.11895 -3.13727,-24.20896 -0.1625,-20.70072 -0.0134,-22.35157 2.22006,-24.58506 2.97618,-2.97617 6.86817,-2.67728 11.93182,0.91634 1.65,1.17098 4.21654,2.74393 5.70343,3.49543 1.48688,0.75151 4.22116,2.37561 6.07619,3.60911 2.16903,1.44232 5.39773,2.91595 9.04657,4.12902 3.1206,1.03745 7.92381,3.01781 10.67381,4.4008 2.75,1.38299 6.6875,3.04701 8.75,3.69783 3.65894,1.15455 4.13249,1.17996 19.5,1.04619 19.39852,-0.16886 27.23099,-0.95596 48.5,-4.87388 3.7125,-0.68387 7.73352,-1.24241 8.93559,-1.24121 2.72227,0.002 14.91698,-2.81225 16.43941,-3.79481 0.61875,-0.39933 1.125,-1.03994 1.125,-1.42358 0,-0.38364 -2.35031,-2.9097 -5.22292,-5.61347 -4.2052,-3.95804 -5.85061,-5.94574 -8.4442,-10.20078 -3.47694,-5.70425 -5.43108,-10.48801 -6.3429,-15.52744 -0.31722,-1.75325 -1.22513,-4.87523 -2.01756,-6.93773 -1.54308,-4.01628 -2.70556,-8.96781 -3.52158,-15 -0.37033,-2.73762 -1.18406,-5.1927 -3.01416,-9.09393 -2.50381,-5.33739 -3.18166,-7.95296 -4.6405,-17.90607 -0.44873,-3.06152 -1.0709,-5.03793 -2.2249,-7.06763 -1.21892,-2.14388 -1.71305,-3.79145 -2.06646,-6.89011 -0.25546,-2.23986 -0.60821,-4.30505 -0.7839,-4.58931 -0.17568,-0.28427 -0.49784,-2.59926 -0.7159,-5.14443 -0.29171,-3.40474 -0.73516,-5.29593 -1.67812,-7.15678 -1.54912,-3.05704 -2.19923,-5.61976 -2.76554,-10.90174 -0.32015,-2.9861 -1.01962,-5.39412 -2.75952,-9.5 -1.53728,-3.62773 -2.50162,-6.77655 -2.83286,-9.25 -0.27621,-2.0625 -0.82189,-5.2125 -1.21263,-7 -0.39074,-1.7875 -0.70518,-4.8437 -0.69876,-6.79156 0.0102,-3.09988 -0.33488,-4.456 -2.76722,-10.8741 -2.4379,-6.43277 -5.94695,-19.55552 -6.64076,-24.83434 -0.28186,-2.14451 1.15061,-6.14573 3.7745,-10.5431 1.48654,-2.49127 2.62901,-3.67711 5.11972,-5.31403 5.31933,-3.49592 5.89496,-4.05214 6.25153,-6.04068 0.18266,-1.01871 0.83609,-3.08969 1.45208,-4.60219 0.98613,-2.42138 1.15754,-3.97804 1.43437,-13.0266 0.24297,-7.94181 0.54162,-11.12254 1.31453,-14 0.55006,-2.04787 1.34291,-7.0984 1.76189,-11.2234 1.08207,-10.65356 2.06711,-16.01665 4.36008,-23.73854 1.10427,-3.7188 2.41752,-8.44896 2.91834,-10.51146 1.2608,-5.19233 6.16115,-19.43932 7.78093,-22.62183 0.7357,-1.4455 2.04039,-4.66549 2.8993,-7.15554 0.85891,-2.49006 2.79273,-6.50137 4.29739,-8.91404 5.54191,-8.88628 9.8577,-15.17809 13.41858,-19.56238 2.3572,-2.90227 4.52355,-6.30915 6.11088,-9.61019 1.38659,-2.88358 3.8214,-6.82399 5.58268,-9.03481 1.71797,-2.15645 4.78814,-6.20974 6.82259,-9.00731 5.39032,-7.41219 12.12206,-13.73942 18.301,-17.20126 2.75,-1.54073 6.2375,-3.35075 7.75,-4.02226 1.5125,-0.67152 5.225,-2.55289 8.25,-4.18082 3.025,-1.62795 8.65,-4.28197 12.5,-5.89783 3.85,-1.61588 8.8,-3.71997 11,-4.67579 8.23276,-3.5768 8.25761,-3.58188 17.58045,-3.59961 7.26969,-0.0139 9.06464,0.13836 11.75,0.99631 1.74325,0.55694 5.56832,1.2184 8.50015,1.4699 4.20847,0.36101 6.20829,0.81466 9.5,2.15505 2.29317,0.93378 5.44918,1.97284 7.01336,2.30901 3.54471,0.76182 5.60343,2.12759 8.01202,5.31518 1.26211,1.67031 3.03395,3.14564 5.39026,4.48822 4.93895,2.81411 6.68278,4.32882 9.08235,7.88908 1.15321,1.711 3.62799,4.76037 5.49954,6.77637 5.48502,5.90836 8.28392,9.96682 9.63378,13.96916 0.96717,2.86763 1.86309,4.34067 4.24572,6.98059 1.84972,2.04947 3.89632,5.09719 5.28177,7.86539 1.24405,2.48567 3.05059,5.61488 4.01455,6.95379 0.96395,1.3389 2.11182,3.7014 2.55083,5.25 0.439,1.54859 1.54192,4.16562 2.45092,5.81562 0.909,1.65 2.0302,4.45724 2.49156,6.23832 1.00835,3.89265 1.34379,4.55614 3.5231,6.96837 2.25095,2.49153 2.74873,3.94368 3.23051,9.42409 0.28006,3.18576 0.73538,5.21406 1.45913,6.5 0.98141,1.74373 2.27601,4.42051 5.36501,11.09292 1.56714,3.38511 2.67499,9.01887 2.67499,13.60315 0,3.68108 0.31579,4.60203 2.54537,7.42315 1.9756,2.49976 7.81544,15.24054 8.47961,18.5 0.3082,1.5125 0.99116,4.59811 1.51769,6.85691 0.52653,2.2588 0.95733,5.13202 0.95733,6.38493 0,1.29798 0.55005,3.61819 1.27854,5.3931 0.77075,1.8779 1.37559,4.5051 1.52294,6.61506 0.50207,7.18971 0.63255,7.64234 2.95761,10.26024 2.86807,3.22929 3.25602,5.21848 1.8203,9.33347 -1.32172,3.78825 -1.34183,4.95167 -0.1385,8.01278 1.79604,4.56888 2.18275,7.69683 1.38622,11.2127 -0.95951,4.23531 -1.50824,11.02585 -1.39907,17.31383 0.12552,7.23017 -0.71346,15.10424 -2.1701,20.36698 -0.86356,3.12002 -1.24742,5.77951 -1.25173,8.67238 -0.004,2.70032 -0.35717,5.34641 -1.00097,7.5 -0.54711,1.83019 -1.326,6.81512 -1.73087,11.07762 -0.40487,4.2625 -1.06302,8.875 -1.46256,10.25 -0.39954,1.375 -0.99643,4.16362 -1.32643,6.19693 -1.14077,7.02894 -6.50803,20.70201 -10.33994,26.34095 -1.13541,1.67083 -2.77712,4.54641 -3.64826,6.39016 -2.31782,4.90568 -6.57596,10.31714 -13.2368,16.82196 -3.23835,3.1625 -9.31205,9.125 -13.49711,13.25 -4.18506,4.125 -11.18749,10.65 -15.56096,14.5 -4.37347,3.85 -9.86438,8.81225 -12.20204,11.02721 -2.33765,2.21497 -5.39907,5.03266 -6.80316,6.26155 -1.40409,1.22888 -3.8393,3.75069 -5.41158,5.604 -1.57228,1.85332 -4.15994,4.25332 -5.75035,5.33335 -1.59041,1.08003 -3.87978,3.14389 -5.08749,4.58636 -2.60589,3.11246 -8.83825,8.17441 -11.67802,9.48494 -1.11082,0.51263 -2.99048,1.17427 -4.17701,1.47031 -3.24722,0.81016 -2.35435,1.67349 2.19782,2.12508 5.80779,0.57615 15.15601,0.11119 21.68049,-1.07833 3.14654,-0.57366 7.75904,-1.17891 10.25,-1.34499 4.82294,-0.32155 13.45834,-1.71192 20.02903,-3.22483 2.2,-0.50655 6.73137,-1.17331 10.06972,-1.48168 3.33834,-0.30838 7.92809,-1.00454 10.19944,-1.54704 4.07576,-0.97347 15.87,-5.80427 20.73084,-8.49115 1.375,-0.76004 3.7375,-1.8953 5.25,-2.5228 1.5125,-0.62749 4.6625,-2.42789 7,-4.00089 2.3375,-1.573 7.175,-4.76503 10.75,-7.09341 3.575,-2.32838 7.85,-5.40372 9.5,-6.8341 1.65,-1.43038 4.9125,-3.73731 7.25,-5.12651 2.3375,-1.38921 5.6,-3.48067 7.25,-4.64772 5.14875,-3.64169 13.80753,-8.80957 18.5,-11.04147 7.85273,-3.73502 16.6975,-7.24912 19.9678,-7.93335 8.94504,-1.87155 13.47004,3.14294 11.03224,12.22547 -0.5555,2.06934 -0.7396,5.7961 -0.7441,15.05676 -0.01,12.5252 -0.3492,16.15814 -1.8188,19.25503 -1.1155,2.35083 -4.3076,5.53108 -7.93714,7.90768 -1.65,1.08041 -5.05305,3.66677 -7.5624,5.74746 -6.90824,5.72825 -16.22817,11.08845 -26.56597,15.27898 -4.8794,1.97791 -9.80239,4.0733 -10.93999,4.65641 -1.1376,0.58312 -4.4001,1.94431 -7.25,3.02489 -2.8499,1.08056 -10.80664,4.67856 -17.68164,7.99554 -16.43509,7.92945 -21.9545,9.96245 -37.5044,13.81415 -10.03699,2.4862 -14.77184,3.4011 -20.75,4.0096 -4.26008,0.4336 -8.0831,0.90835 -8.4956,1.055 -0.4125,0.14665 -4.9125,0.4709 -10,0.7205 -5.0875,0.24965 -11.275,0.55795 -13.75,0.68515 -2.475,0.1272 -8.2125,-0.0893 -12.75,-0.4811 z M 458.4611,748.62336 c 0.77416,-0.29572 4.05511,-1.20184 7.29103,-2.0136 3.23591,-0.81177 7.96091,-2.38947 10.5,-3.506 6.08017,-2.6737 20.5615,-10.41385 25.60877,-13.6877 8.29038,-5.37744 23.49213,-18.75234 30.72971,-27.03679 4.43446,-5.07588 8.30538,-8.61835 19.27804,-17.6423 9.31222,-7.6584 13.03215,-11.33312 16.46937,-16.26919 4.2704,-6.1326 4.81803,-7.29558 7.79621,-16.55676 2.78407,-8.65752 4.30705,-15.66348 4.77948,-21.98635 0.16495,-2.20751 0.73505,-5.91508 1.26689,-8.23905 0.53184,-2.32397 1.16763,-6.14897 1.41285,-8.5 0.24523,-2.35103 0.91182,-6.0746 1.48131,-8.2746 0.68446,-2.64409 1.2134,-7.05081 1.56042,-13 0.28873,-4.95 0.72722,-10.125 0.97441,-11.5 0.2472,-1.375 0.46286,-5.88625 0.47925,-10.025 0.0318,-8.03365 -0.15855,-8.725 -2.40254,-8.725 -1.51603,0 -7.68794,3.31882 -12.10508,6.50927 -3.79197,2.7389 -5.32571,3.57941 -9.12667,5.00153 -1.51006,0.56499 -4.22637,1.99985 -6.03626,3.18859 -1.80988,1.18873 -4.24896,2.50402 -5.42017,2.92285 -1.17121,0.41883 -4.37947,1.5677 -7.12947,2.55306 -8.57062,3.07095 -26.38514,7.79085 -29.5,7.81594 -0.825,0.007 -5.14099,0.89251 -9.59107,1.9686 -4.4501,1.07609 -9.85009,2.21414 -12,2.52901 -2.14991,0.31486 -6.04643,0.91577 -8.65893,1.33534 -3.52368,0.56592 -8.68713,0.75964 -20,0.75031 -10.43306,-0.009 -16.67139,0.20344 -19.75,0.67129 -2.475,0.37612 -8.55,0.8402 -13.5,1.0313 -7.85032,0.30305 -9.41517,0.50541 -12.25,1.58416 -3.55407,1.35244 -7.37122,1.64998 -12.2849,0.95761 -4.65794,-0.65634 -4.61942,-0.74678 -4.4862,10.5329 0.11099,9.39824 0.11099,9.39824 1.73275,13.07705 1.27716,2.89715 1.77798,5.02194 2.357,10 0.82007,7.05042 2.02473,12.88157 4.13703,20.02533 0.77994,2.63772 1.68973,6.82086 2.02176,9.29586 1.55961,11.62541 3.2082,19.81639 5.36716,26.66666 1.27118,4.03334 2.80948,9.13334 3.41845,11.33334 1.4845,5.36297 2.24364,7.04668 4.50873,10 1.05457,1.375 3.24648,4.62953 4.8709,7.23228 1.62443,2.60275 3.36735,5.25838 3.87315,5.9014 0.5058,0.64303 1.4968,2.90101 2.20222,5.01773 0.98244,2.94797 2.00215,4.72614 4.35754,7.59859 1.69123,2.0625 4.04443,5.25676 5.22933,7.09837 1.18492,1.8416 2.78229,3.68885 3.54974,4.10498 1.6455,0.89225 5.00409,1.01674 6.98779,0.25899 z m 27.90755,-196.9384 c 3.3,-0.60577 10.5,-2.0706 16,-3.25518 5.5,-1.18457 12.5875,-2.4175 15.75,-2.73982 3.1625,-0.32233 8.225,-1.24757 11.25,-2.0561 3.025,-0.80852 7.52312,-1.93131 9.9958,-2.49509 11.73946,-2.67663 18.4088,-4.97856 28.5042,-9.83827 5.5,-2.64758 10.1653,-5.05582 10.36734,-5.35163 0.64746,-0.94798 0.41331,-2.67549 -0.88808,-6.55229 -0.89492,-2.6659 -1.39982,-5.60676 -1.70716,-9.94347 -0.40779,-5.75433 -0.60127,-6.56387 -2.95173,-12.35004 -1.38344,-3.40563 -4.20431,-10.46705 -6.2686,-15.69205 -13.1697,-33.33428 -16.405,-40.24709 -26.53916,-56.70571 -1.45428,-2.36186 -3.37571,-5.75679 -4.26985,-7.54429 -2.12077,-4.23969 -3.75569,-6.58584 -7.36394,-10.56741 -1.62789,-1.7963 -4.36528,-5.31807 -6.08311,-7.82617 -6.7603,-9.8703 -11.86142,-12.11607 -21.84073,-9.61534 -4.23079,1.0602 -23.29528,10.37484 -28.95498,14.14699 -5.22996,3.48573 -9.68004,7.37989 -12.34015,10.79856 -1.418,1.82235 -3.86902,4.66337 -5.44673,6.31337 -5.43399,5.68297 -20.58132,28.12066 -24.05215,35.62833 -1.11157,2.40442 -3.89294,8.19667 -6.18082,12.87167 -4.17312,8.52727 -6.15697,13.91202 -7.18417,19.5 -1.18643,6.45419 -3.05738,18.74402 -3.57755,23.5 -0.30076,2.75 -0.95141,6.2375 -1.44588,7.75 -1.53737,4.7025 -1.59672,5.3904 -1.57341,18.23363 0.0214,11.78484 0.0797,12.563 0.997,13.31429 1.41019,1.15493 8.46867,1.54531 13.46784,0.74485 2.76581,-0.44285 4.89069,-0.50644 6.69403,-0.20031 5.48898,0.93177 11.70354,1.15572 30.39199,1.0952 17.52908,-0.0568 19.78639,-0.16079 25.25,-1.16372 z"
     id="path1109"
     inkscape:connector-curvature="0" />
</svg>
