<?xml version="1.0" encoding="UTF-8" standalone="no"?>
<!-- Created with Inkscape (http://www.inkscape.org/) -->

<svg
   xmlns:dc="http://purl.org/dc/elements/1.1/"
   xmlns:cc="http://creativecommons.org/ns#"
   xmlns:rdf="http://www.w3.org/1999/02/22-rdf-syntax-ns#"
   xmlns:svg="http://www.w3.org/2000/svg"
   xmlns="http://www.w3.org/2000/svg"
   xmlns:sodipodi="http://sodipodi.sourceforge.net/DTD/sodipodi-0.dtd"
   xmlns:inkscape="http://www.inkscape.org/namespaces/inkscape"
   version="1.1"
   id="svg981"
   width="1000"
   height="1000"
   viewBox="0 0 1000 1000"
   sodipodi:docname="Masomeh_bdc_p2.svg"
   inkscape:version="0.92.2 5c3e80d, 2017-08-06">
  <metadata
     id="metadata987">
    <rdf:RDF>
      <cc:Work
         rdf:about="">
        <dc:format>image/svg+xml</dc:format>
        <dc:type
           rdf:resource="http://purl.org/dc/dcmitype/StillImage" />
        <dc:title></dc:title>
      </cc:Work>
    </rdf:RDF>
  </metadata>
  <defs
     id="defs985" />
  <sodipodi:namedview
     pagecolor="#ffffff"
     bordercolor="#666666"
     borderopacity="1"
     objecttolerance="10"
     gridtolerance="10"
     guidetolerance="10"
     inkscape:pageopacity="0"
     inkscape:pageshadow="2"
     inkscape:window-width="1240"
     inkscape:window-height="638"
     id="namedview983"
     showgrid="false"
     inkscape:zoom="0.34186198"
     inkscape:cx="384"
     inkscape:cy="600"
     inkscape:window-x="0"
     inkscape:window-y="0"
     inkscape:window-maximized="0"
     inkscape:current-layer="svg981" />
  <path
     style="fill:#000000;stroke-width:0.5"
     d="m 376.91372,817.16481 c -4.94074,-1.56445 -10.6943,-8.03445 -13.82664,-15.54845 -1.48173,-3.55445 -1.45933,-6.02505 0.1082,-11.9325 1.66694,-6.28205 1.97066,-7.04215 4.80616,-12.02825 1.31701,-2.3159 2.65132,-5.0159 2.96512,-6 0.3138,-0.9841 2.13273,-5.5783 4.04207,-10.2094 2.48297,-6.02245 3.67121,-9.6531 4.17279,-12.75 0.766,-4.7295 1.81778,-8.04685 4.17414,-13.16535 0.84454,-1.83452 1.97916,-5.36814 2.52138,-7.85249 0.91439,-4.18959 2.12472,-7.3974 6.72057,-17.81201 2.22039,-5.03158 3.79105,-10.46965 6.09809,-21.11329 0.99982,-4.61269 2.80278,-11.98671 4.0066,-16.38671 1.2038,-4.4 2.52474,-10.14565 2.93541,-12.76811 0.51939,-3.31666 1.67984,-7.19788 3.81216,-12.75 3.1033,-8.08039 3.58794,-9.70053 5.45383,-18.23189 0.57138,-2.6125 1.91946,-6.93127 2.99575,-9.59726 2.19133,-5.42803 3.23803,-10.16467 3.9561,-17.90274 0.37962,-4.09075 0.87092,-6.18844 2.225,-9.5 0.95579,-2.3375 2.45226,-6.725 3.32548,-9.75 0.87323,-3.025 2.26145,-6.70622 3.08495,-8.18048 0.82349,-1.47427 1.7975,-4.17427 2.16447,-6 0.36697,-1.82574 1.13846,-5.09926 1.71441,-7.2745 0.57596,-2.17524 1.04741,-4.53774 1.04767,-5.25 2.6e-4,-0.71226 1.01474,-4.22002 2.25439,-7.79502 2.92131,-8.42465 3.69785,-11.43851 4.29005,-16.65022 0.26746,-2.3538 1.13764,-6.20792 1.93373,-8.56471 2.60674,-7.71708 3.67759,-13.36913 3.2275,-17.03507 -0.63645,-5.18381 -0.43731,-8.49712 0.73825,-12.28287 1.06102,-3.41685 1.07758,-3.81093 0.50429,-12 -0.75132,-10.73229 -0.74446,-13.83579 0.0497,-22.46713 0.87902,-9.5539 0.85535,-12.65444 -0.14218,-18.62171 -1.60782,-9.61806 -0.7752,-16.77929 2.85344,-24.54191 3.19223,-6.82901 5.49121,-17.82378 5.08869,-24.33638 -0.19829,-3.20823 -0.0364,-5.6835 0.56394,-8.62283 0.91469,-4.47835 0.61117,-5.68331 -1.1889,-4.71994 -0.51371,0.27492 -7.11385,6.69762 -14.66699,14.27266 -13.35023,13.38894 -13.90749,13.87754 -19.99467,17.53097 -3.44393,2.06699 -7.15576,4.12668 -8.24852,4.57709 -2.54407,1.0486 -6.68275,1.05852 -10.58534,0.0254 -1.6897,-0.44732 -4.7272,-0.81457 -6.75,-0.8161 -4.64049,-0.004 -7.00792,-0.65908 -9.13976,-2.53085 -2.2601,-1.9844 -3.17975,-4.50734 -3.58114,-9.82447 -0.55207,-7.31323 0.11998,-8.84498 6.91672,-15.76469 3.09449,-3.15048 6.7261,-6.36373 8.07024,-7.14056 1.34414,-0.77683 3.81914,-2.61495 5.5,-4.08472 1.68086,-1.46977 4.63111,-3.46947 6.55611,-4.44377 1.93011,-0.97689 4.84561,-3.06157 6.5,-4.64772 1.65,-1.58195 4.29293,-3.82438 5.87319,-4.98319 1.58026,-1.1588 3.20733,-2.61687 3.61572,-3.24015 0.4084,-0.62329 2.21158,-2.34849 4.00709,-3.83378 3.15779,-2.61222 7.34821,-7.53577 11.50008,-13.51203 1.10215,-1.58647 3.21478,-4.30578 4.69473,-6.04293 1.47995,-1.73714 3.76122,-5.30492 5.0695,-7.9284 1.30827,-2.62347 4.16759,-8.28169 6.35403,-12.57382 2.82113,-5.53805 4.37871,-9.31255 5.36457,-13 1.3892,-5.19612 1.3892,-5.19612 6.45514,-10.11346 2.78626,-2.70453 5.96593,-5.34334 7.06593,-5.86401 4.45929,-2.11077 8.17909,-0.78016 12.01073,4.29634 3.67394,4.86759 4.68569,7.482 5.26077,13.59414 0.676,7.18477 0.79645,7.64087 2.01787,7.64087 0.56117,0 3.31313,-1.64386 6.11547,-3.65302 2.80234,-2.00917 6.55766,-4.52096 8.34516,-5.58176 1.7875,-1.06081 4.66591,-2.90366 6.39647,-4.09524 4.03737,-2.77994 5.51168,-3.52902 9.82427,-4.99161 1.9411,-0.65832 5.32926,-2.24767 7.52926,-3.53191 2.2316,-1.30269 7.31575,-3.48919 11.5,-4.94571 4.125,-1.4359 11.40643,-3.97216 16.18096,-5.63614 8.26479,-2.88037 9.03182,-3.05306 16,-3.60205 8.86069,-0.69809 18.00514,-0.26595 22.2359,1.05081 7.48087,2.3283 16.32236,10.3813 20.83134,18.97356 1.5115,2.88031 3.61619,6.23982 4.67707,7.46557 1.06088,1.22575 3.02059,4.49414 4.3549,7.26307 1.33431,2.76894 3.32465,6.46288 4.42296,8.20877 2.47496,3.93421 5.42971,12.74738 7.82028,23.32566 2.42913,10.74886 2.51645,11.83844 1.26229,15.75 -0.57312,1.7875 -1.72871,7.8625 -2.56797,13.5 -0.83925,5.6375 -2.06685,12.8375 -2.72799,16 -0.66115,3.1625 -1.44855,7.32306 -1.74979,9.24569 -0.73302,4.67849 -2.15217,8.02609 -6.62437,15.62601 -2.06433,3.50806 -4.67807,7.99167 -5.80831,9.96358 -2.70722,4.72322 -4.1035,6.31931 -7.61331,8.70277 -1.83364,1.2452 -3.67179,3.08859 -4.93567,4.94974 -3.14511,4.63137 -6.21214,6.59146 -11.80318,7.54317 -3.97528,0.67668 -4.67803,1.17607 -6.74926,4.7962 -0.83185,1.45392 -3.10152,4.09381 -5.04372,5.86642 -4.10328,3.74498 -4.04116,3.22382 -1.40711,11.80642 2.21309,7.21094 2.46936,8.37528 2.48305,11.28157 0.0158,3.34877 2.80556,8.10054 7.76057,13.21843 1.99686,2.0625 4.41001,4.9875 5.36256,6.5 2.03875,3.23724 5.75315,6.78543 8.15293,7.78813 1.25445,0.52414 4.01971,0.71187 10.48587,0.71187 9.94484,0 10.77525,-0.20168 15.25,-3.70375 4.83183,-3.78154 5.43299,-3.97137 13.75,-4.34201 4.99396,-0.22256 8.96493,-0.69542 11.88419,-1.41517 5.17102,-1.27493 7.25112,-1.04822 9.64182,1.05084 3.0622,2.68864 3.47695,4.75115 3.45083,17.16009 -0.0213,10.11002 -0.11161,11.22249 -1.11647,13.75 -2.62284,6.59714 -6.58212,8.47232 -15.18363,7.19122 -3.64962,-0.54358 -5.67764,-0.60728 -7.80391,-0.2451 -1.58006,0.26914 -4.78533,0.64145 -7.12283,0.82735 -4.73789,0.37683 -11.98057,2.07795 -15.67656,3.68205 -1.60282,0.69563 -3.72452,2.39705 -6.25,5.01192 -4.77547,4.94451 -6.54575,6.02825 -9.85108,6.03069 -2.16073,10e-4 -3.16423,-0.37917 -6.9131,-2.62313 -4.59745,-2.75188 -11.62092,-9.42566 -14.57982,-13.85388 -0.81911,-1.22588 -2.79885,-3.22424 -4.39942,-4.44078 -3.15388,-2.39719 -8.8757,-9.64062 -11.0521,-13.9912 -0.73211,-1.46348 -2.10111,-3.73266 -3.04224,-5.04262 -0.94112,-1.30997 -2.3798,-3.82508 -3.19707,-5.58914 -1.52073,-3.28245 -4.53861,-14.10255 -4.53861,-16.27242 0,-1.42362 -3.67485,-17.82673 -4.43129,-19.77956 -0.8003,-2.06605 -2.26998,-2.5502 -7.7977,-2.56875 -4.31519,-0.0145 -5.72387,0.2095 -10.02101,1.59338 -5,1.61024 -5,1.61024 -20.5,1.76429 -13.96149,0.13877 -15.84264,0.06 -18.952,-0.79322 -4.13713,-1.1353 -12.53883,-2.37924 -16.15541,-2.39194 -3.07325,-0.0108 -3.64259,0.65274 -3.64259,4.24528 0,1.74087 -0.49937,3.26803 -2,6.11631 -1.93243,3.66786 -1.99979,3.95801 -1.99359,8.58768 0.004,2.77206 -0.3514,6.3214 -0.84254,8.42131 -0.84895,3.62974 -0.84895,3.62974 0.58192,8.1071 1.54795,4.84369 1.56768,4.35779 -0.46673,11.49712 -0.42848,1.50368 -0.77906,4.41443 -0.77906,6.46833 0,3.36769 -0.21808,4.20388 -2.22096,8.51604 -2.43156,5.2351 -3.29808,9.72156 -3.19294,16.53167 0.047,3.04564 -0.19888,4.36044 -1.30914,7 -0.75186,1.7875 -1.78753,4.9375 -2.30148,7 -0.51395,2.0625 -1.39368,5.03813 -1.95497,6.61251 -0.56128,1.57438 -1.02588,3.71188 -1.03244,4.75 -0.007,1.03812 -0.23161,2.78749 -0.50011,3.88749 -0.2685,1.1 -0.70861,4.20197 -0.97802,6.89328 -0.36568,3.653 -0.89262,5.80746 -2.07897,8.5 -1.64166,3.72592 -4.93097,15.5346 -4.93097,17.70228 0,0.67547 -0.54755,2.85922 -1.21676,4.85279 -0.66922,1.99357 -1.70049,5.52074 -2.29171,7.83816 -1.25674,4.92602 -6.66976,20.62894 -9.46707,27.46349 -1.44404,3.52818 -2.08126,5.98267 -2.47726,9.54219 -0.29322,2.63571 -0.88428,5.78571 -1.31346,7 -0.42918,1.2143 -1.00458,4.56867 -1.27866,7.45418 -0.61678,6.49349 -1.65156,11.17205 -3.51197,15.8788 -1.00282,2.53707 -1.65498,5.523 -2.1728,9.94817 -0.67424,5.76182 -0.95946,6.79358 -3.21358,11.62484 -4.85218,10.39965 -5.61108,12.48955 -6.06952,16.71458 -1.69921,15.66031 -2.64506,20.77354 -4.49635,24.30724 -0.51289,0.979 -2.25669,3.29375 -3.87511,5.14385 -3.45149,3.94565 -5.31696,7.5144 -6.39255,12.22925 -0.42747,1.8738 -1.54775,5.4806 -2.48952,8.0151 -1.60049,4.3073 -1.70558,4.96035 -1.60922,10 0.11122,5.8169 -0.10586,6.5541 -3.17915,10.79665 -0.7971,1.10035 -1.91809,3.59695 -2.49107,5.5479 -1.36823,4.6587 -2.96453,7.33565 -5.57262,9.34505 -1.17239,0.9033 -3.48263,2.9152 -5.13387,4.47095 -4.34297,4.0918 -7.68581,5.50025 -10.75099,4.5297 z M 535.17628,421.4532 c 0.54487,-0.16719 4.38383,-0.74615 8.53102,-1.28658 8.67534,-1.1305 12.51933,-2.28302 16.95237,-5.08274 1.73477,-1.0956 4.78763,-2.54759 6.78414,-3.22666 1.99652,-0.67905 4.40646,-1.69276 5.35544,-2.25267 3.17341,-1.87235 9.82846,-7.37529 13.6982,-11.32678 6.46276,-6.59929 15.31544,-17.63105 16.98143,-21.16141 0.84353,-1.7875 3.1792,-6.625 5.19037,-10.75 5.41389,-11.10417 5.49771,-11.43577 5.49771,-21.75 0,-8.75 0,-8.75 -3.25,-13.93339 -2.35221,-3.75151 -4.19018,-5.99598 -6.65348,-8.125 -3.40348,-2.94161 -3.40348,-2.94161 -12.31977,-2.94161 -5.93324,0 -10.27264,0.25729 -12.97041,0.76905 -5.95389,1.12943 -23.06828,6.96644 -27.75136,9.46484 -2.23024,1.18981 -6.41049,3.01701 -9.28945,4.06045 -5.22001,1.89191 -5.24832,1.91119 -10.25,6.97944 -4.64601,4.70786 -5.2734,5.16629 -8.51553,6.22234 -5.57778,1.81684 -5.97479,2.11656 -7.17924,5.41989 -0.76286,2.0922 -1.80829,3.6735 -3.53784,5.35131 -3.3945,3.29292 -4.64666,5.88113 -6.76472,13.98268 -4.24374,16.23225 -6.22397,20.16092 -11.85197,23.51376 -4.92076,2.9315 -9.74615,6.71639 -10.41325,8.16786 -0.9437,2.05325 -1.27266,8.88023 -0.49766,10.32831 0.35814,0.6692 2.40799,2.37012 4.55522,3.77981 3.90404,2.56308 3.90404,2.56308 11.29675,3.02537 4.06599,0.25426 8.63021,0.6328 10.14271,0.8412 3.18672,0.43909 24.78816,0.38194 26.25932,-0.0695 z"
     id="path991"
     inkscape:connector-curvature="0" />
</svg>
