<?xml version="1.0" encoding="UTF-8" standalone="no"?>
<!-- Created with Inkscape (http://www.inkscape.org/) -->

<svg
   xmlns:dc="http://purl.org/dc/elements/1.1/"
   xmlns:cc="http://creativecommons.org/ns#"
   xmlns:rdf="http://www.w3.org/1999/02/22-rdf-syntax-ns#"
   xmlns:svg="http://www.w3.org/2000/svg"
   xmlns="http://www.w3.org/2000/svg"
   xmlns:sodipodi="http://sodipodi.sourceforge.net/DTD/sodipodi-0.dtd"
   xmlns:inkscape="http://www.inkscape.org/namespaces/inkscape"
   version="1.1"
   id="svg818"
   width="1000"
   height="1000"
   viewBox="0 0 1000 1000"
   sodipodi:docname="Masomeh_bdc_m2.svg"
   inkscape:version="0.92.2 5c3e80d, 2017-08-06">
  <metadata
     id="metadata824">
    <rdf:RDF>
      <cc:Work
         rdf:about="">
        <dc:format>image/svg+xml</dc:format>
        <dc:type
           rdf:resource="http://purl.org/dc/dcmitype/StillImage" />
        <dc:title></dc:title>
      </cc:Work>
    </rdf:RDF>
  </metadata>
  <defs
     id="defs822" />
  <sodipodi:namedview
     pagecolor="#ffffff"
     bordercolor="#666666"
     borderopacity="1"
     objecttolerance="10"
     gridtolerance="10"
     guidetolerance="10"
     inkscape:pageopacity="0"
     inkscape:pageshadow="2"
     inkscape:window-width="1204"
     inkscape:window-height="680"
     id="namedview820"
     showgrid="false"
     inkscape:zoom="0.20094038"
     inkscape:cx="842.87195"
     inkscape:cy="600"
     inkscape:window-x="0"
     inkscape:window-y="0"
     inkscape:window-maximized="0"
     inkscape:current-layer="svg818" />
  <path
     style="fill:#000000;stroke-width:0.5"
     d="m -5.136335,897.66726 c -0.87938,-0.4484 -5.02571,-3.57215 -9.21406,-6.9416 -8.89578,-7.15655 -10.463325,-8.0678 -16.08101,-9.3483 -4.70548,-1.07255 -3.56978,-1.3428 -10.0617,2.39445 -2.67017,1.53715 -8.56971,2.5803 -12.37284,2.1878 -5.191035,-0.5358 -7.63695,-3.29245 -8.636331,-9.7336 -0.802485,-5.17215 -0.392486,-56.69826 0.472139,-59.33554 0.865612,-2.64029 3.358037,-5.03665 6.075127,-5.84098 2.954095,-0.87449 9.974175,-0.85564 13.818485,0.0371 2.86451,0.66521 3.541865,0.63686 8.96302,-0.37518 3.225385,-0.60212 6.384825,-1.43581 7.02098,-1.85263 1.07457,-0.70409 2.073995,-2.06306 7.899815,-10.7418 1.1999,-1.7875 2.884835,-4.00903 3.74429,-4.93672 1.66003,-1.79183 2.292295,-1.85272 7.917935,-0.76268 2.043385,0.39593 2.93234,-0.34114 5.853605,-4.85355 4.284295,-6.61784 10.01959,-7.26244 17.09397,-1.92124 3.58918,2.70986 4.98797,3.20041 6.43057,2.25518 1.43229,-0.93847 2.053765,-2.96246 2.465945,-8.03099 0.5784,-7.11259 2.49814,-9.62235 8.24853,-10.78369 3.323465,-0.6712 6.386965,-2.35581 7.805885,-4.29245 0.57378,-0.78312 1.74074,-2.88636 2.59325,-4.67386 1.89308,-3.96931 3.73848,-5.79663 8.61352,-8.52911 8.70594,-4.87973 10.410465,-6.9507 11.93247,-14.49771 1.12481,-5.57749 2.750055,-9.77541 5.865895,-15.15131 1.35684,-2.34101 2.492935,-5.06826 2.811865,-6.75 1.04523,-5.51161 1.43472,-6.53894 3.441745,-9.07802 2.41601,-3.05647 3.05649,-4.52501 4.142725,-9.49869 1.038375,-4.75455 2.066255,-6.42228 5.69511,-9.24034 3.523585,-2.73631 7.06572,-7.91423 10.61786,-15.52124 1.601365,-3.42938 4.045,-7.44644 6.66104,-10.95 2.2725,-3.04347 5.24545,-7.02341 6.60655,-8.84432 1.36111,-1.82092 4.74261,-6.20842 7.51445,-9.75 2.77184,-3.54159 5.68187,-7.56426 6.46672,-8.93926 0.78486,-1.375 2.48173,-3.85 3.77082,-5.5 3.84166,-4.91719 7.33953,-10.58826 8.25287,-13.38029 1.48661,-4.5445 2.57652,-6.17404 8.38692,-12.53951 3.42116,-3.74798 6.63334,-7.85755 8.10845,-10.37368 2.35604,-4.01876 4.99096,-7.14689 7.82693,-9.29197 0.74383,-0.56262 2.47685,-2.7209 3.85116,-4.79618 1.6607,-2.50774 3.55482,-4.57728 5.64758,-6.17059 8.80459,-6.70334 17.50575,-14.61229 20.82595,-18.92982 1.27645,-1.65988 3.61632,-4.44832 5.19971,-6.19652 3.16253,-3.49173 7.6935,-10.50605 9.66255,-14.95841 1.53524,-3.47145 2.64474,-4.72473 6.21063,-7.01547 1.5125,-0.97163 5.68862,-4.18255 9.28027,-7.13538 4.93582,-4.05792 7.15942,-6.27889 9.10703,-9.09621 2.85331,-4.12745 3.71317,-4.83266 7.3627,-6.03848 2.20283,-0.72783 6.4015,-2.93002 14.3642,-7.53396 1.75099,-1.0124 3.64792,-1.53389 7.31362,-2.0106 6.91061,-0.8987 8.01466,-1.8892 10.62575,-9.53293 0.95025,-2.78178 1.6934,-3.96171 3.62149,-5.75 1.33425,-1.2375 4.03444,-3.8548 6.00042,-5.81621 1.96599,-1.96142 4.06598,-3.81767 4.66665,-4.125 1.85728,-0.95028 4.39404,-0.62446 7.32804,0.94121 3.18073,1.69733 4.71963,1.82652 8.75288,0.7348 1.55482,-0.42086 3.68818,-0.99763 4.74078,-1.28171 1.14027,-0.30773 3.09626,-1.60354 4.83921,-3.20588 4.9976,-4.59444 8.39801,-4.66256 12.73909,-0.25521 2.87439,2.91828 3.44102,3.00735 9.12729,1.43484 5.10894,-1.41285 8.8074,-1.45793 11.34396,-0.13827 1.96934,1.02456 7.21081,5.57794 17.3027,15.03123 3.17148,2.9708 7.19593,6.14718 9.7204,7.67203 2.36946,1.43122 5.59183,3.78166 7.16082,5.22318 1.56899,1.44153 4.27606,3.37333 6.01571,4.2929 4.27788,2.26124 5.917,4.35084 10.59354,13.50492 2.93275,5.74073 4.85235,8.80408 7.2237,11.52776 1.77625,2.04018 3.7841,4.72191 4.46195,5.95941 2.14415,3.91453 3.7341,9.4996 4.1057,14.4224 0.3997,5.29453 0.9278,6.22986 3.15655,5.59067 2.46755,-0.70769 12.5868,-6.85505 18.79555,-11.41816 1.65,-1.21266 4.9125,-3.17258 7.25,-4.35538 2.3375,-1.18279 6.1852,-3.68931 8.55045,-5.57003 2.36525,-1.88073 6.8337,-5.4445 9.9299,-7.9195 3.0962,-2.475 6.786,-5.32057 8.19955,-6.32349 3.2381,-2.29744 4.7622,-3.90236 8.8201,-9.28779 4.11405,-5.45995 5.3414,-6.13874 11.0998,-6.13874 4.1852,0 4.43955,-0.0651 6.16225,-1.57766 0.9883,-0.86772 2.207,-2.38647 2.7082,-3.375 0.88895,-1.75314 1.2153,-3.08731 2.7564,-11.26821 1.38905,-7.37416 5.26375,-11.39879 15.173,-15.76028 12.2728,-5.40178 13.30435,-5.37564 26.85035,0.6806 4.8011,2.14651 7.5754,2.29827 14.0225,0.76707 5.31635,-1.26262 7.3378,-1.00302 10.8726,1.3963 3.66955,2.49079 5.27955,3.07869 9.4485,3.45018 4.1496,0.36976 5.57015,0.95301 7.7491,3.18169 2.45925,2.5154 4.1891,6.22325 4.9579,10.62694 0.84455,4.83775 1.3689,5.73329 4.87185,8.32108 1.4673,1.08397 3.3441,3.05905 4.1707,4.38907 0.82655,1.33002 2.5386,4.0715 3.80455,6.09218 2.1507,3.43286 2.63295,4.87109 3.592,10.71173 0.3697,2.25149 2.27835,4.53822 6.7973,8.14385 4.06035,3.23967 6.4349,4.71613 7.58885,4.71859 0.4817,10e-4 1.6484,-1.07353 2.5927,-2.38792 1.94105,-2.70182 4.1861,-4.11264 8.50935,-5.34743 2.68065,-0.76564 3.52895,-1.388 8.5,-6.23604 3.03715,-2.96203 6.5346,-5.8969 7.7721,-6.52192 1.2375,-0.62502 3.7125,-2.07766 5.5,-3.22809 1.7875,-1.15041 4.52245,-2.67361 6.0777,-3.38488 2.76735,-1.26561 5.2931,-3.49579 8.8048,-7.77439 2.9466,-3.59006 7.25365,-6.46789 11.7438,-7.84683 3.9725,-1.21996 4.1463,-1.34309 9.85125,-6.97775 3.19405,-3.15472 6.47455,-6.00134 7.2899,-6.32579 3.1203,-1.24164 12.64455,-3.44947 16.23255,-3.76292 2.0625,-0.18018 4.875,-0.80177 6.25,-1.3813 2.61445,-1.10196 4.97365,-1.26917 8.75,-0.62021 2.2096,0.37972 2.33075,0.32737 6.75,-2.91686 8.4072,-6.17186 8.15875,-6.03884 11.2153,-6.00462 1.8396,0.0206 3.49915,0.40242 4.8898,1.125 2.73035,1.41872 4.54035,1.38107 7.21885,-0.15015 2.6058,-1.48966 5.73475,-1.63028 9.824,-0.44151 2.1512,0.62538 4.1587,0.75864 8.6448,0.57388 5.2375,-0.2157 6.19295,-0.40445 9.2213,-1.82156 1.85805,-0.86952 4.65365,-2.35565 6.2124,-3.30254 2.80355,-1.70306 13.99195,-5.96905 17.684,-6.74268 4.1987,-0.87978 7.67995,1.23446 9.10695,5.53083 1.0819,3.25723 2.3702,4.75044 5.40695,6.26699 1.4166,0.70746 3.64855,2.1794 4.9599,3.27098 3.12355,2.60011 4.7709,3.04213 9.11575,2.44595 5.7656,-0.79112 17.36,-1.16549 18.81945,-0.60767 2.12045,0.81045 4.74345,3.40751 5.8768,5.81869 0.578,1.2296 1.39355,4.32072 1.81235,6.86913 0.41875,2.54842 1.01785,5.64598 1.33135,6.88348 0.6858,2.70751 4.0659,10.48918 7.38425,17 1.33145,2.6125 2.7007,5.65 3.0427,6.75 0.40595,1.30572 0.7279,7.38065 0.92745,17.5 0.34175,17.33139 -0.12265,14.94949 4.30565,22.08349 1.3657,2.20013 1.49825,2.79706 1.48055,6.66651 -0.0235,5.11045 -1.30485,8.36136 -4.88495,12.39236 -1.26505,1.42439 -2.56605,3.47744 -2.8911,4.56233 -0.56745,1.89399 -0.47675,2.2178 2.27865,8.13391 5.37185,11.53403 5.94775,13.93711 4.5045,18.79707 -0.61825,2.08175 -1.3273,3.05853 -3.75,5.16573 -1.6432,1.42922 -2.98765,2.93187 -2.98765,3.33924 0,0.40737 0.71315,2.79238 1.5848,5.30002 2.05205,5.90351 2.44875,13.22391 1.18195,21.81196 -0.689,4.67081 -0.8168,8.60391 -0.68225,20.99738 0.1655,15.25 0.1655,15.25 -1.7095,20.55089 -1.79855,5.08482 -1.8747,5.56376 -1.8672,11.75 0.005,3.89013 0.29525,7.6395 0.7322,9.44911 1.06895,4.42708 0.9242,7.49741 -0.5761,12.21763 -1.26525,3.98093 -1.3087,4.43575 -0.7741,8.10387 0.57865,3.97007 1.04795,5.1714 4.30515,11.02111 1.2434,2.23303 2.0363,4.47371 2.3887,6.75 0.6313,4.07835 1.24235,5.35001 3.67935,7.65739 1.0166,0.9625 2.956,3.40943 4.30985,5.43761 2.5661,3.84435 9.40205,11.54939 16.073,18.1165 3.24335,3.19284 4.62515,4.15304 8.25,5.73275 5.41565,2.36016 7.12405,3.59524 9.892,7.15153 2.3548,3.0254 7.74485,7.78953 14.56955,12.8776 3.07795,2.29473 5.2005,3.45673 7.64295,4.18411 2.66605,0.79398 4.04765,1.60145 6.5299,3.81631 1.7316,1.54509 3.92115,3.13214 4.8657,3.52679 2.35495,0.98397 38.0893,1.19821 41.78595,0.25051 1.33755,-0.3429 5.72501,-0.84066 9.75001,-1.10615 10.8345,-0.71464 14.7358,-1.85418 22.5681,-6.59201 5.5557,-3.3607 8.2771,-4.63807 13.0546,-6.1275 4.19,-1.3063 4.5849,-1.3377 14.8397,-1.18003 12.0065,0.1846 12.3962,0.30446 14.481,4.45354 1.8488,3.67945 2.1255,8.64366 1.9627,35.20844 -0.1374,22.41004 -0.2476,25.32442 -1.0634,28.13154 -1.0979,3.77776 -3.7639,7.03325 -7.009,8.5586 -2.7982,1.31532 -4.0362,1.32502 -7.6358,0.0599 -3.7182,-1.30687 -5.0532,-1.26445 -10.9501,0.34791 -4.3589,1.19182 -5.7099,1.3361 -11.6673,1.24602 -6.7375,-0.10188 -6.7375,-0.10188 -10.3857,1.70076 -3.4201,1.68989 -13.2427,4.17494 -16.6267,4.20644 -0.6875,0.006 -3.0433,0.58428 -5.2351,1.28417 -3.50171,1.11817 -4.50256,1.23257 -8.25001,0.9431 -3.1787,-0.24555 -5.04735,-0.12557 -7.33705,0.47107 -1.6897,0.44029 -4.2772,0.80223 -5.75,0.8043 -4.54175,0.006 -8.675,0.92543 -12.6483,2.81238 -4.7549,2.25805 -7.17635,2.1802 -11.2246,-0.361 -2.6951,-1.69175 -2.6951,-1.69175 -12,-2.04706 -5.96345,-0.22772 -11.19025,-0.72336 -14.55495,-1.38019 -2.8875,-0.56368 -6.375,-1.03543 -7.75,-1.04834 -3.25525,-0.0305 -5.63555,-0.91406 -8.3215,-3.0888 -3.55605,-2.87923 -13.77135,-8.25702 -18.90115,-9.95043 -6.1308,-2.02384 -6.55315,-2.25019 -11.02735,-5.91006 -2.10135,-1.71888 -6.33175,-4.38611 -9.6224,-6.06684 -7.3902,-3.77459 -17.21905,-11.10766 -20.04025,-14.95153 -1.1149,-1.51905 -3.5219,-4.5619 -5.34895,-6.7619 -1.827,-2.2 -4.62815,-5.8 -6.22475,-8 -1.5966,-2.2 -5.17925,-6.25 -7.9614,-9 -9.3775,-9.26913 -15.3889,-16.31852 -17.74995,-20.81478 -1.2087,-2.30187 -3.2554,-5.98522 -4.54815,-8.18522 -5.63745,-9.5936 -12.13575,-21.91635 -13.4762,-25.55481 -0.7994,-2.16985 -2.15895,-5.63269 -3.0213,-7.69519 -2.5523,-6.10475 -5.79065,-21.13843 -6.96685,-32.34298 -0.3133,-2.98484 -1.1198,-6.39862 -2.3034,-9.75 -1.6882,-4.78037 -1.8583,-5.7961 -2.3289,-13.90702 -0.299,-5.15344 -0.34785,-12.65484 -0.1188,-18.25 0.2139,-5.225 0.4291,-12.875 0.47825,-17 0.0623,-5.22513 0.33545,-8.33412 0.9006,-10.25 2.1441,-7.26848 2.9348,-14.81904 3.325,-31.75 0.39425,-17.1077 0.46955,-17.7415 2.9562,-24.88499 1.5083,-4.33302 1.9918,-7.59855 2.82975,-19.11225 0.69405,-9.53623 0.6916,-10.68675 -0.0265,-12.56732 -1.1643,-3.04876 -5.8442,-7.30717 -9.2553,-8.42177 -1.51065,-0.49361 -5.1091,-1.96118 -7.9966,-3.26127 -6.204,-2.79335 -6.55815,-2.88862 -13.03065,-3.50532 -3.55225,-0.33846 -6.0944,-0.91417 -8.7732,-1.98682 -2.07445,-0.83064 -4.289,-1.51026 -4.92125,-1.51026 -3.2332,0 -13.85025,2.26095 -17.82455,3.79582 -5.43175,2.09775 -11.90805,3.69596 -14.9959,3.70067 -1.26255,0.002 -3.28755,0.30264 -4.5,0.66825 -3.272,0.98665 -10.2275,5.70745 -14.20445,9.6408 -1.925,1.90389 -4.92175,4.68624 -6.65945,6.183 -1.7377,1.49675 -3.9673,3.85539 -4.9547,5.24141 -0.98735,1.38603 -3.87835,4.65755 -6.4244,7.27005 -7.11335,7.29904 -12.91505,14.26765 -14.9276,17.92997 -1.00345,1.82601 -3.16355,5.12003 -4.80025,7.32003 -1.63665,2.2 -4.0247,6.025 -5.30665,8.5 -3.0392,5.86747 -5.17,9.2002 -8.6753,13.5688 -1.699,2.11746 -5.159,7.88052 -8.50805,14.17112 -4.31545,8.10581 -6.66825,11.88815 -9.992,16.06312 -2.55905,3.2144 -4.60155,6.30886 -4.9651,7.52232 -0.37895,1.26477 -0.70115,6.52785 -0.8337,13.61807 -0.1803,9.64287 -0.3861,12.17754 -1.2429,15.30657 -0.5648,2.0625 -1.3623,5.55 -1.7722,7.75 -1.3687,7.34534 -5.14735,20.15393 -7.47055,25.3231 -1.2637,2.81168 -3.4185,7.93922 -4.78845,11.39453 -1.37,3.4553 -3.50135,8.45971 -4.7364,11.1209 -1.84835,3.98283 -2.32815,5.63794 -2.7131,9.35873 -0.25725,2.4861 -0.7106,5.59626 -1.0075,6.91146 -0.36245,1.6055 -0.4232,6.45516 -0.18485,14.75849 0.40125,13.97911 0.1445,15.52244 -3.0482,18.32569 -1.755,1.54089 -5.2374,2.44226 -7.12325,1.84373 -1.63865,-0.5201 -3.72375,0.62176 -6.6154,3.62281 -6.15265,6.38542 -10.1189,8.70541 -16.26165,9.51194 -2.41305,0.31682 -5.50135,1.16979 -7.75,2.14052 -3.06505,1.32315 -4.5682,1.65361 -8.3461,1.83483 -2.53425,0.12157 -5.39635,0.0731 -6.36025,-0.10774 -2.4367,-0.45713 -4.48595,-2.34353 -6.3548,-5.84992 -2.27875,-4.27537 -3.79535,-5.21294 -8.1743,-5.05342 -5.43285,0.1979 -7.40305,-0.55869 -11.47275,-4.40573 -1.9416,-1.83535 -5.4793,-4.58896 -7.8616,-6.11913 -7.02815,-4.51425 -11.69035,-11.18754 -13.1281,-18.79103 -1.41085,-7.46132 -1.01895,-10.12732 2.17035,-14.76277 1.9889,-2.89079 5.6024,-11.77018 7.5712,-18.60469 2.051,-7.11999 3.5977,-10.19286 7.04515,-13.99696 1.55735,-1.71847 3.7836,-4.75466 4.9472,-6.74707 1.16365,-1.99242 3.97775,-5.61294 6.2536,-8.04561 4.8953,-5.23267 6.1948,-7.67992 6.8132,-12.83097 2.14355,-17.85461 3.60105,-22.42508 11.0885,-34.77247 4.0486,-6.67638 4.5945,-8.90731 5.62055,-22.96804 0.93795,-12.85311 0.5702,-40.61038 -0.596,-44.99083 -1.09555,-4.11483 -0.8784,-7.18308 0.84075,-11.87965 1.07165,-2.92773 1.47135,-4.77881 1.3047,-6.04255 -0.4214,-3.19576 -7.5221,-14.11857 -12.096,-18.60696 -4.999,-4.90553 -6.43125,-5.81695 -9.1447,-5.81932 -2.721,-0.002 -4.7219,0.84114 -8.13605,3.42991 -1.4976,1.13554 -4.0797,2.51731 -5.738,3.07061 -1.65835,0.55331 -4.58335,1.92649 -6.5,3.05152 -1.9167,1.12503 -5.7349,3.17732 -8.4849,4.56065 -2.75,1.38332 -5.96625,3.17865 -7.14725,3.9896 -2.2509,1.54568 -10.1076,5.33253 -13.10275,6.31545 -0.9625,0.31586 -3.51415,0.79772 -5.67035,1.07082 -4.69075,0.5941 -7.23505,1.86933 -12.97765,6.50451 -2.2561,1.82104 -5.452,4.22693 -7.102,5.34642 -4.90025,3.32473 -12.6283,10.58356 -13.69365,12.86226 -0.61195,1.30883 -1.1463,4.14378 -1.4826,7.86573 -0.78605,8.69914 -2.21165,11.95812 -8.59175,19.64127 -3.7755,4.54661 -4.259,6.47353 -4.08955,16.29874 0.192,11.13155 -0.18715,12.87528 -5.86885,26.99064 -1.1623,2.8875 -3.01395,6.44923 -4.1148,7.91495 -2.23345,2.97374 -2.9088,4.82035 -2.9088,7.95348 0,3.26561 -2.42905,14.97792 -3.80795,18.361 -0.6771,1.66131 -1.79715,5.24742 -2.48895,7.96913 -1.29705,5.10292 -2.49485,7.95067 -4.43805,10.55144 -2.0987,2.80883 -3.36525,5.90256 -4.28175,10.45871 -0.5034,2.50227 -1.39675,5.67271 -1.98525,7.04544 -1.1669,2.72198 -3.50635,12.45282 -4.9876,20.74585 -1.13404,6.34933 -1.72522,8.05722 -4.68164,13.52508 -1.25906,2.32861 -3.24965,6.70684 -4.42353,9.72938 -2.13442,5.49554 -2.13442,5.49554 -2.14491,13.99554 -0.0104,8.5 -0.0104,8.5 -2.13093,12.5 -1.38655,2.61557 -2.37045,5.32643 -2.84276,7.83243 -0.87099,4.62129 -1.22451,5.36835 -7.65076,16.16757 -5.16976,8.68769 -7.24214,11.25719 -9.88255,12.25317 -0.95796,0.36134 -4.67453,0.51856 -10.3272,0.43685 -8.83067,-0.12764 -8.83067,-0.12764 -11.64741,1.81233 -3.74005,2.57586 -6.3585,2.64494 -10.13045,0.26723 -1.89929,-1.19725 -2.97909,-1.56952 -4,-1.37905 -0.76912,0.14351 -2.80466,0.54781 -4.52341,0.89844 -3.56921,0.72816 -6.92717,0.28867 -11.79098,-1.54322 -5.15928,-1.94317 -7.3423,-4.54929 -8.79181,-10.49575 -0.79221,-3.25 -0.79221,-3.25 -4.39866,-3.53072 -3.99162,-0.31069 -5.30239,-1.08716 -6.46256,-3.82822 -0.9562,-2.25916 -0.8496,-5.56963 0.37137,-11.53251 0.61789,-3.01763 0.9232,-5.83208 0.7391,-6.81338 -0.17251,-0.91957 -1.26491,-3.08859 -2.42756,-4.82005 -1.97048,-2.93452 -2.11129,-3.37122 -2.07547,-6.43661 0.0224,-1.92278 0.7966,-6.47347 1.86403,-10.95752 2.6617,-11.18124 5.26664,-16.35619 14.182,-28.17395 8.45933,-11.21325 12.48206,-18.40086 15.99309,-28.57565 1.24908,-3.61976 3.58337,-9.39389 5.18731,-12.83139 1.60394,-3.4375 3.7273,-8.87949 4.71859,-12.09331 0.99129,-3.21382 2.56505,-7.4941 3.49725,-9.51174 0.93221,-2.01764 2.05582,-5.22459 2.49692,-7.12655 0.44109,-1.90196 1.58024,-5.18176 2.53143,-7.28846 0.9512,-2.10669 2.30709,-5.365 3.0131,-7.24067 0.70601,-1.87568 2.14829,-4.89081 3.20508,-6.70029 3.16137,-5.41301 5.47958,-13.16348 6.51721,-21.78898 2.44274,-20.30578 2.41324,-19.5887 1.61468,-39.25 -0.33528,-8.25513 -0.8366,-14.12514 -1.53725,-18 -0.57185,-3.1625 -1.40702,-7.95364 -1.85597,-10.64698 -0.59335,-3.55972 -1.35576,-5.98622 -2.7919,-8.88569 -1.3679,-2.76171 -2.18848,-5.30351 -2.66755,-8.26289 -0.38054,-2.35081 -0.89152,-4.53975 -1.1355,-4.86431 -2.53184,-3.36812 -7.00432,-8.76776 -7.83069,-9.45401 -2.0592,-1.71005 -3.47859,-1.16656 -6.28728,2.40743 -3.68924,4.69447 -6.97795,6.06599 -10.75809,4.48654 -2.38044,-0.99461 -3.63724,-3.30211 -4.04337,-7.42363 -0.33592,-3.40907 -0.35385,-3.44305 -1.64557,-3.11801 -0.71827,0.18075 -4.04385,0.48229 -7.39016,0.67009 -5.82052,0.32666 -6.17807,0.411 -8.25,1.94601 -5.40125,4.00157 -6.36347,4.39545 -10.73752,4.39545 -3.34682,0 -4.26531,0.17507 -5.1591,0.98336 -1.1435,1.03411 -5.3258,9.32057 -6.77786,13.4291 -1.24593,3.52529 -3.79332,5.86606 -9.49131,8.7215 -2.75,1.37811 -6.42754,3.5582 -8.1723,4.84464 -5.30976,3.91495 -11.82803,10.84094 -15.43463,16.40006 -6.33306,9.76162 -12.32989,17.43665 -19.45537,24.89992 -5.1603,5.40492 -5.2911,5.62019 -8.71726,14.34596 -2.94644,7.50402 -5.423,11.84137 -9.57614,16.77124 -3.61761,4.2942 -4.51288,6.15623 -5.82039,12.10558 -0.54377,2.47425 -1.21072,5.07383 -1.48211,5.77683 -0.85527,2.21547 -3.01687,4.34384 -6.2453,6.14928 -3.9612,2.21523 -4.47559,2.80749 -6.2717,7.22104 -0.81137,1.99377 -1.84735,4.19298 -2.30218,4.88714 -1.05675,1.61281 -3.53485,3.12483 -5.77262,3.52219 -5.03905,0.89479 -7.01264,3.42395 -8.52034,10.91886 -1.00378,4.98987 -1.47846,6.18088 -4.30747,10.8077 -1.44071,2.35627 -1.7792,3.50947 -2.20142,7.5 -0.40745,3.85085 -0.85666,5.44913 -2.44958,8.7156 -2.42952,4.98201 -6.47355,11.05159 -11.11303,16.67923 -3.97805,4.82535 -4.51977,5.89405 -6.24537,12.32077 -2.18111,8.12318 -5.74548,18.87736 -7.53148,22.7235 -0.96452,2.07708 -2.93717,6.64688 -4.38366,10.15513 -4.18483,10.14965 -5.31212,11.68955 -13.93977,19.04202 -1.56227,1.33136 -4.48719,4.59386 -6.49982,7.25 -2.01264,2.65614 -4.81646,6.17935 -6.23071,7.82935 -4.069465,4.74783 -6.16268,9.17156 -6.61185,13.97329 -0.20717,2.21469 -0.937515,5.94595 -1.62299,8.29168 -0.685475,2.34573 -1.62711,6.73323 -2.09253,9.75 -1.50191,9.73523 -3.684135,12.60646 -10.24998,13.48628 -2.47344,0.33144 -3.01682,0.64311 -5.40312,3.09915 -3.684795,3.7925 -7.22114,5.3633 -11.28098,5.0109 -1.686245,-0.1464 -4.26233,-0.77385 -5.72463,-1.3944 -2.588645,-1.0985 -2.72819,-1.10635 -5.293945,-0.2976 -3.86168,1.2173 -6.122,1.0594 -9.297325,-0.6496 -1.5125,-0.814 -2.93113,-1.48895 -3.152515,-1.49985 -0.22138,-0.011 -0.970255,1.2639 -1.664165,2.83295 -2.005725,4.5353 -2.96372,5.52625 -7.60576,7.8671 -2.392855,1.2067 -5.66876,3.3983 -7.32756,4.90225 -4.470915,4.0535 -4.433855,4.04225 -13.651125,4.149 -6.682225,0.0774 -8.43926,-0.0525 -9.75,-0.7209 z"
     id="path828"
     inkscape:connector-curvature="0" />
</svg>
