<?xml version="1.0" encoding="UTF-8" standalone="no"?>
<!-- Created with Inkscape (http://www.inkscape.org/) -->

<svg
   xmlns:dc="http://purl.org/dc/elements/1.1/"
   xmlns:cc="http://creativecommons.org/ns#"
   xmlns:rdf="http://www.w3.org/1999/02/22-rdf-syntax-ns#"
   xmlns:svg="http://www.w3.org/2000/svg"
   xmlns="http://www.w3.org/2000/svg"
   xmlns:sodipodi="http://sodipodi.sourceforge.net/DTD/sodipodi-0.dtd"
   xmlns:inkscape="http://www.inkscape.org/namespaces/inkscape"
   version="1.1"
   id="svg1181"
   width="1000"
   height="1000"
   viewBox="0 0 1000 1000"
   sodipodi:docname="Masomeh_bdc_r.svg"
   inkscape:version="0.92.2 5c3e80d, 2017-08-06">
  <metadata
     id="metadata1187">
    <rdf:RDF>
      <cc:Work
         rdf:about="">
        <dc:format>image/svg+xml</dc:format>
        <dc:type
           rdf:resource="http://purl.org/dc/dcmitype/StillImage" />
        <dc:title></dc:title>
      </cc:Work>
    </rdf:RDF>
  </metadata>
  <defs
     id="defs1185" />
  <sodipodi:namedview
     pagecolor="#ffffff"
     bordercolor="#666666"
     borderopacity="1"
     objecttolerance="10"
     gridtolerance="10"
     guidetolerance="10"
     inkscape:pageopacity="0"
     inkscape:pageshadow="2"
     inkscape:window-width="1289"
     inkscape:window-height="763"
     id="namedview1183"
     showgrid="false"
     inkscape:zoom="0.39794271"
     inkscape:cx="461"
     inkscape:cy="600"
     inkscape:window-x="0"
     inkscape:window-y="0"
     inkscape:window-maximized="0"
     inkscape:current-layer="svg1181" />
  <path
     style="fill:#000000;stroke-width:0.5"
     d="m 705.3794,820.48533 c -1.03553,-0.241 -2.74917,-0.8802 -3.80808,-1.4204 -1.05893,-0.54025 -3.69919,-1.2057 -5.86724,-1.47885 -2.16806,-0.27315 -9.90442,-1.95635 -17.19192,-3.7404 -12.06895,-2.9546 -13.72903,-3.49185 -18.62414,-6.02735 -2.95578,-1.53098 -5.99328,-2.78549 -6.75,-2.7878 -0.75672,-0.002 -2.85448,0.37469 -4.66169,0.83778 -3.24319,0.83104 -3.31621,0.82725 -5.62846,-0.29209 -2.0873,-1.01044 -2.54269,-1.55139 -4.17784,-4.96277 -2.17211,-4.53168 -4.43278,-8.39336 -5.82698,-9.95372 -0.84285,-0.9433 -1.51864,-1.125 -4.1841,-1.125 -3.89353,0 -5.02089,-0.45814 -11.58687,-4.70864 -2.85454,-1.8479 -6.79204,-3.93416 -8.75,-4.63614 -4.774,-1.71161 -5.88646,-2.30993 -10.55992,-5.67952 -2.2,-1.58621 -5.38958,-3.69316 -7.08795,-4.6821 -3.90531,-2.27402 -6.2193,-4.97292 -8.65638,-10.0963 -1.31801,-2.77082 -2.61224,-4.64761 -4.09172,-5.93352 -2.75947,-2.39842 -21.28976,-14.68551 -24.89704,-16.50877 -1.64068,-0.82926 -4.38575,-3.04152 -6.86783,-5.5348 -3.698,-3.71468 -5.98764,-5.42597 -13.89336,-10.3839 -1.23982,-0.77753 -4.77037,-4.09231 -7.84567,-7.36618 -3.07531,-3.27387 -6.87281,-6.85131 -8.4389,-7.94986 -3.54751,-2.48844 -5.44892,-4.63406 -6.66837,-7.52482 -2.68936,-6.37526 -3.884,-8.54383 -6.47046,-11.74545 -1.81681,-2.24892 -3.49147,-5.09307 -4.68501,-7.95675 -1.02162,-2.45121 -4.28343,-8.40494 -7.24845,-13.23051 -2.96502,-4.82557 -5.64881,-9.57003 -5.96397,-10.54325 -0.31515,-0.97322 -1.31576,-3.25547 -2.22356,-5.07166 -0.9078,-1.81619 -2.09877,-4.96618 -2.64661,-7 -1.71599,-6.37052 -5.34876,-15.99059 -6.65807,-17.63151 -2.57588,-3.22824 -3.04523,-4.71151 -2.77901,-8.78235 0.2092,-3.1989 0.0252,-4.50859 -1.19009,-8.47046 -0.79065,-2.57758 -1.43755,-5.51918 -1.43755,-6.53689 0,-1.01772 -0.58034,-3.74629 -1.28965,-6.06351 -1.123,-3.6687 -1.25649,-4.82608 -1.03299,-8.95679 0.16993,-3.14079 0.004,-6.07461 -0.49051,-8.68243 -0.53236,-2.80639 -0.73503,-7.12058 -0.70493,-15.00632 0.0233,-6.08716 0.003,-12.08007 -0.0448,-13.31757 -0.15841,-4.09364 1.05044,-19.69446 1.77649,-22.92656 0.39247,-1.74711 0.87396,-5.45961 1.06997,-8.25 0.19602,-2.79039 0.66241,-5.94548 1.03642,-7.01131 0.97293,-2.77255 0.90524,-9.00277 -0.10693,-9.84281 -0.43491,-0.36093 -3.48099,-0.92841 -6.8089,-1.26848 -5.4538,-0.55731 -6.4238,-0.81537 -10.28126,-2.73531 -4.01592,-1.9988 -4.49114,-2.11649 -8.3161,-2.05957 -2.23123,0.0332 -6.73487,-0.26768 -10.00809,-0.66862 -5.37101,-0.6579 -6.41525,-0.96096 -10.70954,-3.10816 -4.75823,-2.37918 -4.75823,-2.37918 -10.4915,-2.37918 -7.06453,0 -7.16282,0.0867 -5.92234,5.22621 0.52426,2.17209 0.7322,4.25842 0.53121,5.3298 -0.34458,1.83677 0.34049,9.55203 1.57305,17.71581 0.39625,2.62451 0.72045,6.4871 0.72045,8.58355 0,2.71245 0.29107,4.49077 1.00929,6.16631 0.55511,1.29502 1.34209,4.51992 1.74885,7.16645 0.40675,2.64653 1.22449,6.67718 1.81718,8.95701 0.96169,3.69915 1.01464,4.50609 0.4922,7.5 -0.42364,2.4277 -0.44586,4.66758 -0.0804,8.10486 1.38442,13.02142 1.63534,18.75462 1.06132,24.25 -0.31598,3.025 -0.5268,7.3 -0.4685,9.5 0.13153,4.96308 -0.54084,7.08856 -3.57328,11.29574 -1.30652,1.81266 -2.8587,4.58724 -3.44929,6.16573 -0.59059,1.57849 -1.38833,3.47821 -1.77276,4.22161 -1.15331,2.23026 -10.59902,11.58571 -13.90847,13.77557 -2.5708,1.7011 -3.39564,2.62473 -4.94867,5.54135 -1.0643,1.99879 -2.91717,4.46506 -4.31989,5.75 -1.35093,1.2375 -3.24339,3.49435 -4.20547,5.01523 -1.95121,3.08449 -5.31922,6.25544 -8.82623,8.30979 -1.27923,0.74935 -3.61997,2.31481 -5.20164,3.47878 -3.16227,2.32719 -5.82726,3.32937 -11.12423,4.18336 -1.925,0.31036 -6.3125,1.48823 -9.75,2.61751 -8.13872,2.67371 -14.14099,3.14242 -17.76644,1.38737 -5.40563,-2.61682 -6.43192,-6.47639 -6.1601,-23.16619 0.16247,-9.97538 0.27956,-11.24453 1.17846,-12.77359 1.85462,-3.15472 2.97365,-3.61439 9.81035,-4.0299 5.67039,-0.34462 6.58486,-0.54412 10.93773,-2.38624 2.6125,-1.10559 6.26099,-2.50428 8.10777,-3.10818 2.79557,-0.91416 3.69983,-1.50656 5.40073,-3.5381 1.12363,-1.34204 2.87513,-2.93661 3.89223,-3.54349 2.75141,-1.64167 5.06062,-3.94804 6.20399,-6.19635 0.5594,-1.1 1.97097,-3.35 3.1368,-5 1.16584,-1.65 2.589,-3.9239 3.16258,-5.05311 0.57358,-1.12922 2.07385,-3.26094 3.33394,-4.73717 2.72305,-3.19013 4.26264,-7.5761 4.26055,-12.13739 -0.002,-4.79299 -0.97534,-11.5684 -2.29461,-15.97606 -1.42108,-4.74782 -1.50046,-7.46859 -0.36823,-12.62134 0.71669,-3.26161 0.75149,-4.42122 0.2443,-8.13922 -0.3253,-2.38464 -0.83005,-8.38571 -1.12166,-13.33571 -0.33566,-5.69759 -0.96372,-11.01813 -1.71166,-14.5 -0.64979,-3.025 -1.43231,-7.04513 -1.73893,-8.93362 -0.76638,-4.72017 -3.72312,-11.96588 -6.34461,-15.54792 -2.11061,-2.88395 -2.40633,-3.63371 -3.55718,-9.01846 -0.29387,-1.375 -0.97905,-3.85 -1.52264,-5.5 -0.54358,-1.65 -1.24646,-4.8 -1.56197,-7 -0.78896,-5.50145 -2.78617,-9.44444 -6.77426,-13.37413 -1.76477,-1.73893 -3.55201,-3.98339 -3.97163,-4.98769 -1.39863,-3.34738 -0.80132,-4.37048 7.17804,-12.29509 4.01305,-3.98551 7.97145,-7.7196 8.79645,-8.29797 0.825,-0.57837 2.74973,-2.00018 4.27719,-3.15958 3.466,-2.63082 6.99772,-3.58597 9.96841,-2.69593 2.4893,0.74581 5.25387,3.10915 6.5044,5.56039 0.99605,1.95243 2.76195,3.64303 6.78645,6.49707 7.09098,5.0287 9.51915,6.54905 11.15958,6.98735 0.99218,0.2651 4.27897,1.14001 7.30397,1.94423 3.09564,0.82301 7.68578,1.61963 10.5,1.82227 2.75,0.19802 6.35767,0.77911 8.01704,1.29131 1.65938,0.51219 4.53805,1.14666 6.39705,1.40993 2.20344,0.31205 4.16673,0.96934 5.64007,1.88826 5.41679,3.37844 4.45213,3.2217 15.98857,2.59772 11.07668,-0.59912 10.61735,-0.50045 19.20727,-4.12603 4.953,-2.09053 6.27458,-2.18345 12,-0.84376 2.3375,0.54695 6.51852,1.20339 9.29116,1.45874 5.97016,0.54985 9.00382,1.79946 13.39802,5.51885 5.89826,4.99247 8.06801,9.52219 8.04918,16.80406 -0.0127,4.90966 -0.97625,7.75869 -4.2172,12.46926 -0.87932,1.27804 -1.75532,3.39188 -2.0268,4.89081 -1.4773,8.15653 -1.99436,12.5942 -1.99436,17.1167 0,2.77781 -0.42886,8.19441 -0.95304,12.03689 -1.53948,11.28533 -2.22623,24.80155 -1.87927,36.98634 0.17228,6.05 0.54135,12.125 0.82015,13.5 0.27881,1.375 0.7191,6.1 0.97843,10.5 0.28629,4.85768 0.78107,8.8672 1.25965,10.2078 0.43348,1.2143 1.02519,4.33356 1.3149,6.93171 0.72932,6.54061 2.05246,10.47035 4.72032,14.01938 2.33615,3.10777 3.23886,5.99743 3.23886,10.36783 0,1.4781 0.53327,3.14543 1.72372,5.38939 0.94805,1.78705 2.10121,4.56198 2.56258,6.16653 1.27322,4.42787 1.99026,5.54274 6.70013,10.41736 2.39135,2.475 4.88188,5.2875 5.53451,6.25 1.58518,2.33782 8.37123,9.86995 12.82074,14.2303 1.97543,1.93583 4.59898,5.0947 5.83013,7.0197 1.23113,1.925 3.06578,4.2875 4.077,5.25 1.01121,0.9625 3.25083,3.55 4.97692,5.75 5.41636,6.90344 11.4646,12.14897 19.02427,16.49938 1.375,0.79128 4.075,2.92888 6,4.75022 1.925,1.82135 5.975,4.96578 9,6.98763 10.84302,7.24726 13.61158,9.59098 17.50792,14.82132 3.57549,4.79963 11.80844,11.36863 18.06162,14.41121 2.6111,1.27047 5.84517,3.17763 7.18681,4.23814 1.51766,1.19964 3.78176,2.33595 5.9921,3.00732 3.12064,0.94786 3.96008,1.48717 6.90214,4.43438 2.83023,2.83519 4.04693,3.6417 7.84941,5.20313 2.475,1.01632 6.075,2.20446 8,2.6403 2.14459,0.48557 4.51806,1.46627 6.1289,2.53241 1.72382,1.14092 3.87558,2.00142 6.25,2.4994 1.9916,0.4177 4.95371,1.45176 6.58246,2.29791 1.6628,0.86384 4.62268,1.82911 6.75,2.20128 7.1227,1.24612 15.04188,3.42629 17.99773,4.95481 3.733,1.93041 8.5907,5.42036 10.26133,7.37212 2.31208,2.70114 3.10101,5.44433 3.54764,12.33549 0.44061,6.79815 -0.11588,9.18184 -2.87547,12.3169 -2.7504,3.1246 -11.45889,9.5781 -13.47337,9.98455 -0.91807,0.1852 -2.00672,0.40745 -2.41922,0.49385 -0.4125,0.0864 -1.59725,-0.04 -2.63276,-0.28115 z"
     id="path1191"
     inkscape:connector-curvature="0" />
</svg>
