<?xml version="1.0" encoding="UTF-8" standalone="no"?>
<!-- Created with Inkscape (http://www.inkscape.org/) -->

<svg
   xmlns:dc="http://purl.org/dc/elements/1.1/"
   xmlns:cc="http://creativecommons.org/ns#"
   xmlns:rdf="http://www.w3.org/1999/02/22-rdf-syntax-ns#"
   xmlns:svg="http://www.w3.org/2000/svg"
   xmlns="http://www.w3.org/2000/svg"
   xmlns:sodipodi="http://sodipodi.sourceforge.net/DTD/sodipodi-0.dtd"
   xmlns:inkscape="http://www.inkscape.org/namespaces/inkscape"
   version="1.1"
   id="svg228"
   width="1000"
   height="1000"
   viewBox="0 0 1000 1000"
   sodipodi:docname="Masomeh_bdc_d.svg"
   inkscape:version="0.92.2 5c3e80d, 2017-08-06">
  <metadata
     id="metadata234">
    <rdf:RDF>
      <cc:Work
         rdf:about="">
        <dc:format>image/svg+xml</dc:format>
        <dc:type
           rdf:resource="http://purl.org/dc/dcmitype/StillImage" />
        <dc:title></dc:title>
      </cc:Work>
    </rdf:RDF>
  </metadata>
  <defs
     id="defs232" />
  <sodipodi:namedview
     pagecolor="#ffffff"
     bordercolor="#666666"
     borderopacity="1"
     objecttolerance="10"
     gridtolerance="10"
     guidetolerance="10"
     inkscape:pageopacity="0"
     inkscape:pageshadow="2"
     inkscape:window-width="1027"
     inkscape:window-height="480"
     id="namedview230"
     showgrid="false"
     inkscape:zoom="0.19666667"
     inkscape:cx="354.5"
     inkscape:cy="600"
     inkscape:window-x="61"
     inkscape:window-y="84"
     inkscape:window-maximized="0"
     inkscape:current-layer="svg228" />
  <path
     style="fill:#000000;stroke-width:0.5"
     d="m 427.25847,749.73374 c -2.475,-0.6653 -6.525,-1.4414 -9,-1.72465 -13.86844,-1.58715 -15.93618,-2.1718 -20.25,-5.7252 -1.5125,-1.2459 -3.93847,-2.71135 -5.39104,-3.2566 -4.11286,-1.54385 -4.93633,-2.3002 -7.81793,-7.1809 -1.48156,-2.50935 -3.73367,-6.1071 -5.00468,-7.99495 -2.77635,-4.12376 -6.31068,-11.41524 -9.48479,-19.56755 -1.28486,-3.3 -3.31673,-8.0357 -4.51527,-10.52377 -1.30449,-2.70804 -2.52196,-6.22009 -3.03322,-8.75 -0.46974,-2.32443 -1.50416,-5.76339 -2.2987,-7.64214 -1.81575,-4.29345 -3.37907,-13.37375 -3.54389,-20.58409 -0.25407,-11.11469 -0.0856,-13.86181 1.04261,-17 0.59318,-1.65 1.30211,-5.3625 1.5754,-8.25 0.55298,-5.84277 0.98202,-7.49624 2.984,-11.5 0.75629,-1.5125 1.7205,-3.91357 2.14268,-5.33572 0.42218,-1.42214 1.04519,-3.10964 1.38447,-3.75 0.98074,-1.85102 6.69204,-8.98882 8.79334,-10.98962 2.26924,-2.1607 7.6299,-5.65223 12.16702,-7.92466 1.7875,-0.89528 4.73946,-2.58804 6.55992,-3.7617 1.82046,-1.17367 4.35834,-2.5977 5.63974,-3.16452 1.2814,-0.56683 3.6271,-1.94058 5.21267,-3.0528 1.58557,-1.11221 5.46019,-3.0022 8.61026,-4.19998 16.01958,-6.09125 17.93385,-7.04913 22.7165,-11.36712 4.62998,-4.18014 9.47243,-7.37296 13.13869,-8.66287 1.17028,-0.41173 4.99528,-0.96557 8.5,-1.23072 8.50112,-0.64318 12.41208,-1.60572 21.62222,-5.32158 4.2625,-1.71971 9.2125,-3.52606 11,-4.0141 1.78749,-0.48805 5.49999,-1.94577 8.24999,-3.23937 2.75,-1.29359 5.51285,-2.51173 6.13967,-2.70697 0.62681,-0.19523 2.53931,-1.48311 4.25,-2.86196 3.33966,-2.69183 5.2899,-3.8153 9.46062,-5.44991 3.56296,-1.39642 5.21667,-3.06996 5.83091,-5.90083 0.27634,-1.27356 0.63019,-6.70307 0.78635,-12.06557 0.28344,-9.73387 0.77883,-16.4738 1.80076,-24.5 0.29763,-2.3375 0.72713,-9.5375 0.95444,-16 0.49123,-13.96548 1.64555,-24.29802 3.31249,-29.65081 0.92548,-2.97191 1.21891,-5.05555 1.2322,-8.75 0.01,-2.66706 0.34267,-6.64919 0.74016,-8.84919 0.3975,-2.2 0.72715,-5.60054 0.73257,-7.55676 0.005,-1.95621 0.23469,-4.74243 0.50951,-6.19159 0.27484,-1.44915 0.52061,-7.04861 0.54619,-12.44324 0.0323,-6.81587 0.27044,-10.70501 0.7805,-12.74711 0.5714,-2.28763 0.6298,-3.83849 0.26362,-7 -0.27575,-2.38079 -0.31817,-10.26808 -0.10252,-19.0613 0.20233,-8.25 0.26171,-16.23824 0.13195,-17.75163 -0.16881,-1.96876 0.0167,-3.32018 0.65186,-4.75 0.70439,-1.58555 0.96062,-4.06414 1.24035,-11.99837 0.31253,-8.86489 0.5018,-10.45933 1.66744,-14.04657 2.52569,-7.77284 4.58272,-9.45343 11.57093,-9.45343 3.93403,0 4.86458,0.17902 7.3988,1.42341 1.59433,0.78288 4.25285,2.67704 5.9078,4.20924 5.28542,4.89336 6.26954,8.29853 5.1688,17.88474 -0.38003,3.30957 -1.03394,7.35957 -1.45314,9 -0.61868,2.42105 -0.79941,7.73662 -0.95991,28.23261 -0.11522,14.7145 -0.4256,26.71036 -0.74387,28.75 -0.30039,1.925 -0.79366,7.325 -1.09617,12 -0.3025,4.675 -0.851,10.4125 -1.21889,12.75 -0.36788,2.3375 -0.81661,7.2875 -0.99719,11 -0.18058,3.7125 -0.65894,8.4375 -1.06302,10.5 -1.39001,7.09488 -2.68861,16.75578 -2.69091,20.01901 -10e-4,1.79794 -0.32216,5.84794 -0.71309,9 -0.39094,3.15204 -0.85487,7.98099 -1.03095,10.73099 -0.17608,2.75 -0.65124,7.88305 -1.0559,11.40678 -0.40466,3.52373 -0.60778,7.12372 -0.45137,8 0.15642,0.87627 0.48021,5.72646 0.71953,10.7782 0.53296,11.24946 0.51417,11.2151 5.08354,9.29317 1.75776,-0.73935 5.10844,-2.30474 7.44594,-3.47866 2.3375,-1.17392 5.4875,-2.52598 7,-3.00458 1.5125,-0.4786 4.775,-1.72044 7.25,-2.75965 2.475,-1.0392 5.45501,-2.14436 6.62225,-2.45589 1.16723,-0.31154 6.3559,-2.46009 11.53035,-4.77457 5.17446,-2.31448 10.45676,-4.44315 11.73845,-4.73039 1.28169,-0.28723 3.85552,-1.11705 5.71965,-1.84406 4.41375,-1.72136 9.58018,-1.88858 12.15286,-0.39336 2.5496,1.48182 7.38203,8.90777 8.00162,12.29601 0.82527,4.51305 -1.09585,8.09425 -6.16349,11.48948 -1.70593,1.14295 -4.56855,3.15204 -6.36138,4.46465 -1.79283,1.31261 -4.48366,2.86901 -5.97964,3.45866 -1.49596,0.58966 -3.9666,1.83766 -5.4903,2.77334 -3.63709,2.23348 -5.33747,2.79134 -14.27037,4.68183 -12.25477,2.59349 -15.04558,3.61537 -20.75,7.59777 -1.5125,1.05591 -4.08183,2.3779 -5.70963,2.93775 -1.62781,0.55984 -3.99031,1.67425 -5.25,2.47645 -1.25971,0.8022 -3.78977,2.17039 -5.62236,3.04042 -2.37011,1.12523 -3.48087,1.96652 -3.84771,2.91427 -1.13099,2.92201 -2.08162,14.48449 -2.37189,28.84911 -0.30277,14.98327 -0.30277,14.98327 2.01301,18.45312 2.65983,3.98533 4.00476,8.01603 3.66892,10.99554 -0.12825,1.1379 -0.9413,3.52034 -1.80677,5.29432 -0.86546,1.77397 -1.57357,3.98332 -1.57357,4.90966 0,0.92634 -0.53918,3.51719 -1.19817,5.75744 -2.6341,8.95465 -3.46305,15.51896 -2.33457,18.4871 0.25701,0.67595 1.52303,2.41772 2.81339,3.8706 1.29035,1.45288 3.18244,4.45822 4.20462,6.67854 2.17752,4.72989 4.2342,6.79679 9.53485,9.5822 2.25653,1.18577 4.82049,3.10321 6.6937,5.00584 3.59985,3.6564 3.32381,3.50411 13.07396,7.21328 5.68503,2.16272 8.62692,3.00503 11.32156,3.24154 2.00236,0.17574 5.93951,0.64303 8.74921,1.03841 3.16856,0.44587 9.37332,0.72564 16.33892,0.7367 6.1767,0.01 12.42785,0.21384 13.89145,0.4534 1.88956,0.30928 4.12048,0.20513 7.69478,-0.35923 4.83159,-0.76287 5.11238,-0.75625 6.9934,0.16501 3.09466,1.51567 4.04835,3.41595 4.42583,8.81872 0.17834,2.5526 0.11873,6.37802 -0.13247,8.50095 -0.94636,7.99792 -3.29834,9.93735 -13.88439,11.44897 -3.81484,0.54473 -8.71695,1.57268 -10.89358,2.28433 -3.48536,1.13954 -4.49945,1.25998 -8.5,1.00952 -3.02067,-0.18912 -6.21759,-0.80824 -9.54249,-1.84804 -3.1849,-0.99601 -6.81511,-1.71492 -10,-1.98034 -2.9926,-0.2494 -6.10407,-0.84503 -7.75,-1.4836 -3.1835,-1.23509 -17.07387,-4.7744 -20.75,-5.28716 -3.10738,-0.43343 -5.39883,-1.36916 -7.32795,-2.99241 -0.8187,-0.68889 -2.76734,-1.60886 -4.3303,-2.04437 -5.50134,-1.53291 -6.06551,-1.79903 -9.2679,-4.37155 -1.77684,-1.42737 -5.18633,-3.80685 -7.57663,-5.28772 -3.45653,-2.14145 -4.70114,-3.24767 -6.08118,-5.40501 -1.13501,-1.77431 -2.02001,-2.65764 -2.55872,-2.5539 -0.51149,0.0985 -1.34093,1.56024 -2.18896,3.85765 -0.75098,2.03447 -2.09919,4.84535 -2.99602,6.2464 -0.89683,1.40105 -2.7291,4.79736 -4.07171,7.54736 -3.65658,7.48962 -6.47484,11.39695 -12.83744,17.79826 -7.6659,7.71254 -11.09699,11.68804 -13.23303,15.33259 -0.97454,1.6628 -2.505,3.6433 -3.40102,4.40105 -2.47788,2.0955 -7.23316,4.11365 -11.12914,4.7232 -4.76463,0.7454 -12.01659,2.61425 -19.64112,5.06155 -5.80254,1.8625 -7.03692,2.0781 -14.10887,2.4642 -4.2625,0.23275 -12.25,0.4131 -17.75,0.40085 -8.96183,-0.02 -10.46718,-0.14785 -14.5,-1.23185 z m 26.31158,-28.65729 c 9.28969,-1.76097 24.19593,-5.64154 26.7997,-6.97682 1.0388,-0.53272 3.60309,-2.50919 5.69844,-4.39216 2.09535,-1.88297 4.99033,-4.41491 6.43329,-5.62654 1.50634,-1.26484 3.97105,-4.24576 5.78781,-7 1.74032,-2.63837 4.08149,-6.14704 5.20259,-7.79704 1.12111,-1.65 2.39225,-4.2375 2.82475,-5.75 2.88411,-10.08601 6.02858,-19.89279 9.43871,-29.43688 2.11533,-5.92029 3.02121,-13.071 2.50998,-19.81312 -0.25607,-3.37709 -0.11349,-4.62779 0.91552,-8.03135 1.03345,-3.41827 1.26929,-5.50935 1.55075,-13.75 0.18257,-5.34526 0.64098,-11.74365 1.0187,-14.21865 0.37771,-2.475 0.83364,-7.0213 1.01317,-10.1029 0.32642,-5.60289 0.32642,-5.60289 -1.89735,-8 -1.22308,-1.3184 -2.69125,-3.46585 -3.2626,-4.7721 -0.57135,-1.30625 -1.33272,-2.37086 -1.69194,-2.3658 -1.49816,0.0211 -11.41326,3.49431 -14.65311,5.1329 -2.12549,1.07499 -5.15165,2.07711 -7.70568,2.55176 -3.01412,0.56014 -5.58634,1.48802 -9.07882,3.27503 -2.68023,1.3714 -5.96267,2.76113 -7.29432,3.08827 -1.33164,0.32714 -4.89551,1.82788 -7.91969,3.33495 -3.16513,1.57732 -10.80374,4.53607 -18,6.97216 -29.74326,10.06873 -29.96157,10.16201 -35.32422,15.09422 -2.0225,1.86015 -5.58976,4.74767 -7.92726,6.41672 -5.64104,4.02787 -8.30446,6.886 -11.91407,12.78505 -2.58331,4.22181 -3.20095,5.72901 -4.40527,10.75 -1.49081,6.21541 -1.56019,7.75184 -1.06524,23.58974 0.30479,9.75313 1.05628,12.7009 6.75446,26.49497 4.44445,10.75905 5.83479,13.16202 10.13012,17.50818 3.48791,3.52919 4.11692,3.93706 9,5.83597 8.09729,3.14885 11.35639,4.10708 18.31762,5.38572 8.4339,1.54911 9.67388,1.53706 18.74396,-0.18228 z"
     id="path238"
     inkscape:connector-curvature="0" />
</svg>
