<?xml version="1.0" encoding="UTF-8" standalone="no"?>
<!-- Created with Inkscape (http://www.inkscape.org/) -->

<svg
   xmlns:dc="http://purl.org/dc/elements/1.1/"
   xmlns:cc="http://creativecommons.org/ns#"
   xmlns:rdf="http://www.w3.org/1999/02/22-rdf-syntax-ns#"
   xmlns:svg="http://www.w3.org/2000/svg"
   xmlns="http://www.w3.org/2000/svg"
   xmlns:sodipodi="http://sodipodi.sourceforge.net/DTD/sodipodi-0.dtd"
   xmlns:inkscape="http://www.inkscape.org/namespaces/inkscape"
   version="1.1"
   id="svg143"
   width="1000"
   height="1000"
   viewBox="0 0 1000 1000"
   sodipodi:docname="Masomeh_bdc_u.svg"
   inkscape:version="0.92.2 5c3e80d, 2017-08-06">
  <metadata
     id="metadata149">
    <rdf:RDF>
      <cc:Work
         rdf:about="">
        <dc:format>image/svg+xml</dc:format>
        <dc:type
           rdf:resource="http://purl.org/dc/dcmitype/StillImage" />
        <dc:title></dc:title>
      </cc:Work>
    </rdf:RDF>
  </metadata>
  <defs
     id="defs147" />
  <sodipodi:namedview
     pagecolor="#ffffff"
     bordercolor="#666666"
     borderopacity="1"
     objecttolerance="10"
     gridtolerance="10"
     guidetolerance="10"
     inkscape:pageopacity="0"
     inkscape:pageshadow="2"
     inkscape:window-width="1167"
     inkscape:window-height="658"
     id="namedview145"
     showgrid="false"
     inkscape:zoom="0.15210938"
     inkscape:cx="732"
     inkscape:cy="600"
     inkscape:window-x="84"
     inkscape:window-y="0"
     inkscape:window-maximized="0"
     inkscape:current-layer="svg143" />
  <path
     style="fill:#000000;stroke-width:0.5"
     d="m 175.10772,824.76998 c -1.11581,-0.5501 -2.03362,-1.64895 -2.96176,-3.546 -1.24219,-2.53895 -1.33693,-3.1742 -1.24041,-8.3165 0.0575,-3.0622 0.15277,-14.0051 0.21176,-24.3176 0.10582,-18.49795 0.12338,-18.79033 1.30643,-21.75 1.68199,-4.20792 4.38886,-6.7488 9.05083,-8.49583 10.18151,-3.81544 18.29857,-8.88581 23.24548,-14.52042 1.57148,-1.78994 5.02953,-4.91953 7.68456,-6.95466 4.28058,-3.28114 8.15601,-7.37052 10.7435,-11.3366 0.46916,-0.71912 1.19821,-3.30662 1.6201,-5.75 0.97497,-5.64645 2.41078,-8.78478 5.90186,-12.90004 1.53215,-1.80608 3.49423,-4.692 4.36016,-6.41313 0.86594,-1.72113 2.22266,-4.03594 3.01494,-5.14404 0.91881,-1.28505 1.64292,-3.16379 1.99939,-5.18751 0.41301,-2.34466 1.11833,-3.98996 2.70223,-6.30349 3.13799,-4.5835 3.62996,-5.7109 5.2191,-11.96016 1.10471,-4.34423 1.97784,-6.53055 3.73481,-9.35192 2.81726,-4.52401 4.14734,-7.98154 5.06018,-13.15384 0.53971,-3.05809 1.26545,-4.95574 3.15515,-8.25 3.54131,-6.17346 8.77078,-16.83461 9.80859,-19.99646 0.49069,-1.49496 2.0652,-5.00596 3.49891,-7.80223 2.0436,-3.98578 2.79286,-6.11775 3.46823,-9.86869 0.7185,-3.99049 1.23924,-5.39254 3.13758,-8.44778 4.10973,-6.61427 4.63487,-8.11216 4.64034,-13.23586 0.005,-4.57265 0.005,-4.57265 3.95858,-12.55307 2.17453,-4.38923 4.44341,-9.72568 5.04196,-11.85879 0.59855,-2.13311 1.54762,-4.92173 2.10903,-6.19693 1.97113,-4.47726 5.41047,-16.23245 6.41299,-21.91881 0.55705,-3.15955 1.58358,-7.12953 2.28118,-8.82219 0.8113,-1.96852 1.51637,-5.15277 1.95658,-8.83628 0.92401,-7.73176 1.41399,-9.71755 3.53358,-14.32091 0.99281,-2.1562 2.34486,-5.69852 3.00456,-7.87183 0.65971,-2.17331 2.29779,-6.33581 3.64021,-9.25 1.3424,-2.91419 2.94293,-6.87353 3.55673,-8.79853 0.61379,-1.925 2.31843,-5.6375 3.78809,-8.25 2.82984,-5.03041 6.18926,-13.75622 7.21871,-18.75 0.95264,-4.62124 2.12272,-6.45591 5.6287,-8.82574 1.7182,-1.1614 5.05167,-3.96025 7.40773,-6.21967 4.76834,-4.57278 11.4099,-9.13758 15.21626,-10.45828 1.55072,-0.53806 4.12946,-0.88562 6.79127,-0.91533 4.13508,-0.0461 4.46863,0.0379 9.16392,2.30783 4.60758,2.22758 5.29326,2.77699 12.60466,10.09965 4.25261,4.25916 8.68643,8.30324 9.85292,8.98685 1.1665,0.68362 3.77282,1.59043 5.79184,2.01514 6.64822,1.3985 9.47253,3.52338 9.91631,7.46057 0.20909,1.85504 -0.18106,3.50683 -2.10524,8.913 -1.29905,3.64979 -3.67111,9.33598 -5.27126,12.63598 -1.60015,3.3 -3.05827,6.5625 -3.24028,7.25 -0.18201,0.6875 -2.54613,5.8625 -5.2536,11.5 -5.4849,11.42066 -7.9736,17.05854 -9.82171,22.25 -0.68529,1.925 -2.37569,5.9451 -3.75645,8.93356 -1.38076,2.98846 -3.37253,7.86066 -4.42617,10.82711 -1.05364,2.96644 -2.9258,7.11907 -4.16035,9.22807 -2.47358,4.22561 -3.52188,7.79102 -4.22383,14.36571 -0.36119,3.38305 -0.87425,5.19394 -2.29986,8.11753 -1.00923,2.06969 -2.98243,6.97269 -4.38489,10.89555 -1.40246,3.92286 -3.29648,8.61908 -4.20893,10.43605 -0.91244,1.81697 -2.15838,4.85447 -2.76874,6.75 -0.61035,1.89553 -3.02296,7.26132 -5.36135,11.92399 -3.93381,7.84389 -4.26919,8.75139 -4.48671,12.14088 -0.1293,2.01482 0.12307,7.42491 0.56083,12.02243 0.74481,7.82228 1.31056,14.87821 2.35404,29.35912 0.5182,7.1913 1.65854,12.92939 5.01797,25.25 4.12235,15.11857 4.20819,15.33486 7.90438,19.91493 2.09272,2.59316 3.79858,3.79993 12.31123,8.70929 8.43997,4.86744 15.53213,7.87503 20,8.48145 1.925,0.26128 4.85,0.79293 6.5,1.18144 1.65,0.38852 7.8375,1.16821 13.75,1.73265 5.9125,0.56445 12.8875,1.40966 15.5,1.87825 3.29491,0.59099 7.43043,0.85059 13.5,0.84744 8.37178,-0.005 9.1066,-0.0875 17,-1.92325 11.86802,-2.76014 13.35394,-3.35335 22.5,-8.98244 14.92285,-9.18451 20.78134,-14.57062 28.37797,-26.08976 6.14768,-9.32204 8.25594,-13.0294 9.55256,-16.79811 1.03344,-3.00373 1.25124,-3.45968 6.66472,-13.95189 2.74073,-5.31197 4.51373,-9.65583 6.63266,-16.25 1.60218,-4.98606 3.63789,-10.24272 4.56442,-11.78641 1.94558,-3.24149 5.28372,-10.99628 8.70119,-20.21359 1.32549,-3.575 3.53425,-9.11131 4.90837,-12.30291 1.37412,-3.19161 4.09976,-11.15645 6.05697,-17.69967 1.95721,-6.54321 4.53881,-14.1694 5.73688,-16.94708 2.85289,-6.61435 3.65949,-9.18496 7.51618,-23.95394 3.32656,-12.73889 5.35281,-22.11795 6.2712,-29.02789 0.60794,-4.5741 3.22632,-16.36482 6.01114,-27.06851 1.07322,-4.125 2.18386,-9.6428 2.4681,-12.26178 0.35044,-3.22905 1.14599,-6.52834 2.47155,-10.25 2.93648,-8.24446 3.73237,-12.83205 3.32993,-19.1939 -0.3302,-5.21969 -0.30632,-5.38546 1.69422,-11.76005 1.11602,-3.55615 2.59643,-7.32298 3.2898,-8.37073 2.16588,-3.27286 5.63614,-4.93733 12.76809,-6.12409 0.9713,-0.16162 3.48755,-1.27494 5.5917,-2.47404 6.11275,-3.4835 7.4664,-3.87505 14.89235,-4.30775 4.7053,-0.27417 7.7345,-0.72041 10,-1.47317 1.7875,-0.59392 4.9487,-1.21121 7.0249,-1.37176 7.02645,-0.54334 11.3973,1.70602 14.74325,7.58727 0.7823,1.375 2.71865,3.90291 4.30305,5.61758 3.27265,3.54179 3.92455,5.47805 2.7725,8.23525 -0.40545,0.97047 -1.68445,2.52559 -2.84215,3.45583 -3.70515,2.97718 -4.32545,5.51144 -2.3871,9.75278 0.92155,2.01646 1.175,3.73674 1.46425,9.93856 0.19235,4.125 0.50315,8.75694 0.69065,10.29321 0.4422,3.62305 -0.12065,4.69455 -5.9541,11.33504 -11.72685,13.34927 -15.06395,20.35304 -21.49915,45.12175 -2.2071,8.49489 -2.67665,11.88724 -3.322,24 -0.6251,11.73198 -1.7129,21.41937 -2.9757,26.5 -1.40355,5.64685 -1.494,7.19425 -1.6365,28 -0.1319,19.25 -0.1319,19.25 1.91595,23.25 1.12635,2.2 2.45055,5.2375 2.94275,6.75 1.17505,3.61098 2.06485,5.326 4.02095,7.75 0.88765,1.1 1.99005,2.74057 2.44975,3.64571 0.4597,0.90514 1.97815,2.90714 3.37435,4.44888 1.39625,1.54175 3.2749,4.40118 4.17485,6.35429 1.0465,2.27113 2.4879,4.36212 3.99895,5.80112 1.29945,1.2375 3.8303,4.5 5.62405,7.25 4.38845,6.72783 10.58725,14.60031 13.21735,16.78604 3.28035,2.72613 10.7644,7.63022 14.6605,9.60665 1.91875,0.97335 5.17615,3.03967 7.23865,4.59182 3.9633,2.98263 13.58955,8.07153 22.75,12.02677 3.025,1.30611 7.1875,3.21486 9.25,4.24167 5.4518,2.71414 9.0829,3.67684 14,3.71174 5.30165,0.0376 6.7393,-0.55451 9.7151,-4.00135 3.19575,-3.70163 4.6945,-4.41411 9.2849,-4.41392 6.1055,2.4e-4 10.05225,1.8827 12.0155,5.73097 1.7572,3.44438 2.0476,8.55609 1.88725,33.21961 -0.147,22.61883 -0.19145,23.57378 -1.185,25.46773 -1.8249,3.47861 -3.6417,4.03838 -12.96775,3.99539 -4.4,-0.0203 -10.925,-0.40841 -14.5,-0.86252 -3.575,-0.4541 -11.225,-1.1683 -17,-1.58709 -13.60005,-0.98626 -18.44185,-1.56145 -25.34475,-3.01091 -3.1104,-0.65312 -7.45525,-1.54517 -9.65525,-1.98235 -12.1686,-2.4181 -29.43645,-8.20718 -35.4172,-11.87368 -1.97055,-1.20804 -7.07695,-3.90307 -11.3476,-5.98895 -8.5992,-4.20002 -11.15075,-6.31358 -11.77375,-9.75279 -0.5455,-3.01095 -1.44645,-4.34368 -5.1793,-7.66124 -1.921,-1.70728 -4.83325,-4.82302 -6.4717,-6.92387 -1.63845,-2.10085 -5.0436,-5.84472 -7.56705,-8.31972 -2.752,-2.69921 -6.17425,-6.80102 -8.5518,-10.25 -6.37241,-9.24404 -14.52805,-19.53275 -16.7218,-21.0953 -2.3253,-1.65626 -3.14222,-1.52167 -4.46719,0.73598 -0.51947,0.88512 -2.98256,4.4876 -5.47355,8.0055 -2.49098,3.5179 -5.34521,7.5679 -6.34272,9 -0.99752,1.4321 -2.66284,4.9348 -3.70072,7.78377 -1.76176,4.83599 -2.16041,5.47275 -6.00352,9.58922 -5.16577,5.53322 -8.44774,10.72723 -9.47374,14.99303 -1.5433,6.41658 -1.8291,7.08485 -3.91764,9.16024 -1.1499,1.14266 -3.44072,2.79271 -5.09072,3.66678 -1.65,0.87407 -4.575,2.9637 -6.5,4.64362 -4.64612,4.0546 -15.45647,11.56129 -23.5,16.31839 -3.575,2.11432 -9.11746,5.72921 -12.31658,8.03309 -6.31368,4.54688 -14.92058,9.85168 -19.68342,12.13178 -4.21592,2.01825 -7.11963,2.92205 -13.08924,4.07405 -2.85528,0.55105 -6.68909,1.46445 -8.51959,2.0298 -1.83049,0.5654 -6.39538,1.4187 -10.14419,1.89625 -6.06694,0.7729 -7.69142,0.79785 -14.7815,0.22705 -5.69967,-0.45885 -9.1744,-1.0114 -12.21548,-1.94245 -2.3375,-0.71565 -8.4125,-2.20165 -13.5,-3.3022 -5.0875,-1.10055 -11.8375,-2.63955 -15,-3.41995 -3.1625,-0.7804 -7.43856,-1.54855 -9.50235,-1.70705 -4.50502,-0.3459 -6.59003,-1.00405 -9.24765,-2.91895 -7.27597,-5.24269 -10.96979,-7.38707 -14.56116,-8.45323 -2.43433,-0.72267 -4.85976,-1.88942 -6.63747,-3.19292 -1.54075,-1.12975 -4.0976,-2.79258 -5.68189,-3.69516 -3.60209,-2.05214 -7.37377,-5.01499 -10.64522,-8.36237 -1.38916,-1.4214 -3.91067,-3.28348 -5.60336,-4.13794 -4.46119,-2.252 -6.40824,-4.14993 -7.39595,-7.20935 -0.57324,-1.77558 -1.6728,-3.47488 -3.46291,-5.35168 -1.44264,-1.5125 -3.42956,-3.9875 -4.41538,-5.5 -0.98582,-1.5125 -3.15649,-3.94618 -4.82371,-5.40816 -2.68925,-2.35821 -3.4462,-3.48664 -6.70795,-10 -9.47721,-18.92496 -13.4509,-25.61359 -15.44511,-25.99764 -1.14978,-0.22143 -2.76792,2.55955 -3.13594,5.38951 -0.44276,3.40467 -1.57066,6.14481 -3.42307,8.31602 -2.12755,2.49372 -2.90918,4.03947 -5.08213,10.05038 -0.97422,2.69494 -3.01837,7.08546 -4.54255,9.75672 -1.69439,2.96953 -3.12866,6.2725 -3.69102,8.5 -0.50587,2.00374 -1.38309,4.67987 -1.94937,5.94695 -0.56628,1.26709 -1.35619,3.85459 -1.75536,5.75 -0.39917,1.89542 -1.56759,5.47122 -2.59649,7.94622 -1.58011,3.80094 -2.38512,5.00487 -5.18203,7.75 -1.82122,1.7875 -3.92914,4.0921 -4.68427,5.12134 -0.75513,1.02923 -3.32915,3.16673 -5.72003,4.75 -3.00228,1.98813 -5.35411,4.07511 -7.60235,6.74626 -1.7904,2.1272 -4.2277,4.6022 -5.41621,5.5 -1.19885,0.90565 -3.17683,3.2577 -4.44273,5.28305 -2.02117,3.23365 -2.7168,3.9015 -6.09048,5.84745 -2.09478,1.20825 -5.49556,3.7511 -7.55728,5.65075 -2.06172,1.89965 -5.09858,4.3171 -6.74858,5.37215 -1.65,1.055 -4.61951,3.45065 -6.59891,5.3236 -2.13217,2.0175 -4.06804,3.43065 -4.75,3.4673 -5.05273,0.2718 -5.9267,0.5207 -11.04543,3.1453 -2.96688,1.52125 -6.45438,3.65755 -7.75,4.7474 -3.68969,3.1037 -5.64792,3.61805 -8.47251,2.2255 z"
     id="path153"
     inkscape:connector-curvature="0" />
</svg>
