<?xml version="1.0" encoding="UTF-8" standalone="no"?>
<!-- Created with Inkscape (http://www.inkscape.org/) -->

<svg
   xmlns:dc="http://purl.org/dc/elements/1.1/"
   xmlns:cc="http://creativecommons.org/ns#"
   xmlns:rdf="http://www.w3.org/1999/02/22-rdf-syntax-ns#"
   xmlns:svg="http://www.w3.org/2000/svg"
   xmlns="http://www.w3.org/2000/svg"
   xmlns:sodipodi="http://sodipodi.sourceforge.net/DTD/sodipodi-0.dtd"
   xmlns:inkscape="http://www.inkscape.org/namespaces/inkscape"
   version="1.1"
   id="svg678"
   width="1000"
   height="1000"
   viewBox="0 0 1000 1000"
   sodipodi:docname="Masomeh_maj_m.svg"
   inkscape:version="0.92.2 5c3e80d, 2017-08-06">
  <metadata
     id="metadata684">
    <rdf:RDF>
      <cc:Work
         rdf:about="">
        <dc:format>image/svg+xml</dc:format>
        <dc:type
           rdf:resource="http://purl.org/dc/dcmitype/StillImage" />
        <dc:title></dc:title>
      </cc:Work>
    </rdf:RDF>
  </metadata>
  <defs
     id="defs682" />
  <sodipodi:namedview
     pagecolor="#ffffff"
     bordercolor="#666666"
     borderopacity="1"
     objecttolerance="10"
     gridtolerance="10"
     guidetolerance="10"
     inkscape:pageopacity="0"
     inkscape:pageshadow="2"
     inkscape:window-width="1284"
     inkscape:window-height="763"
     id="namedview680"
     showgrid="false"
     inkscape:zoom="0.27867189"
     inkscape:cx="483.23116"
     inkscape:cy="417.06157"
     inkscape:window-x="0"
     inkscape:window-y="0"
     inkscape:window-maximized="0"
     inkscape:current-layer="svg678" />
  <path
     style="fill:#000000;stroke-width:0.5"
     d="m 142.09336,882.30385 c -0.12273,-0.12275 -2.72851,-0.66555 -5.79062,-1.20625 -6.68242,-1.18005 -8.56731,-2.0061 -10.81989,-4.74205 -0.94123,-1.1432 -4.71996,-5.14225 -8.39717,-8.8868 -6.68584,-6.80825 -6.68584,-6.80825 -9.06577,-12.49999 -2.0593,-4.92495 -2.37927,-6.15357 -2.375,-9.11959 0.002,-1.88531 -0.32588,-4.70448 -0.73021,-6.26483 -0.74767,-2.88535 -1.41511,-21.01406 -1.24766,-33.88842 0.0435,-3.34459 -0.18235,-8.09259 -0.50189,-10.55112 -0.49492,-3.80796 -0.46184,-4.92978 0.2233,-7.57385 0.5526,-2.13255 0.70204,-4.00749 0.47755,-5.99173 -0.25903,-2.28949 -0.088,-3.62906 0.82514,-6.4644 1.15188,-3.57646 1.15188,-3.57646 0.26048,-7.96746 -0.8914,-4.391 -0.8914,-4.391 1.17099,-13.06634 1.13431,-4.77144 2.27053,-10.85987 2.52493,-13.52984 0.2544,-2.66997 0.66884,-5.39893 0.92099,-6.06434 1.06508,-2.81073 4.59419,-19.08331 5.0836,-23.44028 0.29225,-2.60174 1.20939,-8.33924 2.03808,-12.75 0.82869,-4.41076 1.69029,-10.51438 1.91466,-13.56361 0.34286,-4.65965 0.62075,-5.90717 1.74197,-7.8204 0.73372,-1.252 1.66506,-3.93218 2.06965,-5.95596 0.72961,-3.64963 2.66547,-12.33217 5.0009,-22.42959 0.66785,-2.8875 1.44814,-7.20626 1.73398,-9.59725 0.72777,-6.08768 2.81216,-15.20214 4.07151,-17.80362 2.01756,-4.16772 7.06994,-6.44533 11.26448,-5.078 4.32813,1.41087 7.99256,5.07196 10.92977,10.9198 1.70352,3.39164 1.54033,5.82573 -0.9183,13.69683 -2.34052,7.49297 -2.82064,10.631 -2.31559,15.1345 0.44033,3.92645 0.16244,6.4222 -1.69551,15.22774 -2.53678,12.02277 -3.51097,23.86646 -3.35238,40.75662 0.0464,4.94107 -0.17587,6.93678 -1.2529,11.25 -1.85216,7.41743 -2.68006,24.56787 -1.7357,35.95605 0.36109,4.35441 0.52579,9.6458 0.36599,11.75864 -0.37222,4.92163 0.44902,24.59138 1.22622,29.36956 0.32735,2.01252 0.61882,7.37163 0.64771,11.90913 0.0577,9.05865 0.55817,15.49139 1.37278,17.64411 0.5929,1.56681 1.76719,2.35901 3.48253,2.34939 2.26434,-0.0127 11.62813,-4.25649 15.20695,-6.89199 2.43802,-1.7954 4.92336,-3.07813 7.93898,-4.09748 2.41445,-0.81613 5.99237,-2.35704 7.95092,-3.42424 1.95856,-1.06719 4.79852,-2.34007 6.31102,-2.82862 5.86073,-1.89304 8.1904,-3.75638 10.00359,-8.00117 1.34669,-3.1527 2.09417,-3.96867 5.16831,-5.64182 2.11215,-1.14958 2.67995,-1.79917 3.84782,-4.40214 0.97491,-2.17288 2.12158,-3.68727 3.97582,-5.25079 1.91295,-1.61302 3.05959,-3.15354 4.31257,-5.79395 1.31102,-2.76269 2.37173,-4.15154 4.57434,-5.98942 1.57715,-1.31599 3.8811,-3.3129 5.11989,-4.43759 1.23878,-1.1247 3.67441,-2.80285 5.41249,-3.72924 3.94959,-2.10511 5.3963,-3.84693 8.93285,-10.75505 1.54861,-3.025 3.65411,-6.625 4.67888,-8 2.44499,-3.2806 4.10685,-6.66327 5.7166,-11.63595 1.16649,-3.6034 1.75322,-4.5454 5.2291,-8.39532 2.92604,-3.24091 4.71892,-5.86907 7.09646,-10.40262 1.7497,-3.33636 4.18757,-7.30361 5.41747,-8.81611 4.20245,-5.16803 13.63368,-19.74923 18.4859,-28.5802 1.45969,-2.65661 3.63545,-6.03161 4.83502,-7.5 1.19957,-1.46839 3.34794,-4.3573 4.77413,-6.4198 1.4262,-2.0625 4.5242,-5.6625 6.88445,-8 4.72821,-4.68265 11.33442,-13.84687 13.56397,-18.81611 0.91077,-2.02993 2.41441,-4.16399 4.14027,-5.87611 1.85026,-1.83554 2.96699,-3.46198 3.51981,-5.12638 0.44535,-1.34082 1.82867,-3.6739 3.07404,-5.18463 1.24536,-1.51072 2.91138,-3.88634 3.70226,-5.27914 0.79087,-1.3928 3.44257,-5.5553 5.89267,-9.25 2.45009,-3.6947 5.15246,-8.22054 6.00526,-10.05744 0.8528,-1.83689 2.42341,-4.31189 3.49024,-5.5 5.60803,-6.24554 10.79733,-12.7711 15.73406,-19.78562 3.02675,-4.30066 6.4505,-9.06929 7.60834,-10.59697 4.90702,-6.47442 8.08331,-11.47662 9.15356,-14.41555 1.55955,-4.28258 2.65516,-6.33346 5.30644,-9.93315 3.33166,-4.52345 3.90292,-5.89754 4.31281,-10.37394 0.46086,-5.03299 1.15541,-6.39379 4.9461,-9.69084 1.65539,-1.43981 4.52757,-4.81076 6.38263,-7.49098 1.85505,-2.68023 4.1479,-5.99814 5.09522,-7.37314 0.94732,-1.375 3.02274,-3.85 4.61205,-5.5 1.58931,-1.65 3.27854,-3.7875 3.75385,-4.75 0.47531,-0.9625 1.58128,-2.7625 2.45772,-4 0.87644,-1.2375 2.857,-4.50401 4.40125,-7.2589 1.54425,-2.75489 4.11813,-6.4946 5.71974,-8.31047 1.60161,-1.81587 4.14952,-5.05653 5.66202,-7.20147 1.5125,-2.14494 4.2797,-5.46092 6.14934,-7.36883 1.86964,-1.90792 4.28855,-4.67262 5.37536,-6.14377 1.14632,-1.55171 2.97308,-3.23778 4.35065,-4.01557 3.43433,-1.93904 5.07743,-3.08976 9.14038,-6.40134 3.17928,-2.59133 3.85609,-3.45467 5.56194,-7.09485 1.27576,-2.72242 2.0912,-5.33132 2.37648,-7.60332 0.46098,-3.67124 0.92488,-4.83817 2.99879,-7.54333 0.71338,-0.93052 1.87402,-2.84302 2.57919,-4.25 2.21808,-4.42557 4.77118,-5.42995 11.00948,-4.33107 1.48961,0.2624 4.17089,0.73323 5.95839,1.04629 2.09279,0.36653 4.70352,1.35997 7.33219,2.79007 4.62903,2.51837 9.15692,3.66495 14.52405,3.67788 5.40675,0.013 8.4365,1.33938 12.8111,5.60843 1.97046,1.92292 4.94372,4.39263 6.60723,5.48825 1.75074,1.15307 3.71547,3.0045 4.66503,4.396 0.90225,1.32219 2.63725,3.11982 3.85556,3.99474 2.66672,1.91509 3.67435,3.71647 4.01242,7.17314 0.13975,1.42896 0.67724,4.28562 1.19442,6.34812 0.51718,2.0625 1.42394,6.55346 2.01502,9.97992 0.68673,3.98092 1.70959,7.76368 2.83343,10.47855 1.64935,3.98446 1.7838,4.73185 2.16235,12.02008 0.27585,5.31044 0.76385,9.17533 1.541,12.20467 1.1373,4.43321 1.1373,4.43321 5e-5,10.25 -1.0765,5.50601 -1.1075,6.25755 -0.58005,14.06678 0.7063,10.45802 1.2703,15.64066 2.0199,18.5619 0.44265,1.72507 0.45965,3.63938 0.0669,7.54158 -0.4595,4.56559 -0.40825,5.73232 0.4034,9.18809 1.91115,8.13718 1.7587,38.30399 -0.2322,45.94766 -0.42125,1.61732 -0.8866,4.30637 -1.03415,5.97567 -0.1475,1.6693 -0.57995,5.0601 -0.961,7.5351 -1.04205,6.76848 -1.43035,12.57128 -0.86455,12.92094 1.0285,0.63567 12.0943,-12.80599 16.55435,-20.10869 0.90285,-1.47826 3.9479,-5.75326 6.7668,-9.5 7.4379,-9.88611 10.997,-14.90542 16.35295,-23.06225 2.6183,-3.9875 6.4353,-9.18538 8.4822,-11.55084 6.39505,-7.39038 11.13255,-13.066 13.55905,-16.24414 1.28555,-1.68381 3.31055,-3.81055 4.5,-4.72608 4.29065,-3.30266 19.899,-19.65508 21.2175,-22.22894 0.70435,-1.375 2.89265,-4.08636 4.86285,-6.02524 5.39505,-5.30928 12.984,-13.70112 14.57925,-16.12168 0.77815,-1.18081 2.55965,-3.0486 3.9589,-4.15065 4.04005,-3.182 9.1405,-9.23214 10.0231,-11.88937 1.21515,-3.65839 3.0081,-5.86111 6.379,-7.83674 1.70625,-0.99999 4.28355,-2.8978 5.72735,-4.21736 1.7146,-1.56706 3.97595,-2.95291 6.51985,-3.99567 3.8278,-1.56903 22.9305,-13.99799 30.2325,-19.67041 1.8358,-1.42609 5.82185,-4.05538 8.85795,-5.84288 3.0361,-1.7875 7.3841,-4.4355 9.66225,-5.88444 2.9974,-1.90642 5.73105,-3.1236 9.89205,-4.40449 3.1625,-0.97353 6.47325,-1.99659 7.3572,-2.27347 0.884,-0.27688 2.89785,-1.50559 4.47525,-2.73046 4.11945,-3.19886 5.75145,-3.57737 9.9921,-2.31756 1.884,0.5597 4.66295,1.2664 6.17545,1.57045 1.5125,0.30404 5.0475,1.36404 7.85555,2.35554 4.1166,1.45355 5.6939,2.31225 8.14295,4.43313 1.8049,1.56304 4.19675,3.05737 5.89445,3.68261 1.5714,0.57871 3.60265,1.51134 4.51395,2.07251 2.41175,1.48509 4.29415,5.96211 5.77975,13.74618 0.6823,3.575 1.59445,7.33652 2.02695,8.35894 1.0518,2.4863 0.99245,5.83023 -0.1552,8.74755 -0.8242,2.09514 -0.97275,4.26338 -1.1913,17.39351 -0.2497,15 -0.2497,15 -2.3084,24.74902 -1.16345,5.50949 -2.0587,11.12032 -2.0587,12.90241 0,2.35745 -0.36325,4.00698 -1.4391,6.53523 -0.7915,1.86002 -1.6824,4.5162 -1.9797,5.90263 -0.5933,2.76632 -1.5028,5.25596 -4.80775,13.16071 -1.20725,2.8875 -3.3052,8.625 -4.66205,12.75 -1.3569,4.125 -2.92975,8.7375 -3.4952,10.25 -0.56545,1.5125 -1.36175,4.69429 -1.7696,7.07064 -0.43565,2.53866 -1.4931,5.98534 -2.5639,8.35693 -1.78505,3.95351 -3.3765,10.31911 -5.26825,21.07243 -0.50795,2.8875 -1.28155,7.1311 -1.719,9.43023 -0.4375,2.29913 -0.79545,5.49176 -0.79545,7.09473 0,1.60297 -0.6801,5.68436 -1.51135,9.06976 -0.83125,3.3854 -1.8447,9.08028 -2.2521,12.65528 -0.4074,3.575 -1.1055,8.92619 -1.55135,11.89154 -0.5109,3.39807 -0.68765,6.47862 -0.478,8.33164 0.26165,2.31253 0.1077,3.60788 -0.7213,6.06869 -0.91235,2.70819 -1.0077,3.78142 -0.70955,7.9866 0.29425,4.14999 0.1752,5.55995 -0.8167,9.67438 -1.27685,5.29639 -1.2984,5.09043 1.28915,12.29715 1.1054,3.07868 1.4097,5.00312 1.69985,10.75 0.39645,7.85314 0.7778,8.98307 4.0204,11.91257 2.3345,2.10907 2.97305,2.18239 8.71505,1.00063 3.9838,-0.81991 4.13885,-0.81464 7.6794,0.2609 3.0691,0.93231 4.31205,1.05048 8.25,0.78429 4.3252,-0.29236 4.754,-0.23387 6.3865,0.8712 0.9625,0.65153 2.65,2.54294 3.75,4.20314 1.1,1.66019 2.8379,4.03554 3.862,5.27854 1.0241,1.243 2.8241,4.49396 4,7.22436 2.138,4.96437 2.138,4.96437 1.9963,15.46437 -0.078,5.775 -0.011,11.23335 0.14855,12.12968 0.2439,1.36967 0.74515,1.8641 3.1417,3.09896 1.5683,0.80811 3.52645,1.92952 4.35145,2.49203 2.16515,1.47626 4.6532,1.3313 6.7611,-0.39393 2.4575,-2.0114 3.6826,-2.57686 5.58105,-2.57597 2.80185,10e-4 4.98665,1.47418 6.66215,4.4912 2.08385,3.75234 2.9516,4.12618 8.7457,3.76767 8.29895,-0.5135 18.2459,-1.17259 18.36505,-1.21688 0.0633,-0.0235 1.63825,-1.42871 3.5,-3.12265 1.8617,-1.69395 4.73495,-3.72146 6.38495,-4.5056 1.65,-0.78413 4.0933,-2.21068 5.4296,-3.1701 3.1443,-2.25755 5.3571,-2.34613 7.2766,-0.2913 2.38865,2.55706 2.57965,4.20557 2.9017,25.04638 0.27335,17.69007 0.2223,19.64625 -0.5666,21.71193 -1.6502,4.32107 -8.32225,8.69325 -15.2913,10.02036 -27.27815,5.19459 -28.5678,5.34257 -43.73745,5.01868 -14.13705,-0.30184 -13.9394,-0.27268 -29.4237,-4.34035 -6.78165,-1.78152 -19.3072,-6.61321 -22.7517,-8.7764 -2.5031,-1.57202 -4.8309,-3.78281 -13.08715,-12.42952 -11.5395,-12.08523 -17.16985,-16.39833 -29.1077,-22.29779 -7.17245,-3.54451 -10.8331,-6.6824 -12.927,-11.08097 -1.54065,-3.2364 -1.97475,-5.51577 -3.49015,-18.32543 -0.5693,-4.8125 -1.61305,-11.225 -2.31945,-14.25 -1.0286,-4.40482 -1.30145,-6.94366 -1.37015,-12.75 -0.13275,-11.21921 -1.23715,-32.6231 -1.82255,-35.32359 -1.16575,-5.37746 -1.11415,-7.7325 0.24785,-11.31159 1.47945,-3.88773 2.7842,-11.21879 2.78715,-15.66032 0.005,-5.42207 1.05515,-11.30349 2.84565,-15.91533 1.57155,-4.04791 1.68205,-4.65852 1.1941,-6.59641 -1.05785,-4.20105 -0.7075,-7.2197 1.2069,-10.39886 2.50635,-4.16224 2.8858,-6.08805 2.9639,-15.0439 0.0663,-7.60855 0.13905,-8.15903 1.48635,-11.25 0.77915,-1.7875 1.85475,-4.91482 2.39025,-6.9496 0.5355,-2.03478 1.54705,-4.83124 2.24795,-6.21437 1.55585,-3.07035 2.41345,-5.44683 3.72815,-10.33122 0.55445,-2.05986 1.64735,-5.20986 2.42865,-7 0.7813,-1.79015 1.58595,-4.60328 1.7881,-6.2514 0.2022,-1.64812 1.00225,-4.87411 1.77795,-7.16887 0.7778,-2.30104 1.5458,-5.89053 1.71245,-8.00341 0.1662,-2.10712 0.6238,-5.33805 1.0169,-7.17984 0.3931,-1.84178 0.7147,-4.68224 0.7147,-6.31213 0,-1.62989 0.3037,-3.83547 0.67495,-4.9013 0.3712,-1.06582 0.8224,-4.76216 1.00265,-8.21408 0.336,-6.43586 0.78295,-8.6371 2.98935,-14.72378 1.586,-4.37517 2.6637,-14.66516 1.85175,-17.6806 -0.46375,-1.72211 -1.4153,-7.9548 -2.30075,-15.0694 -0.6798,-5.4623 -1.0927,-5.62783 -5.17915,-2.07619 -3.6086,3.13631 -5.3199,3.98682 -9.71325,4.82741 -4.8063,0.91959 -5.92215,1.3788 -10.32555,4.2493 -2.0625,1.34451 -5.49325,3.41316 -7.62385,4.59702 -3.0352,1.68648 -5.475,3.74632 -11.27,9.51493 -5.12085,5.0975 -7.6032,7.94314 -8.06905,9.25 -1.23835,3.47386 -2.4979,4.68557 -6.9971,6.73118 -7.02985,3.19618 -7.5086,3.50941 -10.9686,7.17668 -1.8268,1.93619 -4.8964,4.76993 -6.8214,6.2972 -4.24895,3.37107 -4.0568,3.14149 -7.2212,8.62731 -1.41015,2.44467 -3.9696,6.04467 -5.68765,8 -1.71805,1.95534 -3.99505,4.6481 -5.05995,5.98392 -1.06495,1.33581 -3.6451,3.68315 -5.73375,5.2163 -5.05135,3.70799 -11.1349,9.81877 -12.5487,12.60494 -0.62795,1.2375 -2.46165,3.55539 -4.07495,5.15087 -1.61325,1.59549 -3.4728,3.96573 -4.1323,5.26722 -0.6595,1.30149 -2.33305,3.46635 -3.71895,4.8108 -1.84695,1.79164 -2.9234,3.43517 -4.0308,6.15422 -1.99145,4.8895 -6.4055,11.81041 -9.32245,14.61689 -1.28625,1.2375 -3.13455,3.4875 -4.1074,5 -0.97285,1.5125 -2.60385,3.7625 -3.6244,5 -1.02055,1.2375 -2.479,3.4875 -3.24095,5 -0.76195,1.5125 -3.01865,5.15209 -5.01495,8.08798 -1.9963,2.9359 -3.9011,6.1984 -4.2329,7.25 -1.1625,3.68453 -2.6548,5.324 -6.9505,7.63607 -5.7978,3.12054 -12.00205,9.01987 -14.12435,13.43021 -1.0009,2.07999 -2.9462,4.77304 -5.14195,7.11851 -5.50625,5.88178 -9.6053,11.87372 -12.2532,17.91176 -1.86965,4.26344 -3.1204,6.28593 -5.7566,9.30865 -3.70255,4.24542 -5.23795,7.08616 -5.27335,9.75682 -0.046,3.46637 -1.0202,6.06424 -3.47556,9.26776 -2.62552,3.42551 -2.71266,3.73591 -3.29379,11.73224 -0.53713,7.39099 -4.38484,15.19376 -9.25545,18.76912 -5.62763,4.13106 -17.37255,8.19471 -21.68949,7.50441 -2.77846,-0.4443 -4.92964,-1.91022 -6.96925,-4.7492 -1.19404,-1.66203 -3.32793,-3.47493 -6.73255,-5.71983 -6.68558,-4.40825 -9.41499,-7.99486 -11.64676,-15.3045 -0.99631,-3.26319 -1.1476,-4.85344 -1.16542,-12.25 -0.0198,-8.21985 0.0242,-8.59536 1.3353,-11.39345 1.59237,-3.39836 6.57595,-22.35987 8.36218,-31.81645 0.33347,-1.76544 1.7022,-5.9568 3.04162,-9.31412 1.33942,-3.35732 2.81051,-7.98786 3.26908,-10.2901 0.45858,-2.30223 1.60201,-6.05934 2.54097,-8.34912 1.1304,-2.75666 2.03004,-6.2197 2.66278,-10.25 0.52557,-3.34772 1.34733,-8.56176 1.82613,-11.58676 0.4788,-3.025 1.04486,-9.8875 1.25791,-15.25 0.76884,-19.35156 1.35711,-30.78763 1.68467,-32.75 0.19152,-1.14734 -0.10224,-5.5172 -0.68904,-10.25 -0.56259,-4.5375 -1.16673,-11.625 -1.34255,-15.75 -0.17581,-4.125 -0.53075,-8.4 -0.78875,-9.5 -0.55298,-2.35761 -1.59072,-24.15969 -1.35656,-28.5 0.36266,-6.72196 0.12061,-8.32811 -1.95916,-13 -1.10179,-2.475 -2.25875,-5.30705 -2.57102,-6.29345 -0.99855,-3.15419 -3.92304,-5.34631 -6.32741,-4.74285 -0.58982,0.14803 -1.66693,1.16755 -2.39357,2.26558 -1.69419,2.56009 -2.88416,3.29033 -6.57306,4.03365 -2.5731,0.51848 -3.32018,0.94263 -5.25,2.9806 -6.62639,6.99776 -9.15663,10.16695 -10.08768,12.63509 -1.30823,3.46802 -2.89266,5.04466 -7.46138,7.4247 -4.89082,2.54784 -12.27461,9.90052 -19.85487,19.7712 -5.534,7.20613 -6.12303,8.2148 -7.10996,12.17548 -0.82795,3.32268 -2.52173,5.58699 -6.8707,9.18497 -3.94744,3.2658 -7.73816,7.63842 -9.36364,10.80103 -0.49073,0.95479 -1.20507,3.07695 -1.58741,4.7159 -0.81467,3.49216 -2.04853,5.6538 -4.41135,7.72839 -0.93975,0.82511 -2.73582,2.85086 -3.99126,4.50165 -2.90298,3.81716 -6.11591,6.64394 -10.39149,9.14259 -3.54782,2.07334 -4.57186,3.20027 -5.15735,5.67547 -0.57042,2.41152 -1.99959,4.91843 -4.42146,7.75573 -1.4813,1.73538 -2.63767,3.78716 -3.35163,5.94689 -0.91789,2.77657 -1.69624,3.92917 -4.92798,7.29738 -4.49244,4.68215 -7.98117,9.14752 -9.46345,12.11267 -0.58088,1.16197 -2.10268,3.29102 -3.38179,4.73123 -1.27911,1.44021 -2.94294,3.977 -3.6974,5.63733 -0.75446,1.66032 -2.09139,3.91877 -2.97095,5.01877 -0.87956,1.1 -2.16641,3.125 -2.85967,4.5 -0.69326,1.375 -2.2134,3.625 -3.37809,5 -1.16469,1.375 -2.71647,3.76811 -3.44841,5.31802 -0.73193,1.54991 -2.03298,3.68741 -2.89121,4.75 -3.18864,3.9479 -6.37383,9.28563 -7.42379,12.44073 -0.93632,2.81367 -1.51776,3.63665 -4.31541,6.10811 -2.01155,1.77702 -3.85568,3.99498 -4.88042,5.86973 -2.91816,5.33878 -6.54381,11.0207 -9.73307,15.25317 -6.21496,8.24788 -6.79159,10.91356 -6.87019,31.76024 -0.051,13.52333 -0.46115,24.46103 -1.02867,27.4312 -0.41678,2.18127 -3.34062,5.05314 -8.02576,7.88309 -3.35714,2.02781 -4.58352,3.10406 -5.92287,5.1978 -2.22429,3.47713 -3.47054,4.38643 -7.51063,5.48004 -3.05911,0.82806 -3.7978,1.31154 -7.96075,5.21031 -2.52381,2.36366 -7.00861,6.43506 -9.96621,9.04756 -6.89961,6.09454 -15.16115,15.0415 -15.56335,16.85457 -0.74524,3.35935 -1.38039,4.68277 -2.87744,5.99544 -0.87814,0.77 -6.00087,3.82711 -11.38384,6.7936 -6.29054,3.46664 -11.195,6.56405 -13.72762,8.66967 -2.16722,1.80183 -5.0745,3.84535 -6.46063,4.54114 -1.38612,0.69579 -3.92779,2.26299 -5.64815,3.48268 -1.72035,1.21968 -6.33285,3.75148 -10.25,5.62621 -3.91714,1.87475 -8.63558,4.30359 -10.48543,5.39745 -3.01794,1.78459 -11.87906,5.50214 -24.63664,10.33604 -10.04695,3.8068 -18.0428,7.36255 -20.69476,9.20295 -1.54288,1.07075 -3.57007,2.20635 -4.50485,2.52355 -1.62548,0.55155 -8.14121,0.8192 -8.60688,0.35355 z"
     id="path688"
     inkscape:connector-curvature="0" />
</svg>
